<svg width="72" height="72" viewBox="0 0 72 72" fill="none" xmlns="http://www.w3.org/2000/svg">
<path d="M72 36C72 46.5359 67.4731 56.0149 60.2595 62.599C53.8594 68.4382 45.3461 72 36 72C26.6539 72 18.1406 68.4382 11.7405 62.599C4.52692 56.0149 0 46.5359 0 36C0 16.1186 16.1186 0 36 0C55.8814 0 72 16.1186 72 36Z" fill="#FFAA20"/>
<path d="M72 36C72 46.5359 67.4731 56.0149 60.2595 62.599C53.8594 68.4382 45.3461 72 36 72V0C55.8814 0 72 16.1186 72 36Z" fill="#FF8900"/>
<path d="M60 62.4707V62.6138C53.6684 68.4438 45.2461 72 36 72C26.7539 72 18.3316 68.4438 12 62.6138V62.4707C12 52.0583 18.5447 43.1581 27.7017 39.744C30.2879 38.7776 33.0839 38.25 36 38.25C38.9161 38.25 41.7121 38.7776 44.3 39.744C53.457 43.1597 60 52.0583 60 62.4707Z" fill="#7985EB"/>
<path d="M60 62.4707V62.6138C53.6684 68.4438 45.2461 72 36 72V38.25C38.9161 38.25 41.7121 38.7776 44.3 39.744C53.457 43.1597 60 52.0583 60 62.4707Z" fill="#4B5BE6"/>
<path d="M51 27.3747C51 35.4384 44.2722 42 36 42C27.7294 42 21 35.4384 21 27.3747C21 19.3111 27.7294 12.75 36 12.75C44.2722 12.75 51 19.3111 51 27.3747Z" fill="#FFDBA9"/>
<path d="M51 27.3747C51 35.4384 44.2722 42 36 42V12.75C44.2722 12.75 51 19.3111 51 27.3747Z" fill="#FFC473"/>
</svg>
