<svg width="385" height="280" viewBox="0 0 385 280" fill="none" xmlns="http://www.w3.org/2000/svg">
<path d="M285.465 22.8524C285.465 22.8524 290.972 25.1581 292.985 30.9488C292.985 30.9488 292.382 21.8415 296.612 18.2145C296.612 18.2145 292.79 21.2385 291.983 25.6635C291.983 25.6635 289.837 23.4732 285.474 22.8524H285.465Z" fill="#263238"/>
<path d="M266.719 0C266.719 0 273.724 5.44487 275.64 10.4641C275.64 10.4641 276.713 5.07242 281.785 3.46733C281.785 3.46733 278.123 3.18356 275.64 6.58882C275.64 6.58882 272.979 2.19923 266.719 0Z" fill="#263238"/>
<path d="M259.234 23.6861C259.234 23.6861 264.981 22.7727 267.721 26.2932C267.721 26.2932 266.027 21.07 267.721 17.5495C267.721 17.5495 265.459 19.0038 266.24 24.2447C266.24 24.2447 264.067 21.9834 259.234 23.6861Z" fill="#263238"/>
<path d="M151.836 46.0686H76.5651V192.965H151.836V46.0686Z" fill="#E6E6E6"/>
<path d="M138.152 46.0686H76.5651V192.965H138.152V46.0686Z" fill="#F0F0F0"/>
<path d="M152.722 46.0686H74.9423V48.4629H152.722V46.0686Z" fill="#2D476B"/>
<path d="M152.722 41.2711H74.9423V43.6654H152.722V41.2711Z" fill="#2D476B"/>
<path d="M151.091 43.6654H76.5651V46.0597H151.091V43.6654Z" fill="#F0F0F0"/>
<path d="M93.9728 54.7148H82.4091V66.2785H93.9728V54.7148Z" fill="#E6E6E6"/>
<path d="M93.9727 54.7148H83.4288V66.2785H93.9727V54.7148Z" fill="#14335D"/>
<path d="M111.496 54.7148H99.9319V66.2785H111.496V54.7148Z" fill="#E6E6E6"/>
<path d="M111.496 54.7148H100.952V66.2785H111.496V54.7148Z" fill="#14335D"/>
<path d="M129.01 54.7148H117.446V66.2785H129.01V54.7148Z" fill="#E6E6E6"/>
<path d="M129.01 54.7148H118.466V66.2785H129.01V54.7148Z" fill="#14335D"/>
<path d="M93.9728 71.7499H82.4091V83.3136H93.9728V71.7499Z" fill="#E6E6E6"/>
<path d="M93.9727 71.7499H83.4288V83.3136H93.9727V71.7499Z" fill="#14335D"/>
<path d="M111.496 71.7499H99.9319V83.3136H111.496V71.7499Z" fill="#E6E6E6"/>
<path d="M111.496 71.7499H100.952V83.3136H111.496V71.7499Z" fill="#14335D"/>
<path d="M129.01 71.7499H117.446V83.3136H129.01V71.7499Z" fill="#E6E6E6"/>
<path d="M129.01 71.7499H118.466V83.3136H129.01V71.7499Z" fill="#14335D"/>
<path d="M93.9728 102.938H82.4091V114.502H93.9728V102.938Z" fill="#E6E6E6"/>
<path d="M93.9727 102.938H83.4288V114.502H93.9727V102.938Z" fill="#14335D"/>
<path d="M111.496 102.938H99.9319V114.502H111.496V102.938Z" fill="#E6E6E6"/>
<path d="M111.496 102.938H100.952V114.502H111.496V102.938Z" fill="#14335D"/>
<path d="M129.01 102.938H117.446V114.502H129.01V102.938Z" fill="#E6E6E6"/>
<path d="M129.01 102.938H118.466V114.502H129.01V102.938Z" fill="#14335D"/>
<path d="M93.9728 119.973H82.4091V131.537H93.9728V119.973Z" fill="#E6E6E6"/>
<path d="M93.9727 119.973H83.4288V131.537H93.9727V119.973Z" fill="#14335D"/>
<path d="M111.496 119.973H99.9319V131.537H111.496V119.973Z" fill="#E6E6E6"/>
<path d="M111.496 119.973H100.952V131.537H111.496V119.973Z" fill="#14335D"/>
<path d="M129.01 119.973H117.446V131.537H129.01V119.973Z" fill="#E6E6E6"/>
<path d="M129.01 119.973H118.466V131.537H129.01V119.973Z" fill="#14335D"/>
<path d="M93.9728 154.638H82.4091V166.201H93.9728V154.638Z" fill="#E6E6E6"/>
<path d="M93.9727 154.638H83.4288V166.201H93.9727V154.638Z" fill="#14335D"/>
<path d="M111.496 154.638H99.9319V166.201H111.496V154.638Z" fill="#E6E6E6"/>
<path d="M111.496 154.638H100.952V166.201H111.496V154.638Z" fill="#14335D"/>
<path d="M129.01 154.638H117.446V166.201H129.01V154.638Z" fill="#E6E6E6"/>
<path d="M129.01 154.638H118.466V166.201H129.01V154.638Z" fill="#14335D"/>
<path d="M93.9728 171.673H82.4091V183.237H93.9728V171.673Z" fill="#E6E6E6"/>
<path d="M93.9727 171.673H83.4288V183.237H93.9727V171.673Z" fill="#14335D"/>
<path d="M111.496 171.673H99.9319V183.237H111.496V171.673Z" fill="#E6E6E6"/>
<path d="M111.496 171.673H100.952V183.237H111.496V171.673Z" fill="#14335D"/>
<path d="M129.01 171.673H117.446V183.237H129.01V171.673Z" fill="#E6E6E6"/>
<path d="M129.01 171.673H118.466V183.237H129.01V171.673Z" fill="#14335D"/>
<path d="M151.836 91.4454H76.5651V92.5184H151.836V91.4454Z" fill="#2D476B"/>
<path d="M151.836 144.768H76.5651V145.841H151.836V144.768Z" fill="#2D476B"/>
<path d="M63.8575 90.0531H11.7943V216.739H63.8575V90.0531Z" fill="#2D476B"/>
<path d="M49.0304 90.0531H11.7943V216.739H49.0304V90.0531Z" fill="#F0F0F0"/>
<path d="M29.4856 100.464H15.6251V107.195H29.4856V100.464Z" fill="#E6E6E6"/>
<path d="M29.4856 100.464H16.5474V107.195H29.4856V100.464Z" fill="#14335D"/>
<path d="M45.5187 100.464H31.6583V107.195H45.5187V100.464Z" fill="#E6E6E6"/>
<path d="M45.5098 100.464H32.5804V107.195H45.5098V100.464Z" fill="#14335D"/>
<path d="M29.4856 113.127H15.6251V119.858H29.4856V113.127Z" fill="#E6E6E6"/>
<path d="M29.4856 113.127H16.5474V119.858H29.4856V113.127Z" fill="#14335D"/>
<path d="M45.5187 113.127H31.6583V119.858H45.5187V113.127Z" fill="#E6E6E6"/>
<path d="M45.5098 113.127H32.5804V119.858H45.5098V113.127Z" fill="#14335D"/>
<path d="M29.4856 129.311H15.6251V136.042H29.4856V129.311Z" fill="#E6E6E6"/>
<path d="M29.4856 129.311H16.5474V136.042H29.4856V129.311Z" fill="#14335D"/>
<path d="M45.5187 129.311H31.6583V136.042H45.5187V129.311Z" fill="#E6E6E6"/>
<path d="M45.5098 129.311H32.5804V136.042H45.5098V129.311Z" fill="#14335D"/>
<path d="M29.4856 138.605H15.6251V145.335H29.4856V138.605Z" fill="#E6E6E6"/>
<path d="M29.4856 138.605H16.5474V145.335H29.4856V138.605Z" fill="#14335D"/>
<path d="M45.5187 138.605H31.6583V145.335H45.5187V138.605Z" fill="#E6E6E6"/>
<path d="M45.5098 138.605H32.5804V145.335H45.5098V138.605Z" fill="#14335D"/>
<path d="M29.4856 153.884H15.6251V160.615H29.4856V153.884Z" fill="#E6E6E6"/>
<path d="M29.4856 153.884H16.5474V160.615H29.4856V153.884Z" fill="#14335D"/>
<path d="M45.5187 153.884H31.6583V160.615H45.5187V153.884Z" fill="#E6E6E6"/>
<path d="M45.5098 153.884H32.5804V160.615H45.5098V153.884Z" fill="#14335D"/>
<path d="M29.4856 163.178H15.6251V169.908H29.4856V163.178Z" fill="#E6E6E6"/>
<path d="M29.4856 163.178H16.5474V169.908H29.4856V163.178Z" fill="#14335D"/>
<path d="M45.5187 163.178H31.6583V169.908H45.5187V163.178Z" fill="#E6E6E6"/>
<path d="M45.5098 163.178H32.5804V169.908H45.5098V163.178Z" fill="#14335D"/>
<path d="M29.4856 179.805H15.6251V186.535H29.4856V179.805Z" fill="#E6E6E6"/>
<path d="M29.4856 179.805H16.5474V186.535H29.4856V179.805Z" fill="#14335D"/>
<path d="M45.5187 179.805H31.6583V186.535H45.5187V179.805Z" fill="#E6E6E6"/>
<path d="M45.5098 179.805H32.5804V186.535H45.5098V179.805Z" fill="#14335D"/>
<path d="M29.4856 192.078H15.6251V198.809H29.4856V192.078Z" fill="#E6E6E6"/>
<path d="M29.4856 192.078H16.5474V198.809H29.4856V192.078Z" fill="#14335D"/>
<path d="M45.5187 192.078H31.6583V198.809H45.5187V192.078Z" fill="#E6E6E6"/>
<path d="M45.5098 192.078H32.5804V198.809H45.5098V192.078Z" fill="#14335D"/>
<path opacity="0.05" d="M63.8575 123.999H11.7943V125.161H63.8575V123.999Z" fill="black"/>
<path opacity="0.05" d="M63.8575 149.024H11.7943V150.186H63.8575V149.024Z" fill="black"/>
<path opacity="0.05" d="M63.8575 174.271H11.7943V175.424H63.8575V174.271Z" fill="black"/>
<path d="M63.8485 86.302H9.33777V90.3457H63.8485V86.302Z" fill="#2D476B"/>
<path opacity="0.05" d="M63.8574 86.302H51.3981V90.3457H63.8574V86.302Z" fill="black"/>
<path d="M244.079 24.0673H182.944V182.953H244.079V24.0673Z" fill="#E6E6E6"/>
<path d="M221.448 24.0673H160.313V182.953H221.448V24.0673Z" fill="#F0F0F0"/>
<path d="M216.119 34.8507H165.652V42.9471H216.119V34.8507Z" fill="#E6E6E6"/>
<path d="M216.11 34.8507H167.603V42.9471H216.11V34.8507Z" fill="#14335D"/>
<path d="M216.119 48.4806H165.652V56.577H216.119V48.4806Z" fill="#E6E6E6"/>
<path d="M216.11 48.4805H167.603V56.5769H216.11V48.4805Z" fill="#14335D"/>
<path d="M216.119 62.6337H165.652V70.73H216.119V62.6337Z" fill="#E6E6E6"/>
<path d="M216.11 62.6337H167.603V70.73H216.11V62.6337Z" fill="#14335D"/>
<path d="M216.119 76.7957H165.652V84.8921H216.119V76.7957Z" fill="#E6E6E6"/>
<path d="M216.11 76.7957H167.603V84.8921H216.11V76.7957Z" fill="#14335D"/>
<path d="M216.119 90.9488H165.652V99.0452H216.119V90.9488Z" fill="#E6E6E6"/>
<path d="M216.11 90.9488H167.603V99.0452H216.11V90.9488Z" fill="#14335D"/>
<path d="M216.119 105.111H165.652V113.207H216.119V105.111Z" fill="#E6E6E6"/>
<path d="M216.11 105.111H167.603V113.207H216.11V105.111Z" fill="#14335D"/>
<path d="M216.119 120.709H165.652V128.806H216.119V120.709Z" fill="#E6E6E6"/>
<path d="M216.11 120.709H167.603V128.806H216.11V120.709Z" fill="#14335D"/>
<path d="M216.119 136.317H165.652V144.413H216.119V136.317Z" fill="#E6E6E6"/>
<path d="M216.11 136.317H167.603V144.413H216.11V136.317Z" fill="#14335D"/>
<path d="M216.119 151.924H165.652V160.021H216.119V151.924Z" fill="#E6E6E6"/>
<path d="M216.11 151.924H167.603V160.021H216.11V151.924Z" fill="#14335D"/>
<path d="M216.119 167.523H165.652V175.619H216.119V167.523Z" fill="#E6E6E6"/>
<path d="M216.11 167.523H167.603V175.619H216.11V167.523Z" fill="#14335D"/>
<path d="M245.666 22.4712H158.584V26.3465H245.666V22.4712Z" fill="#2D476B"/>
<path d="M245.666 15.4744H158.584V19.3496H245.666V15.4744Z" fill="#2D476B"/>
<path d="M242.776 18.587H160.313V22.4623H242.776V18.587Z" fill="#F0F0F0"/>
<path d="M244.079 34.8507H227.044V42.9471H244.079V34.8507Z" fill="#2D476B"/>
<path d="M244.079 48.1702H227.044V56.2665H244.079V48.1702Z" fill="#2D476B"/>
<path d="M244.079 61.4987H227.044V69.595H244.079V61.4987Z" fill="#2D476B"/>
<path d="M244.079 76.7868H227.044V84.8832H244.079V76.7868Z" fill="#2D476B"/>
<path d="M244.079 90.9488H227.044V99.0452H244.079V90.9488Z" fill="#2D476B"/>
<path d="M244.079 105.111H227.044V113.207H244.079V105.111Z" fill="#2D476B"/>
<path d="M244.079 120.709H227.044V128.806H244.079V120.709Z" fill="#2D476B"/>
<path d="M244.079 136.317H227.044V144.413H244.079V136.317Z" fill="#2D476B"/>
<path d="M244.079 151.915H227.044V160.012H244.079V151.915Z" fill="#2D476B"/>
<path d="M244.079 167.523H227.044V175.619H244.079V167.523Z" fill="#2D476B"/>
<path d="M382.453 145.939H377.549V153.609H382.453V145.939Z" fill="#2D476B"/>
<path d="M382.453 158.495H377.549V166.166H382.453V158.495Z" fill="#2D476B"/>
<path d="M382.453 170.689H377.549V178.359H382.453V170.689Z" fill="#2D476B"/>
<path d="M382.453 183.591H377.549V191.262H382.453V183.591Z" fill="#2D476B"/>
<path d="M382.453 196.14H377.549V203.81H382.453V196.14Z" fill="#2D476B"/>
<path d="M382.453 138.232H330.869V216.686H382.453V138.232Z" fill="#E6E6E6"/>
<path d="M373.745 138.232H330.878V216.686H373.745V138.232Z" fill="#F0F0F0"/>
<path d="M369.595 145.939H334.735V153.609H369.595V145.939Z" fill="#3D1C1C"/>
<path d="M369.595 158.495H334.735V166.166H369.595V158.495Z" fill="#3D1C1C"/>
<path d="M369.595 171.043H334.735V178.714H369.595V171.043Z" fill="#3D1C1C"/>
<path d="M369.595 183.591H334.735V191.262H369.595V183.591Z" fill="#3D1C1C"/>
<path d="M369.595 196.14H334.735V203.81H369.595V196.14Z" fill="#3D1C1C"/>
<path d="M369.586 145.939H336.012V153.609H369.586V145.939Z" fill="#14335D"/>
<path d="M369.586 158.495H336.012V166.166H369.586V158.495Z" fill="#14335D"/>
<path d="M369.586 171.043H336.012V178.714H369.586V171.043Z" fill="#14335D"/>
<path d="M369.586 183.591H336.012V191.262H369.586V183.591Z" fill="#14335D"/>
<path d="M369.586 196.14H336.012V203.81H369.586V196.14Z" fill="#14335D"/>
<path d="M164.268 72.1844H76.4498V243.565H164.268V72.1844Z" fill="#0A8996"/>
<path opacity="0.4" d="M148.306 72.1844H76.4498V243.565H148.306V72.1844Z" fill="white"/>
<path d="M165.306 72.1844H74.561V74.9778H165.306V72.1844Z" fill="#0A8996"/>
<path d="M165.306 66.5888H74.561V69.391H165.306V66.5888Z" fill="#0A8996"/>
<path d="M163.399 69.391H76.4498V72.1844H163.399V69.391Z" fill="#F0F0F0"/>
<path d="M96.7661 82.276H83.2692V95.7729H96.7661V82.276Z" fill="#0A8996"/>
<path opacity="0.2" d="M96.7662 82.276H84.4576V95.7729H96.7662V82.276Z" fill="white"/>
<path d="M117.206 82.276H103.71V95.7729H117.206V82.276Z" fill="#0A8996"/>
<path opacity="0.2" d="M117.207 82.276H104.898V95.7729H117.207V82.276Z" fill="white"/>
<path d="M137.638 82.276H124.141V95.7729H137.638V82.276Z" fill="#0A8996"/>
<path opacity="0.2" d="M137.638 82.276H125.329V95.7729H137.638V82.276Z" fill="white"/>
<path d="M96.7661 102.149H83.2692V115.646H96.7661V102.149Z" fill="#0A8996"/>
<path opacity="0.2" d="M96.7662 102.149H84.4576V115.646H96.7662V102.149Z" fill="white"/>
<path d="M117.206 102.149H103.71V115.646H117.206V102.149Z" fill="#0A8996"/>
<path opacity="0.2" d="M117.207 102.149H104.898V115.646H117.207V102.149Z" fill="white"/>
<path d="M137.638 102.149H124.141V115.646H137.638V102.149Z" fill="#0A8996"/>
<path opacity="0.2" d="M137.638 102.149H125.329V115.646H137.638V102.149Z" fill="white"/>
<path d="M96.7661 138.534H83.2692V152.031H96.7661V138.534Z" fill="#0A8996"/>
<path opacity="0.2" d="M96.7662 138.534H84.4576V152.031H96.7662V138.534Z" fill="white"/>
<path d="M117.206 138.534H103.71V152.031H117.206V138.534Z" fill="#0A8996"/>
<path opacity="0.2" d="M117.207 138.534H104.898V152.031H117.207V138.534Z" fill="white"/>
<path d="M137.638 138.534H124.141V152.031H137.638V138.534Z" fill="#0A8996"/>
<path opacity="0.2" d="M137.638 138.534H125.329V152.031H137.638V138.534Z" fill="white"/>
<path d="M96.7661 158.407H83.2692V171.904H96.7661V158.407Z" fill="#0A8996"/>
<path opacity="0.2" d="M96.7662 158.407H84.4576V171.904H96.7662V158.407Z" fill="white"/>
<path d="M117.206 158.407H103.71V171.904H117.206V158.407Z" fill="#0A8996"/>
<path opacity="0.2" d="M117.207 158.407H104.898V171.904H117.207V158.407Z" fill="white"/>
<path d="M137.638 158.407H124.141V171.904H137.638V158.407Z" fill="#0A8996"/>
<path opacity="0.2" d="M137.638 158.407H125.329V171.904H137.638V158.407Z" fill="white"/>
<path d="M96.7661 198.853H83.2692V212.35H96.7661V198.853Z" fill="#0A8996"/>
<path opacity="0.2" d="M96.7662 198.853H84.4576V212.35H96.7662V198.853Z" fill="white"/>
<path d="M117.206 198.853H103.71V212.35H117.206V198.853Z" fill="#0A8996"/>
<path opacity="0.2" d="M117.207 198.853H104.898V212.35H117.207V198.853Z" fill="white"/>
<path d="M137.638 198.853H124.141V212.35H137.638V198.853Z" fill="#0A8996"/>
<path opacity="0.2" d="M137.638 198.853H125.329V212.35H137.638V198.853Z" fill="white"/>
<path d="M96.7661 218.726H83.2692V232.223H96.7661V218.726Z" fill="#0A8996"/>
<path opacity="0.2" d="M96.7662 218.726H84.4576V232.223H96.7662V218.726Z" fill="white"/>
<path d="M117.206 218.726H103.71V232.223H117.206V218.726Z" fill="#0A8996"/>
<path opacity="0.2" d="M117.207 218.726H104.898V232.223H117.207V218.726Z" fill="white"/>
<path d="M137.638 218.726H124.141V232.223H137.638V218.726Z" fill="#0A8996"/>
<path opacity="0.2" d="M137.638 218.726H125.329V232.223H137.638V218.726Z" fill="white"/>
<path opacity="0.2" d="M164.268 125.134H76.4498V126.385H164.268V125.134Z" fill="white"/>
<path opacity="0.2" d="M164.268 187.334H76.4498V188.584H164.268V187.334Z" fill="white"/>
<path d="M285.182 95.7729H224.446V243.565H285.182V95.7729Z" fill="#0A8996"/>
<path opacity="0.4" d="M270.647 95.7729H224.446V243.565H270.647V95.7729Z" fill="white"/>
<path d="M245.09 107.913H228.924V115.761H245.09V107.913Z" fill="#0A8996"/>
<path opacity="0.2" d="M245.09 107.913H229.997V115.761H245.09V107.913Z" fill="white"/>
<path d="M263.792 107.913H247.626V115.761H263.792V107.913Z" fill="#0A8996"/>
<path opacity="0.2" d="M263.792 107.913H248.699V115.761H263.792V107.913Z" fill="white"/>
<path d="M245.09 122.687H228.924V130.535H245.09V122.687Z" fill="#0A8996"/>
<path opacity="0.2" d="M245.09 122.687H229.997V130.535H245.09V122.687Z" fill="white"/>
<path d="M263.792 122.687H247.626V130.535H263.792V122.687Z" fill="#0A8996"/>
<path opacity="0.2" d="M263.792 122.687H248.699V130.535H263.792V122.687Z" fill="white"/>
<path d="M245.09 141.567H228.924V149.415H245.09V141.567Z" fill="#0A8996"/>
<path opacity="0.2" d="M245.09 141.567H229.997V149.415H245.09V141.567Z" fill="white"/>
<path d="M263.792 141.567H247.626V149.415H263.792V141.567Z" fill="#0A8996"/>
<path opacity="0.2" d="M263.792 141.567H248.699V149.415H263.792V141.567Z" fill="white"/>
<path d="M245.09 152.412H228.924V160.26H245.09V152.412Z" fill="#0A8996"/>
<path opacity="0.2" d="M245.09 152.412H229.997V160.26H245.09V152.412Z" fill="white"/>
<path d="M263.792 152.412H247.626V160.26H263.792V152.412Z" fill="#0A8996"/>
<path opacity="0.2" d="M263.792 152.412H248.699V160.26H263.792V152.412Z" fill="white"/>
<path d="M245.09 170.236H228.924V178.084H245.09V170.236Z" fill="#0A8996"/>
<path opacity="0.2" d="M245.09 170.236H229.997V178.084H245.09V170.236Z" fill="white"/>
<path d="M263.792 170.236H247.626V178.084H263.792V170.236Z" fill="#0A8996"/>
<path opacity="0.2" d="M263.792 170.236H248.699V178.084H263.792V170.236Z" fill="white"/>
<path d="M245.09 181.082H228.924V188.93H245.09V181.082Z" fill="#0A8996"/>
<path opacity="0.2" d="M245.09 181.082H229.997V188.93H245.09V181.082Z" fill="white"/>
<path d="M263.792 181.082H247.626V188.93H263.792V181.082Z" fill="#0A8996"/>
<path opacity="0.2" d="M263.792 181.082H248.699V188.93H263.792V181.082Z" fill="white"/>
<path d="M245.09 200.476H228.924V208.324H245.09V200.476Z" fill="#0A8996"/>
<path opacity="0.2" d="M245.09 200.476H229.997V208.324H245.09V200.476Z" fill="white"/>
<path d="M263.792 200.476H247.626V208.324H263.792V200.476Z" fill="#0A8996"/>
<path opacity="0.2" d="M263.792 200.476H248.699V208.324H263.792V200.476Z" fill="white"/>
<path d="M245.09 214.806H228.924V222.654H245.09V214.806Z" fill="#0A8996"/>
<path opacity="0.2" d="M245.09 214.806H229.997V222.654H245.09V214.806Z" fill="white"/>
<path d="M263.792 214.806H247.626V222.654H263.792V214.806Z" fill="#0A8996"/>
<path opacity="0.2" d="M263.792 214.806H248.699V222.654H263.792V214.806Z" fill="white"/>
<path d="M285.191 91.401H221.59V96.1187H285.191V91.401Z" fill="#0A8996"/>
<path opacity="0.2" d="M285.19 91.401H270.656V96.1187H285.19V91.401Z" fill="black"/>
<path d="M224.446 161.031H218.726V169.979H224.446V161.031Z" fill="#2D476B"/>
<path d="M224.446 175.672H218.726V184.62H224.446V175.672Z" fill="#2D476B"/>
<path d="M224.446 189.905H218.726V198.853H224.446V189.905Z" fill="#2D476B"/>
<path d="M224.446 204.954H218.726V213.902H224.446V204.954Z" fill="#2D476B"/>
<path d="M224.446 219.595H218.726V228.543H224.446V219.595Z" fill="#2D476B"/>
<path d="M224.446 152.039H164.268V243.565H224.446V152.039Z" fill="#0A8996"/>
<path opacity="0.3" d="M214.283 152.031H164.268V243.565H214.283V152.031Z" fill="white"/>
<path d="M209.432 161.031H168.764V169.979H209.432V161.031Z" fill="#0A8996"/>
<path d="M209.432 175.672H168.764V184.62H209.432V175.672Z" fill="#0A8996"/>
<path d="M209.432 190.313H168.764V199.261H209.432V190.313Z" fill="#0A8996"/>
<path d="M209.432 204.954H168.764V213.902H209.432V204.954Z" fill="#0A8996"/>
<path d="M209.432 219.595H168.764V228.543H209.432V219.595Z" fill="#0A8996"/>
<g opacity="0.1">
<path d="M209.432 161.031H170.263V169.979H209.432V161.031Z" fill="white"/>
<path d="M209.432 175.672H170.263V184.62H209.432V175.672Z" fill="white"/>
<path d="M209.432 190.313H170.263V199.261H209.432V190.313Z" fill="white"/>
<path d="M209.432 204.954H170.263V213.902H209.432V204.954Z" fill="white"/>
<path d="M209.432 219.595H170.263V228.543H209.432V219.595Z" fill="white"/>
</g>
<path d="M40.3665 180.151H0V243.565H64.425V180.151V152.031L40.3665 180.151Z" fill="#0A8996"/>
<path d="M76.4499 152.031H64.425V243.565H76.4499V152.031Z" fill="#0A8996"/>
<path opacity="0.7" d="M76.4499 152.031H64.425V243.565H76.4499V152.031Z" fill="white"/>
<path opacity="0.7" d="M164.268 74.9778H148.297V243.565H164.268V74.9778Z" fill="white"/>
<path opacity="0.6" d="M224.446 152.031H214.283V243.565H224.446V152.031Z" fill="white"/>
<path opacity="0.7" d="M285.19 96.1188H270.656V243.565H285.19V96.1188Z" fill="white"/>
<path opacity="0.5" d="M293.695 70.7833H291.407V80.2275H293.695V70.7833Z" fill="white"/>
<path opacity="0.5" d="M293.695 86.6745H291.407V96.1188H293.695V86.6745Z" fill="white"/>
<path opacity="0.5" d="M293.695 103.195H291.407V112.64H293.695V103.195Z" fill="white"/>
<path opacity="0.5" d="M293.695 119.716H291.407V129.16H293.695V119.716Z" fill="white"/>
<path opacity="0.5" d="M293.695 136.228H291.407V145.672H293.695V136.228Z" fill="white"/>
<path opacity="0.5" d="M293.695 152.749H291.407V162.193H293.695V152.749Z" fill="white"/>
<path opacity="0.5" d="M293.695 170.955H291.407V180.399H293.695V170.955Z" fill="white"/>
<path opacity="0.5" d="M293.695 189.16H291.407V198.605H293.695V189.16Z" fill="white"/>
<path opacity="0.5" d="M293.695 207.357H291.407V216.802H293.695V207.357Z" fill="white"/>
<path opacity="0.5" d="M293.695 225.563H291.407V235.007H293.695V225.563Z" fill="white"/>
<path d="M382.915 58.1998H311.59V243.565H382.915V58.1998Z" fill="#0A8996"/>
<path d="M356.506 58.1998H285.182V243.565H356.506V58.1998Z" fill="#0A8996"/>
<path opacity="0.7" d="M382.915 60.8601H356.515V243.565H382.915V60.8601Z" fill="white"/>
<path d="M382.915 70.7833H363.042V80.2275H382.915V70.7833Z" fill="#0A8996"/>
<path d="M382.915 86.3198H363.042V95.764H382.915V86.3198Z" fill="#0A8996"/>
<path d="M382.915 101.865H363.042V111.309H382.915V101.865Z" fill="#0A8996"/>
<path d="M382.915 119.707H363.042V129.152H382.915V119.707Z" fill="#0A8996"/>
<path d="M382.915 136.228H363.042V145.672H382.915V136.228Z" fill="#0A8996"/>
<path d="M382.915 152.749H363.042V162.193H382.915V152.749Z" fill="#0A8996"/>
<path d="M382.915 170.946H363.042V180.39H382.915V170.946Z" fill="#0A8996"/>
<path d="M382.915 189.152H363.042V198.596H382.915V189.152Z" fill="#0A8996"/>
<path d="M382.915 207.357H363.042V216.802H382.915V207.357Z" fill="#0A8996"/>
<path d="M382.915 225.563H363.042V235.007H382.915V225.563Z" fill="#0A8996"/>
<path opacity="0.3" d="M382.915 70.7833H363.042V80.2275H382.915V70.7833Z" fill="white"/>
<path opacity="0.3" d="M382.915 86.3198H363.042V95.764H382.915V86.3198Z" fill="white"/>
<path opacity="0.3" d="M382.915 101.865H363.042V111.309H382.915V101.865Z" fill="white"/>
<path opacity="0.3" d="M382.915 119.707H363.042V129.152H382.915V119.707Z" fill="white"/>
<path opacity="0.3" d="M382.915 136.228H363.042V145.672H382.915V136.228Z" fill="white"/>
<path opacity="0.3" d="M382.915 152.749H363.042V162.193H382.915V152.749Z" fill="white"/>
<path opacity="0.3" d="M382.915 170.946H363.042V180.39H382.915V170.946Z" fill="white"/>
<path opacity="0.3" d="M382.915 189.152H363.042V198.596H382.915V189.152Z" fill="white"/>
<path opacity="0.3" d="M382.915 207.357H363.042V216.802H382.915V207.357Z" fill="white"/>
<path opacity="0.3" d="M382.915 225.563H363.042V235.007H382.915V225.563Z" fill="white"/>
<path opacity="0.4" d="M356.506 58.1998H285.182V243.565H356.506V58.1998Z" fill="white"/>
<path d="M350.29 70.7833H291.407V80.2275H350.29V70.7833Z" fill="#0A8996"/>
<path opacity="0.2" d="M350.29 70.7833H293.695V80.2275H350.29V70.7833Z" fill="white"/>
<path d="M350.29 86.6745H291.407V96.1188H350.29V86.6745Z" fill="#0A8996"/>
<path opacity="0.2" d="M350.29 86.6745H293.695V96.1188H350.29V86.6745Z" fill="white"/>
<path d="M350.29 103.195H291.407V112.64H350.29V103.195Z" fill="#0A8996"/>
<path opacity="0.2" d="M350.29 103.195H293.695V112.64H350.29V103.195Z" fill="white"/>
<path d="M350.29 119.716H291.407V129.16H350.29V119.716Z" fill="#0A8996"/>
<path opacity="0.2" d="M350.29 119.716H293.695V129.16H350.29V119.716Z" fill="white"/>
<path d="M350.29 136.228H291.407V145.672H350.29V136.228Z" fill="#0A8996"/>
<path opacity="0.2" d="M350.29 136.228H293.695V145.672H350.29V136.228Z" fill="white"/>
<path d="M350.29 152.749H291.407V162.193H350.29V152.749Z" fill="#0A8996"/>
<path opacity="0.2" d="M350.29 152.749H293.695V162.193H350.29V152.749Z" fill="white"/>
<path d="M350.29 170.955H291.407V180.399H350.29V170.955Z" fill="#0A8996"/>
<path opacity="0.2" d="M350.29 170.955H293.695V180.399H350.29V170.955Z" fill="white"/>
<path d="M350.29 189.16H291.407V198.605H350.29V189.16Z" fill="#0A8996"/>
<path opacity="0.2" d="M350.29 189.16H293.695V198.605H350.29V189.16Z" fill="white"/>
<path d="M350.29 207.357H291.407V216.802H350.29V207.357Z" fill="#0A8996"/>
<path opacity="0.2" d="M350.29 207.357H293.695V216.802H350.29V207.357Z" fill="white"/>
<path d="M350.29 225.563H291.407V235.007H350.29V225.563Z" fill="#0A8996"/>
<path opacity="0.2" d="M350.29 225.563H293.695V235.007H350.29V225.563Z" fill="white"/>
<path d="M381.389 52.6927H356.515V56.3286H381.389V52.6927Z" fill="#0A8996"/>
<path d="M381.389 51.806H285.182V56.3286H381.389V51.806Z" fill="#F0F0F0"/>
<path d="M384.768 56.3375H283.169V60.8601H384.768V56.3375Z" fill="#0A8996"/>
<path d="M384.768 48.1702H283.169V52.6928H384.768V48.1702Z" fill="#0A8996"/>
<path opacity="0.05" d="M384.768 56.3375H283.169V60.8601H384.768V56.3375Z" fill="black"/>
<path opacity="0.05" d="M384.768 48.1702H283.169V52.6928H384.768V48.1702Z" fill="black"/>
<path opacity="0.2" d="M285.182 135.155H224.446V136.503H285.182V135.155Z" fill="white"/>
<path opacity="0.2" d="M285.182 164.357H224.446V165.705H285.182V164.357Z" fill="white"/>
<path opacity="0.2" d="M285.182 193.807H224.446V195.155H285.182V193.807Z" fill="white"/>
<path opacity="0.2" d="M165.297 72.1844H148.297V74.9778H165.297V72.1844Z" fill="black"/>
<path opacity="0.2" d="M165.297 66.5888H148.297V69.3822H165.297V66.5888Z" fill="black"/>
<path opacity="0.2" d="M384.768 56.3375H356.515V60.8601H384.768V56.3375Z" fill="black"/>
<path opacity="0.2" d="M384.768 48.1702H356.515V52.6928H384.768V48.1702Z" fill="black"/>
<path opacity="0.4" d="M40.3665 180.151H0V243.565H64.425V180.151V152.031L40.3665 180.151Z" fill="white"/>
<path d="M15.4212 193.009H5.83508V202.595H15.4212V193.009Z" fill="#0A8996"/>
<path d="M34.9305 193.009H25.3444V202.595H34.9305V193.009Z" fill="#0A8996"/>
<path d="M54.4398 193.009H44.8536V202.595H54.4398V193.009Z" fill="#0A8996"/>
<path d="M15.4212 209.14H5.83508V218.726H15.4212V209.14Z" fill="#0A8996"/>
<path d="M34.9305 209.14H25.3444V218.726H34.9305V209.14Z" fill="#0A8996"/>
<path d="M54.4398 209.14H44.8536V218.726H54.4398V209.14Z" fill="#0A8996"/>
<path d="M15.4212 225.27H5.83508V234.857H15.4212V225.27Z" fill="#0A8996"/>
<path d="M34.9305 225.27H25.3444V234.857H34.9305V225.27Z" fill="#0A8996"/>
<path d="M54.4398 225.27H44.8536V234.857H54.4398V225.27Z" fill="#0A8996"/>
<path opacity="0.2" d="M16.4854 193.009H6.89923V202.595H16.4854V193.009Z" fill="white"/>
<path opacity="0.2" d="M35.9858 193.009H26.3996V202.595H35.9858V193.009Z" fill="white"/>
<path opacity="0.2" d="M55.495 193.009H45.9089V202.595H55.495V193.009Z" fill="white"/>
<path opacity="0.2" d="M16.4854 209.14H6.89923V218.726H16.4854V209.14Z" fill="white"/>
<path opacity="0.2" d="M35.9858 209.14H26.3996V218.726H35.9858V209.14Z" fill="white"/>
<path opacity="0.2" d="M55.495 209.14H45.9089V218.726H55.495V209.14Z" fill="white"/>
<path opacity="0.2" d="M16.4854 225.27H6.89923V234.857H16.4854V225.27Z" fill="white"/>
<path opacity="0.2" d="M35.9858 225.27H26.3996V234.857H35.9858V225.27Z" fill="white"/>
<path opacity="0.2" d="M55.495 225.27H45.9089V234.857H55.495V225.27Z" fill="white"/>
<path d="M187.147 250.916L181.596 279.081H200.227L198.338 250.916H187.147Z" fill="#0A8996"/>
<path d="M204.564 250.916L212.545 279.081H225.031L214.797 250.916H204.564Z" fill="#0A8996"/>
<path d="M221.821 250.916L238.244 279.081H252.415L231.07 250.916H221.821Z" fill="#0A8996"/>
<path d="M238.483 250.916L265.699 279.081H282.645L248.637 250.916H238.483Z" fill="#0A8996"/>
<path d="M180.195 250.916L172.214 279.081H159.728L169.961 250.916H180.195Z" fill="#0A8996"/>
<path d="M162.938 250.916L146.515 279.081H132.344L153.689 250.916H162.938Z" fill="#0A8996"/>
<path d="M146.275 250.916L119.06 279.081H102.113L136.122 250.916H146.275Z" fill="#0A8996"/>
<path opacity="0.4" d="M187.147 250.916L181.596 279.081H200.227L198.338 250.916H187.147Z" fill="white"/>
<path opacity="0.4" d="M204.564 250.916L212.545 279.081H225.031L214.797 250.916H204.564Z" fill="white"/>
<path opacity="0.4" d="M221.821 250.916L238.244 279.081H252.415L231.07 250.916H221.821Z" fill="white"/>
<path opacity="0.4" d="M238.483 250.916L265.699 279.081H282.645L248.637 250.916H238.483Z" fill="white"/>
<path opacity="0.4" d="M180.195 250.916L172.214 279.081H159.728L169.961 250.916H180.195Z" fill="white"/>
<path opacity="0.4" d="M162.938 250.916L146.515 279.081H132.344L153.689 250.916H162.938Z" fill="white"/>
<path opacity="0.4" d="M146.275 250.916L119.06 279.081H102.113L136.122 250.916H146.275Z" fill="white"/>
<path d="M59.9467 240.31C66.4468 240.08 72.7962 237.003 77.0084 232.037C81.2207 227.079 83.2337 220.313 82.409 213.857C81.8237 209.237 79.8905 204.919 78.5249 200.467C75.9354 192.042 75.1196 182.554 69.1959 176.036C65.56 172.037 60.195 169.66 54.7856 169.66C49.3762 169.66 44.0111 172.019 40.3664 176.018C36.5266 180.23 34.7087 185.924 33.9195 191.564C33.1303 197.204 33.2455 202.932 32.7223 208.608C32.2789 213.316 31.3921 218.016 31.5784 222.743C31.7646 227.47 33.1923 232.391 36.6597 235.61C38.3712 237.198 40.4728 238.288 42.5657 239.326C44.6585 240.363 46.8134 241.374 49.1279 241.685C51.4424 241.995 53.9786 241.499 55.6458 239.867C56.6744 240.239 58.8471 240.346 59.9378 240.301L59.9467 240.31Z" fill="#0A8996"/>
<path opacity="0.7" d="M59.9467 240.31C66.4468 240.08 72.7962 237.003 77.0084 232.037C81.2207 227.079 83.2337 220.313 82.409 213.857C81.8237 209.237 79.8905 204.919 78.5249 200.467C75.9354 192.042 75.1196 182.554 69.1959 176.036C65.56 172.037 60.195 169.66 54.7856 169.66C49.3762 169.66 44.0111 172.019 40.3664 176.018C36.5266 180.23 34.7087 185.924 33.9195 191.564C33.1303 197.204 33.2455 202.932 32.7223 208.608C32.2789 213.316 31.3921 218.016 31.5784 222.743C31.7646 227.47 33.1923 232.391 36.6597 235.61C38.3712 237.198 40.4728 238.288 42.5657 239.326C44.6585 240.363 46.8134 241.374 49.1279 241.685C51.4424 241.995 53.9786 241.499 55.6458 239.867C56.6744 240.239 58.8471 240.346 59.9378 240.301L59.9467 240.31Z" fill="white"/>
<path d="M49.1013 257.505V256.335L51.0611 254.667C51.0611 254.667 53.4111 230.698 53.8012 223.798C54.1914 216.899 54.6792 205.938 52.1341 198.011C52.1341 198.011 55.4595 205.442 56.9316 214.886C56.9316 214.886 59.9644 203.979 65.3472 197.026C65.3472 197.026 58.7939 213.787 59.6718 229.385C60.5497 244.984 62.9972 255.749 62.9972 255.749L64.1678 256.53L64.2653 257.505H49.0924H49.1013Z" fill="#0A8996"/>
<path d="M55.0869 219.036C55.0869 219.036 53.3932 211.481 48.7996 207.73C48.7996 207.73 52.6394 213.015 53.8986 221.998C55.1579 230.981 56.4969 225.253 56.4969 225.253L55.0869 219.036Z" fill="#0A8996"/>
<path d="M53.083 239.477C53.083 239.477 52.4622 236.745 49.66 235.034C49.66 235.034 51.4158 236.737 52.2494 242.19C53.083 247.644 55.1137 244.611 55.1137 244.611L55.2733 241.614L53.0918 239.486L53.083 239.477Z" fill="#0A8996"/>
<path opacity="0.2" d="M52.2492 242.19C51.4156 236.737 49.6598 235.034 49.6598 235.034C51.256 236.009 52.1428 237.313 52.6128 238.253C53.1449 232.444 53.6415 226.654 53.8011 223.789C53.8366 223.222 53.8632 222.619 53.8986 221.998C52.6394 213.024 48.7996 207.739 48.7996 207.739C51.4688 209.92 53.1626 213.379 54.1026 215.897C54.1824 209.991 53.8366 203.314 52.1339 198.002C52.1339 198.002 55.4594 205.433 56.9315 214.877C56.9315 214.877 59.9643 203.97 65.3471 197.017C65.3471 197.017 58.7937 213.778 59.6716 229.376C60.5495 244.975 62.9971 255.74 62.9971 255.74L64.1676 256.521L64.2652 257.496H49.0923V256.326L51.0521 254.658C51.0521 254.658 51.6196 248.877 52.2404 242.181L52.2492 242.19Z" fill="black"/>
<path d="M321.158 244.106C313.816 243.84 306.651 240.363 301.897 234.768C297.144 229.172 294.874 221.537 295.796 214.248C296.461 209.033 298.643 204.156 300.186 199.137C303.103 189.63 304.026 178.909 310.721 171.558C314.827 167.044 320.883 164.366 326.985 164.357C333.086 164.348 339.142 167.026 343.257 171.531C347.593 176.284 349.642 182.713 350.538 189.081C351.433 195.448 351.291 201.921 351.894 208.324C352.391 213.645 353.402 218.948 353.189 224.286C352.976 229.624 351.362 235.176 347.452 238.812C345.518 240.603 343.142 241.836 340.783 243.006C338.415 244.177 335.985 245.321 333.369 245.666C330.753 246.012 327.889 245.462 326.009 243.609C324.847 244.035 322.4 244.15 321.158 244.106Z" fill="#0A8996"/>
<path opacity="0.7" d="M321.158 244.106C313.816 243.84 306.651 240.363 301.897 234.768C297.144 229.172 294.874 221.537 295.796 214.248C296.461 209.033 298.643 204.156 300.186 199.137C303.103 189.63 304.026 178.909 310.721 171.558C314.827 167.044 320.883 164.366 326.985 164.357C333.086 164.348 339.142 167.026 343.257 171.531C347.593 176.284 349.642 182.713 350.538 189.081C351.433 195.448 351.291 201.921 351.894 208.324C352.391 213.645 353.402 218.948 353.189 224.286C352.976 229.624 351.362 235.176 347.452 238.812C345.518 240.603 343.142 241.836 340.783 243.006C338.415 244.177 335.985 245.321 333.369 245.666C330.753 246.012 327.889 245.462 326.009 243.609C324.847 244.035 322.4 244.15 321.158 244.106Z" fill="white"/>
<path d="M333.396 263.509V262.188L331.188 260.308C331.188 260.308 328.536 233.252 328.093 225.457C327.65 217.662 327.1 205.291 329.973 196.344C329.973 196.344 326.213 204.733 324.564 215.392C324.564 215.392 321.141 203.074 315.066 195.235C315.066 195.235 322.471 214.159 321.477 231.762C320.484 249.365 317.718 261.523 317.718 261.523L316.387 262.409L316.281 263.518H333.405L333.396 263.509Z" fill="#0A8996"/>
<path d="M326.639 220.092C326.639 220.092 328.554 211.561 333.733 207.331C333.733 207.331 329.397 213.299 327.978 223.435C326.559 233.571 325.042 227.115 325.042 227.115L326.639 220.1V220.092Z" fill="#0A8996"/>
<path d="M328.9 243.166C328.9 243.166 329.601 240.08 332.766 238.147C332.766 238.147 330.789 240.071 329.84 246.225C328.9 252.38 326.612 248.957 326.612 248.957L326.435 245.569L328.9 243.166Z" fill="#0A8996"/>
<path opacity="0.2" d="M329.849 246.225C330.789 240.071 332.775 238.147 332.775 238.147C330.975 239.246 329.973 240.718 329.441 241.782C328.847 235.229 328.279 228.685 328.102 225.457C328.066 224.818 328.031 224.126 327.996 223.426C329.414 213.29 333.751 207.322 333.751 207.322C330.736 209.778 328.829 213.689 327.756 216.536C327.667 209.867 328.049 202.338 329.982 196.335C329.982 196.335 326.222 204.724 324.573 215.383C324.573 215.383 321.15 203.065 315.075 195.226C315.075 195.226 322.48 214.15 321.487 231.753C320.493 249.356 317.727 261.513 317.727 261.513L316.396 262.4L316.29 263.509H333.414V262.187L331.206 260.307C331.206 260.307 330.567 253.789 329.867 246.225H329.849Z" fill="black"/>
</svg>
