<svg width="141" height="141" viewBox="0 0 141 141" fill="none" xmlns="http://www.w3.org/2000/svg">
<circle cx="70.5" cy="70.5" r="70.5" fill="white"/>
<path d="M112.623 96.8872L105.318 33.8106C105.008 30.7042 102.442 28.3621 99.3485 28.3621H41.6559C38.5623 28.3621 35.9958 30.7044 35.6859 33.8106L28.3813 96.8872C28.0254 100.457 30.8086 103.549 34.3513 103.549H66.2251V102.304H95.3917V103.549H106.653C110.208 103.549 112.978 100.445 112.623 96.8872Z" fill="#6C7ED6"/>
<path d="M35.0415 96.8872L42.346 33.8106C42.656 30.7042 45.2225 28.3621 48.316 28.3621H41.6559C38.5623 28.3621 35.9958 30.7044 35.6859 33.8106L28.3813 96.8872C28.0254 100.457 30.8086 103.549 34.3513 103.549H41.0115C37.4687 103.549 34.6856 100.457 35.0415 96.8872Z" fill="#4F67D2"/>
<path d="M106.345 95.6675L99.3736 35.9338C99.2948 35.1441 98.6363 34.5432 97.85 34.5432H43.153C42.3667 34.5432 41.7081 35.1441 41.6294 35.9338L34.6582 95.6675C34.5677 96.5781 35.2765 97.3676 36.1818 97.3676H104.821C105.728 97.3678 106.435 96.5766 106.345 95.6675Z" fill="#60B8FE"/>
<path d="M42.6911 95.6675L49.6623 35.9336C49.7411 35.1439 50.3997 34.543 51.1859 34.543H43.153C42.3667 34.543 41.7081 35.1439 41.6294 35.9336L34.6582 95.6675C34.5677 96.578 35.2765 97.3675 36.1818 97.3675H44.2148C43.3094 97.3677 42.6007 96.578 42.6911 95.6675Z" fill="#23A8FE"/>
<path d="M83.8707 80.4481C77.6831 80.5667 72.7871 85.7978 72.7871 92.0432V97.5491H79.3495V91.9692C79.3495 89.3789 81.3414 87.17 83.9063 87.0722C86.6027 86.9693 88.8287 89.1532 88.8287 91.8518V97.4328C90.2195 97.7248 91.2645 98.968 91.2645 100.458C91.2645 101.948 90.2195 103.191 88.8287 103.483V109.795C90.2195 110.087 91.2645 111.33 91.2645 112.82C91.2645 114.31 90.2195 115.554 88.8287 115.845V117.537C88.8287 118.104 89.2836 118.563 89.8447 118.563H94.3754C94.9365 118.563 95.3913 118.104 95.3913 117.537V91.8518C95.3912 85.4892 90.2022 80.3269 83.8707 80.4481Z" fill="#DFEBFA"/>
<path d="M88.3822 97.3677H72.6074V103.549H88.3822C90.0736 103.549 91.4447 102.165 91.4447 100.458C91.4447 98.7514 90.0736 97.3677 88.3822 97.3677Z" fill="#B1DBFC"/>
<path d="M88.3822 109.73H72.6074V115.911H88.3822C90.0736 115.911 91.4447 114.528 91.4447 112.821C91.4447 111.114 90.0736 109.73 88.3822 109.73Z" fill="#B1DBFC"/>
<path d="M72.6074 97.3677H79.4414V103.549H72.6074V97.3677Z" fill="#8BCAFF"/>
<path d="M72.6074 109.73H79.4414V115.911H72.6074V109.73Z" fill="#8BCAFF"/>
<path d="M61.2662 80.4481C55.0786 80.5667 50.1826 85.7976 50.1826 92.043V97.3676H56.745V91.9692C56.745 89.3791 58.7368 87.1702 61.3016 87.0722C63.998 86.9691 66.2241 89.1528 66.2241 91.8516V117.538C66.2241 118.104 66.6789 118.563 67.24 118.563H71.7707C72.3318 118.563 72.7867 118.104 72.7867 117.538V91.8518C72.7865 85.4892 67.5975 80.3269 61.2662 80.4481Z" fill="#DFEBFA"/>
<path d="M90.4705 57.9286C88.5793 57.8624 86.8708 57.0126 85.6599 55.5364C84.7762 54.4589 83.1533 54.461 82.2714 55.5364C79.6462 58.7373 74.8148 58.7317 72.1947 55.5364C71.3003 54.4462 69.676 54.4761 68.806 55.5364C66.1817 58.7366 61.3506 58.733 58.7293 55.5362C57.8441 54.4572 56.2214 54.4627 55.3409 55.5362C54.13 57.0126 52.4215 57.8622 50.5303 57.9286C49.7858 57.9547 49.2033 58.5849 49.2294 59.3362C49.2553 60.0876 49.8757 60.674 50.6242 60.6493C53.0639 60.5637 55.3695 59.5009 57.0348 57.7115C60.6813 61.637 66.8486 61.6421 70.5004 57.7117C74.1472 61.6372 80.3145 61.6417 83.9658 57.7115C85.6315 59.5009 87.9367 60.5637 90.3766 60.6493C91.1177 60.6764 91.7458 60.0876 91.7715 59.3362C91.7976 58.5849 91.215 57.9547 90.4705 57.9286Z" fill="black"/>
<path d="M85.6593 66.7024C84.7756 65.6248 83.1527 65.627 82.2708 66.7024C79.6458 69.9031 74.8144 69.8979 72.1941 66.7024C71.2997 65.6121 69.6754 65.6421 68.8053 66.7024C66.1804 69.9037 61.349 69.8977 58.7287 66.7022C57.8467 65.6274 56.224 65.6245 55.3403 66.7024C53.9026 68.4552 51.7107 69.3311 49.4753 69.0461C48.738 68.9519 48.0616 69.4797 47.9679 70.2256C47.8742 70.9714 48.3977 71.6525 49.1367 71.7469C52.1006 72.126 55.0099 71.0581 57.0346 68.8779C60.6812 72.8032 66.8481 72.8079 70.4998 68.8779C74.1463 72.803 80.3137 72.8083 83.965 68.8779C85.9897 71.0581 88.8992 72.1259 91.8628 71.7469C92.6017 71.6525 93.1252 70.9716 93.0315 70.2256C92.9379 69.4797 92.2602 68.9518 91.5241 69.0461C89.2878 69.3309 87.0968 68.4554 85.6593 66.7024Z" fill="black"/>
<path d="M89.3447 46.5466C87.8912 46.2376 86.617 45.4577 85.6603 44.2913C84.7765 43.2137 83.1537 43.2159 82.2717 44.2913C79.6466 47.4922 74.8151 47.4866 72.195 44.2913C71.3007 43.201 69.6764 43.231 68.8063 44.2913C66.1821 47.4915 61.351 47.4879 58.7296 44.2911C57.8444 43.2121 56.2217 43.2176 55.3412 44.2911C54.3845 45.4575 53.1105 46.2376 51.657 46.5466C50.9279 46.7016 50.4616 47.4236 50.6152 48.1592C50.7688 48.8948 51.4856 49.3656 52.2131 49.2104C54.0804 48.8133 55.7365 47.8692 57.0357 46.4668C60.6832 50.3926 66.85 50.3957 70.5008 46.4666C74.1472 50.3915 80.3141 50.397 83.9656 46.467C85.2652 47.8693 86.9215 48.8136 88.7886 49.2104C89.5166 49.3656 90.2327 48.8946 90.3865 48.159C90.5399 47.4234 90.0734 46.7014 89.3447 46.5466Z" fill="black"/>
<path d="M34.3495 104.909H64.8742V117.537C64.8742 118.853 65.9349 119.923 67.239 119.923H71.7695C73.0734 119.923 74.1341 118.853 74.1341 117.537V117.271H87.4781V117.537C87.4781 118.853 88.5388 119.923 89.8428 119.923H94.3734C95.6772 119.923 96.7379 118.853 96.7379 117.537V104.909H106.651C110.989 104.909 114.398 101.119 113.962 96.7501C113.962 96.7428 113.961 96.7355 113.96 96.7283L111.616 76.4799C111.529 75.7332 110.858 75.1982 110.12 75.2858C109.38 75.3731 108.85 76.0492 108.937 76.7959L111.28 97.0326C111.542 99.7247 109.465 102.187 106.651 102.187H96.7385V98.7278H104.82C106.523 98.7278 107.856 97.2412 107.686 95.5306C107.685 95.5228 107.684 95.515 107.683 95.5072L100.713 35.7833C100.558 34.2988 99.3293 33.1812 97.8488 33.1812H73.6474C72.9023 33.1812 72.2986 33.7907 72.2986 34.5424C72.2986 35.2941 72.9023 35.9036 73.6474 35.9036H97.8488C97.9429 35.9036 98.0209 35.9749 98.0304 36.0695C98.0312 36.0771 98.0321 36.0845 98.033 36.0922L105.002 95.8088C105.005 95.8588 104.989 95.9081 104.955 95.9451C104.921 95.9836 104.871 96.0056 104.82 96.0056H96.7383V91.8509C96.7383 84.6862 90.9373 79.0841 84.0874 79.0841C79.2716 79.0841 74.925 81.8408 72.7863 86.1158C70.6268 81.8014 66.1817 78.9923 61.2395 79.0864C54.4595 79.2151 48.8326 84.8203 48.8326 91.8511V96.0058H36.1804C36.129 96.0058 36.0797 95.9836 36.045 95.945C36.0117 95.9079 35.9952 95.8586 35.9984 95.8087L42.9676 36.0923C42.9685 36.0847 42.9694 36.0771 42.9701 36.0693C42.9797 35.9749 43.0575 35.9038 43.1518 35.9038H67.353C68.0981 35.9038 68.7018 35.2943 68.7018 34.5426C68.7018 33.7908 68.0981 33.1814 67.353 33.1814H43.1518C41.6711 33.1814 40.4421 34.2994 40.2874 35.7838L33.3173 95.5076C33.3165 95.5154 33.3156 95.5232 33.3147 95.531C33.1445 97.241 34.4771 98.7281 36.1804 98.7281H64.8742V102.187H34.3495C31.6785 102.187 29.4436 99.8672 29.7205 97.0328L37.0237 33.9678C37.0246 33.9605 37.0253 33.9533 37.026 33.9462C37.2663 31.5382 39.2559 29.7224 41.6541 29.7224H99.3467C101.745 29.7224 103.734 31.5382 103.975 33.946C103.975 33.9533 103.976 33.9605 103.977 33.9678L108.201 70.4437C108.287 71.1905 108.959 71.7255 109.697 71.6377C110.437 71.5506 110.967 70.8743 110.88 70.1277L106.657 33.6622C106.273 29.8632 103.132 27 99.3467 27H41.6541C37.8686 27 34.7273 29.8634 34.3432 33.6625L27.0398 96.7285C27.0389 96.7357 27.0382 96.743 27.0375 96.7502C26.6032 101.106 29.9987 104.909 34.3495 104.909ZM80.6968 91.9685C80.6968 90.0946 82.1575 88.4677 84.0239 88.4325C85.945 88.3955 87.4785 89.9735 87.4785 91.8511V96.0058H80.6968V91.9685ZM74.1343 104.909H87.4783V108.368H74.1343V104.909ZM88.2005 98.7279C89.2021 98.7279 90.0014 99.6024 89.9061 100.621C89.8211 101.507 89.0807 102.187 88.2005 102.187H74.1343V98.7278C78.8303 98.7279 83.516 98.7279 88.2005 98.7279ZM74.1343 111.09H88.2005C89.1963 111.09 90.0018 111.961 89.9061 112.983C89.8212 113.868 89.0812 114.549 88.2005 114.549H74.1343V111.09ZM94.0409 117.201H90.1761V116.799C93.4157 115.143 93.4229 110.5 90.1761 108.84V104.437C93.4308 102.773 93.4075 98.1299 90.1761 96.4778V91.8511C90.1761 88.133 86.9026 85.2236 83.1993 85.7729C80.2584 86.2085 77.9992 88.7723 77.9992 91.8511V96.0058H74.1344V92.0425C74.1344 86.4976 78.5333 81.862 83.9937 81.809C89.608 81.7614 94.0409 86.3568 94.0409 91.8511V117.201ZM51.5306 96.0056V92.0422C51.5306 86.1938 56.3316 81.5914 61.8874 81.8166C67.1897 82.0351 71.4368 86.4452 71.4368 91.8507V117.201H67.572C67.572 114.584 67.572 95.229 67.572 91.8507C67.572 88.5929 65.0426 85.8971 61.8324 85.7172C58.3658 85.5183 55.3954 88.3055 55.3954 91.8507V96.0054H51.5306V96.0056ZM58.093 96.0056V91.9683C58.093 90.2578 59.3091 88.7516 60.9483 88.4759C63.0415 88.1398 64.8742 89.7893 64.8742 91.8509V96.0056H58.093Z" fill="black"/>
</svg>
