<svg width="350" height="234" viewBox="0 0 350 234" fill="none" xmlns="http://www.w3.org/2000/svg">
<rect width="350" height="234" rx="28" fill="#0A8996"/>
<path d="M111.337 202H107.547L113.322 185.273H117.879L123.646 202H119.856L115.666 189.095H115.535L111.337 202ZM111.1 195.425H120.052V198.186H111.1V195.425ZM135.74 193.032L132.554 193.228C132.5 192.956 132.383 192.711 132.203 192.493C132.024 192.27 131.787 192.093 131.493 191.962C131.204 191.826 130.858 191.758 130.455 191.758C129.916 191.758 129.462 191.872 129.091 192.101C128.721 192.324 128.536 192.624 128.536 192.999C128.536 193.299 128.656 193.552 128.895 193.759C129.135 193.966 129.546 194.132 130.129 194.257L132.399 194.714C133.619 194.965 134.528 195.368 135.127 195.923C135.726 196.479 136.026 197.208 136.026 198.112C136.026 198.934 135.783 199.656 135.299 200.277C134.82 200.897 134.161 201.382 133.322 201.73C132.489 202.074 131.528 202.245 130.439 202.245C128.778 202.245 127.455 201.899 126.47 201.208C125.489 200.511 124.915 199.563 124.746 198.365L128.168 198.186C128.272 198.692 128.522 199.079 128.92 199.346C129.317 199.607 129.826 199.738 130.447 199.738C131.057 199.738 131.547 199.621 131.917 199.386C132.293 199.147 132.484 198.839 132.489 198.463C132.484 198.148 132.35 197.889 132.089 197.688C131.828 197.481 131.425 197.323 130.88 197.214L128.707 196.781C127.482 196.536 126.57 196.111 125.971 195.507C125.378 194.902 125.081 194.132 125.081 193.195C125.081 192.389 125.299 191.695 125.734 191.113C126.176 190.53 126.794 190.081 127.589 189.765C128.389 189.449 129.325 189.291 130.398 189.291C131.983 189.291 133.23 189.626 134.139 190.296C135.054 190.966 135.587 191.878 135.74 193.032ZM148.655 193.032L145.469 193.228C145.415 192.956 145.298 192.711 145.118 192.493C144.939 192.27 144.702 192.093 144.408 191.962C144.119 191.826 143.773 191.758 143.37 191.758C142.831 191.758 142.377 191.872 142.006 192.101C141.636 192.324 141.451 192.624 141.451 192.999C141.451 193.299 141.571 193.552 141.81 193.759C142.05 193.966 142.461 194.132 143.044 194.257L145.314 194.714C146.534 194.965 147.443 195.368 148.042 195.923C148.641 196.479 148.941 197.208 148.941 198.112C148.941 198.934 148.698 199.656 148.214 200.277C147.735 200.897 147.076 201.382 146.237 201.73C145.404 202.074 144.443 202.245 143.354 202.245C141.693 202.245 140.37 201.899 139.385 201.208C138.404 200.511 137.83 199.563 137.661 198.365L141.083 198.186C141.187 198.692 141.437 199.079 141.835 199.346C142.232 199.607 142.741 199.738 143.362 199.738C143.972 199.738 144.462 199.621 144.832 199.386C145.208 199.147 145.399 198.839 145.404 198.463C145.399 198.148 145.265 197.889 145.004 197.688C144.743 197.481 144.34 197.323 143.795 197.214L141.623 196.781C140.397 196.536 139.485 196.111 138.886 195.507C138.293 194.902 137.996 194.132 137.996 193.195C137.996 192.389 138.214 191.695 138.65 191.113C139.091 190.53 139.709 190.081 140.504 189.765C141.304 189.449 142.241 189.291 143.313 189.291C144.898 189.291 146.145 189.626 147.054 190.296C147.969 190.966 148.502 191.878 148.655 193.032ZM151.132 202V189.455H154.611V202H151.132ZM152.88 187.837C152.362 187.837 151.918 187.666 151.548 187.323C151.183 186.974 151.001 186.558 151.001 186.073C151.001 185.594 151.183 185.183 151.548 184.84C151.918 184.491 152.362 184.317 152.88 184.317C153.397 184.317 153.838 184.491 154.203 184.84C154.573 185.183 154.758 185.594 154.758 186.073C154.758 186.558 154.573 186.974 154.203 187.323C153.838 187.666 153.397 187.837 152.88 187.837ZM163.05 206.966C161.923 206.966 160.957 206.811 160.151 206.5C159.35 206.195 158.713 205.779 158.24 205.251C157.766 204.723 157.458 204.129 157.317 203.47L160.535 203.037C160.633 203.288 160.788 203.522 161 203.74C161.213 203.958 161.493 204.132 161.841 204.262C162.195 204.399 162.626 204.467 163.132 204.467C163.889 204.467 164.512 204.281 165.002 203.911C165.498 203.546 165.746 202.934 165.746 202.074V199.778H165.599C165.446 200.127 165.217 200.456 164.912 200.767C164.608 201.077 164.215 201.33 163.736 201.526C163.257 201.722 162.685 201.82 162.021 201.82C161.079 201.82 160.222 201.603 159.448 201.167C158.681 200.726 158.068 200.053 157.611 199.15C157.159 198.24 156.933 197.091 156.933 195.703C156.933 194.282 157.164 193.095 157.627 192.142C158.09 191.189 158.705 190.475 159.473 190.002C160.246 189.528 161.093 189.291 162.013 189.291C162.715 189.291 163.303 189.411 163.777 189.651C164.251 189.885 164.632 190.179 164.921 190.533C165.215 190.881 165.441 191.224 165.599 191.562H165.729V189.455H169.184V202.123C169.184 203.19 168.923 204.083 168.4 204.801C167.877 205.52 167.153 206.059 166.227 206.419C165.307 206.783 164.248 206.966 163.05 206.966ZM163.124 199.207C163.685 199.207 164.158 199.068 164.545 198.79C164.937 198.507 165.236 198.104 165.443 197.581C165.656 197.053 165.762 196.422 165.762 195.686C165.762 194.951 165.658 194.314 165.452 193.775C165.245 193.231 164.945 192.809 164.553 192.509C164.161 192.21 163.685 192.06 163.124 192.06C162.552 192.06 162.07 192.215 161.678 192.526C161.286 192.83 160.989 193.255 160.788 193.8C160.586 194.344 160.486 194.973 160.486 195.686C160.486 196.411 160.586 197.037 160.788 197.565C160.995 198.088 161.291 198.493 161.678 198.782C162.07 199.065 162.552 199.207 163.124 199.207ZM175.432 194.747V202H171.953V189.455H175.269V191.668H175.416C175.694 190.938 176.159 190.361 176.813 189.936C177.466 189.506 178.258 189.291 179.189 189.291C180.061 189.291 180.82 189.482 181.468 189.863C182.116 190.244 182.62 190.789 182.979 191.496C183.339 192.199 183.518 193.037 183.518 194.012V202H180.039V194.633C180.044 193.865 179.848 193.266 179.451 192.836C179.053 192.4 178.506 192.183 177.809 192.183C177.341 192.183 176.927 192.283 176.568 192.485C176.214 192.686 175.936 192.98 175.735 193.367C175.539 193.748 175.438 194.208 175.432 194.747ZM191.649 202V185.273H198.249C199.512 185.273 200.59 185.499 201.483 185.951C202.381 186.397 203.065 187.031 203.533 187.854C204.007 188.67 204.244 189.632 204.244 190.737C204.244 191.848 204.004 192.803 203.525 193.604C203.046 194.399 202.351 195.009 201.442 195.433C200.538 195.858 199.444 196.07 198.159 196.07H193.74V193.228H197.587C198.262 193.228 198.823 193.135 199.27 192.95C199.716 192.765 200.048 192.487 200.266 192.117C200.489 191.747 200.601 191.287 200.601 190.737C200.601 190.181 200.489 189.713 200.266 189.332C200.048 188.951 199.713 188.662 199.261 188.466C198.815 188.265 198.251 188.164 197.571 188.164H195.186V202H191.649ZM200.683 194.388L204.84 202H200.936L196.868 194.388H200.683ZM206.743 202V185.273H217.818V188.189H210.279V192.174H217.083V195.09H210.279V202H206.743ZM223.734 185.273V202H220.197V185.273H223.734ZM232.573 202H226.643V185.273H232.622C234.305 185.273 235.753 185.608 236.967 186.277C238.181 186.942 239.115 187.897 239.769 189.144C240.427 190.391 240.757 191.883 240.757 193.62C240.757 195.362 240.427 196.86 239.769 198.112C239.115 199.365 238.176 200.326 236.951 200.995C235.731 201.665 234.272 202 232.573 202ZM230.18 198.97H232.426C233.471 198.97 234.351 198.785 235.064 198.414C235.783 198.039 236.322 197.459 236.681 196.675C237.046 195.885 237.229 194.867 237.229 193.62C237.229 192.384 237.046 191.374 236.681 190.59C236.322 189.806 235.786 189.229 235.072 188.858C234.359 188.488 233.48 188.303 232.434 188.303H230.18V198.97Z" fill="white"/>
<circle cx="174.5" cy="93.5" r="70.5" fill="white"/>
<path d="M190.499 64.4109H151.047V117.953H204.589V78.5009L190.499 64.4109Z" fill="#94B7F7"/>
<path d="M190.499 64.4109H186.272L201.419 79.9099V117.953H204.589V78.5009L190.499 64.4109Z" fill="#006DEE"/>
<path d="M170.773 74.3621H173.591V77.0039H170.773V74.3621Z" fill="white"/>
<path d="M176.409 74.3621H179.227V77.0039H176.409V74.3621Z" fill="white"/>
<path d="M182.045 74.3621H184.863V77.0039H182.045V74.3621Z" fill="white"/>
<path d="M172.182 82.728H183.454V94H172.182V82.728Z" fill="#FFE477"/>
<path d="M180.636 82.728V91.182H172.182V94H183.454V82.728H180.636Z" fill="#FFB655"/>
<path d="M198.723 74.5035L203.268 79.048V116.632H152.368V102.454H149.726V119.274H205.91V77.9539L200.592 72.6355L198.723 74.5035Z" fill="black"/>
<path d="M152.368 65.732H189.952L196.61 72.39L198.478 70.522L191.046 63.0901H149.726V99.6361H152.368V65.732Z" fill="black"/>
<path d="M196.135 60.272V62.9139C201.622 62.9139 206.086 67.3779 206.086 72.8649H208.728C208.728 65.9212 203.079 60.272 196.135 60.272Z" fill="black"/>
<path d="M196.135 49V51.6419C207.837 51.6419 217.358 61.1625 217.358 72.865H220C220 59.7058 209.294 49 196.135 49Z" fill="black"/>
<path d="M196.135 54.6362V57.2781C204.73 57.2781 211.722 64.2705 211.722 72.8652H214.364C214.364 62.8137 206.186 54.6362 196.135 54.6362Z" fill="black"/>
<path d="M143.914 115.135H141.272C141.272 122.079 146.921 127.728 153.865 127.728V125.086C148.378 125.086 143.914 120.622 143.914 115.135Z" fill="black"/>
<path d="M132.642 115.135H130C130 128.294 140.706 139 153.865 139V136.358C142.163 136.358 132.642 126.837 132.642 115.135Z" fill="black"/>
<path d="M138.278 115.135H135.636C135.636 125.186 143.813 133.364 153.865 133.364V130.722C145.27 130.722 138.278 123.73 138.278 115.135Z" fill="black"/>
<path d="M177.818 102.366V99.7241H170.861V113.726H173.503V108.002H176.409V105.36H173.503V102.366H177.818Z" fill="black"/>
<path d="M167.867 104.568C167.867 101.897 165.694 99.7241 163.024 99.7241H159.589V113.726H162.231V109.618C163.966 110.177 165.225 111.807 165.225 113.726H167.867C167.867 111.719 167.012 109.908 165.648 108.637C166.982 107.773 167.867 106.272 167.867 104.568ZM163.024 102.366C164.238 102.366 165.225 103.354 165.225 104.568C165.225 105.782 164.238 106.769 163.024 106.769H162.231V102.366H163.024Z" fill="black"/>
<path d="M186.272 102.366V99.7241H180.636V102.366H182.133V110.996H180.636V113.638H186.272V110.996H184.775V102.366H186.272Z" fill="black"/>
<path d="M190.499 99.74H189.178V113.654H190.499C194.335 113.654 197.456 110.533 197.456 106.697C197.456 102.861 194.335 99.74 190.499 99.74ZM191.82 110.805V102.589C193.555 103.148 194.814 104.778 194.814 106.697C194.814 108.616 193.555 110.246 191.82 110.805Z" fill="black"/>
<path d="M184.775 81.407H170.861V95.3209H184.775V81.407ZM182.133 92.679H173.503V84.0489H182.133V92.679Z" fill="black"/>
</svg>
