<svg width="1159" height="1044" viewBox="0 0 1159 1044" fill="none" xmlns="http://www.w3.org/2000/svg">
<rect width="1136" height="1023" transform="matrix(-1 0 0 1 1159 20)" fill="#F9FAFF"/>
<path d="M954.23 943.832C957.82 943.832 960.73 940.922 960.73 937.332C960.73 933.742 957.82 930.832 954.23 930.832C950.64 930.832 947.73 933.742 947.73 937.332C947.73 940.922 950.64 943.832 954.23 943.832Z" fill="#40FCFC"/>
<path d="M906.492 909.385C906.691 907.002 904.921 904.908 902.538 904.708C900.155 904.509 898.062 906.279 897.862 908.662C897.662 911.045 899.432 913.138 901.815 913.338C904.198 913.538 906.292 911.768 906.492 909.385Z" fill="#FD5122"/>
<path d="M85.79 966.332L91.65 950.352C93.76 950.252 95.84 950.482 97.86 951.152L91.53 968.432C91.18 969.402 91.67 970.472 92.64 970.832C93.61 971.182 94.68 970.692 95.04 969.722L101.25 952.762C103.13 953.942 104.75 955.492 106.08 957.342L100.84 971.652C100.49 972.622 100.98 973.692 101.95 974.052C102.92 974.412 103.99 973.912 104.35 972.942L108.47 961.702C110.83 967.552 110.97 974.972 108.31 982.252C108.25 982.422 108.18 982.592 108.12 982.762C109.49 983.552 110.83 984.412 112.11 985.352C115.71 988.002 120.36 992.492 122.03 998.862L120.22 999.332C118.69 993.492 114.37 989.332 111.01 986.862C109.85 986.012 108.64 985.232 107.39 984.502C104.59 990.702 100.12 995.522 95.11 998.192L99.02 987.512C99.37 986.542 98.88 985.472 97.91 985.112C96.94 984.762 95.87 985.252 95.51 986.222L90.47 999.982C88.27 1000.52 86.04 1000.65 83.86 1000.28L89.72 984.292C90.07 983.322 89.58 982.252 88.61 981.892C87.64 981.542 86.57 982.032 86.21 983.002L80.27 999.212C78.35 998.362 76.65 997.092 75.11 995.532L80.47 980.892C80.82 979.922 80.33 978.852 79.36 978.492C78.39 978.142 77.32 978.632 76.96 979.602L72.35 992.182C70.86 990.062 69.56 987.692 68.4 985.222L71.29 977.322C71.64 976.352 71.15 975.282 70.18 974.922C69.21 974.572 68.14 975.062 67.78 976.032L66.24 980.242C63.39 973.172 61.38 966.412 59 964.152C63.03 963.302 68.76 959.452 75.11 956.022L73.12 961.462C72.77 962.432 73.26 963.502 74.23 963.862C75.2 964.222 76.27 963.722 76.63 962.752L79.99 953.582C82.45 952.462 84.96 951.522 87.46 950.942L82.3 965.032C81.95 966.002 82.44 967.072 83.41 967.432C84.38 967.792 85.45 967.292 85.8 966.322L85.79 966.332Z" fill="#E0F4FE"/>
<path d="M987.88 662.012L982.02 646.022C979.91 645.922 977.83 646.152 975.81 646.822L982.14 664.102C982.49 665.072 982 666.142 981.03 666.502C980.06 666.852 978.99 666.362 978.63 665.392L972.42 648.432C970.54 649.612 968.92 651.162 967.59 653.012L972.83 667.322C973.18 668.292 972.69 669.362 971.72 669.722C970.75 670.072 969.68 669.582 969.32 668.612L965.2 657.372C962.84 663.222 962.7 670.642 965.36 677.922C965.42 678.092 965.49 678.262 965.55 678.432C964.18 679.222 962.84 680.082 961.56 681.022C957.96 683.672 953.31 688.162 951.65 694.532L953.46 695.002C954.99 689.162 959.31 685.002 962.67 682.532C963.83 681.682 965.04 680.902 966.28 680.172C969.08 686.372 973.55 691.192 978.56 693.862L974.65 683.182C974.3 682.212 974.79 681.142 975.76 680.782C976.73 680.432 977.8 680.922 978.16 681.892L983.2 695.652C985.4 696.192 987.63 696.322 989.81 695.952L983.95 679.962C983.6 678.992 984.09 677.922 985.06 677.562C986.03 677.212 987.1 677.702 987.46 678.672L993.4 694.882C995.32 694.032 997.02 692.762 998.56 691.202L993.2 676.562C992.84 675.592 993.34 674.522 994.31 674.162C995.28 673.812 996.35 674.302 996.71 675.272L1001.32 687.852C1002.81 685.732 1004.11 683.352 1005.27 680.892L1002.38 672.992C1002.03 672.022 1002.52 670.952 1003.49 670.592C1004.46 670.242 1005.53 670.732 1005.89 671.702L1007.43 675.902C1010.28 668.832 1012.29 662.072 1014.67 659.812C1010.64 658.962 1004.91 655.112 998.56 651.682L1000.55 657.122C1000.9 658.092 1000.41 659.162 999.44 659.522C998.47 659.872 997.4 659.382 997.04 658.412L993.68 649.242C991.22 648.122 988.71 647.182 986.21 646.602L991.37 660.692C991.72 661.662 991.23 662.732 990.26 663.092C989.29 663.452 988.22 662.952 987.86 661.982L987.88 662.012Z" fill="#E0F4FE"/>
<path d="M915.86 795.692L1090.91 1038.63" stroke="#BDE8FD" stroke-width="17.26" stroke-miterlimit="10"/>
<path d="M868.14 762.862L1066.84 1038.62" stroke="#BDE8FD" stroke-width="17.26" stroke-miterlimit="10"/>
<path d="M867.72 795.692L1042.77 1038.63" stroke="#BDE8FD" stroke-width="17.26" stroke-miterlimit="10"/>
<path d="M616.1 1002.88H517.15V1043H616.1V1002.88Z" fill="#BDE8FD"/>
<path d="M1024.09 919.762H904.39V1042.52H936.31V977.002C936.31 961.632 948.88 949.062 964.24 949.062C979.6 949.062 992.17 961.632 992.17 977.002V1042.52H1024.09V919.762V919.762Z" fill="#E6F6FE"/>
<path d="M964.25 949.062C948.89 949.062 936.32 961.632 936.32 977.002V1042.52H992.18V977.002C992.18 961.632 979.61 949.062 964.25 949.062V949.062Z" fill="white"/>
<path d="M265.99 897.832H160.96V1043.01H265.99V897.832Z" fill="white"/>
<path d="M381.24 819.772H373.95V889.812H381.24V819.772V819.772Z" fill="#BDE8FD"/>
<path d="M465.05 873.432H434.39V904.872H442.56V888.092C442.56 884.162 445.78 880.932 449.71 880.932C453.64 880.932 456.86 884.152 456.86 888.092V904.872H465.03V873.432H465.05Z" fill="#D5F0FE"/>
<path d="M449.72 880.932C445.79 880.932 442.57 884.152 442.57 888.092V904.872H456.88V888.092C456.88 884.152 453.66 880.932 449.72 880.932Z" fill="white"/>
<path d="M461.33 868.212H437.03L430.22 873.892H468.15L461.34 868.212H461.33Z" fill="#A1DFFC"/>
<path d="M476.01 913.512H424.2V966.652H438.02V938.292C438.02 931.642 443.46 926.202 450.11 926.202C456.76 926.202 462.2 931.642 462.2 938.292V966.652H476.02V913.512H476.01Z" fill="#D5F0FE"/>
<path d="M450.1 926.192C443.45 926.192 438.01 931.632 438.01 938.282V966.642H462.19V938.282C462.19 931.632 456.75 926.192 450.1 926.192V926.192Z" fill="white"/>
<path d="M406.05 875.942H319.99V1043H406.05V875.942Z" fill="#BDE8FD"/>
<path d="M338.17 752.662H313.77C315.19 752.212 316.61 751.842 318.1 751.622H333.77C335.26 751.922 336.68 752.292 338.17 752.662ZM343.69 754.832H308.24C307.49 755.132 306.82 755.502 306.15 755.872H345.71C345.11 755.502 344.37 755.122 343.7 754.832H343.69ZM348.84 758.042H302.64C302.12 758.412 301.67 758.712 301.15 759.082H349.96C349.59 758.712 349.21 758.332 348.84 758.042ZM351.6 761.182H298.53C298.16 761.552 297.71 761.852 297.34 762.222H352.12C351.97 761.922 351.82 761.552 351.6 761.182V761.182ZM353.09 764.392H295.25C294.95 764.762 294.65 765.062 294.28 765.432H353.39C353.32 765.062 353.17 764.762 353.09 764.392ZM353.91 767.602H292.56C292.26 767.972 292.04 768.272 291.81 768.652H354.05C353.98 768.282 353.9 767.902 353.9 767.602H353.91ZM354.28 770.742H290.39C290.17 771.112 289.94 771.412 289.79 771.782H354.42C354.34 771.482 354.34 771.112 354.27 770.742H354.28ZM354.43 773.952H288.6C288.45 774.322 288.23 774.622 288.08 774.992H354.43V773.952ZM353.83 777.532C353.9 777.382 353.9 777.312 353.98 777.162H287.18C287.03 777.532 286.88 777.832 286.81 778.202H353.38C353.53 777.982 353.68 777.752 353.83 777.532V777.532ZM349.5 780.672C349.72 780.522 349.95 780.452 350.17 780.372H286.13C286.05 780.742 285.98 781.042 285.83 781.412H348.22C348.6 781.112 349.04 780.892 349.49 780.672H349.5ZM345.39 783.512H285.39C285.32 783.882 285.24 784.182 285.24 784.552H344.35C344.65 784.182 345.02 783.802 345.39 783.512ZM342.48 786.652H284.86C284.86 787.022 284.79 787.322 284.79 787.692H341.74C341.96 787.392 342.19 787.022 342.49 786.652H342.48ZM340.47 789.862H284.72V790.902H339.95C340.1 790.602 340.32 790.232 340.47 789.862ZM339.13 793.072H284.87C284.87 793.442 284.94 793.742 285.02 794.112H338.83C338.9 793.742 339.05 793.362 339.13 793.072ZM338.31 796.202H285.39C285.46 796.572 285.54 796.952 285.61 797.242H338.15C338.22 796.942 338.3 796.572 338.3 796.202H338.31ZM338.01 799.412H286.29C286.44 799.782 286.51 800.162 286.66 800.452H338.01C338.01 800.152 338.01 799.782 338.01 799.412ZM288.23 803.672H338.38C338.3 803.302 338.23 803.002 338.23 802.632H287.7C287.85 802.932 288.07 803.302 288.22 803.672H288.23ZM290.32 806.812H339.2C339.13 806.442 338.98 806.142 338.9 805.772H289.57C289.79 806.142 290.02 806.522 290.32 806.812ZM293.16 810.022H339.73C339.73 809.652 339.73 809.352 339.65 808.982H292.03C292.48 809.352 292.85 809.732 293.15 810.022H293.16ZM297.12 813.012C297.27 813.082 297.34 813.162 297.49 813.232H338.76C338.98 812.932 339.21 812.562 339.36 812.192H295.85C296.3 812.412 296.67 812.792 297.12 813.012V813.012ZM306.52 816.372H333.16C334.2 816.142 335.17 815.772 336.15 815.332H302.41C303.76 815.782 305.1 816.152 306.52 816.372V816.372Z" fill="#C8EBF8"/>
<path d="M457.25 859.932C458.58 859.112 459.77 858.102 460.79 856.942L460.69 856.962L455.9 852.172L462.46 850.492L463.79 851.822C464.24 850.562 464.53 849.232 464.64 847.852L463.07 848.252L458.28 843.462L464.01 841.992C462.66 837.602 459.45 834.042 455.29 832.222L456.73 833.662L450.17 835.342L446.02 831.192C445.25 831.342 444.51 831.552 443.78 831.812L447.89 835.922L441.33 837.602L438.6 834.872C438.1 835.322 437.62 835.802 437.18 836.302L439.05 838.182L435.18 839.172C434.78 839.922 434.45 840.702 434.17 841.512L440.7 839.842L445.49 844.632L438.92 846.312L434.15 841.542C433.9 842.272 433.71 843.032 433.57 843.812L436.65 846.892L433.37 847.732C433.42 848.412 433.5 849.092 433.63 849.752L438.31 848.552L443.1 853.342L436.54 855.022L434.87 853.352C436.41 856.562 439.01 859.162 442.23 860.712L438.21 856.692L444.78 855.012L449.57 859.802L443.66 861.312C445.09 861.832 446.62 862.152 448.22 862.232L451.23 861.462L451.78 862.012C452.56 861.872 453.32 861.682 454.05 861.432L453.5 860.882L457.23 859.932H457.25ZM460.81 848.832L454.25 850.512L449.46 845.722L456.03 844.042L460.82 848.832H460.81ZM458.41 835.322L463.2 840.112L456.64 841.792L451.85 837.002L458.41 835.322ZM443.01 839.262L449.58 837.582L454.37 842.372L447.81 844.052L443.02 839.262H443.01ZM440.62 847.972L447.19 846.292L451.98 851.082L445.42 852.762L440.63 847.972H440.62ZM447.07 854.422L453.64 852.742L458.43 857.532L451.87 859.212L447.08 854.422H447.07Z" fill="#C8ECFD"/>
<path d="M214.55 808.822H109.52V1043H214.55V808.822Z" fill="#D5F0FE"/>
<path d="M371.03 931.392H266V1043.01H371.03V931.392Z" fill="#D5F0FE"/>
<path d="M326.39 897.392H221.36L265.99 931.872H371.02L326.39 897.392V897.392Z" fill="#B1D8E8"/>
<path d="M573.41 980.562H468.38L513.01 1003.12H618.04L573.41 980.562Z" fill="#B1D8E8"/>
<path d="M310.29 947.982H296.76V1022.24H310.29V947.982Z" fill="white"/>
<path d="M335.36 947.982H321.83V1022.24H335.36V947.982Z" fill="white"/>
<path d="M360.44 947.982H346.91V1022.24H360.44V947.982Z" fill="white"/>
<path d="M765.63 953.282H700.72V1043.01H765.63V953.282Z" fill="white"/>
<path d="M830.55 974.022H765.64V1043.01H830.55V974.022Z" fill="#D5F0FE"/>
<path d="M802.96 953.012H738.05L765.64 975.072H830.55L802.96 953.012Z" fill="#B1D8E8"/>
<path d="M799.62 984.272H793.04V1006.72H799.62V984.272Z" fill="white"/>
<path d="M811.81 984.272H805.23V1006.72H811.81V984.272Z" fill="white"/>
<path d="M824 984.272H817.42V1006.72H824V984.272Z" fill="white"/>
<path d="M166.42 829.792H109.52V840.002H166.41V829.792H166.42Z" fill="white"/>
<path d="M166.42 848.762H109.52V858.972H166.41V848.762H166.42Z" fill="white"/>
<path d="M166.42 867.732H109.52V877.942H166.41V867.732H166.42Z" fill="white"/>
<path d="M166.42 886.692H109.52V896.902H166.41V886.692H166.42Z" fill="white"/>
<path d="M166.42 905.662H109.52V915.872H166.41V905.662H166.42Z" fill="white"/>
<path d="M166.42 924.632H109.52V934.842H166.41V924.632H166.42Z" fill="white"/>
<path d="M166.42 943.602H109.52V953.812H166.41V943.602H166.42Z" fill="white"/>
<path d="M166.42 962.572H109.52V972.782H166.41V962.572H166.42Z" fill="white"/>
<path d="M166.42 981.542H109.52V991.752H166.41V981.542H166.42Z" fill="white"/>
<path d="M166.42 1000.51H109.52V1010.72H166.41V1000.51H166.42Z" fill="white"/>
<path d="M129.94 816.652L169.33 1026.77H201.42V818.112L129.94 816.652Z" fill="#D5F0FE"/>
<path d="M483.16 975.692H417.52V1043.01H435.02V1007.08C435.02 998.652 441.91 991.762 450.34 991.762C458.77 991.762 465.66 998.662 465.66 1007.08V1043.01H483.16V975.692Z" fill="#D5F0FE"/>
<path d="M450.34 991.752C441.91 991.752 435.02 998.652 435.02 1007.07V1043H465.66V1007.07C465.66 998.642 458.77 991.752 450.34 991.752Z" fill="white"/>
<path d="M1022.39 920.872H906.1L880.79 899.592H1047.7L1022.39 920.872V920.872Z" fill="#E6F6FE"/>
<path d="M371.03 934.552L266 1043.01H371.03V934.552Z" fill="#D5F0FE"/>
<path d="M481.9 980.022L420.64 1043H481.9V980.022Z" fill="#D5F0FE"/>
<path d="M474.12 921.662L431.78 965.192H474.12V921.662V921.662Z" fill="#D5F0FE"/>
<path d="M464.39 876.912L437.19 904.872H464.39V876.912Z" fill="#D5F0FE"/>
<path d="M451.12 780.662H446.74V829.302H451.12V780.662V780.662Z" fill="#BDE8FD"/>
<path d="M623.75 1010.99L613.68 1001.76L627.48 998.522L628.64 999.582V994.082L618.7 984.962L628.64 982.622V978.612L615.21 981.762L605.14 972.522L618.94 969.282L628.64 978.172V972.672L623.71 968.152L628.64 966.992V962.972L620.23 964.942L610.16 955.712L623.96 952.472L628.64 956.772V947.362L625.24 948.162L615.17 938.932L628.64 935.772V929.892L620.19 922.142L628.64 920.162V916.142L616.7 918.942L606.63 909.702L620.43 906.462L628.64 913.992V908.492L625.21 905.342L628.64 904.532V900.522L621.72 902.142L611.65 892.912L625.45 889.672L628.64 892.602V884.912L626.74 885.362L616.67 876.122L628.65 873.312V865.752H622.7L626.99 869.682L613.19 872.922L609.13 869.192L606.13 871.942L608.42 874.042L578.33 881.102V885.112L596.38 880.872L594.46 882.632L603.4 890.822L589.6 894.062L585.8 890.572L582.8 893.322L584.83 895.182L578.34 896.702V900.712L588.32 898.372L598.39 907.602L584.59 910.842L578.34 905.112V910.612L579.81 911.962L578.34 912.312V916.332L583.3 915.172L593.37 924.402L579.57 927.642L578.34 926.512V932.012L588.36 941.192L578.34 943.542V947.562L591.84 944.392L601.91 953.622L588.11 956.862L578.33 947.902V953.402L583.33 957.982L578.33 959.152V963.172L586.81 961.182L596.88 970.422L583.08 973.662L578.32 969.302V978.792L581.79 977.982L591.86 987.212L578.32 990.392V996.192L586.85 1004.01L578.32 1006.01V1010.03L590.33 1007.21L600.4 1016.44L586.6 1019.68L578.32 1012.08V1017.58L581.83 1020.8L578.32 1021.62V1025.64L585.31 1024L595.38 1033.24L581.58 1036.48L578.31 1033.49V1041.27L580.29 1040.81L582.72 1043.04H588.72L585.07 1039.69L598.87 1036.45L602.93 1040.18L605.93 1037.43L603.64 1035.33L628.64 1029.46V1025.45L615.68 1028.49L617.6 1026.73L608.66 1018.54L622.46 1015.3L626.26 1018.78L628.64 1016.6V1015.45L627.24 1014.17L628.64 1013.84V1009.82L623.76 1010.97L623.75 1010.99ZM623.99 995.322L610.19 998.562L600.12 989.322L613.92 986.082L623.99 995.322ZM625.48 932.512L611.68 935.752L601.61 926.512L615.41 923.272L625.48 932.502V932.512ZM598.08 880.502L611.88 877.262L621.95 886.502L608.15 889.742L598.08 880.502ZM593.06 897.292L606.86 894.052L616.93 903.292L603.13 906.532L593.06 897.292V897.292ZM588.04 914.082L601.84 910.842L611.91 920.082L598.11 923.322L588.04 914.082ZM583.02 930.872L596.82 927.632L606.89 936.872L593.09 940.112L583.02 930.872ZM596.58 943.302L610.38 940.062L620.45 949.302L606.65 952.542L596.58 943.302ZM591.56 960.092L605.36 956.852L615.43 966.092L601.63 969.332L591.56 960.092ZM586.54 976.882L600.34 973.642L610.41 982.882L596.61 986.122L586.54 976.892V976.882ZM581.52 993.672L595.32 990.432L605.39 999.672L591.59 1002.91L581.52 993.682V993.672ZM613.94 1028.89L600.14 1032.13L590.07 1022.89L603.87 1019.65L613.94 1028.89ZM605.16 1015.34L595.09 1006.1L608.89 1002.86L618.96 1012.1L605.16 1015.34Z" fill="#C8ECFD"/>
<path d="M925.81 852.602H840.41V1043.01H925.81V852.602Z" fill="#D5F0FE"/>
<path d="M925.81 869.642H879.55V877.942H925.81V869.642Z" fill="white"/>
<path d="M925.81 885.062H879.55V893.372H925.81V885.062Z" fill="white"/>
<path d="M925.81 900.492H879.55V908.802H925.81V900.492Z" fill="white"/>
<path d="M925.81 915.912H879.55V924.222H925.81V915.912Z" fill="white"/>
<path d="M925.81 931.332H879.55V939.642H925.81V931.332Z" fill="white"/>
<path d="M925.81 946.762H879.55V955.072H925.81V946.762Z" fill="white"/>
<path d="M925.81 962.182H879.55V970.492H925.81V962.182Z" fill="white"/>
<path d="M925.81 977.602H879.55V985.912H925.81V977.602Z" fill="white"/>
<path d="M925.81 993.032H879.55V1001.33H925.81V993.032Z" fill="white"/>
<path d="M925.81 1008.45H879.55V1016.76H925.81V1008.45Z" fill="white"/>
<path d="M909.2 858.962L877.17 1029.8H851.08V860.152L909.2 858.962Z" fill="#D5F0FE"/>
<path d="M736.67 991.362C728.26 991.362 721.38 998.242 721.38 1006.65V1042.51H751.96V1006.65C751.96 998.242 745.08 991.362 736.67 991.362V991.362Z" fill="#89D4F4"/>
<path d="M732.07 875.942H646.01V1043H732.07V875.942V875.942Z" fill="#BDE8FD"/>
<path d="M660.22 908.042C666.46 908.042 671.52 902.982 671.52 896.732C671.52 890.482 666.46 885.422 660.22 885.422C653.98 885.422 648.92 890.482 648.92 896.732C648.92 902.982 653.98 908.042 660.22 908.042Z" fill="white"/>
<path d="M690 908.042C696.24 908.042 701.3 902.982 701.3 896.732C701.3 890.482 696.24 885.422 690 885.422C683.76 885.422 678.7 890.482 678.7 896.732C678.7 902.982 683.76 908.042 690 908.042Z" fill="white"/>
<path d="M719.8 908.042C726.04 908.042 731.1 902.982 731.1 896.732C731.1 890.482 726.04 885.422 719.8 885.422C713.56 885.422 708.5 890.482 708.5 896.732C708.5 902.982 713.56 908.042 719.8 908.042Z" fill="white"/>
<path d="M673.38 918.792H667.54V952.842H673.38V918.792Z" fill="white"/>
<path d="M686.02 918.792H680.18V952.842H686.02V918.792Z" fill="white"/>
<path d="M698.67 918.792H692.83V952.842H698.67V918.792Z" fill="white"/>
<path d="M711.31 918.792H705.47V952.842H711.31V918.792Z" fill="white"/>
<path d="M723.95 918.792H718.12V952.842H723.95V918.792Z" fill="white"/>
<path d="M658.79 985.922H652.95V1019.97H658.79V985.922Z" fill="white"/>
<path d="M671.44 985.922H665.6V1019.97H671.44V985.922Z" fill="white"/>
<path d="M684.08 985.922H678.25V1019.97H684.08V985.922Z" fill="white"/>
<path d="M696.72 985.922H690.88V1019.97H696.72V985.922Z" fill="white"/>
<path d="M709.36 985.922H703.52V1019.97H709.36V985.922Z" fill="white"/>
<path d="M732.07 913.882L646 983.662H732.07V913.882V913.882Z" fill="#BDE8FD"/>
<path d="M646 972.252L732.07 1042.03H646V972.252Z" fill="#BDE8FD"/>
<path d="M469.71 904.692H428.64L417.13 914.292H481.23L469.72 904.692H469.71Z" fill="#A1DFFC"/>
<path d="M475.19 964.512H423.16L408.57 976.672H489.78L475.19 964.512Z" fill="#A1DFFC"/>
<path fill-rule="evenodd" clip-rule="evenodd" d="M76 489C77.6537 489 79 490.571 79 492.5C79 494.429 77.6537 496 76 496C74.3463 496 73 494.429 73 492.5C73 490.571 74.3463 489 76 489Z" fill="white"/>
<path fill-rule="evenodd" clip-rule="evenodd" d="M431 526C432.108 526 433 526.892 433 528C433 529.108 432.108 530 431 530C429.892 530 429 529.108 429 528C429 526.892 429.892 526 431 526Z" fill="white"/>
<path fill-rule="evenodd" clip-rule="evenodd" d="M448.507 495C449.329 495 450 495.674 450 496.5C450 497.326 449.329 498 448.507 498C447.685 498 447 497.326 447 496.5C447 495.674 447.671 495 448.507 495Z" fill="white"/>
<path fill-rule="evenodd" clip-rule="evenodd" d="M515 736C515.547 736 516 736.453 516 737C516 737.547 515.547 738 515 738C514.453 738 514 737.547 514 737C514 736.453 514.453 736 515 736Z" fill="white"/>
<g opacity="0.5">
<path d="M519.371 605.682C460.472 584.963 431.418 525.268 454.479 472.349" stroke="white" stroke-width="5" stroke-linecap="round"/>
<path d="M922.298 636.864C844.219 816.035 619.261 904.414 419.84 834.264" stroke="white" stroke-width="5" stroke-linecap="round"/>
<path d="M708.888 604.002C766.816 530.684 747.623 429.057 666.019 377.011C584.415 324.966 471.301 342.21 413.373 415.527" stroke="white" stroke-width="5" stroke-linecap="round"/>
<path d="M240.108 595.011C187.782 435.784 289.032 268.594 466.255 221.581" stroke="white" stroke-width="5" stroke-linecap="round"/>
<path d="M458.164 286.943C321.125 338.06 256.155 479.309 313.05 602.432C369.944 725.555 527.157 783.927 664.196 732.81" stroke="white" stroke-width="5" stroke-linecap="round"/>
<path d="M636.557 478.953C631.716 469.311 624.647 460.704 615.821 453.703C606.995 446.703 596.613 441.468 585.363 438.348C574.114 435.227 562.254 434.292 550.572 435.603" stroke="white" stroke-width="5" stroke-linecap="round"/>
<path d="M591.126 482.91C583.328 475.781 572.725 471.69 561.601 471.516C550.478 471.343 539.723 475.103 531.655 481.984" stroke="white" stroke-width="5" stroke-linecap="round"/>
<ellipse cx="561.128" cy="509.864" rx="10.9324" ry="9.82228" stroke="white" stroke-width="5" stroke-linecap="round"/>
<path d="M865.448 667.722C768.412 818.727 553.499 870.465 385.428 783.282C217.356 696.1 159.771 503.011 256.807 352.006" stroke="white" stroke-width="5" stroke-linecap="round"/>
<path d="M870.359 509.864C870.359 663.306 731.912 787.694 561.128 787.694C390.344 787.694 251.897 663.306 251.897 509.864" stroke="white" stroke-width="5" stroke-linecap="round"/>
<path d="M920.902 696.488C1035.62 517.966 967.541 289.692 768.843 186.623C570.145 83.5541 316.071 144.72 201.353 323.241" stroke="white" stroke-width="5" stroke-linecap="round"/>
<path d="M920.856 509.864C920.856 331.366 759.8 186.665 561.127 186.665" stroke="white" stroke-width="5" stroke-linecap="round"/>
<path d="M935.434 509.864C935.434 695.595 767.852 846.16 561.129 846.16C354.406 846.16 186.824 695.595 186.824 509.864" stroke="white" stroke-width="5" stroke-linecap="round"/>
<path d="M766.937 400.787C699.887 298.663 553.386 264.71 439.72 324.952C326.053 385.194 288.263 516.817 355.313 618.942" stroke="white" stroke-width="5" stroke-linecap="round"/>
<path d="M733.869 772.966C572.139 858.681 363.692 810.372 268.29 665.064C172.887 519.757 226.657 332.477 388.387 246.762" stroke="white" stroke-width="5" stroke-linecap="round"/>
<path d="M659.116 659.11C567.374 707.732 449.132 680.328 395.014 597.902C340.897 515.476 371.398 409.241 463.14 360.619" stroke="white" stroke-width="5" stroke-linecap="round"/>
<path d="M895.991 713.151C771.03 879.311 519.805 922.997 334.864 810.725C149.924 698.452 101.301 472.738 226.263 306.578" stroke="white" stroke-width="5" stroke-linecap="round"/>
<path d="M796.09 385.37C872.665 502.002 829.507 652.324 699.693 721.123" stroke="white" stroke-width="7.07495" stroke-linecap="round"/>
<path d="M642.618 466.676C669.166 507.111 654.203 559.227 609.198 583.079C564.193 606.931 506.187 593.488 479.639 553.052" stroke="white" stroke-width="5" stroke-linecap="round"/>
<path d="M670.085 452.119C705.581 506.183 685.575 575.865 625.4 607.758C565.224 639.65 487.667 621.675 452.17 567.61" stroke="white" stroke-width="5" stroke-linecap="round"/>
<path d="M638.273 627.367C566.044 665.647 472.951 644.072 430.344 579.177C387.737 514.283 411.75 430.643 483.98 392.362" stroke="white" stroke-width="5" stroke-linecap="round"/>
<ellipse cx="561.127" cy="509.864" rx="437.817" ry="393.359" stroke="white" stroke-width="5" stroke-linecap="round"/>
<path d="M935.434 509.864C935.434 324.133 767.852 173.568 561.129 173.568C354.406 173.568 186.824 324.133 186.824 509.864" stroke="white" stroke-width="5" stroke-linecap="round"/>
<path d="M561.127 774.598C398.394 774.598 266.472 656.073 266.472 509.864C266.472 363.656 398.394 245.13 561.127 245.13" stroke="white" stroke-width="5" stroke-linecap="round"/>
<path d="M561.128 911.642C314.153 911.642 113.941 731.76 113.941 509.864C113.941 287.968 314.153 108.086 561.128 108.086" stroke="white" stroke-width="5" stroke-linecap="round"/>
<path d="M638.738 249.633C798.703 288.143 893.634 435.871 850.771 579.593C807.909 723.315 643.484 808.605 483.519 770.095" stroke="white" stroke-width="5" stroke-linecap="round"/>
<path d="M638.738 249.633C798.703 288.143 893.634 435.871 850.771 579.593C807.909 723.315 643.484 808.605 483.519 770.095" stroke="white" stroke-width="5" stroke-linecap="round"/>
<path d="M960.421 509.864C960.421 311.734 781.651 151.117 561.127 151.117C340.604 151.117 161.834 311.734 161.834 509.864" stroke="white" stroke-width="5" stroke-linecap="round"/>
<path d="M960.421 509.864C960.421 311.734 781.651 151.117 561.127 151.117C340.604 151.117 161.834 311.734 161.834 509.864" stroke="white" stroke-width="5" stroke-linecap="round"/>
<path d="M306.042 402.9C371.618 276.444 538.877 221.694 679.624 280.611C820.372 339.528 881.311 489.802 815.735 616.257" stroke="white" stroke-width="5" stroke-linecap="round"/>
<path d="M631.797 619.668C699.15 584.73 722.227 507.352 683.341 446.838C644.455 386.324 558.331 365.591 490.977 400.528" stroke="white" stroke-width="5" stroke-linecap="round"/>
<path d="M775.089 510.098C775.089 616.138 679.411 702.1 561.387 702.1C443.362 702.1 347.684 616.138 347.684 510.098" stroke="white" stroke-width="5" stroke-linecap="round"/>
<path d="M688.698 759.149C535.344 822.492 353.873 762.149 283.37 624.367" stroke="white" stroke-width="5" stroke-linecap="round"/>
<path d="M275.487 257.966C430.434 116.14 684.011 114.021 841.868 253.233" stroke="white" stroke-width="5" stroke-linecap="round"/>
<path d="M632.013 648.388C546.9 683.545 446.18 650.053 407.05 573.582C367.92 497.111 405.197 406.619 490.31 371.463" stroke="white" stroke-width="5" stroke-linecap="round"/>
<path d="M516.552 423.026C569.922 400.981 633.077 421.982 657.614 469.932" stroke="white" stroke-width="5" stroke-linecap="round"/>
<path d="M574 534.824C589.238 528.53 595.912 512.329 588.906 498.638" stroke="white" stroke-width="5" stroke-linecap="round"/>
<path d="M560.867 563.682C527.659 563.666 500.753 539.466 500.772 509.63" stroke="white" stroke-width="5" stroke-linecap="round"/>
<path d="M555.92 525.85C546.009 523.464 540.128 514.311 542.784 505.407C545.439 496.503 555.626 491.219 565.537 493.604" stroke="white" stroke-width="5" stroke-linecap="round"/>
<path d="M352.705 424.397C405.301 321.004 541.229 275.496 656.308 322.751C771.387 370.007 822.039 492.132 769.442 595.525" stroke="white" stroke-width="5" stroke-linecap="round"/>
<path d="M471.741 231.818C642.659 187.561 821.147 276.17 870.405 429.731C919.664 583.293 821.04 743.656 650.123 787.913" stroke="white" stroke-width="5" stroke-linecap="round"/>
<path d="M547.89 468.726C522.389 475.329 507.674 499.256 515.024 522.167C522.373 545.079 549.004 558.3 574.505 551.697" stroke="white" stroke-width="5" stroke-linecap="round"/>
<path d="M561.173 832.913C759.803 832.883 920.798 688.187 920.765 509.727" stroke="white" stroke-width="5" stroke-linecap="round"/>
<path d="M561.07 735.801C422.169 735.822 309.549 634.672 309.526 509.876C309.503 385.081 422.085 283.897 560.985 283.876" stroke="white" stroke-width="5" stroke-linecap="round"/>
<path d="M661.636 447.46C699.336 496.743 684.822 564.53 629.217 598.866" stroke="white" stroke-width="5" stroke-linecap="round"/>
<path d="M754.733 164.406C964.196 259.261 1047.24 490.807 940.22 681.578C833.198 872.349 576.636 950.105 367.172 855.25" stroke="white" stroke-width="5" stroke-linecap="round"/>
<path d="M727.045 407.096C789.187 488.332 765.262 600.067 673.607 656.664C581.951 713.261 457.273 693.288 395.131 612.052" stroke="white" stroke-width="5" stroke-linecap="round"/>
<path d="M839.642 451.252C803.954 314.923 650.33 230.755 496.513 263.258" stroke="white" stroke-width="5" stroke-linecap="round"/>
<path d="M649.108 509.864C649.108 493.525 643.473 477.588 632.978 464.245C622.482 450.901 607.643 440.808 590.5 435.353C573.358 429.899 554.756 429.351 537.253 433.784C519.75 438.218 504.206 447.416 492.76 460.113" stroke="white" stroke-width="5" stroke-linecap="round"/>
</g>
</svg>
