<svg width="128" height="128" viewBox="0 0 128 128" fill="none" xmlns="http://www.w3.org/2000/svg">
<path d="M8.96094 119.04H113.921V121.6H8.96094V119.04Z" fill="#E1E1E0"/>
<path d="M52.4805 96H66.5605V116.48H52.4805V96Z" fill="#0A8996"/>
<path d="M56.3199 40.96H51.1999C50.4959 40.96 49.9199 41.536 49.9199 42.24V51.2C49.9199 51.904 50.4959 52.48 51.1999 52.48H56.3199C57.0239 52.48 57.5999 51.904 57.5999 51.2V42.24C57.5999 41.536 57.0239 40.96 56.3199 40.96ZM55.0399 49.92H52.4799V43.52H55.0399V49.92Z" fill="black"/>
<path d="M67.8395 40.96H62.7195C62.0155 40.96 61.4395 41.536 61.4395 42.24V51.2C61.4395 51.904 62.0155 52.48 62.7195 52.48H67.8395C68.5435 52.48 69.1195 51.904 69.1195 51.2V42.24C69.1195 41.536 68.5435 40.96 67.8395 40.96ZM66.5595 49.92H63.9995V43.52H66.5595V49.92Z" fill="black"/>
<path d="M90.8805 66.5601H85.7605C85.0565 66.5601 84.4805 67.1361 84.4805 67.8401V76.8001C84.4805 77.5041 85.0565 78.0801 85.7605 78.0801H90.8805C91.5845 78.0801 92.1605 77.5041 92.1605 76.8001V67.8401C92.1605 67.1361 91.5845 66.5601 90.8805 66.5601ZM89.6005 75.5201H87.0405V69.1201H89.6005V75.5201Z" fill="black"/>
<path d="M102.4 66.5601H97.28C96.576 66.5601 96 67.1361 96 67.8401V76.8001C96 77.5041 96.576 78.0801 97.28 78.0801H102.4C103.104 78.0801 103.68 77.5041 103.68 76.8001V67.8401C103.68 67.1361 103.104 66.5601 102.4 66.5601ZM101.12 75.5201H98.56V69.1201H101.12V75.5201Z" fill="black"/>
<path d="M90.8805 83.2002H85.7605C85.0565 83.2002 84.4805 83.7762 84.4805 84.4802V93.4402C84.4805 94.1442 85.0565 94.7202 85.7605 94.7202H90.8805C91.5845 94.7202 92.1605 94.1442 92.1605 93.4402V84.4802C92.1605 83.7762 91.5845 83.2002 90.8805 83.2002ZM89.6005 92.1602H87.0405V85.7602H89.6005V92.1602Z" fill="black"/>
<path d="M90.8805 99.8398H85.7605C85.0565 99.8398 84.4805 100.416 84.4805 101.12V110.08C84.4805 110.784 85.0565 111.36 85.7605 111.36H90.8805C91.5845 111.36 92.1605 110.784 92.1605 110.08V101.12C92.1605 100.416 91.5845 99.8398 90.8805 99.8398ZM89.6005 108.8H87.0405V102.4H89.6005V108.8Z" fill="black"/>
<path d="M24.3199 49.9199H19.1999C18.4959 49.9199 17.9199 50.4959 17.9199 51.1999V60.1599C17.9199 60.8639 18.4959 61.4399 19.1999 61.4399H24.3199C25.0239 61.4399 25.5999 60.8639 25.5999 60.1599V51.1999C25.5999 50.4959 25.0239 49.9199 24.3199 49.9199ZM23.0399 58.8799H20.4799V52.4799H23.0399V58.8799Z" fill="black"/>
<path d="M35.8395 49.9199H30.7195C30.0155 49.9199 29.4395 50.4959 29.4395 51.1999V60.1599C29.4395 60.8639 30.0155 61.4399 30.7195 61.4399H35.8395C36.5435 61.4399 37.1195 60.8639 37.1195 60.1599V51.1999C37.1195 50.4959 36.5435 49.9199 35.8395 49.9199ZM34.5595 58.8799H31.9995V52.4799H34.5595V58.8799Z" fill="black"/>
<path d="M24.3199 66.5601H19.1999C18.4959 66.5601 17.9199 67.1361 17.9199 67.8401V76.8001C17.9199 77.5041 18.4959 78.0801 19.1999 78.0801H24.3199C25.0239 78.0801 25.5999 77.5041 25.5999 76.8001V67.8401C25.5999 67.1361 25.0239 66.5601 24.3199 66.5601ZM23.0399 75.5201H20.4799V69.1201H23.0399V75.5201Z" fill="black"/>
<path d="M35.8395 66.5601H30.7195C30.0155 66.5601 29.4395 67.1361 29.4395 67.8401V76.8001C29.4395 77.5041 30.0155 78.0801 30.7195 78.0801H35.8395C36.5435 78.0801 37.1195 77.5041 37.1195 76.8001V67.8401C37.1195 67.1361 36.5435 66.5601 35.8395 66.5601ZM34.5595 75.5201H31.9995V69.1201H34.5595V75.5201Z" fill="black"/>
<path d="M24.3199 83.2002H19.1999C18.4959 83.2002 17.9199 83.7762 17.9199 84.4802V93.4402C17.9199 94.1442 18.4959 94.7202 19.1999 94.7202H24.3199C25.0239 94.7202 25.5999 94.1442 25.5999 93.4402V84.4802C25.5999 83.7762 25.0239 83.2002 24.3199 83.2002ZM23.0399 92.1602H20.4799V85.7602H23.0399V92.1602Z" fill="black"/>
<path d="M35.8395 83.2002H30.7195C30.0155 83.2002 29.4395 83.7762 29.4395 84.4802V93.4402C29.4395 94.1442 30.0155 94.7202 30.7195 94.7202H35.8395C36.5435 94.7202 37.1195 94.1442 37.1195 93.4402V84.4802C37.1195 83.7762 36.5435 83.2002 35.8395 83.2002ZM34.5595 92.1602H31.9995V85.7602H34.5595V92.1602Z" fill="black"/>
<path d="M24.3199 99.8398H19.1999C18.4959 99.8398 17.9199 100.416 17.9199 101.12V110.08C17.9199 110.784 18.4959 111.36 19.1999 111.36H24.3199C25.0239 111.36 25.5999 110.784 25.5999 110.08V101.12C25.5999 100.416 25.0239 99.8398 24.3199 99.8398ZM23.0399 108.8H20.4799V102.4H23.0399V108.8Z" fill="black"/>
<path d="M35.8395 99.8398H30.7195C30.0155 99.8398 29.4395 100.416 29.4395 101.12V110.08C29.4395 110.784 30.0155 111.36 30.7195 111.36H35.8395C36.5435 111.36 37.1195 110.784 37.1195 110.08V101.12C37.1195 100.416 36.5435 99.8398 35.8395 99.8398ZM34.5595 108.8H31.9995V102.4H34.5595V108.8Z" fill="black"/>
<path d="M40.9601 44.7998H14.0801V116.48H40.9601C40.9473 107.469 40.9601 53.811 40.9601 44.7998ZM25.6001 110.08C25.6001 110.784 25.0241 111.36 24.3201 111.36H19.2001C18.4961 111.36 17.9201 110.784 17.9201 110.08V101.12C17.9201 100.416 18.4961 99.8398 19.2001 99.8398H24.3201C25.0241 99.8398 25.6001 100.416 25.6001 101.12V110.08ZM25.6001 93.4398C25.6001 94.1438 25.0241 94.7198 24.3201 94.7198H19.2001C18.4961 94.7198 17.9201 94.1438 17.9201 93.4398V84.4798C17.9201 83.7758 18.4961 83.1998 19.2001 83.1998H24.3201C25.0241 83.1998 25.6001 83.7758 25.6001 84.4798V93.4398ZM25.6001 76.7998C25.6001 77.5038 25.0241 78.0798 24.3201 78.0798H19.2001C18.4961 78.0798 17.9201 77.5038 17.9201 76.7998V67.8398C17.9201 67.1358 18.4961 66.5598 19.2001 66.5598H24.3201C25.0241 66.5598 25.6001 67.1358 25.6001 67.8398V76.7998ZM25.6001 60.1598C25.6001 60.8638 25.0241 61.4398 24.3201 61.4398H19.2001C18.4961 61.4398 17.9201 60.8638 17.9201 60.1598V51.1998C17.9201 50.4958 18.4961 49.9198 19.2001 49.9198H24.3201C25.0241 49.9198 25.6001 50.4958 25.6001 51.1998V60.1598ZM37.1201 110.08C37.1201 110.784 36.5441 111.36 35.8401 111.36H30.7201C30.0161 111.36 29.4401 110.784 29.4401 110.08V101.12C29.4401 100.416 30.0161 99.8398 30.7201 99.8398H35.8401C36.5441 99.8398 37.1201 100.416 37.1201 101.12V110.08ZM37.1201 93.4398C37.1201 94.1438 36.5441 94.7198 35.8401 94.7198H30.7201C30.0161 94.7198 29.4401 94.1438 29.4401 93.4398V84.4798C29.4401 83.7758 30.0161 83.1998 30.7201 83.1998H35.8401C36.5441 83.1998 37.1201 83.7758 37.1201 84.4798V93.4398ZM37.1201 76.7998C37.1201 77.5038 36.5441 78.0798 35.8401 78.0798H30.7201C30.0161 78.0798 29.4401 77.5038 29.4401 76.7998V67.8398C29.4401 67.1358 30.0161 66.5598 30.7201 66.5598H35.8401C36.5441 66.5598 37.1201 67.1358 37.1201 67.8398V76.7998ZM37.1201 60.1598C37.1201 60.8638 36.5441 61.4398 35.8401 61.4398H30.7201C30.0161 61.4398 29.4401 60.8638 29.4401 60.1598V51.1998C29.4401 50.4958 30.0161 49.9198 30.7201 49.9198H35.8401C36.5441 49.9198 37.1201 50.4958 37.1201 51.1998V60.1598Z" fill="#86D5F7"/>
<path d="M56.3199 57.6001H51.1999C50.4959 57.6001 49.9199 58.1761 49.9199 58.8801V67.8401C49.9199 68.5441 50.4959 69.1201 51.1999 69.1201H56.3199C57.0239 69.1201 57.5999 68.5441 57.5999 67.8401V58.8801C57.5999 58.1761 57.0239 57.6001 56.3199 57.6001ZM55.0399 66.5601H52.4799V60.1601H55.0399V66.5601Z" fill="black"/>
<path d="M67.8395 57.6001H62.7195C62.0155 57.6001 61.4395 58.1761 61.4395 58.8801V67.8401C61.4395 68.5441 62.0155 69.1201 62.7195 69.1201H67.8395C68.5435 69.1201 69.1195 68.5441 69.1195 67.8401V58.8801C69.1195 58.1761 68.5435 57.6001 67.8395 57.6001ZM66.5595 66.5601H63.9995V60.1601H66.5595V66.5601Z" fill="black"/>
<path d="M56.3199 74.2402H51.1999C50.4959 74.2402 49.9199 74.8162 49.9199 75.5202V84.4802C49.9199 85.1842 50.4959 85.7602 51.1999 85.7602H56.3199C57.0239 85.7602 57.5999 85.1842 57.5999 84.4802V75.5202C57.5999 74.8162 57.0239 74.2402 56.3199 74.2402ZM55.0399 83.2002H52.4799V76.8002H55.0399V83.2002Z" fill="black"/>
<path d="M67.8395 74.2402H62.7195C62.0155 74.2402 61.4395 74.8162 61.4395 75.5202V84.4802C61.4395 85.1842 62.0155 85.7602 62.7195 85.7602H67.8395C68.5435 85.7602 69.1195 85.1842 69.1195 84.4802V75.5202C69.1195 74.8162 68.5435 74.2402 67.8395 74.2402ZM66.5595 83.2002H63.9995V76.8002H66.5595V83.2002Z" fill="black"/>
<path d="M79.3609 40.96H74.2409C73.5369 40.96 72.9609 41.536 72.9609 42.24V51.2C72.9609 51.904 73.5369 52.48 74.2409 52.48H79.3609C80.0649 52.48 80.6409 51.904 80.6409 51.2V42.24C80.6409 41.536 80.0649 40.96 79.3609 40.96ZM78.0809 49.92H75.5209V43.52H78.0809V49.92Z" fill="black"/>
<path d="M56.3199 24.3198H51.1999C50.4959 24.3198 49.9199 24.8958 49.9199 25.5998V34.5598C49.9199 35.2638 50.4959 35.8398 51.1999 35.8398H56.3199C57.0239 35.8398 57.5999 35.2638 57.5999 34.5598V25.5998C57.5999 24.8958 57.0239 24.3198 56.3199 24.3198ZM55.0399 33.2798H52.4799V26.8798H55.0399V33.2798Z" fill="black"/>
<path d="M67.8395 24.3198H62.7195C62.0155 24.3198 61.4395 24.8958 61.4395 25.5998V34.5598C61.4395 35.2638 62.0155 35.8398 62.7195 35.8398H67.8395C68.5435 35.8398 69.1195 35.2638 69.1195 34.5598V25.5998C69.1195 24.8958 68.5435 24.3198 67.8395 24.3198ZM66.5595 33.2798H63.9995V26.8798H66.5595V33.2798Z" fill="black"/>
<path d="M79.3609 24.3198H74.2409C73.5369 24.3198 72.9609 24.8958 72.9609 25.5998V34.5598C72.9609 35.2638 73.5369 35.8398 74.2409 35.8398H79.3609C80.0649 35.8398 80.6409 35.2638 80.6409 34.5598V25.5998C80.6409 24.8958 80.0649 24.3198 79.3609 24.3198ZM78.0809 33.2798H75.5209V26.8798H78.0809V33.2798Z" fill="black"/>
<path d="M47.3594 12.7998H83.1994V15.3598H47.3594V12.7998Z" fill="#22838D"/>
<path d="M43.5195 17.9199V116.48H49.9195V94.7199C49.9195 94.0159 50.4955 93.4399 51.1995 93.4399H67.8395C68.5435 93.4399 69.1195 94.0159 69.1195 94.7199V116.48H76.7995V58.8799C76.7995 58.1759 77.3755 57.5999 78.0795 57.5999H87.0395V17.9199H43.5195ZM57.5995 84.4799C57.5995 85.1839 57.0235 85.7599 56.3195 85.7599H51.1995C50.4955 85.7599 49.9195 85.1839 49.9195 84.4799V75.5199C49.9195 74.8159 50.4955 74.2399 51.1995 74.2399H56.3195C57.0235 74.2399 57.5995 74.8159 57.5995 75.5199V84.4799ZM57.5995 67.8399C57.5995 68.5439 57.0235 69.1199 56.3195 69.1199H51.1995C50.4955 69.1199 49.9195 68.5439 49.9195 67.8399V58.8799C49.9195 58.1759 50.4955 57.5999 51.1995 57.5999H56.3195C57.0235 57.5999 57.5995 58.1759 57.5995 58.8799V67.8399ZM57.5995 51.1999C57.5995 51.9039 57.0235 52.4799 56.3195 52.4799H51.1995C50.4955 52.4799 49.9195 51.9039 49.9195 51.1999V42.2399C49.9195 41.5359 50.4955 40.9599 51.1995 40.9599H56.3195C57.0235 40.9599 57.5995 41.5359 57.5995 42.2399V51.1999ZM57.5995 34.5599C57.5995 35.2639 57.0235 35.8399 56.3195 35.8399H51.1995C50.4955 35.8399 49.9195 35.2639 49.9195 34.5599V25.5999C49.9195 24.8959 50.4955 24.3199 51.1995 24.3199H56.3195C57.0235 24.3199 57.5995 24.8959 57.5995 25.5999V34.5599ZM69.1195 84.4799C69.1195 85.1839 68.5435 85.7599 67.8395 85.7599H62.7195C62.0155 85.7599 61.4395 85.1839 61.4395 84.4799V75.5199C61.4395 74.8159 62.0155 74.2399 62.7195 74.2399H67.8395C68.5435 74.2399 69.1195 74.8159 69.1195 75.5199V84.4799ZM69.1195 67.8399C69.1195 68.5439 68.5435 69.1199 67.8395 69.1199H62.7195C62.0155 69.1199 61.4395 68.5439 61.4395 67.8399V58.8799C61.4395 58.1759 62.0155 57.5999 62.7195 57.5999H67.8395C68.5435 57.5999 69.1195 58.1759 69.1195 58.8799V67.8399ZM69.1195 51.1999C69.1195 51.9039 68.5435 52.4799 67.8395 52.4799H62.7195C62.0155 52.4799 61.4395 51.9039 61.4395 51.1999V42.2399C61.4395 41.5359 62.0155 40.9599 62.7195 40.9599H67.8395C68.5435 40.9599 69.1195 41.5359 69.1195 42.2399V51.1999ZM69.1195 34.5599C69.1195 35.2639 68.5435 35.8399 67.8395 35.8399H62.7195C62.0155 35.8399 61.4395 35.2639 61.4395 34.5599V25.5999C61.4395 24.8959 62.0155 24.3199 62.7195 24.3199H67.8395C68.5435 24.3199 69.1195 24.8959 69.1195 25.5999V34.5599ZM80.6395 51.1999C80.6395 51.9039 80.0635 52.4799 79.3595 52.4799H74.2395C73.5355 52.4799 72.9595 51.9039 72.9595 51.1999V42.2399C72.9595 41.5359 73.5355 40.9599 74.2395 40.9599H79.3595C80.0635 40.9599 80.6395 41.5359 80.6395 42.2399V51.1999ZM80.6395 34.5599C80.6395 35.2639 80.0635 35.8399 79.3595 35.8399H74.2395C73.5355 35.8399 72.9595 35.2639 72.9595 34.5599V25.5999C72.9595 24.8959 73.5355 24.3199 74.2395 24.3199H79.3595C80.0635 24.3199 80.6395 24.8959 80.6395 25.5999V34.5599Z" fill="#0A8996"/>
<path d="M108.799 84.8002V60.1602H79.3594V116.48H108.159V110.989C101.516 110.349 96.3066 104.73 96.3066 97.9202C96.3066 90.893 101.849 85.133 108.799 84.8002ZM92.1594 110.08C92.1594 110.784 91.5834 111.36 90.8794 111.36H85.7594C85.0554 111.36 84.4794 110.784 84.4794 110.08V101.12C84.4794 100.416 85.0554 99.8402 85.7594 99.8402H90.8794C91.5834 99.8402 92.1594 100.416 92.1594 101.12V110.08ZM92.1594 93.4402C92.1594 94.1442 91.5834 94.7202 90.8794 94.7202H85.7594C85.0554 94.7202 84.4794 94.1442 84.4794 93.4402V84.4802C84.4794 83.7762 85.0554 83.2002 85.7594 83.2002H90.8794C91.5834 83.2002 92.1594 83.7762 92.1594 84.4802V93.4402ZM92.1594 76.8002C92.1594 77.5042 91.5834 78.0802 90.8794 78.0802H85.7594C85.0554 78.0802 84.4794 77.5042 84.4794 76.8002V67.8402C84.4794 67.1362 85.0554 66.5602 85.7594 66.5602H90.8794C91.5834 66.5602 92.1594 67.1362 92.1594 67.8402V76.8002ZM95.9994 76.8002V67.8402C95.9994 67.1362 96.5754 66.5602 97.2794 66.5602H102.399C103.103 66.5602 103.679 67.1362 103.679 67.8402V76.8002C103.679 77.5042 103.103 78.0802 102.399 78.0802H97.2794C96.5754 78.0802 95.9994 77.5042 95.9994 76.8002Z" fill="#14335D"/>
<path d="M122.573 97.9202C122.573 91.3282 117.696 85.8626 111.36 84.9282C110.733 84.8386 110.093 84.7874 109.44 84.7874C109.223 84.7874 109.018 84.7874 108.8 84.8002C101.85 85.133 96.3076 90.893 96.3076 97.9202C96.3076 104.73 101.517 110.349 108.16 110.989V116.48H88.3204H79.3604V60.1602H108.8V80.589C108.8 81.2956 109.373 81.869 110.08 81.869C110.788 81.869 111.36 81.2956 111.36 80.589V58.8802C111.36 58.1737 110.788 57.6002 110.08 57.6002H89.6004V16.6402C89.6004 15.9362 89.0244 15.3602 88.3204 15.3602H85.7604V11.5202C85.7604 10.8162 85.1844 10.2402 84.4804 10.2402H46.0804C45.3764 10.2402 44.8004 10.8162 44.8004 11.5202V15.3602H42.2404C41.5364 15.3602 40.9604 15.9362 40.9604 16.6402V42.2402H12.8004C12.0964 42.2402 11.5204 42.8162 11.5204 43.5202V116.48H7.68039C6.97639 116.48 6.40039 117.056 6.40039 117.76V122.88C6.40039 123.584 6.97639 124.16 7.68039 124.16H115.2C115.904 124.16 116.48 123.584 116.48 122.88V117.76C116.48 117.056 115.904 116.48 115.2 116.48H110.72V110.989C117.364 110.349 122.573 104.73 122.573 97.9202ZM47.3604 12.8002H83.2004V15.3602H47.3604V12.8002ZM43.5204 17.9202H46.0804H84.4804H87.0404V57.6002H78.0804C77.3726 57.6002 76.8004 58.1737 76.8004 58.8802V116.48H69.1204V94.7202C69.1204 94.0162 68.5444 93.4402 67.8404 93.4402H51.2004C50.4964 93.4402 49.9204 94.0162 49.9204 94.7202V116.48H43.5204V17.9202ZM66.5604 116.48H52.4804V96.0002H66.5604V116.48ZM14.0804 44.8002H40.9604V116.48H14.0804V44.8002ZM113.92 119.04V121.6H8.96039V119.04H12.8004H42.2404H51.2004H67.8404H78.0804H88.3204H108.16H110.08H110.72H113.92ZM109.44 108.493C103.616 108.493 98.8676 103.744 98.8676 97.9202C98.8676 92.0962 103.616 87.3474 109.44 87.3474C115.264 87.3474 120.013 92.0962 120.013 97.9202C120.013 103.744 115.264 108.493 109.44 108.493Z" fill="black"/>
<path opacity="0.1" d="M96.3074 97.9202C96.3074 104.73 101.517 110.349 108.16 110.989V116.48H92.1602V60.1602H108.8V84.8002C101.85 85.133 96.3074 90.893 96.3074 97.9202Z" fill="#221F1F"/>
<path d="M120.013 97.92C120.013 103.744 115.264 108.493 109.44 108.493C104.973 108.493 101.146 105.702 99.5968 101.786C99.1232 100.595 98.8672 99.2896 98.8672 97.92C98.8672 92.096 103.616 87.3472 109.44 87.3472C110.554 87.3472 111.629 87.5264 112.64 87.8464C116.902 89.2032 120.013 93.2096 120.013 97.92Z" fill="#76C043"/>
<path opacity="0.1" d="M40.9591 116.48C40.9463 107.469 40.9591 53.811 40.9591 44.7998H37.1191V51.1998V60.1598V67.8398V76.7998V84.4798V93.4398V101.12V110.08V116.48H40.9591Z" fill="#221F1F"/>
<path opacity="0.1" d="M120.012 97.9198C120.012 103.744 115.263 108.493 109.439 108.493C104.972 108.493 101.145 105.702 99.5957 101.785C100.057 101.849 100.517 101.875 100.991 101.875C107.532 101.875 112.844 96.5758 112.844 90.0222C112.844 89.2798 112.767 88.5502 112.639 87.8462C116.901 89.203 120.012 93.2094 120.012 97.9198Z" fill="#221F1F"/>
</svg>
