<svg width="137" height="137" viewBox="0 0 137 137" fill="none" xmlns="http://www.w3.org/2000/svg">
<circle cx="68.5" cy="68.5" r="68.5" fill="#14335D"/>
<path d="M16.7058 90.8667C15.9963 90.8667 15.4102 90.6201 14.9475 90.1422C14.4848 89.6644 14.2534 89.0632 14.2534 88.3541V55.6286C14.2534 54.8887 14.4848 54.2875 14.9475 53.8097C15.4102 53.3472 15.9963 53.1006 16.7058 53.1006C17.4769 53.1006 18.1247 53.4089 18.6337 54.0255L39.7178 82.0649V55.6286C39.7178 54.8887 39.9645 54.2875 40.4427 53.8097C40.9208 53.3472 41.5223 53.1006 42.2318 53.1006C42.9413 53.1006 43.5736 53.3318 44.0209 53.8097C44.4682 54.2721 44.6995 54.8887 44.6995 55.6286V88.3541C44.6995 89.0632 44.4682 89.6644 44.0209 90.1422C43.5736 90.6201 42.9721 90.8667 42.2318 90.8667C41.9079 90.8667 41.5686 90.7896 41.1984 90.6509C40.8282 90.5122 40.5352 90.281 40.3039 90.0035L19.2198 61.9641V88.3541C19.2198 89.0632 18.9885 89.6644 18.5103 90.1422C18.0476 90.6201 17.4307 90.8667 16.6903 90.8667H16.7058Z" fill="white"/>
<path d="M55.9281 90.8667C55.2186 90.8667 54.6171 90.6201 54.1389 90.1422C53.6608 89.6644 53.4141 89.0632 53.4141 88.3541V55.6286C53.4141 54.8887 53.6608 54.2875 54.1389 53.8097C54.6171 53.3472 55.2186 53.1006 55.9281 53.1006H77.7833C78.5236 53.1006 79.1251 53.3164 79.5724 53.748C80.0197 54.1796 80.2511 54.75 80.2511 55.459C80.2511 56.1681 80.0197 56.6768 79.5724 57.1084C79.1251 57.5246 78.5236 57.7404 77.7833 57.7404H58.4421V69.4865H72.3233C73.0637 69.4865 73.6652 69.7023 74.1125 70.1339C74.5598 70.5655 74.7911 71.1204 74.7911 71.7987C74.7911 72.4769 74.5598 73.0318 74.1125 73.4635C73.6652 73.8951 73.0637 74.1109 72.3233 74.1109H58.4421V86.196H77.7833C78.5236 86.196 79.1251 86.4119 79.5724 86.8281C80.0197 87.2443 80.2511 87.7992 80.2511 88.4774C80.2511 89.1557 80.0197 89.7568 79.5724 90.1885C79.1251 90.6201 78.5236 90.8359 77.7833 90.8359H55.9281V90.8667Z" fill="white"/>
<path d="M94.317 90.8669C93.7309 90.8669 93.2219 90.6974 92.7746 90.3428C92.3273 89.9883 92.0034 89.5104 91.8029 88.8938L82.0861 56.6C81.7622 55.5363 81.793 54.6885 82.1632 54.0565C82.5334 53.4245 83.1349 53.1162 83.9832 53.1162C84.523 53.1162 85.032 53.2704 85.4792 53.5787C85.9265 53.887 86.2504 54.3648 86.4509 55.0122L94.9185 84.5006H93.8542L101.689 55.3051C101.813 54.8272 102.106 54.4265 102.553 54.1028C103 53.779 103.525 53.6249 104.096 53.6249C104.604 53.6249 105.098 53.7636 105.576 54.0411C106.039 54.3186 106.347 54.7194 106.471 55.2743L114.352 84.5161H113.38L121.894 54.7964C122.218 53.702 123.036 53.147 124.362 53.147C125.257 53.147 125.843 53.5016 126.105 54.1798C126.367 54.8735 126.367 55.6905 126.105 56.6154L116.388 88.8476C116.157 89.4642 115.833 89.9575 115.401 90.3274C114.969 90.6974 114.46 90.8823 113.874 90.8823C113.257 90.8823 112.733 90.6974 112.301 90.2966C111.869 89.8958 111.545 89.4488 111.36 88.8938L103.571 58.8351H104.728L96.8464 88.8476C96.6151 89.4642 96.2912 89.9575 95.8593 90.3274C95.4275 90.6974 94.9185 90.8823 94.3324 90.8823L94.317 90.8669Z" fill="white"/>
</svg>
