<svg width="350" height="234" viewBox="0 0 350 234" fill="none" xmlns="http://www.w3.org/2000/svg">
<rect width="350" height="234" rx="28" fill="#0A8996"/>
<path d="M51.4538 203V186.273H58.0533C59.322 186.273 60.4028 186.515 61.2958 187C62.1888 187.479 62.8694 188.146 63.3377 189.001C63.8114 189.85 64.0483 190.83 64.0483 191.941C64.0483 193.052 63.8087 194.032 63.3295 194.881C62.8504 195.731 62.1561 196.392 61.2468 196.866C60.3429 197.34 59.2485 197.577 57.9634 197.577H53.7571V194.743H57.3917C58.0723 194.743 58.6332 194.625 59.0742 194.391C59.5207 194.152 59.8529 193.822 60.0707 193.403C60.2939 192.978 60.4055 192.491 60.4055 191.941C60.4055 191.386 60.2939 190.901 60.0707 190.487C59.8529 190.068 59.5207 189.744 59.0742 189.515C58.6277 189.281 58.0614 189.164 57.3754 189.164H54.9904V203H51.4538ZM66.2801 203V190.455H69.6533V192.643H69.784C70.0127 191.865 70.3966 191.277 70.9356 190.879C71.4747 190.476 72.0954 190.275 72.7979 190.275C72.9721 190.275 73.1599 190.286 73.3614 190.308C73.5629 190.329 73.7399 190.359 73.8923 190.397V193.485C73.729 193.436 73.503 193.392 73.2144 193.354C72.9258 193.316 72.6617 193.297 72.4221 193.297C71.9103 193.297 71.4529 193.408 71.05 193.632C70.6525 193.85 70.3367 194.154 70.1025 194.547C69.8738 194.939 69.7595 195.391 69.7595 195.902V203H66.2801ZM80.7756 203.245C79.5069 203.245 78.4097 202.975 77.484 202.436C76.5638 201.892 75.8532 201.135 75.3523 200.166C74.8513 199.191 74.6009 198.061 74.6009 196.776C74.6009 195.48 74.8513 194.348 75.3523 193.379C75.8532 192.404 76.5638 191.647 77.484 191.108C78.4097 190.563 79.5069 190.291 80.7756 190.291C82.0443 190.291 83.1387 190.563 84.0589 191.108C84.9846 191.647 85.6979 192.404 86.1989 193.379C86.6998 194.348 86.9503 195.48 86.9503 196.776C86.9503 198.061 86.6998 199.191 86.1989 200.166C85.6979 201.135 84.9846 201.892 84.0589 202.436C83.1387 202.975 82.0443 203.245 80.7756 203.245ZM80.7919 200.55C81.3691 200.55 81.851 200.386 82.2376 200.06C82.6242 199.728 82.9155 199.276 83.1115 198.704C83.313 198.132 83.4137 197.481 83.4137 196.752C83.4137 196.022 83.313 195.371 83.1115 194.8C82.9155 194.228 82.6242 193.776 82.2376 193.444C81.851 193.112 81.3691 192.946 80.7919 192.946C80.2093 192.946 79.7192 193.112 79.3217 193.444C78.9297 193.776 78.6329 194.228 78.4315 194.8C78.2354 195.371 78.1374 196.022 78.1374 196.752C78.1374 197.481 78.2354 198.132 78.4315 198.704C78.6329 199.276 78.9297 199.728 79.3217 200.06C79.7192 200.386 80.2093 200.55 80.7919 200.55ZM94.8647 207.966C93.7376 207.966 92.7711 207.811 91.9652 207.5C91.1648 207.195 90.5277 206.779 90.054 206.251C89.5803 205.723 89.2726 205.129 89.131 204.47L92.3491 204.037C92.4471 204.288 92.6023 204.522 92.8146 204.74C93.027 204.958 93.3074 205.132 93.6559 205.262C94.0098 205.399 94.44 205.467 94.9464 205.467C95.7032 205.467 96.3267 205.281 96.8168 204.911C97.3123 204.546 97.56 203.934 97.56 203.074V200.778H97.413C97.2605 201.127 97.0318 201.456 96.7269 201.767C96.422 202.077 96.0299 202.33 95.5508 202.526C95.0716 202.722 94.4999 202.82 93.8356 202.82C92.8936 202.82 92.036 202.603 91.2628 202.167C90.495 201.726 89.8825 201.053 89.4251 200.15C88.9731 199.24 88.7472 198.091 88.7472 196.703C88.7472 195.282 88.9786 194.095 89.4414 193.142C89.9042 192.189 90.5195 191.475 91.2873 191.002C92.0605 190.528 92.9072 190.291 93.8274 190.291C94.5298 190.291 95.1179 190.411 95.5916 190.651C96.0653 190.885 96.4465 191.179 96.7351 191.533C97.0291 191.881 97.2551 192.224 97.413 192.562H97.5437V190.455H100.999V203.123C100.999 204.19 100.737 205.083 100.214 205.801C99.6918 206.52 98.9676 207.059 98.0419 207.419C97.1217 207.783 96.0626 207.966 94.8647 207.966ZM94.9382 200.207C95.4991 200.207 95.9728 200.068 96.3594 199.79C96.7514 199.507 97.0509 199.104 97.2578 198.581C97.4702 198.053 97.5763 197.422 97.5763 196.686C97.5763 195.951 97.4729 195.314 97.266 194.775C97.0591 194.231 96.7596 193.809 96.3675 193.509C95.9755 193.21 95.4991 193.06 94.9382 193.06C94.3665 193.06 93.8846 193.215 93.4925 193.526C93.1005 193.83 92.8037 194.255 92.6023 194.8C92.4008 195.344 92.3001 195.973 92.3001 196.686C92.3001 197.411 92.4008 198.037 92.6023 198.565C92.8092 199.088 93.1059 199.493 93.4925 199.782C93.8846 200.065 94.3665 200.207 94.9382 200.207ZM103.767 203V190.455H107.141V192.643H107.271C107.5 191.865 107.884 191.277 108.423 190.879C108.962 190.476 109.583 190.275 110.285 190.275C110.459 190.275 110.647 190.286 110.849 190.308C111.05 190.329 111.227 190.359 111.38 190.397V193.485C111.216 193.436 110.99 193.392 110.702 193.354C110.413 193.316 110.149 193.297 109.909 193.297C109.398 193.297 108.94 193.408 108.537 193.632C108.14 193.85 107.824 194.154 107.59 194.547C107.361 194.939 107.247 195.391 107.247 195.902V203H103.767ZM116.397 203.237C115.596 203.237 114.883 203.098 114.257 202.82C113.63 202.537 113.135 202.121 112.77 201.571C112.411 201.015 112.231 200.324 112.231 199.496C112.231 198.799 112.359 198.214 112.615 197.74C112.871 197.266 113.219 196.885 113.66 196.597C114.101 196.308 114.602 196.09 115.163 195.943C115.73 195.796 116.323 195.693 116.944 195.633C117.673 195.557 118.262 195.486 118.708 195.42C119.155 195.35 119.478 195.246 119.68 195.11C119.881 194.974 119.982 194.772 119.982 194.506V194.457C119.982 193.939 119.819 193.539 119.492 193.256C119.171 192.973 118.713 192.831 118.12 192.831C117.494 192.831 116.996 192.97 116.625 193.248C116.255 193.52 116.01 193.863 115.89 194.277L112.672 194.016C112.835 193.253 113.157 192.594 113.636 192.039C114.115 191.478 114.733 191.048 115.49 190.749C116.252 190.444 117.134 190.291 118.136 190.291C118.833 190.291 119.5 190.373 120.137 190.536C120.78 190.7 121.349 190.953 121.844 191.296C122.345 191.639 122.74 192.08 123.029 192.619C123.317 193.153 123.462 193.792 123.462 194.538V203H120.162V201.26H120.064C119.862 201.652 119.593 201.998 119.255 202.298C118.918 202.592 118.512 202.823 118.038 202.992C117.565 203.155 117.017 203.237 116.397 203.237ZM117.393 200.836C117.905 200.836 118.357 200.735 118.749 200.533C119.141 200.326 119.449 200.049 119.672 199.7C119.895 199.352 120.007 198.957 120.007 198.516V197.185C119.898 197.255 119.748 197.321 119.557 197.381C119.372 197.435 119.163 197.487 118.929 197.536C118.694 197.579 118.46 197.62 118.226 197.658C117.992 197.691 117.78 197.721 117.589 197.748C117.181 197.808 116.824 197.903 116.519 198.034C116.214 198.165 115.977 198.342 115.809 198.565C115.64 198.783 115.555 199.055 115.555 199.382C115.555 199.855 115.727 200.218 116.07 200.468C116.418 200.713 116.859 200.836 117.393 200.836ZM126.161 203V190.455H129.477V192.668H129.624C129.885 191.933 130.321 191.353 130.931 190.928C131.541 190.504 132.27 190.291 133.12 190.291C133.98 190.291 134.712 190.506 135.317 190.936C135.921 191.361 136.324 191.938 136.526 192.668H136.656C136.912 191.949 137.375 191.375 138.045 190.945C138.72 190.509 139.518 190.291 140.438 190.291C141.609 190.291 142.559 190.664 143.288 191.41C144.024 192.151 144.391 193.202 144.391 194.563V203H140.92V195.249C140.92 194.552 140.735 194.029 140.364 193.681C139.994 193.332 139.531 193.158 138.976 193.158C138.344 193.158 137.852 193.359 137.498 193.762C137.144 194.16 136.967 194.685 136.967 195.339V203H133.593V195.175C133.593 194.56 133.417 194.07 133.063 193.705C132.714 193.34 132.254 193.158 131.682 193.158C131.296 193.158 130.947 193.256 130.637 193.452C130.332 193.643 130.09 193.912 129.91 194.261C129.73 194.604 129.64 195.007 129.64 195.469V203H126.161ZM152.528 186.273H156.89L161.496 197.511H161.692L166.299 186.273H170.66V203H167.23V192.113H167.091L162.762 202.918H160.426L156.097 192.072H155.958V203H152.528V186.273ZM177.086 203.237C176.286 203.237 175.572 203.098 174.946 202.82C174.32 202.537 173.824 202.121 173.46 201.571C173.1 201.015 172.921 200.324 172.921 199.496C172.921 198.799 173.049 198.214 173.304 197.74C173.56 197.266 173.909 196.885 174.35 196.597C174.791 196.308 175.292 196.09 175.853 195.943C176.419 195.796 177.013 195.693 177.633 195.633C178.363 195.557 178.951 195.486 179.397 195.42C179.844 195.35 180.168 195.246 180.369 195.11C180.571 194.974 180.672 194.772 180.672 194.506V194.457C180.672 193.939 180.508 193.539 180.182 193.256C179.86 192.973 179.403 192.831 178.809 192.831C178.183 192.831 177.685 192.97 177.315 193.248C176.944 193.52 176.699 193.863 176.58 194.277L173.362 194.016C173.525 193.253 173.846 192.594 174.325 192.039C174.805 191.478 175.423 191.048 176.179 190.749C176.942 190.444 177.824 190.291 178.826 190.291C179.523 190.291 180.19 190.373 180.827 190.536C181.469 190.7 182.038 190.953 182.534 191.296C183.035 191.639 183.43 192.08 183.718 192.619C184.007 193.153 184.151 193.792 184.151 194.538V203H180.851V201.26H180.753C180.552 201.652 180.282 201.998 179.945 202.298C179.607 202.592 179.201 202.823 178.728 202.992C178.254 203.155 177.707 203.237 177.086 203.237ZM178.082 200.836C178.594 200.836 179.046 200.735 179.438 200.533C179.83 200.326 180.138 200.049 180.361 199.7C180.584 199.352 180.696 198.957 180.696 198.516V197.185C180.587 197.255 180.437 197.321 180.247 197.381C180.062 197.435 179.852 197.487 179.618 197.536C179.384 197.579 179.15 197.62 178.916 197.658C178.681 197.691 178.469 197.721 178.278 197.748C177.87 197.808 177.513 197.903 177.209 198.034C176.904 198.165 176.667 198.342 176.498 198.565C176.329 198.783 176.245 199.055 176.245 199.382C176.245 199.855 176.416 200.218 176.759 200.468C177.108 200.713 177.549 200.836 178.082 200.836ZM190.33 195.747V203H186.85V190.455H190.166V192.668H190.313C190.591 191.938 191.057 191.361 191.71 190.936C192.364 190.506 193.156 190.291 194.087 190.291C194.958 190.291 195.718 190.482 196.366 190.863C197.014 191.244 197.517 191.789 197.877 192.496C198.236 193.199 198.416 194.037 198.416 195.012V203H194.936V195.633C194.942 194.865 194.746 194.266 194.348 193.836C193.951 193.4 193.404 193.183 192.707 193.183C192.238 193.183 191.824 193.283 191.465 193.485C191.111 193.686 190.833 193.98 190.632 194.367C190.436 194.748 190.335 195.208 190.33 195.747ZM204.735 203.237C203.935 203.237 203.222 203.098 202.596 202.82C201.969 202.537 201.474 202.121 201.109 201.571C200.75 201.015 200.57 200.324 200.57 199.496C200.57 198.799 200.698 198.214 200.954 197.74C201.21 197.266 201.558 196.885 201.999 196.597C202.44 196.308 202.941 196.09 203.502 195.943C204.068 195.796 204.662 195.693 205.283 195.633C206.012 195.557 206.6 195.486 207.047 195.42C207.493 195.35 207.817 195.246 208.019 195.11C208.22 194.974 208.321 194.772 208.321 194.506V194.457C208.321 193.939 208.158 193.539 207.831 193.256C207.51 192.973 207.052 192.831 206.459 192.831C205.833 192.831 205.334 192.97 204.964 193.248C204.594 193.52 204.349 193.863 204.229 194.277L201.011 194.016C201.174 193.253 201.496 192.594 201.975 192.039C202.454 191.478 203.072 191.048 203.829 190.749C204.591 190.444 205.473 190.291 206.475 190.291C207.172 190.291 207.839 190.373 208.476 190.536C209.119 190.7 209.688 190.953 210.183 191.296C210.684 191.639 211.079 192.08 211.368 192.619C211.656 193.153 211.8 193.792 211.8 194.538V203H208.501V201.26H208.403C208.201 201.652 207.932 201.998 207.594 202.298C207.257 202.592 206.851 202.823 206.377 202.992C205.903 203.155 205.356 203.237 204.735 203.237ZM205.732 200.836C206.244 200.836 206.696 200.735 207.088 200.533C207.48 200.326 207.787 200.049 208.011 199.7C208.234 199.352 208.346 198.957 208.346 198.516V197.185C208.237 197.255 208.087 197.321 207.896 197.381C207.711 197.435 207.502 197.487 207.267 197.536C207.033 197.579 206.799 197.62 206.565 197.658C206.331 197.691 206.118 197.721 205.928 197.748C205.52 197.808 205.163 197.903 204.858 198.034C204.553 198.165 204.316 198.342 204.147 198.565C203.979 198.783 203.894 199.055 203.894 199.382C203.894 199.855 204.066 200.218 204.409 200.468C204.757 200.713 205.198 200.836 205.732 200.836ZM220.152 207.966C219.025 207.966 218.058 207.811 217.252 207.5C216.452 207.195 215.815 206.779 215.341 206.251C214.867 205.723 214.56 205.129 214.418 204.47L217.636 204.037C217.734 204.288 217.889 204.522 218.102 204.74C218.314 204.958 218.595 205.132 218.943 205.262C219.297 205.399 219.727 205.467 220.233 205.467C220.99 205.467 221.614 205.281 222.104 204.911C222.599 204.546 222.847 203.934 222.847 203.074V200.778H222.7C222.548 201.127 222.319 201.456 222.014 201.767C221.709 202.077 221.317 202.33 220.838 202.526C220.359 202.722 219.787 202.82 219.123 202.82C218.181 202.82 217.323 202.603 216.55 202.167C215.782 201.726 215.17 201.053 214.712 200.15C214.26 199.24 214.034 198.091 214.034 196.703C214.034 195.282 214.266 194.095 214.729 193.142C215.191 192.189 215.807 191.475 216.574 191.002C217.348 190.528 218.194 190.291 219.115 190.291C219.817 190.291 220.405 190.411 220.879 190.651C221.352 190.885 221.734 191.179 222.022 191.533C222.316 191.881 222.542 192.224 222.7 192.562H222.831V190.455H226.286V203.123C226.286 204.19 226.024 205.083 225.502 205.801C224.979 206.52 224.255 207.059 223.329 207.419C222.409 207.783 221.35 207.966 220.152 207.966ZM220.225 200.207C220.786 200.207 221.26 200.068 221.646 199.79C222.039 199.507 222.338 199.104 222.545 198.581C222.757 198.053 222.863 197.422 222.863 196.686C222.863 195.951 222.76 195.314 222.553 194.775C222.346 194.231 222.047 193.809 221.655 193.509C221.263 193.21 220.786 193.06 220.225 193.06C219.654 193.06 219.172 193.215 218.78 193.526C218.388 193.83 218.091 194.255 217.889 194.8C217.688 195.344 217.587 195.973 217.587 196.686C217.587 197.411 217.688 198.037 217.889 198.565C218.096 199.088 218.393 199.493 218.78 199.782C219.172 200.065 219.654 200.207 220.225 200.207ZM234.772 203.245C233.481 203.245 232.371 202.984 231.439 202.461C230.514 201.933 229.8 201.187 229.3 200.223C228.799 199.254 228.548 198.108 228.548 196.784C228.548 195.494 228.799 194.361 229.3 193.387C229.8 192.412 230.506 191.652 231.415 191.108C232.33 190.563 233.402 190.291 234.633 190.291C235.461 190.291 236.231 190.425 236.944 190.691C237.663 190.953 238.289 191.348 238.823 191.876C239.362 192.404 239.781 193.068 240.081 193.869C240.38 194.664 240.53 195.595 240.53 196.662V197.618H229.937V195.461H237.255C237.255 194.96 237.146 194.517 236.928 194.13C236.71 193.743 236.408 193.441 236.021 193.223C235.64 193 235.197 192.888 234.69 192.888C234.162 192.888 233.694 193.011 233.285 193.256C232.882 193.496 232.567 193.82 232.338 194.228C232.109 194.631 231.992 195.08 231.987 195.576V197.626C231.987 198.246 232.101 198.783 232.33 199.235C232.564 199.687 232.893 200.035 233.318 200.28C233.743 200.525 234.246 200.648 234.829 200.648C235.216 200.648 235.57 200.593 235.891 200.484C236.212 200.375 236.487 200.212 236.716 199.994C236.944 199.777 237.119 199.51 237.238 199.194L240.456 199.406C240.293 200.179 239.958 200.855 239.452 201.432C238.951 202.004 238.303 202.45 237.508 202.771C236.718 203.087 235.806 203.245 234.772 203.245ZM242.801 203V190.455H246.117V192.668H246.264C246.525 191.933 246.961 191.353 247.57 190.928C248.18 190.504 248.91 190.291 249.759 190.291C250.62 190.291 251.352 190.506 251.956 190.936C252.561 191.361 252.964 191.938 253.165 192.668H253.296C253.552 191.949 254.015 191.375 254.684 190.945C255.36 190.509 256.157 190.291 257.078 190.291C258.248 190.291 259.198 190.664 259.928 191.41C260.663 192.151 261.031 193.202 261.031 194.563V203H257.559V195.249C257.559 194.552 257.374 194.029 257.004 193.681C256.634 193.332 256.171 193.158 255.616 193.158C254.984 193.158 254.491 193.359 254.137 193.762C253.783 194.16 253.606 194.685 253.606 195.339V203H250.233V195.175C250.233 194.56 250.056 194.07 249.702 193.705C249.354 193.34 248.894 193.158 248.322 193.158C247.935 193.158 247.587 193.256 247.276 193.452C246.972 193.643 246.729 193.912 246.55 194.261C246.37 194.604 246.28 195.007 246.28 195.469V203H242.801ZM269.496 203.245C268.206 203.245 267.095 202.984 266.164 202.461C265.238 201.933 264.525 201.187 264.024 200.223C263.523 199.254 263.273 198.108 263.273 196.784C263.273 195.494 263.523 194.361 264.024 193.387C264.525 192.412 265.23 191.652 266.14 191.108C267.054 190.563 268.127 190.291 269.358 190.291C270.185 190.291 270.956 190.425 271.669 190.691C272.388 190.953 273.014 191.348 273.548 191.876C274.087 192.404 274.506 193.068 274.805 193.869C275.105 194.664 275.255 195.595 275.255 196.662V197.618H264.661V195.461H271.979C271.979 194.96 271.871 194.517 271.653 194.13C271.435 193.743 271.133 193.441 270.746 193.223C270.365 193 269.921 192.888 269.415 192.888C268.887 192.888 268.418 193.011 268.01 193.256C267.607 193.496 267.291 193.82 267.062 194.228C266.834 194.631 266.717 195.08 266.711 195.576V197.626C266.711 198.246 266.826 198.783 267.054 199.235C267.288 199.687 267.618 200.035 268.043 200.28C268.467 200.525 268.971 200.648 269.554 200.648C269.94 200.648 270.294 200.593 270.615 200.484C270.937 200.375 271.212 200.212 271.44 199.994C271.669 199.777 271.843 199.51 271.963 199.194L275.181 199.406C275.018 200.179 274.683 200.855 274.176 201.432C273.676 202.004 273.028 202.45 272.233 202.771C271.443 203.087 270.531 203.245 269.496 203.245ZM281.005 195.747V203H277.525V190.455H280.841V192.668H280.988C281.266 191.938 281.732 191.361 282.385 190.936C283.038 190.506 283.831 190.291 284.762 190.291C285.633 190.291 286.393 190.482 287.04 190.863C287.688 191.244 288.192 191.789 288.551 192.496C288.911 193.199 289.091 194.037 289.091 195.012V203H285.611V195.633C285.617 194.865 285.421 194.266 285.023 193.836C284.626 193.4 284.078 193.183 283.381 193.183C282.913 193.183 282.499 193.283 282.14 193.485C281.786 193.686 281.508 193.98 281.307 194.367C281.111 194.748 281.01 195.208 281.005 195.747ZM298.506 190.455V193.068H290.951V190.455H298.506ZM292.666 187.449H296.145V199.145C296.145 199.466 296.194 199.717 296.292 199.896C296.39 200.071 296.526 200.193 296.701 200.264C296.88 200.335 297.087 200.37 297.321 200.37C297.485 200.37 297.648 200.356 297.812 200.329C297.975 200.297 298.1 200.272 298.187 200.256L298.734 202.845C298.56 202.899 298.315 202.962 297.999 203.033C297.684 203.109 297.3 203.155 296.848 203.172C296.009 203.204 295.274 203.093 294.642 202.837C294.016 202.581 293.529 202.183 293.18 201.644C292.832 201.105 292.66 200.424 292.666 199.602V187.449Z" fill="white"/>
<circle cx="175.5" cy="93.5" r="70.5" fill="white"/>
<g clip-path="url(#clip0_127_2)">
<path d="M214.974 72.7479V126.801H134.024V72.7479C134.024 69.9718 136.276 67.7199 139.054 67.7199H209.944C212.722 67.7199 214.974 69.9718 214.974 72.7479Z" fill="#DFEAEF"/>
<path d="M134.024 118.773H214.974V126.801H134.024V118.773Z" fill="#B4D0D5"/>
<path d="M208.753 73.9403V115.749H140.245V73.9403H208.753Z" fill="#6EC17D"/>
<path d="M218.665 121.97H130.333V124.924C130.333 128.963 133.607 132.236 137.645 132.236H211.353C215.392 132.236 218.665 128.963 218.665 124.924V121.97H218.665Z" fill="#DFEAEF"/>
<path d="M179.289 127.103H169.709C166.957 127.103 164.726 124.872 164.726 122.12V121.97H184.272V122.12C184.272 124.872 182.041 127.103 179.289 127.103Z" fill="#B4D0D5"/>
<path d="M145.636 132.236H137.645C133.605 132.236 130.331 128.962 130.331 124.924V121.971H138.322V124.924C138.322 128.962 141.596 132.236 145.636 132.236Z" fill="#B4D0D5"/>
<path d="M194.147 72.7924V80.3015C194.147 84.7856 191.469 88.8575 187.326 90.5779C179.125 93.9868 169.873 93.9868 161.672 90.5779C157.529 88.8575 154.851 84.7856 154.851 80.3015V72.7924H194.147Z" fill="#665E66"/>
<path d="M179.649 92.736C173.621 93.6745 167.391 92.9564 161.672 90.5784C157.529 88.858 154.85 84.7861 154.85 80.302V72.7928H165.15V80.302C165.15 84.7861 167.828 88.858 171.971 90.5784C174.454 91.611 177.033 92.3308 179.649 92.736Z" fill="#454045"/>
<path d="M194.147 72.7924V75.8031L178.064 84.3235C175.834 85.5037 173.164 85.5037 170.934 84.3235L154.851 75.8031V72.7924H194.147Z" fill="#454045"/>
<path d="M203.84 60.4441L178.064 46.7892C175.834 45.608 173.164 45.608 170.934 46.7892L145.158 60.4441C142.264 61.9774 142.264 66.124 145.158 67.6573L170.934 81.3122C173.164 82.4934 175.834 82.4934 178.064 81.3122L203.84 67.6573C206.734 66.124 206.734 61.9776 203.84 60.4441Z" fill="#665E66"/>
<path d="M185.966 94.8453L183.073 99.8552C182.029 101.663 183.334 103.923 185.421 103.923H186.509C188.597 103.923 189.902 101.663 188.858 99.8552L185.966 94.8453Z" fill="#F4DD45"/>
<path d="M218.665 120.637H216.307V72.7479C216.307 69.2404 213.452 66.3869 209.944 66.3869H206.813C207.155 65.6706 207.344 64.8762 207.344 64.0506C207.344 62.0405 206.241 60.207 204.465 59.2656L187.035 50.0324C186.384 49.6876 185.577 49.9357 185.233 50.5864C184.888 51.2369 185.136 52.0436 185.787 52.3883L203.217 61.6212C204.132 62.1062 204.678 63.0144 204.678 64.0506C204.678 65.0868 204.132 65.9948 203.217 66.4797L186.273 75.4554L175.502 63.1717C175.016 62.6181 174.174 62.563 173.62 63.0484C173.067 63.5338 173.012 64.376 173.497 64.9295L183.852 76.7381L177.441 80.1344C175.599 81.1089 173.4 81.1089 171.558 80.1347L145.782 66.48C144.867 65.995 144.32 65.0868 144.32 64.0508C144.32 63.0148 144.867 62.1066 145.781 61.6216L171.557 47.9668C173.399 46.9922 175.599 46.9922 177.44 47.9665L181.13 49.9215C181.78 50.2663 182.587 50.0184 182.932 49.3679C183.277 48.7174 183.029 47.9105 182.378 47.5659L178.688 45.6105C176.065 44.2226 172.933 44.2226 170.31 45.6107L144.533 59.2659C142.757 60.2072 141.654 62.0407 141.654 64.0508C141.654 64.8764 141.843 65.6706 142.186 66.3871H139.054C135.546 66.3871 132.691 69.2405 132.691 72.7481V120.637H130.333C129.597 120.637 129 121.234 129 121.97V124.924C129 129.691 132.878 133.57 137.645 133.57H211.353C216.12 133.57 219.998 129.691 219.998 124.924V121.97C219.998 121.234 219.401 120.637 218.665 120.637ZM185.966 97.5112L187.704 100.522C188.063 101.144 187.823 101.693 187.704 101.9C187.584 102.108 187.228 102.59 186.51 102.59H185.422C184.703 102.59 184.347 102.108 184.227 101.9C184.108 101.693 183.868 101.144 184.227 100.522L185.966 97.5112ZM187.299 77.9295L192.814 75.0076V80.3009C192.814 84.1026 190.666 87.5108 187.299 89.1292V77.9295ZM174.499 83.5317C175.938 83.5317 177.377 83.1846 178.688 82.4907L184.633 79.3419V90.1605C177.35 92.5731 169.292 92.3022 162.183 89.3476C158.539 87.833 156.184 84.2819 156.184 80.3011V75.0074L170.311 82.4909C171.622 83.185 173.06 83.5317 174.499 83.5317ZM135.357 72.7479C135.357 70.7104 137.016 69.0529 139.054 69.0529H144.944L151.654 72.6075H140.245C139.509 72.6075 138.912 73.2043 138.912 73.9405V115.75C138.912 116.486 139.509 117.083 140.245 117.083H147.281C148.018 117.083 148.614 116.486 148.614 115.75C148.614 115.014 148.018 114.417 147.281 114.417H141.578V75.2734H153.518V80.3009C153.518 85.3625 156.518 89.8797 161.16 91.8094C165.399 93.571 169.949 94.4519 174.499 94.4519C177.921 94.4519 181.343 93.9533 184.633 92.957V94.4879L181.919 99.1886C181.188 100.455 181.188 101.967 181.919 103.233C182.65 104.5 183.959 105.256 185.422 105.256H186.51C187.972 105.256 189.281 104.5 190.013 103.233C190.744 101.967 190.744 100.455 190.013 99.1886L187.299 94.4879V92.0257C187.479 91.9544 187.659 91.8838 187.838 91.8094C192.481 89.8797 195.48 85.3625 195.48 80.3009V75.2734H207.42V114.417H152.613C151.877 114.417 151.28 115.014 151.28 115.75C151.28 116.486 151.877 117.083 152.613 117.083H208.753C209.489 117.083 210.086 116.486 210.086 115.75V73.9405C210.086 73.2043 209.489 72.6075 208.753 72.6075H197.345L204.054 69.0529H209.944C211.982 69.0529 213.641 70.7104 213.641 72.7479V120.637H135.357V72.7479ZM182.742 123.303C182.25 124.737 180.888 125.77 179.29 125.77H169.709C168.11 125.77 166.749 124.737 166.256 123.303H182.742ZM217.332 124.924C217.332 128.221 214.65 130.903 211.353 130.903H137.645C134.348 130.903 131.666 128.221 131.666 124.924V123.303H134.011C134.015 123.303 134.02 123.303 134.024 123.303H163.506C164.062 126.222 166.631 128.436 169.709 128.436H179.29C182.367 128.436 184.937 126.222 185.492 123.303H214.974C214.978 123.303 214.983 123.303 214.988 123.303H217.332V124.924Z" fill="black"/>
<path d="M174.902 109.529C174.902 108.793 174.305 108.196 173.569 108.196H146.884C146.148 108.196 145.551 108.793 145.551 109.529C145.551 110.265 146.148 110.862 146.884 110.862H173.569C174.305 110.862 174.902 110.265 174.902 109.529Z" fill="black"/>
<path d="M146.884 105.256H164.726C165.462 105.256 166.059 104.659 166.059 103.923C166.059 103.187 165.462 102.59 164.726 102.59H146.884C146.148 102.59 145.551 103.187 145.551 103.923C145.551 104.659 146.147 105.256 146.884 105.256Z" fill="black"/>
</g>
<defs>
<clipPath id="clip0_127_2">
<rect width="91" height="92" fill="white" transform="translate(129 42)"/>
</clipPath>
</defs>
</svg>
