<svg width="350" height="234" viewBox="0 0 350 234" fill="none" xmlns="http://www.w3.org/2000/svg">
<rect width="350" height="234" rx="28" fill="#0A8996"/>
<path d="M81.2127 192.129H77.6353C77.57 191.666 77.4366 191.255 77.2351 190.896C77.0336 190.531 76.775 190.22 76.4592 189.964C76.1433 189.709 75.7785 189.513 75.3647 189.376C74.9563 189.24 74.5125 189.172 74.0334 189.172C73.1676 189.172 72.4135 189.387 71.771 189.817C71.1284 190.242 70.6302 190.863 70.2763 191.68C69.9223 192.491 69.7454 193.477 69.7454 194.636C69.7454 195.829 69.9223 196.831 70.2763 197.642C70.6357 198.453 71.1366 199.066 71.7791 199.48C72.4216 199.894 73.1649 200.1 74.0089 200.1C74.4826 200.1 74.9209 200.038 75.3239 199.913C75.7322 199.787 76.0943 199.605 76.4102 199.365C76.726 199.12 76.9873 198.824 77.1942 198.475C77.4066 198.127 77.5536 197.729 77.6353 197.283L81.2127 197.299C81.1201 198.067 80.8887 198.807 80.5185 199.521C80.1536 200.228 79.6609 200.863 79.0401 201.424C78.4248 201.979 77.6897 202.42 76.8349 202.747C75.9854 203.068 75.0244 203.229 73.9517 203.229C72.4598 203.229 71.1257 202.891 69.9496 202.216C68.7789 201.541 67.8532 200.563 67.1726 199.284C66.4974 198.004 66.1598 196.455 66.1598 194.636C66.1598 192.812 66.5028 191.26 67.1889 189.981C67.875 188.701 68.8061 187.727 69.9822 187.057C71.1584 186.382 72.4815 186.044 73.9517 186.044C74.9209 186.044 75.8194 186.18 76.647 186.452C77.4801 186.725 78.2179 187.122 78.8604 187.645C79.503 188.162 80.0257 188.797 80.4286 189.548C80.837 190.299 81.0984 191.16 81.2127 192.129ZM89.3517 203.245C88.083 203.245 86.9859 202.975 86.0602 202.436C85.14 201.892 84.4294 201.135 83.9284 200.166C83.4275 199.191 83.177 198.061 83.177 196.776C83.177 195.48 83.4275 194.348 83.9284 193.379C84.4294 192.404 85.14 191.647 86.0602 191.108C86.9859 190.563 88.083 190.291 89.3517 190.291C90.6204 190.291 91.7149 190.563 92.6351 191.108C93.5608 191.647 94.2741 192.404 94.775 193.379C95.276 194.348 95.5265 195.48 95.5265 196.776C95.5265 198.061 95.276 199.191 94.775 200.166C94.2741 201.135 93.5608 201.892 92.6351 202.436C91.7149 202.975 90.6204 203.245 89.3517 203.245ZM89.3681 200.55C89.9453 200.55 90.4271 200.386 90.8137 200.06C91.2003 199.728 91.4917 199.276 91.6877 198.704C91.8891 198.132 91.9899 197.481 91.9899 196.752C91.9899 196.022 91.8891 195.371 91.6877 194.8C91.4917 194.228 91.2003 193.776 90.8137 193.444C90.4271 193.112 89.9453 192.946 89.3681 192.946C88.7855 192.946 88.2954 193.112 87.8979 193.444C87.5059 193.776 87.2091 194.228 87.0076 194.8C86.8116 195.371 86.7136 196.022 86.7136 196.752C86.7136 197.481 86.8116 198.132 87.0076 198.704C87.2091 199.276 87.5059 199.728 87.8979 200.06C88.2954 200.386 88.7855 200.55 89.3681 200.55ZM105.834 197.658V190.455H109.313V203H105.973V200.721H105.842C105.559 201.456 105.088 202.047 104.429 202.494C103.776 202.94 102.978 203.163 102.036 203.163C101.198 203.163 100.46 202.973 99.8226 202.592C99.1855 202.21 98.6873 201.669 98.3279 200.966C97.974 200.264 97.7943 199.423 97.7889 198.442V190.455H101.268V197.822C101.274 198.562 101.472 199.148 101.865 199.578C102.257 200.008 102.782 200.223 103.441 200.223C103.86 200.223 104.252 200.128 104.617 199.937C104.982 199.741 105.276 199.453 105.499 199.071C105.728 198.69 105.839 198.219 105.834 197.658ZM112.097 203V190.455H115.47V192.643H115.6C115.829 191.865 116.213 191.277 116.752 190.879C117.291 190.476 117.912 190.275 118.614 190.275C118.789 190.275 118.976 190.286 119.178 190.308C119.379 190.329 119.556 190.359 119.709 190.397V193.485C119.545 193.436 119.319 193.392 119.031 193.354C118.742 193.316 118.478 193.297 118.239 193.297C117.727 193.297 117.269 193.408 116.866 193.632C116.469 193.85 116.153 194.154 115.919 194.547C115.69 194.939 115.576 195.391 115.576 195.902V203H112.097ZM131.946 194.032L128.76 194.228C128.706 193.956 128.589 193.711 128.409 193.493C128.23 193.27 127.993 193.093 127.699 192.962C127.41 192.826 127.064 192.758 126.661 192.758C126.122 192.758 125.668 192.872 125.297 193.101C124.927 193.324 124.742 193.624 124.742 193.999C124.742 194.299 124.862 194.552 125.101 194.759C125.341 194.966 125.752 195.132 126.335 195.257L128.605 195.714C129.825 195.965 130.734 196.368 131.333 196.923C131.932 197.479 132.232 198.208 132.232 199.112C132.232 199.934 131.989 200.656 131.505 201.277C131.026 201.897 130.367 202.382 129.528 202.73C128.695 203.074 127.734 203.245 126.645 203.245C124.984 203.245 123.661 202.899 122.676 202.208C121.695 201.511 121.121 200.563 120.952 199.365L124.374 199.186C124.478 199.692 124.728 200.079 125.126 200.346C125.523 200.607 126.032 200.738 126.653 200.738C127.263 200.738 127.753 200.621 128.123 200.386C128.499 200.147 128.69 199.839 128.695 199.463C128.69 199.148 128.556 198.889 128.295 198.688C128.034 198.481 127.631 198.323 127.086 198.214L124.914 197.781C123.688 197.536 122.776 197.111 122.177 196.507C121.584 195.902 121.287 195.132 121.287 194.195C121.287 193.389 121.505 192.695 121.941 192.113C122.382 191.53 123 191.081 123.795 190.765C124.595 190.449 125.532 190.291 126.604 190.291C128.189 190.291 129.436 190.626 130.345 191.296C131.26 191.966 131.793 192.878 131.946 194.032ZM140.14 203.245C138.85 203.245 137.739 202.984 136.808 202.461C135.882 201.933 135.169 201.187 134.668 200.223C134.167 199.254 133.916 198.108 133.916 196.784C133.916 195.494 134.167 194.361 134.668 193.387C135.169 192.412 135.874 191.652 136.783 191.108C137.698 190.563 138.771 190.291 140.001 190.291C140.829 190.291 141.599 190.425 142.313 190.691C143.031 190.953 143.658 191.348 144.191 191.876C144.73 192.404 145.149 193.068 145.449 193.869C145.748 194.664 145.898 195.595 145.898 196.662V197.618H135.305V195.461H142.623C142.623 194.96 142.514 194.517 142.296 194.13C142.078 193.743 141.776 193.441 141.39 193.223C141.008 193 140.565 192.888 140.058 192.888C139.53 192.888 139.062 193.011 138.653 193.256C138.251 193.496 137.935 193.82 137.706 194.228C137.477 194.631 137.36 195.08 137.355 195.576V197.626C137.355 198.246 137.469 198.783 137.698 199.235C137.932 199.687 138.261 200.035 138.686 200.28C139.111 200.525 139.615 200.648 140.197 200.648C140.584 200.648 140.938 200.593 141.259 200.484C141.58 200.375 141.855 200.212 142.084 199.994C142.313 199.777 142.487 199.51 142.607 199.194L145.825 199.406C145.661 200.179 145.326 200.855 144.82 201.432C144.319 202.004 143.671 202.45 142.876 202.771C142.087 203.087 141.175 203.245 140.14 203.245ZM153.557 186.273H157.919L162.525 197.511H162.721L167.328 186.273H171.689V203H168.259V192.113H168.12L163.791 202.918H161.455L157.127 192.072H156.988V203H153.557V186.273ZM178.115 203.237C177.315 203.237 176.602 203.098 175.975 202.82C175.349 202.537 174.854 202.121 174.489 201.571C174.13 201.015 173.95 200.324 173.95 199.496C173.95 198.799 174.078 198.214 174.334 197.74C174.59 197.266 174.938 196.885 175.379 196.597C175.82 196.308 176.321 196.09 176.882 195.943C177.448 195.796 178.042 195.693 178.663 195.633C179.392 195.557 179.98 195.486 180.427 195.42C180.873 195.35 181.197 195.246 181.399 195.11C181.6 194.974 181.701 194.772 181.701 194.506V194.457C181.701 193.939 181.538 193.539 181.211 193.256C180.89 192.973 180.432 192.831 179.839 192.831C179.213 192.831 178.714 192.97 178.344 193.248C177.974 193.52 177.729 193.863 177.609 194.277L174.391 194.016C174.554 193.253 174.876 192.594 175.355 192.039C175.834 191.478 176.452 191.048 177.209 190.749C177.971 190.444 178.853 190.291 179.855 190.291C180.552 190.291 181.219 190.373 181.856 190.536C182.499 190.7 183.068 190.953 183.563 191.296C184.064 191.639 184.459 192.08 184.747 192.619C185.036 193.153 185.18 193.792 185.18 194.538V203H181.881V201.26H181.783C181.581 201.652 181.312 201.998 180.974 202.298C180.636 202.592 180.231 202.823 179.757 202.992C179.283 203.155 178.736 203.237 178.115 203.237ZM179.112 200.836C179.624 200.836 180.076 200.735 180.468 200.533C180.86 200.326 181.167 200.049 181.391 199.7C181.614 199.352 181.725 198.957 181.725 198.516V197.185C181.617 197.255 181.467 197.321 181.276 197.381C181.091 197.435 180.881 197.487 180.647 197.536C180.413 197.579 180.179 197.62 179.945 197.658C179.711 197.691 179.498 197.721 179.308 197.748C178.899 197.808 178.543 197.903 178.238 198.034C177.933 198.165 177.696 198.342 177.527 198.565C177.358 198.783 177.274 199.055 177.274 199.382C177.274 199.855 177.446 200.218 177.789 200.468C178.137 200.713 178.578 200.836 179.112 200.836ZM191.359 195.747V203H187.88V190.455H191.196V192.668H191.343C191.62 191.938 192.086 191.361 192.739 190.936C193.393 190.506 194.185 190.291 195.116 190.291C195.987 190.291 196.747 190.482 197.395 190.863C198.043 191.244 198.547 191.789 198.906 192.496C199.265 193.199 199.445 194.037 199.445 195.012V203H195.966V195.633C195.971 194.865 195.775 194.266 195.378 193.836C194.98 193.4 194.433 193.183 193.736 193.183C193.268 193.183 192.854 193.283 192.494 193.485C192.14 193.686 191.863 193.98 191.661 194.367C191.465 194.748 191.365 195.208 191.359 195.747ZM205.765 203.237C204.964 203.237 204.251 203.098 203.625 202.82C202.999 202.537 202.503 202.121 202.138 201.571C201.779 201.015 201.599 200.324 201.599 199.496C201.599 198.799 201.727 198.214 201.983 197.74C202.239 197.266 202.588 196.885 203.029 196.597C203.47 196.308 203.971 196.09 204.531 195.943C205.098 195.796 205.691 195.693 206.312 195.633C207.042 195.557 207.63 195.486 208.076 195.42C208.523 195.35 208.847 195.246 209.048 195.11C209.25 194.974 209.35 194.772 209.35 194.506V194.457C209.35 193.939 209.187 193.539 208.86 193.256C208.539 192.973 208.082 192.831 207.488 192.831C206.862 192.831 206.364 192.97 205.993 193.248C205.623 193.52 205.378 193.863 205.258 194.277L202.04 194.016C202.204 193.253 202.525 192.594 203.004 192.039C203.483 191.478 204.101 191.048 204.858 190.749C205.62 190.444 206.503 190.291 207.504 190.291C208.201 190.291 208.868 190.373 209.506 190.536C210.148 190.7 210.717 190.953 211.213 191.296C211.713 191.639 212.108 192.08 212.397 192.619C212.685 193.153 212.83 193.792 212.83 194.538V203H209.53V201.26H209.432C209.231 201.652 208.961 201.998 208.623 202.298C208.286 202.592 207.88 202.823 207.406 202.992C206.933 203.155 206.385 203.237 205.765 203.237ZM206.761 200.836C207.273 200.836 207.725 200.735 208.117 200.533C208.509 200.326 208.817 200.049 209.04 199.7C209.263 199.352 209.375 198.957 209.375 198.516V197.185C209.266 197.255 209.116 197.321 208.926 197.381C208.74 197.435 208.531 197.487 208.297 197.536C208.063 197.579 207.828 197.62 207.594 197.658C207.36 197.691 207.148 197.721 206.957 197.748C206.549 197.808 206.192 197.903 205.887 198.034C205.582 198.165 205.345 198.342 205.177 198.565C205.008 198.783 204.923 199.055 204.923 199.382C204.923 199.855 205.095 200.218 205.438 200.468C205.787 200.713 206.228 200.836 206.761 200.836ZM221.181 207.966C220.054 207.966 219.087 207.811 218.282 207.5C217.481 207.195 216.844 206.779 216.37 206.251C215.897 205.723 215.589 205.129 215.447 204.47L218.665 204.037C218.763 204.288 218.919 204.522 219.131 204.74C219.343 204.958 219.624 205.132 219.972 205.262C220.326 205.399 220.756 205.467 221.263 205.467C222.02 205.467 222.643 205.281 223.133 204.911C223.629 204.546 223.876 203.934 223.876 203.074V200.778H223.729C223.577 201.127 223.348 201.456 223.043 201.767C222.738 202.077 222.346 202.33 221.867 202.526C221.388 202.722 220.816 202.82 220.152 202.82C219.21 202.82 218.352 202.603 217.579 202.167C216.811 201.726 216.199 201.053 215.741 200.15C215.29 199.24 215.064 198.091 215.064 196.703C215.064 195.282 215.295 194.095 215.758 193.142C216.221 192.189 216.836 191.475 217.604 191.002C218.377 190.528 219.224 190.291 220.144 190.291C220.846 190.291 221.434 190.411 221.908 190.651C222.382 190.885 222.763 191.179 223.051 191.533C223.346 191.881 223.571 192.224 223.729 192.562H223.86V190.455H227.315V203.123C227.315 204.19 227.054 205.083 226.531 205.801C226.008 206.52 225.284 207.059 224.358 207.419C223.438 207.783 222.379 207.966 221.181 207.966ZM221.255 200.207C221.815 200.207 222.289 200.068 222.676 199.79C223.068 199.507 223.367 199.104 223.574 198.581C223.787 198.053 223.893 197.422 223.893 196.686C223.893 195.951 223.789 195.314 223.582 194.775C223.375 194.231 223.076 193.809 222.684 193.509C222.292 193.21 221.815 193.06 221.255 193.06C220.683 193.06 220.201 193.215 219.809 193.526C219.417 193.83 219.12 194.255 218.919 194.8C218.717 195.344 218.616 195.973 218.616 196.686C218.616 197.411 218.717 198.037 218.919 198.565C219.126 199.088 219.422 199.493 219.809 199.782C220.201 200.065 220.683 200.207 221.255 200.207ZM235.801 203.245C234.511 203.245 233.4 202.984 232.469 202.461C231.543 201.933 230.83 201.187 230.329 200.223C229.828 199.254 229.577 198.108 229.577 196.784C229.577 195.494 229.828 194.361 230.329 193.387C230.83 192.412 231.535 191.652 232.444 191.108C233.359 190.563 234.432 190.291 235.662 190.291C236.49 190.291 237.26 190.425 237.974 190.691C238.692 190.953 239.319 191.348 239.852 191.876C240.391 192.404 240.811 193.068 241.11 193.869C241.41 194.664 241.559 195.595 241.559 196.662V197.618H230.966V195.461H238.284C238.284 194.96 238.175 194.517 237.957 194.13C237.74 193.743 237.437 193.441 237.051 193.223C236.67 193 236.226 192.888 235.719 192.888C235.191 192.888 234.723 193.011 234.315 193.256C233.912 193.496 233.596 193.82 233.367 194.228C233.138 194.631 233.021 195.08 233.016 195.576V197.626C233.016 198.246 233.13 198.783 233.359 199.235C233.593 199.687 233.923 200.035 234.347 200.28C234.772 200.525 235.276 200.648 235.858 200.648C236.245 200.648 236.599 200.593 236.92 200.484C237.241 200.375 237.516 200.212 237.745 199.994C237.974 199.777 238.148 199.51 238.268 199.194L241.486 199.406C241.322 200.179 240.988 200.855 240.481 201.432C239.98 202.004 239.332 202.45 238.537 202.771C237.748 203.087 236.836 203.245 235.801 203.245ZM243.83 203V190.455H247.146V192.668H247.293C247.554 191.933 247.99 191.353 248.6 190.928C249.21 190.504 249.939 190.291 250.789 190.291C251.649 190.291 252.381 190.506 252.986 190.936C253.59 191.361 253.993 191.938 254.195 192.668H254.325C254.581 191.949 255.044 191.375 255.714 190.945C256.389 190.509 257.187 190.291 258.107 190.291C259.278 190.291 260.228 190.664 260.957 191.41C261.692 192.151 262.06 193.202 262.06 194.563V203H258.589V195.249C258.589 194.552 258.404 194.029 258.033 193.681C257.663 193.332 257.2 193.158 256.645 193.158C256.013 193.158 255.52 193.359 255.167 193.762C254.813 194.16 254.636 194.685 254.636 195.339V203H251.262V195.175C251.262 194.56 251.085 194.07 250.732 193.705C250.383 193.34 249.923 193.158 249.351 193.158C248.965 193.158 248.616 193.256 248.306 193.452C248.001 193.643 247.759 193.912 247.579 194.261C247.399 194.604 247.309 195.007 247.309 195.469V203H243.83ZM270.526 203.245C269.235 203.245 268.124 202.984 267.193 202.461C266.268 201.933 265.554 201.187 265.053 200.223C264.552 199.254 264.302 198.108 264.302 196.784C264.302 195.494 264.552 194.361 265.053 193.387C265.554 192.412 266.26 191.652 267.169 191.108C268.084 190.563 269.156 190.291 270.387 190.291C271.215 190.291 271.985 190.425 272.698 190.691C273.417 190.953 274.043 191.348 274.577 191.876C275.116 192.404 275.535 193.068 275.835 193.869C276.134 194.664 276.284 195.595 276.284 196.662V197.618H265.691V195.461H273.009C273.009 194.96 272.9 194.517 272.682 194.13C272.464 193.743 272.162 193.441 271.775 193.223C271.394 193 270.95 192.888 270.444 192.888C269.916 192.888 269.448 193.011 269.039 193.256C268.636 193.496 268.32 193.82 268.092 194.228C267.863 194.631 267.746 195.08 267.741 195.576V197.626C267.741 198.246 267.855 198.783 268.084 199.235C268.318 199.687 268.647 200.035 269.072 200.28C269.497 200.525 270 200.648 270.583 200.648C270.97 200.648 271.323 200.593 271.645 200.484C271.966 200.375 272.241 200.212 272.47 199.994C272.698 199.777 272.873 199.51 272.992 199.194L276.21 199.406C276.047 200.179 275.712 200.855 275.206 201.432C274.705 202.004 274.057 202.45 273.262 202.771C272.472 203.087 271.56 203.245 270.526 203.245ZM282.034 195.747V203H278.555V190.455H281.871V192.668H282.018C282.295 191.938 282.761 191.361 283.414 190.936C284.068 190.506 284.86 190.291 285.791 190.291C286.662 190.291 287.422 190.482 288.07 190.863C288.718 191.244 289.221 191.789 289.581 192.496C289.94 193.199 290.12 194.037 290.12 195.012V203H286.64V195.633C286.646 194.865 286.45 194.266 286.052 193.836C285.655 193.4 285.108 193.183 284.411 193.183C283.942 193.183 283.529 193.283 283.169 193.485C282.815 193.686 282.538 193.98 282.336 194.367C282.14 194.748 282.039 195.208 282.034 195.747ZM299.535 190.455V193.068H291.98V190.455H299.535ZM293.695 187.449H297.175V199.145C297.175 199.466 297.224 199.717 297.322 199.896C297.42 200.071 297.556 200.193 297.73 200.264C297.91 200.335 298.117 200.37 298.351 200.37C298.514 200.37 298.677 200.356 298.841 200.329C299.004 200.297 299.129 200.272 299.217 200.256L299.764 202.845C299.59 202.899 299.344 202.962 299.029 203.033C298.713 203.109 298.329 203.155 297.877 203.172C297.039 203.204 296.303 203.093 295.672 202.837C295.046 202.581 294.558 202.183 294.21 201.644C293.861 201.105 293.69 200.424 293.695 199.602V187.449Z" fill="white"/>
<circle cx="175.5" cy="93.5" r="70.5" fill="white"/>
<g clip-path="url(#clip0_127_2)">
<path d="M214.974 72.7479V126.801H134.024V72.7479C134.024 69.9718 136.276 67.7199 139.054 67.7199H209.944C212.722 67.7199 214.974 69.9718 214.974 72.7479Z" fill="#DFEAEF"/>
<path d="M134.024 118.773H214.974V126.801H134.024V118.773Z" fill="#B4D0D5"/>
<path d="M208.753 73.9403V115.749H140.245V73.9403H208.753Z" fill="#6EC17D"/>
<path d="M218.665 121.97H130.333V124.924C130.333 128.963 133.607 132.236 137.645 132.236H211.353C215.392 132.236 218.665 128.963 218.665 124.924V121.97H218.665Z" fill="#DFEAEF"/>
<path d="M179.289 127.103H169.709C166.957 127.103 164.726 124.872 164.726 122.12V121.97H184.272V122.12C184.272 124.872 182.041 127.103 179.289 127.103Z" fill="#B4D0D5"/>
<path d="M145.636 132.236H137.645C133.605 132.236 130.331 128.962 130.331 124.924V121.971H138.322V124.924C138.322 128.962 141.596 132.236 145.636 132.236Z" fill="#B4D0D5"/>
<path d="M194.147 72.7924V80.3015C194.147 84.7856 191.469 88.8575 187.326 90.5779C179.125 93.9868 169.873 93.9868 161.672 90.5779C157.529 88.8575 154.851 84.7856 154.851 80.3015V72.7924H194.147Z" fill="#665E66"/>
<path d="M179.649 92.736C173.621 93.6745 167.391 92.9564 161.672 90.5784C157.529 88.858 154.85 84.7861 154.85 80.302V72.7928H165.15V80.302C165.15 84.7861 167.828 88.858 171.971 90.5784C174.454 91.611 177.033 92.3308 179.649 92.736Z" fill="#454045"/>
<path d="M194.147 72.7924V75.8031L178.064 84.3235C175.834 85.5037 173.164 85.5037 170.934 84.3235L154.851 75.8031V72.7924H194.147Z" fill="#454045"/>
<path d="M203.84 60.4441L178.064 46.7892C175.834 45.608 173.164 45.608 170.934 46.7892L145.158 60.4441C142.264 61.9774 142.264 66.124 145.158 67.6573L170.934 81.3122C173.164 82.4934 175.834 82.4934 178.064 81.3122L203.84 67.6573C206.734 66.124 206.734 61.9776 203.84 60.4441Z" fill="#665E66"/>
<path d="M185.966 94.8453L183.073 99.8552C182.029 101.663 183.334 103.923 185.421 103.923H186.509C188.597 103.923 189.902 101.663 188.858 99.8552L185.966 94.8453Z" fill="#F4DD45"/>
<path d="M218.665 120.637H216.307V72.7479C216.307 69.2404 213.452 66.3869 209.944 66.3869H206.813C207.155 65.6706 207.344 64.8762 207.344 64.0506C207.344 62.0405 206.241 60.207 204.465 59.2656L187.035 50.0324C186.384 49.6876 185.577 49.9357 185.233 50.5864C184.888 51.2369 185.136 52.0436 185.787 52.3883L203.217 61.6212C204.132 62.1062 204.678 63.0144 204.678 64.0506C204.678 65.0868 204.132 65.9948 203.217 66.4797L186.273 75.4554L175.502 63.1717C175.016 62.6181 174.174 62.563 173.62 63.0484C173.067 63.5338 173.012 64.376 173.497 64.9295L183.852 76.7381L177.441 80.1344C175.599 81.1089 173.4 81.1089 171.558 80.1347L145.782 66.48C144.867 65.995 144.32 65.0868 144.32 64.0508C144.32 63.0148 144.867 62.1066 145.781 61.6216L171.557 47.9668C173.399 46.9922 175.599 46.9922 177.44 47.9665L181.13 49.9215C181.78 50.2663 182.587 50.0184 182.932 49.3679C183.277 48.7174 183.029 47.9105 182.378 47.5659L178.688 45.6105C176.065 44.2226 172.933 44.2226 170.31 45.6107L144.533 59.2659C142.757 60.2072 141.654 62.0407 141.654 64.0508C141.654 64.8764 141.843 65.6706 142.186 66.3871H139.054C135.546 66.3871 132.691 69.2405 132.691 72.7481V120.637H130.333C129.597 120.637 129 121.234 129 121.97V124.924C129 129.691 132.878 133.57 137.645 133.57H211.353C216.12 133.57 219.998 129.691 219.998 124.924V121.97C219.998 121.234 219.401 120.637 218.665 120.637ZM185.966 97.5112L187.704 100.522C188.063 101.144 187.823 101.693 187.704 101.9C187.584 102.108 187.228 102.59 186.51 102.59H185.422C184.703 102.59 184.347 102.108 184.227 101.9C184.108 101.693 183.868 101.144 184.227 100.522L185.966 97.5112ZM187.299 77.9295L192.814 75.0076V80.3009C192.814 84.1026 190.666 87.5108 187.299 89.1292V77.9295ZM174.499 83.5317C175.938 83.5317 177.377 83.1846 178.688 82.4907L184.633 79.3419V90.1605C177.35 92.5731 169.292 92.3022 162.183 89.3476C158.539 87.833 156.184 84.2819 156.184 80.3011V75.0074L170.311 82.4909C171.622 83.185 173.06 83.5317 174.499 83.5317ZM135.357 72.7479C135.357 70.7104 137.016 69.0529 139.054 69.0529H144.944L151.654 72.6075H140.245C139.509 72.6075 138.912 73.2043 138.912 73.9405V115.75C138.912 116.486 139.509 117.083 140.245 117.083H147.281C148.018 117.083 148.614 116.486 148.614 115.75C148.614 115.014 148.018 114.417 147.281 114.417H141.578V75.2734H153.518V80.3009C153.518 85.3625 156.518 89.8797 161.16 91.8094C165.399 93.571 169.949 94.4519 174.499 94.4519C177.921 94.4519 181.343 93.9533 184.633 92.957V94.4879L181.919 99.1886C181.188 100.455 181.188 101.967 181.919 103.233C182.65 104.5 183.959 105.256 185.422 105.256H186.51C187.972 105.256 189.281 104.5 190.013 103.233C190.744 101.967 190.744 100.455 190.013 99.1886L187.299 94.4879V92.0257C187.479 91.9544 187.659 91.8838 187.838 91.8094C192.481 89.8797 195.48 85.3625 195.48 80.3009V75.2734H207.42V114.417H152.613C151.877 114.417 151.28 115.014 151.28 115.75C151.28 116.486 151.877 117.083 152.613 117.083H208.753C209.489 117.083 210.086 116.486 210.086 115.75V73.9405C210.086 73.2043 209.489 72.6075 208.753 72.6075H197.345L204.054 69.0529H209.944C211.982 69.0529 213.641 70.7104 213.641 72.7479V120.637H135.357V72.7479ZM182.742 123.303C182.25 124.737 180.888 125.77 179.29 125.77H169.709C168.11 125.77 166.749 124.737 166.256 123.303H182.742ZM217.332 124.924C217.332 128.221 214.65 130.903 211.353 130.903H137.645C134.348 130.903 131.666 128.221 131.666 124.924V123.303H134.011C134.015 123.303 134.02 123.303 134.024 123.303H163.506C164.062 126.222 166.631 128.436 169.709 128.436H179.29C182.367 128.436 184.937 126.222 185.492 123.303H214.974C214.978 123.303 214.983 123.303 214.988 123.303H217.332V124.924Z" fill="black"/>
<path d="M174.902 109.529C174.902 108.793 174.305 108.196 173.569 108.196H146.884C146.148 108.196 145.551 108.793 145.551 109.529C145.551 110.265 146.148 110.862 146.884 110.862H173.569C174.305 110.862 174.902 110.265 174.902 109.529Z" fill="black"/>
<path d="M146.884 105.256H164.726C165.462 105.256 166.059 104.659 166.059 103.923C166.059 103.187 165.462 102.59 164.726 102.59H146.884C146.148 102.59 145.551 103.187 145.551 103.923C145.551 104.659 146.147 105.256 146.884 105.256Z" fill="black"/>
</g>
<defs>
<clipPath id="clip0_127_2">
<rect width="91" height="92" fill="white" transform="translate(129 42)"/>
</clipPath>
</defs>
</svg>
