<svg width="223" height="276" viewBox="0 0 223 276" fill="none" xmlns="http://www.w3.org/2000/svg">
<path d="M25.583 125.085V185.619C25.583 235.408 67.0107 276.088 116.752 273.359C162.22 270.862 198.327 233.235 198.327 187.175V118.919" fill="white"/>
<path d="M25.583 125.085V185.619C25.583 235.408 67.0107 276.088 116.752 273.359C162.22 270.862 198.327 233.235 198.327 187.175V118.919" stroke="black" stroke-width="4" stroke-linecap="round" stroke-linejoin="round"/>
<path d="M207.581 122.002V96.9372C207.581 54.5004 179.572 16.6418 138.56 5.58942C118.51 0.178846 99.0915 1.11914 81.8325 6.83801C77.2055 8.37949 73.4884 11.8786 71.653 16.3952L66.409 29.3127L54.2089 28.5112C49.0266 28.172 43.9522 30.1914 40.4974 34.0759C25.4594 50.955 16.3286 73.2139 16.3286 97.5846V131.266" fill="white"/>
<path d="M207.581 122.002V96.9372C207.581 54.5004 179.572 16.6418 138.56 5.58942C118.51 0.178846 99.0915 1.11914 81.8325 6.83801C77.2055 8.37949 73.4884 11.8786 71.653 16.3952L66.409 29.3127L54.2089 28.5112C49.0266 28.172 43.9522 30.1914 40.4973 34.0759C25.4594 50.955 16.3286 73.2139 16.3286 97.5846V131.266" stroke="black" stroke-width="4" stroke-linecap="round" stroke-linejoin="round"/>
<path d="M151.84 21.4514C128.767 13.1583 106.218 13.4511 86.5062 19.9716C81.8637 21.513 78.1312 25.0276 76.2804 29.575L71.0518 42.4617L58.8826 41.6601C53.6849 41.321 48.5797 43.3557 45.1094 47.2403C30.0868 64.1194 20.9561 86.3629 20.9561 110.734V147.143L27.7887 140.314L68.183 112.475C76.0336 131.482 94.7424 144.862 116.582 144.862C138.422 144.862 157.131 131.482 164.981 112.475L205.376 140.314L212.208 147.143V108.529C212.208 69.7766 188.333 34.5848 151.84 21.4668V21.4514Z" fill="#244878"/>
<path d="M16.3286 131.251L62.877 99.3271C70.7276 118.334 89.4364 131.714 111.292 131.714C133.147 131.714 151.856 118.334 159.706 99.3271L207.581 122.002" stroke="black" stroke-width="4" stroke-linecap="round" stroke-linejoin="round"/>
<path d="M199.715 183.753C211.236 183.753 220.583 172.67 220.583 158.981C220.583 145.293 211.236 134.21 199.715 134.21" stroke="black" stroke-width="4" stroke-linecap="round" stroke-linejoin="round"/>
<path d="M22.8681 189.919C11.3467 189.919 2 178.836 2 165.147C2 151.459 11.3467 140.376 22.8681 140.376" stroke="black" stroke-width="4" stroke-linecap="round" stroke-linejoin="round"/>
<path d="M143.573 158.997C147.407 158.997 150.514 155.892 150.514 152.061C150.514 148.23 147.407 145.124 143.573 145.124C139.74 145.124 136.633 148.23 136.633 152.061C136.633 155.892 139.74 158.997 143.573 158.997Z" fill="black"/>
<path d="M78.7941 158.997C82.6273 158.997 85.7347 155.892 85.7347 152.061C85.7347 148.23 82.6273 145.124 78.7941 145.124C74.9609 145.124 71.8535 148.23 71.8535 152.061C71.8535 155.892 74.9609 158.997 78.7941 158.997Z" fill="black"/>
<path d="M88.665 213.658C91.3179 222.599 100.387 229.212 111.291 229.212C122.196 229.212 131.265 222.583 133.918 213.658" stroke="black" stroke-width="4" stroke-linecap="round" stroke-linejoin="round"/>
</svg>
