<svg width="223" height="276" viewBox="0 0 223 276" fill="none" xmlns="http://www.w3.org/2000/svg">
<path d="M151.84 21.4512C128.766 13.158 106.217 13.4509 86.5058 19.9713C81.8633 21.5128 78.1308 25.0274 76.2799 29.5747L71.0513 42.4614L58.8821 41.6599C53.6844 41.3208 48.5792 43.3555 45.1089 47.24C30.0863 64.1192 20.9556 86.3626 20.9556 110.733V147.143L27.7882 140.314L68.1826 112.475C76.0332 131.482 94.7419 144.862 116.582 144.862C138.422 144.862 157.13 131.482 164.981 112.475L205.375 140.314L212.208 147.143V108.529C212.208 69.7764 188.332 34.5845 151.84 21.4666V21.4512Z" fill="#14335D"/>
<path d="M16.3285 131.25L62.8768 99.3264C70.7274 118.333 89.4362 131.713 111.291 131.713C133.147 131.713 151.855 118.333 159.706 99.3264L207.581 122.002" stroke="black" stroke-width="4" stroke-linecap="round" stroke-linejoin="round"/>
<path d="M25.5826 125.084V185.618C25.5826 235.408 67.0104 276.087 116.751 273.359C162.22 270.862 198.327 233.234 198.327 187.175V118.919" stroke="black" stroke-width="4" stroke-linecap="round" stroke-linejoin="round"/>
<path d="M199.715 183.753C211.236 183.753 220.583 172.67 220.583 158.982C220.583 145.293 211.236 134.21 199.715 134.21" stroke="black" stroke-width="4" stroke-linecap="round" stroke-linejoin="round"/>
<path d="M22.8681 189.919C11.3467 189.919 2 178.836 2 165.147C2 151.459 11.3467 140.376 22.8681 140.376" stroke="black" stroke-width="4" stroke-linecap="round" stroke-linejoin="round"/>
<path d="M143.573 158.997C147.406 158.997 150.514 155.891 150.514 152.06C150.514 148.229 147.406 145.124 143.573 145.124C139.74 145.124 136.632 148.229 136.632 152.06C136.632 155.891 139.74 158.997 143.573 158.997Z" fill="black"/>
<path d="M78.794 158.997C82.6272 158.997 85.7346 155.891 85.7346 152.06C85.7346 148.229 82.6272 145.124 78.794 145.124C74.9608 145.124 71.8534 148.229 71.8534 152.06C71.8534 155.891 74.9608 158.997 78.794 158.997Z" fill="black"/>
<path d="M88.665 213.658C91.3179 222.598 100.387 229.211 111.291 229.211C122.196 229.211 131.265 222.583 133.918 213.658" stroke="black" stroke-width="4" stroke-linecap="round" stroke-linejoin="round"/>
<path d="M207.581 122.002V96.9372C207.581 54.5004 179.572 16.6418 138.56 5.58942C118.51 0.178846 99.0914 1.11914 81.8324 6.83801C77.2053 8.37949 73.4883 11.8786 71.6529 16.3952L66.4088 29.3127L54.2088 28.5112C49.0265 28.172 43.9521 30.1914 40.4972 34.0759C25.4592 50.955 16.3285 73.2139 16.3285 97.5846V131.266" stroke="black" stroke-width="4" stroke-linecap="round" stroke-linejoin="round"/>
</svg>
