<svg width="224" height="276" viewBox="0 0 224 276" fill="none" xmlns="http://www.w3.org/2000/svg">
<path d="M208.387 122.358V97.2937C208.387 54.8569 180.377 16.9982 139.366 5.94587C119.315 0.535291 99.8972 1.47559 82.6382 7.19446C78.0111 8.73593 74.294 12.2351 72.4586 16.7516L67.2146 29.6691L55.0146 28.8676C49.8322 28.5285 44.7579 30.5478 41.303 34.4323C26.265 51.3115 17.1343 73.5704 17.1343 97.9411V131.622" fill="white"/>
<path d="M208.387 122.358V97.2937C208.387 54.8569 180.377 16.9982 139.366 5.94587C119.315 0.535291 99.8972 1.47559 82.6382 7.19446C78.0111 8.73593 74.294 12.2351 72.4586 16.7516L67.2146 29.6691L55.0146 28.8676C49.8322 28.5285 44.7579 30.5478 41.303 34.4323C26.265 51.3115 17.1343 73.5704 17.1343 97.9411V131.622" stroke="black" stroke-width="4" stroke-linecap="round" stroke-linejoin="round"/>
<path d="M152.646 21.8078C129.572 13.5147 107.023 13.8076 87.3119 20.328C82.6694 21.8695 78.9369 25.384 77.0861 29.9314L71.8575 42.8181L59.6883 42.0166C54.4905 41.6775 49.3853 43.7122 45.915 47.5967C30.8925 64.4759 21.7617 86.7193 21.7617 111.09V147.5L28.5944 140.671L68.9887 112.832C76.8393 131.838 95.5481 145.218 117.388 145.218C139.228 145.218 157.936 131.838 165.787 112.832L206.181 140.671L213.014 147.5V108.886C213.014 70.1331 189.138 34.9412 152.646 21.8232V21.8078Z" fill="#244878"/>
<path d="M17.1343 131.608L63.6826 99.6836C71.5332 118.69 90.242 132.07 112.097 132.07C133.952 132.07 152.661 118.69 160.512 99.6836L208.387 122.359" stroke="black" stroke-width="4" stroke-linecap="round" stroke-linejoin="round"/>
<path d="M26.3887 125.441V185.975C26.3887 235.765 67.8164 276.444 117.557 273.716C163.026 271.219 199.133 233.591 199.133 187.532V119.275" stroke="black" stroke-width="4" stroke-linecap="round" stroke-linejoin="round"/>
<path d="M200.521 184.109C212.042 184.109 221.389 173.026 221.389 159.338C221.389 145.65 212.042 134.566 200.521 134.566" stroke="black" stroke-width="4" stroke-linecap="round" stroke-linejoin="round"/>
<path d="M23.6738 190.275C12.1523 190.275 2.80566 179.192 2.80566 165.504C2.80566 151.816 12.1523 140.732 23.6738 140.732" stroke="black" stroke-width="4" stroke-linecap="round" stroke-linejoin="round"/>
<path d="M144.379 159.354C148.212 159.354 151.32 156.248 151.32 152.417C151.32 148.586 148.212 145.48 144.379 145.48C140.546 145.48 137.438 148.586 137.438 152.417C137.438 156.248 140.546 159.354 144.379 159.354Z" fill="black"/>
<path d="M79.5998 159.354C83.433 159.354 86.5404 156.248 86.5404 152.417C86.5404 148.586 83.433 145.48 79.5998 145.48C75.7666 145.48 72.6592 148.586 72.6592 152.417C72.6592 156.248 75.7666 159.354 79.5998 159.354Z" fill="black"/>
<path d="M89.4707 214.015C92.1236 222.955 101.193 229.568 112.097 229.568C123.002 229.568 132.071 222.94 134.723 214.015" stroke="black" stroke-width="4" stroke-linecap="round" stroke-linejoin="round"/>
</svg>
