<svg width="1137" height="1024" viewBox="0 0 1137 1024" fill="none" xmlns="http://www.w3.org/2000/svg">
<rect x="9" width="1128" height="1023" fill="#F9F9FF"/>
<path d="M951.503 917.553C955.319 917.553 958.412 914.46 958.412 910.645C958.412 906.829 955.319 903.736 951.503 903.736C947.688 903.736 944.595 906.829 944.595 910.645C944.595 914.46 947.688 917.553 951.503 917.553Z" fill="#40FCFC"/>
<path d="M900.764 880.941C900.976 878.408 899.095 876.183 896.562 875.971C894.029 875.759 891.804 877.64 891.592 880.173C891.38 882.706 893.261 884.931 895.794 885.143C898.326 885.355 900.552 883.474 900.764 880.941Z" fill="#FD5122"/>
<path d="M28.474 941.468L34.7023 924.484C36.945 924.377 39.1557 924.622 41.3027 925.334L34.5748 943.7C34.2028 944.731 34.7236 945.868 35.7546 946.251C36.7855 946.623 37.9228 946.102 38.3054 945.071L44.9058 927.045C46.904 928.299 48.6258 929.947 50.0394 931.913L44.47 947.123C44.098 948.154 44.6188 949.291 45.6498 949.673C46.6808 950.056 47.818 949.525 48.2007 948.494L52.5796 936.547C55.088 942.765 55.2368 950.651 52.4096 958.389C52.3458 958.57 52.2714 958.75 52.2076 958.931C53.6637 959.771 55.088 960.685 56.4484 961.684C60.2747 964.5 65.217 969.273 66.992 976.043L65.0682 976.543C63.4421 970.335 58.8505 965.914 55.2793 963.289C54.0464 962.385 52.7603 961.556 51.4317 960.78C48.4557 967.37 43.7048 972.493 38.3798 975.331L42.5356 963.98C42.9076 962.949 42.3868 961.811 41.3558 961.429C40.3249 961.057 39.1876 961.577 38.805 962.608L33.4482 977.233C31.1099 977.807 28.7397 977.946 26.4227 977.552L32.651 960.557C33.023 959.526 32.5022 958.389 31.4713 958.006C30.4403 957.634 29.303 958.155 28.9204 959.186L22.607 976.415C20.5663 975.512 18.7595 974.162 17.1227 972.504L22.8196 956.943C23.1916 955.912 22.6708 954.775 21.6398 954.393C20.6088 954.021 19.4716 954.541 19.0889 955.572L14.1892 968.943C12.6055 966.69 11.2238 964.171 9.99087 961.546L13.0625 953.149C13.4345 952.118 12.9137 950.981 11.8828 950.598C10.8518 950.226 9.71453 950.747 9.3319 951.778L7.6951 956.253C4.66595 948.738 2.5296 941.553 0 939.151C4.28332 938.248 10.3735 934.156 17.1227 930.51L15.0076 936.292C14.6356 937.323 15.1564 938.46 16.1873 938.843C17.2183 939.226 18.3556 938.694 18.7382 937.663L22.3094 927.917C24.924 926.726 27.5918 925.727 30.249 925.111L24.7646 940.086C24.3926 941.117 24.9134 942.255 25.9444 942.637C26.9754 943.02 28.1126 942.489 28.4846 941.458L28.474 941.468Z" fill="#E0F4FE"/>
<path d="M987.268 618.019L981.04 601.024C978.797 600.917 976.586 601.162 974.439 601.874L981.167 620.24C981.539 621.271 981.019 622.408 979.988 622.791C978.957 623.163 977.819 622.642 977.437 621.611L970.836 603.585C968.838 604.839 967.116 606.487 965.703 608.453L971.272 623.663C971.644 624.694 971.123 625.831 970.092 626.214C969.061 626.586 967.924 626.065 967.542 625.034L963.162 613.087C960.654 619.305 960.505 627.191 963.333 634.929C963.396 635.11 963.471 635.29 963.535 635.471C962.078 636.311 960.654 637.225 959.294 638.224C955.467 641.04 950.525 645.813 948.761 652.583L950.685 653.083C952.311 646.875 956.902 642.454 960.473 639.829C961.706 638.925 962.992 638.096 964.31 637.32C967.286 643.91 972.037 649.033 977.362 651.871L973.206 640.52C972.834 639.489 973.355 638.351 974.386 637.969C975.417 637.597 976.555 638.118 976.937 639.149L982.294 653.773C984.632 654.347 987.002 654.486 989.319 654.092L983.091 637.097C982.719 636.066 983.24 634.929 984.271 634.546C985.302 634.174 986.439 634.695 986.822 635.726L993.135 652.955C995.176 652.052 996.983 650.702 998.619 649.044L992.923 633.483C992.54 632.453 993.071 631.315 994.102 630.933C995.133 630.561 996.271 631.081 996.653 632.112L1001.55 645.483C1003.14 643.23 1004.52 640.7 1005.75 638.086L1002.68 629.689C1002.31 628.658 1002.83 627.521 1003.86 627.138C1004.89 626.766 1006.03 627.287 1006.41 628.318L1008.05 632.782C1011.08 625.268 1013.21 618.083 1015.74 615.681C1011.46 614.777 1005.37 610.685 998.619 607.04L1000.73 612.821C1001.11 613.852 1000.59 614.99 999.555 615.372C998.524 615.744 997.387 615.224 997.004 614.193L993.433 604.446C990.818 603.256 988.15 602.257 985.493 601.64L990.978 616.616C991.35 617.647 990.829 618.784 989.798 619.167C988.767 619.549 987.63 619.018 987.247 617.987L987.268 618.019Z" fill="#E0F4FE"/>
<path d="M910.721 760.102L1096.77 1018.31" stroke="#BDE8FD" stroke-width="17.26" stroke-miterlimit="10"/>
<path d="M860.002 725.208L1071.19 1018.3" stroke="#BDE8FD" stroke-width="17.26" stroke-miterlimit="10"/>
<path d="M859.555 760.102L1045.61 1018.31" stroke="#BDE8FD" stroke-width="17.26" stroke-miterlimit="10"/>
<path d="M592.119 980.316H486.949V1022.96H592.119V980.316Z" fill="#BDE8FD"/>
<path d="M1025.75 891.971H898.53V1022.45H932.457V952.809C932.457 936.473 945.817 923.112 962.142 923.112C978.468 923.112 991.828 936.473 991.828 952.809V1022.45H1025.75V891.971V891.971Z" fill="#E6F6FE"/>
<path d="M962.153 923.112C945.827 923.112 932.467 936.472 932.467 952.809V1022.45H991.839V952.809C991.839 936.472 978.478 923.112 962.153 923.112V923.112Z" fill="white"/>
<path d="M220.001 868.662H108.369V1022.97H220.001V868.662Z" fill="white"/>
<path d="M342.496 785.695H334.748V860.138H342.496V785.695V785.695Z" fill="#BDE8FD"/>
<path d="M431.574 842.729H398.987V876.145H407.67V858.31C407.67 854.133 411.093 850.7 415.27 850.7C419.447 850.7 422.869 854.122 422.869 858.31V876.145H431.553V842.729H431.574Z" fill="#D5F0FE"/>
<path d="M415.28 850.7C411.103 850.7 407.681 854.123 407.681 858.31V876.145H422.89V858.31C422.89 854.123 419.468 850.7 415.28 850.7Z" fill="white"/>
<path d="M427.62 837.18H401.793L394.555 843.217H434.869L427.631 837.18H427.62Z" fill="#A1DFFC"/>
<path d="M443.223 885.328H388.156V941.808H402.845V911.666C402.845 904.598 408.627 898.816 415.695 898.816C422.763 898.816 428.545 904.598 428.545 911.666V941.808H443.234V885.328H443.223Z" fill="#D5F0FE"/>
<path d="M415.684 898.805C408.616 898.805 402.834 904.587 402.834 911.655V941.797H428.534V911.655C428.534 904.587 422.752 898.805 415.684 898.805V898.805Z" fill="white"/>
<path d="M368.866 845.396H277.396V1022.96H368.866V845.396Z" fill="#BDE8FD"/>
<path d="M296.718 714.367H270.785C272.294 713.889 273.803 713.496 275.387 713.262H292.042C293.626 713.581 295.135 713.974 296.718 714.367ZM302.585 716.673H264.907C264.11 716.992 263.398 717.386 262.686 717.779H304.732C304.095 717.386 303.308 716.982 302.596 716.673H302.585ZM308.059 720.085H258.955C258.402 720.479 257.924 720.797 257.371 721.191H309.25C308.856 720.797 308.452 720.394 308.059 720.085ZM310.993 723.423H254.587C254.194 723.816 253.715 724.135 253.322 724.528H311.545C311.386 724.209 311.227 723.816 310.993 723.423V723.423ZM312.576 726.834H251.101C250.782 727.228 250.463 727.547 250.07 727.94H312.895C312.821 727.547 312.661 727.228 312.576 726.834ZM313.448 730.246H248.242C247.923 730.639 247.689 730.958 247.444 731.362H313.597C313.522 730.969 313.437 730.565 313.437 730.246H313.448ZM313.841 733.584H245.935C245.701 733.977 245.457 734.296 245.297 734.689H313.99C313.905 734.37 313.905 733.977 313.831 733.584H313.841ZM314.001 736.995H244.033C243.873 737.389 243.639 737.707 243.48 738.101H314.001V736.995ZM313.363 740.8C313.437 740.641 313.437 740.567 313.522 740.407H242.523C242.364 740.8 242.204 741.119 242.13 741.513H312.885C313.044 741.279 313.203 741.034 313.363 740.8V740.8ZM308.761 744.138C308.995 743.978 309.239 743.904 309.473 743.819H241.407C241.322 744.212 241.248 744.531 241.088 744.924H307.4C307.804 744.605 308.272 744.372 308.75 744.138H308.761ZM304.392 747.156H240.621C240.546 747.55 240.461 747.868 240.461 748.262H303.287C303.606 747.868 303.999 747.465 304.392 747.156ZM301.299 750.494H240.057C240.057 750.887 239.983 751.206 239.983 751.599H300.513C300.747 751.28 300.991 750.887 301.31 750.494H301.299ZM299.163 753.905H239.909V755.011H298.61C298.77 754.692 299.004 754.299 299.163 753.905ZM297.739 757.317H240.068C240.068 757.71 240.143 758.029 240.228 758.423H297.42C297.494 758.029 297.654 757.625 297.739 757.317ZM296.867 760.644H240.621C240.695 761.037 240.78 761.441 240.855 761.749H296.697C296.772 761.43 296.857 761.037 296.857 760.644H296.867ZM296.548 764.056H241.577C241.737 764.449 241.811 764.853 241.971 765.161H296.548C296.548 764.842 296.548 764.449 296.548 764.056ZM243.639 768.584H296.942C296.857 768.19 296.782 767.871 296.782 767.478H243.076C243.235 767.797 243.469 768.19 243.629 768.584H243.639ZM245.861 771.921H297.813C297.739 771.528 297.579 771.209 297.494 770.816H245.064C245.297 771.209 245.542 771.613 245.861 771.921ZM248.879 775.333H298.377C298.377 774.939 298.377 774.621 298.292 774.227H247.678C248.156 774.621 248.55 775.024 248.869 775.333H248.879ZM253.088 778.511C253.248 778.585 253.322 778.67 253.481 778.744H297.346C297.579 778.426 297.824 778.032 297.983 777.639H251.738C252.217 777.873 252.61 778.277 253.088 778.511V778.511ZM263.079 782.082H291.394C292.499 781.837 293.53 781.444 294.572 780.976H258.711C260.146 781.455 261.57 781.848 263.079 782.082V782.082Z" fill="#C8EBF8"/>
<path d="M423.284 828.38C424.697 827.508 425.962 826.435 427.046 825.202L426.94 825.223L421.849 820.132L428.821 818.346L430.235 819.76C430.713 818.421 431.022 817.007 431.138 815.54L429.47 815.965L424.379 810.874L430.469 809.312C429.034 804.646 425.622 800.862 421.201 798.928L422.731 800.458L415.759 802.244L411.348 797.833C410.53 797.992 409.743 798.216 408.967 798.492L413.336 802.86L406.363 804.646L403.462 801.744C402.93 802.223 402.42 802.733 401.952 803.264L403.94 805.262L399.827 806.315C399.401 807.112 399.051 807.941 398.753 808.802L405.694 807.027L410.785 812.118L403.802 813.903L398.732 808.834C398.466 809.609 398.264 810.417 398.115 811.246L401.389 814.52L397.903 815.413C397.956 816.135 398.041 816.858 398.179 817.56L403.153 816.284L408.244 821.375L401.272 823.161L399.497 821.386C401.134 824.798 403.897 827.561 407.32 829.209L403.047 824.936L410.03 823.15L415.121 828.241L408.84 829.846C410.36 830.399 411.986 830.739 413.686 830.824L416.885 830.006L417.47 830.59C418.299 830.442 419.107 830.24 419.883 829.974L419.298 829.389L423.263 828.38H423.284ZM427.068 816.582L420.095 818.367L415.004 813.276L421.987 811.491L427.078 816.582H427.068ZM424.517 802.223L429.608 807.314L422.636 809.099L417.544 804.008L424.517 802.223ZM408.149 806.41L415.132 804.625L420.223 809.716L413.25 811.501L408.159 806.41H408.149ZM405.609 815.668L412.592 813.882L417.683 818.973L410.71 820.759L405.619 815.668H405.609ZM412.464 822.523L419.447 820.738L424.538 825.829L417.566 827.614L412.475 822.523H412.464Z" fill="#C8ECFD"/>
<path d="M165.328 774.057H53.6958V1022.96H165.328V774.057Z" fill="#D5F0FE"/>
<path d="M331.644 904.332H220.012V1022.97H331.644V904.332Z" fill="#D5F0FE"/>
<path d="M284.197 868.195H172.565L220.001 904.843H331.633L284.197 868.195V868.195Z" fill="#B1D8E8"/>
<path d="M546.745 956.593H435.113L482.549 980.571H594.181L546.745 956.593Z" fill="#B1D8E8"/>
<path d="M267.086 921.965H252.705V1000.89H267.086V921.965Z" fill="white"/>
<path d="M293.732 921.965H279.351V1000.89H293.732V921.965Z" fill="white"/>
<path d="M320.388 921.965H306.008V1000.89H320.388V921.965Z" fill="white"/>
<path d="M751.048 927.598H682.058V1022.97H751.048V927.598Z" fill="white"/>
<path d="M820.049 949.642H751.059V1022.97H820.049V949.642Z" fill="#D5F0FE"/>
<path d="M790.725 927.312H721.734L751.059 950.758H820.049L790.725 927.312Z" fill="#B1D8E8"/>
<path d="M787.175 960.536H780.181V984.397H787.175V960.536Z" fill="white"/>
<path d="M800.131 960.536H793.137V984.397H800.131V960.536Z" fill="white"/>
<path d="M813.087 960.536H806.093V984.397H813.087V960.536Z" fill="white"/>
<path d="M114.172 796.345H53.6958V807.197H114.162V796.345H114.172Z" fill="white"/>
<path d="M114.172 816.508H53.6958V827.36H114.162V816.508H114.172Z" fill="white"/>
<path d="M114.172 836.67H53.6958V847.522H114.162V836.67H114.172Z" fill="white"/>
<path d="M114.172 856.822H53.6958V867.674H114.162V856.822H114.172Z" fill="white"/>
<path d="M114.172 876.984H53.6958V887.836H114.162V876.984H114.172Z" fill="white"/>
<path d="M114.172 897.147H53.6958V907.999H114.162V897.147H114.172Z" fill="white"/>
<path d="M114.172 917.31H53.6958V928.161H114.162V917.31H114.172Z" fill="white"/>
<path d="M114.172 937.472H53.6958V948.323H114.162V937.472H114.172Z" fill="white"/>
<path d="M114.172 957.634H53.6958V968.486H114.162V957.634H114.172Z" fill="white"/>
<path d="M114.172 977.797H53.6958V988.649H114.162V977.797H114.172Z" fill="white"/>
<path d="M75.3989 782.379L117.265 1005.71H151.372V783.931L75.3989 782.379Z" fill="#D5F0FE"/>
<path d="M450.822 951.416H381.056V1022.97H399.656V984.779C399.656 975.819 406.979 968.496 415.939 968.496C424.899 968.496 432.222 975.83 432.222 984.779V1022.97H450.822V951.416Z" fill="#D5F0FE"/>
<path d="M415.939 968.485C406.979 968.485 399.656 975.819 399.656 984.768V1022.96H432.222V984.768C432.222 975.808 424.899 968.485 415.939 968.485Z" fill="white"/>
<path d="M1023.95 893.151H900.348L873.447 870.533H1050.85L1023.95 893.151V893.151Z" fill="#E6F6FE"/>
<path d="M331.644 907.69L220.012 1022.97H331.644V907.69Z" fill="#D5F0FE"/>
<path d="M449.483 956.019L384.373 1022.96H449.483V956.019Z" fill="#D5F0FE"/>
<path d="M441.214 893.99L396.212 940.256H441.214V893.99V893.99Z" fill="#D5F0FE"/>
<path d="M430.872 846.427L401.962 876.144H430.872V846.427Z" fill="#D5F0FE"/>
<path d="M416.769 744.127H412.113V795.824H416.769V744.127V744.127Z" fill="#BDE8FD"/>
<path d="M600.249 988.935L589.546 979.125L604.214 975.681L605.447 976.808V970.962L594.882 961.269L605.447 958.782V954.52L591.173 957.868L580.47 948.047L595.137 944.603L605.447 954.052V948.206L600.207 943.402L605.447 942.169V937.897L596.508 939.99L585.805 930.18L600.473 926.737L605.447 931.307V921.305L601.833 922.156L591.13 912.345L605.447 908.987V902.737L596.466 894.5L605.447 892.396V888.123L592.756 891.099L582.053 881.278L596.721 877.834L605.447 885.838V879.992L601.801 876.644L605.447 875.783V871.521L598.092 873.243L587.389 863.433L602.056 859.989L605.447 863.103V854.93L603.427 855.408L592.724 845.587L605.457 842.601V834.565H599.133L603.693 838.742L589.026 842.186L584.71 838.222L581.522 841.145L583.956 843.377L551.974 850.88V855.142L571.159 850.636L569.118 852.506L578.62 861.211L563.953 864.655L559.914 860.946L556.725 863.868L558.883 865.845L551.985 867.461V871.723L562.592 869.236L573.295 879.046L558.628 882.49L551.985 876.4V882.245L553.547 883.68L551.985 884.052V888.325L557.257 887.092L567.96 896.902L553.292 900.346L551.985 899.145V904.99L562.635 914.748L551.985 917.245V921.518L566.334 918.149L577.037 927.959L562.369 931.402L551.974 921.879V927.725L557.289 932.593L551.974 933.836V938.109L560.987 935.994L571.69 945.815L557.023 949.259L551.964 944.624V954.711L555.652 953.85L566.355 963.66L551.964 967.04V973.205L561.03 981.516L551.964 983.642V987.915L564.729 984.917L575.432 994.728L560.764 998.171L551.964 990.094V995.939L555.694 999.362L551.964 1000.23V1004.51L559.393 1002.76L570.096 1012.58L555.429 1016.03L551.953 1012.85V1021.12L554.058 1020.63L556.64 1023H563.017L559.138 1019.44L573.806 1016L578.121 1019.96L581.309 1017.04L578.875 1014.81L605.447 1008.57V1004.3L591.672 1007.54L593.713 1005.66L584.211 996.96L598.878 993.516L602.917 997.215L605.447 994.898V993.675L603.959 992.315L605.447 991.964V987.692L600.26 988.914L600.249 988.935ZM600.505 972.28L585.837 975.724L575.134 965.903L589.802 962.459L600.505 972.28ZM602.088 905.522L587.421 908.966L576.718 899.145L591.385 895.701L602.088 905.511V905.522ZM572.966 850.243L587.633 846.799L598.336 856.62L583.669 860.063L572.966 850.243ZM567.63 868.088L582.298 864.644L593.001 874.465L578.333 877.909L567.63 868.088V868.088ZM562.295 885.933L576.962 882.49L587.665 892.311L572.998 895.754L562.295 885.933ZM556.959 903.779L571.627 900.335L582.33 910.156L567.662 913.6L556.959 903.779ZM571.372 916.99L586.039 913.546L596.742 923.367L582.075 926.811L571.372 916.99ZM566.036 934.836L580.703 931.392L591.406 941.213L576.739 944.656L566.036 934.836ZM560.7 952.681L575.368 949.237L586.071 959.058L571.403 962.502L560.7 952.692V952.681ZM555.365 970.526L570.032 967.083L580.735 976.904L566.068 980.347L555.365 970.537V970.526ZM589.823 1007.96L575.155 1011.4L564.452 1001.58L579.12 998.139L589.823 1007.96ZM580.491 993.558L569.788 983.738L584.455 980.294L595.158 990.115L580.491 993.558Z" fill="#C8ECFD"/>
<path d="M921.297 820.589H830.529V1022.97H921.297V820.589Z" fill="#D5F0FE"/>
<path d="M921.297 838.7H872.129V847.522H921.297V838.7Z" fill="white"/>
<path d="M921.297 855.09H872.129V863.922H921.297V855.09Z" fill="white"/>
<path d="M921.297 871.489H872.129V880.322H921.297V871.489Z" fill="white"/>
<path d="M921.297 887.879H872.129V896.711H921.297V887.879Z" fill="white"/>
<path d="M921.297 904.268H872.129V913.1H921.297V904.268Z" fill="white"/>
<path d="M921.297 920.668H872.129V929.5H921.297V920.668Z" fill="white"/>
<path d="M921.297 937.058H872.129V945.89H921.297V937.058Z" fill="white"/>
<path d="M921.297 953.446H872.129V962.279H921.297V953.446Z" fill="white"/>
<path d="M921.297 969.847H872.129V978.668H921.297V969.847Z" fill="white"/>
<path d="M921.297 986.235H872.129V995.068H921.297V986.235Z" fill="white"/>
<path d="M903.642 827.349L869.599 1008.93H841.869V828.613L903.642 827.349Z" fill="#D5F0FE"/>
<path d="M720.268 968.071C711.329 968.071 704.017 975.384 704.017 984.322V1022.44H736.519V984.322C736.519 975.384 729.206 968.071 720.268 968.071V968.071Z" fill="#89D4F4"/>
<path d="M715.378 845.396H623.909V1022.96H715.378V845.396V845.396Z" fill="#BDE8FD"/>
<path d="M639.012 879.514C645.644 879.514 651.022 874.135 651.022 867.493C651.022 860.85 645.644 855.472 639.012 855.472C632.38 855.472 627.001 860.85 627.001 867.493C627.001 874.135 632.38 879.514 639.012 879.514Z" fill="white"/>
<path d="M670.664 879.514C677.296 879.514 682.674 874.135 682.674 867.493C682.674 860.85 677.296 855.472 670.664 855.472C664.032 855.472 658.654 860.85 658.654 867.493C658.654 874.135 664.032 879.514 670.664 879.514Z" fill="white"/>
<path d="M702.337 879.514C708.969 879.514 714.347 874.135 714.347 867.493C714.347 860.85 708.969 855.472 702.337 855.472C695.705 855.472 690.327 860.85 690.327 867.493C690.327 874.135 695.705 879.514 702.337 879.514Z" fill="white"/>
<path d="M652.999 890.939H646.792V927.13H652.999V890.939Z" fill="white"/>
<path d="M666.434 890.939H660.227V927.13H666.434V890.939Z" fill="white"/>
<path d="M679.879 890.939H673.672V927.13H679.879V890.939Z" fill="white"/>
<path d="M693.313 890.939H687.106V927.13H693.313V890.939Z" fill="white"/>
<path d="M706.748 890.939H700.552V927.13H706.748V890.939Z" fill="white"/>
<path d="M637.492 962.289H631.285V998.479H637.492V962.289Z" fill="white"/>
<path d="M650.938 962.289H644.73V998.479H650.938V962.289Z" fill="white"/>
<path d="M664.372 962.289H658.175V998.479H664.372V962.289Z" fill="white"/>
<path d="M677.806 962.289H671.599V998.479H677.806V962.289Z" fill="white"/>
<path d="M691.241 962.289H685.034V998.479H691.241V962.289Z" fill="white"/>
<path d="M715.379 885.722L623.898 959.888H715.379V885.722V885.722Z" fill="#BDE8FD"/>
<path d="M623.898 947.76L715.379 1021.93H623.898V947.76Z" fill="#BDE8FD"/>
<path d="M436.527 875.953H392.875L380.642 886.157H448.771L436.537 875.953H436.527Z" fill="#A1DFFC"/>
<path d="M442.351 939.534H387.051L371.543 952.459H457.858L442.351 939.534Z" fill="#A1DFFC"/>
<path d="M331.109 398.3H227.771V395.633V127H442.159V190.2" fill="#0A8996"/>
<path d="M331.109 398.3H227.771V395.633V127H442.159V190.2" stroke="#244878" stroke-width="3" stroke-linecap="round" stroke-linejoin="round"/>
<rect x="269" y="210" width="96" height="81" fill="white" stroke="black" stroke-width="3"/>
<path fill-rule="evenodd" clip-rule="evenodd" d="M391 560C392.654 560 394 561.571 394 563.5C394 565.429 392.654 567 391 567C389.346 567 388 565.429 388 563.5C388 561.571 389.346 560 391 560Z" fill="white"/>
<path fill-rule="evenodd" clip-rule="evenodd" d="M494 581C495.108 581 496 581.892 496 583C496 584.108 495.108 585 494 585C492.892 585 492 584.108 492 583C492 581.892 492.892 581 494 581Z" fill="white"/>
<path fill-rule="evenodd" clip-rule="evenodd" d="M511.507 550C512.329 550 513 550.674 513 551.5C513 552.326 512.329 553 511.507 553C510.685 553 510 552.326 510 551.5C510 550.674 510.671 550 511.507 550Z" fill="white"/>
<path fill-rule="evenodd" clip-rule="evenodd" d="M555 658C555.547 658 556 658.453 556 659C556 659.547 555.547 660 555 660C554.453 660 554 659.547 554 659C554 658.453 554.453 658 555 658Z" fill="white"/>
<rect x="735" y="738" width="245" height="139" rx="19" fill="#EEF5FF" stroke="#14335D" stroke-width="4"/>
<path d="M786.684 800C786.516 800 786.376 799.944 786.264 799.832C786.152 799.72 786.096 799.58 786.096 799.412C786.096 799.356 786.105 799.3 786.124 799.244C786.142 799.188 786.161 799.132 786.18 799.076L792.452 790.004L786.572 781.324C786.516 781.212 786.488 781.1 786.488 780.988C786.488 780.82 786.544 780.68 786.656 780.568C786.768 780.456 786.898 780.4 787.048 780.4H789.932C790.156 780.4 790.333 780.456 790.464 780.568C790.594 780.68 790.706 780.801 790.8 780.932L794.916 786.98L799.06 780.932C799.134 780.801 799.237 780.68 799.368 780.568C799.517 780.456 799.704 780.4 799.928 780.4H802.644C802.812 780.4 802.952 780.456 803.064 780.568C803.176 780.68 803.232 780.82 803.232 780.988C803.232 781.1 803.194 781.212 803.12 781.324L797.268 790.004L803.54 799.076C803.577 799.132 803.605 799.188 803.624 799.244C803.642 799.3 803.652 799.356 803.652 799.412C803.652 799.58 803.586 799.72 803.456 799.832C803.344 799.944 803.213 800 803.064 800H800.096C799.872 800 799.694 799.944 799.564 799.832C799.433 799.72 799.33 799.608 799.256 799.496L794.776 793.168L790.38 799.496C790.305 799.608 790.202 799.72 790.072 799.832C789.941 799.944 789.754 800 789.512 800H786.684ZM806.679 805.32C806.492 805.32 806.334 805.255 806.203 805.124C806.072 804.993 806.007 804.835 806.007 804.648V786.112C806.007 785.925 806.072 785.767 806.203 785.636C806.334 785.505 806.492 785.44 806.679 785.44H808.891C809.096 785.44 809.255 785.505 809.367 785.636C809.498 785.767 809.563 785.925 809.563 786.112V787.232C810.011 786.635 810.599 786.14 811.327 785.748C812.055 785.356 812.96 785.16 814.043 785.16C815.032 785.16 815.891 785.319 816.619 785.636C817.347 785.953 817.954 786.411 818.439 787.008C818.924 787.587 819.298 788.277 819.559 789.08C819.82 789.883 819.97 790.769 820.007 791.74C820.026 792.057 820.035 792.384 820.035 792.72C820.035 793.056 820.026 793.392 820.007 793.728C819.988 794.661 819.848 795.529 819.587 796.332C819.326 797.116 818.943 797.807 818.439 798.404C817.954 798.983 817.347 799.44 816.619 799.776C815.891 800.112 815.032 800.28 814.043 800.28C813.035 800.28 812.176 800.103 811.467 799.748C810.758 799.375 810.179 798.889 809.731 798.292V804.648C809.731 804.835 809.666 804.993 809.535 805.124C809.423 805.255 809.264 805.32 809.059 805.32H806.679ZM813.007 797.284C813.81 797.284 814.435 797.116 814.883 796.78C815.331 796.425 815.648 795.968 815.835 795.408C816.04 794.848 816.162 794.232 816.199 793.56C816.236 793 816.236 792.44 816.199 791.88C816.162 791.208 816.04 790.592 815.835 790.032C815.648 789.472 815.331 789.024 814.883 788.688C814.435 788.333 813.81 788.156 813.007 788.156C812.242 788.156 811.616 788.333 811.131 788.688C810.664 789.043 810.319 789.5 810.095 790.06C809.89 790.601 809.768 791.161 809.731 791.74C809.712 792.076 809.703 792.431 809.703 792.804C809.703 793.177 809.712 793.541 809.731 793.896C809.75 794.456 809.88 794.997 810.123 795.52C810.366 796.024 810.72 796.444 811.187 796.78C811.654 797.116 812.26 797.284 813.007 797.284ZM823.85 800C823.663 800 823.505 799.935 823.374 799.804C823.243 799.673 823.178 799.515 823.178 799.328V786.14C823.178 785.935 823.243 785.767 823.374 785.636C823.505 785.505 823.663 785.44 823.85 785.44H826.118C826.305 785.44 826.463 785.505 826.594 785.636C826.743 785.767 826.818 785.935 826.818 786.14V787.288C827.247 786.691 827.798 786.233 828.47 785.916C829.161 785.599 829.954 785.44 830.85 785.44H831.998C832.203 785.44 832.362 785.505 832.474 785.636C832.605 785.767 832.67 785.925 832.67 786.112V788.128C832.67 788.315 832.605 788.473 832.474 788.604C832.362 788.735 832.203 788.8 831.998 788.8H829.814C828.918 788.8 828.218 789.052 827.714 789.556C827.229 790.06 826.986 790.751 826.986 791.628V799.328C826.986 799.515 826.921 799.673 826.79 799.804C826.659 799.935 826.491 800 826.286 800H823.85ZM840.934 800.28C838.862 800.28 837.22 799.683 836.006 798.488C834.793 797.293 834.14 795.595 834.046 793.392C834.028 793.205 834.018 792.972 834.018 792.692C834.018 792.393 834.028 792.16 834.046 791.992C834.121 790.592 834.438 789.379 834.998 788.352C835.577 787.325 836.37 786.541 837.378 786C838.386 785.44 839.572 785.16 840.934 785.16C842.446 785.16 843.716 785.477 844.742 786.112C845.769 786.728 846.544 787.596 847.066 788.716C847.589 789.817 847.85 791.096 847.85 792.552V793.14C847.85 793.327 847.785 793.485 847.654 793.616C847.524 793.747 847.356 793.812 847.15 793.812H837.854C837.854 793.812 837.854 793.84 837.854 793.896C837.854 793.952 837.854 793.999 837.854 794.036C837.873 794.689 837.994 795.296 838.218 795.856C838.461 796.397 838.806 796.836 839.254 797.172C839.721 797.508 840.272 797.676 840.906 797.676C841.429 797.676 841.868 797.601 842.222 797.452C842.577 797.284 842.866 797.097 843.09 796.892C843.314 796.687 843.473 796.519 843.566 796.388C843.734 796.164 843.865 796.033 843.958 795.996C844.07 795.94 844.229 795.912 844.434 795.912H846.842C847.029 795.912 847.178 795.968 847.29 796.08C847.421 796.192 847.477 796.332 847.458 796.5C847.44 796.799 847.281 797.163 846.982 797.592C846.702 798.021 846.292 798.441 845.75 798.852C845.209 799.263 844.528 799.608 843.706 799.888C842.904 800.149 841.98 800.28 840.934 800.28ZM837.854 791.46H844.042V791.376C844.042 790.648 843.921 790.013 843.678 789.472C843.436 788.931 843.081 788.501 842.614 788.184C842.148 787.867 841.588 787.708 840.934 787.708C840.281 787.708 839.721 787.867 839.254 788.184C838.788 788.501 838.433 788.931 838.19 789.472C837.966 790.013 837.854 790.648 837.854 791.376V791.46ZM856.339 800.28C855.219 800.28 854.257 800.149 853.455 799.888C852.671 799.627 852.027 799.3 851.523 798.908C851.019 798.516 850.645 798.124 850.403 797.732C850.16 797.34 850.029 797.013 850.011 796.752C849.992 796.547 850.048 796.388 850.179 796.276C850.328 796.145 850.487 796.08 850.655 796.08H852.867C852.941 796.08 853.007 796.089 853.063 796.108C853.119 796.127 853.193 796.183 853.287 796.276C853.529 796.481 853.781 796.696 854.043 796.92C854.323 797.144 854.649 797.34 855.023 797.508C855.396 797.657 855.863 797.732 856.423 797.732C857.151 797.732 857.757 797.592 858.243 797.312C858.747 797.013 858.999 796.593 858.999 796.052C858.999 795.66 858.887 795.343 858.663 795.1C858.457 794.857 858.065 794.643 857.487 794.456C856.908 794.251 856.087 794.036 855.023 793.812C853.977 793.569 853.109 793.261 852.419 792.888C851.728 792.515 851.215 792.048 850.879 791.488C850.543 790.928 850.375 790.275 850.375 789.528C850.375 788.8 850.589 788.109 851.019 787.456C851.467 786.784 852.12 786.233 852.979 785.804C853.856 785.375 854.939 785.16 856.227 785.16C857.235 785.16 858.112 785.291 858.859 785.552C859.605 785.795 860.221 786.103 860.707 786.476C861.211 786.849 861.593 787.232 861.855 787.624C862.116 787.997 862.256 788.324 862.275 788.604C862.293 788.809 862.237 788.977 862.107 789.108C861.976 789.22 861.827 789.276 861.659 789.276H859.587C859.493 789.276 859.409 789.257 859.335 789.22C859.26 789.183 859.185 789.136 859.111 789.08C858.905 788.893 858.681 788.697 858.439 788.492C858.196 788.287 857.897 788.109 857.543 787.96C857.207 787.792 856.759 787.708 856.199 787.708C855.489 787.708 854.948 787.867 854.575 788.184C854.201 788.483 854.015 788.865 854.015 789.332C854.015 789.649 854.099 789.929 854.267 790.172C854.453 790.396 854.817 790.611 855.359 790.816C855.9 791.021 856.721 791.236 857.823 791.46C859.073 791.684 860.063 792.02 860.791 792.468C861.537 792.897 862.06 793.401 862.359 793.98C862.676 794.54 862.835 795.165 862.835 795.856C862.835 796.696 862.583 797.452 862.079 798.124C861.593 798.796 860.865 799.328 859.895 799.72C858.943 800.093 857.757 800.28 856.339 800.28ZM871.241 800.28C870.121 800.28 869.16 800.149 868.357 799.888C867.573 799.627 866.929 799.3 866.425 798.908C865.921 798.516 865.548 798.124 865.305 797.732C865.062 797.34 864.932 797.013 864.913 796.752C864.894 796.547 864.95 796.388 865.081 796.276C865.23 796.145 865.389 796.08 865.557 796.08H867.769C867.844 796.08 867.909 796.089 867.965 796.108C868.021 796.127 868.096 796.183 868.189 796.276C868.432 796.481 868.684 796.696 868.945 796.92C869.225 797.144 869.552 797.34 869.925 797.508C870.298 797.657 870.765 797.732 871.325 797.732C872.053 797.732 872.66 797.592 873.145 797.312C873.649 797.013 873.901 796.593 873.901 796.052C873.901 795.66 873.789 795.343 873.565 795.1C873.36 794.857 872.968 794.643 872.389 794.456C871.81 794.251 870.989 794.036 869.925 793.812C868.88 793.569 868.012 793.261 867.321 792.888C866.63 792.515 866.117 792.048 865.781 791.488C865.445 790.928 865.277 790.275 865.277 789.528C865.277 788.8 865.492 788.109 865.921 787.456C866.369 786.784 867.022 786.233 867.881 785.804C868.758 785.375 869.841 785.16 871.129 785.16C872.137 785.16 873.014 785.291 873.761 785.552C874.508 785.795 875.124 786.103 875.609 786.476C876.113 786.849 876.496 787.232 876.757 787.624C877.018 787.997 877.158 788.324 877.177 788.604C877.196 788.809 877.14 788.977 877.009 789.108C876.878 789.22 876.729 789.276 876.561 789.276H874.489C874.396 789.276 874.312 789.257 874.237 789.22C874.162 789.183 874.088 789.136 874.013 789.08C873.808 788.893 873.584 788.697 873.341 788.492C873.098 788.287 872.8 788.109 872.445 787.96C872.109 787.792 871.661 787.708 871.101 787.708C870.392 787.708 869.85 787.867 869.477 788.184C869.104 788.483 868.917 788.865 868.917 789.332C868.917 789.649 869.001 789.929 869.169 790.172C869.356 790.396 869.72 790.611 870.261 790.816C870.802 791.021 871.624 791.236 872.725 791.46C873.976 791.684 874.965 792.02 875.693 792.468C876.44 792.897 876.962 793.401 877.261 793.98C877.578 794.54 877.737 795.165 877.737 795.856C877.737 796.696 877.485 797.452 876.981 798.124C876.496 798.796 875.768 799.328 874.797 799.72C873.845 800.093 872.66 800.28 871.241 800.28ZM888.579 800.28C886.862 800.28 885.397 799.981 884.183 799.384C882.989 798.787 882.055 797.928 881.383 796.808C880.73 795.669 880.375 794.316 880.319 792.748C880.301 791.945 880.291 791.087 880.291 790.172C880.291 789.239 880.301 788.361 880.319 787.54C880.375 785.991 880.73 784.665 881.383 783.564C882.055 782.463 882.998 781.613 884.211 781.016C885.443 780.419 886.899 780.12 888.579 780.12C889.942 780.12 891.137 780.307 892.163 780.68C893.19 781.035 894.039 781.501 894.711 782.08C895.402 782.64 895.915 783.247 896.251 783.9C896.606 784.553 896.793 785.16 896.811 785.72C896.83 785.888 896.783 786.028 896.671 786.14C896.559 786.252 896.41 786.308 896.223 786.308H893.339C893.153 786.308 893.013 786.271 892.919 786.196C892.826 786.121 892.742 786.009 892.667 785.86C892.518 785.468 892.285 785.085 891.967 784.712C891.65 784.32 891.221 783.993 890.679 783.732C890.138 783.471 889.438 783.34 888.579 783.34C887.31 783.34 886.293 783.676 885.527 784.348C884.781 785.02 884.379 786.131 884.323 787.68C884.267 789.304 884.267 790.947 884.323 792.608C884.379 794.195 884.79 795.333 885.555 796.024C886.339 796.715 887.366 797.06 888.635 797.06C889.475 797.06 890.222 796.911 890.875 796.612C891.547 796.313 892.07 795.847 892.443 795.212C892.835 794.577 893.031 793.765 893.031 792.776V791.908H889.615C889.429 791.908 889.27 791.843 889.139 791.712C889.009 791.581 888.943 791.413 888.943 791.208V789.724C888.943 789.519 889.009 789.351 889.139 789.22C889.27 789.089 889.429 789.024 889.615 789.024H896.307C896.513 789.024 896.671 789.089 896.783 789.22C896.914 789.351 896.979 789.519 896.979 789.724V792.664C896.979 794.232 896.634 795.585 895.943 796.724C895.271 797.863 894.301 798.74 893.031 799.356C891.781 799.972 890.297 800.28 888.579 800.28ZM904.461 800.28C903.49 800.28 902.613 800.093 901.829 799.72C901.045 799.328 900.419 798.815 899.953 798.18C899.505 797.527 899.281 796.799 899.281 795.996C899.281 794.689 899.803 793.653 900.849 792.888C901.913 792.104 903.313 791.581 905.049 791.32L908.885 790.76V790.172C908.885 789.388 908.689 788.781 908.297 788.352C907.905 787.923 907.233 787.708 906.281 787.708C905.609 787.708 905.058 787.848 904.629 788.128C904.218 788.389 903.91 788.744 903.705 789.192C903.555 789.435 903.341 789.556 903.061 789.556H900.849C900.643 789.556 900.485 789.5 900.373 789.388C900.279 789.276 900.233 789.127 900.233 788.94C900.251 788.641 900.373 788.277 900.597 787.848C900.821 787.419 901.175 787.008 901.661 786.616C902.146 786.205 902.771 785.86 903.537 785.58C904.302 785.3 905.226 785.16 906.309 785.16C907.485 785.16 908.474 785.309 909.277 785.608C910.098 785.888 910.751 786.271 911.237 786.756C911.722 787.241 912.077 787.811 912.301 788.464C912.525 789.117 912.637 789.808 912.637 790.536V799.328C912.637 799.515 912.571 799.673 912.441 799.804C912.31 799.935 912.151 800 911.965 800H909.697C909.491 800 909.323 799.935 909.193 799.804C909.081 799.673 909.025 799.515 909.025 799.328V798.236C908.782 798.591 908.455 798.927 908.045 799.244C907.634 799.543 907.13 799.795 906.533 800C905.954 800.187 905.263 800.28 904.461 800.28ZM905.413 797.62C906.066 797.62 906.654 797.48 907.177 797.2C907.718 796.92 908.138 796.491 908.437 795.912C908.754 795.315 908.913 794.568 908.913 793.672V793.084L906.113 793.532C905.011 793.7 904.19 793.971 903.649 794.344C903.107 794.717 902.837 795.175 902.837 795.716C902.837 796.127 902.958 796.481 903.201 796.78C903.462 797.06 903.789 797.275 904.181 797.424C904.573 797.555 904.983 797.62 905.413 797.62ZM922.672 800C921.552 800 920.609 799.804 919.844 799.412C919.079 799.02 918.509 798.441 918.136 797.676C917.763 796.892 917.576 795.921 917.576 794.764V788.408H915.364C915.177 788.408 915.019 788.343 914.888 788.212C914.757 788.081 914.692 787.923 914.692 787.736V786.112C914.692 785.925 914.757 785.767 914.888 785.636C915.019 785.505 915.177 785.44 915.364 785.44H917.576V780.792C917.576 780.605 917.632 780.447 917.744 780.316C917.875 780.185 918.043 780.12 918.248 780.12H920.516C920.703 780.12 920.861 780.185 920.992 780.316C921.123 780.447 921.188 780.605 921.188 780.792V785.44H924.688C924.875 785.44 925.033 785.505 925.164 785.636C925.295 785.767 925.36 785.925 925.36 786.112V787.736C925.36 787.923 925.295 788.081 925.164 788.212C925.033 788.343 924.875 788.408 924.688 788.408H921.188V794.484C921.188 795.249 921.319 795.847 921.58 796.276C921.86 796.705 922.336 796.92 923.008 796.92H924.94C925.127 796.92 925.285 796.985 925.416 797.116C925.547 797.247 925.612 797.405 925.612 797.592V799.328C925.612 799.515 925.547 799.673 925.416 799.804C925.285 799.935 925.127 800 924.94 800H922.672ZM934.368 800.28C932.296 800.28 930.653 799.683 929.44 798.488C928.227 797.293 927.573 795.595 927.48 793.392C927.461 793.205 927.452 792.972 927.452 792.692C927.452 792.393 927.461 792.16 927.48 791.992C927.555 790.592 927.872 789.379 928.432 788.352C929.011 787.325 929.804 786.541 930.812 786C931.82 785.44 933.005 785.16 934.368 785.16C935.88 785.16 937.149 785.477 938.176 786.112C939.203 786.728 939.977 787.596 940.5 788.716C941.023 789.817 941.284 791.096 941.284 792.552V793.14C941.284 793.327 941.219 793.485 941.088 793.616C940.957 793.747 940.789 793.812 940.584 793.812H931.288C931.288 793.812 931.288 793.84 931.288 793.896C931.288 793.952 931.288 793.999 931.288 794.036C931.307 794.689 931.428 795.296 931.652 795.856C931.895 796.397 932.24 796.836 932.688 797.172C933.155 797.508 933.705 797.676 934.34 797.676C934.863 797.676 935.301 797.601 935.656 797.452C936.011 797.284 936.3 797.097 936.524 796.892C936.748 796.687 936.907 796.519 937 796.388C937.168 796.164 937.299 796.033 937.392 795.996C937.504 795.94 937.663 795.912 937.868 795.912H940.276C940.463 795.912 940.612 795.968 940.724 796.08C940.855 796.192 940.911 796.332 940.892 796.5C940.873 796.799 940.715 797.163 940.416 797.592C940.136 798.021 939.725 798.441 939.184 798.852C938.643 799.263 937.961 799.608 937.14 799.888C936.337 800.149 935.413 800.28 934.368 800.28ZM931.288 791.46H937.476V791.376C937.476 790.648 937.355 790.013 937.112 789.472C936.869 788.931 936.515 788.501 936.048 788.184C935.581 787.867 935.021 787.708 934.368 787.708C933.715 787.708 933.155 787.867 932.688 788.184C932.221 788.501 931.867 788.931 931.624 789.472C931.4 790.013 931.288 790.648 931.288 791.376V791.46ZM822.265 833.28C820.529 833.28 819.073 833.028 817.897 832.524C816.74 832.001 815.853 831.329 815.237 830.508C814.64 829.668 814.323 828.791 814.285 827.876C814.285 827.708 814.341 827.568 814.453 827.456C814.565 827.344 814.705 827.288 814.873 827.288H817.365C817.608 827.288 817.785 827.344 817.897 827.456C818.028 827.549 818.14 827.671 818.233 827.82C818.345 828.175 818.56 828.529 818.877 828.884C819.195 829.22 819.624 829.5 820.165 829.724C820.725 829.948 821.425 830.06 822.265 830.06C823.609 830.06 824.608 829.836 825.261 829.388C825.933 828.94 826.269 828.333 826.269 827.568C826.269 827.027 826.092 826.597 825.737 826.28C825.383 825.944 824.832 825.645 824.085 825.384C823.357 825.104 822.387 824.815 821.173 824.516C819.773 824.18 818.597 823.779 817.645 823.312C816.712 822.827 816.003 822.22 815.517 821.492C815.051 820.764 814.817 819.84 814.817 818.72C814.817 817.637 815.107 816.676 815.685 815.836C816.283 814.996 817.123 814.333 818.205 813.848C819.307 813.363 820.613 813.12 822.125 813.12C823.339 813.12 824.412 813.288 825.345 813.624C826.279 813.941 827.053 814.371 827.669 814.912C828.285 815.435 828.752 816.004 829.069 816.62C829.405 817.217 829.583 817.805 829.601 818.384C829.601 818.533 829.545 818.673 829.433 818.804C829.34 818.916 829.2 818.972 829.013 818.972H826.409C826.26 818.972 826.111 818.935 825.961 818.86C825.812 818.785 825.691 818.645 825.597 818.44C825.485 817.861 825.121 817.367 824.505 816.956C823.889 816.545 823.096 816.34 822.125 816.34C821.117 816.34 820.305 816.527 819.689 816.9C819.073 817.273 818.765 817.852 818.765 818.636C818.765 819.159 818.915 819.597 819.213 819.952C819.531 820.288 820.025 820.587 820.697 820.848C821.388 821.109 822.293 821.389 823.413 821.688C825 822.043 826.297 822.453 827.305 822.92C828.313 823.387 829.051 823.984 829.517 824.712C829.984 825.421 830.217 826.327 830.217 827.428C830.217 828.66 829.881 829.715 829.209 830.592C828.556 831.451 827.632 832.113 826.437 832.58C825.243 833.047 823.852 833.28 822.265 833.28ZM839.53 833.28C838.037 833.28 836.777 833.019 835.75 832.496C834.742 831.973 833.968 831.236 833.426 830.284C832.904 829.332 832.605 828.221 832.53 826.952C832.512 826.616 832.502 826.205 832.502 825.72C832.502 825.235 832.512 824.824 832.53 824.488C832.605 823.2 832.913 822.089 833.454 821.156C834.014 820.204 834.798 819.467 835.806 818.944C836.833 818.421 838.074 818.16 839.53 818.16C840.986 818.16 842.218 818.421 843.226 818.944C844.253 819.467 845.037 820.204 845.578 821.156C846.138 822.089 846.456 823.2 846.53 824.488C846.549 824.824 846.558 825.235 846.558 825.72C846.558 826.205 846.549 826.616 846.53 826.952C846.456 828.221 846.148 829.332 845.606 830.284C845.084 831.236 844.309 831.973 843.282 832.496C842.274 833.019 841.024 833.28 839.53 833.28ZM839.53 830.508C840.52 830.508 841.285 830.2 841.826 829.584C842.368 828.949 842.666 828.025 842.722 826.812C842.741 826.532 842.75 826.168 842.75 825.72C842.75 825.272 842.741 824.908 842.722 824.628C842.666 823.433 842.368 822.519 841.826 821.884C841.285 821.249 840.52 820.932 839.53 820.932C838.541 820.932 837.776 821.249 837.234 821.884C836.693 822.519 836.394 823.433 836.338 824.628C836.32 824.908 836.31 825.272 836.31 825.72C836.31 826.168 836.32 826.532 836.338 826.812C836.394 828.025 836.693 828.949 837.234 829.584C837.776 830.2 838.541 830.508 839.53 830.508ZM855.961 833.28C854.617 833.28 853.431 833.028 852.405 832.524C851.397 832.02 850.603 831.292 850.025 830.34C849.465 829.369 849.157 828.203 849.101 826.84C849.082 826.56 849.073 826.196 849.073 825.748C849.073 825.281 849.082 824.899 849.101 824.6C849.157 823.237 849.465 822.08 850.025 821.128C850.603 820.157 851.397 819.42 852.405 818.916C853.431 818.412 854.617 818.16 855.961 818.16C857.155 818.16 858.173 818.328 859.013 818.664C859.853 819 860.543 819.42 861.085 819.924C861.626 820.428 862.027 820.96 862.289 821.52C862.569 822.061 862.718 822.556 862.737 823.004C862.755 823.209 862.69 823.377 862.541 823.508C862.41 823.62 862.251 823.676 862.065 823.676H859.601C859.414 823.676 859.265 823.629 859.153 823.536C859.059 823.443 858.966 823.303 858.873 823.116C858.593 822.369 858.219 821.847 857.753 821.548C857.305 821.231 856.726 821.072 856.017 821.072C855.083 821.072 854.337 821.371 853.777 821.968C853.235 822.547 852.946 823.471 852.909 824.74C852.871 825.449 852.871 826.103 852.909 826.7C852.946 827.988 853.235 828.921 853.777 829.5C854.337 830.079 855.083 830.368 856.017 830.368C856.745 830.368 857.333 830.219 857.781 829.92C858.229 829.603 858.593 829.071 858.873 828.324C858.966 828.137 859.059 827.997 859.153 827.904C859.265 827.811 859.414 827.764 859.601 827.764H862.065C862.251 827.764 862.41 827.829 862.541 827.96C862.69 828.072 862.755 828.231 862.737 828.436C862.718 828.772 862.625 829.155 862.457 829.584C862.307 829.995 862.055 830.424 861.701 830.872C861.365 831.301 860.935 831.703 860.413 832.076C859.89 832.431 859.255 832.72 858.509 832.944C857.781 833.168 856.931 833.28 855.961 833.28ZM866.329 833C866.142 833 865.983 832.935 865.853 832.804C865.722 832.673 865.657 832.515 865.657 832.328V819.112C865.657 818.925 865.722 818.767 865.853 818.636C865.983 818.505 866.142 818.44 866.329 818.44H868.653C868.858 818.44 869.017 818.505 869.129 818.636C869.259 818.767 869.325 818.925 869.325 819.112V832.328C869.325 832.515 869.259 832.673 869.129 832.804C869.017 832.935 868.858 833 868.653 833H866.329ZM866.217 816.032C866.011 816.032 865.843 815.976 865.713 815.864C865.601 815.733 865.545 815.565 865.545 815.36V813.344C865.545 813.157 865.601 812.999 865.713 812.868C865.843 812.737 866.011 812.672 866.217 812.672H868.765C868.97 812.672 869.138 812.737 869.269 812.868C869.399 812.999 869.465 813.157 869.465 813.344V815.36C869.465 815.565 869.399 815.733 869.269 815.864C869.138 815.976 868.97 816.032 868.765 816.032H866.217ZM879.393 833.28C877.321 833.28 875.679 832.683 874.465 831.488C873.252 830.293 872.599 828.595 872.505 826.392C872.487 826.205 872.477 825.972 872.477 825.692C872.477 825.393 872.487 825.16 872.505 824.992C872.58 823.592 872.897 822.379 873.457 821.352C874.036 820.325 874.829 819.541 875.837 819C876.845 818.44 878.031 818.16 879.393 818.16C880.905 818.16 882.175 818.477 883.201 819.112C884.228 819.728 885.003 820.596 885.525 821.716C886.048 822.817 886.309 824.096 886.309 825.552V826.14C886.309 826.327 886.244 826.485 886.113 826.616C885.983 826.747 885.815 826.812 885.609 826.812H876.313C876.313 826.812 876.313 826.84 876.313 826.896C876.313 826.952 876.313 826.999 876.313 827.036C876.332 827.689 876.453 828.296 876.677 828.856C876.92 829.397 877.265 829.836 877.713 830.172C878.18 830.508 878.731 830.676 879.365 830.676C879.888 830.676 880.327 830.601 880.681 830.452C881.036 830.284 881.325 830.097 881.549 829.892C881.773 829.687 881.932 829.519 882.025 829.388C882.193 829.164 882.324 829.033 882.417 828.996C882.529 828.94 882.688 828.912 882.893 828.912H885.301C885.488 828.912 885.637 828.968 885.749 829.08C885.88 829.192 885.936 829.332 885.917 829.5C885.899 829.799 885.74 830.163 885.441 830.592C885.161 831.021 884.751 831.441 884.209 831.852C883.668 832.263 882.987 832.608 882.165 832.888C881.363 833.149 880.439 833.28 879.393 833.28ZM876.313 824.46H882.501V824.376C882.501 823.648 882.38 823.013 882.137 822.472C881.895 821.931 881.54 821.501 881.073 821.184C880.607 820.867 880.047 820.708 879.393 820.708C878.74 820.708 878.18 820.867 877.713 821.184C877.247 821.501 876.892 821.931 876.649 822.472C876.425 823.013 876.313 823.648 876.313 824.376V824.46ZM895.807 833C894.687 833 893.744 832.804 892.979 832.412C892.214 832.02 891.644 831.441 891.271 830.676C890.898 829.892 890.711 828.921 890.711 827.764V821.408H888.499C888.312 821.408 888.154 821.343 888.023 821.212C887.892 821.081 887.827 820.923 887.827 820.736V819.112C887.827 818.925 887.892 818.767 888.023 818.636C888.154 818.505 888.312 818.44 888.499 818.44H890.711V813.792C890.711 813.605 890.767 813.447 890.879 813.316C891.01 813.185 891.178 813.12 891.383 813.12H893.651C893.838 813.12 893.996 813.185 894.127 813.316C894.258 813.447 894.323 813.605 894.323 813.792V818.44H897.823C898.01 818.44 898.168 818.505 898.299 818.636C898.43 818.767 898.495 818.925 898.495 819.112V820.736C898.495 820.923 898.43 821.081 898.299 821.212C898.168 821.343 898.01 821.408 897.823 821.408H894.323V827.484C894.323 828.249 894.454 828.847 894.715 829.276C894.995 829.705 895.471 829.92 896.143 829.92H898.075C898.262 829.92 898.42 829.985 898.551 830.116C898.682 830.247 898.747 830.405 898.747 830.592V832.328C898.747 832.515 898.682 832.673 898.551 832.804C898.42 832.935 898.262 833 898.075 833H895.807ZM903.863 838.32C903.713 838.32 903.583 838.264 903.471 838.152C903.359 838.04 903.303 837.909 903.303 837.76C903.303 837.685 903.303 837.611 903.303 837.536C903.321 837.48 903.359 837.405 903.415 837.312L905.599 832.132L900.223 819.448C900.148 819.261 900.111 819.131 900.111 819.056C900.129 818.888 900.195 818.748 900.307 818.636C900.419 818.505 900.559 818.44 900.727 818.44H902.995C903.219 818.44 903.387 818.496 903.499 818.608C903.611 818.72 903.695 818.841 903.751 818.972L907.475 828.128L911.311 818.972C911.367 818.823 911.451 818.701 911.563 818.608C911.675 818.496 911.843 818.44 912.067 818.44H914.307C914.456 818.44 914.587 818.496 914.699 818.608C914.829 818.72 914.895 818.851 914.895 819C914.895 819.112 914.857 819.261 914.783 819.448L906.859 837.788C906.784 837.937 906.691 838.059 906.579 838.152C906.467 838.264 906.299 838.32 906.075 838.32H903.863Z" fill="#060606"/>
<path d="M363.629 211H260L316.198 163L365 204.679" fill="#FD6B22"/>
<path d="M363.629 211H260L316.198 163L365 204.679" stroke="black" stroke-width="3" stroke-linecap="round" stroke-linejoin="round"/>
<path d="M516.5 599.97L488.938 594C493.663 637.778 454.156 653.365 433.812 655.687C389.712 649.319 381.969 611.909 383.609 594L351.125 599.97V608.924L316.672 614.894C253.672 626.833 234.641 680.229 233 705.434V791H325.531H548L540.125 608.924C523.587 608.924 517.484 602.955 516.5 599.97Z" fill="#14335D"/>
<path d="M338.278 232.903H301.262V266.816H338.278V232.903Z" stroke="#0A8996" stroke-width="3" stroke-linecap="round" stroke-linejoin="round"/>
<path d="M319.771 232.903V265.274" stroke="#0A8996" stroke-width="3" stroke-linecap="round" stroke-linejoin="round"/>
<path d="M322.855 249.859H335.194" stroke="#0A8996" stroke-width="3" stroke-linecap="round" stroke-linejoin="round"/>
<path d="M365.041 327.392L365.396 202.055C365.396 198.062 368.635 194.825 372.629 194.825H512.043C516.038 194.825 519.277 198.062 519.277 202.055V336.641" fill="#EEF5FF"/>
<path d="M365.041 327.392L365.396 202.055C365.396 198.062 368.635 194.825 372.629 194.825H512.043C516.038 194.825 519.277 198.062 519.277 202.055V336.641" stroke="#14335D" stroke-width="3" stroke-linecap="round" stroke-linejoin="round"/>
<path d="M496.141 216.405H386.634V250.318H496.141V216.405Z" stroke="#0A8996" stroke-width="3" stroke-linecap="round" stroke-linejoin="round"/>
<path d="M411.312 273.44H388.176V296.563H411.312V273.44Z" stroke="#14335D" stroke-width="3" stroke-linecap="round" stroke-linejoin="round"/>
<path d="M452.955 273.44H429.82V296.563H452.955V273.44Z" stroke="#14335D" stroke-width="3" stroke-linecap="round" stroke-linejoin="round"/>
<path d="M496.141 273.44H473.006V296.563H496.141V273.44Z" stroke="#14335D" stroke-width="3" stroke-linecap="round" stroke-linejoin="round"/>
<path d="M306.432 321.226H335.736" stroke="#14335D" stroke-width="3" stroke-linecap="round" stroke-linejoin="round"/>
<path d="M269.415 321.226H284.839" stroke="#14335D" stroke-width="3" stroke-linecap="round" stroke-linejoin="round"/>
<path d="M715.017 520H744.321" stroke="#14335D" stroke-width="3" stroke-linecap="round" stroke-linejoin="round"/>
<path d="M678 520H693.424" stroke="#14335D" stroke-width="3" stroke-linecap="round" stroke-linejoin="round"/>
<path d="M727.017 539H756.321" stroke="#14335D" stroke-width="3" stroke-linecap="round" stroke-linejoin="round"/>
<path d="M690 539H705.424" stroke="#14335D" stroke-width="3" stroke-linecap="round" stroke-linejoin="round"/>
<path d="M754.017 560H783.321" stroke="#14335D" stroke-width="3" stroke-linecap="round" stroke-linejoin="round"/>
<path d="M717 560H732.424" stroke="#14335D" stroke-width="3" stroke-linecap="round" stroke-linejoin="round"/>
<path d="M306.432 350.514H335.736" stroke="#14335D" stroke-width="3" stroke-linecap="round" stroke-linejoin="round"/>
<path d="M269.415 350.514H284.839" stroke="#14335D" stroke-width="3" stroke-linecap="round" stroke-linejoin="round"/>
<path d="M284.838 506.203V527.784" stroke="#14335D" stroke-width="3" stroke-linecap="round" stroke-linejoin="round"/>
<path d="M284.838 553.989V577.111" stroke="#14335D" stroke-width="3" stroke-linecap="round" stroke-linejoin="round"/>
<path d="M249.364 541.657H270.957" stroke="#14335D" stroke-width="3" stroke-linecap="round" stroke-linejoin="round"/>
<path d="M298.72 541.657H320.313" stroke="#14335D" stroke-width="3" stroke-linecap="round" stroke-linejoin="round"/>
<path d="M649.806 535.244L754.933 631.833H536.304L649.806 535.244Z" fill="#FD6B22"/>
<path d="M430.591 659.533V702.17L412.993 789.063H492.317L462.981 693.461V667.487L440.231 657.637L430.591 659.533Z" fill="#0A8996"/>
<path d="M351.838 606.507L342.723 683.904L433.815 656.589" stroke="black" stroke-width="4" stroke-linecap="round" stroke-linejoin="round"/>
<path d="M438.38 656.589L524.922 686.817" stroke="black" stroke-width="4" stroke-linecap="round" stroke-linejoin="round"/>
<path d="M452.184 665.745V693.492H419.795V665.745" stroke="black" stroke-width="4" stroke-linecap="round" stroke-linejoin="round"/>
<path d="M452.03 693.492H420.165L401.95 789.064H470.245L452.03 693.492Z" stroke="black" stroke-width="4" stroke-linecap="round" stroke-linejoin="round"/>
<path d="M327.253 741.277V789.063" stroke="black" stroke-width="4" stroke-linecap="round" stroke-linejoin="round"/>
<path d="M490.743 562.467V597.057C490.743 624.218 468.734 649.622 441.681 652.35C408.89 655.664 381.236 630.014 381.236 597.921V562.467" stroke="black" stroke-width="4" stroke-linecap="round" stroke-linejoin="round"/>
<path d="M537.014 790.605H227V717.03C227 663.448 266.438 618.021 319.526 610.468L349.988 603.963L354.538 599.416L377.318 594.868" stroke="black" stroke-width="4" stroke-linecap="round" stroke-linejoin="round"/>
<path d="M495.309 595.131L518.089 599.678L522.639 604.241L537.338 607.37" stroke="black" stroke-width="4" stroke-linecap="round" stroke-linejoin="round"/>
<path d="M732.893 622.584V790.605H537.014V622.584" fill="#0A8996"/>
<path d="M732.893 622.584V790.605H537.014V622.584" stroke="black" stroke-width="4" stroke-linecap="round" stroke-linejoin="round"/>
<path d="M638.424 525.995L743.551 622.584H524.922L638.424 525.995Z" stroke="black" stroke-width="4" stroke-linecap="round" stroke-linejoin="round"/>
<path d="M686.622 679.619H604.877V752.068H686.622V679.619Z" fill="white"/>
<path d="M675.826 670.37H594.081V742.819H675.826V670.37Z" stroke="black" stroke-width="4" stroke-linecap="round" stroke-linejoin="round"/>
<path d="M634.183 674.994V738.195" stroke="black" stroke-width="4" stroke-linecap="round" stroke-linejoin="round"/>
<path d="M638.81 707.365H671.199" stroke="black" stroke-width="4" stroke-linecap="round" stroke-linejoin="round"/>
<path d="M742.918 709.677H809.24" stroke="#14335D" stroke-width="3" stroke-linecap="round" stroke-linejoin="round"/>
<path d="M824.664 506.202V572.486" stroke="#14335D" stroke-width="3" stroke-linecap="round" stroke-linejoin="round"/>
<path d="M616.445 476.914H704.36" stroke="#14335D" stroke-width="3" stroke-linecap="round" stroke-linejoin="round"/>
<path d="M631.869 496.953H595.947C595.947 484.668 606.358 474.155 619.422 477.33C628.676 479.581 634.953 488.198 634.953 497.709V520.076" stroke="#14335D" stroke-width="3" stroke-linecap="round" stroke-linejoin="round"/>
<path d="M784.562 210.239H823.337C827.471 210.239 830.833 213.6 830.833 217.731V327.391" stroke="#14335D" stroke-width="3" stroke-linecap="round" stroke-linejoin="round"/>
<path d="M525.446 210.239H557.836" stroke="#14335D" stroke-width="3" stroke-linecap="round" stroke-linejoin="round"/>
<path d="M682.767 433.754H647.293V424.505H545.497" stroke="#14335D" stroke-width="3" stroke-linecap="round" stroke-linejoin="round"/>
<path d="M675.055 407.549H545.497" stroke="#14335D" stroke-width="3" stroke-linecap="round" stroke-linejoin="round"/>
<path d="M561 399.592V136H784.642V399.592" fill="#0A8996"/>
<path d="M561 399.592V136H784.642V399.592" stroke="#14335D" stroke-width="3" stroke-linecap="round" stroke-linejoin="round"/>
<path d="M718.241 295.021V227.196H727.634L668.114 186.794L608.595 227.196H617.988V295.021" fill="#FD6B22"/>
<path d="M718.241 295.021V227.196H727.634L668.114 186.794L608.595 227.196H617.988V295.021" stroke="black" stroke-width="3" stroke-linecap="round" stroke-linejoin="round"/>
<path d="M676.597 295.021V248.776H698.19V295.021" stroke="white" stroke-width="3" stroke-linecap="round" stroke-linejoin="round"/>
<path d="M658.089 248.776H636.496V270.357H658.089V248.776Z" stroke="white" stroke-width="3" stroke-linecap="round" stroke-linejoin="round"/>
<path d="M614.903 227.196H716.698" stroke="black" stroke-width="3" stroke-linecap="round" stroke-linejoin="round"/>
<path d="M608.733 298.104H727.495" stroke="black" stroke-width="3" stroke-linecap="round" stroke-linejoin="round"/>
</svg>
