<svg width="181" height="171" viewBox="0 0 181 171" fill="none" xmlns="http://www.w3.org/2000/svg">
<path d="M148.74 89.0928L149.819 107.853L154.416 116.176" stroke="#14335D" stroke-width="3" stroke-linecap="round" stroke-linejoin="round"/>
<path d="M49.7055 22.8407C45.5874 20.4823 44.9242 15.9041 44.7391 14.3164C44.0605 8.19671 48.487 2.67825 54.6102 2L105.122 7.91926C107.868 8.24297 110.459 9.30658 112.649 11.0022L138.067 30.8256C141.136 33.2149 143.157 36.6986 143.712 40.5369L146.889 62.3487" stroke="#14335D" stroke-width="3" stroke-linecap="round" stroke-linejoin="round"/>
<path d="M93.3538 84.7156L93.5852 41.7547C93.1533 33.5386 86.3978 27.0952 78.1771 27.0336C69.3085 26.9719 62.1828 34.3094 62.5221 43.1574L61.936 94.5193C62.445 104.924 66.4243 114.851 73.2569 122.728L94.2793 138.498L98.9372 146.945" stroke="#14335D" stroke-width="3" stroke-linecap="round" stroke-linejoin="round"/>
<path d="M166.347 137.683L155.38 117.779L97.8658 149.432L108.832 169.336L166.347 137.683Z" fill="white" stroke="#0A8996" stroke-width="3" stroke-linecap="round" stroke-linejoin="round"/>
<path d="M96.2692 42.9717L172.909 76.1134C177.86 78.256 180.143 84.0057 177.999 88.9538C175.855 93.902 170.102 96.1833 165.151 94.0407L96.0532 64.1515" fill="#FD6B22"/>
<path d="M96.2692 42.9717L172.909 76.1134C177.86 78.256 180.143 84.0057 177.999 88.9538C175.855 93.902 170.102 96.1833 165.151 94.0407L96.0532 64.1515" stroke="#14335D" stroke-width="3" stroke-linecap="round" stroke-linejoin="round"/>
<path d="M60.9952 48.9836L25.5209 33.6459L2 12.0498L33.279 15.7185L67.5348 30.5475" fill="#FD6B22"/>
<path d="M60.9952 48.9836L25.5209 33.6459L2 12.0498L33.279 15.7185L67.5348 30.5475" stroke="#14335D" stroke-width="3" stroke-linecap="round" stroke-linejoin="round"/>
</svg>
