<svg width="1136" height="1024" viewBox="0 0 1136 1024" fill="none" xmlns="http://www.w3.org/2000/svg">
<rect width="1136" height="1024" fill="#F9FAFF"/>
<path d="M984.374 921.551C988.225 921.551 991.347 918.634 991.347 915.035C991.347 911.437 988.225 908.52 984.374 908.52C980.523 908.52 977.401 911.437 977.401 915.035C977.401 918.634 980.523 921.551 984.374 921.551Z" fill="#40FCFC"/>
<path d="M933.162 887.021C933.376 884.632 931.478 882.533 928.921 882.333C926.365 882.133 924.119 883.907 923.904 886.296C923.69 888.685 925.589 890.783 928.145 890.984C930.702 891.184 932.948 889.409 933.162 887.021Z" fill="#FD5122"/>
<path d="M52.7395 944.105L59.0259 928.087C61.2894 927.987 63.5208 928.217 65.6878 928.889L58.8971 946.21C58.5217 947.183 59.0473 948.255 60.0879 948.616C61.1285 948.967 62.2764 948.476 62.6626 947.504L69.3245 930.503C71.3413 931.686 73.0791 933.239 74.5059 935.094L68.8846 949.438C68.5091 950.411 69.0348 951.483 70.0754 951.844C71.116 952.205 72.2638 951.704 72.65 950.731L77.0698 939.464C79.6016 945.328 79.7518 952.766 76.8982 960.064C76.8338 960.234 76.7587 960.405 76.6944 960.575C78.1641 961.367 79.6016 962.229 80.9747 963.171C84.8367 965.828 89.825 970.329 91.6166 976.714L89.6749 977.185C88.0335 971.331 83.3992 967.161 79.7947 964.685C78.5503 963.833 77.2522 963.051 75.9112 962.319C72.9075 968.534 68.1122 973.366 62.7377 976.042L66.9322 965.337C67.3076 964.364 66.782 963.292 65.7414 962.931C64.7008 962.58 63.553 963.071 63.1668 964.043L57.76 977.837C55.3999 978.378 53.0076 978.508 50.669 978.137L56.9554 962.109C57.3309 961.136 56.8052 960.064 55.7647 959.703C54.7241 959.352 53.5762 959.843 53.19 960.816L46.8178 977.065C44.7581 976.213 42.9344 974.94 41.2823 973.376L47.0323 958.701C47.4078 957.728 46.8821 956.656 45.8416 956.295C44.801 955.944 43.6531 956.435 43.2669 957.407L38.3215 970.018C36.723 967.893 35.3284 965.517 34.084 963.041L37.1843 955.122C37.5598 954.15 37.0341 953.077 35.9935 952.716C34.953 952.365 33.8051 952.856 33.4189 953.829L31.7668 958.049C28.7095 950.962 26.5532 944.186 24 941.92C28.3233 941.068 34.4702 937.209 41.2823 933.771L39.1475 939.224C38.772 940.196 39.2977 941.269 40.3383 941.629C41.3788 941.99 42.5267 941.489 42.9129 940.517L46.5174 931.325C49.1564 930.202 51.8491 929.26 54.531 928.678L48.9955 942.802C48.62 943.775 49.1457 944.847 50.1863 945.208C51.2269 945.569 52.3747 945.068 52.7502 944.095L52.7395 944.105Z" fill="#E0F4FE"/>
<path d="M1020.47 639.051L1014.19 623.022C1011.92 622.922 1009.69 623.153 1007.52 623.824L1014.31 641.146C1014.69 642.118 1014.16 643.191 1013.12 643.552C1012.08 643.903 1010.94 643.411 1010.55 642.439L1003.89 625.438C1001.87 626.621 1000.13 628.175 998.706 630.029L1004.33 644.374C1004.7 645.346 1004.18 646.419 1003.14 646.78C1002.1 647.13 1000.95 646.639 1000.56 645.667L996.142 634.4C993.61 640.264 993.46 647.702 996.314 654.999C996.378 655.17 996.453 655.34 996.517 655.511C995.048 656.303 993.61 657.165 992.237 658.107C988.375 660.763 983.387 665.264 981.606 671.649L983.548 672.121C985.189 666.267 989.823 662.096 993.428 659.621C994.672 658.768 995.97 657.987 997.301 657.255C1000.3 663.47 1005.1 668.301 1010.47 670.978L1006.28 660.272C1005.9 659.3 1006.43 658.227 1007.47 657.866C1008.51 657.515 1009.66 658.007 1010.05 658.979L1015.45 672.772C1017.81 673.313 1020.2 673.444 1022.54 673.073L1016.26 657.044C1015.88 656.072 1016.41 654.999 1017.45 654.639C1018.49 654.288 1019.64 654.779 1020.02 655.751L1026.39 672C1028.45 671.148 1030.28 669.875 1031.93 668.311L1026.18 653.636C1025.79 652.664 1026.33 651.591 1027.37 651.23C1028.41 650.879 1029.56 651.371 1029.94 652.343L1034.89 664.953C1036.49 662.828 1037.88 660.442 1039.13 657.977L1036.03 650.057C1035.65 649.085 1036.18 648.013 1037.22 647.652C1038.26 647.301 1039.41 647.792 1039.79 648.764L1041.44 652.975C1044.5 645.887 1046.66 639.111 1049.21 636.846C1044.89 635.994 1038.74 632.134 1031.93 628.696L1034.06 634.149C1034.44 635.122 1033.91 636.194 1032.87 636.555C1031.83 636.906 1030.69 636.415 1030.3 635.442L1026.69 626.25C1024.06 625.127 1021.36 624.185 1018.68 623.604L1024.22 637.728C1024.59 638.7 1024.07 639.773 1023.03 640.134C1021.98 640.494 1020.84 639.993 1020.45 639.021L1020.47 639.051Z" fill="#E0F4FE"/>
<path d="M943.212 773.053L1131 1016.58" stroke="#BDE8FD" stroke-width="17.26" stroke-miterlimit="10"/>
<path d="M892.02 740.144L1105.18 1016.57" stroke="#BDE8FD" stroke-width="17.26" stroke-miterlimit="10"/>
<path d="M891.568 773.053L1079.36 1016.58" stroke="#BDE8FD" stroke-width="17.26" stroke-miterlimit="10"/>
<path d="M621.639 980.744H515.489V1020.96H621.639V980.744Z" fill="#BDE8FD"/>
<path d="M1059.32 897.423H930.907V1020.48H965.15V954.801C965.15 939.394 978.635 926.794 995.112 926.794C1011.59 926.794 1025.07 939.394 1025.07 954.801V1020.48H1059.32V897.423V897.423Z" fill="#E6F6FE"/>
<path d="M995.123 926.793C978.645 926.793 965.161 939.393 965.161 954.8V1020.48H1025.09V954.8C1025.09 939.393 1011.6 926.793 995.123 926.793V926.793Z" fill="white"/>
<path d="M246.052 875.44H133.379V1020.97H246.052V875.44Z" fill="white"/>
<path d="M369.689 797.191H361.869V867.4H369.689V797.191V797.191Z" fill="#BDE8FD"/>
<path d="M459.598 850.981H426.707V882.497H435.471V865.677C435.471 861.737 438.925 858.5 443.141 858.5C447.357 858.5 450.812 861.727 450.812 865.677V882.497H459.576V850.981H459.598Z" fill="#D5F0FE"/>
<path d="M443.152 858.499C438.936 858.499 435.481 861.727 435.481 865.676V882.497H450.833V865.676C450.833 861.727 447.378 858.499 443.152 858.499Z" fill="white"/>
<path d="M455.607 845.748H429.539L422.233 851.442H462.924L455.618 845.748H455.607Z" fill="#A1DFFC"/>
<path d="M471.355 891.158H415.775V944.426H430.601V915.998C430.601 909.332 436.436 903.879 443.57 903.879C450.704 903.879 456.54 909.332 456.54 915.998V944.426H471.366V891.158H471.355Z" fill="#D5F0FE"/>
<path d="M443.56 903.868C436.426 903.868 430.59 909.321 430.59 915.987V944.416H456.529V915.987C456.529 909.321 450.694 903.868 443.56 903.868V903.868Z" fill="white"/>
<path d="M396.305 853.498H303.982V1020.96H396.305V853.498Z" fill="#BDE8FD"/>
<path d="M323.485 729.919H297.309C298.833 729.468 300.356 729.097 301.954 728.877H318.765C320.363 729.178 321.887 729.549 323.485 729.919ZM329.407 732.095H291.377C290.572 732.395 289.854 732.766 289.135 733.137H331.574C330.93 732.766 330.136 732.385 329.417 732.095H329.407ZM334.931 735.312H285.37C284.812 735.683 284.329 735.984 283.771 736.355H336.133C335.736 735.984 335.328 735.603 334.931 735.312ZM337.892 738.46H280.96C280.564 738.831 280.081 739.132 279.684 739.503H338.45C338.289 739.202 338.128 738.831 337.892 738.46V738.46ZM339.491 741.678H277.442C277.12 742.049 276.798 742.349 276.401 742.72H339.812C339.737 742.349 339.576 742.049 339.491 741.678ZM340.37 744.896H274.556C274.234 745.266 273.998 745.567 273.751 745.948H340.521C340.445 745.577 340.36 745.196 340.36 744.896H340.37ZM340.767 748.043H272.228C271.992 748.414 271.745 748.715 271.584 749.086H340.917C340.832 748.785 340.832 748.414 340.757 748.043H340.767ZM340.928 751.261H270.308C270.147 751.632 269.911 751.932 269.75 752.303H340.928V751.261ZM340.285 754.849C340.36 754.699 340.36 754.629 340.445 754.479H268.785C268.624 754.849 268.463 755.15 268.388 755.521H339.802C339.963 755.301 340.124 755.07 340.285 754.849V754.849ZM335.639 757.997C335.875 757.847 336.122 757.777 336.358 757.696H267.658C267.572 758.067 267.497 758.368 267.336 758.739H334.266C334.674 758.438 335.146 758.218 335.629 757.997H335.639ZM331.23 760.844H266.864C266.789 761.215 266.703 761.516 266.703 761.886H330.115C330.436 761.516 330.833 761.135 331.23 760.844ZM328.109 763.991H266.296C266.296 764.362 266.221 764.663 266.221 765.034H327.315C327.551 764.733 327.797 764.362 328.119 763.991H328.109ZM325.952 767.209H266.146V768.252H325.394C325.555 767.951 325.791 767.58 325.952 767.209ZM324.515 770.427H266.306C266.306 770.798 266.382 771.099 266.467 771.469H324.193C324.268 771.099 324.429 770.718 324.515 770.427ZM323.635 773.565H266.864C266.939 773.935 267.025 774.316 267.1 774.607H323.464C323.539 774.306 323.624 773.935 323.624 773.565H323.635ZM323.313 776.782H267.83C267.991 777.153 268.066 777.534 268.227 777.825H323.313C323.313 777.524 323.313 777.153 323.313 776.782ZM269.911 781.053H323.71C323.624 780.682 323.549 780.381 323.549 780.01H269.342C269.503 780.311 269.739 780.682 269.9 781.053H269.911ZM272.153 784.2H324.59C324.515 783.829 324.354 783.529 324.268 783.158H271.348C271.584 783.529 271.831 783.909 272.153 784.2ZM275.2 787.418H325.158C325.158 787.047 325.158 786.746 325.073 786.375H273.987C274.47 786.746 274.867 787.127 275.189 787.418H275.2ZM279.448 790.415C279.609 790.485 279.684 790.565 279.845 790.636H324.118C324.354 790.335 324.601 789.964 324.762 789.593H278.085C278.568 789.814 278.965 790.195 279.448 790.415V790.415ZM289.532 793.783H318.11C319.226 793.553 320.267 793.182 321.318 792.741H285.123C286.571 793.192 288.009 793.563 289.532 793.783V793.783Z" fill="#C8EBF8"/>
<path d="M451.23 837.448C452.657 836.626 453.933 835.614 455.028 834.451L454.92 834.471L449.782 829.669L456.819 827.985L458.246 829.318C458.729 828.055 459.04 826.722 459.158 825.339L457.473 825.74L452.335 820.938L458.482 819.465C457.034 815.064 453.59 811.496 449.127 809.671L450.672 811.115L443.635 812.799L439.183 808.639C438.357 808.789 437.563 809 436.78 809.26L441.189 813.38L434.152 815.064L431.223 812.328C430.686 812.779 430.172 813.26 429.7 813.761L431.706 815.646L427.554 816.638C427.125 817.39 426.771 818.172 426.471 818.984L433.476 817.31L438.614 822.111L431.566 823.795L426.449 819.014C426.181 819.745 425.977 820.507 425.827 821.289L429.131 824.377L425.612 825.219C425.666 825.9 425.752 826.582 425.891 827.243L430.912 826.041L436.05 830.842L429.013 832.526L427.221 830.852C428.874 834.07 431.663 836.676 435.117 838.23L430.804 834.2L437.853 832.516L442.991 837.318L436.651 838.831C438.185 839.353 439.826 839.673 441.543 839.754L444.772 838.982L445.362 839.533C446.199 839.393 447.014 839.202 447.797 838.952L447.207 838.4L451.209 837.448H451.23ZM455.049 826.321L448.012 828.005L442.873 823.204L449.921 821.52L455.06 826.321H455.049ZM452.474 812.779L457.613 817.58L450.576 819.264L445.437 814.463L452.474 812.779ZM435.954 816.728L443.002 815.044L448.14 819.846L441.103 821.53L435.965 816.728H435.954ZM433.39 825.459L440.438 823.775L445.577 828.577L438.539 830.261L433.401 825.459H433.39ZM440.309 831.925L447.357 830.241L452.496 835.042L445.459 836.726L440.32 831.925H440.309Z" fill="#C8ECFD"/>
<path d="M190.869 786.215H78.1963V1020.96H190.869V786.215Z" fill="#D5F0FE"/>
<path d="M358.736 909.081H246.063V1020.97H358.736V909.081Z" fill="#D5F0FE"/>
<path d="M310.847 874.999H198.174L246.052 909.562H358.725L310.847 874.999V874.999Z" fill="#B1D8E8"/>
<path d="M575.843 958.369H463.17L511.048 980.984H623.72L575.843 958.369Z" fill="#B1D8E8"/>
<path d="M293.576 925.711H279.061V1000.15H293.576V925.711Z" fill="white"/>
<path d="M320.47 925.711H305.956V1000.15H320.47V925.711Z" fill="white"/>
<path d="M347.375 925.711H332.861V1000.15H347.375V925.711Z" fill="white"/>
<path d="M782.05 931.023H712.417V1020.97H782.05V931.023Z" fill="white"/>
<path d="M851.694 951.814H782.061V1020.97H851.694V951.814Z" fill="#D5F0FE"/>
<path d="M822.097 930.754H752.463L782.061 952.867H851.694L822.097 930.754Z" fill="#B1D8E8"/>
<path d="M818.514 962.089H811.455V984.593H818.514V962.089Z" fill="white"/>
<path d="M831.591 962.089H824.532V984.593H831.591V962.089Z" fill="white"/>
<path d="M844.667 962.089H837.608V984.593H844.667V962.089Z" fill="white"/>
<path d="M139.237 807.235H78.1963V817.47H139.226V807.235H139.237Z" fill="white"/>
<path d="M139.237 826.252H78.1963V836.487H139.226V826.252H139.237Z" fill="white"/>
<path d="M139.237 845.268H78.1963V855.502H139.226V845.268H139.237Z" fill="white"/>
<path d="M139.237 864.273H78.1963V874.508H139.226V864.273H139.237Z" fill="white"/>
<path d="M139.237 883.288H78.1963V893.523H139.226V883.288H139.237Z" fill="white"/>
<path d="M139.237 902.306H78.1963V912.54H139.226V902.306H139.237Z" fill="white"/>
<path d="M139.237 921.321H78.1963V931.556H139.226V921.321H139.237Z" fill="white"/>
<path d="M139.237 940.336H78.1963V950.571H139.226V940.336H139.237Z" fill="white"/>
<path d="M139.237 959.352H78.1963V969.586H139.226V959.352H139.237Z" fill="white"/>
<path d="M139.237 978.368H78.1963V988.603H139.226V978.368H139.237Z" fill="white"/>
<path d="M100.102 794.063L142.358 1004.69H176.784V795.527L100.102 794.063Z" fill="#D5F0FE"/>
<path d="M479.025 953.487H408.609V1020.97H427.382V984.953C427.382 976.503 434.774 969.596 443.817 969.596C452.861 969.596 460.252 976.513 460.252 984.953V1020.97H479.025V953.487Z" fill="#D5F0FE"/>
<path d="M443.817 969.586C434.774 969.586 427.382 976.503 427.382 984.943V1020.96H460.252V984.943C460.252 976.493 452.861 969.586 443.817 969.586Z" fill="white"/>
<path d="M1057.49 898.536H932.742L905.59 877.205H1084.65L1057.49 898.536V898.536Z" fill="#E6F6FE"/>
<path d="M358.736 912.249L246.063 1020.97H358.736V912.249Z" fill="#D5F0FE"/>
<path d="M477.674 957.828L411.956 1020.96H477.674V957.828Z" fill="#D5F0FE"/>
<path d="M469.327 899.327L423.906 942.962H469.327V899.327V899.327Z" fill="#D5F0FE"/>
<path d="M458.889 854.47L429.71 882.497H458.889V854.47Z" fill="#D5F0FE"/>
<path d="M444.654 757.986H439.956V806.744H444.654V757.986V757.986Z" fill="#BDE8FD"/>
<path d="M629.846 988.873L619.043 979.62L633.847 976.373L635.091 977.435V971.922L624.428 962.78L635.091 960.434V956.415L620.684 959.572L609.881 950.31L624.686 947.062L635.091 955.973V950.46L629.803 945.929L635.091 944.767V940.737L626.07 942.712L615.267 933.459L630.071 930.211L635.091 934.522V925.089L631.444 925.891L620.641 916.639L635.091 913.471V907.577L626.027 899.808L635.091 897.824V893.794L622.283 896.601L611.48 887.338L626.284 884.09L635.091 891.639V886.125L631.412 882.968L635.091 882.156V878.136L627.668 879.76L616.865 870.508L631.669 867.26L635.091 870.197V862.488L633.053 862.94L622.25 853.677L635.102 850.86V843.282H628.719L633.321 847.222L618.517 850.47L614.162 846.731L610.944 849.487L613.4 851.592L581.121 858.669V862.689L600.484 858.439L598.424 860.203L608.015 868.413L593.211 871.661L589.134 868.162L585.916 870.919L588.094 872.783L581.131 874.307V878.327L591.838 875.981L602.64 885.233L587.836 888.481L581.131 882.737V888.25L582.708 889.604L581.131 889.955V893.984L586.452 892.821L597.255 902.074L582.451 905.322L581.131 904.189V909.702L591.88 918.904L581.131 921.26V925.29L595.614 922.112L606.416 931.364L591.612 934.612L581.121 925.63V931.144L586.484 935.735L581.121 936.908V940.937L590.218 938.942L601.02 948.205L586.216 951.453L581.11 947.082V956.595L584.832 955.783L595.635 965.035L581.11 968.223V974.037L590.261 981.876L581.11 983.881V987.91L593.994 985.084L604.797 994.336L589.992 997.584L581.11 989.965V995.479L584.875 998.706L581.11 999.528V1003.56L588.608 1001.91L599.411 1011.18L584.607 1014.42L581.099 1011.43V1019.23L583.223 1018.76L585.83 1021H592.267L588.351 1017.64L603.155 1014.39L607.511 1018.13L610.729 1015.38L608.272 1013.27L635.091 1007.39V1003.37L621.188 1006.41L623.248 1004.65L613.658 996.441L628.462 993.193L632.538 996.681L635.091 994.496V993.343L633.59 992.06L635.091 991.73V987.7L629.856 988.853L629.846 988.873ZM630.103 973.165L615.299 976.413L604.496 967.15L619.3 963.903L630.103 973.165ZM631.702 910.203L616.897 913.451L606.095 904.189L620.899 900.941L631.702 910.193V910.203ZM602.308 858.068L617.112 854.82L627.915 864.082L613.11 867.33L602.308 858.068ZM596.922 874.898L611.727 871.651L622.529 880.913L607.725 884.161L596.922 874.898V874.898ZM591.537 891.729L606.341 888.481L617.144 897.743L602.34 900.991L591.537 891.729ZM586.152 908.559L600.956 905.312L611.759 914.574L596.955 917.822L586.152 908.559ZM600.699 921.019L615.503 917.772L626.306 927.034L611.501 930.282L600.699 921.019ZM595.313 937.85L610.117 934.602L620.92 943.864L606.116 947.112L595.313 937.85ZM589.928 954.68L604.732 951.433L615.535 960.695L600.731 963.943L589.928 954.69V954.68ZM584.543 971.511L599.347 968.263L610.15 977.525L595.345 980.773L584.543 971.521V971.511ZM619.322 1006.82L604.518 1010.06L593.715 1000.8L608.519 997.554L619.322 1006.82ZM609.903 993.233L599.1 983.971L613.904 980.723L624.707 989.985L609.903 993.233Z" fill="#C8ECFD"/>
<path d="M953.886 830.101H862.272V1020.97H953.886V830.101Z" fill="#D5F0FE"/>
<path d="M953.886 847.182H904.26V855.502H953.886V847.182Z" fill="white"/>
<path d="M953.886 862.64H904.26V870.97H953.886V862.64Z" fill="white"/>
<path d="M953.886 878.105H904.26V886.436H953.886V878.105Z" fill="white"/>
<path d="M953.886 893.563H904.26V901.894H953.886V893.563Z" fill="white"/>
<path d="M953.886 909.021H904.26V917.351H953.886V909.021Z" fill="white"/>
<path d="M953.886 924.487H904.26V932.817H953.886V924.487Z" fill="white"/>
<path d="M953.886 939.945H904.26V948.275H953.886V939.945Z" fill="white"/>
<path d="M953.886 955.402H904.26V963.732H953.886V955.402Z" fill="white"/>
<path d="M953.886 970.869H904.26V979.189H953.886V970.869Z" fill="white"/>
<path d="M953.886 986.326H904.26V994.656H953.886V986.326Z" fill="white"/>
<path d="M936.067 836.476L901.706 1007.73H873.718V837.668L936.067 836.476Z" fill="#D5F0FE"/>
<path d="M750.983 969.195C741.961 969.195 734.58 976.092 734.58 984.522V1020.47H767.385V984.522C767.385 976.092 760.005 969.195 750.983 969.195V969.195Z" fill="#89D4F4"/>
<path d="M746.048 853.498H653.726V1020.96H746.048V853.498V853.498Z" fill="#BDE8FD"/>
<path d="M668.969 885.675C675.664 885.675 681.092 880.602 681.092 874.337C681.092 868.072 675.664 863 668.969 863C662.275 863 656.847 868.072 656.847 874.337C656.847 880.602 662.275 885.675 668.969 885.675Z" fill="white"/>
<path d="M700.917 885.675C707.611 885.675 713.039 880.602 713.039 874.337C713.039 868.072 707.611 863 700.917 863C694.223 863 688.794 868.072 688.794 874.337C688.794 880.602 694.223 885.675 700.917 885.675Z" fill="white"/>
<path d="M732.885 885.675C739.579 885.675 745.007 880.602 745.007 874.337C745.007 868.072 739.579 863 732.885 863C726.191 863 720.763 868.072 720.763 874.337C720.763 880.602 726.191 885.675 732.885 885.675Z" fill="white"/>
<path d="M683.087 896.45H676.822V930.582H683.087V896.45Z" fill="white"/>
<path d="M696.647 896.45H690.382V930.582H696.647V896.45Z" fill="white"/>
<path d="M710.218 896.45H703.953V930.582H710.218V896.45Z" fill="white"/>
<path d="M723.777 896.45H717.512V930.582H723.777V896.45Z" fill="white"/>
<path d="M737.337 896.45H731.083V930.582H737.337V896.45Z" fill="white"/>
<path d="M667.436 963.742H661.171V997.874H667.436V963.742Z" fill="white"/>
<path d="M681.006 963.742H674.741V997.874H681.006V963.742Z" fill="white"/>
<path d="M694.566 963.742H688.312V997.874H694.566V963.742Z" fill="white"/>
<path d="M708.125 963.742H701.86V997.874H708.125V963.742Z" fill="white"/>
<path d="M721.685 963.742H715.42V997.874H721.685V963.742Z" fill="white"/>
<path d="M746.048 891.529L653.715 961.478H746.048V891.529V891.529Z" fill="#BDE8FD"/>
<path d="M653.715 950.039L746.048 1019.99H653.715V950.039Z" fill="#BDE8FD"/>
<path d="M464.597 882.315H420.538L408.19 891.939H476.955L464.607 882.315H464.597Z" fill="#A1DFFC"/>
<path d="M470.475 942.281H414.659L399.007 954.471H486.127L470.475 942.281Z" fill="#A1DFFC"/>
<g opacity="0.5">
<path d="M520.287 602.143C461.283 581.545 432.179 522.198 455.281 469.589" stroke="white" stroke-width="5" stroke-linecap="round"/>
<path d="M923.925 633.143C845.709 811.268 620.354 899.13 420.581 829.39" stroke="white" stroke-width="5" stroke-linecap="round"/>
<path d="M710.138 600.474C768.168 527.585 748.941 426.552 667.193 374.81C585.445 323.068 472.132 340.211 414.102 413.101" stroke="white" stroke-width="5" stroke-linecap="round"/>
<path d="M240.532 591.535C188.114 433.239 289.542 267.025 467.078 220.287" stroke="white" stroke-width="5" stroke-linecap="round"/>
<path d="M458.971 285.266C321.691 336.084 256.607 476.508 313.601 598.912C370.596 721.315 528.087 779.347 665.367 728.528" stroke="white" stroke-width="5" stroke-linecap="round"/>
<path d="M637.68 476.155C632.83 466.569 625.749 458.012 616.907 451.053C608.065 444.093 597.665 438.889 586.396 435.787C575.126 432.685 563.246 431.755 551.542 433.059" stroke="white" stroke-width="5" stroke-linecap="round"/>
<path d="M592.169 480.088C584.357 473.001 573.735 468.933 562.592 468.761C551.448 468.588 540.675 472.326 532.592 479.167" stroke="white" stroke-width="5" stroke-linecap="round"/>
<ellipse cx="562.117" cy="506.886" rx="10.9517" ry="9.76489" stroke="white" stroke-width="5" stroke-linecap="round"/>
<path d="M866.974 663.821C769.767 813.944 554.475 865.38 386.107 778.706C217.739 692.033 160.052 500.072 257.259 349.95" stroke="white" stroke-width="5" stroke-linecap="round"/>
<path d="M871.894 506.885C871.894 659.43 733.202 783.092 562.117 783.092C391.033 783.092 252.341 659.43 252.341 506.885" stroke="white" stroke-width="5" stroke-linecap="round"/>
<path d="M922.526 692.419C1037.45 514.94 969.247 288 770.199 185.533C571.151 83.066 316.628 143.874 201.708 321.353" stroke="white" stroke-width="5" stroke-linecap="round"/>
<path d="M922.48 506.886C922.48 329.43 761.14 185.574 562.117 185.574" stroke="white" stroke-width="5" stroke-linecap="round"/>
<path d="M937.083 506.885C937.083 691.531 769.206 841.216 562.118 841.216C355.031 841.216 187.153 691.531 187.153 506.885" stroke="white" stroke-width="5" stroke-linecap="round"/>
<path d="M768.289 398.445C701.121 296.918 554.362 263.163 440.495 323.053C326.628 382.943 288.771 513.798 355.94 615.325" stroke="white" stroke-width="5" stroke-linecap="round"/>
<path d="M735.164 768.451C573.149 853.665 364.334 805.638 268.763 661.179C173.193 516.721 227.057 330.535 389.072 245.321" stroke="white" stroke-width="5" stroke-linecap="round"/>
<path d="M660.279 655.259C568.375 703.597 449.924 676.353 395.712 594.409C341.499 512.464 372.054 406.85 463.957 358.512" stroke="white" stroke-width="5" stroke-linecap="round"/>
<path d="M897.571 708.984C772.39 874.174 520.722 917.604 335.455 805.988C150.188 694.371 101.48 469.976 226.662 304.786" stroke="white" stroke-width="5" stroke-linecap="round"/>
<path d="M797.494 383.119C874.205 499.07 830.97 648.513 700.927 716.911" stroke="white" stroke-width="7.07495" stroke-linecap="round"/>
<path d="M643.751 463.951C670.346 504.15 655.357 555.96 610.272 579.673C565.187 603.386 507.08 590.021 480.485 549.822" stroke="white" stroke-width="5" stroke-linecap="round"/>
<path d="M671.266 449.477C706.826 503.226 686.784 572.501 626.503 604.207C566.221 635.913 488.527 618.043 452.967 564.294" stroke="white" stroke-width="5" stroke-linecap="round"/>
<path d="M639.399 623.701C567.042 661.758 473.785 640.309 431.103 575.793C388.421 511.278 412.476 428.126 484.833 390.07" stroke="white" stroke-width="5" stroke-linecap="round"/>
<ellipse cx="562.116" cy="506.886" rx="438.589" ry="391.061" stroke="white" stroke-width="5" stroke-linecap="round"/>
<path d="M937.083 506.885C937.083 322.239 769.206 172.554 562.118 172.554C355.031 172.554 187.153 322.239 187.153 506.885" stroke="white" stroke-width="5" stroke-linecap="round"/>
<path d="M562.117 770.073C399.096 770.073 266.942 652.24 266.942 506.885C266.942 361.531 399.096 243.698 562.117 243.698" stroke="white" stroke-width="5" stroke-linecap="round"/>
<path d="M562.118 906.315C314.707 906.315 114.141 727.484 114.141 506.885C114.141 286.285 314.707 107.454 562.118 107.454" stroke="white" stroke-width="5" stroke-linecap="round"/>
<path d="M639.864 248.175C800.112 286.46 895.21 433.325 852.272 576.207C809.333 719.089 644.619 803.882 484.371 765.597" stroke="white" stroke-width="5" stroke-linecap="round"/>
<path d="M639.864 248.175C800.112 286.46 895.21 433.325 852.272 576.207C809.333 719.089 644.619 803.882 484.371 765.597" stroke="white" stroke-width="5" stroke-linecap="round"/>
<path d="M962.115 506.886C962.115 309.913 783.03 150.234 562.117 150.234C341.205 150.234 162.12 309.913 162.12 506.886" stroke="white" stroke-width="5" stroke-linecap="round"/>
<path d="M962.115 506.886C962.115 309.913 783.03 150.234 562.117 150.234C341.205 150.234 162.12 309.913 162.12 506.886" stroke="white" stroke-width="5" stroke-linecap="round"/>
<path d="M306.582 400.545C372.274 274.829 539.827 220.398 680.823 278.971C821.819 337.544 882.865 486.94 817.174 612.656" stroke="white" stroke-width="5" stroke-linecap="round"/>
<path d="M632.912 616.048C700.384 581.314 723.502 504.388 684.547 444.228C645.592 384.067 559.316 363.455 491.844 398.188" stroke="white" stroke-width="5" stroke-linecap="round"/>
<path d="M776.457 507.117C776.457 612.538 680.61 697.998 562.377 697.998C444.145 697.998 348.298 612.538 348.298 507.117" stroke="white" stroke-width="5" stroke-linecap="round"/>
<path d="M689.913 754.714C536.289 817.688 354.497 757.696 283.869 620.72" stroke="white" stroke-width="5" stroke-linecap="round"/>
<path d="M275.973 256.459C431.194 115.461 685.218 113.354 843.353 251.753" stroke="white" stroke-width="5" stroke-linecap="round"/>
<path d="M633.128 644.6C547.864 679.552 446.967 646.256 407.767 570.232C368.568 494.208 405.911 404.244 491.175 369.293" stroke="white" stroke-width="5" stroke-linecap="round"/>
<path d="M517.463 420.555C570.927 398.639 634.194 419.517 658.773 467.187" stroke="white" stroke-width="5" stroke-linecap="round"/>
<path d="M575.013 531.699C590.278 525.442 596.963 509.335 589.945 495.725" stroke="white" stroke-width="5" stroke-linecap="round"/>
<path d="M561.856 560.39C528.589 560.373 501.636 536.315 501.654 506.653" stroke="white" stroke-width="5" stroke-linecap="round"/>
<path d="M556.901 522.777C546.972 520.405 541.081 511.306 543.741 502.454C546.401 493.602 556.606 488.349 566.534 490.721" stroke="white" stroke-width="5" stroke-linecap="round"/>
<path d="M353.327 421.918C406.017 319.129 542.184 273.886 657.466 320.866C772.748 367.845 823.489 489.257 770.8 592.046" stroke="white" stroke-width="5" stroke-linecap="round"/>
<path d="M472.573 230.464C643.792 186.466 822.595 274.557 871.94 427.222C921.286 579.886 822.488 739.312 651.269 783.311" stroke="white" stroke-width="5" stroke-linecap="round"/>
<path d="M548.857 465.988C523.311 472.552 508.57 496.339 515.932 519.117C523.295 541.895 549.973 555.039 575.519 548.474" stroke="white" stroke-width="5" stroke-linecap="round"/>
<path d="M562.163 828.046C761.144 828.017 922.423 684.167 922.389 506.749" stroke="white" stroke-width="5" stroke-linecap="round"/>
<path d="M562.059 731.503C422.914 731.523 310.095 630.964 310.072 506.898C310.049 382.831 422.829 282.239 561.975 282.218" stroke="white" stroke-width="5" stroke-linecap="round"/>
<path d="M662.804 444.846C700.57 493.841 686.03 561.232 630.327 595.367" stroke="white" stroke-width="5" stroke-linecap="round"/>
<path d="M756.064 163.445C965.897 257.746 1049.09 487.939 941.878 677.596C834.667 867.252 577.653 944.554 367.82 850.253" stroke="white" stroke-width="5" stroke-linecap="round"/>
<path d="M728.326 404.718C790.579 485.479 766.611 596.561 674.794 652.828C582.977 709.094 458.079 689.237 395.827 608.477" stroke="white" stroke-width="5" stroke-linecap="round"/>
<path d="M841.122 448.616C805.371 313.082 651.476 229.406 497.388 261.72" stroke="white" stroke-width="5" stroke-linecap="round"/>
<path d="M650.254 506.886C650.254 490.643 644.608 474.798 634.094 461.533C623.581 448.268 608.715 438.233 591.543 432.81C574.37 427.388 555.735 426.843 538.201 431.251C520.667 435.659 505.096 444.803 493.63 457.426" stroke="white" stroke-width="5" stroke-linecap="round"/>
</g>
<rect x="252" y="167" width="210" height="271" fill="#0A8996"/>
<path d="M355.109 438.3H251.771V435.633V167H466.159V230.2" fill="#0A8996"/>
<path d="M355.109 438.3H251.771V435.633V167H466.159V230.2" stroke="#244878" stroke-width="3" stroke-linecap="round" stroke-linejoin="round"/>
<rect x="293" y="250" width="96" height="81" fill="white" stroke="black" stroke-width="3"/>
<path fill-rule="evenodd" clip-rule="evenodd" d="M415 600C416.654 600 418 601.571 418 603.5C418 605.429 416.654 607 415 607C413.346 607 412 605.429 412 603.5C412 601.571 413.346 600 415 600Z" fill="white"/>
<path fill-rule="evenodd" clip-rule="evenodd" d="M518 621C519.108 621 520 621.892 520 623C520 624.108 519.108 625 518 625C516.892 625 516 624.108 516 623C516 621.892 516.892 621 518 621Z" fill="white"/>
<path fill-rule="evenodd" clip-rule="evenodd" d="M535.507 590C536.329 590 537 590.674 537 591.5C537 592.326 536.329 593 535.507 593C534.685 593 534 592.326 534 591.5C534 590.674 534.671 590 535.507 590Z" fill="white"/>
<path fill-rule="evenodd" clip-rule="evenodd" d="M579 698C579.547 698 580 698.453 580 699C580 699.547 579.547 700 579 700C578.453 700 578 699.547 578 699C578 698.453 578.453 698 579 698Z" fill="white"/>
<rect x="759" y="778" width="245" height="139" rx="19" fill="#EEF5FF" stroke="#14335D" stroke-width="4"/>
<path d="M810.684 840C810.516 840 810.376 839.944 810.264 839.832C810.152 839.72 810.096 839.58 810.096 839.412C810.096 839.356 810.105 839.3 810.124 839.244C810.142 839.188 810.161 839.132 810.18 839.076L816.452 830.004L810.572 821.324C810.516 821.212 810.488 821.1 810.488 820.988C810.488 820.82 810.544 820.68 810.656 820.568C810.768 820.456 810.898 820.4 811.048 820.4H813.932C814.156 820.4 814.333 820.456 814.464 820.568C814.594 820.68 814.706 820.801 814.8 820.932L818.916 826.98L823.06 820.932C823.134 820.801 823.237 820.68 823.368 820.568C823.517 820.456 823.704 820.4 823.928 820.4H826.644C826.812 820.4 826.952 820.456 827.064 820.568C827.176 820.68 827.232 820.82 827.232 820.988C827.232 821.1 827.194 821.212 827.12 821.324L821.268 830.004L827.54 839.076C827.577 839.132 827.605 839.188 827.624 839.244C827.642 839.3 827.652 839.356 827.652 839.412C827.652 839.58 827.586 839.72 827.456 839.832C827.344 839.944 827.213 840 827.064 840H824.096C823.872 840 823.694 839.944 823.564 839.832C823.433 839.72 823.33 839.608 823.256 839.496L818.776 833.168L814.38 839.496C814.305 839.608 814.202 839.72 814.072 839.832C813.941 839.944 813.754 840 813.512 840H810.684ZM830.679 845.32C830.492 845.32 830.334 845.255 830.203 845.124C830.072 844.993 830.007 844.835 830.007 844.648V826.112C830.007 825.925 830.072 825.767 830.203 825.636C830.334 825.505 830.492 825.44 830.679 825.44H832.891C833.096 825.44 833.255 825.505 833.367 825.636C833.498 825.767 833.563 825.925 833.563 826.112V827.232C834.011 826.635 834.599 826.14 835.327 825.748C836.055 825.356 836.96 825.16 838.043 825.16C839.032 825.16 839.891 825.319 840.619 825.636C841.347 825.953 841.954 826.411 842.439 827.008C842.924 827.587 843.298 828.277 843.559 829.08C843.82 829.883 843.97 830.769 844.007 831.74C844.026 832.057 844.035 832.384 844.035 832.72C844.035 833.056 844.026 833.392 844.007 833.728C843.988 834.661 843.848 835.529 843.587 836.332C843.326 837.116 842.943 837.807 842.439 838.404C841.954 838.983 841.347 839.44 840.619 839.776C839.891 840.112 839.032 840.28 838.043 840.28C837.035 840.28 836.176 840.103 835.467 839.748C834.758 839.375 834.179 838.889 833.731 838.292V844.648C833.731 844.835 833.666 844.993 833.535 845.124C833.423 845.255 833.264 845.32 833.059 845.32H830.679ZM837.007 837.284C837.81 837.284 838.435 837.116 838.883 836.78C839.331 836.425 839.648 835.968 839.835 835.408C840.04 834.848 840.162 834.232 840.199 833.56C840.236 833 840.236 832.44 840.199 831.88C840.162 831.208 840.04 830.592 839.835 830.032C839.648 829.472 839.331 829.024 838.883 828.688C838.435 828.333 837.81 828.156 837.007 828.156C836.242 828.156 835.616 828.333 835.131 828.688C834.664 829.043 834.319 829.5 834.095 830.06C833.89 830.601 833.768 831.161 833.731 831.74C833.712 832.076 833.703 832.431 833.703 832.804C833.703 833.177 833.712 833.541 833.731 833.896C833.75 834.456 833.88 834.997 834.123 835.52C834.366 836.024 834.72 836.444 835.187 836.78C835.654 837.116 836.26 837.284 837.007 837.284ZM847.85 840C847.663 840 847.505 839.935 847.374 839.804C847.243 839.673 847.178 839.515 847.178 839.328V826.14C847.178 825.935 847.243 825.767 847.374 825.636C847.505 825.505 847.663 825.44 847.85 825.44H850.118C850.305 825.44 850.463 825.505 850.594 825.636C850.743 825.767 850.818 825.935 850.818 826.14V827.288C851.247 826.691 851.798 826.233 852.47 825.916C853.161 825.599 853.954 825.44 854.85 825.44H855.998C856.203 825.44 856.362 825.505 856.474 825.636C856.605 825.767 856.67 825.925 856.67 826.112V828.128C856.67 828.315 856.605 828.473 856.474 828.604C856.362 828.735 856.203 828.8 855.998 828.8H853.814C852.918 828.8 852.218 829.052 851.714 829.556C851.229 830.06 850.986 830.751 850.986 831.628V839.328C850.986 839.515 850.921 839.673 850.79 839.804C850.659 839.935 850.491 840 850.286 840H847.85ZM864.934 840.28C862.862 840.28 861.22 839.683 860.006 838.488C858.793 837.293 858.14 835.595 858.046 833.392C858.028 833.205 858.018 832.972 858.018 832.692C858.018 832.393 858.028 832.16 858.046 831.992C858.121 830.592 858.438 829.379 858.998 828.352C859.577 827.325 860.37 826.541 861.378 826C862.386 825.44 863.572 825.16 864.934 825.16C866.446 825.16 867.716 825.477 868.742 826.112C869.769 826.728 870.544 827.596 871.066 828.716C871.589 829.817 871.85 831.096 871.85 832.552V833.14C871.85 833.327 871.785 833.485 871.654 833.616C871.524 833.747 871.356 833.812 871.15 833.812H861.854C861.854 833.812 861.854 833.84 861.854 833.896C861.854 833.952 861.854 833.999 861.854 834.036C861.873 834.689 861.994 835.296 862.218 835.856C862.461 836.397 862.806 836.836 863.254 837.172C863.721 837.508 864.272 837.676 864.906 837.676C865.429 837.676 865.868 837.601 866.222 837.452C866.577 837.284 866.866 837.097 867.09 836.892C867.314 836.687 867.473 836.519 867.566 836.388C867.734 836.164 867.865 836.033 867.958 835.996C868.07 835.94 868.229 835.912 868.434 835.912H870.842C871.029 835.912 871.178 835.968 871.29 836.08C871.421 836.192 871.477 836.332 871.458 836.5C871.44 836.799 871.281 837.163 870.982 837.592C870.702 838.021 870.292 838.441 869.75 838.852C869.209 839.263 868.528 839.608 867.706 839.888C866.904 840.149 865.98 840.28 864.934 840.28ZM861.854 831.46H868.042V831.376C868.042 830.648 867.921 830.013 867.678 829.472C867.436 828.931 867.081 828.501 866.614 828.184C866.148 827.867 865.588 827.708 864.934 827.708C864.281 827.708 863.721 827.867 863.254 828.184C862.788 828.501 862.433 828.931 862.19 829.472C861.966 830.013 861.854 830.648 861.854 831.376V831.46ZM880.339 840.28C879.219 840.28 878.257 840.149 877.455 839.888C876.671 839.627 876.027 839.3 875.523 838.908C875.019 838.516 874.645 838.124 874.403 837.732C874.16 837.34 874.029 837.013 874.011 836.752C873.992 836.547 874.048 836.388 874.179 836.276C874.328 836.145 874.487 836.08 874.655 836.08H876.867C876.941 836.08 877.007 836.089 877.063 836.108C877.119 836.127 877.193 836.183 877.287 836.276C877.529 836.481 877.781 836.696 878.043 836.92C878.323 837.144 878.649 837.34 879.023 837.508C879.396 837.657 879.863 837.732 880.423 837.732C881.151 837.732 881.757 837.592 882.243 837.312C882.747 837.013 882.999 836.593 882.999 836.052C882.999 835.66 882.887 835.343 882.663 835.1C882.457 834.857 882.065 834.643 881.487 834.456C880.908 834.251 880.087 834.036 879.023 833.812C877.977 833.569 877.109 833.261 876.419 832.888C875.728 832.515 875.215 832.048 874.879 831.488C874.543 830.928 874.375 830.275 874.375 829.528C874.375 828.8 874.589 828.109 875.019 827.456C875.467 826.784 876.12 826.233 876.979 825.804C877.856 825.375 878.939 825.16 880.227 825.16C881.235 825.16 882.112 825.291 882.859 825.552C883.605 825.795 884.221 826.103 884.707 826.476C885.211 826.849 885.593 827.232 885.855 827.624C886.116 827.997 886.256 828.324 886.275 828.604C886.293 828.809 886.237 828.977 886.107 829.108C885.976 829.22 885.827 829.276 885.659 829.276H883.587C883.493 829.276 883.409 829.257 883.335 829.22C883.26 829.183 883.185 829.136 883.111 829.08C882.905 828.893 882.681 828.697 882.439 828.492C882.196 828.287 881.897 828.109 881.543 827.96C881.207 827.792 880.759 827.708 880.199 827.708C879.489 827.708 878.948 827.867 878.575 828.184C878.201 828.483 878.015 828.865 878.015 829.332C878.015 829.649 878.099 829.929 878.267 830.172C878.453 830.396 878.817 830.611 879.359 830.816C879.9 831.021 880.721 831.236 881.823 831.46C883.073 831.684 884.063 832.02 884.791 832.468C885.537 832.897 886.06 833.401 886.359 833.98C886.676 834.54 886.835 835.165 886.835 835.856C886.835 836.696 886.583 837.452 886.079 838.124C885.593 838.796 884.865 839.328 883.895 839.72C882.943 840.093 881.757 840.28 880.339 840.28ZM895.241 840.28C894.121 840.28 893.16 840.149 892.357 839.888C891.573 839.627 890.929 839.3 890.425 838.908C889.921 838.516 889.548 838.124 889.305 837.732C889.062 837.34 888.932 837.013 888.913 836.752C888.894 836.547 888.95 836.388 889.081 836.276C889.23 836.145 889.389 836.08 889.557 836.08H891.769C891.844 836.08 891.909 836.089 891.965 836.108C892.021 836.127 892.096 836.183 892.189 836.276C892.432 836.481 892.684 836.696 892.945 836.92C893.225 837.144 893.552 837.34 893.925 837.508C894.298 837.657 894.765 837.732 895.325 837.732C896.053 837.732 896.66 837.592 897.145 837.312C897.649 837.013 897.901 836.593 897.901 836.052C897.901 835.66 897.789 835.343 897.565 835.1C897.36 834.857 896.968 834.643 896.389 834.456C895.81 834.251 894.989 834.036 893.925 833.812C892.88 833.569 892.012 833.261 891.321 832.888C890.63 832.515 890.117 832.048 889.781 831.488C889.445 830.928 889.277 830.275 889.277 829.528C889.277 828.8 889.492 828.109 889.921 827.456C890.369 826.784 891.022 826.233 891.881 825.804C892.758 825.375 893.841 825.16 895.129 825.16C896.137 825.16 897.014 825.291 897.761 825.552C898.508 825.795 899.124 826.103 899.609 826.476C900.113 826.849 900.496 827.232 900.757 827.624C901.018 827.997 901.158 828.324 901.177 828.604C901.196 828.809 901.14 828.977 901.009 829.108C900.878 829.22 900.729 829.276 900.561 829.276H898.489C898.396 829.276 898.312 829.257 898.237 829.22C898.162 829.183 898.088 829.136 898.013 829.08C897.808 828.893 897.584 828.697 897.341 828.492C897.098 828.287 896.8 828.109 896.445 827.96C896.109 827.792 895.661 827.708 895.101 827.708C894.392 827.708 893.85 827.867 893.477 828.184C893.104 828.483 892.917 828.865 892.917 829.332C892.917 829.649 893.001 829.929 893.169 830.172C893.356 830.396 893.72 830.611 894.261 830.816C894.802 831.021 895.624 831.236 896.725 831.46C897.976 831.684 898.965 832.02 899.693 832.468C900.44 832.897 900.962 833.401 901.261 833.98C901.578 834.54 901.737 835.165 901.737 835.856C901.737 836.696 901.485 837.452 900.981 838.124C900.496 838.796 899.768 839.328 898.797 839.72C897.845 840.093 896.66 840.28 895.241 840.28ZM912.579 840.28C910.862 840.28 909.397 839.981 908.183 839.384C906.989 838.787 906.055 837.928 905.383 836.808C904.73 835.669 904.375 834.316 904.319 832.748C904.301 831.945 904.291 831.087 904.291 830.172C904.291 829.239 904.301 828.361 904.319 827.54C904.375 825.991 904.73 824.665 905.383 823.564C906.055 822.463 906.998 821.613 908.211 821.016C909.443 820.419 910.899 820.12 912.579 820.12C913.942 820.12 915.137 820.307 916.163 820.68C917.19 821.035 918.039 821.501 918.711 822.08C919.402 822.64 919.915 823.247 920.251 823.9C920.606 824.553 920.793 825.16 920.811 825.72C920.83 825.888 920.783 826.028 920.671 826.14C920.559 826.252 920.41 826.308 920.223 826.308H917.339C917.153 826.308 917.013 826.271 916.919 826.196C916.826 826.121 916.742 826.009 916.667 825.86C916.518 825.468 916.285 825.085 915.967 824.712C915.65 824.32 915.221 823.993 914.679 823.732C914.138 823.471 913.438 823.34 912.579 823.34C911.31 823.34 910.293 823.676 909.527 824.348C908.781 825.02 908.379 826.131 908.323 827.68C908.267 829.304 908.267 830.947 908.323 832.608C908.379 834.195 908.79 835.333 909.555 836.024C910.339 836.715 911.366 837.06 912.635 837.06C913.475 837.06 914.222 836.911 914.875 836.612C915.547 836.313 916.07 835.847 916.443 835.212C916.835 834.577 917.031 833.765 917.031 832.776V831.908H913.615C913.429 831.908 913.27 831.843 913.139 831.712C913.009 831.581 912.943 831.413 912.943 831.208V829.724C912.943 829.519 913.009 829.351 913.139 829.22C913.27 829.089 913.429 829.024 913.615 829.024H920.307C920.513 829.024 920.671 829.089 920.783 829.22C920.914 829.351 920.979 829.519 920.979 829.724V832.664C920.979 834.232 920.634 835.585 919.943 836.724C919.271 837.863 918.301 838.74 917.031 839.356C915.781 839.972 914.297 840.28 912.579 840.28ZM928.461 840.28C927.49 840.28 926.613 840.093 925.829 839.72C925.045 839.328 924.419 838.815 923.953 838.18C923.505 837.527 923.281 836.799 923.281 835.996C923.281 834.689 923.803 833.653 924.849 832.888C925.913 832.104 927.313 831.581 929.049 831.32L932.885 830.76V830.172C932.885 829.388 932.689 828.781 932.297 828.352C931.905 827.923 931.233 827.708 930.281 827.708C929.609 827.708 929.058 827.848 928.629 828.128C928.218 828.389 927.91 828.744 927.705 829.192C927.555 829.435 927.341 829.556 927.061 829.556H924.849C924.643 829.556 924.485 829.5 924.373 829.388C924.279 829.276 924.233 829.127 924.233 828.94C924.251 828.641 924.373 828.277 924.597 827.848C924.821 827.419 925.175 827.008 925.661 826.616C926.146 826.205 926.771 825.86 927.537 825.58C928.302 825.3 929.226 825.16 930.309 825.16C931.485 825.16 932.474 825.309 933.277 825.608C934.098 825.888 934.751 826.271 935.237 826.756C935.722 827.241 936.077 827.811 936.301 828.464C936.525 829.117 936.637 829.808 936.637 830.536V839.328C936.637 839.515 936.571 839.673 936.441 839.804C936.31 839.935 936.151 840 935.965 840H933.697C933.491 840 933.323 839.935 933.193 839.804C933.081 839.673 933.025 839.515 933.025 839.328V838.236C932.782 838.591 932.455 838.927 932.045 839.244C931.634 839.543 931.13 839.795 930.533 840C929.954 840.187 929.263 840.28 928.461 840.28ZM929.413 837.62C930.066 837.62 930.654 837.48 931.177 837.2C931.718 836.92 932.138 836.491 932.437 835.912C932.754 835.315 932.913 834.568 932.913 833.672V833.084L930.113 833.532C929.011 833.7 928.19 833.971 927.649 834.344C927.107 834.717 926.837 835.175 926.837 835.716C926.837 836.127 926.958 836.481 927.201 836.78C927.462 837.06 927.789 837.275 928.181 837.424C928.573 837.555 928.983 837.62 929.413 837.62ZM946.672 840C945.552 840 944.609 839.804 943.844 839.412C943.079 839.02 942.509 838.441 942.136 837.676C941.763 836.892 941.576 835.921 941.576 834.764V828.408H939.364C939.177 828.408 939.019 828.343 938.888 828.212C938.757 828.081 938.692 827.923 938.692 827.736V826.112C938.692 825.925 938.757 825.767 938.888 825.636C939.019 825.505 939.177 825.44 939.364 825.44H941.576V820.792C941.576 820.605 941.632 820.447 941.744 820.316C941.875 820.185 942.043 820.12 942.248 820.12H944.516C944.703 820.12 944.861 820.185 944.992 820.316C945.123 820.447 945.188 820.605 945.188 820.792V825.44H948.688C948.875 825.44 949.033 825.505 949.164 825.636C949.295 825.767 949.36 825.925 949.36 826.112V827.736C949.36 827.923 949.295 828.081 949.164 828.212C949.033 828.343 948.875 828.408 948.688 828.408H945.188V834.484C945.188 835.249 945.319 835.847 945.58 836.276C945.86 836.705 946.336 836.92 947.008 836.92H948.94C949.127 836.92 949.285 836.985 949.416 837.116C949.547 837.247 949.612 837.405 949.612 837.592V839.328C949.612 839.515 949.547 839.673 949.416 839.804C949.285 839.935 949.127 840 948.94 840H946.672ZM958.368 840.28C956.296 840.28 954.653 839.683 953.44 838.488C952.227 837.293 951.573 835.595 951.48 833.392C951.461 833.205 951.452 832.972 951.452 832.692C951.452 832.393 951.461 832.16 951.48 831.992C951.555 830.592 951.872 829.379 952.432 828.352C953.011 827.325 953.804 826.541 954.812 826C955.82 825.44 957.005 825.16 958.368 825.16C959.88 825.16 961.149 825.477 962.176 826.112C963.203 826.728 963.977 827.596 964.5 828.716C965.023 829.817 965.284 831.096 965.284 832.552V833.14C965.284 833.327 965.219 833.485 965.088 833.616C964.957 833.747 964.789 833.812 964.584 833.812H955.288C955.288 833.812 955.288 833.84 955.288 833.896C955.288 833.952 955.288 833.999 955.288 834.036C955.307 834.689 955.428 835.296 955.652 835.856C955.895 836.397 956.24 836.836 956.688 837.172C957.155 837.508 957.705 837.676 958.34 837.676C958.863 837.676 959.301 837.601 959.656 837.452C960.011 837.284 960.3 837.097 960.524 836.892C960.748 836.687 960.907 836.519 961 836.388C961.168 836.164 961.299 836.033 961.392 835.996C961.504 835.94 961.663 835.912 961.868 835.912H964.276C964.463 835.912 964.612 835.968 964.724 836.08C964.855 836.192 964.911 836.332 964.892 836.5C964.873 836.799 964.715 837.163 964.416 837.592C964.136 838.021 963.725 838.441 963.184 838.852C962.643 839.263 961.961 839.608 961.14 839.888C960.337 840.149 959.413 840.28 958.368 840.28ZM955.288 831.46H961.476V831.376C961.476 830.648 961.355 830.013 961.112 829.472C960.869 828.931 960.515 828.501 960.048 828.184C959.581 827.867 959.021 827.708 958.368 827.708C957.715 827.708 957.155 827.867 956.688 828.184C956.221 828.501 955.867 828.931 955.624 829.472C955.4 830.013 955.288 830.648 955.288 831.376V831.46ZM846.265 873.28C844.529 873.28 843.073 873.028 841.897 872.524C840.74 872.001 839.853 871.329 839.237 870.508C838.64 869.668 838.323 868.791 838.285 867.876C838.285 867.708 838.341 867.568 838.453 867.456C838.565 867.344 838.705 867.288 838.873 867.288H841.365C841.608 867.288 841.785 867.344 841.897 867.456C842.028 867.549 842.14 867.671 842.233 867.82C842.345 868.175 842.56 868.529 842.877 868.884C843.195 869.22 843.624 869.5 844.165 869.724C844.725 869.948 845.425 870.06 846.265 870.06C847.609 870.06 848.608 869.836 849.261 869.388C849.933 868.94 850.269 868.333 850.269 867.568C850.269 867.027 850.092 866.597 849.737 866.28C849.383 865.944 848.832 865.645 848.085 865.384C847.357 865.104 846.387 864.815 845.173 864.516C843.773 864.18 842.597 863.779 841.645 863.312C840.712 862.827 840.003 862.22 839.517 861.492C839.051 860.764 838.817 859.84 838.817 858.72C838.817 857.637 839.107 856.676 839.685 855.836C840.283 854.996 841.123 854.333 842.205 853.848C843.307 853.363 844.613 853.12 846.125 853.12C847.339 853.12 848.412 853.288 849.345 853.624C850.279 853.941 851.053 854.371 851.669 854.912C852.285 855.435 852.752 856.004 853.069 856.62C853.405 857.217 853.583 857.805 853.601 858.384C853.601 858.533 853.545 858.673 853.433 858.804C853.34 858.916 853.2 858.972 853.013 858.972H850.409C850.26 858.972 850.111 858.935 849.961 858.86C849.812 858.785 849.691 858.645 849.597 858.44C849.485 857.861 849.121 857.367 848.505 856.956C847.889 856.545 847.096 856.34 846.125 856.34C845.117 856.34 844.305 856.527 843.689 856.9C843.073 857.273 842.765 857.852 842.765 858.636C842.765 859.159 842.915 859.597 843.213 859.952C843.531 860.288 844.025 860.587 844.697 860.848C845.388 861.109 846.293 861.389 847.413 861.688C849 862.043 850.297 862.453 851.305 862.92C852.313 863.387 853.051 863.984 853.517 864.712C853.984 865.421 854.217 866.327 854.217 867.428C854.217 868.66 853.881 869.715 853.209 870.592C852.556 871.451 851.632 872.113 850.437 872.58C849.243 873.047 847.852 873.28 846.265 873.28ZM863.53 873.28C862.037 873.28 860.777 873.019 859.75 872.496C858.742 871.973 857.968 871.236 857.426 870.284C856.904 869.332 856.605 868.221 856.53 866.952C856.512 866.616 856.502 866.205 856.502 865.72C856.502 865.235 856.512 864.824 856.53 864.488C856.605 863.2 856.913 862.089 857.454 861.156C858.014 860.204 858.798 859.467 859.806 858.944C860.833 858.421 862.074 858.16 863.53 858.16C864.986 858.16 866.218 858.421 867.226 858.944C868.253 859.467 869.037 860.204 869.578 861.156C870.138 862.089 870.456 863.2 870.53 864.488C870.549 864.824 870.558 865.235 870.558 865.72C870.558 866.205 870.549 866.616 870.53 866.952C870.456 868.221 870.148 869.332 869.606 870.284C869.084 871.236 868.309 871.973 867.282 872.496C866.274 873.019 865.024 873.28 863.53 873.28ZM863.53 870.508C864.52 870.508 865.285 870.2 865.826 869.584C866.368 868.949 866.666 868.025 866.722 866.812C866.741 866.532 866.75 866.168 866.75 865.72C866.75 865.272 866.741 864.908 866.722 864.628C866.666 863.433 866.368 862.519 865.826 861.884C865.285 861.249 864.52 860.932 863.53 860.932C862.541 860.932 861.776 861.249 861.234 861.884C860.693 862.519 860.394 863.433 860.338 864.628C860.32 864.908 860.31 865.272 860.31 865.72C860.31 866.168 860.32 866.532 860.338 866.812C860.394 868.025 860.693 868.949 861.234 869.584C861.776 870.2 862.541 870.508 863.53 870.508ZM879.961 873.28C878.617 873.28 877.431 873.028 876.405 872.524C875.397 872.02 874.603 871.292 874.025 870.34C873.465 869.369 873.157 868.203 873.101 866.84C873.082 866.56 873.073 866.196 873.073 865.748C873.073 865.281 873.082 864.899 873.101 864.6C873.157 863.237 873.465 862.08 874.025 861.128C874.603 860.157 875.397 859.42 876.405 858.916C877.431 858.412 878.617 858.16 879.961 858.16C881.155 858.16 882.173 858.328 883.013 858.664C883.853 859 884.543 859.42 885.085 859.924C885.626 860.428 886.027 860.96 886.289 861.52C886.569 862.061 886.718 862.556 886.737 863.004C886.755 863.209 886.69 863.377 886.541 863.508C886.41 863.62 886.251 863.676 886.065 863.676H883.601C883.414 863.676 883.265 863.629 883.153 863.536C883.059 863.443 882.966 863.303 882.873 863.116C882.593 862.369 882.219 861.847 881.753 861.548C881.305 861.231 880.726 861.072 880.017 861.072C879.083 861.072 878.337 861.371 877.777 861.968C877.235 862.547 876.946 863.471 876.909 864.74C876.871 865.449 876.871 866.103 876.909 866.7C876.946 867.988 877.235 868.921 877.777 869.5C878.337 870.079 879.083 870.368 880.017 870.368C880.745 870.368 881.333 870.219 881.781 869.92C882.229 869.603 882.593 869.071 882.873 868.324C882.966 868.137 883.059 867.997 883.153 867.904C883.265 867.811 883.414 867.764 883.601 867.764H886.065C886.251 867.764 886.41 867.829 886.541 867.96C886.69 868.072 886.755 868.231 886.737 868.436C886.718 868.772 886.625 869.155 886.457 869.584C886.307 869.995 886.055 870.424 885.701 870.872C885.365 871.301 884.935 871.703 884.413 872.076C883.89 872.431 883.255 872.72 882.509 872.944C881.781 873.168 880.931 873.28 879.961 873.28ZM890.329 873C890.142 873 889.983 872.935 889.853 872.804C889.722 872.673 889.657 872.515 889.657 872.328V859.112C889.657 858.925 889.722 858.767 889.853 858.636C889.983 858.505 890.142 858.44 890.329 858.44H892.653C892.858 858.44 893.017 858.505 893.129 858.636C893.259 858.767 893.325 858.925 893.325 859.112V872.328C893.325 872.515 893.259 872.673 893.129 872.804C893.017 872.935 892.858 873 892.653 873H890.329ZM890.217 856.032C890.011 856.032 889.843 855.976 889.713 855.864C889.601 855.733 889.545 855.565 889.545 855.36V853.344C889.545 853.157 889.601 852.999 889.713 852.868C889.843 852.737 890.011 852.672 890.217 852.672H892.765C892.97 852.672 893.138 852.737 893.269 852.868C893.399 852.999 893.465 853.157 893.465 853.344V855.36C893.465 855.565 893.399 855.733 893.269 855.864C893.138 855.976 892.97 856.032 892.765 856.032H890.217ZM903.393 873.28C901.321 873.28 899.679 872.683 898.465 871.488C897.252 870.293 896.599 868.595 896.505 866.392C896.487 866.205 896.477 865.972 896.477 865.692C896.477 865.393 896.487 865.16 896.505 864.992C896.58 863.592 896.897 862.379 897.457 861.352C898.036 860.325 898.829 859.541 899.837 859C900.845 858.44 902.031 858.16 903.393 858.16C904.905 858.16 906.175 858.477 907.201 859.112C908.228 859.728 909.003 860.596 909.525 861.716C910.048 862.817 910.309 864.096 910.309 865.552V866.14C910.309 866.327 910.244 866.485 910.113 866.616C909.983 866.747 909.815 866.812 909.609 866.812H900.313C900.313 866.812 900.313 866.84 900.313 866.896C900.313 866.952 900.313 866.999 900.313 867.036C900.332 867.689 900.453 868.296 900.677 868.856C900.92 869.397 901.265 869.836 901.713 870.172C902.18 870.508 902.731 870.676 903.365 870.676C903.888 870.676 904.327 870.601 904.681 870.452C905.036 870.284 905.325 870.097 905.549 869.892C905.773 869.687 905.932 869.519 906.025 869.388C906.193 869.164 906.324 869.033 906.417 868.996C906.529 868.94 906.688 868.912 906.893 868.912H909.301C909.488 868.912 909.637 868.968 909.749 869.08C909.88 869.192 909.936 869.332 909.917 869.5C909.899 869.799 909.74 870.163 909.441 870.592C909.161 871.021 908.751 871.441 908.209 871.852C907.668 872.263 906.987 872.608 906.165 872.888C905.363 873.149 904.439 873.28 903.393 873.28ZM900.313 864.46H906.501V864.376C906.501 863.648 906.38 863.013 906.137 862.472C905.895 861.931 905.54 861.501 905.073 861.184C904.607 860.867 904.047 860.708 903.393 860.708C902.74 860.708 902.18 860.867 901.713 861.184C901.247 861.501 900.892 861.931 900.649 862.472C900.425 863.013 900.313 863.648 900.313 864.376V864.46ZM919.807 873C918.687 873 917.744 872.804 916.979 872.412C916.214 872.02 915.644 871.441 915.271 870.676C914.898 869.892 914.711 868.921 914.711 867.764V861.408H912.499C912.312 861.408 912.154 861.343 912.023 861.212C911.892 861.081 911.827 860.923 911.827 860.736V859.112C911.827 858.925 911.892 858.767 912.023 858.636C912.154 858.505 912.312 858.44 912.499 858.44H914.711V853.792C914.711 853.605 914.767 853.447 914.879 853.316C915.01 853.185 915.178 853.12 915.383 853.12H917.651C917.838 853.12 917.996 853.185 918.127 853.316C918.258 853.447 918.323 853.605 918.323 853.792V858.44H921.823C922.01 858.44 922.168 858.505 922.299 858.636C922.43 858.767 922.495 858.925 922.495 859.112V860.736C922.495 860.923 922.43 861.081 922.299 861.212C922.168 861.343 922.01 861.408 921.823 861.408H918.323V867.484C918.323 868.249 918.454 868.847 918.715 869.276C918.995 869.705 919.471 869.92 920.143 869.92H922.075C922.262 869.92 922.42 869.985 922.551 870.116C922.682 870.247 922.747 870.405 922.747 870.592V872.328C922.747 872.515 922.682 872.673 922.551 872.804C922.42 872.935 922.262 873 922.075 873H919.807ZM927.863 878.32C927.713 878.32 927.583 878.264 927.471 878.152C927.359 878.04 927.303 877.909 927.303 877.76C927.303 877.685 927.303 877.611 927.303 877.536C927.321 877.48 927.359 877.405 927.415 877.312L929.599 872.132L924.223 859.448C924.148 859.261 924.111 859.131 924.111 859.056C924.129 858.888 924.195 858.748 924.307 858.636C924.419 858.505 924.559 858.44 924.727 858.44H926.995C927.219 858.44 927.387 858.496 927.499 858.608C927.611 858.72 927.695 858.841 927.751 858.972L931.475 868.128L935.311 858.972C935.367 858.823 935.451 858.701 935.563 858.608C935.675 858.496 935.843 858.44 936.067 858.44H938.307C938.456 858.44 938.587 858.496 938.699 858.608C938.829 858.72 938.895 858.851 938.895 859C938.895 859.112 938.857 859.261 938.783 859.448L930.859 877.788C930.784 877.937 930.691 878.059 930.579 878.152C930.467 878.264 930.299 878.32 930.075 878.32H927.863Z" fill="#060606"/>
<path d="M387.629 251H284L340.198 203L389 244.679" fill="#FD6B22"/>
<path d="M387.629 251H284L340.198 203L389 244.679" stroke="black" stroke-width="3" stroke-linecap="round" stroke-linejoin="round"/>
<path d="M540.5 639.97L512.938 634C517.663 677.778 478.156 693.365 457.812 695.687C413.712 689.319 405.969 651.909 407.609 634L375.125 639.97V648.924L340.672 654.894C277.672 666.833 258.641 720.229 257 745.434V831H349.531H572L564.125 648.924C547.587 648.924 541.484 642.955 540.5 639.97Z" fill="#14335D"/>
<path d="M362.278 272.903H325.262V306.816H362.278V272.903Z" stroke="#0A8996" stroke-width="3" stroke-linecap="round" stroke-linejoin="round"/>
<path d="M343.771 272.903V305.274" stroke="#0A8996" stroke-width="3" stroke-linecap="round" stroke-linejoin="round"/>
<path d="M346.855 289.859H359.194" stroke="#0A8996" stroke-width="3" stroke-linecap="round" stroke-linejoin="round"/>
<path d="M389 392.043L389.354 243.564C389.354 238.835 392.588 235 396.577 235H535.777C539.766 235 543 238.835 543 243.564V403" fill="#EEF5FF"/>
<path d="M389 392.043L389.354 243.564C389.354 238.835 392.588 235 396.577 235H535.777C539.766 235 543 238.835 543 243.564V403" stroke="#14335D" stroke-width="3" stroke-linecap="round" stroke-linejoin="round"/>
<path d="M520.141 256.405H410.634V290.318H520.141V256.405Z" stroke="#0A8996" stroke-width="3" stroke-linecap="round" stroke-linejoin="round"/>
<path d="M435.312 313.44H412.176V336.563H435.312V313.44Z" stroke="#14335D" stroke-width="3" stroke-linecap="round" stroke-linejoin="round"/>
<path d="M476.955 313.44H453.82V336.563H476.955V313.44Z" stroke="#14335D" stroke-width="3" stroke-linecap="round" stroke-linejoin="round"/>
<path d="M520.141 313.44H497.006V336.563H520.141V313.44Z" stroke="#14335D" stroke-width="3" stroke-linecap="round" stroke-linejoin="round"/>
<path d="M330.432 361.226H359.736" stroke="#14335D" stroke-width="3" stroke-linecap="round" stroke-linejoin="round"/>
<path d="M293.415 361.226H308.839" stroke="#14335D" stroke-width="3" stroke-linecap="round" stroke-linejoin="round"/>
<path d="M739.017 560H768.321" stroke="#14335D" stroke-width="3" stroke-linecap="round" stroke-linejoin="round"/>
<path d="M702 560H717.424" stroke="#14335D" stroke-width="3" stroke-linecap="round" stroke-linejoin="round"/>
<path d="M751.017 579H780.321" stroke="#14335D" stroke-width="3" stroke-linecap="round" stroke-linejoin="round"/>
<path d="M714 579H729.424" stroke="#14335D" stroke-width="3" stroke-linecap="round" stroke-linejoin="round"/>
<path d="M778.017 600H807.321" stroke="#14335D" stroke-width="3" stroke-linecap="round" stroke-linejoin="round"/>
<path d="M741 600H756.424" stroke="#14335D" stroke-width="3" stroke-linecap="round" stroke-linejoin="round"/>
<path d="M330.432 390.514H359.736" stroke="#14335D" stroke-width="3" stroke-linecap="round" stroke-linejoin="round"/>
<path d="M293.415 390.514H308.839" stroke="#14335D" stroke-width="3" stroke-linecap="round" stroke-linejoin="round"/>
<path d="M308.838 546.203V567.784" stroke="#14335D" stroke-width="3" stroke-linecap="round" stroke-linejoin="round"/>
<path d="M308.838 593.989V617.111" stroke="#14335D" stroke-width="3" stroke-linecap="round" stroke-linejoin="round"/>
<path d="M273.364 581.657H294.957" stroke="#14335D" stroke-width="3" stroke-linecap="round" stroke-linejoin="round"/>
<path d="M322.72 581.657H344.313" stroke="#14335D" stroke-width="3" stroke-linecap="round" stroke-linejoin="round"/>
<path d="M673.806 575.244L778.933 671.833H560.304L673.806 575.244Z" fill="#FD6B22"/>
<path d="M454.591 699.533V742.17L436.993 829.063H516.317L486.981 733.461V707.487L464.231 697.637L454.591 699.533Z" fill="#0A8996"/>
<path d="M375.838 646.507L366.723 723.904L457.815 696.589" stroke="black" stroke-width="4" stroke-linecap="round" stroke-linejoin="round"/>
<path d="M462.38 696.589L548.922 726.817" stroke="black" stroke-width="4" stroke-linecap="round" stroke-linejoin="round"/>
<path d="M476.184 705.745V733.492H443.795V705.745" stroke="black" stroke-width="4" stroke-linecap="round" stroke-linejoin="round"/>
<path d="M476.03 733.492H444.165L425.95 829.064H494.245L476.03 733.492Z" stroke="black" stroke-width="4" stroke-linecap="round" stroke-linejoin="round"/>
<path d="M351.253 781.277V829.063" stroke="black" stroke-width="4" stroke-linecap="round" stroke-linejoin="round"/>
<path d="M514.743 602.467V637.057C514.743 664.218 492.734 689.622 465.681 692.35C432.89 695.664 405.236 670.014 405.236 637.921V602.467" stroke="black" stroke-width="4" stroke-linecap="round" stroke-linejoin="round"/>
<path d="M561.014 830.605H251V757.03C251 703.448 290.438 658.021 343.526 650.468L373.988 643.963L378.538 639.416L401.318 634.868" stroke="black" stroke-width="4" stroke-linecap="round" stroke-linejoin="round"/>
<path d="M519.309 635.131L542.089 639.678L546.639 644.241L561.338 647.37" stroke="black" stroke-width="4" stroke-linecap="round" stroke-linejoin="round"/>
<path d="M756.893 662.584V830.605H561.014V662.584" fill="#0A8996"/>
<path d="M756.893 662.584V830.605H561.014V662.584" stroke="black" stroke-width="4" stroke-linecap="round" stroke-linejoin="round"/>
<path d="M662.424 565.995L767.551 662.584H548.922L662.424 565.995Z" stroke="black" stroke-width="4" stroke-linecap="round" stroke-linejoin="round"/>
<path d="M710.622 719.619H628.877V792.068H710.622V719.619Z" fill="white"/>
<path d="M699.826 710.37H618.081V782.819H699.826V710.37Z" stroke="black" stroke-width="4" stroke-linecap="round" stroke-linejoin="round"/>
<path d="M658.183 714.994V778.195" stroke="black" stroke-width="4" stroke-linecap="round" stroke-linejoin="round"/>
<path d="M662.81 747.365H695.199" stroke="black" stroke-width="4" stroke-linecap="round" stroke-linejoin="round"/>
<path d="M766.918 749.677H833.24" stroke="#14335D" stroke-width="3" stroke-linecap="round" stroke-linejoin="round"/>
<path d="M848.664 546.202V612.486" stroke="#14335D" stroke-width="3" stroke-linecap="round" stroke-linejoin="round"/>
<path d="M640.445 516.914H728.36" stroke="#14335D" stroke-width="3" stroke-linecap="round" stroke-linejoin="round"/>
<path d="M655.869 536.953H619.947C619.947 524.668 630.358 514.155 643.422 517.33C652.676 519.581 658.953 528.198 658.953 537.709V560.076" stroke="#14335D" stroke-width="3" stroke-linecap="round" stroke-linejoin="round"/>
<path d="M885.541 695.479L886.621 714.238L891.217 722.562" stroke="#14335D" stroke-width="3" stroke-linecap="round" stroke-linejoin="round"/>
<path d="M786.507 629.226C782.389 626.868 781.725 622.29 781.54 620.702C780.862 614.582 785.288 609.064 791.411 608.386L841.924 614.305C844.669 614.629 847.26 615.692 849.45 617.388L874.868 637.211C877.938 639.601 879.958 643.084 880.513 646.923L883.691 668.734" stroke="#14335D" stroke-width="3" stroke-linecap="round" stroke-linejoin="round"/>
<path d="M830.155 691.101L830.386 648.14C829.955 639.924 823.199 633.481 814.978 633.419C806.11 633.358 798.984 640.695 799.323 649.543L798.737 700.905C799.246 711.31 803.226 721.237 810.058 729.114L831.081 744.883L835.738 753.331" stroke="#14335D" stroke-width="3" stroke-linecap="round" stroke-linejoin="round"/>
<path d="M903.148 744.068L892.182 724.165L834.667 755.818L845.633 775.721L903.148 744.068Z" fill="white" stroke="#0A8996" stroke-width="3" stroke-linecap="round" stroke-linejoin="round"/>
<path d="M833.07 649.357L909.71 682.499C914.661 684.642 916.944 690.391 914.8 695.34C912.656 700.288 906.903 702.569 901.952 700.426L832.854 670.537" fill="#FD6B22"/>
<path d="M833.07 649.357L909.71 682.499C914.661 684.642 916.944 690.391 914.8 695.34C912.656 700.288 906.903 702.569 901.952 700.426L832.854 670.537" stroke="#14335D" stroke-width="3" stroke-linecap="round" stroke-linejoin="round"/>
<path d="M797.796 655.369L762.322 640.032L738.801 618.436L770.08 622.104L804.336 636.933" fill="#FD6B22"/>
<path d="M797.796 655.369L762.322 640.032L738.801 618.436L770.08 622.104L804.336 636.933" stroke="#14335D" stroke-width="3" stroke-linecap="round" stroke-linejoin="round"/>
<path d="M808.562 250.239H847.337C851.471 250.239 854.833 253.6 854.833 257.731V367.391" stroke="#14335D" stroke-width="3" stroke-linecap="round" stroke-linejoin="round"/>
<path d="M549.446 250.239H581.836" stroke="#14335D" stroke-width="3" stroke-linecap="round" stroke-linejoin="round"/>
<path d="M706.767 473.754H671.293V464.505H569.497" stroke="#14335D" stroke-width="3" stroke-linecap="round" stroke-linejoin="round"/>
<path d="M699.055 447.549H569.497" stroke="#14335D" stroke-width="3" stroke-linecap="round" stroke-linejoin="round"/>
<path d="M585 439.592V176H808.642V439.592" fill="#0A8996"/>
<path d="M585 439.592V176H808.642V439.592" stroke="#14335D" stroke-width="3" stroke-linecap="round" stroke-linejoin="round"/>
<path d="M742.241 335.021V267.196H751.634L692.114 226.794L632.595 267.196H641.988V335.021" fill="#FD6B22"/>
<path d="M742.241 335.021V267.196H751.634L692.114 226.794L632.595 267.196H641.988V335.021" stroke="black" stroke-width="3" stroke-linecap="round" stroke-linejoin="round"/>
<circle cx="801.5" cy="446.5" r="68.5" fill="#14335D"/>
<path d="M700.597 335.021V288.776H722.19V335.021" stroke="white" stroke-width="3" stroke-linecap="round" stroke-linejoin="round"/>
<path d="M682.089 288.776H660.496V310.357H682.089V288.776Z" stroke="white" stroke-width="3" stroke-linecap="round" stroke-linejoin="round"/>
<path d="M638.903 267.196H740.698" stroke="black" stroke-width="3" stroke-linecap="round" stroke-linejoin="round"/>
<path d="M632.733 338.104H751.495" stroke="black" stroke-width="3" stroke-linecap="round" stroke-linejoin="round"/>
<path d="M749.706 468.867C748.996 468.867 748.41 468.62 747.947 468.142C747.485 467.664 747.253 467.063 747.253 466.354V433.629C747.253 432.889 747.485 432.288 747.947 431.81C748.41 431.347 748.996 431.101 749.706 431.101C750.477 431.101 751.125 431.409 751.634 432.025L772.718 460.065V433.629C772.718 432.889 772.965 432.288 773.443 431.81C773.921 431.347 774.522 431.101 775.232 431.101C775.941 431.101 776.574 431.332 777.021 431.81C777.468 432.272 777.7 432.889 777.7 433.629V466.354C777.7 467.063 777.468 467.664 777.021 468.142C776.574 468.62 775.972 468.867 775.232 468.867C774.908 468.867 774.569 468.79 774.198 468.651C773.828 468.512 773.535 468.281 773.304 468.003L752.22 439.964V466.354C752.22 467.063 751.988 467.664 751.51 468.142C751.048 468.62 750.431 468.867 749.69 468.867H749.706Z" fill="white"/>
<path d="M788.928 468.867C788.219 468.867 787.617 468.62 787.139 468.142C786.661 467.664 786.414 467.063 786.414 466.354V433.629C786.414 432.889 786.661 432.288 787.139 431.81C787.617 431.347 788.219 431.101 788.928 431.101H810.783C811.524 431.101 812.125 431.316 812.572 431.748C813.02 432.18 813.251 432.75 813.251 433.459C813.251 434.168 813.02 434.677 812.572 435.108C812.125 435.525 811.524 435.74 810.783 435.74H791.442V447.486H805.323C806.064 447.486 806.665 447.702 807.112 448.134C807.56 448.565 807.791 449.12 807.791 449.799C807.791 450.477 807.56 451.032 807.112 451.463C806.665 451.895 806.064 452.111 805.323 452.111H791.442V464.196H810.783C811.524 464.196 812.125 464.412 812.572 464.828C813.02 465.244 813.251 465.799 813.251 466.477C813.251 467.156 813.02 467.757 812.572 468.188C812.125 468.62 811.524 468.836 810.783 468.836H788.928V468.867Z" fill="white"/>
<path d="M827.317 468.867C826.731 468.867 826.222 468.697 825.775 468.343C825.327 467.988 825.003 467.51 824.803 466.894L815.086 434.6C814.762 433.536 814.793 432.689 815.163 432.057C815.533 431.425 816.135 431.116 816.983 431.116C817.523 431.116 818.032 431.27 818.479 431.579C818.927 431.887 819.25 432.365 819.451 433.012L827.918 462.501H826.854L834.689 433.305C834.813 432.827 835.106 432.426 835.553 432.103C836 431.779 836.525 431.625 837.096 431.625C837.604 431.625 838.098 431.764 838.576 432.041C839.039 432.319 839.347 432.719 839.471 433.274L847.352 462.516H846.38L854.894 432.796C855.218 431.702 856.036 431.147 857.362 431.147C858.257 431.147 858.843 431.502 859.105 432.18C859.367 432.873 859.367 433.69 859.105 434.615L849.388 466.848C849.157 467.464 848.833 467.957 848.401 468.327C847.969 468.697 847.46 468.882 846.874 468.882C846.257 468.882 845.733 468.697 845.301 468.297C844.869 467.896 844.545 467.449 844.36 466.894L836.571 436.835H837.728L829.846 466.848C829.615 467.464 829.291 467.957 828.859 468.327C828.427 468.697 827.919 468.882 827.332 468.882L827.317 468.867Z" fill="white"/>
</svg>
