<svg width="187" height="187" viewBox="0 0 187 187" fill="none" xmlns="http://www.w3.org/2000/svg">
<path d="M94.6267 10.6404L106.719 2.33182C107.536 1.76147 108.662 1.94645 109.264 2.7326L118.178 14.3707C118.657 14.9873 119.443 15.2494 120.199 15.0182L134.265 10.8408C135.222 10.5633 136.224 11.072 136.563 12.0123L141.453 25.8393C141.715 26.5638 142.393 27.0571 143.165 27.0879L157.832 27.4578C158.82 27.4887 159.622 28.2748 159.652 29.2768L160.023 43.9362C160.038 44.707 160.532 45.3852 161.272 45.6473L175.107 50.5337C176.048 50.8574 176.557 51.8748 176.279 52.8305L172.099 66.8888C171.883 67.6287 172.146 68.4302 172.747 68.9081L184.392 77.8178C185.178 78.419 185.364 79.5443 184.793 80.3613L176.48 92.4464C176.048 93.0784 176.048 93.9262 176.48 94.5582L184.793 106.643C185.364 107.46 185.178 108.586 184.392 109.187L172.747 118.097C172.13 118.574 171.868 119.361 172.099 120.116L176.279 134.174C176.557 135.13 176.048 136.132 175.107 136.471L161.272 141.357C160.547 141.619 160.053 142.298 160.023 143.068L159.652 157.728C159.622 158.714 158.835 159.516 157.832 159.547L143.165 159.917C142.393 159.932 141.715 160.425 141.453 161.165L136.563 174.992C136.239 175.933 135.222 176.441 134.265 176.164L120.199 171.987C119.459 171.771 118.657 172.033 118.178 172.634L109.264 184.272C108.662 185.058 107.536 185.243 106.719 184.673L94.6267 176.364C93.9943 175.933 93.146 175.933 92.5137 176.364L80.4216 184.673C79.6041 185.243 78.4782 185.058 77.8767 184.272L68.9464 172.634C68.4683 172.017 67.6817 171.755 66.926 171.987L52.8596 176.164C51.9034 176.441 50.9008 175.933 50.5615 174.992L45.6723 161.165C45.4101 160.441 44.7314 159.948 43.9602 159.917L29.2924 159.547C28.3053 159.516 27.5033 158.714 27.4724 157.728L27.1023 143.068C27.0869 142.298 26.5933 141.619 25.853 141.357L12.018 136.471C11.0772 136.147 10.5682 135.13 10.8458 134.174L15.0256 120.116C15.2415 119.376 14.9793 118.574 14.3778 118.097L2.733 109.187C1.9464 108.586 1.76135 107.46 2.33202 106.643L10.6453 94.5582C11.0772 93.9262 11.0772 93.0784 10.6453 92.4464L2.33202 80.3613C1.76135 79.5443 1.9464 78.419 2.733 77.8178L14.3778 68.9081C14.9948 68.4302 15.2569 67.6441 15.0256 66.8888L10.8458 52.8305C10.5682 51.8748 11.0772 50.8728 12.018 50.5337L25.853 45.6473C26.5779 45.3852 27.0714 44.707 27.1023 43.9362L27.4724 29.2768C27.5033 28.2903 28.2899 27.4887 29.2924 27.4578L43.9602 27.0879C44.7314 27.0725 45.4101 26.5792 45.6723 25.8393L50.5615 12.0123C50.8854 11.072 51.9034 10.5633 52.8596 10.8408L66.926 15.0182C67.6663 15.234 68.4683 14.9719 68.9464 14.3707L77.8767 2.7326C78.4782 1.94645 79.6041 1.76147 80.4216 2.33182L92.5137 10.6404C93.146 11.072 93.9943 11.072 94.6267 10.6404Z" fill="#14335D" stroke="white" stroke-width="3" stroke-linecap="round" stroke-linejoin="round"/>
<path d="M40.8757 113.209C40.1662 113.209 39.5801 112.963 39.1174 112.485C38.6547 112.007 38.4233 111.406 38.4233 110.697V77.9714C38.4233 77.2315 38.6547 76.6303 39.1174 76.1524C39.5801 75.69 40.1662 75.4434 40.8757 75.4434C41.6469 75.4434 42.2947 75.7516 42.8036 76.3682L63.8877 104.408V77.9714C63.8877 77.2315 64.1345 76.6303 64.6126 76.1524C65.0907 75.69 65.6922 75.4434 66.4017 75.4434C67.1112 75.4434 67.7435 75.6746 68.1908 76.1524C68.6381 76.6149 68.8695 77.2315 68.8695 77.9714V110.697C68.8695 111.406 68.6381 112.007 68.1908 112.485C67.7435 112.963 67.1421 113.209 66.4017 113.209C66.0778 113.209 65.7385 113.132 65.3683 112.994C64.9982 112.855 64.7051 112.624 64.4738 112.346L43.3897 84.3068V110.697C43.3897 111.406 43.1584 112.007 42.6803 112.485C42.2176 112.963 41.6006 113.209 40.8602 113.209H40.8757Z" fill="white"/>
<path d="M80.098 113.209C79.3885 113.209 78.787 112.963 78.3088 112.485C77.8307 112.007 77.584 111.406 77.584 110.697V77.9714C77.584 77.2315 77.8307 76.6303 78.3088 76.1524C78.787 75.69 79.3885 75.4434 80.098 75.4434H101.953C102.694 75.4434 103.295 75.6592 103.742 76.0908C104.19 76.5224 104.421 77.0927 104.421 77.8018C104.421 78.5109 104.19 79.0196 103.742 79.4512C103.295 79.8674 102.694 80.0832 101.953 80.0832H82.612V91.8292H96.4933C97.2336 91.8292 97.8351 92.045 98.2824 92.4767C98.7297 92.9083 98.961 93.4632 98.961 94.1415C98.961 94.8197 98.7297 95.3746 98.2824 95.8062C97.8351 96.2378 97.2336 96.4537 96.4933 96.4537H82.612V108.539H101.953C102.694 108.539 103.295 108.755 103.742 109.171C104.19 109.587 104.421 110.142 104.421 110.82C104.421 111.498 104.19 112.1 103.742 112.531C103.295 112.963 102.694 113.179 101.953 113.179H80.098V113.209Z" fill="white"/>
<path d="M118.487 113.21C117.901 113.21 117.392 113.04 116.945 112.686C116.497 112.331 116.173 111.853 115.973 111.237L106.256 78.9427C105.932 77.8791 105.963 77.0313 106.333 76.3993C106.703 75.7673 107.305 75.459 108.153 75.459C108.693 75.459 109.202 75.6131 109.649 75.9214C110.096 76.2297 110.42 76.7076 110.621 77.355L119.088 106.843H118.024L125.859 77.6479C125.983 77.17 126.276 76.7692 126.723 76.4455C127.17 76.1218 127.695 75.9677 128.265 75.9677C128.774 75.9677 129.268 76.1064 129.746 76.3839C130.209 76.6613 130.517 77.0621 130.641 77.6171L138.522 106.859H137.55L146.064 77.1392C146.388 76.0447 147.206 75.4898 148.532 75.4898C149.427 75.4898 150.013 75.8444 150.275 76.5226C150.537 77.2163 150.537 78.0333 150.275 78.9581L140.558 111.19C140.327 111.807 140.003 112.3 139.571 112.67C139.139 113.04 138.63 113.225 138.044 113.225C137.427 113.225 136.903 113.04 136.471 112.639C136.039 112.239 135.715 111.792 135.53 111.237L127.741 81.1779H128.898L121.016 111.19C120.785 111.807 120.461 112.3 120.029 112.67C119.597 113.04 119.088 113.225 118.502 113.225L118.487 113.21Z" fill="white"/>
</svg>
