<svg width="224" height="276" viewBox="0 0 224 276" fill="none" xmlns="http://www.w3.org/2000/svg">
<path d="M26.3887 125.084V185.618C26.3887 235.408 67.8164 276.087 117.557 273.359C163.026 270.862 199.133 233.234 199.133 187.175V118.919" fill="#F9FAFF"/>
<path d="M26.3887 125.084V185.618C26.3887 235.408 67.8164 276.087 117.557 273.359C163.026 270.862 199.133 233.234 199.133 187.175V118.919" stroke="black" stroke-width="4" stroke-linecap="round" stroke-linejoin="round"/>
<path d="M152.646 21.4512C129.572 13.1581 107.023 13.451 87.3119 19.9714C82.6694 21.5129 78.9369 25.0274 77.0861 29.5748L71.8575 42.4615L59.6883 41.6599C54.4905 41.3208 49.3853 43.3556 45.915 47.2401C30.8925 64.1192 21.7617 86.3627 21.7617 110.733V147.143L28.5944 140.314L68.9887 112.475C76.8393 131.482 95.5481 144.862 117.388 144.862C139.228 144.862 157.936 131.482 165.787 112.475L206.181 140.314L213.014 147.143V108.529C213.014 69.7764 189.138 34.5846 152.646 21.4666V21.4512Z" fill="#14335D"/>
<path d="M17.1348 131.25L63.6831 99.3264C71.5337 118.333 90.2425 131.713 112.098 131.713C133.953 131.713 152.662 118.333 160.512 99.3264L208.387 122.002" stroke="black" stroke-width="4" stroke-linecap="round" stroke-linejoin="round"/>
<path d="M200.521 183.753C212.043 183.753 221.39 172.67 221.39 158.982C221.39 145.293 212.043 134.21 200.521 134.21" stroke="black" stroke-width="4" stroke-linecap="round" stroke-linejoin="round"/>
<path d="M23.6747 189.919C12.1533 189.919 2.80664 178.836 2.80664 165.147C2.80664 151.459 12.1533 140.376 23.6747 140.376" stroke="black" stroke-width="4" stroke-linecap="round" stroke-linejoin="round"/>
<path d="M144.378 158.997C148.211 158.997 151.319 155.891 151.319 152.06C151.319 148.229 148.211 145.124 144.378 145.124C140.545 145.124 137.438 148.229 137.438 152.06C137.438 155.891 140.545 158.997 144.378 158.997Z" fill="black"/>
<path d="M79.6008 158.997C83.434 158.997 86.5414 155.891 86.5414 152.06C86.5414 148.229 83.434 145.124 79.6008 145.124C75.7676 145.124 72.6602 148.229 72.6602 152.06C72.6602 155.891 75.7676 158.997 79.6008 158.997Z" fill="black"/>
<path d="M89.4707 213.658C92.1236 222.598 101.193 229.211 112.097 229.211C123.002 229.211 132.071 222.583 134.723 213.658" stroke="black" stroke-width="4" stroke-linecap="round" stroke-linejoin="round"/>
<path d="M208.387 122.002V96.9372C208.387 54.5004 180.378 16.6418 139.367 5.58942C119.316 0.178846 99.8977 1.11914 82.6387 6.83801C78.0116 8.37949 74.2945 11.8786 72.4591 16.3952L67.2151 29.3127L55.0151 28.5112C49.8327 28.172 44.7584 30.1914 41.3035 34.0759C26.2655 50.955 17.1348 73.2139 17.1348 97.5846V131.266" stroke="black" stroke-width="4" stroke-linecap="round" stroke-linejoin="round"/>
</svg>
