<svg width="350" height="262" viewBox="0 0 350 262" fill="none" xmlns="http://www.w3.org/2000/svg">
<path d="M127.454 200V183.273H138.725V186.189H130.99V190.174H138.145V193.09H130.99V197.084H138.758V200H127.454ZM144.951 183.273V200H141.472V183.273H144.951ZM153.455 200.245C152.165 200.245 151.054 199.984 150.123 199.461C149.197 198.933 148.484 198.187 147.983 197.223C147.482 196.254 147.232 195.108 147.232 193.784C147.232 192.494 147.482 191.361 147.983 190.387C148.484 189.412 149.189 188.652 150.099 188.108C151.013 187.563 152.086 187.291 153.317 187.291C154.144 187.291 154.915 187.425 155.628 187.691C156.347 187.953 156.973 188.348 157.507 188.876C158.046 189.404 158.465 190.068 158.764 190.869C159.064 191.664 159.214 192.595 159.214 193.662V194.618H148.62V192.461H155.938C155.938 191.96 155.829 191.517 155.612 191.13C155.394 190.743 155.092 190.441 154.705 190.223C154.324 190 153.88 189.888 153.374 189.888C152.846 189.888 152.377 190.011 151.969 190.256C151.566 190.496 151.25 190.82 151.021 191.228C150.793 191.631 150.676 192.08 150.67 192.576V194.626C150.67 195.246 150.785 195.783 151.013 196.235C151.247 196.687 151.577 197.035 152.002 197.28C152.426 197.525 152.93 197.648 153.513 197.648C153.899 197.648 154.253 197.593 154.574 197.484C154.896 197.375 155.171 197.212 155.399 196.994C155.628 196.777 155.802 196.51 155.922 196.194L159.14 196.406C158.977 197.179 158.642 197.855 158.135 198.432C157.635 199.004 156.987 199.45 156.192 199.771C155.402 200.087 154.49 200.245 153.455 200.245ZM167.153 200.245C165.867 200.245 164.762 199.973 163.836 199.428C162.916 198.878 162.208 198.116 161.713 197.141C161.223 196.167 160.978 195.045 160.978 193.776C160.978 192.491 161.226 191.364 161.721 190.395C162.222 189.42 162.933 188.661 163.853 188.116C164.773 187.566 165.867 187.291 167.136 187.291C168.231 187.291 169.189 187.49 170.011 187.887C170.833 188.285 171.484 188.843 171.963 189.562C172.442 190.281 172.706 191.125 172.756 192.094H169.472C169.38 191.468 169.135 190.964 168.737 190.583C168.345 190.196 167.83 190.003 167.193 190.003C166.654 190.003 166.183 190.15 165.78 190.444C165.383 190.732 165.073 191.154 164.849 191.71C164.626 192.265 164.514 192.938 164.514 193.727C164.514 194.528 164.623 195.208 164.841 195.769C165.064 196.33 165.377 196.757 165.78 197.051C166.183 197.346 166.654 197.493 167.193 197.493C167.591 197.493 167.948 197.411 168.263 197.248C168.585 197.084 168.849 196.847 169.056 196.537C169.268 196.221 169.407 195.843 169.472 195.402H172.756C172.701 196.36 172.44 197.204 171.971 197.934C171.509 198.658 170.869 199.224 170.052 199.632C169.235 200.041 168.269 200.245 167.153 200.245ZM181.656 187.455V190.068H174.101V187.455H181.656ZM175.816 184.449H179.296V196.145C179.296 196.466 179.345 196.717 179.443 196.896C179.541 197.071 179.677 197.193 179.851 197.264C180.031 197.335 180.238 197.37 180.472 197.37C180.635 197.37 180.799 197.356 180.962 197.329C181.125 197.297 181.251 197.272 181.338 197.256L181.885 199.845C181.711 199.899 181.466 199.962 181.15 200.033C180.834 200.109 180.45 200.155 179.998 200.172C179.16 200.204 178.425 200.093 177.793 199.837C177.167 199.581 176.679 199.183 176.331 198.644C175.982 198.105 175.811 197.424 175.816 196.602V184.449ZM183.923 200V187.455H187.296V189.643H187.427C187.655 188.865 188.039 188.277 188.578 187.879C189.117 187.476 189.738 187.275 190.44 187.275C190.615 187.275 190.803 187.286 191.004 187.308C191.205 187.329 191.382 187.359 191.535 187.397V190.485C191.372 190.436 191.146 190.392 190.857 190.354C190.568 190.316 190.304 190.297 190.065 190.297C189.553 190.297 189.095 190.408 188.693 190.632C188.295 190.85 187.979 191.154 187.745 191.547C187.516 191.939 187.402 192.391 187.402 192.902V200H183.923ZM193.334 200V187.455H196.813V200H193.334ZM195.082 185.837C194.564 185.837 194.121 185.666 193.75 185.323C193.386 184.974 193.203 184.558 193.203 184.073C193.203 183.594 193.386 183.183 193.75 182.84C194.121 182.491 194.564 182.317 195.082 182.317C195.599 182.317 196.04 182.491 196.405 182.84C196.775 183.183 196.96 183.594 196.96 184.073C196.96 184.558 196.775 184.974 196.405 185.323C196.04 185.666 195.599 185.837 195.082 185.837ZM205.269 200.245C203.984 200.245 202.878 199.973 201.953 199.428C201.032 198.878 200.325 198.116 199.829 197.141C199.339 196.167 199.094 195.045 199.094 193.776C199.094 192.491 199.342 191.364 199.837 190.395C200.338 189.42 201.049 188.661 201.969 188.116C202.889 187.566 203.984 187.291 205.252 187.291C206.347 187.291 207.305 187.49 208.127 187.887C208.95 188.285 209.6 188.843 210.079 189.562C210.559 190.281 210.823 191.125 210.872 192.094H207.588C207.496 191.468 207.251 190.964 206.853 190.583C206.461 190.196 205.947 190.003 205.31 190.003C204.771 190.003 204.3 190.15 203.897 190.444C203.499 190.732 203.189 191.154 202.965 191.71C202.742 192.265 202.631 192.938 202.631 193.727C202.631 194.528 202.739 195.208 202.957 195.769C203.181 196.33 203.494 196.757 203.897 197.051C204.3 197.346 204.771 197.493 205.31 197.493C205.707 197.493 206.064 197.411 206.38 197.248C206.701 197.084 206.965 196.847 207.172 196.537C207.384 196.221 207.523 195.843 207.588 195.402H210.872C210.817 196.36 210.556 197.204 210.088 197.934C209.625 198.658 208.985 199.224 208.168 199.632C207.351 200.041 206.385 200.245 205.269 200.245ZM213.099 200V187.455H216.579V200H213.099ZM214.847 185.837C214.33 185.837 213.886 185.666 213.516 185.323C213.151 184.974 212.969 184.558 212.969 184.073C212.969 183.594 213.151 183.183 213.516 182.84C213.886 182.491 214.33 182.317 214.847 182.317C215.365 182.317 215.806 182.491 216.17 182.84C216.541 183.183 216.726 183.594 216.726 184.073C216.726 184.558 216.541 184.974 216.17 185.323C215.806 185.666 215.365 185.837 214.847 185.837ZM222.943 200.237C222.143 200.237 221.43 200.098 220.804 199.82C220.177 199.537 219.682 199.121 219.317 198.571C218.958 198.015 218.778 197.324 218.778 196.496C218.778 195.799 218.906 195.214 219.162 194.74C219.418 194.266 219.766 193.885 220.207 193.597C220.648 193.308 221.149 193.09 221.71 192.943C222.276 192.796 222.87 192.693 223.491 192.633C224.22 192.557 224.808 192.486 225.255 192.42C225.701 192.35 226.025 192.246 226.227 192.11C226.428 191.974 226.529 191.772 226.529 191.506V191.457C226.529 190.939 226.366 190.539 226.039 190.256C225.718 189.973 225.26 189.831 224.667 189.831C224.041 189.831 223.542 189.97 223.172 190.248C222.802 190.52 222.557 190.863 222.437 191.277L219.219 191.016C219.382 190.253 219.704 189.594 220.183 189.039C220.662 188.478 221.28 188.048 222.037 187.749C222.799 187.444 223.681 187.291 224.683 187.291C225.38 187.291 226.047 187.373 226.684 187.536C227.327 187.7 227.896 187.953 228.391 188.296C228.892 188.639 229.287 189.08 229.576 189.619C229.864 190.153 230.008 190.792 230.008 191.538V200H226.709V198.26H226.611C226.409 198.652 226.14 198.998 225.802 199.298C225.465 199.592 225.059 199.823 224.585 199.992C224.111 200.155 223.564 200.237 222.943 200.237ZM223.94 197.836C224.452 197.836 224.904 197.735 225.296 197.533C225.688 197.326 225.995 197.049 226.219 196.7C226.442 196.352 226.554 195.957 226.554 195.516V194.185C226.445 194.255 226.295 194.321 226.104 194.381C225.919 194.435 225.71 194.487 225.475 194.536C225.241 194.579 225.007 194.62 224.773 194.658C224.539 194.691 224.326 194.721 224.136 194.748C223.728 194.808 223.371 194.903 223.066 195.034C222.761 195.165 222.524 195.342 222.355 195.565C222.187 195.783 222.102 196.055 222.102 196.382C222.102 196.855 222.274 197.218 222.617 197.468C222.965 197.713 223.406 197.836 223.94 197.836ZM236.187 192.747V200H232.708V187.455H236.024V189.668H236.171C236.449 188.938 236.914 188.361 237.568 187.936C238.221 187.506 239.013 187.291 239.944 187.291C240.816 187.291 241.575 187.482 242.223 187.863C242.871 188.244 243.375 188.789 243.734 189.496C244.093 190.199 244.273 191.037 244.273 192.012V200H240.794V192.633C240.799 191.865 240.603 191.266 240.206 190.836C239.808 190.4 239.261 190.183 238.564 190.183C238.096 190.183 237.682 190.283 237.323 190.485C236.969 190.686 236.691 190.98 236.489 191.367C236.293 191.748 236.193 192.208 236.187 192.747Z" fill="white"/>
<rect width="350" height="234" rx="28" fill="#0A8996"/>
<circle cx="175.5" cy="93.5" r="70.5" fill="white"/>
<path d="M122.766 174.273L126.809 186.982H126.964L131.015 174.273H134.936L129.169 191H124.612L118.837 174.273H122.766ZM136.884 191V178.455H140.363V191H136.884ZM138.631 176.837C138.114 176.837 137.67 176.666 137.3 176.323C136.935 175.974 136.753 175.558 136.753 175.073C136.753 174.594 136.935 174.183 137.3 173.84C137.67 173.491 138.114 173.317 138.631 173.317C139.149 173.317 139.59 173.491 139.955 173.84C140.325 174.183 140.51 174.594 140.51 175.073C140.51 175.558 140.325 175.974 139.955 176.323C139.59 176.666 139.149 176.837 138.631 176.837ZM148.868 191.245C147.577 191.245 146.466 190.984 145.535 190.461C144.609 189.933 143.896 189.187 143.395 188.223C142.894 187.254 142.644 186.108 142.644 184.784C142.644 183.494 142.894 182.361 143.395 181.387C143.896 180.412 144.601 179.652 145.511 179.108C146.425 178.563 147.498 178.291 148.729 178.291C149.556 178.291 150.327 178.425 151.04 178.691C151.759 178.953 152.385 179.348 152.919 179.876C153.458 180.404 153.877 181.068 154.176 181.869C154.476 182.664 154.626 183.595 154.626 184.662V185.618H144.032V183.461H151.35C151.35 182.96 151.242 182.517 151.024 182.13C150.806 181.743 150.504 181.441 150.117 181.223C149.736 181 149.292 180.888 148.786 180.888C148.258 180.888 147.789 181.011 147.381 181.256C146.978 181.496 146.662 181.82 146.434 182.228C146.205 182.631 146.088 183.08 146.082 183.576V185.626C146.082 186.246 146.197 186.783 146.425 187.235C146.66 187.687 146.989 188.035 147.414 188.28C147.838 188.525 148.342 188.648 148.925 188.648C149.311 188.648 149.665 188.593 149.987 188.484C150.308 188.375 150.583 188.212 150.811 187.994C151.04 187.777 151.214 187.51 151.334 187.194L154.552 187.406C154.389 188.179 154.054 188.855 153.548 189.432C153.047 190.004 152.399 190.45 151.604 190.771C150.814 191.087 149.902 191.245 148.868 191.245ZM159.281 191L155.867 178.455H159.387L161.331 186.884H161.446L163.471 178.455H166.926L168.984 186.835H169.091L171.002 178.455H174.514L171.108 191H167.424L165.268 183.11H165.113L162.957 191H159.281ZM192.85 179.68C192.736 179.282 192.575 178.931 192.368 178.626C192.161 178.316 191.908 178.054 191.609 177.842C191.315 177.624 190.977 177.458 190.596 177.344C190.22 177.229 189.804 177.172 189.346 177.172C188.491 177.172 187.74 177.385 187.092 177.809C186.449 178.234 185.949 178.852 185.589 179.663C185.23 180.469 185.05 181.455 185.05 182.62C185.05 183.785 185.227 184.776 185.581 185.593C185.935 186.41 186.436 187.033 187.084 187.463C187.732 187.888 188.497 188.1 189.379 188.1C190.179 188.1 190.863 187.959 191.429 187.676C192.001 187.387 192.436 186.982 192.736 186.459C193.041 185.936 193.193 185.318 193.193 184.605L193.912 184.711H189.599V182.048H196.599V184.156C196.599 185.626 196.289 186.889 195.668 187.945C195.047 188.996 194.192 189.808 193.103 190.379C192.014 190.946 190.767 191.229 189.363 191.229C187.794 191.229 186.417 190.883 185.23 190.191C184.043 189.494 183.117 188.506 182.453 187.227C181.794 185.942 181.464 184.417 181.464 182.653C181.464 181.297 181.661 180.088 182.053 179.026C182.45 177.959 183.005 177.055 183.719 176.315C184.432 175.574 185.262 175.011 186.21 174.624C187.157 174.237 188.184 174.044 189.289 174.044C190.237 174.044 191.119 174.183 191.935 174.461C192.752 174.733 193.476 175.119 194.108 175.62C194.745 176.121 195.265 176.718 195.668 177.409C196.071 178.095 196.33 178.852 196.444 179.68H192.85ZM207.235 185.658V178.455H210.715V191H207.374V188.721H207.244C206.96 189.456 206.489 190.047 205.831 190.494C205.177 190.94 204.379 191.163 203.437 191.163C202.599 191.163 201.861 190.973 201.224 190.592C200.587 190.21 200.089 189.669 199.729 188.966C199.375 188.264 199.196 187.423 199.19 186.442V178.455H202.67V185.822C202.675 186.562 202.874 187.148 203.266 187.578C203.658 188.008 204.183 188.223 204.842 188.223C205.262 188.223 205.654 188.128 206.018 187.937C206.383 187.741 206.677 187.453 206.9 187.071C207.129 186.69 207.241 186.219 207.235 185.658ZM219.215 191.245C217.925 191.245 216.814 190.984 215.883 190.461C214.957 189.933 214.244 189.187 213.743 188.223C213.242 187.254 212.991 186.108 212.991 184.784C212.991 183.494 213.242 182.361 213.743 181.387C214.244 180.412 214.949 179.652 215.858 179.108C216.773 178.563 217.846 178.291 219.076 178.291C219.904 178.291 220.674 178.425 221.388 178.691C222.107 178.953 222.733 179.348 223.266 179.876C223.805 180.404 224.225 181.068 224.524 181.869C224.824 182.664 224.973 183.595 224.973 184.662V185.618H214.38V183.461H221.698C221.698 182.96 221.589 182.517 221.371 182.13C221.154 181.743 220.851 181.441 220.465 181.223C220.084 181 219.64 180.888 219.134 180.888C218.605 180.888 218.137 181.011 217.729 181.256C217.326 181.496 217.01 181.82 216.781 182.228C216.553 182.631 216.435 183.08 216.43 183.576V185.626C216.43 186.246 216.544 186.783 216.773 187.235C217.007 187.687 217.337 188.035 217.761 188.28C218.186 188.525 218.69 188.648 219.272 188.648C219.659 188.648 220.013 188.593 220.334 188.484C220.655 188.375 220.93 188.212 221.159 187.994C221.388 187.777 221.562 187.51 221.682 187.194L224.9 187.406C224.737 188.179 224.402 188.855 223.895 189.432C223.394 190.004 222.746 190.45 221.951 190.771C221.162 191.087 220.25 191.245 219.215 191.245ZM237.682 182.032L234.497 182.228C234.442 181.956 234.325 181.711 234.146 181.493C233.966 181.27 233.729 181.093 233.435 180.962C233.146 180.826 232.801 180.758 232.398 180.758C231.859 180.758 231.404 180.872 231.034 181.101C230.663 181.324 230.478 181.624 230.478 181.999C230.478 182.299 230.598 182.552 230.838 182.759C231.077 182.966 231.488 183.132 232.071 183.257L234.342 183.714C235.561 183.965 236.471 184.368 237.07 184.923C237.669 185.479 237.968 186.208 237.968 187.112C237.968 187.934 237.726 188.656 237.241 189.277C236.762 189.897 236.103 190.382 235.265 190.73C234.431 191.074 233.47 191.245 232.381 191.245C230.721 191.245 229.397 190.899 228.412 190.208C227.432 189.511 226.857 188.563 226.689 187.365L230.111 187.186C230.214 187.692 230.465 188.079 230.862 188.346C231.26 188.607 231.769 188.738 232.39 188.738C232.999 188.738 233.489 188.621 233.86 188.386C234.235 188.147 234.426 187.839 234.431 187.463C234.426 187.148 234.293 186.889 234.031 186.688C233.77 186.481 233.367 186.323 232.822 186.214L230.65 185.781C229.425 185.536 228.513 185.111 227.914 184.507C227.32 183.902 227.023 183.132 227.023 182.195C227.023 181.389 227.241 180.695 227.677 180.113C228.118 179.53 228.736 179.081 229.531 178.765C230.331 178.449 231.268 178.291 232.341 178.291C233.925 178.291 235.172 178.626 236.081 179.296C236.996 179.966 237.53 180.878 237.682 182.032ZM246.832 178.455V181.068H239.277V178.455H246.832ZM240.992 175.449H244.472V187.145C244.472 187.466 244.521 187.717 244.619 187.896C244.717 188.071 244.853 188.193 245.027 188.264C245.207 188.335 245.414 188.37 245.648 188.37C245.811 188.37 245.974 188.356 246.138 188.329C246.301 188.297 246.426 188.272 246.513 188.256L247.061 190.845C246.886 190.899 246.641 190.962 246.326 191.033C246.01 191.109 245.626 191.155 245.174 191.172C244.335 191.204 243.6 191.093 242.969 190.837C242.342 190.581 241.855 190.183 241.507 189.644C241.158 189.105 240.987 188.424 240.992 187.602V175.449ZM95.9128 219V202.273H102.512C103.781 202.273 104.862 202.515 105.755 203C106.648 203.479 107.328 204.146 107.797 205.001C108.27 205.85 108.507 206.83 108.507 207.941C108.507 209.052 108.268 210.032 107.789 210.881C107.309 211.731 106.615 212.392 105.706 212.866C104.802 213.34 103.707 213.577 102.422 213.577H98.2161V210.743H101.851C102.531 210.743 103.092 210.625 103.533 210.391C103.98 210.152 104.312 209.822 104.53 209.403C104.753 208.978 104.865 208.491 104.865 207.941C104.865 207.386 104.753 206.901 104.53 206.487C104.312 206.068 103.98 205.744 103.533 205.515C103.087 205.281 102.52 205.164 101.834 205.164H99.4494V219H95.9128ZM113.98 219.237C113.179 219.237 112.466 219.098 111.84 218.82C111.213 218.537 110.718 218.121 110.353 217.571C109.994 217.015 109.814 216.324 109.814 215.496C109.814 214.799 109.942 214.214 110.198 213.74C110.454 213.266 110.802 212.885 111.243 212.597C111.684 212.308 112.185 212.09 112.746 211.943C113.313 211.796 113.906 211.693 114.527 211.633C115.256 211.557 115.845 211.486 116.291 211.42C116.738 211.35 117.061 211.246 117.263 211.11C117.464 210.974 117.565 210.772 117.565 210.506V210.457C117.565 209.939 117.402 209.539 117.075 209.256C116.754 208.973 116.296 208.831 115.703 208.831C115.077 208.831 114.579 208.97 114.208 209.248C113.838 209.52 113.593 209.863 113.473 210.277L110.255 210.016C110.419 209.253 110.74 208.594 111.219 208.039C111.698 207.478 112.316 207.048 113.073 206.749C113.835 206.444 114.717 206.291 115.719 206.291C116.416 206.291 117.083 206.373 117.72 206.536C118.363 206.7 118.932 206.953 119.427 207.296C119.928 207.639 120.323 208.08 120.612 208.619C120.9 209.153 121.045 209.792 121.045 210.538V219H117.745V217.26H117.647C117.445 217.652 117.176 217.998 116.838 218.298C116.501 218.592 116.095 218.823 115.621 218.992C115.148 219.155 114.6 219.237 113.98 219.237ZM114.976 216.836C115.488 216.836 115.94 216.735 116.332 216.533C116.724 216.326 117.032 216.049 117.255 215.7C117.478 215.352 117.59 214.957 117.59 214.516V213.185C117.481 213.255 117.331 213.321 117.14 213.381C116.955 213.435 116.746 213.487 116.512 213.536C116.277 213.579 116.043 213.62 115.809 213.658C115.575 213.691 115.363 213.721 115.172 213.748C114.764 213.808 114.407 213.903 114.102 214.034C113.797 214.165 113.56 214.342 113.392 214.565C113.223 214.783 113.138 215.055 113.138 215.382C113.138 215.855 113.31 216.218 113.653 216.468C114.001 216.713 114.442 216.836 114.976 216.836ZM123.744 219V206.455H127.117V208.643H127.248C127.477 207.865 127.86 207.277 128.4 206.879C128.939 206.476 129.559 206.275 130.262 206.275C130.436 206.275 130.624 206.286 130.825 206.308C131.027 206.329 131.204 206.359 131.356 206.397V209.485C131.193 209.436 130.967 209.392 130.678 209.354C130.39 209.316 130.126 209.297 129.886 209.297C129.374 209.297 128.917 209.408 128.514 209.632C128.116 209.85 127.801 210.154 127.566 210.547C127.338 210.939 127.223 211.391 127.223 211.902V219H123.744ZM136.308 215.39L136.316 211.216H136.822L140.841 206.455H144.835L139.436 212.76H138.611L136.308 215.39ZM133.155 219V202.273H136.634V219H133.155ZM140.996 219L137.304 213.536L139.624 211.077L145.072 219H140.996ZM146.542 219V206.455H150.021V219H146.542ZM148.29 204.837C147.772 204.837 147.329 204.666 146.958 204.323C146.594 203.974 146.411 203.558 146.411 203.073C146.411 202.594 146.594 202.183 146.958 201.84C147.329 201.491 147.772 201.317 148.29 201.317C148.807 201.317 149.248 201.491 149.613 201.84C149.983 202.183 150.168 202.594 150.168 203.073C150.168 203.558 149.983 203.974 149.613 204.323C149.248 204.666 148.807 204.837 148.29 204.837ZM156.288 211.747V219H152.808V206.455H156.124V208.668H156.271C156.549 207.938 157.015 207.361 157.668 206.936C158.322 206.506 159.114 206.291 160.045 206.291C160.916 206.291 161.676 206.482 162.324 206.863C162.972 207.244 163.475 207.789 163.835 208.496C164.194 209.199 164.374 210.037 164.374 211.012V219H160.894V211.633C160.9 210.865 160.704 210.266 160.306 209.836C159.909 209.4 159.362 209.183 158.665 209.183C158.196 209.183 157.782 209.283 157.423 209.485C157.069 209.686 156.791 209.98 156.59 210.367C156.394 210.748 156.293 211.208 156.288 211.747ZM172.768 223.966C171.641 223.966 170.674 223.811 169.869 223.5C169.068 223.195 168.431 222.779 167.957 222.251C167.484 221.723 167.176 221.129 167.034 220.47L170.252 220.037C170.35 220.288 170.506 220.522 170.718 220.74C170.93 220.958 171.211 221.132 171.559 221.262C171.913 221.399 172.343 221.467 172.85 221.467C173.607 221.467 174.23 221.281 174.72 220.911C175.216 220.546 175.463 219.934 175.463 219.074V216.778H175.316C175.164 217.127 174.935 217.456 174.63 217.767C174.325 218.077 173.933 218.33 173.454 218.526C172.975 218.722 172.403 218.82 171.739 218.82C170.797 218.82 169.939 218.603 169.166 218.167C168.398 217.726 167.786 217.053 167.328 216.15C166.876 215.24 166.65 214.091 166.65 212.703C166.65 211.282 166.882 210.095 167.345 209.142C167.808 208.189 168.423 207.475 169.191 207.002C169.964 206.528 170.811 206.291 171.731 206.291C172.433 206.291 173.021 206.411 173.495 206.651C173.969 206.885 174.35 207.179 174.638 207.533C174.932 207.881 175.158 208.224 175.316 208.562H175.447V206.455H178.902V219.123C178.902 220.19 178.641 221.083 178.118 221.801C177.595 222.52 176.871 223.059 175.945 223.419C175.025 223.783 173.966 223.966 172.768 223.966ZM172.842 216.207C173.402 216.207 173.876 216.068 174.263 215.79C174.655 215.507 174.954 215.104 175.161 214.581C175.373 214.053 175.48 213.422 175.48 212.686C175.48 211.951 175.376 211.314 175.169 210.775C174.962 210.231 174.663 209.809 174.271 209.509C173.879 209.21 173.402 209.06 172.842 209.06C172.27 209.06 171.788 209.215 171.396 209.526C171.004 209.83 170.707 210.255 170.506 210.8C170.304 211.344 170.203 211.973 170.203 212.686C170.203 213.411 170.304 214.037 170.506 214.565C170.713 215.088 171.009 215.493 171.396 215.782C171.788 216.065 172.27 216.207 172.842 216.207ZM196.134 207.083C196.068 206.425 195.788 205.913 195.292 205.548C194.797 205.183 194.124 205.001 193.275 205.001C192.698 205.001 192.21 205.082 191.813 205.246C191.415 205.404 191.11 205.624 190.898 205.907C190.691 206.19 190.588 206.512 190.588 206.871C190.577 207.171 190.639 207.432 190.776 207.655C190.917 207.878 191.11 208.072 191.355 208.235C191.6 208.393 191.884 208.532 192.205 208.652C192.526 208.766 192.869 208.864 193.234 208.946L194.737 209.305C195.467 209.468 196.136 209.686 196.746 209.958C197.356 210.231 197.884 210.566 198.331 210.963C198.777 211.361 199.123 211.829 199.368 212.368C199.618 212.907 199.746 213.525 199.752 214.222C199.746 215.246 199.485 216.133 198.968 216.885C198.456 217.631 197.715 218.21 196.746 218.624C195.782 219.033 194.62 219.237 193.259 219.237C191.908 219.237 190.732 219.03 189.73 218.616C188.734 218.202 187.955 217.59 187.394 216.778C186.839 215.962 186.547 214.952 186.52 213.748H189.942C189.981 214.309 190.141 214.777 190.424 215.153C190.713 215.523 191.097 215.804 191.576 215.994C192.061 216.179 192.608 216.272 193.218 216.272C193.817 216.272 194.337 216.185 194.778 216.011C195.224 215.836 195.57 215.594 195.815 215.284C196.06 214.973 196.183 214.617 196.183 214.214C196.183 213.838 196.071 213.522 195.848 213.266C195.63 213.01 195.309 212.793 194.884 212.613C194.465 212.433 193.95 212.27 193.34 212.123L191.519 211.665C190.109 211.322 188.995 210.786 188.178 210.056C187.362 209.327 186.956 208.344 186.961 207.108C186.956 206.095 187.225 205.21 187.77 204.453C188.32 203.697 189.074 203.106 190.032 202.681C190.991 202.256 192.08 202.044 193.299 202.044C194.541 202.044 195.624 202.256 196.55 202.681C197.481 203.106 198.205 203.697 198.723 204.453C199.24 205.21 199.507 206.087 199.523 207.083H196.134ZM207.783 219.245C206.492 219.245 205.381 218.984 204.45 218.461C203.525 217.933 202.811 217.187 202.31 216.223C201.809 215.254 201.559 214.108 201.559 212.784C201.559 211.494 201.809 210.361 202.31 209.387C202.811 208.412 203.516 207.652 204.426 207.108C205.34 206.563 206.413 206.291 207.644 206.291C208.471 206.291 209.242 206.425 209.955 206.691C210.674 206.953 211.3 207.348 211.834 207.876C212.373 208.404 212.792 209.068 213.092 209.869C213.391 210.664 213.541 211.595 213.541 212.662V213.618H202.947V211.461H210.266C210.266 210.96 210.157 210.517 209.939 210.13C209.721 209.743 209.419 209.441 209.032 209.223C208.651 209 208.207 208.888 207.701 208.888C207.173 208.888 206.704 209.011 206.296 209.256C205.893 209.496 205.577 209.82 205.349 210.228C205.12 210.631 205.003 211.08 204.997 211.576V213.626C204.997 214.246 205.112 214.783 205.34 215.235C205.575 215.687 205.904 216.035 206.329 216.28C206.753 216.525 207.257 216.648 207.84 216.648C208.226 216.648 208.58 216.593 208.902 216.484C209.223 216.375 209.498 216.212 209.726 215.994C209.955 215.777 210.129 215.51 210.249 215.194L213.467 215.406C213.304 216.179 212.969 216.855 212.463 217.432C211.962 218.004 211.314 218.45 210.519 218.771C209.729 219.087 208.817 219.245 207.783 219.245ZM221.48 219.245C220.195 219.245 219.089 218.973 218.164 218.428C217.243 217.878 216.536 217.116 216.04 216.141C215.55 215.167 215.305 214.045 215.305 212.776C215.305 211.491 215.553 210.364 216.048 209.395C216.549 208.42 217.26 207.661 218.18 207.116C219.1 206.566 220.195 206.291 221.463 206.291C222.558 206.291 223.516 206.49 224.338 206.887C225.161 207.285 225.811 207.843 226.29 208.562C226.77 209.281 227.034 210.125 227.083 211.094H223.799C223.707 210.468 223.462 209.964 223.064 209.583C222.672 209.196 222.158 209.003 221.521 209.003C220.981 209.003 220.51 209.15 220.108 209.444C219.71 209.732 219.4 210.154 219.176 210.71C218.953 211.265 218.842 211.938 218.842 212.727C218.842 213.528 218.95 214.208 219.168 214.769C219.391 215.33 219.705 215.757 220.108 216.051C220.51 216.346 220.981 216.493 221.521 216.493C221.918 216.493 222.275 216.411 222.59 216.248C222.912 216.084 223.176 215.847 223.383 215.537C223.595 215.221 223.734 214.843 223.799 214.402H227.083C227.028 215.36 226.767 216.204 226.299 216.934C225.836 217.658 225.196 218.224 224.379 218.632C223.562 219.041 222.596 219.245 221.48 219.245ZM235.983 206.455V209.068H228.428V206.455H235.983ZM230.143 203.449H233.623V215.145C233.623 215.466 233.672 215.717 233.77 215.896C233.868 216.071 234.004 216.193 234.178 216.264C234.358 216.335 234.565 216.37 234.799 216.37C234.962 216.37 235.126 216.356 235.289 216.329C235.452 216.297 235.578 216.272 235.665 216.256L236.212 218.845C236.038 218.899 235.793 218.962 235.477 219.033C235.161 219.109 234.777 219.155 234.325 219.172C233.487 219.204 232.752 219.093 232.12 218.837C231.494 218.581 231.007 218.183 230.658 217.644C230.31 217.105 230.138 216.424 230.143 215.602V203.449ZM238.25 219V206.455H241.729V219H238.25ZM239.998 204.837C239.48 204.837 239.037 204.666 238.666 204.323C238.302 203.974 238.119 203.558 238.119 203.073C238.119 202.594 238.302 202.183 238.666 201.84C239.037 201.491 239.48 201.317 239.998 201.317C240.515 201.317 240.956 201.491 241.321 201.84C241.691 202.183 241.876 202.594 241.876 203.073C241.876 203.558 241.691 203.974 241.321 204.323C240.956 204.666 240.515 204.837 239.998 204.837ZM250.185 219.245C248.916 219.245 247.819 218.975 246.893 218.436C245.973 217.892 245.262 217.135 244.761 216.166C244.261 215.191 244.01 214.061 244.01 212.776C244.01 211.48 244.261 210.348 244.761 209.379C245.262 208.404 245.973 207.647 246.893 207.108C247.819 206.563 248.916 206.291 250.185 206.291C251.453 206.291 252.548 206.563 253.468 207.108C254.394 207.647 255.107 208.404 255.608 209.379C256.109 210.348 256.359 211.48 256.359 212.776C256.359 214.061 256.109 215.191 255.608 216.166C255.107 217.135 254.394 217.892 253.468 218.436C252.548 218.975 251.453 219.245 250.185 219.245ZM250.201 216.55C250.778 216.55 251.26 216.386 251.647 216.06C252.033 215.728 252.325 215.276 252.521 214.704C252.722 214.132 252.823 213.481 252.823 212.752C252.823 212.022 252.722 211.371 252.521 210.8C252.325 210.228 252.033 209.776 251.647 209.444C251.26 209.112 250.778 208.946 250.201 208.946C249.618 208.946 249.128 209.112 248.731 209.444C248.339 209.776 248.042 210.228 247.841 210.8C247.645 211.371 247.547 212.022 247.547 212.752C247.547 213.481 247.645 214.132 247.841 214.704C248.042 215.276 248.339 215.728 248.731 216.06C249.128 216.386 249.618 216.55 250.201 216.55ZM262.101 211.747V219H258.622V206.455H261.938V208.668H262.085C262.363 207.938 262.828 207.361 263.482 206.936C264.135 206.506 264.927 206.291 265.858 206.291C266.73 206.291 267.489 206.482 268.137 206.863C268.785 207.244 269.289 207.789 269.648 208.496C270.008 209.199 270.187 210.037 270.187 211.012V219H266.708V211.633C266.713 210.865 266.517 210.266 266.12 209.836C265.722 209.4 265.175 209.183 264.478 209.183C264.01 209.183 263.596 209.283 263.237 209.485C262.883 209.686 262.605 209.98 262.403 210.367C262.207 210.748 262.107 211.208 262.101 211.747Z" fill="white"/>
<path d="M214.586 121C216.47 121 218 119.441 218 117.52V69.4807C218 67.5578 216.47 66.0002 214.586 66.0002H137.414C135.53 66.0002 134 67.5578 134 69.4807V117.52C134 119.441 135.53 121 137.414 121H214.586Z" fill="#7A6D79"/>
<path d="M214.585 66H209.122C211.008 66 212.537 67.5585 212.537 69.481V117.519C212.537 119.441 211.008 121 209.122 121H214.585C216.471 121 218 119.441 218 117.519V69.481C218 67.5585 216.471 66 214.585 66Z" fill="#685E68"/>
<path d="M156.404 66.0002H214.586C216.47 66.0002 218 67.5578 218 69.4807V117.52C218 119.441 216.47 121 214.586 121H137.414C135.53 121 134 119.441 134 117.52V69.4807C134 67.5578 135.53 66.0002 137.414 66.0002H150.489" stroke="black" stroke-width="3" stroke-miterlimit="10" stroke-linecap="round" stroke-linejoin="round"/>
<path d="M140.865 112.297V77.4967C140.865 76.8094 141.065 76.1376 141.439 75.5658L143.266 72.7713C143.899 71.8028 144.966 71.2211 146.107 71.2211H162.94C164.082 71.2211 165.148 71.8028 165.781 72.7713L167.609 75.5658C167.982 76.1376 168.182 76.8094 168.182 77.4967V112.297C168.182 114.22 166.653 115.778 164.767 115.778H144.28C142.394 115.778 140.865 114.22 140.865 112.297Z" fill="#60B7FF"/>
<path d="M167.609 75.566L165.781 72.7715C165.148 71.803 164.082 71.2213 162.94 71.2213H157.818C158.96 71.2213 160.026 71.803 160.659 72.7715L162.487 75.566C162.861 76.1379 163.06 76.8097 163.06 77.497V112.298C163.06 114.22 161.532 115.779 159.646 115.779H164.768C166.654 115.779 168.182 114.22 168.182 112.298V77.4968C168.182 76.8097 167.983 76.1377 167.609 75.566Z" fill="#26A6FE"/>
<path d="M161.48 102.27V88.6545L168.182 83.405V107.772L161.48 102.27Z" fill="#D8ECFE"/>
<path d="M147.566 88.6544L140.865 83.4049C140.865 83.4049 145.987 80.9683 154.524 80.9683C163.06 80.9683 168.182 83.4049 168.182 83.4049L161.481 88.6544H147.566Z" fill="#EAF6FF"/>
<path d="M163.061 87.4172L168.183 83.4049C168.183 83.4049 166.353 82.5353 163.061 81.8351V87.4172Z" fill="#D8ECFE"/>
<path d="M161.481 102.27L168.182 107.772C168.182 107.772 163.06 110.209 154.524 110.209C145.987 110.209 140.865 107.772 140.865 107.772L147.694 102.422L161.481 102.27Z" fill="#EAF6FF"/>
<path d="M163.061 109.342C166.353 108.642 168.183 107.772 168.183 107.772L163.061 103.779V109.342Z" fill="#D8ECFE"/>
<path d="M147.694 102.422L147.566 88.6545L140.865 83.405V107.772L147.694 102.422Z" fill="#EAF6FF"/>
<path d="M146.283 87.6495L140.864 83.4041" stroke="black" stroke-width="3" stroke-miterlimit="10" stroke-linecap="round" stroke-linejoin="round"/>
<path d="M140.864 107.773L146.283 103.527" stroke="black" stroke-width="3" stroke-miterlimit="10" stroke-linecap="round" stroke-linejoin="round"/>
<path d="M168.182 83.4041L162.764 87.6478" stroke="black" stroke-width="3" stroke-miterlimit="10" stroke-linecap="round" stroke-linejoin="round"/>
<path d="M162.764 103.529L168.182 107.773" stroke="black" stroke-width="3" stroke-miterlimit="10" stroke-linecap="round" stroke-linejoin="round"/>
<path d="M145.987 102.551V88.6266C145.987 87.6653 146.752 86.886 147.695 86.886H161.353C162.296 86.886 163.061 87.6653 163.061 88.6266V102.551C163.061 103.512 162.296 104.291 161.353 104.291H147.695C146.752 104.291 145.987 103.512 145.987 102.551Z" fill="#60B7FF"/>
<path d="M140.864 112.298V77.497C140.864 76.8097 141.064 76.1379 141.438 75.566L143.265 72.7715C143.898 71.803 144.965 71.2213 146.106 71.2213H162.939C164.081 71.2213 165.147 71.803 165.78 72.7715L167.608 75.566C167.981 76.1379 168.181 76.8097 168.181 77.497V112.297C168.181 114.22 166.652 115.778 164.767 115.778H144.279C142.393 115.779 140.864 114.22 140.864 112.298Z" stroke="black" stroke-width="3" stroke-miterlimit="10" stroke-linecap="round" stroke-linejoin="round"/>
<path d="M168.181 107.772C168.181 107.772 163.059 110.209 154.523 110.209C145.986 110.209 140.864 107.772 140.864 107.772" stroke="black" stroke-width="3" stroke-miterlimit="10" stroke-linecap="round" stroke-linejoin="round"/>
<path d="M168.183 95.5885H163.061" stroke="black" stroke-width="3" stroke-miterlimit="10" stroke-linecap="round" stroke-linejoin="round"/>
<path d="M140.864 95.5886H145.986" stroke="black" stroke-width="3" stroke-miterlimit="10" stroke-linecap="round" stroke-linejoin="round"/>
<path d="M145.986 102.551V88.6266C145.986 87.6653 146.751 86.886 147.694 86.886H161.352C162.295 86.886 163.06 87.6653 163.06 88.6266V102.551C163.06 103.512 162.295 104.291 161.352 104.291H147.694C146.751 104.291 145.986 103.512 145.986 102.551Z" stroke="black" stroke-width="3" stroke-miterlimit="10" stroke-linecap="round" stroke-linejoin="round"/>
<path d="M140.864 83.4052C140.864 83.4052 145.986 80.9685 154.523 80.9685C163.059 80.9685 168.181 83.4052 168.181 83.4052" stroke="black" stroke-width="3" stroke-miterlimit="10" stroke-linecap="round" stroke-linejoin="round"/>
<path d="M183.343 112.297V77.4969C183.343 76.8096 183.542 76.1378 183.916 75.5659L185.744 72.7714C186.377 71.8029 187.443 71.2212 188.585 71.2212H205.418C206.559 71.2212 207.625 71.8029 208.259 72.7714L210.086 75.5659C210.46 76.1378 210.66 76.8096 210.66 77.4969V112.297C210.66 114.22 209.131 115.778 207.245 115.778H186.757C184.872 115.778 183.343 114.22 183.343 112.297Z" fill="#FFE177"/>
<path d="M210.086 75.566L208.259 72.7715C207.626 71.803 206.56 71.2213 205.418 71.2213H200.296C201.438 71.2213 202.504 71.803 203.137 72.7715L204.964 75.566C205.338 76.1379 205.538 76.8097 205.538 77.497V112.298C205.538 114.22 204.009 115.779 202.123 115.779H207.245C209.131 115.779 210.66 114.22 210.66 112.298V77.4968C210.66 76.8097 210.46 76.1377 210.086 75.566Z" fill="#FFD15B"/>
<path d="M205.241 103.529V87.6479L210.66 83.405V107.772L205.241 103.529Z" fill="#D8ECFE"/>
<path d="M190.044 88.6545L183.343 83.405C183.343 83.405 188.465 80.9684 197.001 80.9684C205.538 80.9684 210.66 83.405 210.66 83.405L203.959 88.6545H190.044Z" fill="#EAF6FF"/>
<path d="M205.538 87.4174L210.66 83.405C210.66 83.405 208.83 82.5354 205.538 81.8352V87.4174Z" fill="#D8ECFE"/>
<path d="M205.241 103.529L210.66 107.772C210.66 107.772 205.538 110.209 197.001 110.209C188.465 110.209 183.343 107.772 183.343 107.772L188.761 103.528L205.241 103.529Z" fill="#EAF6FF"/>
<path d="M205.538 109.342C208.83 108.642 210.66 107.772 210.66 107.772L205.538 103.78V109.342Z" fill="#D8ECFE"/>
<path d="M188.761 103.528V87.6496L183.343 83.405V107.772L188.761 103.528Z" fill="#EAF6FF"/>
<path d="M188.76 87.6496L183.342 83.4042" stroke="black" stroke-width="3" stroke-miterlimit="10" stroke-linecap="round" stroke-linejoin="round"/>
<path d="M183.342 107.773L188.76 103.528" stroke="black" stroke-width="3" stroke-miterlimit="10" stroke-linecap="round" stroke-linejoin="round"/>
<path d="M210.66 83.4042L205.241 87.6479" stroke="black" stroke-width="3" stroke-miterlimit="10" stroke-linecap="round" stroke-linejoin="round"/>
<path d="M205.241 103.529L210.66 107.773" stroke="black" stroke-width="3" stroke-miterlimit="10" stroke-linecap="round" stroke-linejoin="round"/>
<path d="M188.464 102.551V88.6266C188.464 87.6653 189.228 86.886 190.171 86.886H203.83C204.773 86.886 205.537 87.6653 205.537 88.6266V102.551C205.537 103.512 204.773 104.291 203.83 104.291H190.171C189.228 104.291 188.464 103.512 188.464 102.551Z" fill="#FFE177"/>
<path d="M183.343 112.297V77.4969C183.343 76.8096 183.542 76.1378 183.916 75.5659L185.744 72.7714C186.377 71.8029 187.443 71.2212 188.585 71.2212H205.418C206.559 71.2212 207.625 71.8029 208.259 72.7714L210.086 75.5659C210.46 76.1378 210.66 76.8096 210.66 77.4969V112.297C210.66 114.22 209.131 115.778 207.245 115.778H186.757C184.872 115.778 183.343 114.22 183.343 112.297Z" stroke="black" stroke-width="3" stroke-miterlimit="10" stroke-linecap="round" stroke-linejoin="round"/>
<path d="M210.66 107.772C210.66 107.772 205.538 110.209 197.001 110.209C188.465 110.209 183.343 107.772 183.343 107.772" stroke="black" stroke-width="3" stroke-miterlimit="10" stroke-linecap="round" stroke-linejoin="round"/>
<path d="M210.659 95.5885H205.537" stroke="black" stroke-width="3" stroke-miterlimit="10" stroke-linecap="round" stroke-linejoin="round"/>
<path d="M183.343 95.5885H188.465" stroke="black" stroke-width="3" stroke-miterlimit="10" stroke-linecap="round" stroke-linejoin="round"/>
<path d="M188.464 102.551V88.6266C188.464 87.6653 189.228 86.886 190.171 86.886H203.83C204.773 86.886 205.537 87.6653 205.537 88.6266V102.551C205.537 103.512 204.773 104.291 203.83 104.291H190.171C189.228 104.291 188.464 103.512 188.464 102.551Z" stroke="black" stroke-width="3" stroke-miterlimit="10" stroke-linecap="round" stroke-linejoin="round"/>
<path d="M183.343 83.405C183.343 83.405 188.465 80.9684 197.001 80.9684C205.538 80.9684 210.66 83.405 210.66 83.405" stroke="black" stroke-width="3" stroke-miterlimit="10" stroke-linecap="round" stroke-linejoin="round"/>
<path d="M176 74.7026V121" stroke="black" stroke-width="3" stroke-miterlimit="10" stroke-linecap="round" stroke-linejoin="round"/>
<path d="M173.439 74.7026H178.561" stroke="black" stroke-width="3" stroke-miterlimit="10" stroke-linecap="round" stroke-linejoin="round"/>
</svg>
