<svg width="350" height="234" viewBox="0 0 350 234" fill="none" xmlns="http://www.w3.org/2000/svg">
<rect width="350" height="234" rx="28" fill="#0A8996"/>
<path d="M82.5455 197.68C82.4311 197.282 82.2705 196.931 82.0636 196.626C81.8567 196.316 81.6035 196.054 81.304 195.842C81.0099 195.624 80.6723 195.458 80.2912 195.344C79.9155 195.229 79.4989 195.172 79.0415 195.172C78.1867 195.172 77.4353 195.385 76.7873 195.809C76.1448 196.234 75.6438 196.852 75.2844 197.663C74.9251 198.469 74.7454 199.455 74.7454 200.62C74.7454 201.785 74.9223 202.776 75.2763 203.593C75.6302 204.41 76.1312 205.033 76.7791 205.463C77.4271 205.888 78.1921 206.1 79.0742 206.1C79.8746 206.1 80.558 205.959 81.1243 205.676C81.696 205.387 82.1316 204.982 82.4311 204.459C82.736 203.936 82.8885 203.318 82.8885 202.605L83.6072 202.711H79.2947V200.048H86.2944V202.156C86.2944 203.626 85.984 204.889 85.3633 205.945C84.7425 206.996 83.8877 207.808 82.7987 208.379C81.7096 208.946 80.4627 209.229 79.0579 209.229C77.4897 209.229 76.1121 208.883 74.9251 208.191C73.738 207.494 72.8124 206.506 72.1481 205.227C71.4892 203.942 71.1598 202.417 71.1598 200.653C71.1598 199.297 71.3558 198.088 71.7479 197.026C72.1454 195.959 72.7008 195.055 73.4141 194.315C74.1274 193.574 74.9577 193.011 75.9052 192.624C76.8526 192.237 77.879 192.044 78.9844 192.044C79.9318 192.044 80.8139 192.183 81.6307 192.461C82.4474 192.733 83.1716 193.119 83.8033 193.62C84.4403 194.121 84.9603 194.718 85.3633 195.409C85.7662 196.095 86.0249 196.852 86.1392 197.68H82.5455ZM96.9307 203.658V196.455H100.41V209H97.0695V206.721H96.9388C96.6557 207.456 96.1847 208.047 95.5258 208.494C94.8724 208.94 94.0747 209.163 93.1327 209.163C92.2942 209.163 91.5564 208.973 90.9193 208.592C90.2822 208.21 89.784 207.669 89.4246 206.966C89.0707 206.264 88.891 205.423 88.8856 204.442V196.455H92.365V203.822C92.3704 204.562 92.5692 205.148 92.9612 205.578C93.3532 206.008 93.8787 206.223 94.5376 206.223C94.9568 206.223 95.3489 206.128 95.7137 205.937C96.0785 205.741 96.3725 205.453 96.5958 205.071C96.8245 204.69 96.9361 204.219 96.9307 203.658ZM108.911 209.245C107.62 209.245 106.509 208.984 105.578 208.461C104.652 207.933 103.939 207.187 103.438 206.223C102.937 205.254 102.687 204.108 102.687 202.784C102.687 201.494 102.937 200.361 103.438 199.387C103.939 198.412 104.644 197.652 105.554 197.108C106.468 196.563 107.541 196.291 108.772 196.291C109.599 196.291 110.37 196.425 111.083 196.691C111.802 196.953 112.428 197.348 112.962 197.876C113.501 198.404 113.92 199.068 114.219 199.869C114.519 200.664 114.669 201.595 114.669 202.662V203.618H104.075V201.461H111.393C111.393 200.96 111.285 200.517 111.067 200.13C110.849 199.743 110.547 199.441 110.16 199.223C109.779 199 109.335 198.888 108.829 198.888C108.301 198.888 107.832 199.011 107.424 199.256C107.021 199.496 106.705 199.82 106.477 200.228C106.248 200.631 106.131 201.08 106.125 201.576V203.626C106.125 204.246 106.24 204.783 106.468 205.235C106.703 205.687 107.032 206.035 107.457 206.28C107.881 206.525 108.385 206.648 108.968 206.648C109.354 206.648 109.708 206.593 110.029 206.484C110.351 206.375 110.626 206.212 110.854 205.994C111.083 205.777 111.257 205.51 111.377 205.194L114.595 205.406C114.432 206.179 114.097 206.855 113.591 207.432C113.09 208.004 112.442 208.45 111.647 208.771C110.857 209.087 109.945 209.245 108.911 209.245ZM127.377 200.032L124.192 200.228C124.138 199.956 124.021 199.711 123.841 199.493C123.661 199.27 123.424 199.093 123.13 198.962C122.842 198.826 122.496 198.758 122.093 198.758C121.554 198.758 121.099 198.872 120.729 199.101C120.359 199.324 120.174 199.624 120.174 199.999C120.174 200.299 120.293 200.552 120.533 200.759C120.773 200.966 121.184 201.132 121.766 201.257L124.037 201.714C125.257 201.965 126.166 202.368 126.765 202.923C127.364 203.479 127.663 204.208 127.663 205.112C127.663 205.934 127.421 206.656 126.936 207.277C126.457 207.897 125.798 208.382 124.96 208.73C124.127 209.074 123.166 209.245 122.077 209.245C120.416 209.245 119.093 208.899 118.107 208.208C117.127 207.511 116.553 206.563 116.384 205.365L119.806 205.186C119.91 205.692 120.16 206.079 120.558 206.346C120.955 206.607 121.464 206.738 122.085 206.738C122.695 206.738 123.185 206.621 123.555 206.386C123.931 206.147 124.121 205.839 124.127 205.463C124.121 205.148 123.988 204.889 123.727 204.688C123.465 204.481 123.062 204.323 122.518 204.214L120.345 203.781C119.12 203.536 118.208 203.111 117.609 202.507C117.016 201.902 116.719 201.132 116.719 200.195C116.719 199.389 116.937 198.695 117.372 198.113C117.813 197.53 118.431 197.081 119.226 196.765C120.027 196.449 120.963 196.291 122.036 196.291C123.62 196.291 124.867 196.626 125.777 197.296C126.691 197.966 127.225 198.878 127.377 200.032ZM136.527 196.455V199.068H128.972V196.455H136.527ZM130.687 193.449H134.167V205.145C134.167 205.466 134.216 205.717 134.314 205.896C134.412 206.071 134.548 206.193 134.722 206.264C134.902 206.335 135.109 206.37 135.343 206.37C135.506 206.37 135.67 206.356 135.833 206.329C135.996 206.297 136.122 206.272 136.209 206.256L136.756 208.845C136.582 208.899 136.337 208.962 136.021 209.033C135.705 209.109 135.321 209.155 134.869 209.172C134.031 209.204 133.296 209.093 132.664 208.837C132.038 208.581 131.55 208.183 131.202 207.644C130.853 207.105 130.682 206.424 130.687 205.602V193.449ZM144.182 192.273H148.544L153.15 203.511H153.346L157.953 192.273H162.314V209H158.884V198.113H158.745L154.416 208.918H152.08L147.752 198.072H147.613V209H144.182V192.273ZM168.74 209.237C167.94 209.237 167.227 209.098 166.6 208.82C165.974 208.537 165.479 208.121 165.114 207.571C164.755 207.015 164.575 206.324 164.575 205.496C164.575 204.799 164.703 204.214 164.959 203.74C165.215 203.266 165.563 202.885 166.004 202.597C166.445 202.308 166.946 202.09 167.507 201.943C168.073 201.796 168.667 201.693 169.288 201.633C170.017 201.557 170.605 201.486 171.052 201.42C171.498 201.35 171.822 201.246 172.024 201.11C172.225 200.974 172.326 200.772 172.326 200.506V200.457C172.326 199.939 172.163 199.539 171.836 199.256C171.515 198.973 171.057 198.831 170.464 198.831C169.838 198.831 169.339 198.97 168.969 199.248C168.599 199.52 168.354 199.863 168.234 200.277L165.016 200.016C165.179 199.253 165.501 198.594 165.98 198.039C166.459 197.478 167.077 197.048 167.834 196.749C168.596 196.444 169.478 196.291 170.48 196.291C171.177 196.291 171.844 196.373 172.481 196.536C173.124 196.7 173.693 196.953 174.188 197.296C174.689 197.639 175.084 198.08 175.372 198.619C175.661 199.153 175.805 199.792 175.805 200.538V209H172.506V207.26H172.408C172.206 207.652 171.937 207.998 171.599 208.298C171.261 208.592 170.856 208.823 170.382 208.992C169.908 209.155 169.361 209.237 168.74 209.237ZM169.737 206.836C170.249 206.836 170.701 206.735 171.093 206.533C171.485 206.326 171.792 206.049 172.016 205.7C172.239 205.352 172.35 204.957 172.35 204.516V203.185C172.242 203.255 172.092 203.321 171.901 203.381C171.716 203.435 171.506 203.487 171.272 203.536C171.038 203.579 170.804 203.62 170.57 203.658C170.336 203.691 170.123 203.721 169.933 203.748C169.524 203.808 169.168 203.903 168.863 204.034C168.558 204.165 168.321 204.342 168.152 204.565C167.983 204.783 167.899 205.055 167.899 205.382C167.899 205.855 168.071 206.218 168.414 206.468C168.762 206.713 169.203 206.836 169.737 206.836ZM181.984 201.747V209H178.505V196.455H181.821V198.668H181.968C182.245 197.938 182.711 197.361 183.364 196.936C184.018 196.506 184.81 196.291 185.741 196.291C186.612 196.291 187.372 196.482 188.02 196.863C188.668 197.244 189.172 197.789 189.531 198.496C189.89 199.199 190.07 200.037 190.07 201.012V209H186.591V201.633C186.596 200.865 186.4 200.266 186.003 199.836C185.605 199.4 185.058 199.183 184.361 199.183C183.893 199.183 183.479 199.283 183.119 199.485C182.765 199.686 182.488 199.98 182.286 200.367C182.09 200.748 181.99 201.208 181.984 201.747ZM196.39 209.237C195.589 209.237 194.876 209.098 194.25 208.82C193.624 208.537 193.128 208.121 192.763 207.571C192.404 207.015 192.224 206.324 192.224 205.496C192.224 204.799 192.352 204.214 192.608 203.74C192.864 203.266 193.213 202.885 193.654 202.597C194.095 202.308 194.596 202.09 195.156 201.943C195.723 201.796 196.316 201.693 196.937 201.633C197.667 201.557 198.255 201.486 198.701 201.42C199.148 201.35 199.472 201.246 199.673 201.11C199.875 200.974 199.975 200.772 199.975 200.506V200.457C199.975 199.939 199.812 199.539 199.485 199.256C199.164 198.973 198.707 198.831 198.113 198.831C197.487 198.831 196.989 198.97 196.618 199.248C196.248 199.52 196.003 199.863 195.883 200.277L192.665 200.016C192.829 199.253 193.15 198.594 193.629 198.039C194.108 197.478 194.726 197.048 195.483 196.749C196.245 196.444 197.128 196.291 198.129 196.291C198.826 196.291 199.493 196.373 200.131 196.536C200.773 196.7 201.342 196.953 201.838 197.296C202.338 197.639 202.733 198.08 203.022 198.619C203.31 199.153 203.455 199.792 203.455 200.538V209H200.155V207.26H200.057C199.856 207.652 199.586 207.998 199.248 208.298C198.911 208.592 198.505 208.823 198.031 208.992C197.558 209.155 197.01 209.237 196.39 209.237ZM197.386 206.836C197.898 206.836 198.35 206.735 198.742 206.533C199.134 206.326 199.442 206.049 199.665 205.7C199.888 205.352 200 204.957 200 204.516V203.185C199.891 203.255 199.741 203.321 199.551 203.381C199.365 203.435 199.156 203.487 198.922 203.536C198.688 203.579 198.453 203.62 198.219 203.658C197.985 203.691 197.773 203.721 197.582 203.748C197.174 203.808 196.817 203.903 196.512 204.034C196.207 204.165 195.97 204.342 195.802 204.565C195.633 204.783 195.548 205.055 195.548 205.382C195.548 205.855 195.72 206.218 196.063 206.468C196.412 206.713 196.853 206.836 197.386 206.836ZM211.806 213.966C210.679 213.966 209.712 213.811 208.907 213.5C208.106 213.195 207.469 212.779 206.995 212.251C206.522 211.723 206.214 211.129 206.072 210.47L209.29 210.037C209.388 210.288 209.544 210.522 209.756 210.74C209.968 210.958 210.249 211.132 210.597 211.262C210.951 211.399 211.381 211.467 211.888 211.467C212.645 211.467 213.268 211.281 213.758 210.911C214.254 210.546 214.501 209.934 214.501 209.074V206.778H214.354C214.202 207.127 213.973 207.456 213.668 207.767C213.363 208.077 212.971 208.33 212.492 208.526C212.013 208.722 211.441 208.82 210.777 208.82C209.835 208.82 208.977 208.603 208.204 208.167C207.436 207.726 206.824 207.053 206.366 206.15C205.915 205.24 205.689 204.091 205.689 202.703C205.689 201.282 205.92 200.095 206.383 199.142C206.846 198.189 207.461 197.475 208.229 197.002C209.002 196.528 209.849 196.291 210.769 196.291C211.471 196.291 212.059 196.411 212.533 196.651C213.007 196.885 213.388 197.179 213.676 197.533C213.971 197.881 214.196 198.224 214.354 198.562H214.485V196.455H217.94V209.123C217.94 210.19 217.679 211.083 217.156 211.801C216.633 212.52 215.909 213.059 214.983 213.419C214.063 213.783 213.004 213.966 211.806 213.966ZM211.88 206.207C212.44 206.207 212.914 206.068 213.301 205.79C213.693 205.507 213.992 205.104 214.199 204.581C214.412 204.053 214.518 203.422 214.518 202.686C214.518 201.951 214.414 201.314 214.207 200.775C214 200.231 213.701 199.809 213.309 199.509C212.917 199.21 212.44 199.06 211.88 199.06C211.308 199.06 210.826 199.215 210.434 199.526C210.042 199.83 209.745 200.255 209.544 200.8C209.342 201.344 209.241 201.973 209.241 202.686C209.241 203.411 209.342 204.037 209.544 204.565C209.751 205.088 210.047 205.493 210.434 205.782C210.826 206.065 211.308 206.207 211.88 206.207ZM226.426 209.245C225.136 209.245 224.025 208.984 223.094 208.461C222.168 207.933 221.455 207.187 220.954 206.223C220.453 205.254 220.202 204.108 220.202 202.784C220.202 201.494 220.453 200.361 220.954 199.387C221.455 198.412 222.16 197.652 223.069 197.108C223.984 196.563 225.057 196.291 226.287 196.291C227.115 196.291 227.885 196.425 228.599 196.691C229.317 196.953 229.944 197.348 230.477 197.876C231.016 198.404 231.436 199.068 231.735 199.869C232.035 200.664 232.184 201.595 232.184 202.662V203.618H221.591V201.461H228.909C228.909 200.96 228.8 200.517 228.582 200.13C228.365 199.743 228.062 199.441 227.676 199.223C227.295 199 226.851 198.888 226.344 198.888C225.816 198.888 225.348 199.011 224.94 199.256C224.537 199.496 224.221 199.82 223.992 200.228C223.763 200.631 223.646 201.08 223.641 201.576V203.626C223.641 204.246 223.755 204.783 223.984 205.235C224.218 205.687 224.548 206.035 224.972 206.28C225.397 206.525 225.901 206.648 226.483 206.648C226.87 206.648 227.224 206.593 227.545 206.484C227.866 206.375 228.141 206.212 228.37 205.994C228.599 205.777 228.773 205.51 228.893 205.194L232.111 205.406C231.947 206.179 231.613 206.855 231.106 207.432C230.605 208.004 229.957 208.45 229.162 208.771C228.373 209.087 227.461 209.245 226.426 209.245ZM234.455 209V196.455H237.771V198.668H237.918C238.179 197.933 238.615 197.353 239.225 196.928C239.835 196.504 240.564 196.291 241.414 196.291C242.274 196.291 243.006 196.506 243.611 196.936C244.215 197.361 244.618 197.938 244.82 198.668H244.95C245.206 197.949 245.669 197.375 246.339 196.945C247.014 196.509 247.812 196.291 248.732 196.291C249.903 196.291 250.853 196.664 251.582 197.41C252.317 198.151 252.685 199.202 252.685 200.563V209H249.214V201.249C249.214 200.552 249.029 200.029 248.658 199.681C248.288 199.332 247.825 199.158 247.27 199.158C246.638 199.158 246.145 199.359 245.792 199.762C245.438 200.16 245.261 200.685 245.261 201.339V209H241.887V201.175C241.887 200.56 241.71 200.07 241.357 199.705C241.008 199.34 240.548 199.158 239.976 199.158C239.59 199.158 239.241 199.256 238.931 199.452C238.626 199.643 238.384 199.912 238.204 200.261C238.024 200.604 237.934 201.007 237.934 201.469V209H234.455ZM261.151 209.245C259.86 209.245 258.749 208.984 257.818 208.461C256.893 207.933 256.179 207.187 255.678 206.223C255.177 205.254 254.927 204.108 254.927 202.784C254.927 201.494 255.177 200.361 255.678 199.387C256.179 198.412 256.885 197.652 257.794 197.108C258.709 196.563 259.781 196.291 261.012 196.291C261.84 196.291 262.61 196.425 263.323 196.691C264.042 196.953 264.668 197.348 265.202 197.876C265.741 198.404 266.16 199.068 266.46 199.869C266.759 200.664 266.909 201.595 266.909 202.662V203.618H256.316V201.461H263.634C263.634 200.96 263.525 200.517 263.307 200.13C263.089 199.743 262.787 199.441 262.4 199.223C262.019 199 261.575 198.888 261.069 198.888C260.541 198.888 260.073 199.011 259.664 199.256C259.261 199.496 258.945 199.82 258.717 200.228C258.488 200.631 258.371 201.08 258.366 201.576V203.626C258.366 204.246 258.48 204.783 258.709 205.235C258.943 205.687 259.272 206.035 259.697 206.28C260.122 206.525 260.625 206.648 261.208 206.648C261.595 206.648 261.948 206.593 262.27 206.484C262.591 206.375 262.866 206.212 263.095 205.994C263.323 205.777 263.498 205.51 263.617 205.194L266.835 205.406C266.672 206.179 266.337 206.855 265.831 207.432C265.33 208.004 264.682 208.45 263.887 208.771C263.097 209.087 262.185 209.245 261.151 209.245ZM272.659 201.747V209H269.18V196.455H272.496V198.668H272.643C272.92 197.938 273.386 197.361 274.039 196.936C274.693 196.506 275.485 196.291 276.416 196.291C277.287 196.291 278.047 196.482 278.695 196.863C279.343 197.244 279.846 197.789 280.206 198.496C280.565 199.199 280.745 200.037 280.745 201.012V209H277.265V201.633C277.271 200.865 277.075 200.266 276.677 199.836C276.28 199.4 275.733 199.183 275.036 199.183C274.567 199.183 274.154 199.283 273.794 199.485C273.44 199.686 273.163 199.98 272.961 200.367C272.765 200.748 272.664 201.208 272.659 201.747ZM290.16 196.455V199.068H282.605V196.455H290.16ZM284.32 193.449H287.8V205.145C287.8 205.466 287.849 205.717 287.947 205.896C288.045 206.071 288.181 206.193 288.355 206.264C288.535 206.335 288.742 206.37 288.976 206.37C289.139 206.37 289.302 206.356 289.466 206.329C289.629 206.297 289.754 206.272 289.842 206.256L290.389 208.845C290.215 208.899 289.969 208.962 289.654 209.033C289.338 209.109 288.954 209.155 288.502 209.172C287.664 209.204 286.928 209.093 286.297 208.837C285.671 208.581 285.183 208.183 284.835 207.644C284.486 207.105 284.315 206.424 284.32 205.602V193.449Z" fill="white"/>
<circle cx="179.5" cy="93.5" r="70.5" fill="white"/>
<path d="M203.3 60.2041C203.3 69.8845 203.321 74.9916 197.988 83.4177C196.529 80.3589 189.961 79.4345 189.961 79.4345C189.996 79.4171 190.036 79.3955 190.071 79.3781C194.651 76.9917 197.988 72.3011 197.988 66.4825V64.764C197.988 61.5313 195.612 58.772 192.372 58.2426L171.285 54.7933C169.751 54.5415 168.358 55.7089 168.358 57.2361V66.4825C168.358 72.3314 171.854 77.1348 176.235 79.3868C176.239 79.3868 176.239 79.3868 176.239 79.3868C176.296 79.4171 176.345 79.4387 176.385 79.4561C176.385 79.4561 169.746 80.502 168.358 83.4177C163.035 75.0078 163.046 69.9176 163.046 60.2041C163.046 49.3294 171.89 40.5132 183.173 40.3879C194.462 40.5132 203.3 49.3352 203.3 60.2041Z" fill="#7D7B79"/>
<path d="M197.746 65.6764V67.3973C197.746 73.2243 194.307 77.9216 189.587 80.3114C189.55 80.3288 189.51 80.3504 189.474 80.3679C185.303 82.4407 180.147 82.7145 175.481 80.3895C175.44 80.3721 175.391 80.3504 175.331 80.3201C175.331 80.3201 175.331 80.3201 175.327 80.3201C170.811 78.0649 167.209 73.2546 167.209 67.3973V58.1373C167.209 56.6079 168.645 55.4388 170.225 55.691L191.959 59.1452C195.298 59.6753 197.746 62.439 197.746 65.6764Z" fill="#FFB69F"/>
<path d="M164.434 126.482L164.122 127.686L163.368 130.612H153.329L153.645 127.686L154.587 118.9L154.661 113.955H162.658L164.434 126.482Z" fill="#FFB69F"/>
<path d="M211.626 130.612H201.588L200.833 127.686L200.521 126.482L202.297 113.955H210.295L210.368 118.9L211.31 127.686L211.626 130.612Z" fill="#FFB69F"/>
<path d="M191.734 87.1972C190.21 86.5951 189.205 85.1449 189.205 83.5462V80.6417C185.195 82.6644 180.237 82.9316 175.751 80.6628V83.5462C175.751 85.1449 174.747 86.5951 173.222 87.1972C171.536 87.8702 172.405 87.5264 169.985 88.4775C169.985 96.1694 176.214 100.032 182.478 100.075C188.742 100.032 194.97 96.1694 194.97 88.4775C192.535 87.5203 193.506 87.9047 191.734 87.1972Z" fill="#FFB69F"/>
<path d="M189.417 83.5629C185.078 85.1597 180.111 85.2732 175.536 83.5818C175.54 83.5061 175.545 83.4304 175.545 83.3548V80.6644C180.167 82.7796 185.276 82.5299 189.408 80.6417V83.3548C189.408 83.4267 189.412 83.4948 189.417 83.5629Z" fill="#E98E7B"/>
<path d="M210.239 113.93L210.026 97.9303C209.992 95.2679 208.344 92.8859 205.84 91.8729C200.414 89.6751 204.703 91.404 199.43 89.2774C198.421 88.8714 197.062 88.323 195.218 87.582C195.218 95.5274 188.864 99.5127 182.48 99.5587C176.092 99.5127 169.738 95.5274 169.738 87.582C167.638 88.4318 166.386 88.9342 165.526 89.2816C163.358 90.1565 163.652 90.0351 159.116 91.8729C156.612 92.8859 154.964 95.2679 154.93 97.9303L154.717 113.93H162.161L163.814 126.476L163.524 127.682L162.821 130.612H202.135L201.432 127.682L201.142 126.476L202.795 113.93H210.239Z" fill="#FC5D3D"/>
<path d="M201.912 130.612H163.046L163.741 127.836H201.217L201.912 130.612Z" fill="#B14E34"/>
<path d="M202.721 114.366L201.053 126.584L201.345 127.758L202.055 130.612H189.835L189.676 127.758L189.448 123.58C189.311 121.093 189.659 118.602 190.468 116.229L199.324 90.3583C204.648 92.4293 200.317 90.7456 205.797 92.8859C208.326 93.8724 209.99 96.1921 210.025 98.7849L210.24 114.366H202.721V114.366Z" fill="#71C1E8"/>
<path d="M175.559 124.021L175.337 128.328L175.181 131.269H163.24L163.933 128.328L164.219 127.118L162.589 114.525H155.244L155.454 98.4663C155.488 95.7941 157.114 93.4033 159.584 92.3865C164.059 90.5419 163.769 90.6638 165.908 89.7856L174.559 116.445C175.353 118.891 175.694 121.458 175.559 124.021Z" fill="#71C1E8"/>
<path d="M163.762 127.836H175.538L175.378 130.612H163.046L163.762 127.836Z" fill="#4BA4C7"/>
<path d="M201.911 130.612H189.58L189.419 127.836H201.195L201.911 130.612Z" fill="#4BA4C7"/>
<path d="M153.654 127.836H164.434L163.657 130.612H153.329L153.654 127.836Z" fill="#E98E7B"/>
<path d="M211.628 130.612H202.591L201.911 127.836H211.343L211.628 130.612Z" fill="#E98E7B"/>
<path d="M197.281 126.439C196.701 126.366 196.292 125.849 196.367 125.284L196.53 124.057C196.606 123.492 197.135 123.092 197.715 123.166C198.295 123.239 198.704 123.757 198.629 124.321L198.466 125.548C198.391 126.115 197.858 126.512 197.281 126.439ZM197.987 121.121C197.407 121.047 196.999 120.531 197.074 119.966L198.235 111.223C198.382 110.122 198.429 109.073 198.396 108.026L198.22 102.526C198.202 101.957 198.661 101.481 199.245 101.463C199.828 101.447 200.317 101.892 200.336 102.461L200.512 107.961C200.549 109.128 200.492 110.299 200.334 111.488L199.172 120.23C199.097 120.795 198.567 121.194 197.987 121.121Z" fill="#C4E4FD"/>
<path d="M166.788 84.308C167.075 84.7991 167.674 84.9569 168.136 84.6455C168.594 84.3375 168.734 83.6836 168.449 83.1899C164.934 77.0947 163.215 71.999 163.68 59.5212C163.696 58.939 163.27 58.4538 162.734 58.4327C162.722 58.4327 162.71 58.4327 162.703 58.4327C162.171 58.4327 161.741 58.8842 161.726 59.4537C161.271 72.3665 163.059 77.8558 166.788 84.308Z" fill="black"/>
<path d="M163.638 52.3517C164.143 52.596 164.799 52.3685 165.042 51.8629C168.217 45.3156 174.779 41.1951 182.17 41.1066C192.483 41.233 201.198 49.177 201.198 60.4157C201.198 65.1177 201.202 68.8337 200.546 72.3349C199.861 75.9793 198.52 79.2277 196.06 83.1923C195.76 83.6705 195.883 84.3206 196.397 84.6459C196.851 84.9374 197.513 84.8338 197.843 84.3088C200.42 80.163 201.891 76.5902 202.61 72.7225C203.3 69.0275 203.3 65.2314 203.3 60.4284C203.3 47.659 193.09 39 182.162 39C173.773 39.0952 166.574 43.8781 163.15 50.9444C162.915 51.4353 163.078 52.0706 163.638 52.3517Z" fill="black"/>
<path d="M162.714 57.0023C163.491 57.1956 164.218 56.7074 164.391 55.9859C164.575 55.2428 164.125 54.4936 163.375 54.3086C162.642 54.1253 161.881 54.5919 161.697 55.3194V55.325C161.513 56.0692 161.969 56.819 162.714 57.0023Z" fill="black"/>
<path d="M176.995 72.0834C177.846 73.9026 180.047 75.0895 182.477 75.0895C184.926 75.0895 187.104 73.8926 187.96 72.0868C188.172 71.6463 187.886 71.1423 187.324 70.9768C186.77 70.8148 186.125 71.0492 185.92 71.4801C185.385 72.6074 184.003 73.3658 182.477 73.3658C180.948 73.3658 179.566 72.6074 179.035 71.4836C178.834 71.0527 178.189 70.8148 177.636 70.9768C177.089 71.135 176.784 71.6194 176.991 72.08L176.995 72.0834Z" fill="black"/>
<path d="M176.926 63.9007V62.6815C176.926 61.8681 176.304 61.209 175.537 61.209C174.771 61.209 174.149 61.8681 174.149 62.6815V63.9007C174.149 64.7141 174.771 65.3732 175.537 65.3732C176.304 65.3732 176.926 64.7141 176.926 63.9007Z" fill="black"/>
<path d="M189.417 65.3732C190.184 65.3732 190.805 64.7141 190.805 63.9007V62.6815C190.805 61.8681 190.184 61.209 189.417 61.209C188.651 61.209 188.029 61.8681 188.029 62.6815V63.9007C188.029 64.7141 188.651 65.3732 189.417 65.3732Z" fill="black"/>
<path d="M182.477 69.5372C183.244 69.5372 183.865 68.9996 183.865 68.3361V63.7981C183.865 63.1346 183.244 62.5969 182.477 62.5969C181.71 62.5969 181.089 63.1346 181.089 63.7981V68.3361C181.089 68.9996 181.711 69.5372 182.477 69.5372Z" fill="black"/>
<path d="M219.955 131.309C219.955 131.689 220.577 132 221.343 132C222.109 132 222.731 131.689 222.731 131.309C222.731 130.926 222.109 130.612 221.343 130.612C220.577 130.612 219.955 130.926 219.955 131.309Z" fill="black"/>
<path d="M146.051 132C153.024 132 210.86 132 217.516 132C218.096 132 218.567 131.533 218.567 130.963C218.567 130.388 218.096 129.917 217.516 129.917H212.231L211.172 119.228C211.08 112.491 211.151 117.795 210.895 98.4234C210.857 95.3532 208.978 92.6121 206.111 91.4456C196.504 87.5189 192.369 85.8593 192.369 85.8593C192.365 85.8593 192.365 85.8593 192.365 85.8593C191.23 85.401 190.473 84.2846 190.473 83.0723V80.6961C195.422 77.8954 198.48 72.7298 198.48 67.0818V65.3567C198.48 61.5846 195.755 58.3986 192.001 57.7808L170.967 54.3173C168.794 53.9595 166.825 55.6229 166.825 57.7974V67.0818C166.825 72.7069 169.955 78.0058 174.831 80.7286V83.0723C174.831 84.2846 174.07 85.401 172.939 85.8593C170.711 86.7712 167.08 88.2184 159.193 91.4456C156.326 92.6121 154.446 95.3532 154.409 98.4234C154.152 117.843 154.224 112.46 154.132 119.228L153.073 129.917H146.051C145.471 129.917 145 130.388 145 130.963C145 131.533 145.471 132 146.051 132ZM164.577 129.917L165.25 127.08C165.279 126.959 165.288 126.83 165.271 126.709L163.642 114.244C163.641 114.238 163.643 114.231 163.642 114.225L163.29 111.522C163.125 110.272 163.054 108.866 163.096 107.664L163.307 101.002C163.325 100.428 162.869 99.9468 162.289 99.9289C161.717 99.9093 161.224 100.363 161.206 100.937L160.995 107.596C160.95 108.905 161.027 110.434 161.205 111.79L161.404 113.317H156.313L156.51 98.4488C156.54 96.2159 157.906 94.2246 159.991 93.3707C161.846 92.6137 164.829 91.3952 165.267 91.2211L173.573 116.583C174.225 118.561 174.553 120.619 174.553 122.69C174.553 123.325 174.564 122.938 174.2 129.917H164.577V129.917ZM202.885 129.917L202.143 126.788L203.631 115.399H209.018L209.071 119.3C209.071 119.329 209.073 119.358 209.076 119.387L210.119 129.917H202.885V129.917ZM168.926 67.0818V57.7974C168.926 56.9059 169.734 56.2261 170.622 56.3719L191.656 59.8358C194.392 60.2861 196.378 62.6077 196.378 65.3567V67.0818C196.378 75.2556 189.55 80.7103 182.599 80.7103C175.156 80.7103 168.926 74.6169 168.926 67.0818ZM173.737 87.7839C175.675 87.0007 176.932 85.1511 176.932 83.0723V81.7268C178.653 82.3958 180.632 82.8057 182.618 82.8057C184.561 82.8057 186.504 82.4341 188.367 81.703C188.368 81.7026 188.37 81.7022 188.371 81.7018V83.0723C188.375 85.1511 189.628 87.0007 191.574 87.788C193.328 88.5071 192.55 88.1871 194.155 88.8337C193.819 95.2957 188.63 98.9779 182.65 99.0108C176.692 98.9779 171.485 95.3011 171.148 88.8337C173.232 87.9955 171.962 88.5058 173.737 87.7839ZM169.101 89.6627C169.836 96.9062 175.874 101.042 182.645 101.098H182.662C189.444 101.042 195.472 96.9012 196.204 89.6589L198.084 90.4217L192.898 106.255C192.722 106.815 193.029 107.387 193.575 107.567C194.123 107.74 194.715 107.454 194.899 106.897L200.035 91.2144C202.3 92.1347 202.02 92.028 205.312 93.3707C207.397 94.2246 208.763 96.2159 208.793 98.4488L208.99 113.317H203.9L204.098 111.792C204.281 110.408 204.351 108.997 204.305 107.599L204.094 100.937C204.075 100.363 203.579 99.9093 203.01 99.9289C202.43 99.9468 201.975 100.428 201.993 101.002L202.204 107.665C202.246 108.951 202.182 110.249 202.014 111.524C201.233 117.517 202.284 109.467 200.032 126.709C200.015 126.83 200.023 126.959 200.053 127.084L200.726 129.917C189.765 129.917 197.189 129.917 191.109 129.917C190.757 123.29 190.754 123.434 190.754 122.689C190.754 120.619 191.082 118.561 191.729 116.582L192.305 114.824C192.482 114.279 192.179 113.691 191.628 113.512C191.082 113.337 190.481 113.645 190.304 114.179L189.728 115.941C189.014 118.128 188.652 120.398 188.652 122.689C188.652 123.457 188.647 123.171 189.002 129.917C183.284 129.917 182.024 129.917 176.305 129.917C176.639 123.56 176.655 123.44 176.655 122.689C176.655 120.398 176.289 118.128 175.574 115.941L167.219 90.4267C167.219 90.4267 167.198 90.4346 169.101 89.6627ZM156.228 119.387C156.231 119.358 156.232 119.329 156.233 119.3L156.286 115.399H161.672L163.161 126.788L162.418 129.917H155.185L156.228 119.387Z" fill="black"/>
<path d="M192.671 111.145C193.076 111.27 193.438 111.037 193.546 110.7C193.665 110.336 193.465 109.941 193.101 109.824C192.74 109.707 192.34 109.913 192.226 110.269C192.11 110.624 192.299 111.026 192.671 111.145Z" fill="black"/>
</svg>
