<svg width="350" height="234" viewBox="0 0 350 234" fill="none" xmlns="http://www.w3.org/2000/svg">
<path d="M127.454 200V183.273H138.725V186.189H130.99V190.174H138.145V193.09H130.99V197.084H138.758V200H127.454ZM144.951 183.273V200H141.472V183.273H144.951ZM153.455 200.245C152.165 200.245 151.054 199.984 150.123 199.461C149.197 198.933 148.484 198.187 147.983 197.223C147.482 196.254 147.232 195.108 147.232 193.784C147.232 192.494 147.482 191.361 147.983 190.387C148.484 189.412 149.189 188.652 150.099 188.108C151.013 187.563 152.086 187.291 153.317 187.291C154.144 187.291 154.915 187.425 155.628 187.691C156.347 187.953 156.973 188.348 157.507 188.876C158.046 189.404 158.465 190.068 158.764 190.869C159.064 191.664 159.214 192.595 159.214 193.662V194.618H148.62V192.461H155.938C155.938 191.96 155.829 191.517 155.612 191.13C155.394 190.743 155.092 190.441 154.705 190.223C154.324 190 153.88 189.888 153.374 189.888C152.846 189.888 152.377 190.011 151.969 190.256C151.566 190.496 151.25 190.82 151.021 191.228C150.793 191.631 150.676 192.08 150.67 192.576V194.626C150.67 195.246 150.785 195.783 151.013 196.235C151.247 196.687 151.577 197.035 152.002 197.28C152.426 197.525 152.93 197.648 153.513 197.648C153.899 197.648 154.253 197.593 154.574 197.484C154.896 197.375 155.171 197.212 155.399 196.994C155.628 196.777 155.802 196.51 155.922 196.194L159.14 196.406C158.977 197.179 158.642 197.855 158.135 198.432C157.635 199.004 156.987 199.45 156.192 199.771C155.402 200.087 154.49 200.245 153.455 200.245ZM167.153 200.245C165.867 200.245 164.762 199.973 163.836 199.428C162.916 198.878 162.208 198.116 161.713 197.141C161.223 196.167 160.978 195.045 160.978 193.776C160.978 192.491 161.226 191.364 161.721 190.395C162.222 189.42 162.933 188.661 163.853 188.116C164.773 187.566 165.867 187.291 167.136 187.291C168.231 187.291 169.189 187.49 170.011 187.887C170.833 188.285 171.484 188.843 171.963 189.562C172.442 190.281 172.706 191.125 172.756 192.094H169.472C169.38 191.468 169.135 190.964 168.737 190.583C168.345 190.196 167.83 190.003 167.193 190.003C166.654 190.003 166.183 190.15 165.78 190.444C165.383 190.732 165.073 191.154 164.849 191.71C164.626 192.265 164.514 192.938 164.514 193.727C164.514 194.528 164.623 195.208 164.841 195.769C165.064 196.33 165.377 196.757 165.78 197.051C166.183 197.346 166.654 197.493 167.193 197.493C167.591 197.493 167.948 197.411 168.263 197.248C168.585 197.084 168.849 196.847 169.056 196.537C169.268 196.221 169.407 195.843 169.472 195.402H172.756C172.701 196.36 172.44 197.204 171.971 197.934C171.509 198.658 170.869 199.224 170.052 199.632C169.235 200.041 168.269 200.245 167.153 200.245ZM181.656 187.455V190.068H174.101V187.455H181.656ZM175.816 184.449H179.296V196.145C179.296 196.466 179.345 196.717 179.443 196.896C179.541 197.071 179.677 197.193 179.851 197.264C180.031 197.335 180.238 197.37 180.472 197.37C180.635 197.37 180.799 197.356 180.962 197.329C181.125 197.297 181.251 197.272 181.338 197.256L181.885 199.845C181.711 199.899 181.466 199.962 181.15 200.033C180.834 200.109 180.45 200.155 179.998 200.172C179.16 200.204 178.425 200.093 177.793 199.837C177.167 199.581 176.679 199.183 176.331 198.644C175.982 198.105 175.811 197.424 175.816 196.602V184.449ZM183.923 200V187.455H187.296V189.643H187.427C187.655 188.865 188.039 188.277 188.578 187.879C189.117 187.476 189.738 187.275 190.44 187.275C190.615 187.275 190.803 187.286 191.004 187.308C191.205 187.329 191.382 187.359 191.535 187.397V190.485C191.372 190.436 191.146 190.392 190.857 190.354C190.568 190.316 190.304 190.297 190.065 190.297C189.553 190.297 189.095 190.408 188.693 190.632C188.295 190.85 187.979 191.154 187.745 191.547C187.516 191.939 187.402 192.391 187.402 192.902V200H183.923ZM193.334 200V187.455H196.813V200H193.334ZM195.082 185.837C194.564 185.837 194.121 185.666 193.75 185.323C193.386 184.974 193.203 184.558 193.203 184.073C193.203 183.594 193.386 183.183 193.75 182.84C194.121 182.491 194.564 182.317 195.082 182.317C195.599 182.317 196.04 182.491 196.405 182.84C196.775 183.183 196.96 183.594 196.96 184.073C196.96 184.558 196.775 184.974 196.405 185.323C196.04 185.666 195.599 185.837 195.082 185.837ZM205.269 200.245C203.984 200.245 202.878 199.973 201.953 199.428C201.032 198.878 200.325 198.116 199.829 197.141C199.339 196.167 199.094 195.045 199.094 193.776C199.094 192.491 199.342 191.364 199.837 190.395C200.338 189.42 201.049 188.661 201.969 188.116C202.889 187.566 203.984 187.291 205.252 187.291C206.347 187.291 207.305 187.49 208.127 187.887C208.95 188.285 209.6 188.843 210.079 189.562C210.559 190.281 210.823 191.125 210.872 192.094H207.588C207.496 191.468 207.251 190.964 206.853 190.583C206.461 190.196 205.947 190.003 205.31 190.003C204.771 190.003 204.3 190.15 203.897 190.444C203.499 190.732 203.189 191.154 202.965 191.71C202.742 192.265 202.631 192.938 202.631 193.727C202.631 194.528 202.739 195.208 202.957 195.769C203.181 196.33 203.494 196.757 203.897 197.051C204.3 197.346 204.771 197.493 205.31 197.493C205.707 197.493 206.064 197.411 206.38 197.248C206.701 197.084 206.965 196.847 207.172 196.537C207.384 196.221 207.523 195.843 207.588 195.402H210.872C210.817 196.36 210.556 197.204 210.088 197.934C209.625 198.658 208.985 199.224 208.168 199.632C207.351 200.041 206.385 200.245 205.269 200.245ZM213.099 200V187.455H216.579V200H213.099ZM214.847 185.837C214.33 185.837 213.886 185.666 213.516 185.323C213.151 184.974 212.969 184.558 212.969 184.073C212.969 183.594 213.151 183.183 213.516 182.84C213.886 182.491 214.33 182.317 214.847 182.317C215.365 182.317 215.806 182.491 216.17 182.84C216.541 183.183 216.726 183.594 216.726 184.073C216.726 184.558 216.541 184.974 216.17 185.323C215.806 185.666 215.365 185.837 214.847 185.837ZM222.943 200.237C222.143 200.237 221.43 200.098 220.804 199.82C220.177 199.537 219.682 199.121 219.317 198.571C218.958 198.015 218.778 197.324 218.778 196.496C218.778 195.799 218.906 195.214 219.162 194.74C219.418 194.266 219.766 193.885 220.207 193.597C220.648 193.308 221.149 193.09 221.71 192.943C222.276 192.796 222.87 192.693 223.491 192.633C224.22 192.557 224.808 192.486 225.255 192.42C225.701 192.35 226.025 192.246 226.227 192.11C226.428 191.974 226.529 191.772 226.529 191.506V191.457C226.529 190.939 226.366 190.539 226.039 190.256C225.718 189.973 225.26 189.831 224.667 189.831C224.041 189.831 223.542 189.97 223.172 190.248C222.802 190.52 222.557 190.863 222.437 191.277L219.219 191.016C219.382 190.253 219.704 189.594 220.183 189.039C220.662 188.478 221.28 188.048 222.037 187.749C222.799 187.444 223.681 187.291 224.683 187.291C225.38 187.291 226.047 187.373 226.684 187.536C227.327 187.7 227.896 187.953 228.391 188.296C228.892 188.639 229.287 189.08 229.576 189.619C229.864 190.153 230.008 190.792 230.008 191.538V200H226.709V198.26H226.611C226.409 198.652 226.14 198.998 225.802 199.298C225.465 199.592 225.059 199.823 224.585 199.992C224.111 200.155 223.564 200.237 222.943 200.237ZM223.94 197.836C224.452 197.836 224.904 197.735 225.296 197.533C225.688 197.326 225.995 197.049 226.219 196.7C226.442 196.352 226.554 195.957 226.554 195.516V194.185C226.445 194.255 226.295 194.321 226.104 194.381C225.919 194.435 225.71 194.487 225.475 194.536C225.241 194.579 225.007 194.62 224.773 194.658C224.539 194.691 224.326 194.721 224.136 194.748C223.728 194.808 223.371 194.903 223.066 195.034C222.761 195.165 222.524 195.342 222.355 195.565C222.187 195.783 222.102 196.055 222.102 196.382C222.102 196.855 222.274 197.218 222.617 197.468C222.965 197.713 223.406 197.836 223.94 197.836ZM236.187 192.747V200H232.708V187.455H236.024V189.668H236.171C236.449 188.938 236.914 188.361 237.568 187.936C238.221 187.506 239.013 187.291 239.944 187.291C240.816 187.291 241.575 187.482 242.223 187.863C242.871 188.244 243.375 188.789 243.734 189.496C244.093 190.199 244.273 191.037 244.273 192.012V200H240.794V192.633C240.799 191.865 240.603 191.266 240.206 190.836C239.808 190.4 239.261 190.183 238.564 190.183C238.096 190.183 237.682 190.283 237.323 190.485C236.969 190.686 236.691 190.98 236.489 191.367C236.293 191.748 236.193 192.208 236.187 192.747Z" fill="white"/>
<rect width="350" height="234" rx="28" fill="#0A8996"/>
<circle cx="175.5" cy="93.5" r="70.5" fill="white"/>
<path d="M102.545 188.68C102.431 188.282 102.27 187.931 102.064 187.626C101.857 187.316 101.603 187.054 101.304 186.842C101.01 186.624 100.672 186.458 100.291 186.344C99.9155 186.229 99.4989 186.172 99.0415 186.172C98.1867 186.172 97.4353 186.385 96.7873 186.809C96.1448 187.234 95.6438 187.852 95.2844 188.663C94.9251 189.469 94.7454 190.455 94.7454 191.62C94.7454 192.785 94.9223 193.776 95.2763 194.593C95.6302 195.41 96.1312 196.033 96.7791 196.463C97.4271 196.888 98.1921 197.1 99.0742 197.1C99.8746 197.1 100.558 196.959 101.124 196.676C101.696 196.387 102.132 195.982 102.431 195.459C102.736 194.936 102.888 194.318 102.888 193.605L103.607 193.711H99.2947V191.048H106.294V193.156C106.294 194.626 105.984 195.889 105.363 196.945C104.743 197.996 103.888 198.808 102.799 199.379C101.71 199.946 100.463 200.229 99.0579 200.229C97.4897 200.229 96.1121 199.883 94.9251 199.191C93.738 198.494 92.8124 197.506 92.1481 196.227C91.4892 194.942 91.1598 193.417 91.1598 191.653C91.1598 190.297 91.3558 189.088 91.7479 188.026C92.1454 186.959 92.7008 186.055 93.4141 185.315C94.1274 184.574 94.9577 184.011 95.9052 183.624C96.8526 183.237 97.879 183.044 98.9844 183.044C99.9318 183.044 100.814 183.183 101.631 183.461C102.447 183.733 103.172 184.119 103.803 184.62C104.44 185.121 104.96 185.718 105.363 186.409C105.766 187.095 106.025 187.852 106.139 188.68H102.545ZM116.931 194.658V187.455H120.41V200H117.07V197.721H116.939C116.656 198.456 116.185 199.047 115.526 199.494C114.872 199.94 114.075 200.163 113.133 200.163C112.294 200.163 111.556 199.973 110.919 199.592C110.282 199.21 109.784 198.669 109.425 197.966C109.071 197.264 108.891 196.423 108.886 195.442V187.455H112.365V194.822C112.37 195.562 112.569 196.148 112.961 196.578C113.353 197.008 113.879 197.223 114.538 197.223C114.957 197.223 115.349 197.128 115.714 196.937C116.079 196.741 116.373 196.453 116.596 196.071C116.824 195.69 116.936 195.219 116.931 194.658ZM128.911 200.245C127.62 200.245 126.509 199.984 125.578 199.461C124.652 198.933 123.939 198.187 123.438 197.223C122.937 196.254 122.687 195.108 122.687 193.784C122.687 192.494 122.937 191.361 123.438 190.387C123.939 189.412 124.644 188.652 125.554 188.108C126.468 187.563 127.541 187.291 128.772 187.291C129.599 187.291 130.37 187.425 131.083 187.691C131.802 187.953 132.428 188.348 132.962 188.876C133.501 189.404 133.92 190.068 134.219 190.869C134.519 191.664 134.669 192.595 134.669 193.662V194.618H124.075V192.461H131.393C131.393 191.96 131.285 191.517 131.067 191.13C130.849 190.743 130.547 190.441 130.16 190.223C129.779 190 129.335 189.888 128.829 189.888C128.301 189.888 127.832 190.011 127.424 190.256C127.021 190.496 126.705 190.82 126.477 191.228C126.248 191.631 126.131 192.08 126.125 192.576V194.626C126.125 195.246 126.24 195.783 126.468 196.235C126.703 196.687 127.032 197.035 127.457 197.28C127.881 197.525 128.385 197.648 128.968 197.648C129.354 197.648 129.708 197.593 130.029 197.484C130.351 197.375 130.626 197.212 130.854 196.994C131.083 196.777 131.257 196.51 131.377 196.194L134.595 196.406C134.432 197.179 134.097 197.855 133.591 198.432C133.09 199.004 132.442 199.45 131.647 199.771C130.857 200.087 129.945 200.245 128.911 200.245ZM147.377 191.032L144.192 191.228C144.138 190.956 144.021 190.711 143.841 190.493C143.661 190.27 143.424 190.093 143.13 189.962C142.842 189.826 142.496 189.758 142.093 189.758C141.554 189.758 141.099 189.872 140.729 190.101C140.359 190.324 140.174 190.624 140.174 190.999C140.174 191.299 140.293 191.552 140.533 191.759C140.773 191.966 141.184 192.132 141.766 192.257L144.037 192.714C145.257 192.965 146.166 193.368 146.765 193.923C147.364 194.479 147.663 195.208 147.663 196.112C147.663 196.934 147.421 197.656 146.936 198.277C146.457 198.897 145.798 199.382 144.96 199.73C144.127 200.074 143.166 200.245 142.077 200.245C140.416 200.245 139.093 199.899 138.107 199.208C137.127 198.511 136.553 197.563 136.384 196.365L139.806 196.186C139.91 196.692 140.16 197.079 140.558 197.346C140.955 197.607 141.464 197.738 142.085 197.738C142.695 197.738 143.185 197.621 143.555 197.386C143.931 197.147 144.121 196.839 144.127 196.463C144.121 196.148 143.988 195.889 143.727 195.688C143.465 195.481 143.062 195.323 142.518 195.214L140.345 194.781C139.12 194.536 138.208 194.111 137.609 193.507C137.016 192.902 136.719 192.132 136.719 191.195C136.719 190.389 136.937 189.695 137.372 189.113C137.813 188.53 138.431 188.081 139.226 187.765C140.027 187.449 140.963 187.291 142.036 187.291C143.62 187.291 144.867 187.626 145.777 188.296C146.691 188.966 147.225 189.878 147.377 191.032ZM156.527 187.455V190.068H148.972V187.455H156.527ZM150.687 184.449H154.167V196.145C154.167 196.466 154.216 196.717 154.314 196.896C154.412 197.071 154.548 197.193 154.722 197.264C154.902 197.335 155.109 197.37 155.343 197.37C155.506 197.37 155.67 197.356 155.833 197.329C155.996 197.297 156.122 197.272 156.209 197.256L156.756 199.845C156.582 199.899 156.337 199.962 156.021 200.033C155.705 200.109 155.321 200.155 154.869 200.172C154.031 200.204 153.296 200.093 152.664 199.837C152.038 199.581 151.55 199.183 151.202 198.644C150.853 198.105 150.682 197.424 150.687 196.602V184.449ZM164.182 200V183.273H170.782C172.05 183.273 173.131 183.515 174.024 184C174.917 184.479 175.598 185.146 176.066 186.001C176.54 186.85 176.777 187.83 176.777 188.941C176.777 190.052 176.537 191.032 176.058 191.881C175.579 192.731 174.885 193.392 173.975 193.866C173.071 194.34 171.977 194.577 170.692 194.577H166.486V191.743H170.12C170.801 191.743 171.362 191.625 171.803 191.391C172.249 191.152 172.581 190.822 172.799 190.403C173.022 189.978 173.134 189.491 173.134 188.941C173.134 188.386 173.022 187.901 172.799 187.487C172.581 187.068 172.249 186.744 171.803 186.515C171.356 186.281 170.79 186.164 170.104 186.164H167.719V200H164.182ZM182.249 200.237C181.449 200.237 180.735 200.098 180.109 199.82C179.483 199.537 178.988 199.121 178.623 198.571C178.263 198.015 178.084 197.324 178.084 196.496C178.084 195.799 178.212 195.214 178.468 194.74C178.723 194.266 179.072 193.885 179.513 193.597C179.954 193.308 180.455 193.09 181.016 192.943C181.582 192.796 182.176 192.693 182.796 192.633C183.526 192.557 184.114 192.486 184.561 192.42C185.007 192.35 185.331 192.246 185.532 192.11C185.734 191.974 185.835 191.772 185.835 191.506V191.457C185.835 190.939 185.671 190.539 185.345 190.256C185.023 189.973 184.566 189.831 183.972 189.831C183.346 189.831 182.848 189.97 182.478 190.248C182.108 190.52 181.863 190.863 181.743 191.277L178.525 191.016C178.688 190.253 179.009 189.594 179.488 189.039C179.968 188.478 180.586 188.048 181.343 187.749C182.105 187.444 182.987 187.291 183.989 187.291C184.686 187.291 185.353 187.373 185.99 187.536C186.632 187.7 187.201 187.953 187.697 188.296C188.198 188.639 188.593 189.08 188.881 189.619C189.17 190.153 189.314 190.792 189.314 191.538V200H186.014V198.26H185.916C185.715 198.652 185.445 198.998 185.108 199.298C184.77 199.592 184.365 199.823 183.891 199.992C183.417 200.155 182.87 200.237 182.249 200.237ZM183.246 197.836C183.757 197.836 184.209 197.735 184.601 197.533C184.993 197.326 185.301 197.049 185.524 196.7C185.748 196.352 185.859 195.957 185.859 195.516V194.185C185.75 194.255 185.601 194.321 185.41 194.381C185.225 194.435 185.015 194.487 184.781 194.536C184.547 194.579 184.313 194.62 184.079 194.658C183.845 194.691 183.632 194.721 183.442 194.748C183.033 194.808 182.677 194.903 182.372 195.034C182.067 195.165 181.83 195.342 181.661 195.565C181.492 195.783 181.408 196.055 181.408 196.382C181.408 196.855 181.579 197.218 181.922 197.468C182.271 197.713 182.712 197.836 183.246 197.836ZM192.013 200V187.455H195.387V189.643H195.517C195.746 188.865 196.13 188.277 196.669 187.879C197.208 187.476 197.829 187.275 198.531 187.275C198.705 187.275 198.893 187.286 199.095 187.308C199.296 187.329 199.473 187.359 199.626 187.397V190.485C199.462 190.436 199.236 190.392 198.948 190.354C198.659 190.316 198.395 190.297 198.156 190.297C197.644 190.297 197.186 190.408 196.783 190.632C196.386 190.85 196.07 191.154 195.836 191.547C195.607 191.939 195.493 192.391 195.493 192.902V200H192.013ZM204.577 196.39L204.585 192.216H205.092L209.11 187.455H213.104L207.706 193.76H206.881L204.577 196.39ZM201.425 200V183.273H204.904V200H201.425ZM209.266 200L205.574 194.536L207.893 192.077L213.341 200H209.266ZM214.811 200V187.455H218.291V200H214.811ZM216.559 185.837C216.042 185.837 215.598 185.666 215.228 185.323C214.863 184.974 214.681 184.558 214.681 184.073C214.681 183.594 214.863 183.183 215.228 182.84C215.598 182.491 216.042 182.317 216.559 182.317C217.076 182.317 217.518 182.491 217.882 182.84C218.253 183.183 218.438 183.594 218.438 184.073C218.438 184.558 218.253 184.974 217.882 185.323C217.518 185.666 217.076 185.837 216.559 185.837ZM224.557 192.747V200H221.078V187.455H224.394V189.668H224.541C224.819 188.938 225.284 188.361 225.938 187.936C226.591 187.506 227.383 187.291 228.314 187.291C229.186 187.291 229.945 187.482 230.593 187.863C231.241 188.244 231.745 188.789 232.104 189.496C232.464 190.199 232.643 191.037 232.643 192.012V200H229.164V192.633C229.169 191.865 228.973 191.266 228.576 190.836C228.178 190.4 227.631 190.183 226.934 190.183C226.466 190.183 226.052 190.283 225.693 190.485C225.339 190.686 225.061 190.98 224.86 191.367C224.664 191.748 224.563 192.208 224.557 192.747ZM241.038 204.966C239.91 204.966 238.944 204.811 238.138 204.5C237.338 204.195 236.701 203.779 236.227 203.251C235.753 202.723 235.445 202.129 235.304 201.47L238.522 201.037C238.62 201.288 238.775 201.522 238.987 201.74C239.2 201.958 239.48 202.132 239.829 202.262C240.183 202.399 240.613 202.467 241.119 202.467C241.876 202.467 242.5 202.281 242.99 201.911C243.485 201.546 243.733 200.934 243.733 200.074V197.778H243.586C243.433 198.127 243.205 198.456 242.9 198.767C242.595 199.077 242.203 199.33 241.724 199.526C241.244 199.722 240.673 199.82 240.008 199.82C239.066 199.82 238.209 199.603 237.436 199.167C236.668 198.726 236.055 198.053 235.598 197.15C235.146 196.24 234.92 195.091 234.92 193.703C234.92 192.282 235.151 191.095 235.614 190.142C236.077 189.189 236.692 188.475 237.46 188.002C238.233 187.528 239.08 187.291 240 187.291C240.703 187.291 241.291 187.411 241.764 187.651C242.238 187.885 242.619 188.179 242.908 188.533C243.202 188.881 243.428 189.224 243.586 189.562H243.717V187.455H247.171V200.123C247.171 201.19 246.91 202.083 246.387 202.801C245.865 203.52 245.14 204.059 244.215 204.419C243.295 204.783 242.235 204.966 241.038 204.966ZM241.111 197.207C241.672 197.207 242.146 197.068 242.532 196.79C242.924 196.507 243.224 196.104 243.431 195.581C243.643 195.053 243.749 194.422 243.749 193.686C243.749 192.951 243.646 192.314 243.439 191.775C243.232 191.231 242.932 190.809 242.54 190.509C242.148 190.21 241.672 190.06 241.111 190.06C240.539 190.06 240.057 190.215 239.665 190.526C239.273 190.83 238.977 191.255 238.775 191.8C238.574 192.344 238.473 192.973 238.473 193.686C238.473 194.411 238.574 195.037 238.775 195.565C238.982 196.088 239.279 196.493 239.665 196.782C240.057 197.065 240.539 197.207 241.111 197.207Z" fill="white"/>
<path d="M169.017 107.783V119.65H133.417C130.14 119.65 127.483 116.993 127.483 113.716V107.783H169.017Z" fill="#9E9E9E"/>
<path d="M164.566 107.783H169.016V119.65H164.566V107.783Z" fill="#707070"/>
<path d="M169.017 84.0494V95.916H155.667C154.03 95.9209 152.705 97.2463 152.7 98.8827V107.783H127.483V89.9827C127.483 86.7058 130.14 84.0494 133.417 84.0494H169.017Z" fill="#F44335"/>
<path d="M164.566 84.0494H169.016V95.916H164.566V84.0494Z" fill="#C81E1E"/>
<path d="M152.7 101.849H169.017V107.783H152.7V101.849Z" fill="#37474F"/>
<path d="M169.017 95.916V101.849H152.7V98.8827C152.705 97.2463 154.03 95.9209 155.667 95.916H169.017Z" fill="#607D8B"/>
<path d="M133.416 119.65H151.216V125.583C151.216 128.86 148.56 131.516 145.283 131.516H139.349C136.072 131.516 133.416 128.86 133.416 125.583V119.65Z" fill="#607D8B"/>
<path d="M139.35 100.366C141.808 100.366 143.8 98.3738 143.8 95.9161C143.8 93.4585 141.808 91.4661 139.35 91.4661C136.893 91.4661 134.9 93.4585 134.9 95.9161C134.9 98.3738 136.893 100.366 139.35 100.366Z" fill="#FFDC00"/>
<path d="M169.016 57.3494V84.0494H133.416L143.71 60.8798C144.665 58.7349 146.792 57.352 149.139 57.3494H169.016Z" fill="#02A9F4"/>
<path d="M164.566 57.3494H169.016V84.0494H164.566V57.3494Z" fill="#0377BC"/>
<path d="M138.681 72.1827H131.933C130.297 72.1876 128.972 73.513 128.967 75.1494C128.979 76.7828 130.3 78.104 131.933 78.1161H136.057L138.681 72.1827Z" fill="#F44335"/>
<path d="M213.517 55.866V121.133C213.517 123.59 211.524 125.583 209.067 125.583H173.467C171.009 125.583 169.017 123.59 169.017 121.133V55.866C169.017 53.4083 171.009 51.416 173.467 51.416H182.367C182.371 53.0524 183.697 54.3778 185.333 54.3827H197.2C198.833 54.3706 200.154 53.0494 200.167 51.416H209.067C211.524 51.416 213.517 53.4083 213.517 55.866Z" fill="#F5F5F5"/>
<path d="M209.067 51.416H204.617C207.075 51.416 209.067 53.4083 209.067 55.866V121.133C209.067 123.59 207.075 125.583 204.617 125.583H209.067C211.525 125.583 213.517 123.59 213.517 121.133V55.866C213.517 53.4083 211.525 51.416 209.067 51.416Z" fill="#CFD8DC"/>
<path d="M200.167 51.4161C200.155 53.0495 198.834 54.3706 197.201 54.3827H185.334C183.697 54.3778 182.372 53.0525 182.367 51.4161C182.379 49.7827 183.7 48.4615 185.334 48.4494H187.084C187.707 46.6722 189.384 45.4824 191.267 45.4824C193.15 45.4824 194.828 46.6722 195.45 48.4494H197.201C198.837 48.4543 200.162 49.7796 200.167 51.4161Z" fill="#7F8E94"/>
<path d="M206.656 62.1244L200.278 67.2285L199.734 66.6841C199.152 66.122 198.226 66.13 197.654 66.7022C197.082 67.2744 197.074 68.1995 197.636 68.7816L199.119 70.2649C199.654 70.7996 200.505 70.8469 201.095 70.3747L208.512 64.4413C208.926 64.1101 209.132 63.5833 209.052 63.0592C208.972 62.5352 208.618 62.0936 208.125 61.9007C207.631 61.7079 207.07 61.7932 206.656 62.1244Z" fill="black"/>
<path d="M139.349 101.849C142.626 101.849 145.283 99.193 145.283 95.9161C145.283 92.6392 142.626 89.9828 139.349 89.9828C136.072 89.9828 133.416 92.6392 133.416 95.9161C133.416 99.193 136.072 101.849 139.349 101.849ZM139.349 92.9495C140.988 92.9495 142.316 94.2777 142.316 95.9161C142.316 97.5546 140.988 98.8828 139.349 98.8828C137.711 98.8828 136.383 97.5546 136.383 95.9161C136.383 94.2777 137.711 92.9495 139.349 92.9495Z" fill="black"/>
<path d="M147.706 77.7808L164.022 64.4308C164.442 64.0983 164.65 63.5655 164.566 63.0367C164.482 62.5079 164.12 62.0652 163.619 61.8783C163.117 61.6914 162.553 61.7894 162.144 62.1346L145.828 75.4846C145.408 75.8172 145.2 76.35 145.284 76.8788C145.367 77.4076 145.73 77.8503 146.231 78.0372C146.733 78.224 147.296 78.1261 147.706 77.7808Z" fill="#F5F5F5"/>
<path d="M209.067 49.9328H201.377C200.751 48.1612 199.079 46.9739 197.2 46.9661H196.4C195.342 45.1309 193.385 44 191.267 44C189.148 44 187.191 45.1309 186.133 46.9661H185.333C183.452 46.97 181.778 48.1585 181.153 49.9328H173.467C170.19 49.9328 167.533 52.5892 167.533 55.8661H149.14C146.207 55.8732 143.552 57.5999 142.355 60.2775L137.718 70.6995H131.933C129.476 70.6995 127.483 72.6918 127.483 75.1495C127.474 76.3231 127.942 77.4502 128.778 78.2734C129.605 79.1273 130.745 79.6063 131.933 79.5995H133.77L132.407 82.6685C128.745 83.166 126.011 86.2875 126 89.9828V113.716C126.004 117.239 128.482 120.275 131.933 120.984V125.583C131.938 129.677 135.256 132.995 139.35 132.999H145.283C149.377 132.995 152.695 129.677 152.7 125.583V121.133H167.533C167.533 124.41 170.19 127.066 173.467 127.066H209.067C212.344 127.066 215 124.41 215 121.133V55.8661C215 52.5892 212.344 49.9328 209.067 49.9328ZM184.305 50.3585C184.576 50.0829 184.947 49.9292 185.333 49.9328H187.084C187.718 49.9327 188.281 49.5298 188.487 48.93C188.904 47.7525 190.017 46.9654 191.267 46.9654C192.516 46.9654 193.63 47.7525 194.046 48.93C194.252 49.5298 194.816 49.9327 195.45 49.9328H197.2C198.019 49.9328 198.683 50.5969 198.683 51.4161C198.684 51.8164 198.519 52.1992 198.228 52.4737C197.957 52.7493 197.586 52.903 197.2 52.8995H185.333C184.514 52.8995 183.85 52.2353 183.85 51.4161C183.849 51.0158 184.014 50.633 184.305 50.3585ZM167.533 100.366H154.183V98.8828C154.183 98.0636 154.847 97.3995 155.667 97.3995H167.533V100.366ZM154.183 103.333H167.533V106.299H154.183V103.333ZM145.067 61.4865C145.783 59.8765 147.378 58.8374 149.14 58.8328H167.533V82.5661H135.7C137.327 78.9023 142.039 68.2742 145.067 61.4865ZM131.933 76.6328C131.533 76.6342 131.151 76.4693 130.877 76.1774C130.601 75.9072 130.447 75.536 130.45 75.1495C130.45 74.3302 131.114 73.6661 131.933 73.6661H136.407L135.088 76.6328H131.933ZM133.417 85.5328H167.533V94.4328H155.667C153.209 94.4328 151.217 96.4251 151.217 98.8828V106.299H128.967V89.9828C128.967 87.5251 130.959 85.5328 133.417 85.5328ZM149.733 125.583C149.733 128.04 147.741 130.033 145.283 130.033H139.35C136.892 130.033 134.9 128.04 134.9 125.583V121.133H149.733V125.583ZM133.417 118.166C130.959 118.166 128.967 116.174 128.967 113.716V109.266H167.533V112.233H163.083C162.264 112.233 161.6 112.897 161.6 113.716C161.6 114.535 162.264 115.199 163.083 115.199H167.533V118.166H133.417ZM212.033 121.133C212.033 122.771 210.705 124.099 209.067 124.099H173.467C171.828 124.099 170.5 122.771 170.5 121.133V55.8661C170.5 54.2277 171.828 52.8995 173.467 52.8995H181.156C181.783 54.6711 183.454 55.8583 185.333 55.8661H197.2C199.081 55.8622 200.756 54.6738 201.38 52.8995H209.067C210.705 52.8995 212.033 54.2277 212.033 55.8661V121.133Z" fill="black"/>
<path d="M192.75 61.7994H174.95C174.131 61.7994 173.467 62.4635 173.467 63.2827C173.467 64.1019 174.131 64.766 174.95 64.766H192.75C193.569 64.766 194.233 64.1019 194.233 63.2827C194.233 62.4635 193.569 61.7994 192.75 61.7994Z" fill="black"/>
<path d="M174.95 70.6995H183.85C184.669 70.6995 185.333 70.0353 185.333 69.2161C185.333 68.3969 184.669 67.7328 183.85 67.7328H174.95C174.131 67.7328 173.467 68.3969 173.467 69.2161C173.467 70.0353 174.131 70.6995 174.95 70.6995Z" fill="black"/>
<path d="M206.656 76.9576L200.278 82.0618L199.734 81.5174C199.152 80.9553 198.226 80.9633 197.654 81.5355C197.082 82.1076 197.074 83.0328 197.636 83.6148L199.119 85.0982C199.654 85.6329 200.505 85.6802 201.095 85.2079L208.512 79.2746C208.926 78.9434 209.132 78.4165 209.052 77.8925C208.972 77.3684 208.618 76.9268 208.125 76.734C207.631 76.5412 207.07 76.6264 206.656 76.9576Z" fill="black"/>
<path d="M192.75 76.6329H174.95C174.131 76.6329 173.467 77.297 173.467 78.1162C173.467 78.9354 174.131 79.5995 174.95 79.5995H192.75C193.569 79.5995 194.233 78.9354 194.233 78.1162C194.233 77.297 193.569 76.6329 192.75 76.6329Z" fill="black"/>
<path d="M174.95 85.5328H183.85C184.669 85.5328 185.333 84.8687 185.333 84.0494C185.333 83.2302 184.669 82.5661 183.85 82.5661H174.95C174.131 82.5661 173.467 83.2302 173.467 84.0494C173.467 84.8687 174.131 85.5328 174.95 85.5328Z" fill="black"/>
<path d="M206.656 91.7909L200.278 96.8951L199.734 96.3507C199.152 95.7885 198.226 95.7966 197.654 96.3687C197.082 96.9409 197.074 97.8661 197.636 98.4481L199.119 99.9314C199.654 100.466 200.505 100.513 201.095 100.041L208.512 94.1079C209.152 93.5959 209.255 92.6621 208.743 92.0223C208.231 91.3825 207.296 91.2789 206.656 91.7909Z" fill="black"/>
<path d="M192.75 91.4661H174.95C174.131 91.4661 173.467 92.1302 173.467 92.9495C173.467 93.7687 174.131 94.4328 174.95 94.4328H192.75C193.569 94.4328 194.233 93.7687 194.233 92.9495C194.233 92.1302 193.569 91.4661 192.75 91.4661Z" fill="black"/>
<path d="M174.95 100.366H183.85C184.669 100.366 185.333 99.7021 185.333 98.8829C185.333 98.0636 184.669 97.3995 183.85 97.3995H174.95C174.131 97.3995 173.467 98.0636 173.467 98.8829C173.467 99.7021 174.131 100.366 174.95 100.366Z" fill="black"/>
<path d="M206.656 106.624L200.278 111.728L199.734 111.184C199.152 110.622 198.226 110.63 197.654 111.202C197.082 111.774 197.074 112.7 197.636 113.282L199.119 114.765C199.654 115.3 200.505 115.347 201.095 114.875L208.512 108.941C209.152 108.429 209.255 107.496 208.743 106.856C208.231 106.216 207.296 106.112 206.656 106.624Z" fill="black"/>
<path d="M192.75 106.299H174.95C174.131 106.299 173.467 106.963 173.467 107.783C173.467 108.602 174.131 109.266 174.95 109.266H192.75C193.569 109.266 194.233 108.602 194.233 107.783C194.233 106.963 193.569 106.299 192.75 106.299Z" fill="black"/>
<path d="M183.85 112.233H174.95C174.131 112.233 173.467 112.897 173.467 113.716C173.467 114.535 174.131 115.199 174.95 115.199H183.85C184.669 115.199 185.333 114.535 185.333 113.716C185.333 112.897 184.669 112.233 183.85 112.233Z" fill="black"/>
</svg>
