<svg width="181" height="171" viewBox="0 0 181 171" fill="none" xmlns="http://www.w3.org/2000/svg">
<path d="M148.74 89.0933L149.819 107.853L154.416 116.177" stroke="#14335D" stroke-width="3" stroke-linecap="round" stroke-linejoin="round"/>
<path d="M49.7051 22.8407C45.587 20.4823 44.9238 15.9041 44.7387 14.3164C44.0601 8.19671 48.4867 2.67825 54.6098 2L105.122 7.91926C107.867 8.24297 110.459 9.30658 112.649 11.0022L138.067 30.8256C141.136 33.2149 143.157 36.6986 143.712 40.5369L146.889 62.3487" stroke="#14335D" stroke-width="3" stroke-linecap="round" stroke-linejoin="round"/>
<path d="M93.3538 84.7155L93.5852 41.7546C93.1533 33.5386 86.3978 27.0952 78.1771 27.0335C69.3085 26.9719 62.1828 34.3093 62.5221 43.1574L61.936 94.5193C62.445 104.924 66.4243 114.851 73.2569 122.728L94.2793 138.498L98.9372 146.945" stroke="#14335D" stroke-width="3" stroke-linecap="round" stroke-linejoin="round"/>
<path d="M166.347 137.683L155.381 117.78L97.8661 149.433L108.832 169.336L166.347 137.683Z" stroke="#0A8996" stroke-width="3" stroke-linecap="round" stroke-linejoin="round"/>
<path d="M96.2689 42.9724L172.909 76.1141C177.86 78.2568 180.142 84.0064 177.998 88.9546C175.855 93.9027 170.102 96.1841 165.151 94.0414L96.053 64.1523" stroke="#14335D" stroke-width="3" stroke-linecap="round" stroke-linejoin="round"/>
<path d="M60.9952 48.9841L25.5209 33.6464L2 12.0504L33.279 15.7191L67.5348 30.548" stroke="#14335D" stroke-width="3" stroke-linecap="round" stroke-linejoin="round"/>
</svg>
