<svg width="63" height="63" viewBox="0 0 63 63" fill="none" xmlns="http://www.w3.org/2000/svg">
<g clip-path="url(#clip0_1290_2368)">
<path d="M55.6501 28.6545V60.9C55.6501 61.4799 55.18 61.95 54.6001 61.95H8.4001C7.8202 61.95 7.3501 61.4799 7.3501 60.9V28.6545L31.5001 8.62048L55.6501 28.6545Z" fill="#F7FEFF"/>
<path d="M31.5 8.62048L29.925 9.92668L52.5001 28.6545V60.9C52.5001 61.4799 52.0299 61.95 51.4501 61.95H54.6C55.1799 61.95 55.6501 61.4799 55.6501 60.9V28.6545L31.5 8.62048Z" fill="#DFC49C"/>
<path d="M55.65 8.39998V20.769L48.3 14.6685V8.39998C48.3 7.82008 48.7701 7.34998 49.35 7.34998H54.6C55.1799 7.34998 55.65 7.82008 55.65 8.39998Z" fill="#14335D"/>
<path d="M61.677 27.1949L59.0625 30.1559C58.6835 30.5867 58.0289 30.6335 57.5925 30.2609L55.65 28.6544L31.5 8.62044L7.35 28.6544L5.4075 30.2609C4.97111 30.6335 4.31651 30.5867 3.9375 30.1559L1.323 27.1949C1.12854 26.9813 1.03072 26.6969 1.05257 26.4088C1.07443 26.1207 1.21403 25.8543 1.4385 25.6724L30.8175 1.29144C31.2143 0.966003 31.7857 0.966003 32.1825 1.29144L48.3 14.6684L55.65 20.7689L61.5615 25.6724C61.786 25.8543 61.9256 26.1207 61.9474 26.4088C61.9693 26.6969 61.8715 26.9813 61.677 27.1949Z" fill="#14335D"/>
<path d="M61.5616 25.6724L55.6501 20.7689L48.3001 14.6684L32.1825 1.29144C31.7857 0.966003 31.2144 0.966003 30.8175 1.29144L29.925 2.03169L45.1501 14.6684L52.5 20.7689L58.4116 25.6724C58.636 25.8543 58.7756 26.1207 58.7975 26.4088C58.8193 26.6969 58.7215 26.9813 58.5271 27.1949L56.5678 29.4136L57.5925 30.2609C58.0289 30.6335 58.6835 30.5867 59.0626 30.1559L61.6771 27.1949C61.8715 26.9813 61.9693 26.6969 61.9475 26.4088C61.9256 26.1207 61.786 25.8543 61.5616 25.6724Z" fill="#14335D"/>
<path d="M38.8502 36.75C38.8526 37.3519 38.7785 37.9517 38.6297 38.535C38.2445 40.0774 37.3672 41.4523 36.1307 42.4515C33.4349 44.6493 29.5655 44.6493 26.8697 42.4515C25.6331 41.4523 24.7558 40.0774 24.3707 38.535C23.9659 36.9215 24.1214 35.2184 24.8117 33.705C26.0057 31.0843 28.6203 29.4023 31.5002 29.4023C34.3801 29.4023 36.9946 31.0843 38.1887 33.705C38.6295 34.6593 38.8554 35.6988 38.8502 36.75Z" fill="white"/>
<path d="M38.1885 33.705C36.7783 30.5281 33.3105 28.8004 29.925 29.5879C32.183 30.0779 34.0779 31.6036 35.0385 33.705C35.7288 35.2185 35.8843 36.9216 35.4796 38.535C35.0944 40.0774 34.2171 41.4523 32.9805 42.4515C32.093 43.1751 31.0454 43.6762 29.925 43.9131C30.4418 44.0316 30.9699 44.0943 31.5 44.1C33.1888 44.1084 34.8271 43.5252 36.1305 42.4515C37.3671 41.4523 38.2444 40.0774 38.6295 38.535C39.0343 36.9216 38.8788 35.2185 38.1885 33.705Z" fill="#E9E1D6"/>
<path d="M40.95 49.3499V54.5999C40.95 55.1798 40.4799 55.6499 39.9 55.6499H23.1C22.5202 55.6499 22.05 55.1798 22.05 54.5999V49.3499C22.0485 46.2665 23.9738 43.5107 26.8695 42.4514C29.5653 44.6493 33.4348 44.6493 36.1305 42.4514C39.0263 43.5107 40.9516 46.2665 40.95 49.3499Z" fill="white"/>
<path d="M36.1305 42.4514C35.6825 42.8098 35.1932 43.1133 34.6731 43.3555C36.6316 44.7232 37.799 46.9611 37.8 49.3499V54.5999C37.8 55.1798 37.3299 55.6499 36.75 55.6499H39.9C40.4799 55.6499 40.95 55.1798 40.95 54.5999V49.3499C40.9516 46.2665 39.0263 43.5107 36.1305 42.4514Z" fill="#0A8996"/>
<path d="M24.1501 36.75C24.1477 37.3519 24.2218 37.9517 24.3706 38.535C24.2203 38.7744 24.048 38.9994 23.8561 39.207C22.2909 40.9464 19.7635 41.44 17.6588 40.4173C15.5542 39.3945 14.3805 37.1024 14.7809 34.797C15.1813 32.4915 17.0591 30.7293 19.3853 30.4761C21.7115 30.2228 23.9245 31.5397 24.8116 33.705C24.3707 34.6593 24.1449 35.6988 24.1501 36.75Z" fill="white"/>
<path d="M24.8115 33.7049C24.0004 31.735 22.0804 30.4495 19.95 30.45C19.428 30.4575 18.9102 30.5435 18.4139 30.7051C19.884 31.1803 21.0714 32.277 21.6615 33.7049C20.9713 35.2184 20.8158 36.9215 21.2205 38.535C21.0702 38.7744 20.898 38.9994 20.706 39.207C20.0784 39.9077 19.2729 40.4258 18.375 40.7064C18.8846 40.8669 19.4157 40.949 19.95 40.95C21.4412 40.9537 22.8628 40.3194 23.856 39.207C24.048 38.9994 24.2202 38.7744 24.3705 38.535C23.9658 36.9215 24.1213 35.2184 24.8115 33.7049Z" fill="#E9E1D6"/>
<path d="M26.8696 42.4515C23.9738 43.5108 22.0485 46.2666 22.0501 49.35H13.4191C12.967 49.3495 12.6007 48.9831 12.6001 48.531V44.4465C12.6002 42.1694 13.9537 40.1102 16.0441 39.207C17.0398 40.3158 18.4599 40.9491 19.9501 40.9491C21.4403 40.9491 22.8604 40.3158 23.8561 39.207C24.0481 38.9995 24.2203 38.7745 24.3706 38.535C24.7558 40.0775 25.633 41.4524 26.8696 42.4515Z" fill="white"/>
<path d="M24.3706 38.535C24.2204 38.7745 24.0481 38.9995 23.8561 39.207C23.3549 39.7662 22.7389 40.2107 22.0501 40.5101C22.4889 41.2499 23.0539 41.907 23.7196 42.4515C20.8239 43.5108 18.8986 46.2666 18.9001 49.35H22.0501C22.0486 46.2666 23.9739 43.5108 26.8696 42.4515C25.6331 41.4524 24.7558 40.0775 24.3706 38.535Z" fill="#0A8996"/>
<path d="M48.3 35.7C48.2996 37.8746 46.9586 39.8239 44.9278 40.6017C42.8971 41.3795 40.597 40.8249 39.144 39.207C38.952 38.9994 38.7798 38.7744 38.6295 38.535C39.0342 36.9215 38.8787 35.2184 38.1885 33.705C39.137 31.3783 41.6011 30.0499 44.0662 30.5362C46.5313 31.0226 48.3062 33.1874 48.3 35.7Z" fill="white"/>
<path d="M43.0501 30.45C42.5022 30.4504 41.9576 30.5365 41.4363 30.7051C43.6317 31.3746 45.1348 33.3962 45.1437 35.6914C45.1526 37.9866 43.6653 40.0198 41.4751 40.7064C41.9848 40.8669 42.5158 40.949 43.0501 40.95C45.9496 40.95 48.3001 38.5994 48.3001 35.7C48.3001 32.8005 45.9496 30.45 43.0501 30.45Z" fill="#E9E1D6"/>
<path d="M50.4001 44.4465V48.531C50.3995 48.9831 50.0332 49.3495 49.5811 49.35H40.9501C40.9517 46.2666 39.0264 43.5108 36.1306 42.4515C37.3672 41.4524 38.2445 40.0775 38.6296 38.535C38.7799 38.7745 38.9521 38.9995 39.1441 39.207C40.1399 40.3158 41.5599 40.9491 43.0501 40.9491C44.5404 40.9491 45.9604 40.3158 46.9561 39.207C49.0465 40.1102 50.4 42.1694 50.4001 44.4465Z" fill="white"/>
<path d="M46.9561 39.207C46.5381 39.6713 46.0402 40.0569 45.4861 40.3452C46.6108 41.4131 47.2484 42.8956 47.2501 44.4465V48.531C47.2495 48.9831 46.8832 49.3495 46.4311 49.35H49.5811C50.0332 49.3495 50.3995 48.9831 50.4001 48.531V44.4465C50.4 42.1694 49.0465 40.1102 46.9561 39.207Z" fill="#00838F"/>
<path d="M56.6997 20.2719V8.39954C56.6997 7.23975 55.7595 6.29954 54.5997 6.29954H49.3497C48.1899 6.29954 47.2497 7.23975 47.2497 8.39954V12.4315L32.8511 0.486744C32.0674 -0.163225 30.932 -0.163225 30.1484 0.486744L0.765176 24.8635C0.32395 25.2292 0.0499343 25.7582 0.00580072 26.3296C-0.0383329 26.901 0.151192 27.4658 0.531026 27.8949L3.14973 30.8485C3.90544 31.7107 5.21177 31.8106 6.08973 31.0732L6.29973 30.8926V60.8995C6.29973 62.0593 7.23993 62.9995 8.39973 62.9995H54.5997C55.7595 62.9995 56.6997 62.0593 56.6997 60.8995V30.8926L56.9171 31.0732C57.7937 31.8063 59.095 31.7066 59.8497 30.8485L62.4653 27.8938C62.8451 27.4649 63.0346 26.9003 62.9904 26.3291C62.9463 25.7579 62.6723 25.229 62.2311 24.8635L56.6997 20.2719ZM49.3497 8.39954H54.5997V18.5289L49.3497 14.1745V8.39954ZM54.5997 60.8995H8.39973V29.1507L31.4997 9.98819L54.5997 29.1507V60.8995ZM58.28 29.4562C58.2739 29.4622 58.2641 29.4622 58.2579 29.4562L32.1707 7.81574C31.7817 7.49263 31.2177 7.49263 30.8288 7.81574L4.72473 29.4562L2.10603 26.4795L31.5102 2.09954L60.8997 26.5026L58.28 29.4562Z" fill="black"/>
<path d="M31.4046 28.0636C28.7757 28.0664 26.3002 29.3016 24.7171 31.4005C22.6189 28.9036 18.9618 28.4209 16.2876 30.288C13.6133 32.155 12.8062 35.7544 14.4271 38.5846C12.5741 39.8362 11.461 41.924 11.4546 44.1601V48.2446C11.4557 49.2763 12.2918 50.1124 13.3236 50.1136H20.9046V54.3136C20.9046 55.4734 21.8448 56.4136 23.0046 56.4136H39.8046C40.9644 56.4136 41.9046 55.4734 41.9046 54.3136V50.1136H49.4856C50.5173 50.1124 51.3534 49.2763 51.3546 48.2446V44.1601C51.3495 41.925 50.2384 39.8372 48.3873 38.5846C50.0082 35.7544 49.2011 32.155 46.5269 30.288C43.8526 28.4209 40.1956 28.9036 38.0973 31.4005C36.5132 29.3001 34.0354 28.0647 31.4046 28.0636ZM31.4046 30.1636C34.884 30.1636 37.7046 32.9842 37.7046 36.4636C37.7046 39.943 34.884 42.7636 31.4046 42.7636C27.9252 42.7636 25.1046 39.943 25.1046 36.4636C25.1081 32.9856 27.9266 30.1671 31.4046 30.1636ZM19.8546 31.2136C21.4152 31.2129 22.8464 32.0807 23.5674 33.4648C23.0027 34.9108 22.8593 36.4871 23.1537 38.0113C23.1001 38.0785 23.0487 38.1457 22.9773 38.2213C21.6879 39.6558 19.5872 40.0276 17.8838 39.123C16.1803 38.2183 15.312 36.2697 15.7783 34.3981C16.2447 32.5265 17.9258 31.2132 19.8546 31.2136ZM20.9865 48.0136H17.7546V45.9136C17.7546 45.3337 17.2845 44.8636 16.7046 44.8636C16.1247 44.8636 15.6546 45.3337 15.6546 45.9136V48.0136H13.5546V44.1601C13.5569 42.546 14.3937 41.0478 15.7669 40.1995C18.1046 42.2073 21.5544 42.2198 23.9065 40.2289C24.2029 40.8189 24.5673 41.3721 24.9922 41.8774C22.79 43.2038 21.3147 45.4638 20.9865 48.0136ZM39.8046 54.3136H36.6546V51.1636C36.6546 50.5837 36.1845 50.1136 35.6046 50.1136C35.0247 50.1136 34.5546 50.5837 34.5546 51.1636V54.3136H28.2546V51.1636C28.2546 50.5837 27.7845 50.1136 27.2046 50.1136C26.6247 50.1136 26.1546 50.5837 26.1546 51.1636V54.3136H23.0046V49.0636C23.0145 46.6234 24.4316 44.4079 26.6428 43.3757C29.5074 45.3597 33.3018 45.3597 36.1663 43.3757C38.3776 44.4079 39.7947 46.6234 39.8046 49.0636V54.3136ZM49.2546 48.0136H47.1546V45.9136C47.1546 45.3337 46.6845 44.8636 46.1046 44.8636C45.5247 44.8636 45.0546 45.3337 45.0546 45.9136V48.0136H41.8227C41.4945 45.4638 40.0191 43.2038 37.8169 41.8774C38.2423 41.3724 38.6067 40.8191 38.9026 40.2289C41.2552 42.2195 44.7051 42.207 47.0433 40.1995C48.4163 41.0479 49.2528 42.5461 49.2546 44.1601V48.0136ZM42.9546 31.2136C44.8842 31.2134 46.5656 32.5281 47.031 34.4007C47.4963 36.2734 46.6258 38.2222 44.9206 39.1252C43.2153 40.0283 41.1142 39.6533 39.8266 38.216C39.7615 38.1425 39.708 38.0774 39.6555 38.0123C39.9499 36.4879 39.8064 34.9111 39.2418 33.4648C39.9627 32.0807 41.394 31.2129 42.9546 31.2136Z" fill="black"/>
</g>
<defs>
<clipPath id="clip0_1290_2368">
<rect width="63" height="63" fill="white"/>
</clipPath>
</defs>
</svg>
