<svg width="19" height="16" viewBox="0 0 19 16" fill="none" xmlns="http://www.w3.org/2000/svg">
<g clip-path="url(#clip0_1290_1861)">
<path d="M13.3219 2.30456C13.5207 2.14065 13.7568 2.01063 14.0165 1.92193C14.2762 1.83322 14.5546 1.78757 14.8358 1.78757C15.1169 1.78757 15.3953 1.83322 15.6551 1.92193C15.9148 2.01063 16.1508 2.14065 16.3496 2.30456C16.5485 2.46846 16.7062 2.66305 16.8137 2.8772C16.9213 3.09135 16.9767 3.32088 16.9767 3.55268C16.9767 3.78448 16.9213 4.01401 16.8137 4.22816C16.7062 4.44231 16.5485 4.6369 16.3496 4.8008L6.13112 13.2256L1.96802 14.1617L3.10341 10.7294L13.3219 2.30456Z" stroke="black" stroke-width="2" stroke-linecap="round" stroke-linejoin="round"/>
</g>
<defs>
<clipPath id="clip0_1290_1861">
<rect width="18.1663" height="14.9775" fill="white" transform="translate(0.454102 0.432373)"/>
</clipPath>
</defs>
</svg>
