<svg width="105" height="105" viewBox="0 0 105 105" fill="none" xmlns="http://www.w3.org/2000/svg">
<path d="M60.7031 77.1094L36.0938 101.719L11.4844 77.1094" fill="#0A8996"/>
<path d="M53.1792 77.1094H48.5363L36.0938 89.5519L23.6496 77.1094H19.0083L34.9322 93.0333C35.0846 93.1858 35.2655 93.3068 35.4647 93.3894C35.6639 93.472 35.8773 93.5145 36.0929 93.5145C36.3086 93.5145 36.522 93.472 36.7212 93.3894C36.9204 93.3068 37.1013 93.1858 37.2537 93.0333L53.1792 77.1094Z" fill="#14335D"/>
<path d="M44.2969 27.8906L68.9062 3.28125L93.5156 27.8906" fill="#0A8996"/>
<path d="M70.0662 11.9618C69.7517 11.6667 69.3367 11.5025 68.9054 11.5025C68.4742 11.5025 68.0592 11.6667 67.7447 11.9618L51.8175 27.8906H56.4588L68.9063 15.4432L81.352 27.8906H85.9934L70.0662 11.9618Z" fill="#14335D"/>
<path d="M3.28125 27.8906H101.719V77.1094H3.28125V27.8906Z" fill="#09BCB1"/>
<path d="M52.5 68.9062C61.5609 68.9062 68.9062 61.5609 68.9062 52.5C68.9062 43.4391 61.5609 36.0938 52.5 36.0938C43.4391 36.0938 36.0938 43.4391 36.0938 52.5C36.0938 61.5609 43.4391 68.9062 52.5 68.9062Z" fill="#0A8996"/>
<path d="M32.8125 72.1875H9.84375C9.40863 72.1875 8.99133 72.0146 8.68365 71.707C8.37598 71.3993 8.20312 70.982 8.20312 70.5469V34.4531C8.20312 34.018 8.37598 33.6007 8.68365 33.293C8.99133 32.9853 9.40863 32.8125 9.84375 32.8125H32.8125V36.0938H11.4844V68.9062H32.8125V72.1875Z" fill="#14335D"/>
<path d="M95.1562 72.1875H80.3906V68.9062H93.5156V36.0938H72.1875V32.8125H95.1562C95.5914 32.8125 96.0087 32.9853 96.3163 33.293C96.624 33.6007 96.7969 34.018 96.7969 34.4531V70.5469C96.7969 70.982 96.624 71.3993 96.3163 71.707C96.0087 72.0146 95.5914 72.1875 95.1562 72.1875Z" fill="#14335D"/>
<path d="M16.4062 49.2188H29.5312V55.7812H16.4062V49.2188Z" fill="#0A8996"/>
<path d="M75.4688 49.2188H88.5938V55.7812H75.4688V49.2188Z" fill="#0A8996"/>
<path d="M80.3906 101.719C89.4515 101.719 96.7969 94.3734 96.7969 85.3125C96.7969 76.2516 89.4515 68.9062 80.3906 68.9062C71.3297 68.9062 63.9844 76.2516 63.9844 85.3125C63.9844 94.3734 71.3297 101.719 80.3906 101.719Z" fill="#F7D881"/>
<path d="M101.719 26.25H94.1932L70.0662 2.11804C69.7519 1.82261 69.3368 1.65814 68.9054 1.65814C68.4741 1.65814 68.059 1.82261 67.7447 2.11804L43.616 26.25H3.28125C2.84613 26.25 2.42883 26.4228 2.12115 26.7305C1.81348 27.0382 1.64063 27.4555 1.64062 27.8906V77.1094C1.64063 77.5445 1.81348 77.9618 2.12115 78.2695C2.42883 78.5771 2.84613 78.75 3.28125 78.75H10.8035L34.9322 102.877C35.0846 103.03 35.2655 103.151 35.4647 103.233C35.6638 103.316 35.8773 103.358 36.0929 103.358C36.3085 103.358 36.522 103.316 36.7212 103.233C36.9204 103.151 37.1013 103.03 37.2537 102.877L61.384 78.75H63.5972C62.5204 81.4864 62.1286 84.4445 62.4559 87.3669C62.7832 90.2892 63.8196 93.0874 65.475 95.5178C67.1305 97.9482 69.3547 99.9373 71.9543 101.312C74.5539 102.687 77.45 103.405 80.3906 103.405C83.3313 103.405 86.2274 102.687 88.8269 101.312C91.4265 99.9373 93.6508 97.9482 95.3062 95.5178C96.9617 93.0874 97.9981 90.2892 98.3254 87.3669C98.6527 84.4445 98.2609 81.4864 97.1841 78.75H101.719C102.154 78.75 102.571 78.5771 102.879 78.2695C103.187 77.9618 103.359 77.5445 103.359 77.1094V27.8906C103.359 27.4555 103.187 27.0382 102.879 26.7305C102.571 26.4228 102.154 26.25 101.719 26.25ZM68.9062 5.59944L89.5519 26.25H84.3511L70.0662 11.9618C69.7519 11.6664 69.3368 11.5019 68.9054 11.5019C68.4741 11.5019 68.059 11.6664 67.7447 11.9618L53.4598 26.25H48.259L68.9062 5.59944ZM79.7081 26.25H58.1027L68.9062 15.4432L79.7081 26.25ZM36.0938 99.3956L15.4465 78.75H20.6473L34.9322 93.0349C35.0846 93.1874 35.2655 93.3085 35.4647 93.391C35.6638 93.4736 35.8773 93.5161 36.0929 93.5161C36.3085 93.5161 36.522 93.4736 36.7212 93.391C36.9204 93.3085 37.1013 93.1874 37.2537 93.0349L51.5386 78.75H56.741L36.0938 99.3956ZM25.2886 78.75H46.8956L36.0938 89.5519L25.2886 78.75ZM80.3906 100.078C77.4703 100.078 74.6155 99.2121 72.1873 97.5897C69.7591 95.9672 67.8665 93.6611 66.749 90.963C65.6314 88.265 65.339 85.2961 65.9087 82.4319C66.4785 79.5676 67.8847 76.9366 69.9498 74.8716C72.0148 72.8066 74.6457 71.4003 77.51 70.8306C80.3742 70.2608 83.3431 70.5533 86.0412 71.6708C88.7393 72.7884 91.0453 74.6809 92.6678 77.1091C94.2903 79.5373 95.1562 82.3921 95.1562 85.3125C95.1523 89.2274 93.5954 92.9808 90.8272 95.749C88.0589 98.5173 84.3055 100.074 80.3906 100.078ZM100.078 75.4687H95.4959C94.7091 74.2696 93.7828 73.1682 92.7363 72.1875H95.1562C95.5914 72.1875 96.0087 72.0146 96.3163 71.707C96.624 71.3993 96.7969 70.982 96.7969 70.5469V34.4531C96.7969 34.018 96.624 33.6007 96.3163 33.293C96.0087 32.9853 95.5914 32.8125 95.1562 32.8125H72.1875V36.0937H93.5156V68.9062H87.862C83.9382 67.1041 79.4965 66.7756 75.3502 67.9807C71.2038 69.1859 67.6303 71.8441 65.2837 75.4687H4.92188V29.5312H100.078V75.4687Z" fill="black"/>
<path d="M52.5 70.5469C56.0693 70.5469 59.5585 69.4884 62.5263 67.5054C65.4941 65.5224 67.8072 62.7039 69.1731 59.4062C70.5391 56.1086 70.8965 52.48 70.2001 48.9792C69.5038 45.4785 67.785 42.2628 65.2611 39.7389C62.7372 37.215 59.5215 35.4962 56.0208 34.7999C52.52 34.1036 48.8914 34.4609 45.5938 35.8269C42.2961 37.1928 39.4776 39.5059 37.4946 42.4737C35.5116 45.4415 34.4531 48.9307 34.4531 52.5C34.4588 57.2846 36.3619 61.8716 39.7452 65.2548C43.1284 68.6381 47.7154 70.5412 52.5 70.5469ZM52.5 37.7344C55.4204 37.7344 58.2751 38.6004 60.7033 40.2228C63.1315 41.8453 65.0241 44.1514 66.1417 46.8494C67.2592 49.5475 67.5516 52.5164 66.9819 55.3806C66.4122 58.2449 65.0059 60.8759 62.9409 62.9409C60.8759 65.0059 58.2449 66.4122 55.3806 66.9819C52.5164 67.5517 49.5475 67.2592 46.8494 66.1417C44.1514 65.0241 41.8453 63.1315 40.2228 60.7034C38.6004 58.2752 37.7344 55.4204 37.7344 52.5C37.7387 48.5853 39.2958 44.8321 42.0639 42.0639C44.8321 39.2958 48.5852 37.7387 52.5 37.7344Z" fill="black"/>
<path d="M9.84375 72.1875H32.8125V68.9062H11.4844V36.0938H32.8125V32.8125H9.84375C9.40863 32.8125 8.99133 32.9853 8.68365 33.293C8.37598 33.6007 8.20312 34.018 8.20312 34.4531V70.5469C8.20312 70.982 8.37598 71.3993 8.68365 71.707C8.99133 72.0146 9.40863 72.1875 9.84375 72.1875Z" fill="black"/>
<path d="M16.4062 47.5781C15.9711 47.5781 15.5538 47.751 15.2462 48.0587C14.9385 48.3663 14.7656 48.7836 14.7656 49.2188V55.7812C14.7656 56.2164 14.9385 56.6337 15.2462 56.9413C15.5538 57.249 15.9711 57.4219 16.4062 57.4219H29.5312C29.9664 57.4219 30.3837 57.249 30.6913 56.9413C30.999 56.6337 31.1719 56.2164 31.1719 55.7812V49.2188C31.1719 48.7836 30.999 48.3663 30.6913 48.0587C30.3837 47.751 29.9664 47.5781 29.5312 47.5781H16.4062ZM27.8906 54.1406H18.0469V50.8594H27.8906V54.1406Z" fill="black"/>
<path d="M75.4688 57.4219H88.5938C89.0289 57.4219 89.4462 57.249 89.7538 56.9413C90.0615 56.6337 90.2344 56.2164 90.2344 55.7812V49.2188C90.2344 48.7836 90.0615 48.3663 89.7538 48.0587C89.4462 47.751 89.0289 47.5781 88.5938 47.5781H75.4688C75.0336 47.5781 74.6163 47.751 74.3087 48.0587C74.001 48.3663 73.8281 48.7836 73.8281 49.2188V55.7812C73.8281 56.2164 74.001 56.6337 74.3087 56.9413C74.6163 57.249 75.0336 57.4219 75.4688 57.4219ZM77.1094 50.8594H86.9531V54.1406H77.1094V50.8594Z" fill="black"/>
<path d="M56.8097 49.7541L56.369 51.4324H48.2735L48.7081 49.7541H56.8097ZM52.602 59.051L48.4727 54.1369L48.4787 52.6277H50.5192C50.974 52.6277 51.3543 52.5432 51.6602 52.3741C51.9661 52.2051 52.1955 51.9757 52.3484 51.6859C52.5013 51.3961 52.5798 51.0661 52.5839 50.6959C52.5798 50.1405 52.4168 49.6877 52.0949 49.3375C51.7769 48.9834 51.2517 48.8063 50.5192 48.8063H48.2735L48.7685 46.6873H50.5192C51.5455 46.6873 52.4007 46.8423 53.0849 47.1522C53.7731 47.458 54.2883 47.8947 54.6304 48.4622C54.9765 49.0297 55.1516 49.7058 55.1556 50.4906C55.1516 51.1869 55.0348 51.7946 54.8054 52.3137C54.5801 52.8329 54.2239 53.2656 53.7369 53.6117C53.254 53.9578 52.6241 54.2154 51.8473 54.3844L51.7508 54.4206L55.4454 58.9423V59.051H52.602ZM56.8218 46.6873L56.369 48.3897H49.7042L50.157 46.6873H56.8218Z" fill="black"/>
<path d="M84.6631 81.7881L84.2735 83.6879L75.239 84.1813L75.6218 82.2818L84.6631 81.7881ZM80.5338 92.4197L75.6262 87.1873L75.5409 85.5027L77.8181 85.3783C78.3256 85.3506 78.7449 85.2331 79.0759 85.0259C79.407 84.8186 79.649 84.5486 79.802 84.2159C79.9551 83.8832 80.0225 83.5101 80.0045 83.0966C79.9661 82.4771 79.7566 81.9817 79.376 81.6106C78.9996 81.2347 78.4026 81.0691 77.5852 81.1137L75.079 81.2506L75.5023 78.8557L77.4561 78.749C78.6014 78.6865 79.5653 78.8073 80.3477 79.1114C81.1344 79.4108 81.7359 79.8668 82.1522 80.4792C82.5731 81.0914 82.8096 81.8353 82.862 82.7109C82.8999 83.4881 82.8067 84.1734 82.5823 84.7668C82.3624 85.3599 81.9913 85.8645 81.4689 86.2804C80.9511 86.6961 80.2639 87.0219 79.4073 87.2579L79.3017 87.3042L83.7004 92.1252L83.707 92.2464L80.5338 92.4197ZM84.4896 78.3649L84.0881 80.2924L76.6503 80.6986L77.0519 78.7711L84.4896 78.3649Z" fill="black"/>
</svg>
