<svg width="70" height="70" viewBox="0 0 70 70" fill="none" xmlns="http://www.w3.org/2000/svg">
<path d="M36.3672 17.1266H67.6074C68.3625 17.1266 68.9746 17.7387 68.9746 18.4938V68.9746H35V18.4938C35 17.7387 35.6121 17.1266 36.3672 17.1266Z" fill="#3A5264"/>
<path d="M2.39258 28.1307H33.6328C34.3879 28.1307 35 28.7428 35 29.4979V68.9746H1.02539V29.4979C1.02539 28.7428 1.63748 28.1307 2.39258 28.1307Z" fill="#283C51"/>
<path d="M18.0127 1.02539H51.9873C52.7424 1.02539 53.3545 1.63748 53.3545 2.39258V68.9746H16.6455V2.39258C16.6455 1.63748 17.2576 1.02539 18.0127 1.02539Z" fill="white"/>
<path d="M38.418 39.4523H46.097C46.8521 39.4523 47.4642 40.0644 47.4642 40.8195V44.9696C47.4642 45.7247 46.8521 46.3367 46.097 46.3367H38.418C37.6629 46.3367 37.0508 45.7247 37.0508 44.9696V40.8195C37.0508 40.0644 37.6629 39.4523 38.418 39.4523Z" fill="#78DCE3"/>
<path d="M23.903 39.4523H31.582C32.3371 39.4523 32.9492 40.0644 32.9492 40.8195V44.9696C32.9492 45.7247 32.3371 46.3367 31.582 46.3367H23.903C23.1479 46.3367 22.5358 45.7247 22.5358 44.9696V40.8195C22.5358 40.0644 23.1479 39.4523 23.903 39.4523Z" fill="#78DCE3"/>
<path d="M41.1523 44.9696V40.8195C41.1523 40.0644 41.7644 39.4523 42.5195 39.4523H38.418C37.6629 39.4523 37.0508 40.0644 37.0508 40.8195V44.9696C37.0508 45.7247 37.6629 46.3367 38.418 46.3367H42.5195C41.7644 46.3367 41.1523 45.7247 41.1523 44.9696Z" fill="#4EB3DA"/>
<path d="M26.6373 44.9696V40.8195C26.6373 40.0644 27.2494 39.4523 28.0045 39.4523H23.903C23.1479 39.4523 22.5358 40.0644 22.5358 40.8195V44.9696C22.5358 45.7247 23.1479 46.3367 23.903 46.3367H28.0045C27.2496 46.3367 26.6373 45.7247 26.6373 44.9696Z" fill="#4EB3DA"/>
<path d="M40.4688 51.5096H29.5312C28.7762 51.5096 28.1641 52.1217 28.1641 52.8768V68.9746H41.8359V52.8768C41.8359 52.1217 41.2238 51.5096 40.4688 51.5096Z" fill="#78DCE3"/>
<path d="M28.1641 52.8768V68.9746H33.6328V51.5096H29.5312C28.7762 51.5096 28.1641 52.1217 28.1641 52.8768Z" fill="#4EB3DA"/>
<path d="M23.4814 1.02539H18.0127C17.2576 1.02539 16.6455 1.63748 16.6455 2.39258V68.9746H22.1143V2.39258C22.1143 1.63748 22.7263 1.02539 23.4814 1.02539Z" fill="#CDCFCF"/>
<path d="M23.903 6.49414H31.582C32.3371 6.49414 32.9492 7.10623 32.9492 7.86133V12.0114C32.9492 12.7665 32.3371 13.3786 31.582 13.3786H23.903C23.1479 13.3786 22.5358 12.7665 22.5358 12.0114V7.86133C22.5358 7.10623 23.1479 6.49414 23.903 6.49414Z" fill="#78DCE3"/>
<path d="M26.6373 12.0114V7.86133C26.6373 7.10623 27.2494 6.49414 28.0045 6.49414H23.903C23.1479 6.49414 22.5358 7.10623 22.5358 7.86133V12.0114C22.5358 12.7665 23.1479 13.3786 23.903 13.3786H28.0045C27.2496 13.3786 26.6373 12.7665 26.6373 12.0114Z" fill="#4EB3DA"/>
<path d="M38.418 6.49414H46.097C46.8521 6.49414 47.4642 7.10623 47.4642 7.86133V12.0114C47.4642 12.7665 46.8521 13.3786 46.097 13.3786H38.418C37.6629 13.3786 37.0508 12.7665 37.0508 12.0114V7.86133C37.0508 7.10623 37.6629 6.49414 38.418 6.49414Z" fill="#78DCE3"/>
<path d="M41.1523 12.0114V7.86133C41.1523 7.10623 41.7644 6.49414 42.5195 6.49414H38.418C37.6629 6.49414 37.0508 7.10623 37.0508 7.86133V12.0114C37.0508 12.7665 37.6629 13.3786 38.418 13.3786H42.5195C41.7644 13.3786 41.1523 12.7665 41.1523 12.0114Z" fill="#4EB3DA"/>
<path d="M38.418 17.4802H46.097C46.8521 17.4802 47.4642 18.0923 47.4642 18.8474V22.9975C47.4642 23.7526 46.8521 24.3647 46.097 24.3647H38.418C37.6629 24.3647 37.0508 23.7526 37.0508 22.9975V18.8474C37.0508 18.0923 37.6629 17.4802 38.418 17.4802Z" fill="#78DCE3"/>
<path d="M41.1523 22.9975V18.8474C41.1523 18.0923 41.7644 17.4802 42.5195 17.4802H38.418C37.6629 17.4802 37.0508 18.0923 37.0508 18.8474V22.9975C37.0508 23.7526 37.6629 24.3647 38.418 24.3647H42.5195C41.7644 24.3647 41.1523 23.7526 41.1523 22.9975Z" fill="#4EB3DA"/>
<path d="M38.418 28.4662H46.097C46.8521 28.4662 47.4642 29.0783 47.4642 29.8334V33.9835C47.4642 34.7386 46.8521 35.3507 46.097 35.3507H38.418C37.6629 35.3507 37.0508 34.7386 37.0508 33.9835V29.8334C37.0508 29.0783 37.6629 28.4662 38.418 28.4662Z" fill="#78DCE3"/>
<path d="M41.1523 33.9835V29.8334C41.1523 29.0783 41.7644 28.4662 42.5195 28.4662H38.418C37.6629 28.4662 37.0508 29.0783 37.0508 29.8334V33.9835C37.0508 34.7386 37.6629 35.3507 38.418 35.3507H42.5195C41.7644 35.3507 41.1523 34.7386 41.1523 33.9835Z" fill="#4EB3DA"/>
<path d="M58.0087 53.3531H64.3206C65.0757 53.3531 65.6878 53.9652 65.6878 54.7203V58.8704C65.6878 59.6255 65.0757 60.2376 64.3206 60.2376H58.0087C57.2536 60.2376 56.6415 59.6255 56.6415 58.8704V54.7203C56.6415 53.9652 57.2536 53.3531 58.0087 53.3531Z" fill="#4EB3DA"/>
<path d="M58.0087 20.3949H64.3206C65.0757 20.3949 65.6878 21.007 65.6878 21.7621V25.9122C65.6878 26.6673 65.0757 27.2794 64.3206 27.2794H58.0087C57.2536 27.2794 56.6415 26.6673 56.6415 25.9122V21.7621C56.6415 21.0071 57.2536 20.3949 58.0087 20.3949Z" fill="#4EB3DA"/>
<path d="M58.0087 31.381H64.3206C65.0757 31.381 65.6878 31.9931 65.6878 32.7482V36.8983C65.6878 37.6534 65.0757 38.2655 64.3206 38.2655H58.0087C57.2536 38.2655 56.6415 37.6534 56.6415 36.8983V32.7482C56.6415 31.9932 57.2536 31.381 58.0087 31.381Z" fill="#4EB3DA"/>
<path d="M58.0087 42.3669H64.3206C65.0757 42.3669 65.6878 42.979 65.6878 43.7341V47.8842C65.6878 48.6393 65.0757 49.2514 64.3206 49.2514H58.0087C57.2536 49.2514 56.6415 48.6393 56.6415 47.8842V43.7341C56.6415 42.9792 57.2536 42.3669 58.0087 42.3669Z" fill="#4EB3DA"/>
<path d="M5.67957 31.3809H11.9915C12.7466 31.3809 13.3586 31.9929 13.3586 32.748V36.8981C13.3586 37.6532 12.7466 38.2653 11.9915 38.2653H5.67957C4.92447 38.2653 4.31238 37.6532 4.31238 36.8981V32.748C4.31238 31.9931 4.92447 31.3809 5.67957 31.3809Z" fill="#4C9DD8"/>
<path d="M5.67957 42.3669H11.9915C12.7466 42.3669 13.3586 42.979 13.3586 43.7341V47.8842C13.3586 48.6393 12.7466 49.2514 11.9915 49.2514H5.67957C4.92447 49.2514 4.31238 48.6393 4.31238 47.8842V43.7341C4.31238 42.9792 4.92447 42.3669 5.67957 42.3669Z" fill="#4C9DD8"/>
<path d="M5.67957 53.353H11.9915C12.7466 53.353 13.3586 53.9651 13.3586 54.7202V58.8703C13.3586 59.6254 12.7466 60.2375 11.9915 60.2375H5.67957C4.92447 60.2375 4.31238 59.6254 4.31238 58.8703V54.7202C4.31238 53.9651 4.92447 53.353 5.67957 53.353Z" fill="#4C9DD8"/>
<path d="M23.903 17.4802H31.582C32.3371 17.4802 32.9492 18.0923 32.9492 18.8474V22.9975C32.9492 23.7526 32.3371 24.3647 31.582 24.3647H23.903C23.1479 24.3647 22.5358 23.7526 22.5358 22.9975V18.8474C22.5358 18.0923 23.1479 17.4802 23.903 17.4802Z" fill="#78DCE3"/>
<path d="M26.6373 22.9975V18.8474C26.6373 18.0923 27.2494 17.4802 28.0045 17.4802H23.903C23.1479 17.4802 22.5358 18.0923 22.5358 18.8474V22.9975C22.5358 23.7526 23.1479 24.3647 23.903 24.3647H28.0045C27.2496 24.3647 26.6373 23.7526 26.6373 22.9975Z" fill="#4EB3DA"/>
<path d="M23.903 28.4662H31.582C32.3371 28.4662 32.9492 29.0783 32.9492 29.8334V33.9835C32.9492 34.7386 32.3371 35.3507 31.582 35.3507H23.903C23.1479 35.3507 22.5358 34.7386 22.5358 33.9835V29.8334C22.5358 29.0783 23.1479 28.4662 23.903 28.4662Z" fill="#78DCE3"/>
<path d="M26.6373 33.9835V29.8334C26.6373 29.0783 27.2494 28.4662 28.0045 28.4662H23.903C23.1479 28.4662 22.5358 29.0783 22.5358 29.8334V33.9835C22.5358 34.7386 23.1479 35.3507 23.903 35.3507H28.0045C27.2496 35.3507 26.6373 34.7386 26.6373 33.9835Z" fill="#4EB3DA"/>
<path d="M67.6074 16.1012H54.3799V2.39258C54.3799 1.07338 53.3065 0 51.9873 0H18.0127C16.6935 0 15.6201 1.07338 15.6201 2.39258V8.02225C15.6201 8.58854 16.0791 9.04764 16.6455 9.04764C17.2119 9.04764 17.6709 8.58854 17.6709 8.02225V2.39258C17.6709 2.20418 17.8242 2.05078 18.0127 2.05078H51.9873C52.1758 2.05078 52.3291 2.20418 52.3291 2.39258V54.8812C52.3291 55.4475 52.7881 55.9066 53.3545 55.9066C53.9209 55.9066 54.3799 55.4475 54.3799 54.8812V18.152H67.6074C67.796 18.152 67.9492 18.3054 67.9492 18.4938V67.9492H54.3799V58.7094C54.3799 58.1431 53.9209 57.684 53.3545 57.684C52.7881 57.684 52.3291 58.1431 52.3291 58.7094V67.9492H42.8613V52.8768C42.8613 51.5576 41.7879 50.4842 40.4688 50.4842H29.5312C28.2121 50.4842 27.1387 51.5576 27.1387 52.8768V67.9492H17.6709V11.8504C17.6709 11.2841 17.2119 10.825 16.6455 10.825C16.0791 10.825 15.6201 11.2841 15.6201 11.8504V27.1053H2.39258C1.07338 27.1053 0 28.1787 0 29.4979V68.9746C0 69.5409 0.458965 70 1.02539 70H16.6455H53.3545H68.9746C69.541 70 70 69.5409 70 68.9746V18.4938C70 17.1746 68.9266 16.1012 67.6074 16.1012ZM2.05078 29.4979C2.05078 29.3095 2.20404 29.1561 2.39258 29.1561H15.6201V67.9492H2.05078V29.4979ZM29.1895 52.8768C29.1895 52.6884 29.3427 52.535 29.5312 52.535H40.4688C40.6573 52.535 40.8105 52.6884 40.8105 52.8768V67.9492H29.1895V52.8768Z" fill="black"/>
<path d="M23.903 14.404H31.582C32.9012 14.404 33.9746 13.3306 33.9746 12.0114V7.86133C33.9746 6.54213 32.9012 5.46875 31.582 5.46875H23.903C22.5838 5.46875 21.5104 6.54213 21.5104 7.86133V12.0114C21.5104 13.3306 22.5838 14.404 23.903 14.404ZM23.5612 7.86133C23.5612 7.67293 23.7144 7.51953 23.903 7.51953H31.582C31.7706 7.51953 31.9238 7.67293 31.9238 7.86133V12.0114C31.9238 12.1998 31.7706 12.3532 31.582 12.3532H23.903C23.7144 12.3532 23.5612 12.1998 23.5612 12.0114V7.86133Z" fill="black"/>
<path d="M38.418 14.404H46.097C47.4162 14.404 48.4896 13.3306 48.4896 12.0114V7.86133C48.4896 6.54213 47.4162 5.46875 46.097 5.46875H38.418C37.0988 5.46875 36.0254 6.54213 36.0254 7.86133V12.0114C36.0254 13.3306 37.0988 14.404 38.418 14.404ZM38.0762 7.86133C38.0762 7.67293 38.2294 7.51953 38.418 7.51953H46.097C46.2856 7.51953 46.4388 7.67293 46.4388 7.86133V12.0114C46.4388 12.1998 46.2856 12.3532 46.097 12.3532H38.418C38.2294 12.3532 38.0762 12.1998 38.0762 12.0114V7.86133Z" fill="black"/>
<path d="M36.0254 22.9975C36.0254 24.3167 37.0988 25.3901 38.418 25.3901H46.097C47.4162 25.3901 48.4896 24.3167 48.4896 22.9975V18.8474C48.4896 17.5282 47.4162 16.4548 46.097 16.4548H38.418C37.0988 16.4548 36.0254 17.5282 36.0254 18.8474V22.9975ZM38.0762 18.8474C38.0762 18.659 38.2294 18.5056 38.418 18.5056H46.097C46.2856 18.5056 46.4388 18.659 46.4388 18.8474V22.9975C46.4388 23.1859 46.2856 23.3393 46.097 23.3393H38.418C38.2294 23.3393 38.0762 23.1859 38.0762 22.9975V18.8474Z" fill="black"/>
<path d="M36.0254 33.9835C36.0254 35.3027 37.0988 36.376 38.418 36.376H46.097C47.4162 36.376 48.4896 35.3027 48.4896 33.9835V29.8334C48.4896 28.5142 47.4162 27.4408 46.097 27.4408H38.418C37.0988 27.4408 36.0254 28.5142 36.0254 29.8334V33.9835ZM38.0762 29.8334C38.0762 29.645 38.2294 29.4916 38.418 29.4916H46.097C46.2856 29.4916 46.4388 29.645 46.4388 29.8334V33.9835C46.4388 34.1719 46.2856 34.3253 46.097 34.3253H38.418C38.2294 34.3253 38.0762 34.1719 38.0762 33.9835V29.8334Z" fill="black"/>
<path d="M21.5104 22.9975C21.5104 24.3167 22.5838 25.3901 23.903 25.3901H31.582C32.9012 25.3901 33.9746 24.3167 33.9746 22.9975V18.8474C33.9746 17.5282 32.9012 16.4548 31.582 16.4548H23.903C22.5838 16.4548 21.5104 17.5282 21.5104 18.8474V22.9975ZM23.5612 18.8474C23.5612 18.659 23.7144 18.5056 23.903 18.5056H31.582C31.7706 18.5056 31.9238 18.659 31.9238 18.8474V22.9975C31.9238 23.1859 31.7706 23.3393 31.582 23.3393H23.903C23.7144 23.3393 23.5612 23.1859 23.5612 22.9975V18.8474Z" fill="black"/>
<path d="M21.5104 33.9835C21.5104 35.3027 22.5838 36.376 23.903 36.376H31.582C32.9012 36.376 33.9746 35.3027 33.9746 33.9835V29.8334C33.9746 28.5142 32.9012 27.4408 31.582 27.4408H23.903C22.5838 27.4408 21.5104 28.5142 21.5104 29.8334V33.9835ZM23.5612 29.8334C23.5612 29.645 23.7144 29.4916 23.903 29.4916H31.582C31.7706 29.4916 31.9238 29.645 31.9238 29.8334V33.9835C31.9238 34.1719 31.7706 34.3253 31.582 34.3253H23.903C23.7144 34.3253 23.5612 34.1719 23.5612 33.9835V29.8334Z" fill="black"/>
<path d="M36.0254 44.9696C36.0254 46.2888 37.0988 47.3621 38.418 47.3621H46.097C47.4162 47.3621 48.4896 46.2888 48.4896 44.9696V40.8195C48.4896 39.5003 47.4162 38.4269 46.097 38.4269H38.418C37.0988 38.4269 36.0254 39.5003 36.0254 40.8195V44.9696ZM38.0762 40.8195C38.0762 40.6311 38.2294 40.4777 38.418 40.4777H46.097C46.2856 40.4777 46.4388 40.6311 46.4388 40.8195V44.9696C46.4388 45.158 46.2856 45.3114 46.097 45.3114H38.418C38.2294 45.3114 38.0762 45.158 38.0762 44.9696V40.8195Z" fill="black"/>
<path d="M21.5104 44.9696C21.5104 46.2888 22.5838 47.3621 23.903 47.3621H31.582C32.9012 47.3621 33.9746 46.2888 33.9746 44.9696V40.8195C33.9746 39.5003 32.9012 38.4269 31.582 38.4269H23.903C22.5838 38.4269 21.5104 39.5003 21.5104 40.8195V44.9696ZM23.5612 40.8195C23.5612 40.6311 23.7144 40.4777 23.903 40.4777H31.582C31.7706 40.4777 31.9238 40.6311 31.9238 40.8195V44.9696C31.9238 45.158 31.7706 45.3114 31.582 45.3114H23.903C23.7144 45.3114 23.5612 45.158 23.5612 44.9696V40.8195Z" fill="black"/>
<path d="M55.6161 58.8704C55.6161 60.1896 56.6895 61.263 58.0087 61.263H64.3204C65.6396 61.263 66.713 60.1896 66.713 58.8704V54.7203C66.713 53.4011 65.6396 52.3278 64.3204 52.3278H58.0087C56.6895 52.3278 55.6161 53.4011 55.6161 54.7203V58.8704ZM57.6669 54.7202C57.6669 54.5318 57.8201 54.3784 58.0087 54.3784H64.3204C64.509 54.3784 64.6622 54.5318 64.6622 54.7202V58.8703C64.6622 59.0587 64.509 59.2121 64.3204 59.2121H58.0087C57.8201 59.2121 57.6669 59.0587 57.6669 58.8703V54.7202Z" fill="black"/>
<path d="M58.0087 28.3048H64.3204C65.6396 28.3048 66.713 27.2314 66.713 25.9122V21.7621C66.713 20.4429 65.6396 19.3695 64.3204 19.3695H58.0087C56.6895 19.3695 55.6161 20.4429 55.6161 21.7621V25.9122C55.6161 27.2315 56.6895 28.3048 58.0087 28.3048ZM57.6669 21.7621C57.6669 21.5737 57.8201 21.4203 58.0087 21.4203H64.3204C64.509 21.4203 64.6622 21.5737 64.6622 21.7621V25.9122C64.6622 26.1006 64.509 26.254 64.3204 26.254H58.0087C57.8201 26.254 57.6669 26.1006 57.6669 25.9122V21.7621Z" fill="black"/>
<path d="M55.6161 36.8981C55.6161 38.2173 56.6895 39.2907 58.0087 39.2907H64.3204C65.6396 39.2907 66.713 38.2173 66.713 36.8981V32.748C66.713 31.4288 65.6396 30.3555 64.3204 30.3555H58.0087C56.6895 30.3555 55.6161 31.4288 55.6161 32.748V36.8981ZM57.6669 32.748C57.6669 32.5596 57.8201 32.4062 58.0087 32.4062H64.3204C64.509 32.4062 64.6622 32.5596 64.6622 32.748V36.8981C64.6622 37.0865 64.509 37.2399 64.3204 37.2399H58.0087C57.8201 37.2399 57.6669 37.0865 57.6669 36.8981V32.748Z" fill="black"/>
<path d="M55.6161 47.8842C55.6161 49.2034 56.6895 50.2768 58.0087 50.2768H64.3204C65.6396 50.2768 66.713 49.2034 66.713 47.8842V43.7341C66.713 42.4149 65.6396 41.3416 64.3204 41.3416H58.0087C56.6895 41.3416 55.6161 42.4149 55.6161 43.7341V47.8842ZM57.6669 43.7341C57.6669 43.5457 57.8201 43.3923 58.0087 43.3923H64.3204C64.509 43.3923 64.6622 43.5457 64.6622 43.7341V47.8842C64.6622 48.0726 64.509 48.226 64.3204 48.226H58.0087C57.8201 48.226 57.6669 48.0726 57.6669 47.8842V43.7341Z" fill="black"/>
<path d="M11.9913 30.3555H5.67957C4.36037 30.3555 3.28699 31.4288 3.28699 32.748V36.8981C3.28699 38.2173 4.36037 39.2907 5.67957 39.2907H11.9913C13.3105 39.2907 14.3839 38.2173 14.3839 36.8981V32.748C14.3839 31.4288 13.3105 30.3555 11.9913 30.3555ZM12.3331 36.8981C12.3331 37.0865 12.1799 37.2399 11.9913 37.2399H5.67957C5.49103 37.2399 5.33777 37.0865 5.33777 36.8981V32.748C5.33777 32.5596 5.49103 32.4062 5.67957 32.4062H11.9913C12.1799 32.4062 12.3331 32.5596 12.3331 32.748V36.8981Z" fill="black"/>
<path d="M11.9913 41.3416H5.67957C4.36037 41.3416 3.28699 42.4149 3.28699 43.7341V47.8842C3.28699 49.2034 4.36037 50.2768 5.67957 50.2768H11.9913C13.3105 50.2768 14.3839 49.2034 14.3839 47.8842V43.7341C14.3839 42.4149 13.3105 41.3416 11.9913 41.3416ZM12.3331 47.8842C12.3331 48.0726 12.1799 48.226 11.9913 48.226H5.67957C5.49103 48.226 5.33777 48.0726 5.33777 47.8842V43.7341C5.33777 43.5457 5.49103 43.3923 5.67957 43.3923H11.9913C12.1799 43.3923 12.3331 43.5457 12.3331 43.7341V47.8842Z" fill="black"/>
<path d="M11.9913 52.3276H5.67957C4.36037 52.3276 3.28699 53.401 3.28699 54.7202V58.8703C3.28699 60.1895 4.36037 61.2629 5.67957 61.2629H11.9913C13.3105 61.2629 14.3839 60.1895 14.3839 58.8703V54.7202C14.3839 53.401 13.3105 52.3276 11.9913 52.3276ZM12.3331 58.8704C12.3331 59.0588 12.1799 59.2122 11.9913 59.2122H5.67957C5.49103 59.2122 5.33777 59.0588 5.33777 58.8704V54.7203C5.33777 54.5319 5.49103 54.3786 5.67957 54.3786H11.9913C12.1799 54.3786 12.3331 54.5319 12.3331 54.7203V58.8704Z" fill="black"/>
</svg>
