<svg width="113" height="113" viewBox="0 0 113 113" fill="none" xmlns="http://www.w3.org/2000/svg">
<path d="M7.91003 105.09H100.57V107.35H7.91003V105.09Z" fill="#E1E1E0"/>
<path d="M46.33 84.75H58.76V102.83H46.33V84.75Z" fill="#0A8996"/>
<path d="M49.7199 36.16H45.1999C44.5784 36.16 44.0699 36.6685 44.0699 37.29V45.2C44.0699 45.8215 44.5784 46.33 45.1999 46.33H49.7199C50.3414 46.33 50.8499 45.8215 50.8499 45.2V37.29C50.8499 36.6685 50.3414 36.16 49.7199 36.16ZM48.5899 44.07H46.3299V38.42H48.5899V44.07Z" fill="black"/>
<path d="M59.89 36.16H55.37C54.7485 36.16 54.24 36.6685 54.24 37.29V45.2C54.24 45.8215 54.7485 46.33 55.37 46.33H59.89C60.5115 46.33 61.02 45.8215 61.02 45.2V37.29C61.02 36.6685 60.5115 36.16 59.89 36.16ZM58.76 44.07H56.5V38.42H58.76V44.07Z" fill="black"/>
<path d="M80.23 58.76H75.71C75.0885 58.76 74.58 59.2685 74.58 59.89V67.8C74.58 68.4215 75.0885 68.93 75.71 68.93H80.23C80.8515 68.93 81.36 68.4215 81.36 67.8V59.89C81.36 59.2685 80.8515 58.76 80.23 58.76ZM79.1 66.67H76.84V61.02H79.1V66.67Z" fill="black"/>
<path d="M90.4 58.76H85.88C85.2585 58.76 84.75 59.2685 84.75 59.89V67.8C84.75 68.4215 85.2585 68.93 85.88 68.93H90.4C91.0215 68.93 91.53 68.4215 91.53 67.8V59.89C91.53 59.2685 91.0215 58.76 90.4 58.76ZM89.27 66.67H87.01V61.02H89.27V66.67Z" fill="black"/>
<path d="M80.23 73.45H75.71C75.0885 73.45 74.58 73.9585 74.58 74.58V82.49C74.58 83.1115 75.0885 83.62 75.71 83.62H80.23C80.8515 83.62 81.36 83.1115 81.36 82.49V74.58C81.36 73.9585 80.8515 73.45 80.23 73.45ZM79.1 81.36H76.84V75.71H79.1V81.36Z" fill="black"/>
<path d="M80.23 88.14H75.71C75.0885 88.14 74.58 88.6485 74.58 89.27V97.18C74.58 97.8015 75.0885 98.31 75.71 98.31H80.23C80.8515 98.31 81.36 97.8015 81.36 97.18V89.27C81.36 88.6485 80.8515 88.14 80.23 88.14ZM79.1 96.05H76.84V90.4H79.1V96.05Z" fill="black"/>
<path d="M21.4699 44.07H16.9499C16.3284 44.07 15.8199 44.5785 15.8199 45.2V53.11C15.8199 53.7315 16.3284 54.24 16.9499 54.24H21.4699C22.0914 54.24 22.5999 53.7315 22.5999 53.11V45.2C22.5999 44.5785 22.0914 44.07 21.4699 44.07ZM20.3399 51.98H18.0799V46.33H20.3399V51.98Z" fill="black"/>
<path d="M31.64 44.07H27.12C26.4985 44.07 25.99 44.5785 25.99 45.2V53.11C25.99 53.7315 26.4985 54.24 27.12 54.24H31.64C32.2615 54.24 32.77 53.7315 32.77 53.11V45.2C32.77 44.5785 32.2615 44.07 31.64 44.07ZM30.51 51.98H28.25V46.33H30.51V51.98Z" fill="black"/>
<path d="M21.4699 58.76H16.9499C16.3284 58.76 15.8199 59.2685 15.8199 59.89V67.8C15.8199 68.4215 16.3284 68.93 16.9499 68.93H21.4699C22.0914 68.93 22.5999 68.4215 22.5999 67.8V59.89C22.5999 59.2685 22.0914 58.76 21.4699 58.76ZM20.3399 66.67H18.0799V61.02H20.3399V66.67Z" fill="black"/>
<path d="M31.64 58.76H27.12C26.4985 58.76 25.99 59.2685 25.99 59.89V67.8C25.99 68.4215 26.4985 68.93 27.12 68.93H31.64C32.2615 68.93 32.77 68.4215 32.77 67.8V59.89C32.77 59.2685 32.2615 58.76 31.64 58.76ZM30.51 66.67H28.25V61.02H30.51V66.67Z" fill="black"/>
<path d="M21.4699 73.45H16.9499C16.3284 73.45 15.8199 73.9585 15.8199 74.58V82.49C15.8199 83.1115 16.3284 83.62 16.9499 83.62H21.4699C22.0914 83.62 22.5999 83.1115 22.5999 82.49V74.58C22.5999 73.9585 22.0914 73.45 21.4699 73.45ZM20.3399 81.36H18.0799V75.71H20.3399V81.36Z" fill="black"/>
<path d="M31.64 73.45H27.12C26.4985 73.45 25.99 73.9585 25.99 74.58V82.49C25.99 83.1115 26.4985 83.62 27.12 83.62H31.64C32.2615 83.62 32.77 83.1115 32.77 82.49V74.58C32.77 73.9585 32.2615 73.45 31.64 73.45ZM30.51 81.36H28.25V75.71H30.51V81.36Z" fill="black"/>
<path d="M21.4699 88.14H16.9499C16.3284 88.14 15.8199 88.6485 15.8199 89.27V97.18C15.8199 97.8015 16.3284 98.31 16.9499 98.31H21.4699C22.0914 98.31 22.5999 97.8015 22.5999 97.18V89.27C22.5999 88.6485 22.0914 88.14 21.4699 88.14ZM20.3399 96.05H18.0799V90.4H20.3399V96.05Z" fill="black"/>
<path d="M31.64 88.14H27.12C26.4985 88.14 25.99 88.6485 25.99 89.27V97.18C25.99 97.8015 26.4985 98.31 27.12 98.31H31.64C32.2615 98.31 32.77 97.8015 32.77 97.18V89.27C32.77 88.6485 32.2615 88.14 31.64 88.14ZM30.51 96.05H28.25V90.4H30.51V96.05Z" fill="black"/>
<path d="M36.1601 39.55H12.4301V102.83H36.1601C36.1488 94.8748 36.1601 47.5052 36.1601 39.55ZM22.6001 97.18C22.6001 97.8015 22.0916 98.31 21.4701 98.31H16.9501C16.3286 98.31 15.8201 97.8015 15.8201 97.18V89.27C15.8201 88.6485 16.3286 88.14 16.9501 88.14H21.4701C22.0916 88.14 22.6001 88.6485 22.6001 89.27V97.18ZM22.6001 82.49C22.6001 83.1115 22.0916 83.62 21.4701 83.62H16.9501C16.3286 83.62 15.8201 83.1115 15.8201 82.49V74.58C15.8201 73.9585 16.3286 73.45 16.9501 73.45H21.4701C22.0916 73.45 22.6001 73.9585 22.6001 74.58V82.49ZM22.6001 67.8C22.6001 68.4215 22.0916 68.93 21.4701 68.93H16.9501C16.3286 68.93 15.8201 68.4215 15.8201 67.8V59.89C15.8201 59.2685 16.3286 58.76 16.9501 58.76H21.4701C22.0916 58.76 22.6001 59.2685 22.6001 59.89V67.8ZM22.6001 53.11C22.6001 53.7315 22.0916 54.24 21.4701 54.24H16.9501C16.3286 54.24 15.8201 53.7315 15.8201 53.11V45.2C15.8201 44.5785 16.3286 44.07 16.9501 44.07H21.4701C22.0916 44.07 22.6001 44.5785 22.6001 45.2V53.11ZM32.7701 97.18C32.7701 97.8015 32.2616 98.31 31.6401 98.31H27.1201C26.4986 98.31 25.9901 97.8015 25.9901 97.18V89.27C25.9901 88.6485 26.4986 88.14 27.1201 88.14H31.6401C32.2616 88.14 32.7701 88.6485 32.7701 89.27V97.18ZM32.7701 82.49C32.7701 83.1115 32.2616 83.62 31.6401 83.62H27.1201C26.4986 83.62 25.9901 83.1115 25.9901 82.49V74.58C25.9901 73.9585 26.4986 73.45 27.1201 73.45H31.6401C32.2616 73.45 32.7701 73.9585 32.7701 74.58V82.49ZM32.7701 67.8C32.7701 68.4215 32.2616 68.93 31.6401 68.93H27.1201C26.4986 68.93 25.9901 68.4215 25.9901 67.8V59.89C25.9901 59.2685 26.4986 58.76 27.1201 58.76H31.6401C32.2616 58.76 32.7701 59.2685 32.7701 59.89V67.8ZM32.7701 53.11C32.7701 53.7315 32.2616 54.24 31.6401 54.24H27.1201C26.4986 54.24 25.9901 53.7315 25.9901 53.11V45.2C25.9901 44.5785 26.4986 44.07 27.1201 44.07H31.6401C32.2616 44.07 32.7701 44.5785 32.7701 45.2V53.11Z" fill="#86D5F7"/>
<path d="M49.7199 50.85H45.1999C44.5784 50.85 44.0699 51.3585 44.0699 51.98V59.89C44.0699 60.5115 44.5784 61.02 45.1999 61.02H49.7199C50.3414 61.02 50.8499 60.5115 50.8499 59.89V51.98C50.8499 51.3585 50.3414 50.85 49.7199 50.85ZM48.5899 58.76H46.3299V53.11H48.5899V58.76Z" fill="black"/>
<path d="M59.89 50.85H55.37C54.7485 50.85 54.24 51.3585 54.24 51.98V59.89C54.24 60.5115 54.7485 61.02 55.37 61.02H59.89C60.5115 61.02 61.02 60.5115 61.02 59.89V51.98C61.02 51.3585 60.5115 50.85 59.89 50.85ZM58.76 58.76H56.5V53.11H58.76V58.76Z" fill="black"/>
<path d="M49.7199 65.54H45.1999C44.5784 65.54 44.0699 66.0485 44.0699 66.67V74.58C44.0699 75.2015 44.5784 75.71 45.1999 75.71H49.7199C50.3414 75.71 50.8499 75.2015 50.8499 74.58V66.67C50.8499 66.0485 50.3414 65.54 49.7199 65.54ZM48.5899 73.45H46.3299V67.8H48.5899V73.45Z" fill="black"/>
<path d="M59.89 65.54H55.37C54.7485 65.54 54.24 66.0485 54.24 66.67V74.58C54.24 75.2015 54.7485 75.71 55.37 75.71H59.89C60.5115 75.71 61.02 75.2015 61.02 74.58V66.67C61.02 66.0485 60.5115 65.54 59.89 65.54ZM58.76 73.45H56.5V67.8H58.76V73.45Z" fill="black"/>
<path d="M70.06 36.16H65.54C64.9185 36.16 64.41 36.6685 64.41 37.29V45.2C64.41 45.8215 64.9185 46.33 65.54 46.33H70.06C70.6815 46.33 71.19 45.8215 71.19 45.2V37.29C71.19 36.6685 70.6815 36.16 70.06 36.16ZM68.93 44.07H66.67V38.42H68.93V44.07Z" fill="black"/>
<path d="M49.7199 21.47H45.1999C44.5784 21.47 44.0699 21.9785 44.0699 22.6V30.51C44.0699 31.1315 44.5784 31.64 45.1999 31.64H49.7199C50.3414 31.64 50.8499 31.1315 50.8499 30.51V22.6C50.8499 21.9785 50.3414 21.47 49.7199 21.47ZM48.5899 29.38H46.3299V23.73H48.5899V29.38Z" fill="black"/>
<path d="M59.89 21.47H55.37C54.7485 21.47 54.24 21.9785 54.24 22.6V30.51C54.24 31.1315 54.7485 31.64 55.37 31.64H59.89C60.5115 31.64 61.02 31.1315 61.02 30.51V22.6C61.02 21.9785 60.5115 21.47 59.89 21.47ZM58.76 29.38H56.5V23.73H58.76V29.38Z" fill="black"/>
<path d="M70.06 21.47H65.54C64.9185 21.47 64.41 21.9785 64.41 22.6V30.51C64.41 31.1315 64.9185 31.64 65.54 31.64H70.06C70.6815 31.64 71.19 31.1315 71.19 30.51V22.6C71.19 21.9785 70.6815 21.47 70.06 21.47ZM68.93 29.38H66.67V23.73H68.93V29.38Z" fill="black"/>
<path d="M41.8101 11.3H73.4501V13.56H41.8101V11.3Z" fill="#22838D"/>
<path d="M38.42 15.82V102.83H44.07V83.62C44.07 82.9985 44.5785 82.49 45.2 82.49H59.89C60.5115 82.49 61.02 82.9985 61.02 83.62V102.83H67.8V51.98C67.8 51.3585 68.3085 50.85 68.93 50.85H76.84V15.82H38.42ZM50.85 74.58C50.85 75.2015 50.3415 75.71 49.72 75.71H45.2C44.5785 75.71 44.07 75.2015 44.07 74.58V66.67C44.07 66.0485 44.5785 65.54 45.2 65.54H49.72C50.3415 65.54 50.85 66.0485 50.85 66.67V74.58ZM50.85 59.89C50.85 60.5115 50.3415 61.02 49.72 61.02H45.2C44.5785 61.02 44.07 60.5115 44.07 59.89V51.98C44.07 51.3585 44.5785 50.85 45.2 50.85H49.72C50.3415 50.85 50.85 51.3585 50.85 51.98V59.89ZM50.85 45.2C50.85 45.8215 50.3415 46.33 49.72 46.33H45.2C44.5785 46.33 44.07 45.8215 44.07 45.2V37.29C44.07 36.6685 44.5785 36.16 45.2 36.16H49.72C50.3415 36.16 50.85 36.6685 50.85 37.29V45.2ZM50.85 30.51C50.85 31.1315 50.3415 31.64 49.72 31.64H45.2C44.5785 31.64 44.07 31.1315 44.07 30.51V22.6C44.07 21.9785 44.5785 21.47 45.2 21.47H49.72C50.3415 21.47 50.85 21.9785 50.85 22.6V30.51ZM61.02 74.58C61.02 75.2015 60.5115 75.71 59.89 75.71H55.37C54.7485 75.71 54.24 75.2015 54.24 74.58V66.67C54.24 66.0485 54.7485 65.54 55.37 65.54H59.89C60.5115 65.54 61.02 66.0485 61.02 66.67V74.58ZM61.02 59.89C61.02 60.5115 60.5115 61.02 59.89 61.02H55.37C54.7485 61.02 54.24 60.5115 54.24 59.89V51.98C54.24 51.3585 54.7485 50.85 55.37 50.85H59.89C60.5115 50.85 61.02 51.3585 61.02 51.98V59.89ZM61.02 45.2C61.02 45.8215 60.5115 46.33 59.89 46.33H55.37C54.7485 46.33 54.24 45.8215 54.24 45.2V37.29C54.24 36.6685 54.7485 36.16 55.37 36.16H59.89C60.5115 36.16 61.02 36.6685 61.02 37.29V45.2ZM61.02 30.51C61.02 31.1315 60.5115 31.64 59.89 31.64H55.37C54.7485 31.64 54.24 31.1315 54.24 30.51V22.6C54.24 21.9785 54.7485 21.47 55.37 21.47H59.89C60.5115 21.47 61.02 21.9785 61.02 22.6V30.51ZM71.19 45.2C71.19 45.8215 70.6815 46.33 70.06 46.33H65.54C64.9185 46.33 64.41 45.8215 64.41 45.2V37.29C64.41 36.6685 64.9185 36.16 65.54 36.16H70.06C70.6815 36.16 71.19 36.6685 71.19 37.29V45.2ZM71.19 30.51C71.19 31.1315 70.6815 31.64 70.06 31.64H65.54C64.9185 31.64 64.41 31.1315 64.41 30.51V22.6C64.41 21.9785 64.9185 21.47 65.54 21.47H70.06C70.6815 21.47 71.19 21.9785 71.19 22.6V30.51Z" fill="#0A8996"/>
<path d="M96.0501 74.8625V53.11H70.0601V102.83H95.4851V97.9823C89.6204 97.4173 85.0213 92.4566 85.0213 86.445C85.0213 80.2413 89.9142 75.1563 96.0501 74.8625ZM81.3601 97.18C81.3601 97.8015 80.8516 98.31 80.2301 98.31H75.7101C75.0886 98.31 74.5801 97.8015 74.5801 97.18V89.27C74.5801 88.6485 75.0886 88.14 75.7101 88.14H80.2301C80.8516 88.14 81.3601 88.6485 81.3601 89.27V97.18ZM81.3601 82.49C81.3601 83.1115 80.8516 83.62 80.2301 83.62H75.7101C75.0886 83.62 74.5801 83.1115 74.5801 82.49V74.58C74.5801 73.9585 75.0886 73.45 75.7101 73.45H80.2301C80.8516 73.45 81.3601 73.9585 81.3601 74.58V82.49ZM81.3601 67.8C81.3601 68.4215 80.8516 68.93 80.2301 68.93H75.7101C75.0886 68.93 74.5801 68.4215 74.5801 67.8V59.89C74.5801 59.2685 75.0886 58.76 75.7101 58.76H80.2301C80.8516 58.76 81.3601 59.2685 81.3601 59.89V67.8ZM84.7501 67.8V59.89C84.7501 59.2685 85.2586 58.76 85.8801 58.76H90.4001C91.0216 58.76 91.5301 59.2685 91.5301 59.89V67.8C91.5301 68.4215 91.0216 68.93 90.4001 68.93H85.8801C85.2586 68.93 84.7501 68.4215 84.7501 67.8Z" fill="#14335D"/>
<path d="M108.209 86.445C108.209 80.6255 103.904 75.8004 98.31 74.9755C97.7563 74.8964 97.1913 74.8512 96.615 74.8512C96.4229 74.8512 96.2421 74.8512 96.05 74.8625C89.9141 75.1563 85.0212 80.2413 85.0212 86.445C85.0212 92.4566 89.6203 97.4173 95.485 97.9823V102.83H77.97H70.06V53.11H96.05V71.1448C96.05 71.7685 96.5551 72.2748 97.18 72.2748C97.8049 72.2748 98.31 71.7685 98.31 71.1448V51.98C98.31 51.3562 97.8049 50.85 97.18 50.85H79.1V14.69C79.1 14.0685 78.5915 13.56 77.97 13.56H75.71V10.17C75.71 9.54848 75.2015 9.03998 74.58 9.03998H40.68C40.0585 9.03998 39.55 9.54848 39.55 10.17V13.56H37.29C36.6685 13.56 36.16 14.0685 36.16 14.69V37.29H11.3C10.6785 37.29 10.17 37.7985 10.17 38.42V102.83H6.78002C6.15852 102.83 5.65002 103.338 5.65002 103.96V108.48C5.65002 109.101 6.15852 109.61 6.78002 109.61H101.7C102.322 109.61 102.83 109.101 102.83 108.48V103.96C102.83 103.338 102.322 102.83 101.7 102.83H97.745V97.9823C103.61 97.4173 108.209 92.4566 108.209 86.445ZM41.81 11.3H73.45V13.56H41.81V11.3ZM38.42 15.82H40.68H74.58H76.84V50.85H68.93C68.3051 50.85 67.8 51.3562 67.8 51.98V102.83H61.02V83.62C61.02 82.9985 60.5115 82.49 59.89 82.49H45.2C44.5785 82.49 44.07 82.9985 44.07 83.62V102.83H38.42V15.82ZM58.76 102.83H46.33V84.75H58.76V102.83ZM12.43 39.55H36.16V102.83H12.43V39.55ZM100.57 105.09V107.35H7.91002V105.09H11.3H37.29H45.2H59.89H68.93H77.97H95.485H97.18H97.745H100.57ZM96.615 95.7788C91.4735 95.7788 87.2812 91.5865 87.2812 86.445C87.2812 81.3035 91.4735 77.1112 96.615 77.1112C101.757 77.1112 105.949 81.3035 105.949 86.445C105.949 91.5865 101.757 95.7788 96.615 95.7788Z" fill="black"/>
<path opacity="0.1" d="M85.0212 86.445C85.0212 92.4566 89.6203 97.4173 95.485 97.9823V102.83H81.36V53.11H96.05V74.8625C89.9141 75.1563 85.0212 80.2413 85.0212 86.445Z" fill="#221F1F"/>
<path d="M105.949 86.445C105.949 91.5865 101.757 95.7788 96.6151 95.7788C92.6714 95.7788 89.2926 93.3154 87.9253 89.8576C87.5072 88.8067 87.2812 87.6541 87.2812 86.445C87.2812 81.3035 91.4736 77.1112 96.6151 77.1112C97.5982 77.1112 98.5474 77.2694 99.4401 77.5519C103.203 78.7497 105.949 82.2866 105.949 86.445Z" fill="#76C043"/>
<path opacity="0.1" d="M36.16 102.83C36.1487 94.8748 36.16 47.5052 36.16 39.55H32.77V45.2V53.11V59.89V67.8V74.58V82.49V89.27V97.18V102.83H36.16Z" fill="#221F1F"/>
<path opacity="0.1" d="M105.949 86.445C105.949 91.5865 101.756 95.7788 96.615 95.7788C92.6713 95.7788 89.2926 93.3154 87.9253 89.8576C88.3321 89.9141 88.7389 89.9367 89.157 89.9367C94.9313 89.9367 99.6208 85.2585 99.6208 79.4729C99.6208 78.8175 99.553 78.1734 99.44 77.5519C103.203 78.7497 105.949 82.2866 105.949 86.445Z" fill="#221F1F"/>
</svg>
