<svg width="350" height="234" viewBox="0 0 350 234" fill="none" xmlns="http://www.w3.org/2000/svg">
<rect width="350" height="234" rx="28" fill="#0A8996"/>
<path d="M46.4538 186.273H50.8153L55.4219 197.511H55.6179L60.2244 186.273H64.5859V203H61.1555V192.113H61.0167L56.6879 202.918H54.3519L50.0231 192.072H49.8842V203H46.4538V186.273ZM71.0118 203.237C70.2114 203.237 69.4981 203.098 68.8719 202.82C68.2457 202.537 67.7502 202.121 67.3854 201.571C67.026 201.015 66.8463 200.324 66.8463 199.496C66.8463 198.799 66.9743 198.214 67.2302 197.74C67.4861 197.266 67.8346 196.885 68.2757 196.597C68.7167 196.308 69.2177 196.09 69.7785 195.943C70.3448 195.796 70.9383 195.693 71.559 195.633C72.2887 195.557 72.8767 195.486 73.3232 195.42C73.7697 195.35 74.0937 195.246 74.2952 195.11C74.4967 194.974 74.5974 194.772 74.5974 194.506V194.457C74.5974 193.939 74.434 193.539 74.1073 193.256C73.7861 192.973 73.3287 192.831 72.7352 192.831C72.109 192.831 71.6108 192.97 71.2405 193.248C70.8702 193.52 70.6252 193.863 70.5054 194.277L67.2874 194.016C67.4507 193.253 67.772 192.594 68.2512 192.039C68.7303 191.478 69.3483 191.048 70.1052 190.749C70.8675 190.444 71.7496 190.291 72.7515 190.291C73.4485 190.291 74.1155 190.373 74.7526 190.536C75.3951 190.7 75.9641 190.953 76.4596 191.296C76.9606 191.639 77.3553 192.08 77.6439 192.619C77.9325 193.153 78.0768 193.792 78.0768 194.538V203H74.7771V201.26H74.6791C74.4776 201.652 74.2081 201.998 73.8705 202.298C73.5329 202.592 73.1272 202.823 72.6535 202.992C72.1798 203.155 71.6325 203.237 71.0118 203.237ZM72.0083 200.836C72.5201 200.836 72.972 200.735 73.3641 200.533C73.7561 200.326 74.0638 200.049 74.287 199.7C74.5103 199.352 74.6219 198.957 74.6219 198.516V197.185C74.513 197.255 74.3633 197.321 74.1727 197.381C73.9875 197.435 73.7779 197.487 73.5438 197.536C73.3096 197.579 73.0755 197.62 72.8414 197.658C72.6072 197.691 72.3949 197.721 72.2043 197.748C71.7959 197.808 71.4392 197.903 71.1343 198.034C70.8294 198.165 70.5925 198.342 70.4237 198.565C70.2549 198.783 70.1705 199.055 70.1705 199.382C70.1705 199.855 70.3421 200.218 70.6851 200.468C71.0336 200.713 71.4746 200.836 72.0083 200.836ZM80.7762 203V190.455H84.2556V203H80.7762ZM82.5241 188.837C82.0068 188.837 81.563 188.666 81.1927 188.323C80.8279 187.974 80.6455 187.558 80.6455 187.073C80.6455 186.594 80.8279 186.183 81.1927 185.84C81.563 185.491 82.0068 185.317 82.5241 185.317C83.0413 185.317 83.4824 185.491 83.8472 185.84C84.2175 186.183 84.4026 186.594 84.4026 187.073C84.4026 187.558 84.2175 187.974 83.8472 188.323C83.4824 188.666 83.0413 188.837 82.5241 188.837ZM90.5222 195.747V203H87.0428V190.455H90.3588V192.668H90.5059C90.7836 191.938 91.2491 191.361 91.9025 190.936C92.5559 190.506 93.3482 190.291 94.2793 190.291C95.1505 190.291 95.9101 190.482 96.5581 190.863C97.206 191.244 97.7097 191.789 98.0691 192.496C98.4284 193.199 98.6081 194.037 98.6081 195.012V203H95.1287V195.633C95.1342 194.865 94.9382 194.266 94.5407 193.836C94.1432 193.4 93.5959 193.183 92.899 193.183C92.4307 193.183 92.0169 193.283 91.6575 193.485C91.3036 193.686 91.0259 193.98 90.8244 194.367C90.6284 194.748 90.5276 195.208 90.5222 195.747ZM108.023 190.455V193.068H100.468V190.455H108.023ZM102.184 187.449H105.663V199.145C105.663 199.466 105.712 199.717 105.81 199.896C105.908 200.071 106.044 200.193 106.218 200.264C106.398 200.335 106.605 200.37 106.839 200.37C107.002 200.37 107.166 200.356 107.329 200.329C107.492 200.297 107.618 200.272 107.705 200.256L108.252 202.845C108.078 202.899 107.833 202.962 107.517 203.033C107.201 203.109 106.817 203.155 106.365 203.172C105.527 203.204 104.792 203.093 104.16 202.837C103.534 202.581 103.047 202.183 102.698 201.644C102.35 201.105 102.178 200.424 102.184 199.602V187.449ZM115.872 203.245C114.582 203.245 113.471 202.984 112.54 202.461C111.614 201.933 110.901 201.187 110.4 200.223C109.899 199.254 109.649 198.108 109.649 196.784C109.649 195.494 109.899 194.361 110.4 193.387C110.901 192.412 111.606 191.652 112.516 191.108C113.43 190.563 114.503 190.291 115.734 190.291C116.561 190.291 117.332 190.425 118.045 190.691C118.764 190.953 119.39 191.348 119.924 191.876C120.463 192.404 120.882 193.068 121.181 193.869C121.481 194.664 121.631 195.595 121.631 196.662V197.618H111.037V195.461H118.355C118.355 194.96 118.246 194.517 118.029 194.13C117.811 193.743 117.509 193.441 117.122 193.223C116.741 193 116.297 192.888 115.791 192.888C115.263 192.888 114.794 193.011 114.386 193.256C113.983 193.496 113.667 193.82 113.438 194.228C113.21 194.631 113.093 195.08 113.087 195.576V197.626C113.087 198.246 113.202 198.783 113.43 199.235C113.664 199.687 113.994 200.035 114.419 200.28C114.843 200.525 115.347 200.648 115.93 200.648C116.316 200.648 116.67 200.593 116.991 200.484C117.313 200.375 117.588 200.212 117.816 199.994C118.045 199.777 118.219 199.51 118.339 199.194L121.557 199.406C121.394 200.179 121.059 200.855 120.552 201.432C120.052 202.004 119.404 202.45 118.609 202.771C117.819 203.087 116.907 203.245 115.872 203.245ZM127.381 195.747V203H123.901V190.455H127.217V192.668H127.364C127.642 191.938 128.108 191.361 128.761 190.936C129.414 190.506 130.207 190.291 131.138 190.291C132.009 190.291 132.768 190.482 133.416 190.863C134.064 191.244 134.568 191.789 134.927 192.496C135.287 193.199 135.467 194.037 135.467 195.012V203H131.987V195.633C131.993 194.865 131.797 194.266 131.399 193.836C131.002 193.4 130.454 193.183 129.757 193.183C129.289 193.183 128.875 193.283 128.516 193.485C128.162 193.686 127.884 193.98 127.683 194.367C127.487 194.748 127.386 195.208 127.381 195.747ZM141.786 203.237C140.986 203.237 140.272 203.098 139.646 202.82C139.02 202.537 138.525 202.121 138.16 201.571C137.8 201.015 137.621 200.324 137.621 199.496C137.621 198.799 137.749 198.214 138.005 197.74C138.261 197.266 138.609 196.885 139.05 196.597C139.491 196.308 139.992 196.09 140.553 195.943C141.119 195.796 141.713 195.693 142.333 195.633C143.063 195.557 143.651 195.486 144.098 195.42C144.544 195.35 144.868 195.246 145.07 195.11C145.271 194.974 145.372 194.772 145.372 194.506V194.457C145.372 193.939 145.208 193.539 144.882 193.256C144.56 192.973 144.103 192.831 143.51 192.831C142.883 192.831 142.385 192.97 142.015 193.248C141.645 193.52 141.4 193.863 141.28 194.277L138.062 194.016C138.225 193.253 138.546 192.594 139.026 192.039C139.505 191.478 140.123 191.048 140.88 190.749C141.642 190.444 142.524 190.291 143.526 190.291C144.223 190.291 144.89 190.373 145.527 190.536C146.17 190.7 146.739 190.953 147.234 191.296C147.735 191.639 148.13 192.08 148.418 192.619C148.707 193.153 148.851 193.792 148.851 194.538V203H145.551V201.26H145.453C145.252 201.652 144.982 201.998 144.645 202.298C144.307 202.592 143.902 202.823 143.428 202.992C142.954 203.155 142.407 203.237 141.786 203.237ZM142.783 200.836C143.295 200.836 143.746 200.735 144.138 200.533C144.531 200.326 144.838 200.049 145.061 199.7C145.285 199.352 145.396 198.957 145.396 198.516V197.185C145.287 197.255 145.138 197.321 144.947 197.381C144.762 197.435 144.552 197.487 144.318 197.536C144.084 197.579 143.85 197.62 143.616 197.658C143.382 197.691 143.169 197.721 142.979 197.748C142.57 197.808 142.214 197.903 141.909 198.034C141.604 198.165 141.367 198.342 141.198 198.565C141.029 198.783 140.945 199.055 140.945 199.382C140.945 199.855 141.116 200.218 141.46 200.468C141.808 200.713 142.249 200.836 142.783 200.836ZM155.03 195.747V203H151.551V190.455H154.867V192.668H155.014C155.291 191.938 155.757 191.361 156.41 190.936C157.064 190.506 157.856 190.291 158.787 190.291C159.658 190.291 160.418 190.482 161.066 190.863C161.714 191.244 162.218 191.789 162.577 192.496C162.936 193.199 163.116 194.037 163.116 195.012V203H159.637V195.633C159.642 194.865 159.446 194.266 159.048 193.836C158.651 193.4 158.104 193.183 157.407 193.183C156.939 193.183 156.525 193.283 156.165 193.485C155.811 193.686 155.534 193.98 155.332 194.367C155.136 194.748 155.035 195.208 155.03 195.747ZM171.527 203.245C170.242 203.245 169.136 202.973 168.21 202.428C167.29 201.878 166.582 201.116 166.087 200.141C165.597 199.167 165.352 198.045 165.352 196.776C165.352 195.491 165.6 194.364 166.095 193.395C166.596 192.42 167.307 191.661 168.227 191.116C169.147 190.566 170.242 190.291 171.51 190.291C172.605 190.291 173.563 190.49 174.385 190.887C175.207 191.285 175.858 191.843 176.337 192.562C176.816 193.281 177.081 194.125 177.13 195.094H173.846C173.754 194.468 173.509 193.964 173.111 193.583C172.719 193.196 172.204 193.003 171.567 193.003C171.028 193.003 170.557 193.15 170.154 193.444C169.757 193.732 169.447 194.154 169.223 194.71C169 195.265 168.888 195.938 168.888 196.727C168.888 197.528 168.997 198.208 169.215 198.769C169.438 199.33 169.751 199.757 170.154 200.051C170.557 200.346 171.028 200.493 171.567 200.493C171.965 200.493 172.322 200.411 172.637 200.248C172.959 200.084 173.223 199.847 173.43 199.537C173.642 199.221 173.781 198.843 173.846 198.402H177.13C177.075 199.36 176.814 200.204 176.345 200.934C175.883 201.658 175.243 202.224 174.426 202.632C173.609 203.041 172.643 203.245 171.527 203.245ZM185.075 203.245C183.784 203.245 182.673 202.984 181.742 202.461C180.817 201.933 180.103 201.187 179.602 200.223C179.101 199.254 178.851 198.108 178.851 196.784C178.851 195.494 179.101 194.361 179.602 193.387C180.103 192.412 180.808 191.652 181.718 191.108C182.632 190.563 183.705 190.291 184.936 190.291C185.763 190.291 186.534 190.425 187.247 190.691C187.966 190.953 188.592 191.348 189.126 191.876C189.665 192.404 190.084 193.068 190.384 193.869C190.683 194.664 190.833 195.595 190.833 196.662V197.618H180.239V195.461H187.558C187.558 194.96 187.449 194.517 187.231 194.13C187.013 193.743 186.711 193.441 186.324 193.223C185.943 193 185.499 192.888 184.993 192.888C184.465 192.888 183.996 193.011 183.588 193.256C183.185 193.496 182.869 193.82 182.641 194.228C182.412 194.631 182.295 195.08 182.289 195.576V197.626C182.289 198.246 182.404 198.783 182.632 199.235C182.867 199.687 183.196 200.035 183.621 200.28C184.045 200.525 184.549 200.648 185.132 200.648C185.518 200.648 185.872 200.593 186.194 200.484C186.515 200.375 186.79 200.212 187.018 199.994C187.247 199.777 187.421 199.51 187.541 199.194L190.759 199.406C190.596 200.179 190.261 200.855 189.755 201.432C189.254 202.004 188.606 202.45 187.811 202.771C187.021 203.087 186.109 203.245 185.075 203.245ZM207.566 191.083C207.501 190.425 207.22 189.913 206.725 189.548C206.229 189.183 205.557 189.001 204.707 189.001C204.13 189.001 203.643 189.082 203.245 189.246C202.848 189.404 202.543 189.624 202.331 189.907C202.124 190.19 202.02 190.512 202.02 190.871C202.009 191.171 202.072 191.432 202.208 191.655C202.35 191.878 202.543 192.072 202.788 192.235C203.033 192.393 203.316 192.532 203.638 192.652C203.959 192.766 204.302 192.864 204.667 192.946L206.169 193.305C206.899 193.468 207.569 193.686 208.179 193.958C208.789 194.231 209.317 194.566 209.763 194.963C210.21 195.361 210.555 195.829 210.801 196.368C211.051 196.907 211.179 197.525 211.184 198.222C211.179 199.246 210.918 200.133 210.4 200.885C209.888 201.631 209.148 202.21 208.179 202.624C207.215 203.033 206.052 203.237 204.691 203.237C203.341 203.237 202.165 203.03 201.163 202.616C200.166 202.202 199.388 201.59 198.827 200.778C198.271 199.962 197.98 198.952 197.953 197.748H201.375C201.413 198.309 201.574 198.777 201.857 199.153C202.146 199.523 202.529 199.804 203.009 199.994C203.493 200.179 204.04 200.272 204.65 200.272C205.249 200.272 205.769 200.185 206.21 200.011C206.657 199.836 207.003 199.594 207.248 199.284C207.493 198.973 207.615 198.617 207.615 198.214C207.615 197.838 207.504 197.522 207.28 197.266C207.062 197.01 206.741 196.793 206.316 196.613C205.897 196.433 205.383 196.27 204.773 196.123L202.951 195.665C201.541 195.322 200.428 194.786 199.611 194.056C198.794 193.327 198.388 192.344 198.394 191.108C198.388 190.095 198.658 189.21 199.203 188.453C199.752 187.697 200.507 187.106 201.465 186.681C202.423 186.256 203.512 186.044 204.732 186.044C205.973 186.044 207.057 186.256 207.983 186.681C208.914 187.106 209.638 187.697 210.155 188.453C210.673 189.21 210.939 190.087 210.956 191.083H207.566ZM219.166 203.245C217.881 203.245 216.776 202.973 215.85 202.428C214.93 201.878 214.222 201.116 213.727 200.141C213.237 199.167 212.991 198.045 212.991 196.776C212.991 195.491 213.239 194.364 213.735 193.395C214.236 192.42 214.946 191.661 215.866 191.116C216.787 190.566 217.881 190.291 219.15 190.291C220.244 190.291 221.203 190.49 222.025 190.887C222.847 191.285 223.498 191.843 223.977 192.562C224.456 193.281 224.72 194.125 224.769 195.094H221.486C221.393 194.468 221.148 193.964 220.751 193.583C220.359 193.196 219.844 193.003 219.207 193.003C218.668 193.003 218.197 193.15 217.794 193.444C217.397 193.732 217.086 194.154 216.863 194.71C216.64 195.265 216.528 195.938 216.528 196.727C216.528 197.528 216.637 198.208 216.855 198.769C217.078 199.33 217.391 199.757 217.794 200.051C218.197 200.346 218.668 200.493 219.207 200.493C219.605 200.493 219.961 200.411 220.277 200.248C220.598 200.084 220.862 199.847 221.069 199.537C221.282 199.221 221.42 198.843 221.486 198.402H224.769C224.715 199.36 224.453 200.204 223.985 200.934C223.522 201.658 222.882 202.224 222.066 202.632C221.249 203.041 220.282 203.245 219.166 203.245ZM230.476 195.747V203H226.997V186.273H230.378V192.668H230.525C230.808 191.927 231.266 191.348 231.897 190.928C232.529 190.504 233.321 190.291 234.274 190.291C235.145 190.291 235.905 190.482 236.553 190.863C237.206 191.239 237.713 191.78 238.072 192.488C238.437 193.191 238.617 194.032 238.611 195.012V203H235.132V195.633C235.137 194.86 234.941 194.258 234.544 193.828C234.152 193.398 233.602 193.183 232.894 193.183C232.42 193.183 232.001 193.283 231.636 193.485C231.277 193.686 230.994 193.98 230.787 194.367C230.585 194.748 230.482 195.208 230.476 195.747ZM247.067 203.245C245.776 203.245 244.665 202.984 243.734 202.461C242.809 201.933 242.095 201.187 241.594 200.223C241.094 199.254 240.843 198.108 240.843 196.784C240.843 195.494 241.094 194.361 241.594 193.387C242.095 192.412 242.801 191.652 243.71 191.108C244.625 190.563 245.697 190.291 246.928 190.291C247.756 190.291 248.526 190.425 249.239 190.691C249.958 190.953 250.584 191.348 251.118 191.876C251.657 192.404 252.076 193.068 252.376 193.869C252.675 194.664 252.825 195.595 252.825 196.662V197.618H242.232V195.461H249.55C249.55 194.96 249.441 194.517 249.223 194.13C249.005 193.743 248.703 193.441 248.316 193.223C247.935 193 247.491 192.888 246.985 192.888C246.457 192.888 245.989 193.011 245.58 193.256C245.177 193.496 244.862 193.82 244.633 194.228C244.404 194.631 244.287 195.08 244.282 195.576V197.626C244.282 198.246 244.396 198.783 244.625 199.235C244.859 199.687 245.188 200.035 245.613 200.28C246.038 200.525 246.541 200.648 247.124 200.648C247.511 200.648 247.864 200.593 248.186 200.484C248.507 200.375 248.782 200.212 249.011 199.994C249.239 199.777 249.414 199.51 249.533 199.194L252.751 199.406C252.588 200.179 252.253 200.855 251.747 201.432C251.246 202.004 250.598 202.45 249.803 202.771C249.013 203.087 248.101 203.245 247.067 203.245ZM259.718 203.204C258.766 203.204 257.902 202.959 257.129 202.469C256.362 201.974 255.752 201.247 255.3 200.288C254.853 199.325 254.63 198.143 254.63 196.744C254.63 195.306 254.861 194.111 255.324 193.158C255.787 192.2 256.402 191.484 257.17 191.01C257.943 190.531 258.79 190.291 259.71 190.291C260.413 190.291 260.998 190.411 261.466 190.651C261.94 190.885 262.321 191.179 262.61 191.533C262.904 191.881 263.127 192.224 263.279 192.562H263.386V186.273H266.857V203H263.426V200.991H263.279C263.116 201.339 262.885 201.685 262.585 202.028C262.291 202.366 261.907 202.646 261.434 202.869C260.965 203.093 260.394 203.204 259.718 203.204ZM260.821 200.435C261.382 200.435 261.856 200.283 262.242 199.978C262.634 199.668 262.934 199.235 263.141 198.679C263.353 198.124 263.459 197.473 263.459 196.727C263.459 195.981 263.356 195.333 263.149 194.783C262.942 194.233 262.642 193.809 262.25 193.509C261.858 193.21 261.382 193.06 260.821 193.06C260.249 193.06 259.767 193.215 259.375 193.526C258.983 193.836 258.687 194.266 258.485 194.816C258.284 195.366 258.183 196.003 258.183 196.727C258.183 197.457 258.284 198.102 258.485 198.663C258.692 199.218 258.989 199.654 259.375 199.97C259.767 200.28 260.249 200.435 260.821 200.435ZM277.763 197.658V190.455H281.242V203H277.902V200.721H277.771C277.488 201.456 277.017 202.047 276.358 202.494C275.704 202.94 274.907 203.163 273.965 203.163C273.126 203.163 272.388 202.973 271.751 202.592C271.114 202.21 270.616 201.669 270.257 200.966C269.903 200.264 269.723 199.423 269.718 198.442V190.455H273.197V197.822C273.202 198.562 273.401 199.148 273.793 199.578C274.185 200.008 274.711 200.223 275.37 200.223C275.789 200.223 276.181 200.128 276.546 199.937C276.911 199.741 277.205 199.453 277.428 199.071C277.657 198.69 277.768 198.219 277.763 197.658ZM287.505 186.273V203H284.025V186.273H287.505ZM296.009 203.245C294.719 203.245 293.608 202.984 292.677 202.461C291.751 201.933 291.038 201.187 290.537 200.223C290.036 199.254 289.785 198.108 289.785 196.784C289.785 195.494 290.036 194.361 290.537 193.387C291.038 192.412 291.743 191.652 292.652 191.108C293.567 190.563 294.64 190.291 295.87 190.291C296.698 190.291 297.468 190.425 298.182 190.691C298.9 190.953 299.527 191.348 300.06 191.876C300.599 192.404 301.019 193.068 301.318 193.869C301.618 194.664 301.767 195.595 301.767 196.662V197.618H291.174V195.461H298.492C298.492 194.96 298.383 194.517 298.165 194.13C297.948 193.743 297.645 193.441 297.259 193.223C296.878 193 296.434 192.888 295.927 192.888C295.399 192.888 294.931 193.011 294.523 193.256C294.12 193.496 293.804 193.82 293.575 194.228C293.347 194.631 293.229 195.08 293.224 195.576V197.626C293.224 198.246 293.338 198.783 293.567 199.235C293.801 199.687 294.131 200.035 294.555 200.28C294.98 200.525 295.484 200.648 296.066 200.648C296.453 200.648 296.807 200.593 297.128 200.484C297.449 200.375 297.724 200.212 297.953 199.994C298.182 199.777 298.356 199.51 298.476 199.194L301.694 199.406C301.53 200.179 301.196 200.855 300.689 201.432C300.188 202.004 299.54 202.45 298.745 202.771C297.956 203.087 297.044 203.245 296.009 203.245Z" fill="white"/>
<circle cx="175.5" cy="93.5" r="70.5" fill="white"/>
<g clip-path="url(#clip0_6144_927)">
<path d="M205.161 128.92H145.839C142.659 128.92 140.08 126.341 140.08 123.161V69.8866C140.08 66.7059 142.659 64.1272 145.839 64.1272H205.161C208.342 64.1272 210.92 66.7059 210.92 69.8866V123.161C210.92 126.341 208.342 128.92 205.161 128.92Z" fill="#D5F1FE"/>
<path d="M205.161 64.1272H200.842C204.023 64.1272 206.601 66.7059 206.601 69.8866V123.161C206.601 126.341 204.023 128.92 200.842 128.92H205.161C208.342 128.92 210.921 126.341 210.921 123.161V69.8866C210.921 66.7059 208.342 64.1272 205.161 64.1272Z" fill="#B4E7FD"/>
<path d="M210.92 80.1093H140.08V69.8866C140.08 66.7059 142.659 64.1272 145.839 64.1272H205.161C208.342 64.1272 210.92 66.7059 210.92 69.8866V80.1093Z" fill="#EA7F87"/>
<path d="M205.161 64.1272H200.842C204.023 64.1272 206.601 66.7059 206.601 69.8866V80.1093H210.921V69.8866C210.921 66.7059 208.342 64.1272 205.161 64.1272Z" fill="#E5646E"/>
<path d="M169.309 128.92V106.171L173.773 101.707V92.8523L168.013 87.1648V97.3875L164.126 99.8353L160.238 97.3875V87.1648L154.479 92.8523V101.707L158.942 106.171V128.92H169.309Z" fill="#9B9B9B"/>
<path d="M168.013 87.1648V91.6282L170.327 93.9423C170.597 94.2124 170.749 94.5783 170.749 94.9604V99.671C170.749 100.053 170.597 100.419 170.327 100.689L166.707 104.309C166.437 104.579 166.285 104.945 166.285 105.327V128.92H169.309V106.171L173.773 101.707V92.8523L168.013 87.1648Z" fill="#828282"/>
<path d="M182.986 109.77V128.92H193.353V109.77H182.986Z" fill="#FFEA84"/>
<path d="M190.619 109.77H193.355V128.92H190.619V109.77Z" fill="#FFE046"/>
<path d="M189.61 87.1648H186.731L184.139 95.5156L186.011 97.2438V109.77H190.33V97.2438L192.202 95.5156L189.61 87.1648Z" fill="#9B9B9B"/>
<path d="M189.61 87.1648H187.738L189.515 93.2578C189.663 93.7624 189.523 94.3071 189.151 94.6791L188.879 94.9503C188.61 95.2199 188.458 95.5864 188.458 95.9684V109.77H190.33V97.2438L192.202 95.5156L189.61 87.1648Z" fill="#828282"/>
<path d="M150.014 73.0539C148.105 73.0539 146.559 71.5072 146.559 69.5986V61.5357C146.559 59.627 148.105 58.0798 150.014 58.0798C151.923 58.0798 153.47 59.627 153.47 61.5357V69.5986C153.47 71.5072 151.923 73.0539 150.014 73.0539Z" fill="#E2E5EE"/>
<path d="M166.524 73.0539C164.616 73.0539 163.068 71.5072 163.068 69.5986V61.5357C163.068 59.627 164.616 58.0798 166.524 58.0798C168.432 58.0798 169.979 59.627 169.979 61.5357V69.5986C169.979 71.5072 168.432 73.0539 166.524 73.0539Z" fill="#E2E5EE"/>
<path d="M183.033 73.0539C181.125 73.0539 179.578 71.5072 179.578 69.5986V61.5357C179.578 59.627 181.125 58.0798 183.033 58.0798C184.942 58.0798 186.489 59.627 186.489 61.5357V69.5986C186.489 71.5072 184.942 73.0539 183.033 73.0539Z" fill="#E2E5EE"/>
<path d="M183.035 58.0798C182.658 58.0798 182.295 58.1411 181.955 58.253C183.335 58.7064 184.331 60.0041 184.331 61.5357V69.5986C184.331 71.1296 183.335 72.4273 181.955 72.8812C182.295 72.9926 182.658 73.0539 183.035 73.0539C184.944 73.0539 186.491 71.5072 186.491 69.5986V61.5357C186.491 59.627 184.944 58.0798 183.035 58.0798Z" fill="#CED3E2"/>
<path d="M166.525 58.0798C166.148 58.0798 165.786 58.1411 165.445 58.253C166.825 58.7064 167.821 60.0041 167.821 61.5357V69.5986C167.821 71.1296 166.825 72.4273 165.445 72.8812C165.786 72.9926 166.148 73.0539 166.525 73.0539C168.434 73.0539 169.981 71.5072 169.981 69.5986V61.5357C169.981 59.627 168.434 58.0798 166.525 58.0798Z" fill="#CED3E2"/>
<path d="M150.015 58.0798C149.638 58.0798 149.275 58.1411 148.936 58.253C150.315 58.7064 151.311 60.0041 151.311 61.5357V69.5986C151.311 71.1296 150.315 72.4273 148.936 72.8812C149.275 72.9926 149.638 73.0539 150.015 73.0539C151.924 73.0539 153.471 71.5072 153.471 69.5986V61.5357C153.471 59.627 151.924 58.0798 150.015 58.0798Z" fill="#CED3E2"/>
<path d="M199.546 73.0539C197.637 73.0539 196.09 71.5072 196.09 69.5986V61.5357C196.09 59.627 197.637 58.0798 199.546 58.0798C201.454 58.0798 203.001 59.627 203.001 61.5357V69.5986C203.001 71.5072 201.454 73.0539 199.546 73.0539Z" fill="#E2E5EE"/>
<path d="M199.545 58.0798C199.167 58.0798 198.805 58.1411 198.465 58.253C199.844 58.7064 200.84 60.0041 200.84 61.5357V69.5986C200.84 71.1296 199.844 72.4273 198.465 72.8812C198.805 72.9926 199.167 73.0539 199.545 73.0539C201.453 73.0539 203 71.5072 203 69.5986V61.5357C203 59.627 201.453 58.0798 199.545 58.0798Z" fill="#CED3E2"/>
<path d="M205.161 63.0473H204.081V61.5358C204.081 59.0345 202.046 57 199.546 57C197.044 57 195.01 59.0345 195.01 61.5358V63.0473H187.571V61.5358C187.571 59.0345 185.536 57 183.035 57C180.534 57 178.5 59.0345 178.5 61.5358V63.0473H171.061V61.5358C171.061 59.0345 169.026 57 166.525 57C164.024 57 161.99 59.0345 161.99 61.5358V63.0473H154.55V61.5358C154.55 59.0345 152.515 57 150.015 57C147.514 57 145.48 59.0345 145.48 61.5358V63.0568C141.875 63.2445 139 66.2364 139 69.8866V123.161C139 126.932 142.068 130 145.839 130H205.161C208.932 130 212 126.932 212 123.161V90.2424C212 89.6459 211.517 89.1625 210.92 89.1625C210.324 89.1625 209.84 89.6459 209.84 90.2424V123.161C209.84 125.741 207.741 127.84 205.161 127.84H194.434V120.515C194.434 119.919 193.951 119.435 193.354 119.435C192.758 119.435 192.274 119.919 192.274 120.515V127.84H184.067V110.85H192.274V115.482C192.274 116.078 192.758 116.561 193.354 116.561C193.951 116.561 194.434 116.078 194.434 115.482V109.77C194.434 109.174 193.951 108.69 193.354 108.69H191.41V97.7166L192.935 96.3092C193.241 96.0269 193.357 95.5936 193.234 95.1959L190.642 86.8445C190.501 86.3928 190.084 86.0848 189.61 86.0848H186.731C186.257 86.0848 185.84 86.3928 185.699 86.8445L183.108 95.1959C182.984 95.5936 183.101 96.0269 183.406 96.3092L184.931 97.7166V108.69H182.987C182.391 108.69 181.907 109.174 181.907 109.77V127.84H170.388V106.618L174.536 102.471C174.738 102.268 174.852 101.993 174.852 101.707V92.8523C174.852 92.5632 174.736 92.2864 174.531 92.0837L168.772 86.3962C168.462 86.0904 167.998 86.0002 167.596 86.1684C167.195 86.336 166.933 86.7292 166.933 87.1647V96.7915L164.125 98.5593L161.317 96.7915V87.1647C161.317 86.7292 161.056 86.336 160.654 86.1684C160.252 86.0002 159.789 86.0904 159.479 86.3962L153.72 92.0837C153.514 92.2864 153.399 92.5632 153.399 92.8523V101.707C153.399 101.993 153.512 102.268 153.715 102.471L157.862 106.618V111.165C157.862 111.762 158.346 112.245 158.942 112.245C159.538 112.245 160.022 111.762 160.022 111.165V106.171C160.022 105.884 159.908 105.61 159.706 105.407L155.558 101.26V93.3034L159.158 89.7484V97.3875C159.158 97.7584 159.348 98.1037 159.662 98.3014L163.55 100.749C163.902 100.97 164.349 100.97 164.701 100.749L168.588 98.3014C168.902 98.1037 169.093 97.7584 169.093 97.3875V89.7484L172.692 93.3034V101.26L168.545 105.407C168.343 105.61 168.229 105.884 168.229 106.171V127.84H160.022V116.202C160.022 115.605 159.538 115.122 158.942 115.122C158.346 115.122 157.862 115.605 157.862 116.202V127.84H145.839C143.259 127.84 141.16 125.741 141.16 123.161V81.1893H209.84V85.2327C209.84 85.8292 210.324 86.3126 210.92 86.3126C211.517 86.3126 212 85.8292 212 85.2327V69.8866C212 66.1155 208.932 63.0473 205.161 63.0473ZM186.743 96.4501L185.372 95.1848L187.526 88.2447H188.815L190.969 95.1848L189.598 96.4501C189.376 96.6545 189.25 96.9425 189.25 97.2438V108.69H187.091V97.2438C187.091 96.9425 186.965 96.6545 186.743 96.4501ZM197.17 61.5358C197.17 60.2253 198.236 59.1598 199.546 59.1598C200.856 59.1598 201.921 60.2253 201.921 61.5358V69.5987C201.921 70.9086 200.856 71.9746 199.546 71.9746C198.236 71.9746 197.17 70.9086 197.17 69.5987V61.5358ZM180.66 61.5358C180.66 60.2253 181.725 59.1598 183.035 59.1598C184.345 59.1598 185.411 60.2253 185.411 61.5358V64.1189C185.411 64.1217 185.41 64.1245 185.41 64.1272C185.41 64.13 185.411 64.1328 185.411 64.1356V69.5987C185.411 70.9086 184.345 71.9746 183.035 71.9746C181.725 71.9746 180.66 70.9086 180.66 69.5987V61.5358ZM166.525 59.1598C167.835 59.1598 168.901 60.2253 168.901 61.5358V69.5987C168.901 70.9086 167.835 71.9746 166.525 71.9746C165.215 71.9746 164.149 70.9086 164.149 69.5987V64.1356C164.149 64.1328 164.15 64.13 164.15 64.1272C164.15 64.1245 164.149 64.1217 164.149 64.1189V61.5358C164.149 60.2253 165.215 59.1598 166.525 59.1598ZM147.639 61.5358C147.639 60.2253 148.705 59.1598 150.015 59.1598C151.325 59.1598 152.391 60.2253 152.391 61.5358V69.5987C152.391 70.9086 151.325 71.9746 150.015 71.9746C148.705 71.9746 147.639 70.9086 147.639 69.5987V61.5358ZM141.16 79.0294V69.8866C141.16 67.4277 143.067 65.4071 145.48 65.2222V69.5987C145.48 72.0994 147.514 74.1339 150.015 74.1339C152.515 74.1339 154.55 72.0994 154.55 69.5987V65.2072H161.99V69.5987C161.99 72.0994 164.024 74.1339 166.525 74.1339C169.026 74.1339 171.061 72.0994 171.061 69.5987V65.2072H178.5V69.5987C178.5 72.0994 180.534 74.1339 183.035 74.1339C185.536 74.1339 187.571 72.0994 187.571 69.5987V65.2072H195.01V69.5987C195.01 72.0994 197.044 74.1339 199.546 74.1339C202.046 74.1339 204.081 72.0994 204.081 69.5987V65.2072H205.161C207.741 65.2072 209.84 67.3063 209.84 69.8866V79.0294H141.16Z" fill="black"/>
</g>
<defs>
<clipPath id="clip0_6144_927">
<rect width="73" height="73" fill="white" transform="translate(139 57)"/>
</clipPath>
</defs>
</svg>
