<svg width="350" height="234" viewBox="0 0 350 234" fill="none" xmlns="http://www.w3.org/2000/svg">
<path d="M127.454 200V183.273H138.725V186.189H130.99V190.174H138.145V193.09H130.99V197.084H138.758V200H127.454ZM144.951 183.273V200H141.472V183.273H144.951ZM153.455 200.245C152.165 200.245 151.054 199.984 150.123 199.461C149.197 198.933 148.484 198.187 147.983 197.223C147.482 196.254 147.232 195.108 147.232 193.784C147.232 192.494 147.482 191.361 147.983 190.387C148.484 189.412 149.189 188.652 150.099 188.108C151.013 187.563 152.086 187.291 153.317 187.291C154.144 187.291 154.915 187.425 155.628 187.691C156.347 187.953 156.973 188.348 157.507 188.876C158.046 189.404 158.465 190.068 158.764 190.869C159.064 191.664 159.214 192.595 159.214 193.662V194.618H148.62V192.461H155.938C155.938 191.96 155.829 191.517 155.612 191.13C155.394 190.743 155.092 190.441 154.705 190.223C154.324 190 153.88 189.888 153.374 189.888C152.846 189.888 152.377 190.011 151.969 190.256C151.566 190.496 151.25 190.82 151.021 191.228C150.793 191.631 150.676 192.08 150.67 192.576V194.626C150.67 195.246 150.785 195.783 151.013 196.235C151.247 196.687 151.577 197.035 152.002 197.28C152.426 197.525 152.93 197.648 153.513 197.648C153.899 197.648 154.253 197.593 154.574 197.484C154.896 197.375 155.171 197.212 155.399 196.994C155.628 196.777 155.802 196.51 155.922 196.194L159.14 196.406C158.977 197.179 158.642 197.855 158.135 198.432C157.635 199.004 156.987 199.45 156.192 199.771C155.402 200.087 154.49 200.245 153.455 200.245ZM167.153 200.245C165.867 200.245 164.762 199.973 163.836 199.428C162.916 198.878 162.208 198.116 161.713 197.141C161.223 196.167 160.978 195.045 160.978 193.776C160.978 192.491 161.226 191.364 161.721 190.395C162.222 189.42 162.933 188.661 163.853 188.116C164.773 187.566 165.867 187.291 167.136 187.291C168.231 187.291 169.189 187.49 170.011 187.887C170.833 188.285 171.484 188.843 171.963 189.562C172.442 190.281 172.706 191.125 172.756 192.094H169.472C169.38 191.468 169.135 190.964 168.737 190.583C168.345 190.196 167.83 190.003 167.193 190.003C166.654 190.003 166.183 190.15 165.78 190.444C165.383 190.732 165.073 191.154 164.849 191.71C164.626 192.265 164.514 192.938 164.514 193.727C164.514 194.528 164.623 195.208 164.841 195.769C165.064 196.33 165.377 196.757 165.78 197.051C166.183 197.346 166.654 197.493 167.193 197.493C167.591 197.493 167.948 197.411 168.263 197.248C168.585 197.084 168.849 196.847 169.056 196.537C169.268 196.221 169.407 195.843 169.472 195.402H172.756C172.701 196.36 172.44 197.204 171.971 197.934C171.509 198.658 170.869 199.224 170.052 199.632C169.235 200.041 168.269 200.245 167.153 200.245ZM181.656 187.455V190.068H174.101V187.455H181.656ZM175.816 184.449H179.296V196.145C179.296 196.466 179.345 196.717 179.443 196.896C179.541 197.071 179.677 197.193 179.851 197.264C180.031 197.335 180.238 197.37 180.472 197.37C180.635 197.37 180.799 197.356 180.962 197.329C181.125 197.297 181.251 197.272 181.338 197.256L181.885 199.845C181.711 199.899 181.466 199.962 181.15 200.033C180.834 200.109 180.45 200.155 179.998 200.172C179.16 200.204 178.425 200.093 177.793 199.837C177.167 199.581 176.679 199.183 176.331 198.644C175.982 198.105 175.811 197.424 175.816 196.602V184.449ZM183.923 200V187.455H187.296V189.643H187.427C187.655 188.865 188.039 188.277 188.578 187.879C189.117 187.476 189.738 187.275 190.44 187.275C190.615 187.275 190.803 187.286 191.004 187.308C191.205 187.329 191.382 187.359 191.535 187.397V190.485C191.372 190.436 191.146 190.392 190.857 190.354C190.568 190.316 190.304 190.297 190.065 190.297C189.553 190.297 189.095 190.408 188.693 190.632C188.295 190.85 187.979 191.154 187.745 191.547C187.516 191.939 187.402 192.391 187.402 192.902V200H183.923ZM193.334 200V187.455H196.813V200H193.334ZM195.082 185.837C194.564 185.837 194.121 185.666 193.75 185.323C193.386 184.974 193.203 184.558 193.203 184.073C193.203 183.594 193.386 183.183 193.75 182.84C194.121 182.491 194.564 182.317 195.082 182.317C195.599 182.317 196.04 182.491 196.405 182.84C196.775 183.183 196.96 183.594 196.96 184.073C196.96 184.558 196.775 184.974 196.405 185.323C196.04 185.666 195.599 185.837 195.082 185.837ZM205.269 200.245C203.984 200.245 202.878 199.973 201.953 199.428C201.032 198.878 200.325 198.116 199.829 197.141C199.339 196.167 199.094 195.045 199.094 193.776C199.094 192.491 199.342 191.364 199.837 190.395C200.338 189.42 201.049 188.661 201.969 188.116C202.889 187.566 203.984 187.291 205.252 187.291C206.347 187.291 207.305 187.49 208.127 187.887C208.95 188.285 209.6 188.843 210.079 189.562C210.559 190.281 210.823 191.125 210.872 192.094H207.588C207.496 191.468 207.251 190.964 206.853 190.583C206.461 190.196 205.947 190.003 205.31 190.003C204.771 190.003 204.3 190.15 203.897 190.444C203.499 190.732 203.189 191.154 202.965 191.71C202.742 192.265 202.631 192.938 202.631 193.727C202.631 194.528 202.739 195.208 202.957 195.769C203.181 196.33 203.494 196.757 203.897 197.051C204.3 197.346 204.771 197.493 205.31 197.493C205.707 197.493 206.064 197.411 206.38 197.248C206.701 197.084 206.965 196.847 207.172 196.537C207.384 196.221 207.523 195.843 207.588 195.402H210.872C210.817 196.36 210.556 197.204 210.088 197.934C209.625 198.658 208.985 199.224 208.168 199.632C207.351 200.041 206.385 200.245 205.269 200.245ZM213.099 200V187.455H216.579V200H213.099ZM214.847 185.837C214.33 185.837 213.886 185.666 213.516 185.323C213.151 184.974 212.969 184.558 212.969 184.073C212.969 183.594 213.151 183.183 213.516 182.84C213.886 182.491 214.33 182.317 214.847 182.317C215.365 182.317 215.806 182.491 216.17 182.84C216.541 183.183 216.726 183.594 216.726 184.073C216.726 184.558 216.541 184.974 216.17 185.323C215.806 185.666 215.365 185.837 214.847 185.837ZM222.943 200.237C222.143 200.237 221.43 200.098 220.804 199.82C220.177 199.537 219.682 199.121 219.317 198.571C218.958 198.015 218.778 197.324 218.778 196.496C218.778 195.799 218.906 195.214 219.162 194.74C219.418 194.266 219.766 193.885 220.207 193.597C220.648 193.308 221.149 193.09 221.71 192.943C222.276 192.796 222.87 192.693 223.491 192.633C224.22 192.557 224.808 192.486 225.255 192.42C225.701 192.35 226.025 192.246 226.227 192.11C226.428 191.974 226.529 191.772 226.529 191.506V191.457C226.529 190.939 226.366 190.539 226.039 190.256C225.718 189.973 225.26 189.831 224.667 189.831C224.041 189.831 223.542 189.97 223.172 190.248C222.802 190.52 222.557 190.863 222.437 191.277L219.219 191.016C219.382 190.253 219.704 189.594 220.183 189.039C220.662 188.478 221.28 188.048 222.037 187.749C222.799 187.444 223.681 187.291 224.683 187.291C225.38 187.291 226.047 187.373 226.684 187.536C227.327 187.7 227.896 187.953 228.391 188.296C228.892 188.639 229.287 189.08 229.576 189.619C229.864 190.153 230.008 190.792 230.008 191.538V200H226.709V198.26H226.611C226.409 198.652 226.14 198.998 225.802 199.298C225.465 199.592 225.059 199.823 224.585 199.992C224.111 200.155 223.564 200.237 222.943 200.237ZM223.94 197.836C224.452 197.836 224.904 197.735 225.296 197.533C225.688 197.326 225.995 197.049 226.219 196.7C226.442 196.352 226.554 195.957 226.554 195.516V194.185C226.445 194.255 226.295 194.321 226.104 194.381C225.919 194.435 225.71 194.487 225.475 194.536C225.241 194.579 225.007 194.62 224.773 194.658C224.539 194.691 224.326 194.721 224.136 194.748C223.728 194.808 223.371 194.903 223.066 195.034C222.761 195.165 222.524 195.342 222.355 195.565C222.187 195.783 222.102 196.055 222.102 196.382C222.102 196.855 222.274 197.218 222.617 197.468C222.965 197.713 223.406 197.836 223.94 197.836ZM236.187 192.747V200H232.708V187.455H236.024V189.668H236.171C236.449 188.938 236.914 188.361 237.568 187.936C238.221 187.506 239.013 187.291 239.944 187.291C240.816 187.291 241.575 187.482 242.223 187.863C242.871 188.244 243.375 188.789 243.734 189.496C244.093 190.199 244.273 191.037 244.273 192.012V200H240.794V192.633C240.799 191.865 240.603 191.266 240.206 190.836C239.808 190.4 239.261 190.183 238.564 190.183C238.096 190.183 237.682 190.283 237.323 190.485C236.969 190.686 236.691 190.98 236.489 191.367C236.293 191.748 236.193 192.208 236.187 192.747Z" fill="white"/>
<rect width="350" height="234" rx="28" fill="#0A8996"/>
<circle cx="175.5" cy="93.5" r="70.5" fill="white"/>
<path d="M43.4538 186.273H47.8153L52.4219 197.511H52.6179L57.2244 186.273H61.5859V203H58.1555V192.113H58.0167L53.6879 202.918H51.3519L47.0231 192.072H46.8842V203H43.4538V186.273ZM68.0118 203.237C67.2114 203.237 66.4981 203.098 65.8719 202.82C65.2457 202.537 64.7502 202.121 64.3854 201.571C64.026 201.015 63.8463 200.324 63.8463 199.496C63.8463 198.799 63.9743 198.214 64.2302 197.74C64.4861 197.266 64.8346 196.885 65.2757 196.597C65.7167 196.308 66.2177 196.09 66.7785 195.943C67.3448 195.796 67.9383 195.693 68.559 195.633C69.2887 195.557 69.8767 195.486 70.3232 195.42C70.7697 195.35 71.0937 195.246 71.2952 195.11C71.4967 194.974 71.5974 194.772 71.5974 194.506V194.457C71.5974 193.939 71.434 193.539 71.1073 193.256C70.7861 192.973 70.3287 192.831 69.7352 192.831C69.109 192.831 68.6108 192.97 68.2405 193.248C67.8702 193.52 67.6252 193.863 67.5054 194.277L64.2874 194.016C64.4507 193.253 64.772 192.594 65.2512 192.039C65.7303 191.478 66.3483 191.048 67.1052 190.749C67.8675 190.444 68.7496 190.291 69.7515 190.291C70.4485 190.291 71.1155 190.373 71.7526 190.536C72.3951 190.7 72.9641 190.953 73.4596 191.296C73.9606 191.639 74.3553 192.08 74.6439 192.619C74.9325 193.153 75.0768 193.792 75.0768 194.538V203H71.7771V201.26H71.6791C71.4776 201.652 71.2081 201.998 70.8705 202.298C70.5329 202.592 70.1272 202.823 69.6535 202.992C69.1798 203.155 68.6325 203.237 68.0118 203.237ZM69.0083 200.836C69.5201 200.836 69.972 200.735 70.3641 200.533C70.7561 200.326 71.0638 200.049 71.287 199.7C71.5103 199.352 71.6219 198.957 71.6219 198.516V197.185C71.513 197.255 71.3633 197.321 71.1727 197.381C70.9875 197.435 70.7779 197.487 70.5438 197.536C70.3096 197.579 70.0755 197.62 69.8414 197.658C69.6072 197.691 69.3949 197.721 69.2043 197.748C68.7959 197.808 68.4392 197.903 68.1343 198.034C67.8294 198.165 67.5925 198.342 67.4237 198.565C67.2549 198.783 67.1705 199.055 67.1705 199.382C67.1705 199.855 67.3421 200.218 67.6851 200.468C68.0336 200.713 68.4746 200.836 69.0083 200.836ZM77.7762 203V190.455H81.2556V203H77.7762ZM79.5241 188.837C79.0068 188.837 78.563 188.666 78.1927 188.323C77.8279 187.974 77.6455 187.558 77.6455 187.073C77.6455 186.594 77.8279 186.183 78.1927 185.84C78.563 185.491 79.0068 185.317 79.5241 185.317C80.0413 185.317 80.4824 185.491 80.8472 185.84C81.2175 186.183 81.4026 186.594 81.4026 187.073C81.4026 187.558 81.2175 187.974 80.8472 188.323C80.4824 188.666 80.0413 188.837 79.5241 188.837ZM87.5222 195.747V203H84.0428V190.455H87.3588V192.668H87.5059C87.7836 191.938 88.2491 191.361 88.9025 190.936C89.5559 190.506 90.3482 190.291 91.2793 190.291C92.1505 190.291 92.9101 190.482 93.5581 190.863C94.206 191.244 94.7097 191.789 95.0691 192.496C95.4284 193.199 95.6081 194.037 95.6081 195.012V203H92.1287V195.633C92.1342 194.865 91.9382 194.266 91.5407 193.836C91.1432 193.4 90.5959 193.183 89.899 193.183C89.4307 193.183 89.0169 193.283 88.6575 193.485C88.3036 193.686 88.0259 193.98 87.8244 194.367C87.6284 194.748 87.5276 195.208 87.5222 195.747ZM105.023 190.455V193.068H97.4683V190.455H105.023ZM99.1835 187.449H102.663V199.145C102.663 199.466 102.712 199.717 102.81 199.896C102.908 200.071 103.044 200.193 103.218 200.264C103.398 200.335 103.605 200.37 103.839 200.37C104.002 200.37 104.166 200.356 104.329 200.329C104.492 200.297 104.618 200.272 104.705 200.256L105.252 202.845C105.078 202.899 104.833 202.962 104.517 203.033C104.201 203.109 103.817 203.155 103.365 203.172C102.527 203.204 101.792 203.093 101.16 202.837C100.534 202.581 100.047 202.183 99.6981 201.644C99.3496 201.105 99.1781 200.424 99.1835 199.602V187.449ZM112.872 203.245C111.582 203.245 110.471 202.984 109.54 202.461C108.614 201.933 107.901 201.187 107.4 200.223C106.899 199.254 106.649 198.108 106.649 196.784C106.649 195.494 106.899 194.361 107.4 193.387C107.901 192.412 108.606 191.652 109.516 191.108C110.43 190.563 111.503 190.291 112.734 190.291C113.561 190.291 114.332 190.425 115.045 190.691C115.764 190.953 116.39 191.348 116.924 191.876C117.463 192.404 117.882 193.068 118.181 193.869C118.481 194.664 118.631 195.595 118.631 196.662V197.618H108.037V195.461H115.355C115.355 194.96 115.246 194.517 115.029 194.13C114.811 193.743 114.509 193.441 114.122 193.223C113.741 193 113.297 192.888 112.791 192.888C112.263 192.888 111.794 193.011 111.386 193.256C110.983 193.496 110.667 193.82 110.438 194.228C110.21 194.631 110.093 195.08 110.087 195.576V197.626C110.087 198.246 110.202 198.783 110.43 199.235C110.664 199.687 110.994 200.035 111.419 200.28C111.843 200.525 112.347 200.648 112.93 200.648C113.316 200.648 113.67 200.593 113.991 200.484C114.313 200.375 114.588 200.212 114.816 199.994C115.045 199.777 115.219 199.51 115.339 199.194L118.557 199.406C118.394 200.179 118.059 200.855 117.552 201.432C117.052 202.004 116.404 202.45 115.609 202.771C114.819 203.087 113.907 203.245 112.872 203.245ZM124.381 195.747V203H120.901V190.455H124.217V192.668H124.364C124.642 191.938 125.108 191.361 125.761 190.936C126.414 190.506 127.207 190.291 128.138 190.291C129.009 190.291 129.768 190.482 130.416 190.863C131.064 191.244 131.568 191.789 131.927 192.496C132.287 193.199 132.467 194.037 132.467 195.012V203H128.987V195.633C128.993 194.865 128.797 194.266 128.399 193.836C128.002 193.4 127.454 193.183 126.757 193.183C126.289 193.183 125.875 193.283 125.516 193.485C125.162 193.686 124.884 193.98 124.683 194.367C124.487 194.748 124.386 195.208 124.381 195.747ZM138.786 203.237C137.986 203.237 137.272 203.098 136.646 202.82C136.02 202.537 135.525 202.121 135.16 201.571C134.8 201.015 134.621 200.324 134.621 199.496C134.621 198.799 134.749 198.214 135.005 197.74C135.261 197.266 135.609 196.885 136.05 196.597C136.491 196.308 136.992 196.09 137.553 195.943C138.119 195.796 138.713 195.693 139.333 195.633C140.063 195.557 140.651 195.486 141.098 195.42C141.544 195.35 141.868 195.246 142.07 195.11C142.271 194.974 142.372 194.772 142.372 194.506V194.457C142.372 193.939 142.208 193.539 141.882 193.256C141.56 192.973 141.103 192.831 140.51 192.831C139.883 192.831 139.385 192.97 139.015 193.248C138.645 193.52 138.4 193.863 138.28 194.277L135.062 194.016C135.225 193.253 135.546 192.594 136.026 192.039C136.505 191.478 137.123 191.048 137.88 190.749C138.642 190.444 139.524 190.291 140.526 190.291C141.223 190.291 141.89 190.373 142.527 190.536C143.17 190.7 143.739 190.953 144.234 191.296C144.735 191.639 145.13 192.08 145.418 192.619C145.707 193.153 145.851 193.792 145.851 194.538V203H142.551V201.26H142.453C142.252 201.652 141.982 201.998 141.645 202.298C141.307 202.592 140.902 202.823 140.428 202.992C139.954 203.155 139.407 203.237 138.786 203.237ZM139.783 200.836C140.295 200.836 140.746 200.735 141.138 200.533C141.531 200.326 141.838 200.049 142.061 199.7C142.285 199.352 142.396 198.957 142.396 198.516V197.185C142.287 197.255 142.138 197.321 141.947 197.381C141.762 197.435 141.552 197.487 141.318 197.536C141.084 197.579 140.85 197.62 140.616 197.658C140.382 197.691 140.169 197.721 139.979 197.748C139.57 197.808 139.214 197.903 138.909 198.034C138.604 198.165 138.367 198.342 138.198 198.565C138.029 198.783 137.945 199.055 137.945 199.382C137.945 199.855 138.116 200.218 138.46 200.468C138.808 200.713 139.249 200.836 139.783 200.836ZM152.03 195.747V203H148.551V190.455H151.867V192.668H152.014C152.291 191.938 152.757 191.361 153.41 190.936C154.064 190.506 154.856 190.291 155.787 190.291C156.658 190.291 157.418 190.482 158.066 190.863C158.714 191.244 159.218 191.789 159.577 192.496C159.936 193.199 160.116 194.037 160.116 195.012V203H156.637V195.633C156.642 194.865 156.446 194.266 156.048 193.836C155.651 193.4 155.104 193.183 154.407 193.183C153.939 193.183 153.525 193.283 153.165 193.485C152.811 193.686 152.534 193.98 152.332 194.367C152.136 194.748 152.035 195.208 152.03 195.747ZM168.527 203.245C167.242 203.245 166.136 202.973 165.21 202.428C164.29 201.878 163.582 201.116 163.087 200.141C162.597 199.167 162.352 198.045 162.352 196.776C162.352 195.491 162.6 194.364 163.095 193.395C163.596 192.42 164.307 191.661 165.227 191.116C166.147 190.566 167.242 190.291 168.51 190.291C169.605 190.291 170.563 190.49 171.385 190.887C172.207 191.285 172.858 191.843 173.337 192.562C173.816 193.281 174.081 194.125 174.13 195.094H170.846C170.754 194.468 170.509 193.964 170.111 193.583C169.719 193.196 169.204 193.003 168.567 193.003C168.028 193.003 167.557 193.15 167.154 193.444C166.757 193.732 166.447 194.154 166.223 194.71C166 195.265 165.888 195.938 165.888 196.727C165.888 197.528 165.997 198.208 166.215 198.769C166.438 199.33 166.751 199.757 167.154 200.051C167.557 200.346 168.028 200.493 168.567 200.493C168.965 200.493 169.322 200.411 169.637 200.248C169.959 200.084 170.223 199.847 170.43 199.537C170.642 199.221 170.781 198.843 170.846 198.402H174.13C174.075 199.36 173.814 200.204 173.345 200.934C172.883 201.658 172.243 202.224 171.426 202.632C170.609 203.041 169.643 203.245 168.527 203.245ZM182.075 203.245C180.784 203.245 179.673 202.984 178.742 202.461C177.817 201.933 177.103 201.187 176.602 200.223C176.101 199.254 175.851 198.108 175.851 196.784C175.851 195.494 176.101 194.361 176.602 193.387C177.103 192.412 177.808 191.652 178.718 191.108C179.632 190.563 180.705 190.291 181.936 190.291C182.763 190.291 183.534 190.425 184.247 190.691C184.966 190.953 185.592 191.348 186.126 191.876C186.665 192.404 187.084 193.068 187.384 193.869C187.683 194.664 187.833 195.595 187.833 196.662V197.618H177.239V195.461H184.558C184.558 194.96 184.449 194.517 184.231 194.13C184.013 193.743 183.711 193.441 183.324 193.223C182.943 193 182.499 192.888 181.993 192.888C181.465 192.888 180.996 193.011 180.588 193.256C180.185 193.496 179.869 193.82 179.641 194.228C179.412 194.631 179.295 195.08 179.289 195.576V197.626C179.289 198.246 179.404 198.783 179.632 199.235C179.867 199.687 180.196 200.035 180.621 200.28C181.045 200.525 181.549 200.648 182.132 200.648C182.518 200.648 182.872 200.593 183.194 200.484C183.515 200.375 183.79 200.212 184.018 199.994C184.247 199.777 184.421 199.51 184.541 199.194L187.759 199.406C187.596 200.179 187.261 200.855 186.755 201.432C186.254 202.004 185.606 202.45 184.811 202.771C184.021 203.087 183.109 203.245 182.075 203.245ZM210.251 192.129H206.673C206.608 191.666 206.475 191.255 206.273 190.896C206.072 190.531 205.813 190.22 205.497 189.964C205.181 189.709 204.817 189.513 204.403 189.376C203.994 189.24 203.551 189.172 203.071 189.172C202.206 189.172 201.452 189.387 200.809 189.817C200.167 190.242 199.668 190.863 199.314 191.68C198.96 192.491 198.783 193.477 198.783 194.636C198.783 195.829 198.96 196.831 199.314 197.642C199.674 198.453 200.175 199.066 200.817 199.48C201.46 199.894 202.203 200.1 203.047 200.1C203.521 200.1 203.959 200.038 204.362 199.913C204.77 199.787 205.132 199.605 205.448 199.365C205.764 199.12 206.025 198.824 206.232 198.475C206.445 198.127 206.592 197.729 206.673 197.283L210.251 197.299C210.158 198.067 209.927 198.807 209.557 199.521C209.192 200.228 208.699 200.863 208.078 201.424C207.463 201.979 206.728 202.42 205.873 202.747C205.024 203.068 204.062 203.229 202.99 203.229C201.498 203.229 200.164 202.891 198.988 202.216C197.817 201.541 196.891 200.563 196.211 199.284C195.535 198.004 195.198 196.455 195.198 194.636C195.198 192.812 195.541 191.26 196.227 189.981C196.913 188.701 197.844 187.727 199.02 187.057C200.196 186.382 201.52 186.044 202.99 186.044C203.959 186.044 204.857 186.18 205.685 186.452C206.518 186.725 207.256 187.122 207.899 187.645C208.541 188.162 209.064 188.797 209.467 189.548C209.875 190.299 210.136 191.16 210.251 192.129ZM216.201 195.747V203H212.722V186.273H216.103V192.668H216.25C216.533 191.927 216.99 191.348 217.622 190.928C218.254 190.504 219.046 190.291 219.999 190.291C220.87 190.291 221.63 190.482 222.278 190.863C222.931 191.239 223.437 191.78 223.797 192.488C224.162 193.191 224.341 194.032 224.336 195.012V203H220.856V195.633C220.862 194.86 220.666 194.258 220.268 193.828C219.876 193.398 219.326 193.183 218.619 193.183C218.145 193.183 217.726 193.283 217.361 193.485C217.001 193.686 216.718 193.98 216.511 194.367C216.31 194.748 216.206 195.208 216.201 195.747ZM232.791 203.245C231.501 203.245 230.39 202.984 229.459 202.461C228.533 201.933 227.82 201.187 227.319 200.223C226.818 199.254 226.568 198.108 226.568 196.784C226.568 195.494 226.818 194.361 227.319 193.387C227.82 192.412 228.525 191.652 229.434 191.108C230.349 190.563 231.422 190.291 232.653 190.291C233.48 190.291 234.251 190.425 234.964 190.691C235.683 190.953 236.309 191.348 236.843 191.876C237.382 192.404 237.801 193.068 238.1 193.869C238.4 194.664 238.55 195.595 238.55 196.662V197.618H227.956V195.461H235.274C235.274 194.96 235.165 194.517 234.948 194.13C234.73 193.743 234.428 193.441 234.041 193.223C233.66 193 233.216 192.888 232.71 192.888C232.182 192.888 231.713 193.011 231.305 193.256C230.902 193.496 230.586 193.82 230.357 194.228C230.129 194.631 230.012 195.08 230.006 195.576V197.626C230.006 198.246 230.121 198.783 230.349 199.235C230.583 199.687 230.913 200.035 231.338 200.28C231.762 200.525 232.266 200.648 232.849 200.648C233.235 200.648 233.589 200.593 233.91 200.484C234.232 200.375 234.507 200.212 234.735 199.994C234.964 199.777 235.138 199.51 235.258 199.194L238.476 199.406C238.313 200.179 237.978 200.855 237.471 201.432C236.97 202.004 236.323 202.45 235.528 202.771C234.738 203.087 233.826 203.245 232.791 203.245ZM246.488 203.245C245.203 203.245 244.098 202.973 243.172 202.428C242.252 201.878 241.544 201.116 241.049 200.141C240.559 199.167 240.314 198.045 240.314 196.776C240.314 195.491 240.561 194.364 241.057 193.395C241.558 192.42 242.269 191.661 243.189 191.116C244.109 190.566 245.203 190.291 246.472 190.291C247.567 190.291 248.525 190.49 249.347 190.887C250.169 191.285 250.82 191.843 251.299 192.562C251.778 193.281 252.042 194.125 252.091 195.094H248.808C248.715 194.468 248.47 193.964 248.073 193.583C247.681 193.196 247.166 193.003 246.529 193.003C245.99 193.003 245.519 193.15 245.116 193.444C244.719 193.732 244.408 194.154 244.185 194.71C243.962 195.265 243.85 195.938 243.85 196.727C243.85 197.528 243.959 198.208 244.177 198.769C244.4 199.33 244.713 199.757 245.116 200.051C245.519 200.346 245.99 200.493 246.529 200.493C246.927 200.493 247.283 200.411 247.599 200.248C247.921 200.084 248.185 199.847 248.392 199.537C248.604 199.221 248.743 198.843 248.808 198.402H252.091C252.037 199.36 251.776 200.204 251.307 200.934C250.845 201.658 250.205 202.224 249.388 202.632C248.571 203.041 247.605 203.245 246.488 203.245ZM257.472 199.39L257.48 195.216H257.986L262.005 190.455H265.999L260.6 196.76H259.775L257.472 199.39ZM254.319 203V186.273H257.799V203H254.319ZM262.16 203L258.468 197.536L260.788 195.077L266.236 203H262.16ZM271.185 186.273V203H267.706V186.273H271.185ZM273.972 203V190.455H277.452V203H273.972ZM275.72 188.837C275.203 188.837 274.759 188.666 274.389 188.323C274.024 187.974 273.842 187.558 273.842 187.073C273.842 186.594 274.024 186.183 274.389 185.84C274.759 185.491 275.203 185.317 275.72 185.317C276.238 185.317 276.679 185.491 277.044 185.84C277.414 186.183 277.599 186.594 277.599 187.073C277.599 187.558 277.414 187.974 277.044 188.323C276.679 188.666 276.238 188.837 275.72 188.837ZM290.677 194.032L287.492 194.228C287.437 193.956 287.32 193.711 287.141 193.493C286.961 193.27 286.724 193.093 286.43 192.962C286.142 192.826 285.796 192.758 285.393 192.758C284.854 192.758 284.399 192.872 284.029 193.101C283.659 193.324 283.473 193.624 283.473 193.999C283.473 194.299 283.593 194.552 283.833 194.759C284.072 194.966 284.484 195.132 285.066 195.257L287.337 195.714C288.556 195.965 289.466 196.368 290.065 196.923C290.664 197.479 290.963 198.208 290.963 199.112C290.963 199.934 290.721 200.656 290.236 201.277C289.757 201.897 289.098 202.382 288.26 202.73C287.427 203.074 286.466 203.245 285.377 203.245C283.716 203.245 282.393 202.899 281.407 202.208C280.427 201.511 279.852 200.563 279.684 199.365L283.106 199.186C283.209 199.692 283.46 200.079 283.857 200.346C284.255 200.607 284.764 200.738 285.385 200.738C285.995 200.738 286.485 200.621 286.855 200.386C287.231 200.147 287.421 199.839 287.427 199.463C287.421 199.148 287.288 198.889 287.026 198.688C286.765 198.481 286.362 198.323 285.818 198.214L283.645 197.781C282.42 197.536 281.508 197.111 280.909 196.507C280.315 195.902 280.019 195.132 280.019 194.195C280.019 193.389 280.236 192.695 280.672 192.113C281.113 191.53 281.731 191.081 282.526 190.765C283.326 190.449 284.263 190.291 285.336 190.291C286.92 190.291 288.167 190.626 289.076 191.296C289.991 191.966 290.525 192.878 290.677 194.032ZM299.827 190.455V193.068H292.272V190.455H299.827ZM293.987 187.449H297.467V199.145C297.467 199.466 297.516 199.717 297.614 199.896C297.712 200.071 297.848 200.193 298.022 200.264C298.202 200.335 298.409 200.37 298.643 200.37C298.806 200.37 298.969 200.356 299.133 200.329C299.296 200.297 299.421 200.272 299.509 200.256L300.056 202.845C299.882 202.899 299.636 202.962 299.321 203.033C299.005 203.109 298.621 203.155 298.169 203.172C297.33 203.204 296.595 203.093 295.964 202.837C295.338 202.581 294.85 202.183 294.502 201.644C294.153 201.105 293.982 200.424 293.987 199.602V187.449Z" fill="white"/>
<g clip-path="url(#clip0_5924_1443)">
<path d="M132.467 51.4667H191.133V136.533H132.467V51.4667Z" fill="#A1D1D1"/>
<path d="M179.312 113.991L176.481 119.139L177.655 123.128L181.629 121.969L184.46 116.821L183.287 112.832L179.312 113.991Z" fill="#A2A3A5"/>
<path d="M206.709 57.7293L194.727 79.7147L198.1 85.7867L204.993 85.3907L216.976 63.4053L213.603 57.3333L206.709 57.7293Z" fill="#A2A3A5"/>
<path d="M138.333 55.8667H185.266V74.9333H138.333V55.8667Z" fill="#D1CC18"/>
<path d="M145.667 55.8667H185.267V74.9333H145.667V55.8667Z" fill="#E2D85D"/>
<path d="M188.552 76.5907L187.892 66.72L179.649 61.3373L181.35 67.1747L184.108 68.964L183.8 74.2733L181.277 75.7693L176.525 73.452L176.305 70.1667L172.066 65.8253L172.741 75.696L180.984 81.0787L201.048 115.413L201.708 125.284L209.95 130.667L208.249 124.829L205.492 123.04L205.8 117.731L208.322 116.235L213.074 118.552L213.294 121.837L217.533 126.179L216.858 116.308L208.616 110.925L188.552 76.5907Z" fill="#A2A3A5"/>
<path d="M132.467 138H191.133C191.944 138 192.6 137.344 192.6 136.533V103.871L199.596 115.853L200.241 125.387C200.272 125.845 200.516 126.265 200.901 126.516L209.159 131.899C209.395 132.051 209.67 132.133 209.951 132.133C210.268 132.133 210.578 132.031 210.831 131.84C211.32 131.473 211.529 130.843 211.359 130.256L209.657 124.389C209.555 124.056 209.337 123.77 209.041 123.583L207.003 122.248L207.267 118.596L208.44 117.892L211.667 119.491L211.828 121.94C211.855 122.288 212.006 122.617 212.253 122.864L216.477 127.264C216.91 127.706 217.572 127.829 218.135 127.572C218.707 127.317 219.053 126.729 219 126.105L218.325 116.235C218.294 115.776 218.05 115.356 217.665 115.105L209.716 109.913L197.777 89.468L199.024 87.2093L205.081 86.8573C205.587 86.828 206.042 86.5402 206.284 86.0947L218.267 64.0947C218.529 63.64 218.529 63.0827 218.267 62.628L214.893 56.6147C214.617 56.1197 214.079 55.8282 213.515 55.8667L206.621 56.2627C206.115 56.292 205.661 56.5798 205.419 57.0253L193.436 79.0253C193.174 79.48 193.174 80.0373 193.436 80.492L196.369 85.8747L195.988 86.5787L192.527 80.712V51.4667C192.527 50.6563 191.87 50 191.06 50H132.467C131.656 50 131 50.6563 131 51.4667V136.533C131 137.344 131.656 138 132.467 138ZM207.604 59.152L212.767 58.8L215.304 63.3613L204.099 83.8947L198.936 84.2027L196.399 79.6413L207.604 59.152ZM207.824 112.157L215.451 117.129L215.803 122.307L214.717 121.207L214.6 118.449C214.563 117.925 214.25 117.461 213.779 117.232L209.027 114.915C208.592 114.68 208.068 114.68 207.633 114.915L205.111 116.381C204.691 116.629 204.421 117.069 204.392 117.555L204.099 122.864C204.066 123.39 204.317 123.894 204.759 124.184L207.047 125.651L207.487 127.117L203.175 124.301L202.559 115.164C202.546 114.937 202.48 114.717 202.368 114.519L182.245 80.3453C182.13 80.1492 181.974 79.9805 181.791 79.8467L174.149 74.9333L173.797 69.7707L174.883 70.8707L175 73.5547C175.037 74.079 175.35 74.5428 175.821 74.772L180.573 77.0893C181.008 77.324 181.532 77.324 181.967 77.0893L184.489 75.6227C184.909 75.3752 185.179 74.9352 185.208 74.4493L185.56 69.0667C185.593 68.5405 185.342 68.0363 184.9 67.7467L182.612 66.28L182.172 64.8133L186.484 67.6L187.1 76.7373C187.113 76.9647 187.179 77.1847 187.291 77.3827L207.355 111.6C207.461 111.822 207.622 112.014 207.824 112.157ZM171.465 64.4907C170.893 64.7455 170.547 65.334 170.6 65.9573L171.113 73.4667H139.8V57.3333H183.8V62.2907L180.441 60.1053C179.939 59.757 179.272 59.757 178.769 60.1053C178.262 60.4775 178.049 61.1338 178.241 61.7333L179.943 67.6C180.045 67.9337 180.264 68.2197 180.559 68.4067L182.597 69.7413L182.333 73.4667L181.16 74.1707L177.933 72.4987L177.772 70.064C177.744 69.7157 177.594 69.3875 177.347 69.14L173.123 64.74C172.677 64.3183 172.015 64.2193 171.465 64.4907ZM133.933 52.9333H189.667V71.2227L189.359 66.6173C189.328 66.159 189.084 65.7392 188.699 65.488L186.733 64.212V55.8667C186.733 55.0563 186.077 54.4 185.267 54.4H138.333C137.523 54.4 136.867 55.0563 136.867 55.8667V74.9333C136.867 75.7437 137.523 76.4 138.333 76.4H171.465C171.572 76.6145 171.735 76.796 171.935 76.928L179.884 82.12L189.476 98.5173L182.333 111.6L178.931 112.597C178.559 112.702 178.241 112.949 178.051 113.287L175.235 118.435C175.044 118.774 174.996 119.175 175.103 119.549L176.276 123.539C176.465 124.186 177.07 124.622 177.743 124.595C177.878 124.608 178.018 124.608 178.153 124.595L182.04 123.333C182.416 123.225 182.733 122.972 182.92 122.629L185.736 117.467C185.921 117.126 185.963 116.724 185.853 116.352L184.871 113.067L189.667 104.267V135.067H133.933V52.9333ZM182.876 116.645L180.632 120.723L178.652 121.309L178.065 119.315L180.309 115.237L182.289 114.651L182.876 116.645Z" fill="black"/>
<path d="M150.483 95.9983H142.171C141.252 95.9983 140.508 95.254 140.508 94.3355V86.0232C140.508 85.1047 141.252 84.3603 142.171 84.3603H150.483C151.401 84.3603 152.146 85.1047 152.146 86.0232V94.3355C152.146 95.254 151.401 95.9983 150.483 95.9983Z" fill="#B3E59F"/>
<path d="M150.622 84.3677C150.641 84.5987 150.648 84.8315 150.648 85.068C150.648 90.095 146.572 94.1705 141.545 94.1705C141.193 94.1705 140.847 94.1503 140.506 94.1118V94.3373C140.506 95.2558 141.25 96.0002 142.169 96.0002H150.481C151.4 96.0002 152.144 95.2558 152.144 94.3373V86.0232C152.144 85.1523 151.473 84.4392 150.62 84.3677H150.622Z" fill="#95D6A4"/>
<path d="M150.483 111.362H142.171C141.252 111.362 140.508 110.617 140.508 109.699V101.386C140.508 100.468 141.252 99.7236 142.171 99.7236H150.483C151.401 99.7236 152.146 100.468 152.146 101.386V109.699C152.146 110.617 151.401 111.362 150.483 111.362Z" fill="#B3E59F"/>
<path d="M150.622 99.7291C150.641 99.9601 150.648 100.193 150.648 100.429C150.648 105.456 146.572 109.532 141.545 109.532C141.193 109.532 140.847 109.512 140.506 109.473V109.699C140.506 110.617 141.25 111.362 142.169 111.362H150.481C151.4 111.362 152.144 110.617 152.144 109.699V101.386C152.144 100.516 151.473 99.8025 150.62 99.731L150.622 99.7291Z" fill="#95D6A4"/>
<path d="M150.483 126.723H142.171C141.252 126.723 140.508 125.979 140.508 125.06V116.748C140.508 115.829 141.252 115.085 142.171 115.085H150.483C151.401 115.085 152.146 115.829 152.146 116.748V125.06C152.146 125.979 151.401 126.723 150.483 126.723Z" fill="#B3E59F"/>
<path d="M150.622 115.092C150.641 115.323 150.648 115.556 150.648 115.793C150.648 120.82 146.572 124.895 141.545 124.895C141.193 124.895 140.847 124.875 140.506 124.837V125.062C140.506 125.981 141.25 126.725 142.169 126.725H150.481C151.4 126.725 152.144 125.981 152.144 125.062V116.75C152.144 115.879 151.473 115.166 150.62 115.094L150.622 115.092Z" fill="#95D6A4"/>
<path d="M153.009 86.0232C153.009 84.6298 151.876 83.4968 150.483 83.4968H142.169C140.776 83.4968 139.643 84.6298 139.643 86.0232V94.3355C139.643 95.7288 140.776 96.8618 142.169 96.8618H150.481C151.875 96.8618 153.008 95.7288 153.008 94.3355V86.0232H153.009ZM151.281 94.3355C151.281 94.7755 150.923 95.1348 150.481 95.1348H142.169C141.729 95.1348 141.37 94.7773 141.37 94.3355V86.0232C141.37 85.5832 141.727 85.2238 142.169 85.2238H150.481C150.921 85.2238 151.281 85.5813 151.281 86.0232V94.3355Z" fill="black"/>
<path d="M148.043 88.0948L145.706 90.4323L144.842 89.5688C144.505 89.2315 143.957 89.2315 143.619 89.5688C143.282 89.9062 143.282 90.4543 143.619 90.7917L145.093 92.2657C145.255 92.427 145.475 92.5187 145.704 92.5187C145.933 92.5187 146.153 92.427 146.314 92.2657L149.262 89.3177C149.6 88.9803 149.6 88.4322 149.262 88.0948C148.925 87.7575 148.377 87.7575 148.039 88.0948H148.043Z" fill="black"/>
<path d="M153.009 101.385C153.009 99.9913 151.876 98.8583 150.483 98.8583H142.169C140.776 98.8583 139.643 99.9913 139.643 101.385V109.697C139.643 111.09 140.776 112.223 142.169 112.223H150.481C151.875 112.223 153.008 111.09 153.008 109.697V101.385H153.009ZM151.281 109.697C151.281 110.137 150.923 110.496 150.481 110.496H142.169C141.729 110.496 141.37 110.139 141.37 109.697V101.385C141.37 100.945 141.727 100.585 142.169 100.585H150.481C150.921 100.585 151.281 100.943 151.281 101.385V109.697Z" fill="black"/>
<path d="M148.043 103.456L145.706 105.794L144.842 104.93C144.505 104.593 143.957 104.593 143.619 104.93C143.282 105.268 143.282 105.816 143.619 106.153L145.093 107.627C145.262 107.796 145.484 107.88 145.704 107.88C145.924 107.88 146.146 107.796 146.314 107.627L149.262 104.679C149.6 104.342 149.6 103.794 149.262 103.456C148.925 103.119 148.379 103.119 148.039 103.456H148.043Z" fill="black"/>
<path d="M150.483 114.222H142.169C140.776 114.222 139.643 115.355 139.643 116.748V125.06C139.643 126.454 140.776 127.587 142.169 127.587H150.481C151.875 127.587 153.008 126.454 153.008 125.06V116.748C153.008 115.355 151.875 114.222 150.481 114.222H150.483ZM151.282 125.062C151.282 125.502 150.925 125.861 150.483 125.861H142.169C141.729 125.861 141.37 125.504 141.37 125.062V116.75C141.37 116.31 141.727 115.95 142.169 115.95H150.481C150.921 115.95 151.281 116.308 151.281 116.75V125.062H151.282Z" fill="black"/>
<path d="M148.043 118.82L145.706 121.157L144.842 120.294C144.505 119.956 143.957 119.956 143.619 120.294C143.282 120.631 143.282 121.179 143.619 121.516L145.093 122.99C145.262 123.159 145.484 123.243 145.704 123.243C145.924 123.243 146.146 123.159 146.314 122.99L149.262 120.042C149.6 119.705 149.6 119.157 149.262 118.82C148.925 118.482 148.377 118.482 148.039 118.82H148.043Z" fill="black"/>
<path d="M169.616 94H157.289C156.577 94 156 94.577 156 95.2891C156 96.0011 156.577 96.5781 157.289 96.5781H169.616C170.328 96.5781 170.905 96.0011 170.905 95.2891C170.905 94.577 170.328 94 169.616 94Z" fill="black"/>
<path d="M169.616 107H157.289C156.577 107 156 107.577 156 108.289C156 109.001 156.577 109.578 157.289 109.578H169.616C170.328 109.578 170.905 109.001 170.905 108.289C170.905 107.577 170.328 107 169.616 107Z" fill="black"/>
<path d="M169.616 123H157.289C156.577 123 156 123.577 156 124.289C156 125.001 156.577 125.578 157.289 125.578H169.616C170.328 125.578 170.905 125.001 170.905 124.289C170.905 123.577 170.328 123 169.616 123Z" fill="black"/>
<path d="M157.289 90.5781H163.887C164.599 90.5781 165.176 90.0011 165.176 89.2891C165.176 88.577 164.599 88 163.887 88H157.289C156.577 88 156 88.577 156 89.2891C156 90.0011 156.577 90.5781 157.289 90.5781Z" fill="black"/>
<path d="M157.289 103.578H163.887C164.599 103.578 165.176 103.001 165.176 102.289C165.176 101.577 164.599 101 163.887 101H157.289C156.577 101 156 101.577 156 102.289C156 103.001 156.577 103.578 157.289 103.578Z" fill="black"/>
<path d="M157.289 119.578H163.887C164.599 119.578 165.176 119.001 165.176 118.289C165.176 117.577 164.599 117 163.887 117H157.289C156.577 117 156 117.577 156 118.289C156 119.001 156.577 119.578 157.289 119.578Z" fill="black"/>
<path d="M169.289 90.5781H175.887C176.599 90.5781 177.176 90.0011 177.176 89.2891C177.176 88.577 176.599 88 175.887 88H169.289C168.577 88 168 88.577 168 89.2891C168 90.0011 168.577 90.5781 169.289 90.5781Z" fill="black"/>
<path d="M169.289 103.578H175.887C176.599 103.578 177.176 103.001 177.176 102.289C177.176 101.577 176.599 101 175.887 101H169.289C168.577 101 168 101.577 168 102.289C168 103.001 168.577 103.578 169.289 103.578Z" fill="black"/>
</g>
<defs>
<clipPath id="clip0_5924_1443">
<rect width="88.0055" height="88" fill="white" transform="translate(131 50)"/>
</clipPath>
</defs>
</svg>
