<svg width="350" height="234" viewBox="0 0 350 234" fill="none" xmlns="http://www.w3.org/2000/svg">
<path d="M127.454 200V183.273H138.725V186.189H130.99V190.174H138.145V193.09H130.99V197.084H138.758V200H127.454ZM144.951 183.273V200H141.472V183.273H144.951ZM153.455 200.245C152.165 200.245 151.054 199.984 150.123 199.461C149.197 198.933 148.484 198.187 147.983 197.223C147.482 196.254 147.232 195.108 147.232 193.784C147.232 192.494 147.482 191.361 147.983 190.387C148.484 189.412 149.189 188.652 150.099 188.108C151.013 187.563 152.086 187.291 153.317 187.291C154.144 187.291 154.915 187.425 155.628 187.691C156.347 187.953 156.973 188.348 157.507 188.876C158.046 189.404 158.465 190.068 158.764 190.869C159.064 191.664 159.214 192.595 159.214 193.662V194.618H148.62V192.461H155.938C155.938 191.96 155.829 191.517 155.612 191.13C155.394 190.743 155.092 190.441 154.705 190.223C154.324 190 153.88 189.888 153.374 189.888C152.846 189.888 152.377 190.011 151.969 190.256C151.566 190.496 151.25 190.82 151.021 191.228C150.793 191.631 150.676 192.08 150.67 192.576V194.626C150.67 195.246 150.785 195.783 151.013 196.235C151.247 196.687 151.577 197.035 152.002 197.28C152.426 197.525 152.93 197.648 153.513 197.648C153.899 197.648 154.253 197.593 154.574 197.484C154.896 197.375 155.171 197.212 155.399 196.994C155.628 196.777 155.802 196.51 155.922 196.194L159.14 196.406C158.977 197.179 158.642 197.855 158.135 198.432C157.635 199.004 156.987 199.45 156.192 199.771C155.402 200.087 154.49 200.245 153.455 200.245ZM167.153 200.245C165.867 200.245 164.762 199.973 163.836 199.428C162.916 198.878 162.208 198.116 161.713 197.141C161.223 196.167 160.978 195.045 160.978 193.776C160.978 192.491 161.226 191.364 161.721 190.395C162.222 189.42 162.933 188.661 163.853 188.116C164.773 187.566 165.867 187.291 167.136 187.291C168.231 187.291 169.189 187.49 170.011 187.887C170.833 188.285 171.484 188.843 171.963 189.562C172.442 190.281 172.706 191.125 172.756 192.094H169.472C169.38 191.468 169.135 190.964 168.737 190.583C168.345 190.196 167.83 190.003 167.193 190.003C166.654 190.003 166.183 190.15 165.78 190.444C165.383 190.732 165.073 191.154 164.849 191.71C164.626 192.265 164.514 192.938 164.514 193.727C164.514 194.528 164.623 195.208 164.841 195.769C165.064 196.33 165.377 196.757 165.78 197.051C166.183 197.346 166.654 197.493 167.193 197.493C167.591 197.493 167.948 197.411 168.263 197.248C168.585 197.084 168.849 196.847 169.056 196.537C169.268 196.221 169.407 195.843 169.472 195.402H172.756C172.701 196.36 172.44 197.204 171.971 197.934C171.509 198.658 170.869 199.224 170.052 199.632C169.235 200.041 168.269 200.245 167.153 200.245ZM181.656 187.455V190.068H174.101V187.455H181.656ZM175.816 184.449H179.296V196.145C179.296 196.466 179.345 196.717 179.443 196.896C179.541 197.071 179.677 197.193 179.851 197.264C180.031 197.335 180.238 197.37 180.472 197.37C180.635 197.37 180.799 197.356 180.962 197.329C181.125 197.297 181.251 197.272 181.338 197.256L181.885 199.845C181.711 199.899 181.466 199.962 181.15 200.033C180.834 200.109 180.45 200.155 179.998 200.172C179.16 200.204 178.425 200.093 177.793 199.837C177.167 199.581 176.679 199.183 176.331 198.644C175.982 198.105 175.811 197.424 175.816 196.602V184.449ZM183.923 200V187.455H187.296V189.643H187.427C187.655 188.865 188.039 188.277 188.578 187.879C189.117 187.476 189.738 187.275 190.44 187.275C190.615 187.275 190.803 187.286 191.004 187.308C191.205 187.329 191.382 187.359 191.535 187.397V190.485C191.372 190.436 191.146 190.392 190.857 190.354C190.568 190.316 190.304 190.297 190.065 190.297C189.553 190.297 189.095 190.408 188.693 190.632C188.295 190.85 187.979 191.154 187.745 191.547C187.516 191.939 187.402 192.391 187.402 192.902V200H183.923ZM193.334 200V187.455H196.813V200H193.334ZM195.082 185.837C194.564 185.837 194.121 185.666 193.75 185.323C193.386 184.974 193.203 184.558 193.203 184.073C193.203 183.594 193.386 183.183 193.75 182.84C194.121 182.491 194.564 182.317 195.082 182.317C195.599 182.317 196.04 182.491 196.405 182.84C196.775 183.183 196.96 183.594 196.96 184.073C196.96 184.558 196.775 184.974 196.405 185.323C196.04 185.666 195.599 185.837 195.082 185.837ZM205.269 200.245C203.984 200.245 202.878 199.973 201.953 199.428C201.032 198.878 200.325 198.116 199.829 197.141C199.339 196.167 199.094 195.045 199.094 193.776C199.094 192.491 199.342 191.364 199.837 190.395C200.338 189.42 201.049 188.661 201.969 188.116C202.889 187.566 203.984 187.291 205.252 187.291C206.347 187.291 207.305 187.49 208.127 187.887C208.95 188.285 209.6 188.843 210.079 189.562C210.559 190.281 210.823 191.125 210.872 192.094H207.588C207.496 191.468 207.251 190.964 206.853 190.583C206.461 190.196 205.947 190.003 205.31 190.003C204.771 190.003 204.3 190.15 203.897 190.444C203.499 190.732 203.189 191.154 202.965 191.71C202.742 192.265 202.631 192.938 202.631 193.727C202.631 194.528 202.739 195.208 202.957 195.769C203.181 196.33 203.494 196.757 203.897 197.051C204.3 197.346 204.771 197.493 205.31 197.493C205.707 197.493 206.064 197.411 206.38 197.248C206.701 197.084 206.965 196.847 207.172 196.537C207.384 196.221 207.523 195.843 207.588 195.402H210.872C210.817 196.36 210.556 197.204 210.088 197.934C209.625 198.658 208.985 199.224 208.168 199.632C207.351 200.041 206.385 200.245 205.269 200.245ZM213.099 200V187.455H216.579V200H213.099ZM214.847 185.837C214.33 185.837 213.886 185.666 213.516 185.323C213.151 184.974 212.969 184.558 212.969 184.073C212.969 183.594 213.151 183.183 213.516 182.84C213.886 182.491 214.33 182.317 214.847 182.317C215.365 182.317 215.806 182.491 216.17 182.84C216.541 183.183 216.726 183.594 216.726 184.073C216.726 184.558 216.541 184.974 216.17 185.323C215.806 185.666 215.365 185.837 214.847 185.837ZM222.943 200.237C222.143 200.237 221.43 200.098 220.804 199.82C220.177 199.537 219.682 199.121 219.317 198.571C218.958 198.015 218.778 197.324 218.778 196.496C218.778 195.799 218.906 195.214 219.162 194.74C219.418 194.266 219.766 193.885 220.207 193.597C220.648 193.308 221.149 193.09 221.71 192.943C222.276 192.796 222.87 192.693 223.491 192.633C224.22 192.557 224.808 192.486 225.255 192.42C225.701 192.35 226.025 192.246 226.227 192.11C226.428 191.974 226.529 191.772 226.529 191.506V191.457C226.529 190.939 226.366 190.539 226.039 190.256C225.718 189.973 225.26 189.831 224.667 189.831C224.041 189.831 223.542 189.97 223.172 190.248C222.802 190.52 222.557 190.863 222.437 191.277L219.219 191.016C219.382 190.253 219.704 189.594 220.183 189.039C220.662 188.478 221.28 188.048 222.037 187.749C222.799 187.444 223.681 187.291 224.683 187.291C225.38 187.291 226.047 187.373 226.684 187.536C227.327 187.7 227.896 187.953 228.391 188.296C228.892 188.639 229.287 189.08 229.576 189.619C229.864 190.153 230.008 190.792 230.008 191.538V200H226.709V198.26H226.611C226.409 198.652 226.14 198.998 225.802 199.298C225.465 199.592 225.059 199.823 224.585 199.992C224.111 200.155 223.564 200.237 222.943 200.237ZM223.94 197.836C224.452 197.836 224.904 197.735 225.296 197.533C225.688 197.326 225.995 197.049 226.219 196.7C226.442 196.352 226.554 195.957 226.554 195.516V194.185C226.445 194.255 226.295 194.321 226.104 194.381C225.919 194.435 225.71 194.487 225.475 194.536C225.241 194.579 225.007 194.62 224.773 194.658C224.539 194.691 224.326 194.721 224.136 194.748C223.728 194.808 223.371 194.903 223.066 195.034C222.761 195.165 222.524 195.342 222.355 195.565C222.187 195.783 222.102 196.055 222.102 196.382C222.102 196.855 222.274 197.218 222.617 197.468C222.965 197.713 223.406 197.836 223.94 197.836ZM236.187 192.747V200H232.708V187.455H236.024V189.668H236.171C236.449 188.938 236.914 188.361 237.568 187.936C238.221 187.506 239.013 187.291 239.944 187.291C240.816 187.291 241.575 187.482 242.223 187.863C242.871 188.244 243.375 188.789 243.734 189.496C244.093 190.199 244.273 191.037 244.273 192.012V200H240.794V192.633C240.799 191.865 240.603 191.266 240.206 190.836C239.808 190.4 239.261 190.183 238.564 190.183C238.096 190.183 237.682 190.283 237.323 190.485C236.969 190.686 236.691 190.98 236.489 191.367C236.293 191.748 236.193 192.208 236.187 192.747Z" fill="white"/>
<rect width="350" height="234" rx="28" fill="#0A8996"/>
<circle cx="175.5" cy="93.5" r="70.5" fill="white"/>
<path d="M54.2127 192.129H50.6353C50.57 191.666 50.4366 191.255 50.2351 190.896C50.0336 190.531 49.775 190.22 49.4592 189.964C49.1433 189.709 48.7785 189.513 48.3647 189.376C47.9563 189.24 47.5125 189.172 47.0334 189.172C46.1676 189.172 45.4135 189.387 44.771 189.817C44.1284 190.242 43.6302 190.863 43.2763 191.68C42.9223 192.491 42.7454 193.477 42.7454 194.636C42.7454 195.829 42.9223 196.831 43.2763 197.642C43.6357 198.453 44.1366 199.066 44.7791 199.48C45.4216 199.894 46.1649 200.1 47.0089 200.1C47.4826 200.1 47.9209 200.038 48.3239 199.913C48.7322 199.787 49.0943 199.605 49.4102 199.365C49.726 199.12 49.9873 198.824 50.1942 198.475C50.4066 198.127 50.5536 197.729 50.6353 197.283L54.2127 197.299C54.1201 198.067 53.8887 198.807 53.5185 199.521C53.1536 200.228 52.6609 200.863 52.0401 201.424C51.4248 201.979 50.6897 202.42 49.8349 202.747C48.9854 203.068 48.0244 203.229 46.9517 203.229C45.4598 203.229 44.1257 202.891 42.9496 202.216C41.7789 201.541 40.8532 200.563 40.1726 199.284C39.4974 198.004 39.1598 196.455 39.1598 194.636C39.1598 192.812 39.5028 191.26 40.1889 189.981C40.875 188.701 41.8061 187.727 42.9822 187.057C44.1584 186.382 45.4815 186.044 46.9517 186.044C47.9209 186.044 48.8194 186.18 49.647 186.452C50.4801 186.725 51.2179 187.122 51.8604 187.645C52.503 188.162 53.0257 188.797 53.4286 189.548C53.837 190.299 54.0984 191.16 54.2127 192.129ZM60.1628 195.747V203H56.6834V186.273H60.0648V192.668H60.2118C60.495 191.927 60.9524 191.348 61.584 190.928C62.2156 190.504 63.0079 190.291 63.9608 190.291C64.832 190.291 65.5916 190.482 66.2395 190.863C66.8929 191.239 67.3993 191.78 67.7587 192.488C68.1235 193.191 68.3032 194.032 68.2978 195.012V203H64.8184V195.633C64.8238 194.86 64.6278 194.258 64.2303 193.828C63.8382 193.398 63.2883 193.183 62.5804 193.183C62.1067 193.183 61.6874 193.283 61.3226 193.485C60.9632 193.686 60.6801 193.98 60.4732 194.367C60.2717 194.748 60.1683 195.208 60.1628 195.747ZM76.7533 203.245C75.4628 203.245 74.352 202.984 73.4209 202.461C72.4952 201.933 71.7819 201.187 71.281 200.223C70.78 199.254 70.5296 198.108 70.5296 196.784C70.5296 195.494 70.78 194.361 71.281 193.387C71.7819 192.412 72.4871 191.652 73.3964 191.108C74.3112 190.563 75.3838 190.291 76.6144 190.291C77.4421 190.291 78.2126 190.425 78.9259 190.691C79.6446 190.953 80.2708 191.348 80.8044 191.876C81.3435 192.404 81.7628 193.068 82.0622 193.869C82.3617 194.664 82.5115 195.595 82.5115 196.662V197.618H71.9181V195.461H79.2362C79.2362 194.96 79.1273 194.517 78.9095 194.13C78.6917 193.743 78.3895 193.441 78.0029 193.223C77.6218 193 77.178 192.888 76.6716 192.888C76.1434 192.888 75.6752 193.011 75.2668 193.256C74.8638 193.496 74.548 193.82 74.3193 194.228C74.0906 194.631 73.9736 195.08 73.9681 195.576V197.626C73.9681 198.246 74.0825 198.783 74.3112 199.235C74.5453 199.687 74.8747 200.035 75.2994 200.28C75.7242 200.525 76.2278 200.648 76.8105 200.648C77.1971 200.648 77.551 200.593 77.8722 200.484C78.1935 200.375 78.4685 200.212 78.6972 199.994C78.9259 199.777 79.1001 199.51 79.2199 199.194L82.4379 199.406C82.2746 200.179 81.9397 200.855 81.4333 201.432C80.9324 202.004 80.2844 202.45 79.4894 202.771C78.6999 203.087 77.7878 203.245 76.7533 203.245ZM90.4504 203.245C89.1653 203.245 88.06 202.973 87.1343 202.428C86.2141 201.878 85.5062 201.116 85.0107 200.141C84.5207 199.167 84.2757 198.045 84.2757 196.776C84.2757 195.491 84.5234 194.364 85.0189 193.395C85.5199 192.42 86.2304 191.661 87.1507 191.116C88.0709 190.566 89.1653 190.291 90.434 190.291C91.5285 190.291 92.4868 190.49 93.309 190.887C94.1312 191.285 94.7819 191.843 95.2611 192.562C95.7403 193.281 96.0044 194.125 96.0534 195.094H92.77C92.6774 194.468 92.4324 193.964 92.0349 193.583C91.6428 193.196 91.1283 193.003 90.4912 193.003C89.9521 193.003 89.4811 193.15 89.0782 193.444C88.6807 193.732 88.3704 194.154 88.1471 194.71C87.9239 195.265 87.8122 195.938 87.8122 196.727C87.8122 197.528 87.9211 198.208 88.1389 198.769C88.3622 199.33 88.6753 199.757 89.0782 200.051C89.4811 200.346 89.9521 200.493 90.4912 200.493C90.8887 200.493 91.2454 200.411 91.5612 200.248C91.8824 200.084 92.1465 199.847 92.3534 199.537C92.5658 199.221 92.7046 198.843 92.77 198.402H96.0534C95.9989 199.36 95.7375 200.204 95.2693 200.934C94.8064 201.658 94.1666 202.224 93.3499 202.632C92.5331 203.041 91.5666 203.245 90.4504 203.245ZM101.434 199.39L101.442 195.216H101.948L105.967 190.455H109.961L104.562 196.76H103.737L101.434 199.39ZM98.2811 203V186.273H101.76V203H98.2811ZM106.122 203L102.43 197.536L104.75 195.077L110.198 203H106.122ZM115.147 186.273V203H111.668V186.273H115.147ZM117.934 203V190.455H121.414V203H117.934ZM119.682 188.837C119.165 188.837 118.721 188.666 118.351 188.323C117.986 187.974 117.804 187.558 117.804 187.073C117.804 186.594 117.986 186.183 118.351 185.84C118.721 185.491 119.165 185.317 119.682 185.317C120.2 185.317 120.641 185.491 121.005 185.84C121.376 186.183 121.561 186.594 121.561 187.073C121.561 187.558 121.376 187.974 121.005 188.323C120.641 188.666 120.2 188.837 119.682 188.837ZM134.639 194.032L131.454 194.228C131.399 193.956 131.282 193.711 131.103 193.493C130.923 193.27 130.686 193.093 130.392 192.962C130.103 192.826 129.758 192.758 129.355 192.758C128.816 192.758 128.361 192.872 127.991 193.101C127.621 193.324 127.435 193.624 127.435 193.999C127.435 194.299 127.555 194.552 127.795 194.759C128.034 194.966 128.445 195.132 129.028 195.257L131.299 195.714C132.518 195.965 133.428 196.368 134.027 196.923C134.626 197.479 134.925 198.208 134.925 199.112C134.925 199.934 134.683 200.656 134.198 201.277C133.719 201.897 133.06 202.382 132.222 202.73C131.388 203.074 130.427 203.245 129.338 203.245C127.678 203.245 126.355 202.899 125.369 202.208C124.389 201.511 123.814 200.563 123.646 199.365L127.068 199.186C127.171 199.692 127.422 200.079 127.819 200.346C128.217 200.607 128.726 200.738 129.347 200.738C129.956 200.738 130.446 200.621 130.817 200.386C131.192 200.147 131.383 199.839 131.388 199.463C131.383 199.148 131.25 198.889 130.988 198.688C130.727 198.481 130.324 198.323 129.779 198.214L127.607 197.781C126.382 197.536 125.47 197.111 124.871 196.507C124.277 195.902 123.98 195.132 123.98 194.195C123.98 193.389 124.198 192.695 124.634 192.113C125.075 191.53 125.693 191.081 126.488 190.765C127.288 190.449 128.225 190.291 129.298 190.291C130.882 190.291 132.129 190.626 133.038 191.296C133.953 191.966 134.487 192.878 134.639 194.032ZM143.789 190.455V193.068H136.234V190.455H143.789ZM137.949 187.449H141.429V199.145C141.429 199.466 141.478 199.717 141.576 199.896C141.674 200.071 141.81 200.193 141.984 200.264C142.164 200.335 142.371 200.37 142.605 200.37C142.768 200.37 142.931 200.356 143.095 200.329C143.258 200.297 143.383 200.272 143.47 200.256L144.018 202.845C143.843 202.899 143.598 202.962 143.283 203.033C142.967 203.109 142.583 203.155 142.131 203.172C141.292 203.204 140.557 203.093 139.926 202.837C139.3 202.581 138.812 202.183 138.464 201.644C138.115 201.105 137.944 200.424 137.949 199.602V187.449ZM151.444 186.273H155.806L160.412 197.511H160.608L165.215 186.273H169.576V203H166.146V192.113H166.007L161.678 202.918H159.342L155.013 192.072H154.874V203H151.444V186.273ZM176.002 203.237C175.202 203.237 174.488 203.098 173.862 202.82C173.236 202.537 172.74 202.121 172.376 201.571C172.016 201.015 171.837 200.324 171.837 199.496C171.837 198.799 171.965 198.214 172.22 197.74C172.476 197.266 172.825 196.885 173.266 196.597C173.707 196.308 174.208 196.09 174.769 195.943C175.335 195.796 175.929 195.693 176.549 195.633C177.279 195.557 177.867 195.486 178.313 195.42C178.76 195.35 179.084 195.246 179.285 195.11C179.487 194.974 179.588 194.772 179.588 194.506V194.457C179.588 193.939 179.424 193.539 179.098 193.256C178.776 192.973 178.319 192.831 177.725 192.831C177.099 192.831 176.601 192.97 176.231 193.248C175.86 193.52 175.615 193.863 175.496 194.277L172.278 194.016C172.441 193.253 172.762 192.594 173.241 192.039C173.721 191.478 174.339 191.048 175.095 190.749C175.858 190.444 176.74 190.291 177.742 190.291C178.439 190.291 179.106 190.373 179.743 190.536C180.385 190.7 180.954 190.953 181.45 191.296C181.951 191.639 182.346 192.08 182.634 192.619C182.923 193.153 183.067 193.792 183.067 194.538V203H179.767V201.26H179.669C179.468 201.652 179.198 201.998 178.861 202.298C178.523 202.592 178.117 202.823 177.644 202.992C177.17 203.155 176.623 203.237 176.002 203.237ZM176.998 200.836C177.51 200.836 177.962 200.735 178.354 200.533C178.746 200.326 179.054 200.049 179.277 199.7C179.501 199.352 179.612 198.957 179.612 198.516V197.185C179.503 197.255 179.353 197.321 179.163 197.381C178.978 197.435 178.768 197.487 178.534 197.536C178.3 197.579 178.066 197.62 177.832 197.658C177.597 197.691 177.385 197.721 177.195 197.748C176.786 197.808 176.429 197.903 176.125 198.034C175.82 198.165 175.583 198.342 175.414 198.565C175.245 198.783 175.161 199.055 175.161 199.382C175.161 199.855 175.332 200.218 175.675 200.468C176.024 200.713 176.465 200.836 176.998 200.836ZM189.246 195.747V203H185.766V190.455H189.082V192.668H189.229C189.507 191.938 189.973 191.361 190.626 190.936C191.28 190.506 192.072 190.291 193.003 190.291C193.874 190.291 194.634 190.482 195.282 190.863C195.93 191.244 196.433 191.789 196.793 192.496C197.152 193.199 197.332 194.037 197.332 195.012V203H193.852V195.633C193.858 194.865 193.662 194.266 193.264 193.836C192.867 193.4 192.32 193.183 191.623 193.183C191.154 193.183 190.741 193.283 190.381 193.485C190.027 193.686 189.749 193.98 189.548 194.367C189.352 194.748 189.251 195.208 189.246 195.747ZM203.651 203.237C202.851 203.237 202.138 203.098 201.512 202.82C200.885 202.537 200.39 202.121 200.025 201.571C199.666 201.015 199.486 200.324 199.486 199.496C199.486 198.799 199.614 198.214 199.87 197.74C200.126 197.266 200.474 196.885 200.915 196.597C201.356 196.308 201.857 196.09 202.418 195.943C202.984 195.796 203.578 195.693 204.199 195.633C204.928 195.557 205.516 195.486 205.963 195.42C206.409 195.35 206.733 195.246 206.935 195.11C207.136 194.974 207.237 194.772 207.237 194.506V194.457C207.237 193.939 207.074 193.539 206.747 193.256C206.426 192.973 205.968 192.831 205.375 192.831C204.749 192.831 204.25 192.97 203.88 193.248C203.51 193.52 203.265 193.863 203.145 194.277L199.927 194.016C200.09 193.253 200.412 192.594 200.891 192.039C201.37 191.478 201.988 191.048 202.745 190.749C203.507 190.444 204.389 190.291 205.391 190.291C206.088 190.291 206.755 190.373 207.392 190.536C208.035 190.7 208.604 190.953 209.099 191.296C209.6 191.639 209.995 192.08 210.284 192.619C210.572 193.153 210.716 193.792 210.716 194.538V203H207.417V201.26H207.319C207.117 201.652 206.848 201.998 206.51 202.298C206.173 202.592 205.767 202.823 205.293 202.992C204.819 203.155 204.272 203.237 203.651 203.237ZM204.648 200.836C205.16 200.836 205.612 200.735 206.004 200.533C206.396 200.326 206.703 200.049 206.927 199.7C207.15 199.352 207.262 198.957 207.262 198.516V197.185C207.153 197.255 207.003 197.321 206.812 197.381C206.627 197.435 206.418 197.487 206.183 197.536C205.949 197.579 205.715 197.62 205.481 197.658C205.247 197.691 205.035 197.721 204.844 197.748C204.436 197.808 204.079 197.903 203.774 198.034C203.469 198.165 203.232 198.342 203.063 198.565C202.895 198.783 202.81 199.055 202.81 199.382C202.81 199.855 202.982 200.218 203.325 200.468C203.673 200.713 204.114 200.836 204.648 200.836ZM219.068 207.966C217.941 207.966 216.974 207.811 216.168 207.5C215.368 207.195 214.731 206.779 214.257 206.251C213.783 205.723 213.476 205.129 213.334 204.47L216.552 204.037C216.65 204.288 216.805 204.522 217.018 204.74C217.23 204.958 217.511 205.132 217.859 205.262C218.213 205.399 218.643 205.467 219.15 205.467C219.906 205.467 220.53 205.281 221.02 204.911C221.515 204.546 221.763 203.934 221.763 203.074V200.778H221.616C221.464 201.127 221.235 201.456 220.93 201.767C220.625 202.077 220.233 202.33 219.754 202.526C219.275 202.722 218.703 202.82 218.039 202.82C217.097 202.82 216.239 202.603 215.466 202.167C214.698 201.726 214.086 201.053 213.628 200.15C213.176 199.24 212.95 198.091 212.95 196.703C212.95 195.282 213.182 194.095 213.645 193.142C214.107 192.189 214.723 191.475 215.49 191.002C216.264 190.528 217.11 190.291 218.031 190.291C218.733 190.291 219.321 190.411 219.795 190.651C220.268 190.885 220.65 191.179 220.938 191.533C221.232 191.881 221.458 192.224 221.616 192.562H221.747V190.455H225.202V203.123C225.202 204.19 224.94 205.083 224.418 205.801C223.895 206.52 223.171 207.059 222.245 207.419C221.325 207.783 220.266 207.966 219.068 207.966ZM219.141 200.207C219.702 200.207 220.176 200.068 220.562 199.79C220.955 199.507 221.254 199.104 221.461 198.581C221.673 198.053 221.779 197.422 221.779 196.686C221.779 195.951 221.676 195.314 221.469 194.775C221.262 194.231 220.963 193.809 220.571 193.509C220.179 193.21 219.702 193.06 219.141 193.06C218.57 193.06 218.088 193.215 217.696 193.526C217.304 193.83 217.007 194.255 216.805 194.8C216.604 195.344 216.503 195.973 216.503 196.686C216.503 197.411 216.604 198.037 216.805 198.565C217.012 199.088 217.309 199.493 217.696 199.782C218.088 200.065 218.57 200.207 219.141 200.207ZM233.688 203.245C232.397 203.245 231.287 202.984 230.355 202.461C229.43 201.933 228.717 201.187 228.216 200.223C227.715 199.254 227.464 198.108 227.464 196.784C227.464 195.494 227.715 194.361 228.216 193.387C228.717 192.412 229.422 191.652 230.331 191.108C231.246 190.563 232.318 190.291 233.549 190.291C234.377 190.291 235.147 190.425 235.86 190.691C236.579 190.953 237.205 191.348 237.739 191.876C238.278 192.404 238.697 193.068 238.997 193.869C239.296 194.664 239.446 195.595 239.446 196.662V197.618H228.853V195.461H236.171C236.171 194.96 236.062 194.517 235.844 194.13C235.626 193.743 235.324 193.441 234.938 193.223C234.556 193 234.113 192.888 233.606 192.888C233.078 192.888 232.61 193.011 232.201 193.256C231.798 193.496 231.483 193.82 231.254 194.228C231.025 194.631 230.908 195.08 230.903 195.576V197.626C230.903 198.246 231.017 198.783 231.246 199.235C231.48 199.687 231.809 200.035 232.234 200.28C232.659 200.525 233.162 200.648 233.745 200.648C234.132 200.648 234.486 200.593 234.807 200.484C235.128 200.375 235.403 200.212 235.632 199.994C235.86 199.777 236.035 199.51 236.154 199.194L239.373 199.406C239.209 200.179 238.874 200.855 238.368 201.432C237.867 202.004 237.219 202.45 236.424 202.771C235.634 203.087 234.722 203.245 233.688 203.245ZM241.717 203V190.455H245.033V192.668H245.18C245.441 191.933 245.877 191.353 246.487 190.928C247.096 190.504 247.826 190.291 248.675 190.291C249.536 190.291 250.268 190.506 250.873 190.936C251.477 191.361 251.88 191.938 252.081 192.668H252.212C252.468 191.949 252.931 191.375 253.6 190.945C254.276 190.509 255.073 190.291 255.994 190.291C257.164 190.291 258.114 190.664 258.844 191.41C259.579 192.151 259.947 193.202 259.947 194.563V203H256.475V195.249C256.475 194.552 256.29 194.029 255.92 193.681C255.55 193.332 255.087 193.158 254.532 193.158C253.9 193.158 253.407 193.359 253.053 193.762C252.699 194.16 252.522 194.685 252.522 195.339V203H249.149V195.175C249.149 194.56 248.972 194.07 248.618 193.705C248.27 193.34 247.81 193.158 247.238 193.158C246.851 193.158 246.503 193.256 246.192 193.452C245.888 193.643 245.645 193.912 245.466 194.261C245.286 194.604 245.196 195.007 245.196 195.469V203H241.717ZM268.412 203.245C267.122 203.245 266.011 202.984 265.08 202.461C264.154 201.933 263.441 201.187 262.94 200.223C262.439 199.254 262.189 198.108 262.189 196.784C262.189 195.494 262.439 194.361 262.94 193.387C263.441 192.412 264.146 191.652 265.056 191.108C265.97 190.563 267.043 190.291 268.274 190.291C269.101 190.291 269.872 190.425 270.585 190.691C271.304 190.953 271.93 191.348 272.464 191.876C273.003 192.404 273.422 193.068 273.721 193.869C274.021 194.664 274.171 195.595 274.171 196.662V197.618H263.577V195.461H270.895C270.895 194.96 270.787 194.517 270.569 194.13C270.351 193.743 270.049 193.441 269.662 193.223C269.281 193 268.837 192.888 268.331 192.888C267.803 192.888 267.334 193.011 266.926 193.256C266.523 193.496 266.207 193.82 265.979 194.228C265.75 194.631 265.633 195.08 265.627 195.576V197.626C265.627 198.246 265.742 198.783 265.97 199.235C266.204 199.687 266.534 200.035 266.959 200.28C267.383 200.525 267.887 200.648 268.47 200.648C268.856 200.648 269.21 200.593 269.531 200.484C269.853 200.375 270.128 200.212 270.356 199.994C270.585 199.777 270.759 199.51 270.879 199.194L274.097 199.406C273.934 200.179 273.599 200.855 273.093 201.432C272.592 202.004 271.944 202.45 271.149 202.771C270.359 203.087 269.447 203.245 268.412 203.245ZM279.921 195.747V203H276.441V190.455H279.757V192.668H279.904C280.182 191.938 280.648 191.361 281.301 190.936C281.954 190.506 282.747 190.291 283.678 190.291C284.549 190.291 285.309 190.482 285.956 190.863C286.604 191.244 287.108 191.789 287.468 192.496C287.827 193.199 288.007 194.037 288.007 195.012V203H284.527V195.633C284.533 194.865 284.337 194.266 283.939 193.836C283.542 193.4 282.994 193.183 282.297 193.183C281.829 193.183 281.415 193.283 281.056 193.485C280.702 193.686 280.424 193.98 280.223 194.367C280.027 194.748 279.926 195.208 279.921 195.747ZM297.422 190.455V193.068H289.867V190.455H297.422ZM291.582 187.449H295.061V199.145C295.061 199.466 295.11 199.717 295.208 199.896C295.306 200.071 295.443 200.193 295.617 200.264C295.796 200.335 296.003 200.37 296.237 200.37C296.401 200.37 296.564 200.356 296.728 200.329C296.891 200.297 297.016 200.272 297.103 200.256L297.65 202.845C297.476 202.899 297.231 202.962 296.915 203.033C296.6 203.109 296.216 203.155 295.764 203.172C294.925 203.204 294.19 203.093 293.559 202.837C292.932 202.581 292.445 202.183 292.097 201.644C291.748 201.105 291.576 200.424 291.582 199.602V187.449Z" fill="white"/>
<path d="M200.405 136.711H142.068C140.534 136.711 139.29 135.467 139.29 133.933V54.0671C139.29 52.5329 140.534 51.2891 142.068 51.2891H200.405C201.939 51.2891 203.183 52.5328 203.183 54.0671V133.933C203.183 135.467 201.939 136.711 200.405 136.711Z" fill="#ECF4FF"/>
<path d="M200.404 51.2891H196.932C198.466 51.2891 199.71 52.5328 199.71 54.0671V133.933C199.71 135.467 198.466 136.711 196.932 136.711H200.404C201.938 136.711 203.182 135.467 203.182 133.933V54.0671C203.182 52.5328 201.938 51.2891 200.404 51.2891Z" fill="#DDEAFB"/>
<path d="M160.941 79.7631H148.54C147.17 79.7631 146.06 78.6526 146.06 77.2827V64.8811C146.06 63.5112 147.17 62.4008 148.54 62.4008H160.941C162.311 62.4008 163.422 63.5112 163.422 64.8811V77.2826C163.422 78.6526 162.311 79.7631 160.941 79.7631Z" fill="#B3E59F"/>
<path d="M161.15 62.4114C161.176 62.7559 161.189 63.1039 161.189 63.4551C161.189 70.955 155.109 77.0347 147.61 77.0347C147.085 77.0347 146.568 77.004 146.06 76.9462V77.2829C146.06 78.6528 147.17 79.7633 148.54 79.7633H160.941C162.311 79.7633 163.422 78.6528 163.422 77.2829V64.8811C163.422 63.5817 162.422 62.5175 161.15 62.4114Z" fill="#95D6A4"/>
<path d="M160.941 102.681H148.54C147.17 102.681 146.06 101.571 146.06 100.201V87.7992C146.06 86.4294 147.17 85.3189 148.54 85.3189H160.941C162.311 85.3189 163.422 86.4294 163.422 87.7992V100.201C163.422 101.571 162.311 102.681 160.941 102.681Z" fill="#B3E59F"/>
<path d="M161.15 85.3294C161.176 85.6738 161.189 86.0219 161.189 86.373C161.189 93.873 155.109 99.9527 147.61 99.9527C147.085 99.9527 146.568 99.9219 146.06 99.864V100.201C146.06 101.571 147.17 102.681 148.54 102.681H160.941C162.311 102.681 163.422 101.571 163.422 100.201V87.7993C163.422 86.4997 162.422 85.4356 161.15 85.3294Z" fill="#95D6A4"/>
<path d="M160.941 125.599H148.54C147.17 125.599 146.06 124.489 146.06 123.119V110.717C146.06 109.348 147.17 108.237 148.54 108.237H160.941C162.311 108.237 163.422 109.348 163.422 110.717V123.119C163.422 124.489 162.311 125.599 160.941 125.599Z" fill="#B3E59F"/>
<path d="M161.15 108.248C161.176 108.592 161.189 108.94 161.189 109.291C161.189 116.791 155.109 122.871 147.61 122.871C147.085 122.871 146.568 122.84 146.06 122.782V123.119C146.06 124.489 147.17 125.599 148.54 125.599H160.941C162.311 125.599 163.422 124.489 163.422 123.119V110.717C163.422 109.418 162.422 108.354 161.15 108.248Z" fill="#95D6A4"/>
<path d="M186.929 135.3L183.68 136.711L183.277 133.192C183.108 131.713 183.419 130.219 184.163 128.93L205.327 92.2722L211.342 95.7445L190.177 132.403C189.433 133.692 188.294 134.707 186.929 135.3Z" fill="#4A80AA"/>
<path d="M208.635 94.1821L187.471 130.84C186.727 132.129 185.588 133.145 184.223 133.738L183.382 134.103L183.68 136.711L186.929 135.3C188.295 134.708 189.433 133.692 190.178 132.403L211.342 95.7448L208.635 94.1821Z" fill="#407093"/>
<path d="M199.423 102.499L202.201 97.6872L208.215 101.16L205.437 105.971L199.423 102.499Z" fill="#FFE07D"/>
<path d="M202.731 104.409L205.509 99.5972L208.216 101.16L205.438 105.971L202.731 104.409Z" fill="#FFD064"/>
<path d="M139.289 120.873C140.001 120.873 140.578 120.296 140.578 119.584V54.0666C140.578 53.2459 141.246 52.5781 142.067 52.5781H200.404C201.225 52.5781 201.893 53.2459 201.893 54.0666V67.727C201.893 68.4391 202.47 69.0161 203.182 69.0161C203.894 69.0161 204.471 68.4391 204.471 67.727V54.0666C204.471 51.8243 202.647 50 200.404 50H142.067C139.824 50 138 51.8243 138 54.0666V119.584C138 120.296 138.577 120.873 139.289 120.873Z" fill="black"/>
<path d="M164.712 64.8811C164.712 62.8026 163.021 61.1117 160.943 61.1117H148.541C146.462 61.1117 144.771 62.8026 144.771 64.8811V77.2826C144.771 79.361 146.462 81.0521 148.541 81.0521H160.943C163.021 81.0521 164.712 79.361 164.712 77.2826V64.8811ZM162.134 77.2826C162.134 77.9395 161.599 78.474 160.943 78.474H148.541C147.884 78.474 147.35 77.9396 147.35 77.2826V64.8811C147.35 64.2244 147.884 63.6898 148.541 63.6898H160.943C161.599 63.6898 162.134 64.2242 162.134 64.8811V77.2826Z" fill="black"/>
<path d="M157.302 67.9712L153.815 71.4582L152.528 70.1706C152.024 69.667 151.208 69.6671 150.705 70.1704C150.201 70.6738 150.201 71.49 150.705 71.9933L152.904 74.1926C153.146 74.4344 153.473 74.5702 153.815 74.5702C154.157 74.5702 154.485 74.4344 154.727 74.1928L159.125 69.7943C159.629 69.2907 159.629 68.4747 159.125 67.9712C158.622 67.468 157.806 67.468 157.302 67.9712Z" fill="black"/>
<path d="M171.409 72.0239H191.723C192.435 72.0239 193.012 71.4469 193.012 70.7348C193.012 70.0227 192.435 69.4457 191.723 69.4457H171.409C170.697 69.4457 170.12 70.0227 170.12 70.7348C170.12 71.4469 170.697 72.0239 171.409 72.0239Z" fill="black"/>
<path d="M196.411 63.8898H184.084C183.372 63.8898 182.795 64.4668 182.795 65.1788C182.795 65.8909 183.372 66.4679 184.084 66.4679H196.411C197.123 66.4679 197.7 65.8909 197.7 65.1788C197.7 64.4668 197.123 63.8898 196.411 63.8898Z" fill="black"/>
<path d="M171.409 66.4679H178.007C178.719 66.4679 179.296 65.8909 179.296 65.1788C179.296 64.4668 178.719 63.8898 178.007 63.8898H171.409C170.697 63.8898 170.12 64.4668 170.12 65.1788C170.12 65.8909 170.697 66.4679 171.409 66.4679Z" fill="black"/>
<path d="M179.222 75.0016C178.51 75.0016 177.933 75.5786 177.933 76.2907C177.933 77.0028 178.51 77.5798 179.222 77.5798H185.993C186.705 77.5798 187.282 77.0028 187.282 76.2907C187.282 75.5786 186.705 75.0016 185.993 75.0016H179.222Z" fill="black"/>
<path d="M171.409 77.5798H173.145C173.857 77.5798 174.435 77.0028 174.435 76.2907C174.435 75.5786 173.857 75.0016 173.145 75.0016H171.409C170.697 75.0016 170.12 75.5786 170.12 76.2907C170.12 77.0028 170.697 77.5798 171.409 77.5798Z" fill="black"/>
<path d="M164.712 87.7993C164.712 85.7208 163.021 84.0299 160.943 84.0299H148.541C146.462 84.0299 144.771 85.7208 144.771 87.7993V100.201C144.771 102.279 146.462 103.97 148.541 103.97H160.943C163.021 103.97 164.712 102.279 164.712 100.201V87.7993ZM162.134 100.201C162.134 100.858 161.599 101.392 160.943 101.392H148.541C147.884 101.392 147.35 100.858 147.35 100.201V87.7993C147.35 87.1426 147.884 86.608 148.541 86.608H160.943C161.599 86.608 162.134 87.1424 162.134 87.7993V100.201Z" fill="black"/>
<path d="M157.302 90.8893L153.815 94.3761L152.528 93.0884C152.024 92.5851 151.208 92.585 150.705 93.0886C150.201 93.592 150.201 94.4082 150.705 94.9115L152.904 97.1106C153.155 97.3622 153.485 97.4881 153.815 97.4881C154.145 97.4881 154.475 97.3622 154.727 97.1106L159.125 92.7123C159.629 92.2089 159.629 91.3927 159.125 90.8894C158.622 90.386 157.806 90.3862 157.302 90.8893Z" fill="black"/>
<path d="M193.012 93.6526C193.012 92.9406 192.435 92.3636 191.723 92.3636H171.409C170.697 92.3636 170.12 92.9406 170.12 93.6526C170.12 94.3647 170.697 94.9417 171.409 94.9417H191.723C192.435 94.9417 193.012 94.3647 193.012 93.6526Z" fill="black"/>
<path d="M197.7 88.0968C197.7 87.3847 197.123 86.8077 196.411 86.8077H184.084C183.372 86.8077 182.795 87.3847 182.795 88.0968C182.795 88.8089 183.372 89.3859 184.084 89.3859H196.411C197.123 89.3859 197.7 88.8089 197.7 88.0968Z" fill="black"/>
<path d="M171.409 89.3859H178.007C178.719 89.3859 179.296 88.8089 179.296 88.0968C179.296 87.3847 178.719 86.8077 178.007 86.8077H171.409C170.697 86.8077 170.12 87.3847 170.12 88.0968C170.12 88.8089 170.697 89.3859 171.409 89.3859Z" fill="black"/>
<path d="M187.282 99.2087C187.282 98.4966 186.705 97.9196 185.993 97.9196H179.222C178.51 97.9196 177.933 98.4966 177.933 99.2087C177.933 99.9208 178.51 100.498 179.222 100.498H185.993C186.705 100.498 187.282 99.9206 187.282 99.2087Z" fill="black"/>
<path d="M171.409 100.498H173.145C173.857 100.498 174.435 99.9208 174.435 99.2087C174.435 98.4966 173.857 97.9196 173.145 97.9196H171.409C170.697 97.9196 170.12 98.4966 170.12 99.2087C170.12 99.9208 170.697 100.498 171.409 100.498Z" fill="black"/>
<path d="M160.943 106.948H148.541C146.462 106.948 144.771 108.639 144.771 110.717V123.119C144.771 125.197 146.462 126.888 148.541 126.888H160.943C163.021 126.888 164.712 125.197 164.712 123.119V110.717C164.712 108.639 163.021 106.948 160.943 106.948ZM162.134 123.119C162.134 123.776 161.599 124.31 160.943 124.31H148.541C147.884 124.31 147.35 123.776 147.35 123.119V110.717C147.35 110.061 147.884 109.526 148.541 109.526H160.943C161.599 109.526 162.134 110.06 162.134 110.717V123.119Z" fill="black"/>
<path d="M157.302 113.807L153.815 117.294L152.528 116.007C152.024 115.503 151.208 115.503 150.705 116.007C150.201 116.51 150.201 117.326 150.705 117.83L152.904 120.029C153.155 120.28 153.485 120.406 153.815 120.406C154.145 120.406 154.475 120.28 154.727 120.029L159.125 115.63C159.629 115.127 159.629 114.311 159.125 113.807C158.622 113.304 157.806 113.304 157.302 113.807Z" fill="black"/>
<path d="M171.409 112.304H178.007C178.719 112.304 179.296 111.727 179.296 111.015C179.296 110.303 178.719 109.726 178.007 109.726H171.409C170.697 109.726 170.12 110.303 170.12 111.015C170.12 111.727 170.697 112.304 171.409 112.304Z" fill="black"/>
<path d="M173.145 123.416C173.857 123.416 174.435 122.839 174.435 122.127C174.435 121.415 173.857 120.838 173.145 120.838H171.409C170.697 120.838 170.12 121.415 170.12 122.127C170.12 122.839 170.697 123.416 171.409 123.416H173.145Z" fill="black"/>
<path d="M212.588 95.4109C212.499 95.0807 212.283 94.799 211.987 94.6282L205.973 91.1563C205.479 90.871 204.875 90.9508 204.471 91.311V73.7428C204.471 73.0307 203.894 72.4537 203.182 72.4537C202.47 72.4537 201.893 73.0307 201.893 73.7428V95.6455L193.763 109.727H184.083C183.371 109.727 182.794 110.304 182.794 111.016C182.794 111.728 183.371 112.305 184.083 112.305H192.275L190.556 115.282H171.409C170.697 115.282 170.12 115.859 170.12 116.571C170.12 117.283 170.697 117.86 171.409 117.86H189.067L187.348 120.838H179.222C178.51 120.838 177.933 121.415 177.933 122.127C177.933 122.839 178.51 123.416 179.222 123.416H185.859L183.047 128.286C182.158 129.826 181.795 131.574 181.998 133.339L182.236 135.422H142.067C141.246 135.422 140.578 134.754 140.578 133.933V125.599C140.578 124.887 140.001 124.31 139.289 124.31C138.577 124.31 138 124.887 138 125.599V133.933C138 136.176 139.824 138 142.067 138H200.404C202.647 138 204.471 136.176 204.471 133.933V110.225L212.459 96.389C212.63 96.0931 212.676 95.7413 212.588 95.4109ZM204.967 104.208L201.186 102.025L202.675 99.4465L206.456 101.63L204.967 104.208ZM201.893 133.933C201.893 134.754 201.225 135.422 200.404 135.422H189.221C190.054 134.771 190.765 133.964 191.294 133.047L196.337 124.314C196.693 123.697 196.482 122.909 195.865 122.553C195.249 122.197 194.46 122.408 194.104 123.025L189.061 131.757C188.46 132.799 187.52 133.637 186.415 134.118L184.764 134.835L184.559 133.046C184.42 131.833 184.669 130.633 185.28 129.575L199.897 104.258L203.678 106.441L197.112 117.815C196.756 118.432 196.967 119.22 197.584 119.576C198.2 119.931 198.988 119.721 199.344 119.104L201.892 114.691V133.933H201.893ZM207.745 99.3969L203.964 97.2139L205.8 94.0337L209.582 96.2165L207.745 99.3969Z" fill="black"/>
</svg>
