<svg width="350" height="234" viewBox="0 0 350 234" fill="none" xmlns="http://www.w3.org/2000/svg">
<rect width="350" height="234" rx="28" fill="#0A8996"/>
<path d="M79.4538 188.273H83.8153L88.4219 199.511H88.6179L93.2244 188.273H97.5859V205H94.1555V194.113H94.0167L89.6879 204.918H87.3519L83.0231 194.072H82.8842V205H79.4538V188.273ZM104.012 205.237C103.211 205.237 102.498 205.098 101.872 204.82C101.246 204.537 100.75 204.121 100.385 203.571C100.026 203.015 99.8463 202.324 99.8463 201.496C99.8463 200.799 99.9743 200.214 100.23 199.74C100.486 199.266 100.835 198.885 101.276 198.597C101.717 198.308 102.218 198.09 102.778 197.943C103.345 197.796 103.938 197.693 104.559 197.633C105.289 197.557 105.877 197.486 106.323 197.42C106.77 197.35 107.094 197.246 107.295 197.11C107.497 196.974 107.597 196.772 107.597 196.506V196.457C107.597 195.939 107.434 195.539 107.107 195.256C106.786 194.973 106.329 194.831 105.735 194.831C105.109 194.831 104.611 194.97 104.241 195.248C103.87 195.52 103.625 195.863 103.505 196.277L100.287 196.016C100.451 195.253 100.772 194.594 101.251 194.039C101.73 193.478 102.348 193.048 103.105 192.749C103.868 192.444 104.75 192.291 105.752 192.291C106.448 192.291 107.116 192.373 107.753 192.536C108.395 192.7 108.964 192.953 109.46 193.296C109.961 193.639 110.355 194.08 110.644 194.619C110.932 195.153 111.077 195.792 111.077 196.538V205H107.777V203.26H107.679C107.478 203.652 107.208 203.998 106.87 204.298C106.533 204.592 106.127 204.823 105.653 204.992C105.18 205.155 104.633 205.237 104.012 205.237ZM105.008 202.836C105.52 202.836 105.972 202.735 106.364 202.533C106.756 202.326 107.064 202.049 107.287 201.7C107.51 201.352 107.622 200.957 107.622 200.516V199.185C107.513 199.255 107.363 199.321 107.173 199.381C106.988 199.435 106.778 199.487 106.544 199.536C106.31 199.579 106.075 199.62 105.841 199.658C105.607 199.691 105.395 199.721 105.204 199.748C104.796 199.808 104.439 199.903 104.134 200.034C103.829 200.165 103.593 200.342 103.424 200.565C103.255 200.783 103.171 201.055 103.171 201.382C103.171 201.855 103.342 202.218 103.685 202.468C104.034 202.713 104.475 202.836 105.008 202.836ZM117.256 197.747V205H113.776V192.455H117.092V194.668H117.239C117.517 193.938 117.983 193.361 118.636 192.936C119.289 192.506 120.082 192.291 121.013 192.291C121.884 192.291 122.643 192.482 123.291 192.863C123.939 193.244 124.443 193.789 124.802 194.496C125.162 195.199 125.342 196.037 125.342 197.012V205H121.862V197.633C121.868 196.865 121.672 196.266 121.274 195.836C120.877 195.4 120.329 195.183 119.632 195.183C119.164 195.183 118.75 195.283 118.391 195.485C118.037 195.686 117.759 195.98 117.558 196.367C117.362 196.748 117.261 197.208 117.256 197.747ZM131.661 205.237C130.861 205.237 130.147 205.098 129.521 204.82C128.895 204.537 128.4 204.121 128.035 203.571C127.675 203.015 127.496 202.324 127.496 201.496C127.496 200.799 127.624 200.214 127.88 199.74C128.136 199.266 128.484 198.885 128.925 198.597C129.366 198.308 129.867 198.09 130.428 197.943C130.994 197.796 131.588 197.693 132.208 197.633C132.938 197.557 133.526 197.486 133.973 197.42C134.419 197.35 134.743 197.246 134.945 197.11C135.146 196.974 135.247 196.772 135.247 196.506V196.457C135.247 195.939 135.083 195.539 134.757 195.256C134.435 194.973 133.978 194.831 133.385 194.831C132.758 194.831 132.26 194.97 131.89 195.248C131.52 195.52 131.275 195.863 131.155 196.277L127.937 196.016C128.1 195.253 128.421 194.594 128.901 194.039C129.38 193.478 129.998 193.048 130.755 192.749C131.517 192.444 132.399 192.291 133.401 192.291C134.098 192.291 134.765 192.373 135.402 192.536C136.045 192.7 136.614 192.953 137.109 193.296C137.61 193.639 138.005 194.08 138.293 194.619C138.582 195.153 138.726 195.792 138.726 196.538V205H135.426V203.26H135.328C135.127 203.652 134.857 203.998 134.52 204.298C134.182 204.592 133.777 204.823 133.303 204.992C132.829 205.155 132.282 205.237 131.661 205.237ZM132.658 202.836C133.17 202.836 133.621 202.735 134.013 202.533C134.406 202.326 134.713 202.049 134.936 201.7C135.16 201.352 135.271 200.957 135.271 200.516V199.185C135.162 199.255 135.013 199.321 134.822 199.381C134.637 199.435 134.427 199.487 134.193 199.536C133.959 199.579 133.725 199.62 133.491 199.658C133.257 199.691 133.044 199.721 132.854 199.748C132.445 199.808 132.089 199.903 131.784 200.034C131.479 200.165 131.242 200.342 131.073 200.565C130.904 200.783 130.82 201.055 130.82 201.382C130.82 201.855 130.991 202.218 131.335 202.468C131.683 202.713 132.124 202.836 132.658 202.836ZM147.078 209.966C145.95 209.966 144.984 209.811 144.178 209.5C143.378 209.195 142.741 208.779 142.267 208.251C141.793 207.723 141.485 207.129 141.344 206.47L144.562 206.037C144.66 206.288 144.815 206.522 145.028 206.74C145.24 206.958 145.52 207.132 145.869 207.262C146.223 207.399 146.653 207.467 147.159 207.467C147.916 207.467 148.54 207.281 149.03 206.911C149.525 206.546 149.773 205.934 149.773 205.074V202.778H149.626C149.473 203.127 149.245 203.456 148.94 203.767C148.635 204.077 148.243 204.33 147.764 204.526C147.285 204.722 146.713 204.82 146.048 204.82C145.106 204.82 144.249 204.603 143.476 204.167C142.708 203.726 142.095 203.053 141.638 202.15C141.186 201.24 140.96 200.091 140.96 198.703C140.96 197.282 141.191 196.095 141.654 195.142C142.117 194.189 142.732 193.475 143.5 193.002C144.273 192.528 145.12 192.291 146.04 192.291C146.743 192.291 147.331 192.411 147.805 192.651C148.278 192.885 148.659 193.179 148.948 193.533C149.242 193.881 149.468 194.224 149.626 194.562H149.757V192.455H153.211V205.123C153.211 206.19 152.95 207.083 152.427 207.801C151.905 208.52 151.18 209.059 150.255 209.419C149.335 209.783 148.276 209.966 147.078 209.966ZM147.151 202.207C147.712 202.207 148.186 202.068 148.572 201.79C148.964 201.507 149.264 201.104 149.471 200.581C149.683 200.053 149.789 199.422 149.789 198.686C149.789 197.951 149.686 197.314 149.479 196.775C149.272 196.231 148.972 195.809 148.58 195.509C148.188 195.21 147.712 195.06 147.151 195.06C146.579 195.06 146.097 195.215 145.705 195.526C145.313 195.83 145.017 196.255 144.815 196.8C144.614 197.344 144.513 197.973 144.513 198.686C144.513 199.411 144.614 200.037 144.815 200.565C145.022 201.088 145.319 201.493 145.705 201.782C146.097 202.065 146.579 202.207 147.151 202.207ZM161.698 205.245C160.407 205.245 159.296 204.984 158.365 204.461C157.44 203.933 156.726 203.187 156.225 202.223C155.724 201.254 155.474 200.108 155.474 198.784C155.474 197.494 155.724 196.361 156.225 195.387C156.726 194.412 157.431 193.652 158.341 193.108C159.256 192.563 160.328 192.291 161.559 192.291C162.386 192.291 163.157 192.425 163.87 192.691C164.589 192.953 165.215 193.348 165.749 193.876C166.288 194.404 166.707 195.068 167.007 195.869C167.306 196.664 167.456 197.595 167.456 198.662V199.618H156.862V197.461H164.181C164.181 196.96 164.072 196.517 163.854 196.13C163.636 195.743 163.334 195.441 162.947 195.223C162.566 195 162.122 194.888 161.616 194.888C161.088 194.888 160.619 195.011 160.211 195.256C159.808 195.496 159.492 195.82 159.264 196.228C159.035 196.631 158.918 197.08 158.912 197.576V199.626C158.912 200.246 159.027 200.783 159.256 201.235C159.49 201.687 159.819 202.035 160.244 202.28C160.669 202.525 161.172 202.648 161.755 202.648C162.141 202.648 162.495 202.593 162.817 202.484C163.138 202.375 163.413 202.212 163.642 201.994C163.87 201.777 164.044 201.51 164.164 201.194L167.382 201.406C167.219 202.179 166.884 202.855 166.378 203.432C165.877 204.004 165.229 204.45 164.434 204.771C163.644 205.087 162.732 205.245 161.698 205.245ZM189.874 194.129H186.296C186.231 193.666 186.098 193.255 185.896 192.896C185.695 192.531 185.436 192.22 185.12 191.964C184.804 191.709 184.44 191.513 184.026 191.376C183.617 191.24 183.174 191.172 182.695 191.172C181.829 191.172 181.075 191.387 180.432 191.817C179.79 192.242 179.291 192.863 178.937 193.68C178.583 194.491 178.407 195.477 178.407 196.636C178.407 197.829 178.583 198.831 178.937 199.642C179.297 200.453 179.798 201.066 180.44 201.48C181.083 201.894 181.826 202.1 182.67 202.1C183.144 202.1 183.582 202.038 183.985 201.913C184.393 201.787 184.755 201.605 185.071 201.365C185.387 201.12 185.648 200.824 185.855 200.475C186.068 200.127 186.215 199.729 186.296 199.283L189.874 199.299C189.781 200.067 189.55 200.807 189.18 201.521C188.815 202.228 188.322 202.863 187.701 203.424C187.086 203.979 186.351 204.42 185.496 204.747C184.647 205.068 183.686 205.229 182.613 205.229C181.121 205.229 179.787 204.891 178.611 204.216C177.44 203.541 176.514 202.563 175.834 201.284C175.159 200.004 174.821 198.455 174.821 196.636C174.821 194.812 175.164 193.26 175.85 191.981C176.536 190.701 177.467 189.727 178.643 189.057C179.82 188.382 181.143 188.044 182.613 188.044C183.582 188.044 184.48 188.18 185.308 188.452C186.141 188.725 186.879 189.122 187.522 189.645C188.164 190.162 188.687 190.797 189.09 191.548C189.498 192.299 189.759 193.16 189.874 194.129ZM198.013 205.245C196.744 205.245 195.647 204.975 194.721 204.436C193.801 203.892 193.091 203.135 192.59 202.166C192.089 201.191 191.838 200.061 191.838 198.776C191.838 197.48 192.089 196.348 192.59 195.379C193.091 194.404 193.801 193.647 194.721 193.108C195.647 192.563 196.744 192.291 198.013 192.291C199.282 192.291 200.376 192.563 201.296 193.108C202.222 193.647 202.935 194.404 203.436 195.379C203.937 196.348 204.188 197.48 204.188 198.776C204.188 200.061 203.937 201.191 203.436 202.166C202.935 203.135 202.222 203.892 201.296 204.436C200.376 204.975 199.282 205.245 198.013 205.245ZM198.029 202.55C198.606 202.55 199.088 202.386 199.475 202.06C199.861 201.728 200.153 201.276 200.349 200.704C200.55 200.132 200.651 199.481 200.651 198.752C200.651 198.022 200.55 197.371 200.349 196.8C200.153 196.228 199.861 195.776 199.475 195.444C199.088 195.112 198.606 194.946 198.029 194.946C197.447 194.946 196.957 195.112 196.559 195.444C196.167 195.776 195.87 196.228 195.669 196.8C195.473 197.371 195.375 198.022 195.375 198.752C195.375 199.481 195.473 200.132 195.669 200.704C195.87 201.276 196.167 201.728 196.559 202.06C196.957 202.386 197.447 202.55 198.029 202.55ZM206.45 205V192.455H209.766V194.668H209.913C210.174 193.933 210.61 193.353 211.22 192.928C211.83 192.504 212.559 192.291 213.409 192.291C214.269 192.291 215.002 192.506 215.606 192.936C216.21 193.361 216.613 193.938 216.815 194.668H216.945C217.201 193.949 217.664 193.375 218.334 192.945C219.009 192.509 219.807 192.291 220.727 192.291C221.898 192.291 222.848 192.664 223.578 193.41C224.313 194.151 224.68 195.202 224.68 196.563V205H221.209V197.249C221.209 196.552 221.024 196.029 220.653 195.681C220.283 195.332 219.82 195.158 219.265 195.158C218.633 195.158 218.141 195.359 217.787 195.762C217.433 196.16 217.256 196.685 217.256 197.339V205H213.883V197.175C213.883 196.56 213.706 196.07 213.352 195.705C213.003 195.34 212.543 195.158 211.971 195.158C211.585 195.158 211.236 195.256 210.926 195.452C210.621 195.643 210.379 195.912 210.199 196.261C210.019 196.604 209.929 197.007 209.929 197.469V205H206.45ZM227.429 209.705V192.455H230.859V194.562H231.014C231.167 194.224 231.387 193.881 231.676 193.533C231.97 193.179 232.351 192.885 232.819 192.651C233.293 192.411 233.881 192.291 234.583 192.291C235.498 192.291 236.342 192.531 237.115 193.01C237.889 193.484 238.507 194.2 238.969 195.158C239.432 196.111 239.664 197.306 239.664 198.744C239.664 200.143 239.438 201.325 238.986 202.288C238.539 203.247 237.929 203.974 237.156 204.469C236.388 204.959 235.528 205.204 234.575 205.204C233.9 205.204 233.326 205.093 232.852 204.869C232.384 204.646 232 204.366 231.7 204.028C231.401 203.685 231.172 203.339 231.014 202.991H230.908V209.705H227.429ZM230.834 198.727C230.834 199.473 230.938 200.124 231.145 200.679C231.352 201.235 231.651 201.668 232.043 201.978C232.435 202.283 232.912 202.435 233.473 202.435C234.039 202.435 234.518 202.28 234.91 201.97C235.302 201.654 235.599 201.218 235.8 200.663C236.007 200.102 236.111 199.457 236.111 198.727C236.111 198.003 236.01 197.366 235.809 196.816C235.607 196.266 235.31 195.836 234.918 195.526C234.526 195.215 234.044 195.06 233.473 195.06C232.906 195.06 232.427 195.21 232.035 195.509C231.648 195.809 231.352 196.233 231.145 196.783C230.938 197.333 230.834 197.981 230.834 198.727ZM245.463 188.273V205H241.983V188.273H245.463ZM251.827 205.237C251.027 205.237 250.314 205.098 249.687 204.82C249.061 204.537 248.566 204.121 248.201 203.571C247.841 203.015 247.662 202.324 247.662 201.496C247.662 200.799 247.79 200.214 248.046 199.74C248.302 199.266 248.65 198.885 249.091 198.597C249.532 198.308 250.033 198.09 250.594 197.943C251.16 197.796 251.754 197.693 252.374 197.633C253.104 197.557 253.692 197.486 254.139 197.42C254.585 197.35 254.909 197.246 255.111 197.11C255.312 196.974 255.413 196.772 255.413 196.506V196.457C255.413 195.939 255.249 195.539 254.923 195.256C254.602 194.973 254.144 194.831 253.551 194.831C252.924 194.831 252.426 194.97 252.056 195.248C251.686 195.52 251.441 195.863 251.321 196.277L248.103 196.016C248.266 195.253 248.587 194.594 249.067 194.039C249.546 193.478 250.164 193.048 250.921 192.749C251.683 192.444 252.565 192.291 253.567 192.291C254.264 192.291 254.931 192.373 255.568 192.536C256.211 192.7 256.78 192.953 257.275 193.296C257.776 193.639 258.171 194.08 258.459 194.619C258.748 195.153 258.892 195.792 258.892 196.538V205H255.593V203.26H255.494C255.293 203.652 255.023 203.998 254.686 204.298C254.348 204.592 253.943 204.823 253.469 204.992C252.995 205.155 252.448 205.237 251.827 205.237ZM252.824 202.836C253.336 202.836 253.787 202.735 254.18 202.533C254.572 202.326 254.879 202.049 255.102 201.7C255.326 201.352 255.437 200.957 255.437 200.516V199.185C255.328 199.255 255.179 199.321 254.988 199.381C254.803 199.435 254.593 199.487 254.359 199.536C254.125 199.579 253.891 199.62 253.657 199.658C253.423 199.691 253.21 199.721 253.02 199.748C252.611 199.808 252.255 199.903 251.95 200.034C251.645 200.165 251.408 200.342 251.239 200.565C251.07 200.783 250.986 201.055 250.986 201.382C250.986 201.855 251.157 202.218 251.501 202.468C251.849 202.713 252.29 202.836 252.824 202.836ZM261.592 205V192.455H265.071V205H261.592ZM263.339 190.837C262.822 190.837 262.378 190.666 262.008 190.323C261.643 189.974 261.461 189.558 261.461 189.073C261.461 188.594 261.643 188.183 262.008 187.84C262.378 187.491 262.822 187.317 263.339 187.317C263.857 187.317 264.298 187.491 264.663 187.84C265.033 188.183 265.218 188.594 265.218 189.073C265.218 189.558 265.033 189.974 264.663 190.323C264.298 190.666 263.857 190.837 263.339 190.837ZM271.338 197.747V205H267.858V192.455H271.174V194.668H271.321C271.599 193.938 272.065 193.361 272.718 192.936C273.371 192.506 274.164 192.291 275.095 192.291C275.966 192.291 276.726 192.482 277.373 192.863C278.021 193.244 278.525 193.789 278.884 194.496C279.244 195.199 279.424 196.037 279.424 197.012V205H275.944V197.633C275.95 196.865 275.754 196.266 275.356 195.836C274.959 195.4 274.411 195.183 273.714 195.183C273.246 195.183 272.832 195.283 272.473 195.485C272.119 195.686 271.841 195.98 271.64 196.367C271.444 196.748 271.343 197.208 271.338 197.747ZM292.604 196.032L289.419 196.228C289.364 195.956 289.247 195.711 289.067 195.493C288.888 195.27 288.651 195.093 288.357 194.962C288.068 194.826 287.723 194.758 287.32 194.758C286.781 194.758 286.326 194.872 285.956 195.101C285.585 195.324 285.4 195.624 285.4 195.999C285.4 196.299 285.52 196.552 285.76 196.759C285.999 196.966 286.41 197.132 286.993 197.257L289.263 197.714C290.483 197.965 291.393 198.368 291.991 198.923C292.59 199.479 292.89 200.208 292.89 201.112C292.89 201.934 292.648 202.656 292.163 203.277C291.684 203.897 291.025 204.382 290.186 204.73C289.353 205.074 288.392 205.245 287.303 205.245C285.643 205.245 284.319 204.899 283.334 204.208C282.354 203.511 281.779 202.563 281.61 201.365L285.033 201.186C285.136 201.692 285.387 202.079 285.784 202.346C286.182 202.607 286.691 202.738 287.311 202.738C287.921 202.738 288.411 202.621 288.782 202.386C289.157 202.147 289.348 201.839 289.353 201.463C289.348 201.148 289.214 200.889 288.953 200.688C288.692 200.481 288.289 200.323 287.744 200.214L285.572 199.781C284.347 199.536 283.435 199.111 282.836 198.507C282.242 197.902 281.945 197.132 281.945 196.195C281.945 195.389 282.163 194.695 282.599 194.113C283.04 193.53 283.658 193.081 284.453 192.765C285.253 192.449 286.19 192.291 287.262 192.291C288.847 192.291 290.094 192.626 291.003 193.296C291.918 193.966 292.452 194.878 292.604 196.032Z" fill="white"/>
<circle cx="179.5" cy="93.5" r="70.5" fill="white"/>
<g clip-path="url(#clip0_2811_1003)">
<path d="M188.671 89.9493C190.909 89.9493 192.724 87.6268 192.724 84.7618C192.724 81.8969 190.909 79.5743 188.671 79.5743C186.433 79.5743 184.618 81.8969 184.618 84.7618C184.618 87.6268 186.433 89.9493 188.671 89.9493Z" fill="#E8916F"/>
<path d="M149.765 89.9493C152.003 89.9493 153.817 87.6268 153.817 84.7618C153.817 81.8969 152.003 79.5743 149.765 79.5743C147.526 79.5743 145.712 81.8969 145.712 84.7618C145.712 87.6268 147.526 89.9493 149.765 89.9493Z" fill="#E8916F"/>
<path d="M164.669 102.073H174.396V118.284H164.669V102.073Z" fill="#E8916F"/>
<path d="M152.024 87.2439V74.2405C152.024 65.1212 159.417 57.7285 168.536 57.7285H170.528C179.647 57.7285 187.04 65.1212 187.04 74.2403V87.2438C187.04 96.9068 179.207 104.74 169.544 104.74H169.521C159.858 104.74 152.024 96.9068 152.024 87.2439Z" fill="#EBAD88"/>
<path d="M170.528 57.7285H168.536C168.052 57.7285 167.574 57.7506 167.101 57.7913C175.547 58.519 182.177 65.6049 182.177 74.2403V87.2438C182.177 96.0854 175.618 103.394 167.101 104.573C167.892 104.682 168.699 104.74 169.521 104.74H169.544C179.207 104.74 187.04 96.9068 187.04 87.2439V74.2405C187.04 65.1212 179.647 57.7285 170.528 57.7285Z" fill="#E8916F"/>
<path d="M160.13 111.468H178.935C187.171 111.468 193.849 118.145 193.849 126.382V134.812C193.849 135.349 193.413 135.784 192.876 135.784H146.188C145.651 135.784 145.216 135.349 145.216 134.812V126.382C145.216 118.145 151.893 111.468 160.13 111.468Z" fill="#26C6DA"/>
<path d="M178.935 111.468H174.071C182.308 111.468 188.985 118.145 188.985 126.382V135.784H192.876C193.413 135.784 193.849 135.349 193.849 134.812V126.382C193.849 118.145 187.171 111.468 178.935 111.468Z" fill="#00BCD4"/>
<path d="M164.49 108.627L161.339 111.252C161.198 111.37 161.183 111.582 161.306 111.718L165.81 116.711C165.955 116.872 166.213 116.848 166.326 116.664L169.532 111.468L164.867 108.6C164.748 108.527 164.597 108.538 164.49 108.627V108.627Z" fill="#FBF2DF"/>
<path d="M174.574 108.627L177.725 111.252C177.866 111.37 177.881 111.582 177.758 111.718L173.254 116.711C173.109 116.872 172.851 116.848 172.738 116.664L169.532 111.468L174.197 108.6C174.316 108.527 174.467 108.538 174.574 108.627V108.627Z" fill="#FBF2DF"/>
<path d="M179.264 65.3799C178.708 64.8733 177.82 65.1808 177.677 65.9197C177.184 68.4613 174.832 72.7186 164.373 71.1915C158.014 70.263 152.024 76.9325 152.024 82.0882C152.024 82.0882 151.613 80.4987 149.765 79.5744C149.765 79.5744 147.763 72.5429 149.111 66.4654C150.352 60.8708 157.701 55.2158 168.878 55.2158C174.699 55.2158 177.112 56.6547 178.022 57.4876C178.405 57.8386 178.889 58.0608 179.408 58.1004C181.809 58.2837 188.313 59.4051 189.718 66.1417C190.881 71.7218 189.145 74.9855 188.671 79.5744C187.65 80.3389 187.04 82.0882 187.04 82.0882C187.04 82.0882 183.941 76.1707 183.218 71.7735C182.763 68.9984 180.714 66.6988 179.264 65.3799V65.3799Z" fill="#7D4D3D"/>
<path d="M189.718 66.1417C188.313 59.4052 181.809 58.2839 179.408 58.1004C178.89 58.0608 178.405 57.8386 178.022 57.4876C177.112 56.6545 174.699 55.2158 168.878 55.2158C168.049 55.2158 167.245 55.2505 166.459 55.3103C170.54 55.6433 172.389 56.7824 173.159 57.4876C173.542 57.8386 174.026 58.0608 174.545 58.1004C176.946 58.2837 183.45 59.4051 184.855 66.1417C185.7 70.1949 185.015 73.0261 184.395 76.0305C185.55 79.2417 187.04 82.088 187.04 82.088C187.04 82.088 187.651 80.3387 188.671 79.5742C189.145 74.9855 190.882 71.7218 189.718 66.1417V66.1417Z" fill="#704537"/>
<path d="M225.784 57.8063V103.852C225.784 105.282 224.625 106.442 223.194 106.442H201.175C199.745 106.442 198.586 105.283 198.586 103.852V99.2225C198.586 98.8918 198.294 98.6367 197.967 98.6801L190.436 99.6777C190.165 99.7137 190.01 99.3768 190.214 99.1937L198.229 91.9957C198.456 91.7916 198.586 91.5004 198.586 91.1949V57.8063C198.586 56.3757 199.745 55.2158 201.175 55.2158H223.194C224.625 55.2158 225.784 56.3756 225.784 57.8063V57.8063Z" fill="#FBF2DF"/>
<path d="M223.194 55.2158H218.331C219.761 55.2158 220.921 56.3756 220.921 57.8063V103.852C220.921 105.282 219.761 106.442 218.331 106.442H223.194C224.625 106.442 225.784 105.283 225.784 103.852V57.8063C225.784 56.3756 224.625 55.2158 223.194 55.2158V55.2158Z" fill="#F2E5CE"/>
<path d="M218.695 99.6074H206.125C204.762 99.6074 203.656 98.5019 203.656 97.1383V82.0824C203.656 80.7187 204.762 79.6133 206.125 79.6133H218.695C220.059 79.6133 221.164 80.7187 221.164 82.0824V97.1383C221.164 98.5019 220.059 99.6074 218.695 99.6074Z" fill="#E7387F"/>
<path d="M169.532 127.734C170.965 127.734 172.126 126.573 172.126 125.14C172.126 123.708 170.965 122.547 169.532 122.547C168.1 122.547 166.938 123.708 166.938 125.14C166.938 126.573 168.1 127.734 169.532 127.734Z" fill="#FBF2DF"/>
<path d="M178.935 110.252H178.424L175.611 107.909V104.946C181.779 102.827 186.5 97.5688 187.859 91.0892C188.127 91.1396 188.399 91.1652 188.671 91.1652C191.576 91.1652 193.939 88.2926 193.939 84.7619C193.939 81.8 192.276 79.3014 190.025 78.5732C190.171 77.6141 190.362 76.6937 190.549 75.7953C191.144 72.9347 191.76 69.9769 190.908 65.8935C190.237 62.6751 188.373 60.1519 185.518 58.5961C183.2 57.333 180.753 56.9838 179.5 56.8883C179.266 56.8705 179.033 56.7649 178.843 56.5912C177.553 55.4091 174.776 54 168.878 54C156.898 54 149.269 60.1384 147.924 66.2021C146.862 70.9918 147.752 76.2403 148.278 78.6179C146.094 79.3996 144.496 81.858 144.496 84.7619C144.496 88.2926 146.859 91.1652 149.764 91.1652C150.248 91.1652 150.721 91.0879 151.174 90.9369C152.491 97.4865 157.237 102.81 163.453 104.946V107.909L160.641 110.252H160.13C151.236 110.252 144 117.488 144 126.382V134.812C144 136.018 144.982 137 146.188 137H192.876C194.083 137 195.064 136.018 195.064 134.812V126.382C195.064 117.488 187.829 110.252 178.935 110.252V110.252ZM174.288 109.971L176.234 111.592L173.148 115.014L171.206 111.866L174.288 109.971ZM191.508 84.7619C191.508 86.9147 190.209 88.7336 188.671 88.7336C188.513 88.7336 188.356 88.7147 188.202 88.6776C188.238 88.2044 188.256 87.7262 188.256 87.2439V82.3103C188.433 81.8687 188.748 81.2527 189.1 80.8382C190.443 81.1378 191.508 82.8128 191.508 84.7619V84.7619ZM150.298 66.7287C151.781 60.0405 160.978 56.4316 168.878 56.4316C174.466 56.4316 176.56 57.7973 177.201 58.3842C177.79 58.9239 178.541 59.2536 179.315 59.3128C181.679 59.4932 187.308 60.544 188.528 66.39C189.276 69.9775 188.738 72.563 188.168 75.3C187.926 76.4648 187.676 77.6651 187.516 78.9742C187.371 79.1197 187.235 79.2754 187.109 79.4363C186.167 77.3752 184.844 74.1658 184.418 71.5764C183.915 68.5146 181.783 66.0277 180.083 64.4807C178.822 63.3338 176.805 64.0253 176.483 65.6884C175.749 69.4777 171.511 71.0048 164.549 69.9884C161.477 69.5401 158.276 70.5994 155.532 72.9708C153.526 74.7053 152.044 76.9015 151.314 79.1146C151.159 78.9953 150.993 78.8791 150.812 78.7677C150.413 77.1299 149.229 71.5506 150.298 66.7287V66.7287ZM149.765 88.7336C148.227 88.7336 146.928 86.9147 146.928 84.7619C146.928 82.7386 148.075 81.0105 149.49 80.8096C150.347 81.3284 150.697 82.0148 150.809 82.29V87.2436C150.809 87.6405 150.821 88.0345 150.846 88.4254C150.553 88.5982 150.189 88.7336 149.765 88.7336V88.7336ZM153.325 88.912C153.323 88.8856 153.321 88.8594 153.317 88.8331C153.266 88.3101 153.24 87.7799 153.24 87.2438V82.0882C153.24 79.7063 154.764 76.8496 157.123 74.8103C159.323 72.9078 161.837 72.0497 164.198 72.3946C169.07 73.1057 172.837 72.6769 175.394 71.1199C177.526 69.8225 178.412 68.0118 178.773 66.5854C179.948 67.7164 181.645 69.6958 182.019 71.9705C182.684 76.018 185.196 81.1442 185.824 82.3821V87.2436C185.824 87.93 185.781 88.6063 185.699 89.2706C185.698 89.2756 185.697 89.2807 185.697 89.2859C184.689 97.3027 177.829 103.524 169.544 103.524H169.521C161.107 103.524 154.163 97.1084 153.325 88.912V88.912ZM169.521 105.956H169.544C170.787 105.956 172.003 105.834 173.18 105.601V107.798L169.532 110.041L165.885 107.798V105.601C167.061 105.834 168.277 105.956 169.521 105.956ZM164.776 109.971L167.858 111.866L165.916 115.014L162.83 111.592L164.776 109.971ZM192.633 134.568H146.432V126.382C146.432 118.829 152.577 112.684 160.13 112.684H160.54L164.907 117.526C165.602 118.295 166.828 118.167 167.362 117.303L169.532 113.784L171.703 117.303C172.24 118.174 173.467 118.29 174.157 117.526L178.524 112.684H178.935C186.488 112.684 192.633 118.829 192.633 126.382V134.568Z" fill="black"/>
<path d="M223.194 54H201.175C199.077 54 197.369 55.7075 197.369 57.8063V91.1328L189.4 98.2894C188.31 99.2694 189.142 101.076 190.596 100.883L197.369 99.9856V103.852C197.369 105.951 199.076 107.658 201.175 107.658H223.194C225.292 107.658 227 105.951 227 103.852V57.8063C227 55.7075 225.292 54 223.194 54V54ZM224.568 103.852C224.568 104.61 223.952 105.227 223.194 105.227H201.175C200.417 105.227 199.801 104.61 199.801 103.852V99.2225C199.801 98.7145 199.582 98.2312 199.2 97.8965C198.818 97.5619 198.311 97.4082 197.807 97.4748L193.279 98.0748L199.041 92.9003C199.524 92.466 199.801 91.8446 199.801 91.195V57.8063C199.801 57.0483 200.417 56.4316 201.175 56.4316H223.194C223.951 56.4316 224.568 57.0483 224.568 57.8063V103.852H224.568Z" fill="black"/>
<path d="M209.732 63.7098H219.922C220.593 63.7098 221.137 63.1655 221.137 62.494C221.137 61.8226 220.593 61.2782 219.922 61.2782H209.732C209.061 61.2782 208.517 61.8226 208.517 62.494C208.517 63.1655 209.061 63.7098 209.732 63.7098Z" fill="black"/>
<path d="M205.331 69.3837H219.921C220.593 69.3837 221.137 68.8393 221.137 68.1678C221.137 67.4964 220.593 66.952 219.921 66.952H205.331C204.659 66.952 204.115 67.4964 204.115 68.1678C204.115 68.8393 204.659 69.3837 205.331 69.3837Z" fill="black"/>
<path d="M205.331 75.0575H219.921C220.593 75.0575 221.137 74.5131 221.137 73.8417C221.137 73.1702 220.593 72.6259 219.921 72.6259H205.331C204.659 72.6259 204.115 73.1702 204.115 73.8417C204.115 74.5131 204.659 75.0575 205.331 75.0575Z" fill="black"/>
<path d="M218.695 78.3975H206.125C204.093 78.3975 202.44 80.0505 202.44 82.0824V97.1383C202.44 99.1702 204.093 100.823 206.125 100.823H218.695C220.727 100.823 222.38 99.1702 222.38 97.1383V82.0824C222.38 80.0505 220.727 78.3975 218.695 78.3975ZM219.948 97.1383C219.948 97.8293 219.386 98.3915 218.695 98.3915H206.125C205.434 98.3915 204.872 97.8293 204.872 97.1383V82.0824C204.872 81.3913 205.434 80.8291 206.125 80.8291H218.695C219.386 80.8291 219.948 81.3913 219.948 82.0824V97.1383H219.948Z" fill="black"/>
<path d="M212.41 82.5333C211.739 82.5333 211.194 83.0777 211.194 83.7491V90.5328C211.194 91.2042 211.739 91.7486 212.41 91.7486C213.082 91.7486 213.626 91.2042 213.626 90.5328V83.7491C213.626 83.0777 213.082 82.5333 212.41 82.5333Z" fill="black"/>
<path d="M212.41 92.7753C211.739 92.7753 211.194 93.3196 211.194 93.9911V94.6895C211.194 95.3609 211.739 95.9053 212.41 95.9053C213.082 95.9053 213.626 95.3609 213.626 94.6895V93.9911C213.626 93.3196 213.082 92.7753 212.41 92.7753Z" fill="black"/>
<path d="M169.532 121.331C167.432 121.331 165.723 123.04 165.723 125.14C165.723 127.241 167.432 128.95 169.532 128.95C171.633 128.95 173.342 127.241 173.342 125.14C173.342 123.04 171.633 121.331 169.532 121.331ZM169.532 126.518C168.772 126.518 168.154 125.9 168.154 125.14C168.154 124.381 168.772 123.762 169.532 123.762C170.292 123.762 170.91 124.381 170.91 125.14C170.91 125.9 170.292 126.518 169.532 126.518Z" fill="black"/>
</g>
<defs>
<clipPath id="clip0_2811_1003">
<rect width="83" height="83" fill="white" transform="translate(144 54)"/>
</clipPath>
</defs>
</svg>
