<svg width="147" height="340" viewBox="0 0 147 340" fill="none" xmlns="http://www.w3.org/2000/svg">
<path d="M94.3351 42.7142C93.7615 49.5218 97.958 64.4248 97.958 64.4248C97.958 64.4248 112.733 56.7271 118.588 56.034C116.819 51.9121 115.788 36.75 115.788 36.75C115.788 36.75 97.9692 39.9774 93.9729 40.9396C93.5415 42.8124 93.1632 41.9336 94.3351 42.7142Z" fill="#F2A19C"/>
<path d="M112.094 59.8203C103.404 61.5645 87.7972 60.5978 80.3534 65.6473C75.9773 68.616 71.8395 74.587 67.7 78.1605C62.7844 82.4038 57.3208 85.2824 51.845 88.79C44.6332 93.4095 24.9112 100.332 22.641 109.24C18.8627 124.066 41.3536 124.692 49.3078 120.798C62.8032 114.192 71.7282 100.603 84.1891 92.1644C89.7577 88.3932 119.499 70.9233 108.72 61.7214C109.21 61.5102 109.701 61.299 110.192 61.0879" fill="url(#paint0_linear_5337_692)"/>
<path d="M123.317 56.8297C129.517 60.9695 141.69 82.7926 138.09 89.385C133.462 97.8569 122.477 110.956 118.435 113.039C113.341 115.664 111.768 126.106 109.525 131.295C107.834 135.206 110.983 144.135 107.019 144.717C104.632 145.067 62.594 144.832 51.6322 145.984C51.6691 137.145 50.0618 128.158 53.7462 120.008C57.0416 112.719 65.6595 81.4053 90.001 63.6893C93.0333 61.4824 93.8901 56.3091 97.5162 54.7098C101.592 52.9118 108.206 53.9238 112.727 53.4853C115.458 53.2199 122.886 56.5423 123.317 56.8297Z" fill="url(#paint1_linear_5337_692)"/>
<path d="M136.573 298.66C140.325 304.95 148.195 317.484 146.05 319.272C143.14 320.809 128.233 328.071 113.535 335.19C101.021 341.252 86.3525 333.75 89.9925 330.186C93.6325 326.622 96.1671 325.096 99.6554 321.383C103.64 317.143 105.789 313.655 110.606 310.39C112.554 309.069 117.591 306.757 119.757 305.834C125.363 303.442 130.968 301.051 136.573 298.66Z" fill="#1D72D8"/>
<path d="M55.4255 160.12H48.2639C47.1948 160.12 46.3281 159.254 46.3281 158.186V138.849C46.3281 137.781 47.1948 136.916 48.2639 136.916H55.4255C56.4946 136.916 57.3613 137.781 57.3613 138.849V158.186C57.3608 159.254 56.4941 160.12 55.4255 160.12Z" fill="#151A4F"/>
<path d="M53.1122 151.052C53.1122 169.411 55.3631 187.697 56.2482 206.042C56.7845 217.164 53.6409 233.418 60.0906 242.901C70.9151 258.816 83.2646 273.24 92.6043 290.446C96.8817 298.325 104.993 305.158 107.13 313.791C118.548 310.129 128.786 306.669 137.613 299.489C135.075 295.129 130.755 282.849 128.423 278.391C125.15 272.136 122.016 271.333 117.152 266.851C108.364 258.754 104.806 248.803 101.96 237.989C100.08 230.843 94.9769 231.325 91.7529 225.947C88.6712 220.807 90.7116 206.067 90.4971 199.991C89.9482 184.438 85.6843 165.02 89.1802 149.739C82.3724 146.92 61.8348 146.258 54.8721 149.294C54.4497 147.955 52.1719 152.343 53.1122 151.052Z" fill="url(#paint2_linear_5337_692)"/>
<path d="M133.936 316.974C134.556 324.087 136.139 338.428 133.496 339.088C127.558 339.302 77.175 339.302 66.1872 339.255C65.4174 337.596 65.8864 336.152 66.7258 334.526C69.0045 330.114 74.9362 326.482 79.6462 324.897C84.3563 323.312 87.2297 323.047 91.8697 321.267C97.169 319.234 100.538 317.084 106.155 316.26C108.426 315.926 113.83 316.033 116.124 316.14C122.062 316.418 127.999 316.696 133.936 316.974Z" fill="url(#paint3_linear_5337_692)"/>
<path d="M90.0722 17.5631C87.8208 18.2213 86.4447 19.1297 84.7122 20.6864C83.3972 21.8679 82.8002 22.1235 82.0448 23.2072C80.741 25.0782 80.0238 27.4187 79.8119 29.956C79.0049 29.3404 78.3797 29.0862 78.0664 29.3897C78.0664 34.3949 78.1557 37.1143 78.5085 41.6078C78.8599 46.0826 81.4326 46.7372 84.2715 45.7073C89.2059 52.7064 97.7005 56.1234 107.38 47.3474C121.449 34.5931 107.596 12.4395 90.0722 17.5631Z" fill="url(#paint4_linear_5337_692)"/>
<path d="M132.963 302.868C131.342 297.378 125.437 289.305 124.929 283.438C124.275 275.881 124.878 269.768 122.393 262.319C119.856 254.716 117.573 250.156 114.756 243.55C109.872 232.1 112.057 217.656 111.492 205.537C111.112 197.37 110.281 189.182 109.535 181.023C111.522 178.206 113.373 175.294 113.868 171.929C115.039 163.964 110.26 154.532 108.923 146.617C105.446 148.456 102.793 149.532 100.829 150.648C94.2213 151.385 87.0037 150.997 81.0181 150.418C76.0248 149.935 64.6573 152.792 61.9922 151.685C60.9527 208.317 81.9611 267.017 100.845 318.721C110.131 319.341 132.118 319.341 134.193 318.826C133.551 313.096 134.602 308.42 132.963 302.868Z" fill="url(#paint5_linear_5337_692)"/>
<path d="M96.3372 55.0037L90.8633 66.5106L92.9476 54.562L96.3372 55.0037Z" fill="#89B3F4"/>
<path d="M91.012 22.4413C88.5762 29.361 95.2539 44.2146 104.235 35.3014C103.944 39.8448 107.637 49.1951 114.384 41.4612C117.302 38.1163 115.887 28.2871 115.65 23.8061C107.655 25.1293 97.8603 24.7082 90.0946 22.6767C90.0008 22.0194 90.3069 22.7856 91.012 22.4413Z" fill="#428DFC"/>
<path d="M73.5543 20.0778L65.9641 11.5565C65.1347 10.6252 65.1373 9.22046 65.9699 8.29234L72.57 0.937715C73.1512 0.290268 74.0318 -0.00117335 74.885 0.172346L117.404 8.81155C118.261 8.98552 119.061 9.36977 119.733 9.92889L128.529 17.2494C129.071 17.7 128.765 18.5798 128.061 18.599L73.5543 20.0778Z" fill="#1D72D8"/>
<path d="M71.191 28.7725C59.1206 32.2061 69.358 37.122 80.8867 34.2381C88.0845 32.4375 101.88 28.6483 104.369 24.3076C97.9382 26.0724 74.8876 27.7206 71.191 28.7725Z" fill="#23286B"/>
<path d="M115.956 17.5717L72.4844 18.6143L72.7268 28.7036L116.199 27.661L115.956 17.5717Z" fill="#151A4F"/>
<path d="M110.912 142.796H51.5039V153.506H110.912V142.796Z" fill="#151A4F"/>
<path d="M82.0622 160.12H74.9007C73.8315 160.12 72.9648 159.254 72.9648 158.186V138.849C72.9648 137.781 73.8315 136.916 74.9007 136.916H82.0622C83.1313 136.916 83.998 137.781 83.998 138.849V158.186C83.998 159.254 83.1313 160.12 82.0622 160.12Z" fill="#151A4F"/>
<path d="M122.741 139.17C122.741 138.004 121.795 137.059 120.627 137.059H109.627H100.53C99.4604 137.059 98.5938 137.924 98.5938 138.992V154.501V176.157C98.5938 176.798 99.1139 177.318 99.7553 177.318H101.593C106.03 177.318 109.627 173.725 109.627 169.292V160.309C109.627 157.102 112.231 154.501 115.441 154.501H120.628C121.795 154.501 122.742 153.555 122.742 152.389V139.17H122.741Z" fill="#151A4F"/>
<path d="M49.6194 93.6563C49.3698 93.6563 49.1171 93.5931 48.8855 93.4604C48.1759 93.0546 47.9304 92.1512 48.3366 91.4427L62.5349 66.6774C62.9406 65.9686 63.8455 65.7229 64.5546 66.1291C65.2642 66.5349 65.5097 67.4383 65.1036 68.1467L50.9053 92.912C50.6319 93.3887 50.1328 93.6563 49.6194 93.6563Z" fill="#23286B"/>
<path d="M56.0558 81.8439C53.9117 81.6206 41.4867 85.6255 41.5078 87.8996C41.5155 88.6905 42.6227 89.8491 43.5276 90.4508C42.3068 91.7278 42.3983 95.5385 42.8602 96.0048C44.3126 97.4714 49.6101 100.052 52.1604 100.967C58.3991 103.206 64.6491 109.797 71.4825 109.513C72.6764 105.998 75.0498 102.57 76.2154 99.1569C74.3622 98.8318 71.6369 97.2271 68.5526 94.4288C65.9691 92.0851 59.4588 82.1981 56.0558 81.8439Z" fill="url(#paint6_linear_5337_692)"/>
<path d="M130.486 62.7773C125.295 66.51 122.429 63.8902 117.802 69.1106C111.185 76.5764 110.875 93.5965 108.405 103.716C97.7768 101.109 82.7459 98.9752 72.6854 96.6997C72.0449 97.6086 65.4911 110.326 65.6231 110.414C72.8017 115.175 89.157 123.936 95.5852 126.237C100.205 127.89 113.74 134.693 121.333 134.735C131.963 137.58 138.731 111.099 139.506 103.498C140.459 94.1498 141.814 65.234 130.486 62.7773Z" fill="url(#paint7_linear_5337_692)"/>
<path d="M87.6913 93.3931H100.756C101.223 93.3931 101.601 93.0147 101.601 92.5484V89.1694C101.601 88.7027 101.223 88.3247 100.756 88.3247H87.6913C87.2241 88.3247 86.8457 88.7031 86.8457 89.1694V92.5484C86.8457 93.0151 87.2241 93.3931 87.6913 93.3931Z" fill="#D6D7D8"/>
<path d="M125.129 68.2266L112.619 61.1661L124.752 56.3125L137.262 63.373C139.963 64.8975 139.643 67.1375 136.546 68.3764L135.628 68.7436C132.531 69.9824 127.83 69.7511 125.129 68.2266Z" fill="#428DFC"/>
<path d="M47.7597 116.68C43.4518 119.139 35.087 117.381 32.0663 112.991C28.6817 108.073 22.7001 105.877 25.5969 101.917C27.8909 98.7799 34.8872 109.308 37.2975 110.224C38.4644 110.668 53.2529 112.857 47.4365 116.725C47.5721 116.109 48.3315 116.354 47.7597 116.68Z" fill="#FFBEB6"/>
<path d="M46.1434 114.342L0.478516 93.7852L26.8989 86.4297L75.0984 113.039L46.1434 114.342Z" fill="#E94A47"/>
<path d="M12.3165 93.161L24.8227 90.0435L20.3129 87.5703L7.80664 90.6878L12.3165 93.161Z" fill="#D62929"/>
<path d="M33.2982 111.762C36.5993 109.376 36.8143 106.43 40.6832 104.633C45.8282 102.243 44.3493 106.922 41.3915 109.263C42.8439 108.191 46.101 106.002 48.0678 106.598C51.5516 107.653 48.8317 109.779 47.5602 111.663C50.2963 108.738 57.9143 110.532 52.0678 113.914C49.3874 115.465 45.2155 118.202 42.2447 117.249C42.6845 116.767 42.9902 115.674 43.4287 115.19C41.5387 114.887 39.273 116.249 37.6069 115.696C36.4391 115.308 36.4647 113.89 35.4588 113.5C34.782 113.238 33.7887 112.379 32.9903 112.377C33.0464 111.809 32.8202 112.108 33.2982 111.762Z" fill="#FFBEB6"/>
<path opacity="0.51" d="M117.073 85.0902C117.111 85.0248 117.088 84.9405 117.021 84.9028C116.956 84.8656 116.871 84.8885 116.833 84.9544C116.796 85.0198 116.819 85.1041 116.885 85.1423C116.952 85.1786 117.035 85.1562 117.073 85.0902ZM114.13 83.4523C114.167 83.3828 114.143 83.2981 114.078 83.2551C114.009 83.221 113.926 83.2479 113.891 83.3156C113.851 83.3757 113.868 83.4559 113.928 83.4954C113.932 83.4985 113.937 83.5008 113.943 83.503C114.009 83.5411 114.092 83.5178 114.13 83.4523ZM118.634 71.093C118.71 71.0733 118.754 70.9957 118.734 70.9208C118.718 70.8518 118.648 70.8087 118.579 70.8253C118.574 70.8258 118.567 70.828 118.561 70.8312C118.489 70.8491 118.444 70.9213 118.461 70.9939C118.482 71.0688 118.559 71.1132 118.634 71.093ZM111.103 89.2771C111.162 89.2314 111.172 89.1471 111.127 89.0879C111.081 89.0296 110.997 89.0189 110.937 89.0637C110.878 89.1085 110.868 89.1937 110.913 89.2529C110.953 89.3112 111.034 89.3255 111.092 89.2852C111.097 89.2825 111.1 89.2803 111.103 89.2771ZM117.386 78.1302C117.464 78.1338 117.531 78.0791 117.544 78.0033C117.553 77.9248 117.496 77.8549 117.417 77.8455C117.338 77.837 117.267 77.8934 117.259 77.9724C117.256 78.0499 117.311 78.1172 117.386 78.1302ZM114.039 77.7379C114.114 77.7446 114.18 77.6876 114.187 77.6119C114.201 77.5401 114.154 77.4702 114.081 77.4558C114.077 77.4554 114.074 77.4545 114.07 77.454C113.992 77.4478 113.923 77.5029 113.912 77.5809C113.908 77.6567 113.963 77.7249 114.039 77.7379ZM115.825 103.389C115.945 103.309 115.978 103.147 115.897 103.026C115.896 103.024 115.893 103.022 115.891 103.019C115.812 102.901 115.65 102.87 115.532 102.95C115.532 102.95 115.532 102.951 115.531 102.952C115.412 103.031 115.379 103.194 115.46 103.314C115.461 103.317 115.463 103.318 115.465 103.321C115.545 103.439 115.706 103.47 115.824 103.39C115.825 103.39 115.825 103.39 115.825 103.39V103.389ZM112.207 98.1365C112.328 98.0535 112.36 97.8894 112.278 97.767C112.195 97.6451 112.03 97.6141 111.907 97.6966C111.906 97.698 111.904 97.6975 111.903 97.6993C111.785 97.7791 111.755 97.9401 111.835 98.0576C111.835 98.058 111.836 98.058 111.836 98.058C111.921 98.18 112.084 98.2132 112.207 98.1365ZM133.905 86.1937C134.048 86.2174 134.185 86.1224 134.212 85.9794C134.242 85.8417 134.156 85.7067 134.02 85.6754C134.014 85.6745 134.01 85.6727 134.006 85.6727C133.862 85.6489 133.725 85.744 133.699 85.8879C133.671 86.0282 133.763 86.1654 133.905 86.1937ZM121.337 83.8572C121.478 83.8841 121.614 83.7927 121.641 83.6514C121.641 83.6514 121.643 83.6456 121.642 83.6425C121.672 83.5048 121.587 83.3698 121.45 83.3385C121.445 83.3376 121.441 83.3358 121.436 83.3358C121.291 83.3142 121.153 83.4075 121.119 83.5505C121.098 83.6949 121.193 83.8312 121.337 83.8572ZM115.057 82.6937C115.201 82.7197 115.339 82.6229 115.364 82.4794C115.39 82.3354 115.293 82.1987 115.149 82.1731C115.007 82.1449 114.87 82.2368 114.842 82.378C114.812 82.5206 114.903 82.6614 115.047 82.6919C115.051 82.6933 115.054 82.6933 115.057 82.6937ZM126.322 97.5209C126.397 97.3976 126.357 97.2366 126.233 97.1617C126.109 97.0864 125.948 97.1263 125.872 97.25C125.799 97.3716 125.836 97.5285 125.956 97.6052C126.08 97.6805 126.243 97.6433 126.322 97.5209ZM120.96 94.0438C121.036 93.9204 120.996 93.7595 120.872 93.6846C120.748 93.6093 120.587 93.6492 120.511 93.7729C120.438 93.8944 120.474 94.0514 120.594 94.128C120.719 94.2034 120.881 94.1666 120.96 94.0438ZM115.608 90.5662C115.685 90.4398 115.644 90.2752 115.517 90.1981C115.395 90.1241 115.236 90.1577 115.155 90.2752C115.071 90.3972 115.103 90.5635 115.225 90.6478C115.347 90.7316 115.515 90.7003 115.599 90.5783C115.604 90.5743 115.606 90.5707 115.608 90.5662ZM130.822 73.6931C130.964 73.6599 131.054 73.52 131.022 73.3766C130.994 73.2371 130.857 73.1474 130.718 73.1752C130.717 73.1757 130.716 73.1752 130.715 73.1761C130.577 73.1963 130.481 73.325 130.501 73.4631C130.502 73.4694 130.503 73.4761 130.504 73.4837C130.54 73.6245 130.678 73.7151 130.822 73.6931ZM118.316 76.3255C118.454 76.2999 118.545 76.169 118.52 76.0314C118.519 76.0278 118.518 76.0233 118.517 76.0193C118.492 75.8767 118.355 75.7825 118.212 75.8067C118.207 75.8072 118.203 75.8076 118.199 75.809C118.056 75.8408 117.966 75.9816 117.997 76.1242C118.029 76.2672 118.171 76.3573 118.313 76.3259C118.315 76.3259 118.316 76.3255 118.316 76.3255ZM122.769 102.669C122.849 102.568 122.833 102.421 122.733 102.34C122.632 102.259 122.484 102.274 122.403 102.375C122.32 102.476 122.338 102.623 122.438 102.704C122.539 102.785 122.687 102.769 122.769 102.669ZM118.304 99.1242C118.384 99.0229 118.368 98.8763 118.268 98.7947C118.17 98.7104 118.021 98.722 117.937 98.8198C117.852 98.918 117.864 99.0659 117.962 99.1502C117.965 99.1534 117.97 99.1565 117.974 99.1597C118.07 99.2413 118.216 99.2278 118.298 99.1314C118.3 99.1296 118.301 99.1265 118.304 99.1242ZM113.689 95.6583C113.748 95.6561 113.803 95.6269 113.838 95.5785C113.918 95.4772 113.902 95.3306 113.803 95.249C113.699 95.1656 113.549 95.1799 113.464 95.283C113.464 95.283 113.463 95.2839 113.462 95.2853C113.413 95.3463 113.397 95.4279 113.42 95.5036L113.42 95.5135C113.431 95.5566 113.459 95.5929 113.499 95.6148C113.551 95.661 113.623 95.6776 113.689 95.6583ZM129.219 79.7389C129.35 79.7188 129.442 79.6013 129.429 79.4699C129.416 79.3448 129.304 79.2551 129.179 79.2677C129.175 79.2681 129.172 79.2686 129.168 79.269C129.039 79.2812 128.944 79.395 128.957 79.5237C128.957 79.5255 128.958 79.526 128.958 79.526C128.977 79.6555 129.091 79.7479 129.219 79.7389ZM117.882 81.015C118.012 81.0029 118.106 80.889 118.095 80.7599C118.095 80.7599 118.094 80.7572 118.094 80.7549C118.086 80.633 117.978 80.542 117.856 80.5509C117.849 80.5509 117.842 80.5518 117.834 80.5541C117.704 80.5662 117.61 80.6801 117.621 80.8092C117.622 80.811 117.622 80.8119 117.622 80.8141C117.642 80.9392 117.756 81.0276 117.882 81.015ZM112.224 81.6575C112.354 81.6382 112.444 81.5185 112.425 81.3889C112.407 81.263 112.292 81.1737 112.164 81.1876C112.037 81.2065 111.945 81.3185 111.953 81.4468C111.973 81.5773 112.092 81.6696 112.224 81.6575ZM125.25 91.5656C125.376 91.5974 125.504 91.523 125.539 91.3984C125.574 91.2746 125.504 91.1464 125.381 91.1105C125.255 91.0769 125.124 91.1455 125.082 91.2679C125.048 91.3961 125.122 91.5288 125.25 91.5656ZM119.765 89.9882C119.883 90.0272 120.012 89.9627 120.05 89.8443C120.051 89.8407 120.052 89.8349 120.054 89.8313C120.09 89.7076 120.019 89.5793 119.896 89.5435C119.77 89.5098 119.639 89.5784 119.597 89.7008C119.565 89.8255 119.64 89.9537 119.765 89.9882ZM114.28 88.4189C114.404 88.4539 114.532 88.3817 114.567 88.2584C114.601 88.1365 114.532 88.0091 114.41 87.9724C114.287 87.9356 114.157 88.0042 114.119 88.128C114.082 88.2517 114.151 88.3808 114.275 88.4185C114.276 88.4185 114.278 88.4185 114.28 88.4189ZM118.142 72.6426C118.255 72.5789 118.299 72.4359 118.238 72.3198C118.171 72.2068 118.025 72.1682 117.911 72.2355C117.803 72.2996 117.762 72.4354 117.818 72.5471C117.876 72.661 118.016 72.7071 118.13 72.6502C118.134 72.6466 118.139 72.6448 118.142 72.6426ZM115.096 88.1454C115.171 88.1522 115.237 88.0952 115.244 88.0194C115.251 87.9441 115.193 87.8773 115.118 87.871C115.043 87.8643 114.976 87.9212 114.969 87.997C114.962 88.0732 115.02 88.1392 115.096 88.1454ZM111.741 87.8845C111.819 87.8863 111.883 87.8262 111.889 87.7486C111.896 87.6733 111.838 87.6065 111.763 87.6002C111.691 87.5913 111.625 87.6433 111.616 87.7163C111.615 87.7204 111.615 87.7226 111.615 87.7271C111.606 87.8038 111.661 87.8742 111.738 87.8849C111.739 87.8845 111.74 87.8849 111.741 87.8845ZM111.584 94.302C111.614 94.2334 111.588 94.1536 111.523 94.115C111.458 94.0792 111.375 94.1038 111.339 94.1697C111.338 94.172 111.337 94.1742 111.335 94.1769C111.299 94.2406 111.321 94.3213 111.385 94.3581C111.389 94.3599 111.392 94.3621 111.396 94.3639C111.466 94.3971 111.55 94.3702 111.584 94.302ZM112.619 81.5723C112.692 81.5499 112.731 81.4732 112.708 81.4006C112.685 81.3275 112.609 81.2881 112.535 81.3109C112.466 81.3271 112.423 81.3966 112.439 81.4652C112.44 81.4705 112.443 81.4773 112.445 81.4827C112.466 81.5539 112.542 81.5947 112.613 81.5741C112.616 81.5737 112.617 81.5728 112.619 81.5723ZM111.808 103.456C111.861 103.392 111.852 103.295 111.787 103.243C111.786 103.242 111.785 103.241 111.784 103.239C111.72 103.183 111.622 103.19 111.566 103.253C111.563 103.256 111.56 103.26 111.557 103.263C111.505 103.327 111.513 103.424 111.578 103.477C111.579 103.477 111.58 103.478 111.581 103.48C111.651 103.534 111.751 103.523 111.808 103.456ZM116.324 88.0598C116.405 88.0558 116.467 87.9858 116.463 87.9056C116.463 87.8993 116.462 87.8935 116.461 87.8867C116.45 87.8011 116.373 87.7397 116.287 87.7491C116.202 87.7625 116.139 87.8365 116.14 87.923C116.152 88.0109 116.234 88.0724 116.324 88.0598C116.322 88.0602 116.322 88.0602 116.324 88.0598ZM112.503 88.4611C112.592 88.449 112.653 88.3687 112.641 88.2791L112.64 88.2786C112.63 88.193 112.553 88.1315 112.467 88.141C112.382 88.1544 112.318 88.2284 112.32 88.3149C112.334 88.4032 112.413 88.466 112.503 88.4611ZM113.689 95.6583C113.704 95.6413 113.716 95.622 113.725 95.6009C113.75 95.5193 113.704 95.4319 113.621 95.4068C113.62 95.4063 113.619 95.4059 113.616 95.4046C113.534 95.3817 113.45 95.4247 113.42 95.5032L113.421 95.5131C113.395 95.5947 113.442 95.6821 113.524 95.7072C113.526 95.7077 113.528 95.7081 113.529 95.7094C113.589 95.7278 113.652 95.7072 113.689 95.6583ZM112.257 81.0997C112.334 81.0589 112.362 80.963 112.321 80.8868C112.32 80.8854 112.319 80.8832 112.318 80.8827C112.277 80.8083 112.184 80.781 112.109 80.8218C112.033 80.8567 111.999 80.9451 112.033 81.0217C112.035 81.0253 112.036 81.0271 112.038 81.0316C112.08 81.1096 112.177 81.1405 112.257 81.0997ZM128.775 103.471C128.921 103.505 129.069 103.42 129.111 103.274C129.151 103.13 129.068 102.981 128.924 102.939C128.777 102.904 128.628 102.991 128.587 103.136C128.547 103.281 128.63 103.43 128.775 103.471ZM122.424 101.716C122.568 101.757 122.718 101.673 122.759 101.529C122.801 101.385 122.716 101.236 122.572 101.194C122.428 101.154 122.278 101.237 122.237 101.381C122.196 101.524 122.28 101.674 122.424 101.716ZM116.073 99.9694C116.22 100.005 116.369 99.9183 116.41 99.773C116.445 99.6282 116.355 99.4816 116.211 99.4466C116.066 99.4112 115.919 99.5009 115.883 99.6452C115.848 99.786 115.932 99.9309 116.073 99.9694ZM119.835 79.2336C119.963 79.1578 120.01 78.9955 119.939 78.8637C119.865 78.7323 119.7 78.6857 119.568 78.7597C119.436 78.8332 119.39 78.9987 119.464 79.1296C119.538 79.2583 119.703 79.3049 119.835 79.2336ZM114.106 82.4713C114.236 82.3964 114.283 82.2328 114.211 82.1014C114.132 81.9709 113.965 81.9252 113.829 81.9978C113.7 82.0776 113.66 82.2471 113.739 82.3749C113.817 82.4987 113.978 82.5413 114.106 82.4713ZM120.349 91.0585C120.5 91.0392 120.606 90.902 120.588 90.7518L120.587 90.7514C120.569 90.6061 120.434 90.5034 120.289 90.5231C120.141 90.5379 120.034 90.6707 120.049 90.8191C120.064 90.9679 120.197 91.0746 120.346 91.0594C120.346 91.0589 120.348 91.0589 120.349 91.0585ZM113.815 91.8633C113.961 91.8485 114.069 91.718 114.054 91.5714C114.054 91.5696 114.054 91.5678 114.054 91.5661C114.04 91.4154 113.906 91.3042 113.754 91.3181C113.602 91.3325 113.491 91.4656 113.505 91.6176C113.52 91.7683 113.654 91.8795 113.806 91.8656C113.809 91.8647 113.812 91.8642 113.815 91.8633ZM122.005 94.9817C122.156 94.9674 122.267 94.8338 122.253 94.6836C122.238 94.5379 122.109 94.4289 121.963 94.4356C121.811 94.4522 121.7 94.5827 121.706 94.7338C121.723 94.8827 121.855 94.9916 122.005 94.9817ZM115.464 95.5131C115.615 95.4987 115.725 95.3651 115.712 95.2149C115.7 95.0669 115.57 94.9553 115.422 94.9669C115.274 94.9786 115.162 95.1082 115.173 95.2561C115.186 95.4041 115.314 95.518 115.464 95.5131ZM117.117 105.557C117.259 105.601 117.408 105.522 117.453 105.382C117.452 105.382 117.454 105.381 117.453 105.381C117.501 105.239 117.426 105.085 117.285 105.036C117.14 104.993 116.987 105.072 116.939 105.214C116.897 105.357 116.976 105.508 117.117 105.557ZM110.864 103.545C111.005 103.594 111.159 103.517 111.208 103.377C111.256 103.236 111.18 103.082 111.038 103.034C111.037 103.034 111.035 103.033 111.031 103.032C110.887 102.991 110.734 103.069 110.685 103.21C110.641 103.351 110.721 103.501 110.861 103.546C110.863 103.544 110.863 103.544 110.864 103.545ZM121.732 82.5655C121.864 82.4933 121.916 82.3283 121.846 82.1951C121.777 82.0642 121.615 82.0122 121.483 82.0812C121.351 82.1422 121.293 82.2996 121.355 82.4319C121.356 82.4354 121.357 82.439 121.36 82.4426C121.425 82.5785 121.588 82.6354 121.724 82.5695C121.727 82.5686 121.729 82.5668 121.732 82.5655ZM115.893 85.5512C116.026 85.479 116.077 85.314 116.007 85.1808C115.939 85.0499 115.776 84.9979 115.645 85.0669C115.512 85.1279 115.455 85.2853 115.516 85.4176C115.518 85.4211 115.519 85.4247 115.522 85.4283C115.587 85.5642 115.751 85.6207 115.886 85.5552C115.888 85.5539 115.89 85.5525 115.893 85.5512ZM117.304 93.0259C117.412 92.9923 117.473 92.8784 117.439 92.7699C117.407 92.665 117.297 92.6045 117.19 92.6327C117.086 92.6596 117.022 92.7659 117.048 92.8704C117.049 92.8771 117.052 92.8843 117.054 92.8901C117.088 92.9955 117.198 93.0555 117.304 93.0259ZM112.572 94.4397C112.681 94.4065 112.741 94.2899 112.708 94.1818C112.674 94.0738 112.557 94.0128 112.449 94.0464C112.342 94.0778 112.28 94.1904 112.311 94.2971C112.312 94.2993 112.312 94.3011 112.313 94.3043C112.349 94.411 112.463 94.471 112.572 94.4397ZM115.626 103.366C115.737 103.375 115.836 103.293 115.847 103.182C115.851 103.071 115.772 102.976 115.662 102.96C115.55 102.949 115.451 103.031 115.439 103.143C115.44 103.143 115.44 103.143 115.439 103.144C115.426 103.251 115.501 103.35 115.609 103.364C115.616 103.365 115.621 103.366 115.626 103.366ZM110.697 102.869C110.811 102.878 110.912 102.797 110.928 102.684C110.939 102.572 110.857 102.473 110.746 102.462C110.746 102.462 110.745 102.462 110.744 102.461C110.636 102.447 110.537 102.522 110.522 102.63C110.522 102.63 110.522 102.634 110.522 102.637C110.506 102.749 110.582 102.852 110.694 102.869C110.694 102.869 110.695 102.869 110.697 102.869Z" fill="white"/>
<path d="M117.233 47.374L95.748 55.151L101.305 67.9367L123.509 56.6526L117.233 47.374Z" fill="#89B3F4"/>
<defs>
<linearGradient id="paint0_linear_5337_692" x1="85.5634" y1="92.9171" x2="53.8546" y2="88.4733" gradientUnits="userSpaceOnUse">
<stop stop-color="#A1C3FC"/>
<stop offset="1" stop-color="#81AEF2"/>
</linearGradient>
<linearGradient id="paint1_linear_5337_692" x1="71.9821" y1="92.5623" x2="125.228" y2="123.02" gradientUnits="userSpaceOnUse">
<stop stop-color="#A1C3FC"/>
<stop offset="1" stop-color="#81AEF2"/>
</linearGradient>
<linearGradient id="paint2_linear_5337_692" x1="65.5163" y1="141.573" x2="83.2398" y2="211.906" gradientUnits="userSpaceOnUse">
<stop stop-color="#23286B"/>
<stop offset="1" stop-color="#151A4F"/>
</linearGradient>
<linearGradient id="paint3_linear_5337_692" x1="65.7967" y1="327.658" x2="134.974" y2="327.658" gradientUnits="userSpaceOnUse">
<stop stop-color="#428DFC"/>
<stop offset="1" stop-color="#1D72D8"/>
</linearGradient>
<linearGradient id="paint4_linear_5337_692" x1="94.5524" y1="50.4416" x2="95.8182" y2="28.9006" gradientUnits="userSpaceOnUse">
<stop stop-color="#FFBEB6"/>
<stop offset="1" stop-color="#F2A19C"/>
</linearGradient>
<linearGradient id="paint5_linear_5337_692" x1="107.082" y1="169.025" x2="91.8914" y2="281.168" gradientUnits="userSpaceOnUse">
<stop stop-color="#23286B"/>
<stop offset="1" stop-color="#151A4F"/>
</linearGradient>
<linearGradient id="paint6_linear_5337_692" x1="60.5846" y1="95.937" x2="72.2274" y2="103.383" gradientUnits="userSpaceOnUse">
<stop stop-color="#FFBEB6"/>
<stop offset="1" stop-color="#F2A19C"/>
</linearGradient>
<linearGradient id="paint7_linear_5337_692" x1="106.598" y1="102.139" x2="135.213" y2="97.5192" gradientUnits="userSpaceOnUse">
<stop stop-color="#A1C3FC"/>
<stop offset="1" stop-color="#81AEF2"/>
</linearGradient>
</defs>
</svg>
