<svg width="436" height="337" viewBox="0 0 436 337" fill="none" xmlns="http://www.w3.org/2000/svg">
<g clip-path="url(#clip0_5337_547)">
<path d="M389.869 244.217L388.555 243.854L376.594 287.29L377.908 287.653L389.869 244.217Z" fill="#23286B"/>
<path d="M416.153 296.054L372.797 284.041L372.433 285.357L415.789 297.37L416.153 296.054Z" fill="#23286B"/>
<path d="M417.646 280.433L417.486 279.074L372.813 284.35L372.973 285.709L417.646 280.433Z" fill="#23286B"/>
<path d="M171.171 274.629L170.809 273.313L127.445 285.294L127.808 286.61L171.171 274.629Z" fill="#23286B"/>
<path d="M131.059 290.408L119.066 246.979L117.752 247.344L129.745 290.772L131.059 290.408Z" fill="#23286B"/>
<path d="M136.011 245.658L134.654 245.498L129.387 290.246L130.743 290.407L136.011 245.658Z" fill="#23286B"/>
<path d="M174.748 203.391H138.311V222.795C167.859 222.795 191.813 246.79 191.813 276.388V279.16H227.789V256.522C227.79 227.178 204.042 203.391 174.748 203.391Z" fill="url(#paint0_linear_5337_547)"/>
<path d="M302.878 129.276V225.71C302.878 247.935 284.89 265.954 262.702 265.954H191.57V296.623H318.852V265.954H318.79C320.159 241.784 339.986 222.516 364.453 222.198L389.406 221.872V215.951C389.406 168.08 350.666 129.276 302.878 129.276Z" fill="#A1C3FC"/>
<path d="M378.089 335.544C350.426 335.544 327.918 313 327.918 285.288C327.918 257.577 350.424 235.031 378.089 235.031C405.754 235.031 428.262 257.576 428.262 285.288C428.262 313 405.755 335.544 378.089 335.544ZM378.089 255.537C361.712 255.537 348.388 268.885 348.388 285.29C348.388 301.695 361.712 315.041 378.089 315.041C394.467 315.041 407.792 301.695 407.792 285.29C407.792 268.885 394.467 255.537 378.089 255.537Z" fill="url(#paint1_linear_5337_547)"/>
<path d="M340.152 132.576H304.875V128.173C304.875 115.139 315.424 104.573 328.435 104.573H340.152V132.576V132.576Z" fill="url(#paint2_linear_5337_547)"/>
<path d="M344.711 132.576H336.924C334.663 132.576 332.83 130.74 332.83 128.475V108.674C332.83 106.409 334.663 104.573 336.924 104.573H344.711C346.972 104.573 348.805 106.409 348.805 108.674V128.475C348.805 130.74 346.971 132.576 344.711 132.576Z" fill="#E94A47"/>
<path d="M129.816 335.362C102.151 335.362 79.6445 312.818 79.6445 285.108C79.6445 257.398 102.151 234.852 129.816 234.852C157.481 234.852 179.987 257.396 179.987 285.108C179.987 312.819 157.481 335.362 129.816 335.362ZM129.816 255.357C113.438 255.357 100.115 268.703 100.115 285.108C100.115 301.513 113.438 314.859 129.816 314.859C146.193 314.859 159.517 301.513 159.517 285.108C159.517 268.703 146.193 255.357 129.816 255.357Z" fill="url(#paint3_linear_5337_547)"/>
<path d="M322.846 132.676H272.26C269.999 132.676 268.166 130.84 268.166 128.575C268.166 126.309 269.999 124.474 272.26 124.474H322.846C325.107 124.474 326.94 126.309 326.94 128.575C326.94 130.84 325.107 132.676 322.846 132.676Z" fill="#23286B"/>
<path d="M204.742 208.011H98.6308C94.5627 208.011 91.2656 204.709 91.2656 200.634V186.841C91.2656 182.389 95.1713 178.952 99.5793 179.525L205.69 193.318C209.361 193.795 212.108 196.927 212.108 200.634C212.107 204.707 208.81 208.011 204.742 208.011Z" fill="#23286B"/>
<path d="M166.891 236.504L158.867 231.309L125.881 282.421L133.904 287.616L166.891 236.504Z" fill="#81AEF2"/>
<path d="M191.928 300.704C191.662 300.704 191.391 300.681 191.119 300.634C188.518 300.19 186.77 297.717 187.215 295.113C187.765 291.888 188.043 288.581 188.043 285.287C188.043 253.368 162.118 227.399 130.251 227.399C117.361 227.399 105.166 231.558 94.9852 239.425C92.8945 241.039 89.8963 240.65 88.286 238.558C86.6743 236.467 87.0618 233.461 89.1498 231.848C101.016 222.678 115.229 217.831 130.25 217.831C167.383 217.831 197.594 248.091 197.594 285.287C197.594 289.12 197.27 292.967 196.63 296.722C196.235 299.055 194.214 300.704 191.928 300.704Z" fill="#D6D7D8"/>
<path d="M129.816 297.108C136.433 297.108 141.797 291.735 141.797 285.108C141.797 278.48 136.433 273.107 129.816 273.107C123.2 273.107 117.836 278.48 117.836 285.108C117.836 291.735 123.2 297.108 129.816 297.108Z" fill="#A1C3FC"/>
<path d="M381.989 282.436L348.996 231.324L340.973 236.521L373.965 287.633L381.989 282.436Z" fill="#81AEF2"/>
<path d="M378.092 297.289C384.709 297.289 390.072 291.916 390.072 285.288C390.072 278.661 384.709 273.288 378.092 273.288C371.475 273.288 366.111 278.661 366.111 285.288C366.111 291.916 371.475 297.289 378.092 297.289Z" fill="#A1C3FC"/>
<path d="M316.414 300.703C314.128 300.703 312.11 299.055 311.712 296.723C311.071 292.973 310.748 289.125 310.748 285.288C310.748 248.092 340.958 217.832 378.091 217.832C393.114 217.832 407.327 222.679 419.191 231.849C421.279 233.464 421.667 236.468 420.056 238.559C418.445 240.649 415.447 241.039 413.357 239.426C403.178 231.559 390.983 227.4 378.091 227.4C346.226 227.4 320.301 253.369 320.301 285.288C320.301 288.587 320.579 291.893 321.128 295.114C321.571 297.718 319.825 300.191 317.223 300.635C316.952 300.682 316.682 300.703 316.414 300.703Z" fill="#D6D7D8"/>
<path d="M100.373 208.011H92.4496C90.1487 208.011 88.2832 206.143 88.2832 203.838V183.689C88.2832 181.384 90.1487 179.515 92.4496 179.515H100.373C102.674 179.515 104.539 181.384 104.539 183.689V203.838C104.539 206.143 102.674 208.011 100.373 208.011Z" fill="#E94A47"/>
<path d="M378.721 186.993V207.142C378.721 209.447 380.586 211.315 382.887 211.315H389.281C388.752 201.268 386.508 191.679 382.847 182.823C380.566 182.845 378.721 184.701 378.721 186.993Z" fill="#FBB03B"/>
<path opacity="0.51" d="M319.306 173.479C319.353 173.342 319.276 173.193 319.138 173.147C319.002 173.102 318.852 173.177 318.807 173.313C318.76 173.45 318.837 173.599 318.973 173.646C319.112 173.689 319.26 173.617 319.306 173.479ZM313.187 171.508C313.229 171.364 313.154 171.214 313.015 171.158C312.875 171.119 312.728 171.201 312.688 171.341C312.637 171.468 312.697 171.613 312.825 171.665C312.834 171.669 312.843 171.672 312.855 171.674C312.993 171.721 313.142 171.646 313.187 171.508ZM316.989 146.637C317.123 146.571 317.177 146.41 317.112 146.277C317.056 146.153 316.909 146.1 316.787 146.156C316.778 146.158 316.767 146.165 316.757 146.173C316.627 146.235 316.571 146.387 316.63 146.517C316.694 146.649 316.855 146.702 316.989 146.637ZM309.704 183.569C309.796 183.461 309.785 183.299 309.678 183.205C309.571 183.113 309.41 183.124 309.314 183.231C309.22 183.338 309.234 183.5 309.34 183.595C309.437 183.689 309.592 183.686 309.687 183.589C309.695 183.581 309.699 183.575 309.704 183.569ZM317.288 160.305C317.434 160.283 317.539 160.155 317.535 160.009C317.521 159.858 317.389 159.748 317.237 159.761C317.087 159.775 316.975 159.907 316.989 160.058C317.015 160.203 317.142 160.309 317.288 160.305ZM310.878 160.822C311.023 160.806 311.125 160.674 311.109 160.529C311.107 160.39 310.993 160.277 310.852 160.277C310.845 160.278 310.837 160.277 310.829 160.278C310.681 160.296 310.572 160.424 310.582 160.575C310.604 160.719 310.732 160.826 310.878 160.822ZM323.819 208.273C324.013 208.079 324.013 207.761 323.818 207.566C323.815 207.562 323.81 207.559 323.806 207.554C323.612 207.364 323.298 207.366 323.108 207.56C323.108 207.56 323.107 207.563 323.106 207.563C322.912 207.757 322.912 208.074 323.107 208.27C323.11 208.274 323.115 208.277 323.119 208.282C323.313 208.472 323.627 208.469 323.817 208.275C323.819 208.275 323.819 208.275 323.819 208.275V208.273ZM315.085 199.774C315.28 199.573 315.279 199.253 315.078 199.055C314.878 198.857 314.557 198.861 314.359 199.062C314.359 199.062 314.355 199.065 314.352 199.069C314.163 199.263 314.166 199.576 314.359 199.766C314.361 199.767 314.362 199.767 314.362 199.767C314.567 199.963 314.883 199.964 315.085 199.774ZM351.207 169.245C351.486 169.236 351.705 169.006 351.701 168.729C351.707 168.459 351.495 168.238 351.228 168.231C351.218 168.231 351.21 168.23 351.2 168.231C350.922 168.241 350.702 168.47 350.706 168.749C350.709 169.024 350.933 169.245 351.207 169.245ZM326.822 169.569C327.097 169.567 327.316 169.345 327.314 169.069C327.314 169.069 327.314 169.057 327.313 169.053C327.318 168.783 327.107 168.562 326.839 168.555C326.83 168.555 326.822 168.554 326.812 168.555C326.532 168.569 326.31 168.796 326.3 169.076C326.314 169.355 326.543 169.575 326.822 169.569ZM314.638 169.739C314.916 169.733 315.139 169.501 315.132 169.222C315.126 168.942 314.894 168.722 314.614 168.729C314.339 168.729 314.116 168.953 314.116 169.228C314.115 169.506 314.337 169.736 314.619 169.739C314.625 169.739 314.632 169.739 314.638 169.739ZM341.26 193.334C341.354 193.075 341.22 192.787 340.96 192.693C340.7 192.599 340.414 192.733 340.318 192.994C340.226 193.25 340.354 193.53 340.606 193.628C340.868 193.724 341.159 193.593 341.26 193.334ZM329.929 188.819C330.023 188.559 329.889 188.272 329.629 188.178C329.369 188.084 329.083 188.218 328.987 188.479C328.895 188.734 329.023 189.015 329.275 189.113C329.537 189.209 329.827 189.079 329.929 188.819ZM318.614 184.3C318.711 184.033 318.573 183.741 318.307 183.644C318.052 183.551 317.766 183.674 317.659 183.924C317.547 184.185 317.669 184.484 317.929 184.597C318.19 184.709 318.49 184.587 318.602 184.327C318.609 184.316 318.612 184.308 318.614 184.3ZM340.762 146.951C341.014 146.835 341.132 146.54 341.018 146.283C340.913 146.031 340.624 145.915 340.374 146.019C340.374 146.019 340.372 146.02 340.37 146.022C340.119 146.112 339.989 146.388 340.077 146.64C340.081 146.652 340.086 146.663 340.09 146.676C340.209 146.928 340.501 147.046 340.762 146.951ZM318.352 156.572C318.599 156.472 318.722 156.193 318.623 155.945C318.62 155.938 318.617 155.93 318.612 155.924C318.512 155.666 318.221 155.54 317.963 155.64C317.955 155.642 317.947 155.645 317.94 155.649C317.684 155.763 317.568 156.061 317.68 156.316C317.793 156.573 318.092 156.688 318.346 156.576C318.348 156.573 318.351 156.572 318.352 156.572ZM336.539 204.322C336.651 204.102 336.565 203.833 336.348 203.716C336.13 203.603 335.859 203.688 335.744 203.907C335.628 204.127 335.715 204.396 335.935 204.512C336.155 204.626 336.423 204.539 336.539 204.322ZM326.86 199.345C326.972 199.125 326.886 198.856 326.669 198.739C326.453 198.619 326.179 198.696 326.059 198.91C325.939 199.126 326.014 199.4 326.231 199.521C326.237 199.527 326.247 199.529 326.255 199.535C326.467 199.651 326.734 199.572 326.852 199.361C326.854 199.356 326.856 199.349 326.86 199.345ZM316.929 194.57C317.038 194.544 317.13 194.469 317.179 194.365C317.291 194.145 317.205 193.876 316.988 193.759C316.763 193.642 316.487 193.725 316.367 193.949L316.364 193.954C316.296 194.086 316.296 194.246 316.367 194.379L316.371 194.396C316.408 194.473 316.473 194.53 316.555 194.558C316.672 194.627 316.814 194.632 316.929 194.57ZM340.026 158.892C340.264 158.804 340.392 158.55 340.32 158.308C340.247 158.078 340.004 157.951 339.775 158.022C339.768 158.025 339.763 158.027 339.756 158.029C339.519 158.1 339.384 158.35 339.456 158.586C339.457 158.588 339.459 158.59 339.459 158.59C339.542 158.826 339.789 158.957 340.026 158.892ZM319.294 165.531C319.531 165.46 319.667 165.21 319.596 164.974C319.596 164.974 319.593 164.968 319.593 164.965C319.531 164.74 319.295 164.609 319.072 164.671C319.058 164.674 319.044 164.68 319.031 164.685C318.793 164.756 318.658 165.006 318.729 165.243C318.73 165.246 318.732 165.248 318.732 165.251C318.816 165.479 319.063 165.602 319.294 165.531ZM308.95 168.854C309.186 168.77 309.31 168.511 309.225 168.275C309.145 168.045 308.896 167.921 308.662 167.995C308.431 168.077 308.3 168.323 308.363 168.56C308.45 168.798 308.707 168.927 308.95 168.854ZM337.027 182.564C337.274 182.576 337.487 182.389 337.504 182.143C337.525 181.898 337.345 181.683 337.1 181.663C336.853 181.647 336.634 181.826 336.601 182.07C336.586 182.321 336.773 182.543 337.027 182.564ZM326.175 181.659C326.411 181.688 326.628 181.518 326.655 181.282C326.655 181.275 326.655 181.264 326.658 181.256C326.678 181.011 326.498 180.796 326.254 180.776C326.007 180.759 325.787 180.938 325.754 181.183C325.741 181.428 325.928 181.641 326.175 181.659ZM315.327 180.769C315.573 180.788 315.784 180.605 315.804 180.36C315.822 180.118 315.646 179.905 315.403 179.883C315.159 179.86 314.941 180.038 314.916 180.284C314.893 180.53 315.07 180.746 315.316 180.77C315.32 180.769 315.321 180.769 315.327 180.769ZM316.648 149.729C316.838 149.568 316.865 149.282 316.707 149.088C316.539 148.902 316.251 148.884 316.062 149.052C315.884 149.214 315.859 149.483 316.006 149.672C316.157 149.863 316.436 149.898 316.629 149.748C316.634 149.738 316.642 149.733 316.648 149.729ZM316.75 179.95C316.895 179.934 316.997 179.803 316.981 179.658C316.964 179.514 316.832 179.41 316.689 179.427C316.546 179.443 316.442 179.574 316.458 179.719C316.473 179.864 316.606 179.968 316.75 179.95ZM310.376 180.717C310.522 180.691 310.62 180.554 310.602 180.407C310.586 180.263 310.454 180.159 310.31 180.176C310.171 180.185 310.067 180.308 310.078 180.448C310.08 180.455 310.08 180.46 310.081 180.468C310.092 180.616 310.222 180.727 310.37 180.718C310.373 180.717 310.374 180.718 310.376 180.717ZM312.486 192.815C312.516 192.675 312.436 192.535 312.301 192.487C312.166 192.444 312.019 192.521 311.977 192.659C311.974 192.663 311.974 192.667 311.972 192.674C311.929 192.807 312 192.95 312.132 192.995C312.14 192.998 312.149 193.001 312.155 193.002C312.3 193.036 312.446 192.956 312.486 192.815ZM309.657 168.548C309.785 168.478 309.83 168.32 309.76 168.193C309.689 168.064 309.532 168.019 309.403 168.089C309.279 168.145 309.224 168.291 309.281 168.414C309.284 168.424 309.292 168.435 309.298 168.444C309.363 168.57 309.521 168.618 309.646 168.554C309.651 168.551 309.654 168.55 309.657 168.548ZM316.329 209.902C316.404 209.761 316.35 209.585 316.21 209.51C316.207 209.508 316.206 209.507 316.203 209.504C316.061 209.422 315.881 209.471 315.799 209.612C315.796 209.619 315.792 209.627 315.788 209.634C315.713 209.775 315.766 209.951 315.907 210.026C315.91 210.028 315.911 210.029 315.914 210.032C316.065 210.107 316.248 210.05 316.329 209.902ZM319.016 179.33C319.166 179.291 319.257 179.137 319.219 178.988C319.216 178.975 319.212 178.965 319.207 178.954C319.156 178.796 318.988 178.71 318.831 178.761C318.676 178.818 318.586 178.98 318.621 179.142C318.676 179.302 318.852 179.387 319.016 179.33C319.013 179.332 319.013 179.332 319.016 179.33ZM312.018 181.514C312.179 181.458 312.263 181.284 312.206 181.122L312.204 181.12C312.154 180.963 311.986 180.877 311.829 180.928C311.674 180.985 311.584 181.146 311.619 181.309C311.68 181.469 311.851 181.556 312.018 181.514ZM316.929 194.57C316.951 194.533 316.967 194.492 316.974 194.448C316.992 194.286 316.872 194.139 316.708 194.123C316.705 194.123 316.702 194.122 316.697 194.12C316.535 194.108 316.393 194.22 316.367 194.379L316.371 194.396C316.353 194.559 316.473 194.705 316.637 194.722C316.64 194.722 316.644 194.722 316.648 194.724C316.768 194.738 316.879 194.675 316.929 194.57ZM308.804 167.796C308.932 167.691 308.95 167.501 308.843 167.373C308.841 167.37 308.839 167.366 308.836 167.366C308.731 167.241 308.546 167.225 308.422 167.33C308.292 167.425 308.262 167.602 308.355 167.733C308.359 167.74 308.362 167.743 308.367 167.75C308.475 167.881 308.669 167.903 308.804 167.796ZM348.077 203.577C348.363 203.587 348.607 203.371 348.632 203.082C348.652 202.797 348.441 202.548 348.156 202.524C347.868 202.512 347.621 202.731 347.6 203.019C347.578 203.305 347.79 203.555 348.077 203.577ZM335.538 202.663C335.823 202.684 336.073 202.473 336.096 202.187C336.119 201.901 335.905 201.652 335.62 201.629C335.334 201.607 335.085 201.819 335.062 202.105C335.04 202.389 335.253 202.639 335.538 202.663ZM323.003 201.764C323.291 201.777 323.538 201.558 323.56 201.271C323.571 200.985 323.348 200.745 323.065 200.734C322.781 200.721 322.539 200.944 322.527 201.229C322.513 201.506 322.725 201.745 323.003 201.764ZM322.281 161.458C322.493 161.268 322.52 160.945 322.337 160.725C322.15 160.506 321.823 160.482 321.604 160.669C321.386 160.856 321.361 161.183 321.548 161.402C321.735 161.616 322.06 161.641 322.281 161.458ZM312.776 169.677C312.991 169.489 313.016 169.163 312.832 168.945C312.636 168.729 312.305 168.707 312.08 168.893C311.867 169.091 311.858 169.423 312.053 169.634C312.245 169.837 312.562 169.856 312.776 169.677ZM327.668 183.448C327.943 183.355 328.091 183.059 328.001 182.784L327.999 182.783C327.909 182.517 327.62 182.375 327.357 182.465C327.085 182.549 326.933 182.839 327.017 183.111C327.1 183.384 327.389 183.534 327.662 183.45C327.664 183.45 327.666 183.448 327.666 183.448H327.668ZM315.744 187.404C316.013 187.321 316.165 187.037 316.083 186.767C316.082 186.765 316.08 186.76 316.08 186.758C315.997 186.48 315.705 186.322 315.426 186.405C315.149 186.488 314.991 186.781 315.074 187.06C315.158 187.337 315.45 187.496 315.728 187.413C315.735 187.41 315.74 187.407 315.744 187.404ZM332.234 190.187C332.511 190.104 332.668 189.812 332.586 189.535C332.503 189.267 332.222 189.112 331.951 189.179C331.674 189.266 331.513 189.553 331.582 189.835C331.67 190.107 331.957 190.263 332.234 190.187ZM320.196 193.634C320.473 193.55 320.63 193.258 320.548 192.982C320.472 192.708 320.186 192.548 319.914 192.625C319.641 192.701 319.48 192.987 319.556 193.26C319.635 193.534 319.918 193.699 320.196 193.634ZM327.047 211.856C327.328 211.884 327.578 211.679 327.61 211.4C327.609 211.399 327.612 211.398 327.61 211.398C327.647 211.113 327.448 210.854 327.165 210.814C326.879 210.785 326.622 210.992 326.584 211.277C326.561 211.562 326.764 211.816 327.047 211.856ZM314.595 210.423C314.878 210.461 315.137 210.26 315.175 209.977C315.214 209.694 315.013 209.436 314.731 209.398C314.728 209.398 314.724 209.398 314.717 209.398C314.432 209.373 314.175 209.577 314.135 209.861C314.105 210.143 314.312 210.393 314.59 210.424C314.594 210.422 314.594 210.422 314.595 210.423ZM327.077 166.998C327.298 166.813 327.332 166.484 327.152 166.26C326.974 166.04 326.652 166.003 326.431 166.182C326.206 166.346 326.157 166.663 326.322 166.887C326.326 166.894 326.329 166.9 326.337 166.905C326.51 167.135 326.835 167.181 327.065 167.006C327.069 167.006 327.073 167.002 327.077 166.998ZM317.272 174.786C317.493 174.601 317.527 174.272 317.347 174.048C317.169 173.827 316.847 173.791 316.626 173.97C316.401 174.134 316.352 174.451 316.517 174.675C316.521 174.682 316.524 174.687 316.532 174.693C316.705 174.922 317.033 174.969 317.259 174.794C317.262 174.793 317.266 174.788 317.272 174.786ZM322.707 188.279C322.897 188.175 322.968 187.939 322.865 187.747C322.764 187.563 322.536 187.49 322.348 187.583C322.163 187.672 322.083 187.896 322.171 188.082C322.176 188.095 322.183 188.107 322.19 188.118C322.291 188.302 322.521 188.373 322.707 188.279ZM314.384 192.703C314.576 192.599 314.645 192.358 314.542 192.168C314.44 191.978 314.197 191.907 314.009 192.011C313.819 192.109 313.745 192.345 313.843 192.533C313.846 192.537 313.848 192.54 313.85 192.546C313.957 192.733 314.193 192.803 314.384 192.703ZM323.437 208.304C323.649 208.279 323.804 208.087 323.782 207.875C323.748 207.664 323.564 207.515 323.353 207.529C323.14 207.55 322.983 207.74 323.005 207.954C323.006 207.955 323.006 207.955 323.006 207.955C323.021 208.163 323.198 208.322 323.406 208.308C323.419 208.307 323.429 208.305 323.437 208.304ZM314.03 209.217C314.247 209.191 314.406 209.001 314.395 208.784C314.374 208.571 314.183 208.415 313.97 208.437C313.97 208.437 313.969 208.438 313.968 208.437C313.76 208.45 313.603 208.627 313.616 208.836C313.616 208.836 313.617 208.844 313.618 208.851C313.631 209.067 313.812 209.231 314.028 209.22C314.025 209.219 314.028 209.217 314.03 209.217Z" fill="white"/>
<path d="M219.993 286.436L221.732 322.892L302.198 289.665C302.198 289.665 294.796 283.436 278.599 283.214C262.413 283.018 244.703 276.232 244.703 276.232L219.992 286.435" fill="#E94A47"/>
<path d="M126.993 143.582C126.993 143.582 123.792 179.817 156.688 186.343C189.585 192.868 220.807 191.913 210.226 209.204C199.645 226.495 197.811 238.264 202.544 249.695C207.277 261.126 199.96 262.266 195.782 270.685C191.602 279.102 192.69 289.417 198.187 295.753L244.725 276.259C244.725 276.259 264.999 193.251 263.164 182.998C261.329 172.745 265.366 166.298 232.025 157.58C198.684 148.863 165.977 137.047 165.977 137.047L126.993 143.582Z" fill="#428DFC"/>
<path opacity="0.86" d="M144.25 165.436C144.298 165.479 144.361 165.483 144.404 165.435C144.447 165.387 144.45 165.324 144.403 165.282C144.355 165.239 144.292 165.235 144.249 165.283C144.206 165.331 144.203 165.394 144.25 165.436ZM146.265 163.432C146.313 163.475 146.376 163.478 146.419 163.431C146.461 163.383 146.465 163.32 146.418 163.278C146.369 163.235 146.306 163.231 146.263 163.279C146.221 163.327 146.216 163.391 146.265 163.432ZM148.305 161.418C148.353 161.46 148.416 161.464 148.459 161.416C148.501 161.368 148.505 161.305 148.458 161.263C148.41 161.22 148.346 161.217 148.304 161.264C148.261 161.312 148.257 161.377 148.305 161.418ZM150.319 159.414C150.367 159.457 150.431 159.461 150.473 159.413C150.516 159.365 150.519 159.302 150.461 159.233C150.413 159.19 150.349 159.186 150.307 159.234C150.302 159.298 150.297 159.362 150.319 159.414ZM155.436 170.133C155.501 170.137 155.542 170.089 155.547 170.025C155.551 169.961 155.503 169.92 155.439 169.915C155.375 169.911 155.334 169.959 155.329 170.023C155.314 170.06 155.373 170.129 155.436 170.133ZM155.425 167.269C155.49 167.273 155.558 167.214 155.562 167.15C155.566 167.086 155.507 167.019 155.454 167.041C155.39 167.036 155.349 167.084 155.344 167.149C155.314 167.222 155.362 167.264 155.425 167.269ZM155.452 164.42C155.516 164.425 155.557 164.377 155.562 164.313C155.566 164.248 155.507 164.181 155.443 164.176C155.379 164.172 155.311 164.231 155.306 164.295C155.34 164.374 155.387 164.416 155.452 164.42ZM155.477 161.571C155.542 161.576 155.583 161.528 155.588 161.463C155.592 161.399 155.533 161.332 155.469 161.327C155.405 161.323 155.364 161.371 155.359 161.435C155.354 161.499 155.414 161.567 155.477 161.571ZM166.486 165.54C166.534 165.583 166.598 165.586 166.64 165.539C166.683 165.491 166.686 165.428 166.639 165.386C166.591 165.343 166.528 165.339 166.485 165.387C166.431 165.408 166.427 165.472 166.486 165.54ZM149.869 167.435C149.944 167.466 149.996 167.445 150.027 167.369C150.058 167.294 150.037 167.242 149.961 167.211C149.886 167.18 149.834 167.201 149.803 167.276C149.762 167.325 149.794 167.404 149.869 167.435C149.869 167.435 149.858 167.408 149.869 167.435ZM150.968 164.791C151.006 164.806 151.058 164.784 151.101 164.736L151.127 164.725C151.142 164.688 151.131 164.661 151.11 164.609C151.099 164.583 151.061 164.567 151.061 164.567C150.986 164.536 150.934 164.557 150.903 164.632C150.872 164.708 150.893 164.759 150.968 164.791ZM152.079 162.173C152.143 162.177 152.195 162.156 152.238 162.107C152.269 162.032 152.247 161.98 152.172 161.949C152.097 161.918 152.045 161.939 152.014 162.015C151.972 162.063 152.005 162.141 152.079 162.173ZM153.179 159.529C153.228 159.571 153.306 159.539 153.311 159.474C153.343 159.399 153.321 159.347 153.246 159.316C153.17 159.285 153.119 159.306 153.087 159.381C153.083 159.445 153.105 159.498 153.179 159.529ZM160.737 167.482C160.759 167.535 160.834 167.565 160.886 167.543C160.939 167.521 160.969 167.447 160.948 167.395C160.926 167.341 160.851 167.312 160.799 167.333C160.746 167.354 160.716 167.429 160.737 167.482ZM159.647 164.847C159.669 164.901 159.743 164.93 159.795 164.909C159.849 164.887 159.89 164.839 159.857 164.76C159.835 164.707 159.76 164.677 159.708 164.699C159.656 164.721 159.625 164.794 159.647 164.847ZM141.312 176.705C141.424 176.751 141.567 176.723 141.614 176.611C141.66 176.5 141.632 176.357 141.52 176.311C141.409 176.265 141.266 176.293 141.219 176.405C141.146 176.526 141.201 176.658 141.312 176.705ZM143.735 171.88C143.846 171.926 143.989 171.898 144.036 171.786C144.082 171.675 144.054 171.532 143.943 171.485C143.831 171.439 143.688 171.467 143.641 171.579C143.568 171.702 143.623 171.834 143.735 171.88ZM146.157 167.055C146.269 167.101 146.412 167.073 146.459 166.961C146.505 166.85 146.477 166.707 146.365 166.661C146.254 166.614 146.11 166.643 146.064 166.754C146.006 166.84 146.034 166.982 146.157 167.055C146.157 167.055 146.146 167.029 146.157 167.055ZM148.568 162.204C148.643 162.235 148.759 162.218 148.801 162.17C148.827 162.159 148.844 162.122 148.869 162.111C148.885 162.074 148.9 162.036 148.879 161.984C148.873 161.895 148.825 161.853 148.749 161.822C148.638 161.776 148.495 161.804 148.448 161.915C148.429 162.015 148.456 162.157 148.568 162.204ZM161.524 183.042C161.567 183.147 161.69 183.22 161.796 183.177C161.901 183.133 161.974 183.011 161.93 182.905C161.887 182.8 161.764 182.726 161.658 182.77C161.541 182.788 161.469 182.911 161.524 183.042ZM159.805 177.921C159.849 178.027 159.972 178.1 160.077 178.056C160.183 178.013 160.256 177.89 160.212 177.784C160.168 177.679 160.046 177.606 159.94 177.65C159.85 177.657 159.777 177.779 159.805 177.921ZM158.103 172.765C158.146 172.87 158.269 172.942 158.375 172.899C158.48 172.855 158.553 172.733 158.509 172.627C158.466 172.522 158.343 172.449 158.226 172.466C158.132 172.536 158.059 172.659 158.103 172.765ZM156.384 167.644C156.428 167.749 156.55 167.821 156.656 167.777C156.761 167.734 156.835 167.611 156.791 167.505C156.748 167.4 156.625 167.328 156.52 167.372C156.403 167.39 156.33 167.512 156.384 167.644ZM154.666 162.524C154.71 162.629 154.832 162.701 154.938 162.658C155.043 162.614 155.117 162.492 155.073 162.386C155.029 162.281 154.907 162.208 154.801 162.252C154.684 162.27 154.638 162.381 154.666 162.524ZM135.45 169.039C135.519 169.133 135.674 169.132 135.768 169.062C135.862 168.991 135.861 168.838 135.791 168.744C135.721 168.65 135.567 168.651 135.473 168.721C135.389 168.818 135.38 168.945 135.45 169.039ZM139.546 165.497C139.616 165.591 139.744 165.601 139.864 165.52C139.959 165.45 139.968 165.323 139.887 165.202C139.887 165.202 139.887 165.202 139.876 165.175C139.807 165.081 139.652 165.082 139.558 165.153C139.486 165.276 139.476 165.403 139.546 165.497ZM143.643 161.955C143.713 162.05 143.867 162.048 143.961 161.978C144.055 161.908 144.054 161.754 143.984 161.66C143.914 161.566 143.76 161.567 143.666 161.637C143.583 161.733 143.547 161.87 143.643 161.955ZM149.992 182.066C150.12 182.076 150.23 181.968 150.212 181.852C150.222 181.725 150.114 181.615 149.998 181.632C149.871 181.623 149.787 181.72 149.778 181.846C149.769 181.973 149.864 182.057 149.992 182.066ZM150.355 176.672C150.483 176.682 150.593 176.574 150.575 176.458C150.585 176.331 150.477 176.221 150.361 176.238C150.234 176.228 150.149 176.325 150.141 176.452C150.159 176.569 150.228 176.664 150.355 176.672ZM150.756 171.294C150.883 171.304 150.993 171.196 151.003 171.069C151.013 170.942 150.916 170.858 150.789 170.849C150.662 170.839 150.541 170.921 150.531 171.048C150.521 171.175 150.628 171.285 150.756 171.294ZM151.146 165.89C151.273 165.9 151.368 165.829 151.377 165.702C151.386 165.575 151.305 165.454 151.189 165.471C151.062 165.461 150.941 165.543 150.958 165.659C150.911 165.771 151.018 165.88 151.146 165.89C151.146 165.89 151.119 165.901 151.146 165.89ZM151.509 160.496C151.636 160.506 151.746 160.398 151.756 160.271C151.766 160.144 151.658 160.034 151.542 160.051C151.415 160.041 151.331 160.138 151.311 160.239C151.3 160.366 151.408 160.476 151.509 160.496ZM169.55 175.626C169.619 175.72 169.774 175.719 169.868 175.648C169.962 175.579 169.96 175.425 169.891 175.33C169.821 175.236 169.693 175.227 169.599 175.297C169.599 175.297 169.599 175.297 169.573 175.308C169.477 175.377 169.479 175.531 169.55 175.626ZM166.002 171.537C166.099 171.621 166.226 171.63 166.32 171.56C166.415 171.49 166.413 171.336 166.343 171.242C166.274 171.148 166.119 171.149 166.025 171.219C165.931 171.29 165.921 171.417 166.002 171.537ZM162.455 167.451C162.525 167.545 162.653 167.555 162.747 167.484C162.841 167.414 162.84 167.26 162.77 167.166C162.7 167.072 162.546 167.073 162.452 167.144C162.357 167.214 162.385 167.357 162.455 167.451ZM158.908 163.363C158.978 163.457 159.132 163.456 159.226 163.386C159.32 163.316 159.33 163.189 159.26 163.094C159.19 163 159.036 163.001 158.942 163.071C158.836 163.115 158.839 163.269 158.908 163.363ZM131.606 167.819C131.61 167.755 131.627 167.719 131.578 167.677C131.567 167.651 131.53 167.635 131.492 167.62C131.54 167.661 131.573 167.741 131.606 167.819ZM135.183 165.109C135.252 165.203 135.353 165.224 135.448 165.153C135.542 165.083 135.552 164.956 135.493 164.888C135.423 164.793 135.295 164.784 135.227 164.843C135.148 164.876 135.112 165.014 135.183 165.109ZM139.124 162.31C139.193 162.404 139.294 162.425 139.389 162.354C139.389 162.354 139.389 162.354 139.415 162.343C139.51 162.274 139.519 162.147 139.46 162.079C139.391 161.985 139.263 161.975 139.195 162.035C139.127 162.093 139.054 162.215 139.124 162.31ZM144.688 181.573C144.789 181.593 144.91 181.512 144.93 181.411C144.95 181.31 144.869 181.19 144.767 181.169C144.666 181.149 144.545 181.23 144.526 181.331C144.506 181.432 144.587 181.552 144.688 181.573ZM145.493 176.799C145.594 176.82 145.715 176.738 145.734 176.637C145.755 176.535 145.673 176.415 145.572 176.396C145.471 176.375 145.35 176.456 145.33 176.558C145.322 176.684 145.392 176.778 145.493 176.799ZM146.176 171.952C146.198 172.005 146.234 172.02 146.298 172.024C146.399 172.045 146.52 171.964 146.54 171.862C146.56 171.761 146.479 171.641 146.377 171.621C146.313 171.617 146.261 171.638 146.192 171.697C146.166 171.708 146.15 171.745 146.146 171.809C146.105 171.857 146.127 171.91 146.176 171.952ZM147.114 167.277C147.215 167.297 147.336 167.216 147.356 167.115C147.376 167.014 147.295 166.894 147.193 166.873C147.093 166.853 146.972 166.934 146.952 167.035C146.906 167.146 146.987 167.268 147.114 167.277ZM147.893 162.514C147.994 162.534 148.115 162.453 148.124 162.326C148.145 162.225 148.074 162.13 147.962 162.084C147.861 162.064 147.74 162.145 147.72 162.247C147.722 162.399 147.793 162.494 147.893 162.514ZM164.398 176.92C164.468 177.014 164.596 177.024 164.69 176.953C164.784 176.883 164.805 176.783 164.735 176.688C164.665 176.594 164.564 176.573 164.469 176.644C164.363 176.687 164.328 176.826 164.398 176.92ZM161.595 172.988C161.665 173.082 161.793 173.092 161.861 173.032C161.955 172.962 161.976 172.862 161.906 172.767C161.836 172.672 161.735 172.652 161.64 172.722C161.561 172.755 161.525 172.893 161.595 172.988ZM158.793 169.056C158.863 169.15 158.963 169.171 159.058 169.1C159.152 169.031 159.173 168.93 159.103 168.835C159.103 168.835 159.103 168.835 159.092 168.809C159.022 168.714 158.921 168.694 158.827 168.764C158.758 168.823 158.723 168.961 158.793 169.056ZM155.99 165.122C156.06 165.217 156.188 165.226 156.282 165.156C156.376 165.086 156.386 164.959 156.327 164.891C156.257 164.797 156.129 164.787 156.062 164.847C155.955 164.891 155.92 165.029 155.99 165.122ZM153.188 161.191C153.257 161.285 153.385 161.294 153.453 161.235C153.547 161.165 153.557 161.038 153.498 160.97C153.428 160.876 153.3 160.866 153.206 160.937C153.126 160.97 153.118 161.096 153.188 161.191ZM138.387 171.652C138.473 171.709 138.589 171.692 138.672 171.596C138.729 171.51 138.712 171.395 138.627 171.337C138.541 171.28 138.425 171.297 138.342 171.393C138.283 171.478 138.3 171.594 138.387 171.652ZM140.959 167.566C141.045 167.623 141.161 167.605 141.245 167.51C141.302 167.424 141.274 167.282 141.189 167.225C141.103 167.168 140.961 167.196 140.904 167.28C140.846 167.366 140.874 167.509 140.959 167.566ZM143.533 163.481C143.619 163.538 143.762 163.51 143.819 163.425C143.876 163.339 143.848 163.197 143.763 163.14C143.677 163.083 143.535 163.111 143.489 163.222C143.42 163.281 143.437 163.397 143.533 163.481C143.533 163.481 143.523 163.454 143.533 163.481ZM153.976 178.848C153.993 178.964 154.106 179.01 154.221 178.993C154.337 178.975 154.384 178.863 154.367 178.747C154.35 178.631 154.237 178.584 154.121 178.602C154.006 178.62 153.959 178.732 153.976 178.848ZM152.883 174.117C152.901 174.233 153.013 174.28 153.103 174.274C153.219 174.257 153.266 174.144 153.248 174.028C153.231 173.912 153.119 173.866 153.003 173.883C152.923 173.916 152.877 174.027 152.883 174.117ZM151.801 169.413C151.818 169.529 151.93 169.576 152.047 169.558C152.163 169.541 152.209 169.429 152.192 169.313C152.175 169.197 152.062 169.15 151.947 169.168C151.841 169.211 151.794 169.323 151.801 169.413ZM150.718 164.709C150.735 164.825 150.848 164.871 150.964 164.854C151.017 164.832 151.069 164.811 151.1 164.735C151.116 164.698 151.132 164.66 151.11 164.608C151.093 164.492 150.98 164.446 150.864 164.463C150.759 164.507 150.712 164.619 150.718 164.709ZM149.636 160.004C149.653 160.12 149.776 160.192 149.881 160.149C149.997 160.132 150.044 160.019 150.027 159.903C150.016 159.877 150.005 159.85 149.994 159.825C149.957 159.809 149.919 159.793 149.897 159.742C149.86 159.726 149.833 159.737 149.796 159.721C149.677 159.804 149.603 159.926 149.636 160.004ZM169.228 168.356C169.314 168.412 169.43 168.395 169.488 168.311C169.544 168.225 169.527 168.109 169.432 168.025C169.346 167.969 169.204 167.997 169.157 168.108C169.088 168.166 169.143 168.298 169.228 168.356ZM165.136 165.788C165.222 165.845 165.364 165.817 165.422 165.733C165.479 165.648 165.451 165.505 165.339 165.458C165.253 165.402 165.137 165.419 165.053 165.514C164.996 165.599 165.024 165.742 165.136 165.788C165.136 165.788 165.11 165.799 165.136 165.788ZM140.397 170.39C140.473 170.421 140.514 170.373 140.556 170.325C140.587 170.249 140.539 170.209 140.49 170.166C140.415 170.135 140.374 170.183 140.332 170.232C140.327 170.294 140.349 170.348 140.397 170.39ZM141.396 167.726C141.471 167.757 141.512 167.708 141.554 167.66C141.585 167.585 141.537 167.544 141.489 167.502C141.413 167.471 141.373 167.519 141.33 167.567C141.326 167.63 141.348 167.684 141.396 167.726ZM142.422 165.05C142.486 165.055 142.538 165.033 142.581 164.985C142.623 164.937 142.59 164.858 142.526 164.854C142.462 164.849 142.41 164.871 142.368 164.919C142.314 164.94 142.347 165.019 142.422 165.05C142.422 165.05 142.396 165.061 142.422 165.05ZM143.421 162.387C143.485 162.391 143.537 162.369 143.579 162.321C143.61 162.246 143.589 162.194 143.514 162.163C143.449 162.159 143.398 162.18 143.355 162.228C143.324 162.303 143.345 162.355 143.421 162.387ZM152.353 169.925C152.375 169.978 152.45 170.008 152.502 169.987C152.555 169.965 152.585 169.89 152.563 169.838C152.541 169.785 152.467 169.755 152.415 169.776C152.351 169.772 152.32 169.846 152.353 169.925ZM151.156 167.334C151.179 167.388 151.253 167.418 151.332 167.385C151.385 167.363 151.415 167.288 151.394 167.237C151.372 167.183 151.297 167.153 151.245 167.175C151.155 167.181 151.124 167.256 151.156 167.334ZM149.987 164.734C150.009 164.787 150.084 164.817 150.136 164.795C150.189 164.773 150.219 164.699 150.198 164.647C150.176 164.593 150.101 164.564 150.049 164.585C149.996 164.607 149.965 164.68 149.987 164.734ZM148.817 162.132L148.828 162.158C148.876 162.201 148.914 162.215 148.966 162.194C149.019 162.172 149.049 162.097 149.027 162.045C149.005 161.992 148.968 161.977 148.905 161.973L148.879 161.984C148.8 162.016 148.795 162.08 148.817 162.132ZM136.035 165.899C136.083 165.941 136.146 165.945 136.189 165.897C136.231 165.849 136.224 165.76 136.176 165.717C136.128 165.675 136.065 165.671 136.022 165.718C135.991 165.793 136.012 165.845 136.035 165.899ZM137.989 163.826C138.038 163.868 138.101 163.872 138.143 163.825C138.186 163.777 138.19 163.713 138.142 163.671C138.094 163.629 138.031 163.625 137.988 163.673C137.935 163.695 137.941 163.785 137.989 163.826ZM139.933 161.728C139.982 161.77 140.045 161.774 140.088 161.727C140.13 161.678 140.134 161.615 140.086 161.573C140.038 161.531 139.975 161.527 139.932 161.575C139.89 161.623 139.885 161.687 139.933 161.728ZM146.327 169.853C146.391 169.858 146.432 169.81 146.437 169.746C146.441 169.681 146.393 169.64 146.329 169.636C146.265 169.632 146.224 169.68 146.219 169.744C146.214 169.807 146.263 169.849 146.327 169.853ZM146.225 166.996C146.289 167 146.33 166.953 146.335 166.888C146.34 166.824 146.292 166.783 146.228 166.779C146.163 166.775 146.122 166.822 146.118 166.887C146.113 166.949 146.162 166.992 146.225 166.996ZM146.124 164.138C146.188 164.142 146.229 164.094 146.234 164.03C146.238 163.966 146.18 163.899 146.127 163.921C146.062 163.916 146.021 163.964 146.016 164.029C146.012 164.093 146.06 164.134 146.124 164.138ZM146.034 161.308C146.098 161.312 146.139 161.264 146.144 161.2C146.148 161.136 146.09 161.068 146.036 161.09C145.972 161.086 145.931 161.134 145.926 161.198C145.922 161.261 145.97 161.302 146.034 161.308ZM156.216 165.369C156.264 165.412 156.327 165.416 156.37 165.368C156.412 165.321 156.416 165.257 156.369 165.215C156.32 165.172 156.257 165.169 156.214 165.216C156.172 165.264 156.168 165.328 156.216 165.369ZM154.114 163.429C154.163 163.472 154.252 163.465 154.295 163.417C154.337 163.369 154.341 163.306 154.294 163.264C154.246 163.221 154.182 163.218 154.14 163.265C154.071 163.324 154.093 163.377 154.114 163.429ZM152.05 161.506C152.099 161.549 152.188 161.542 152.231 161.494C152.273 161.446 152.266 161.356 152.219 161.314C152.17 161.271 152.081 161.278 152.038 161.326C151.996 161.374 152.003 161.464 152.05 161.506ZM149.976 159.556C150.024 159.598 150.087 159.602 150.13 159.555C150.145 159.518 150.161 159.48 150.151 159.454C150.14 159.428 150.129 159.401 150.129 159.401C150.08 159.358 150.017 159.354 149.974 159.402C149.948 159.413 149.932 159.45 149.943 159.477C149.917 159.488 149.938 159.54 149.976 159.556ZM130.656 164.48C130.704 164.522 130.778 164.552 130.847 164.493C130.915 164.434 130.919 164.371 130.886 164.291C130.828 164.223 130.764 164.219 130.695 164.278C130.628 164.337 130.597 164.411 130.656 164.48ZM139.603 173.771C139.667 173.775 139.746 173.743 139.75 173.68C139.755 173.615 139.722 173.537 139.658 173.532C139.594 173.528 139.515 173.56 139.511 173.624C139.48 173.699 139.54 173.766 139.603 173.771ZM140.166 170.577C140.23 170.581 140.309 170.549 140.329 170.448C140.333 170.383 140.301 170.305 140.226 170.274C140.162 170.27 140.083 170.302 140.079 170.365C140.059 170.468 140.091 170.546 140.166 170.577ZM140.756 167.373C140.82 167.377 140.899 167.345 140.903 167.281C140.903 167.281 140.929 167.27 140.892 167.255C140.897 167.191 140.864 167.113 140.79 167.081C140.725 167.077 140.647 167.11 140.616 167.184C140.633 167.3 140.692 167.368 140.756 167.373ZM141.319 164.179C141.383 164.183 141.462 164.151 141.493 164.076C141.524 164.001 141.465 163.934 141.39 163.903C141.353 163.887 141.301 163.909 141.258 163.957C141.232 163.968 141.232 163.968 141.232 163.968L141.216 164.005C141.197 164.106 141.255 164.175 141.319 164.179ZM152.919 170.771C152.941 170.825 153.041 170.844 153.095 170.822C153.095 170.822 153.095 170.822 153.121 170.811C153.163 170.763 153.193 170.689 153.134 170.62C153.086 170.578 153.012 170.548 152.932 170.58C152.865 170.64 152.871 170.73 152.919 170.771ZM151.049 168.12C151.108 168.188 151.171 168.192 151.24 168.133C151.282 168.085 151.313 168.011 151.253 167.942C151.205 167.9 151.131 167.87 151.051 167.902C151.021 167.977 150.989 168.051 151.049 168.12ZM149.194 165.431C149.216 165.484 149.291 165.514 149.369 165.482C149.369 165.482 149.369 165.482 149.396 165.471C149.438 165.423 149.468 165.349 149.409 165.28C149.361 165.238 149.287 165.207 149.207 165.24C149.166 165.289 149.146 165.389 149.194 165.431ZM147.323 162.779C147.345 162.832 147.42 162.862 147.498 162.83C147.498 162.83 147.498 162.83 147.525 162.819C147.567 162.771 147.597 162.697 147.538 162.628C147.479 162.56 147.416 162.555 147.336 162.588C147.295 162.637 147.301 162.727 147.323 162.779ZM133.881 169.656C133.93 169.698 134.019 169.691 134.077 169.606C134.108 169.531 134.087 169.479 134.027 169.411C133.979 169.368 133.889 169.375 133.831 169.461C133.8 169.535 133.833 169.614 133.881 169.656ZM135.653 166.919C135.702 166.961 135.791 166.954 135.823 166.88C135.865 166.832 135.858 166.742 135.773 166.684C135.697 166.653 135.608 166.66 135.577 166.734C135.573 166.799 135.579 166.889 135.653 166.919ZM137.4 164.193C137.448 164.236 137.538 164.229 137.569 164.154C137.612 164.106 137.605 164.016 137.557 163.974C137.509 163.931 137.419 163.938 137.388 164.013C137.308 164.047 137.34 164.126 137.4 164.193C137.389 164.167 137.389 164.167 137.4 164.193ZM146.176 171.952C146.202 171.941 146.213 171.967 146.24 171.956C146.319 171.924 146.361 171.875 146.328 171.796C146.306 171.743 146.248 171.676 146.169 171.709C146.09 171.741 146.048 171.789 146.08 171.868C146.101 171.921 146.111 171.948 146.176 171.952ZM145.375 168.673C145.37 168.737 145.455 168.794 145.534 168.761C145.613 168.729 145.656 168.68 145.649 168.591C145.617 168.512 145.569 168.47 145.478 168.476C145.41 168.536 145.379 168.61 145.375 168.673ZM144.681 165.505C144.714 165.584 144.762 165.626 144.841 165.593C144.92 165.561 144.962 165.512 144.929 165.434C144.897 165.355 144.849 165.313 144.77 165.346C144.716 165.367 144.659 165.453 144.681 165.505ZM143.987 162.336C144.02 162.415 144.068 162.457 144.147 162.424C144.211 162.429 144.268 162.344 144.246 162.291C144.251 162.227 144.166 162.17 144.087 162.203C144.023 162.198 143.955 162.258 143.987 162.336ZM156.428 164.912C156.476 164.954 156.566 164.947 156.624 164.862C156.666 164.814 156.659 164.724 156.584 164.693C156.536 164.65 156.447 164.657 156.404 164.705C156.347 164.791 156.354 164.881 156.428 164.912ZM153.698 163.17C153.746 163.212 153.835 163.205 153.867 163.131C153.909 163.083 153.902 162.993 153.855 162.95C153.779 162.919 153.717 162.915 153.659 163C153.606 163.023 153.613 163.114 153.698 163.17ZM150.931 161.414C150.979 161.456 151.068 161.449 151.126 161.364C151.169 161.316 151.162 161.226 151.087 161.195C151.039 161.153 150.949 161.16 150.918 161.234C150.85 161.293 150.882 161.372 150.931 161.414ZM132.192 168.564C132.315 168.637 132.447 168.582 132.494 168.471C132.54 168.359 132.512 168.217 132.427 168.159C132.305 168.086 132.173 168.141 132.114 168.226C132.042 168.349 132.097 168.481 132.192 168.564ZM135.109 163.813C135.232 163.885 135.364 163.831 135.422 163.746C135.495 163.624 135.44 163.492 135.355 163.435C135.233 163.362 135.101 163.417 135.043 163.501C134.958 163.598 135.012 163.729 135.109 163.813ZM145.248 180.91C145.265 181.026 145.4 181.125 145.531 181.071C145.647 181.054 145.746 180.92 145.692 180.788C145.675 180.672 145.54 180.573 145.409 180.627C145.304 180.671 145.231 180.793 145.248 180.91ZM143.961 175.489C143.978 175.604 144.138 175.693 144.244 175.649C144.36 175.632 144.422 175.483 144.405 175.367C144.387 175.25 144.239 175.189 144.122 175.206C143.991 175.26 143.917 175.382 143.961 175.489ZM142.649 170.077C142.666 170.193 142.8 170.292 142.932 170.238C143.048 170.22 143.147 170.086 143.093 169.955C143.075 169.839 142.941 169.74 142.81 169.794C142.704 169.838 142.632 169.961 142.649 170.077ZM141.335 164.666C141.353 164.782 141.512 164.871 141.618 164.827C141.734 164.81 141.808 164.686 141.779 164.544C141.762 164.428 141.639 164.356 141.496 164.383C141.379 164.401 141.307 164.524 141.335 164.666ZM165.692 172.653C165.814 172.726 165.946 172.671 166.03 172.576C166.103 172.454 166.048 172.322 165.937 172.275C165.825 172.229 165.682 172.257 165.624 172.342C165.551 172.465 165.579 172.607 165.692 172.653ZM160.906 169.756C161.028 169.828 161.161 169.774 161.219 169.689C161.291 169.567 161.237 169.435 161.152 169.377C161.066 169.32 160.897 169.359 160.839 169.444C160.793 169.556 160.821 169.699 160.906 169.756ZM156.148 166.847C156.27 166.92 156.402 166.865 156.46 166.781C156.533 166.658 156.479 166.527 156.383 166.443C156.261 166.37 156.128 166.425 156.081 166.536C156.034 166.648 156.062 166.79 156.148 166.847ZM151.389 163.939C151.511 164.011 151.643 163.957 151.701 163.872C151.774 163.75 151.719 163.618 151.624 163.534C151.501 163.462 151.369 163.516 151.311 163.601C151.238 163.723 151.266 163.866 151.389 163.939ZM146.63 161.03C146.753 161.102 146.885 161.048 146.932 160.936C146.978 160.825 146.949 160.682 146.865 160.624C146.743 160.552 146.61 160.606 146.552 160.691C146.479 160.815 146.518 160.984 146.63 161.03ZM136.709 173.424C136.836 173.434 136.957 173.352 136.966 173.225C136.976 173.098 136.895 172.977 136.768 172.968C136.64 172.958 136.519 173.04 136.51 173.167C136.489 173.268 136.571 173.389 136.709 173.424ZM137.542 167.898C137.669 167.907 137.79 167.826 137.81 167.724C137.82 167.597 137.739 167.476 137.612 167.467C137.484 167.457 137.363 167.539 137.354 167.666C137.334 167.767 137.441 167.878 137.542 167.898ZM138.451 162.403C138.578 162.412 138.699 162.331 138.709 162.204C138.718 162.077 138.648 161.982 138.521 161.973C138.521 161.973 138.521 161.973 138.51 161.947C138.409 161.926 138.288 162.008 138.268 162.109L138.279 162.135C138.232 162.246 138.313 162.367 138.451 162.403C138.424 162.413 138.413 162.387 138.451 162.403ZM155.618 179.528C155.687 179.622 155.852 179.647 155.947 179.577C156.041 179.507 156.066 179.342 155.996 179.248C155.926 179.154 155.788 179.118 155.693 179.188C155.573 179.268 155.537 179.406 155.618 179.528ZM152.32 174.998C152.39 175.092 152.529 175.128 152.649 175.047C152.744 174.977 152.78 174.84 152.699 174.718C152.629 174.624 152.49 174.588 152.37 174.669C152.285 174.765 152.25 174.903 152.32 174.998ZM149.06 170.483C149.13 170.577 149.269 170.613 149.363 170.544C149.457 170.474 149.493 170.336 149.412 170.215C149.342 170.12 149.204 170.085 149.083 170.165C148.989 170.235 148.99 170.388 149.06 170.483ZM145.774 165.979C145.844 166.073 146.009 166.098 146.103 166.029C146.198 165.959 146.234 165.821 146.153 165.7C146.083 165.606 145.944 165.57 145.824 165.65C145.702 165.732 145.704 165.885 145.774 165.979ZM133.65 170.738C133.777 170.748 133.898 170.667 133.918 170.565C133.928 170.438 133.847 170.317 133.745 170.298C133.644 170.277 133.512 170.331 133.477 170.471C133.431 170.583 133.511 170.703 133.65 170.738ZM134.734 165.294C134.861 165.304 134.982 165.223 135.002 165.121C135.012 164.994 134.93 164.873 134.829 164.853C134.728 164.833 134.596 164.887 134.56 165.027C134.526 165.164 134.606 165.285 134.734 165.294ZM153.179 182.447C153.249 182.541 153.388 182.577 153.508 182.496C153.602 182.427 153.638 182.289 153.557 182.167C153.488 182.073 153.349 182.037 153.255 182.107C153.145 182.214 153.109 182.352 153.179 182.447ZM150.093 177.83C150.162 177.924 150.301 177.96 150.422 177.879C150.516 177.809 150.552 177.672 150.482 177.577C150.412 177.482 150.273 177.447 150.142 177.501C150.059 177.598 150.023 177.735 150.093 177.83ZM147.006 173.213C147.076 173.307 147.215 173.343 147.335 173.262C147.43 173.192 147.466 173.055 147.396 172.96C147.326 172.865 147.187 172.83 147.093 172.899C146.999 172.969 146.963 173.108 147.006 173.213ZM143.947 168.584C144.017 168.679 144.155 168.715 144.25 168.645C144.344 168.575 144.38 168.437 144.31 168.342C144.24 168.248 144.101 168.212 144.007 168.282C143.913 168.352 143.876 168.49 143.947 168.584ZM140.861 163.967C140.93 164.062 141.069 164.097 141.163 164.028C141.19 164.017 141.206 163.98 141.206 163.98L141.232 163.969C141.263 163.893 141.283 163.794 141.224 163.725C141.154 163.631 141.015 163.595 140.921 163.665C140.815 163.709 140.79 163.873 140.861 163.967ZM155.471 160.958C155.598 160.968 155.719 160.886 155.739 160.785C155.749 160.658 155.667 160.537 155.566 160.517C155.465 160.496 155.333 160.551 155.297 160.69C155.251 160.801 155.333 160.923 155.471 160.958ZM149.883 159.779C149.894 159.805 149.942 159.847 149.979 159.862C149.979 159.862 149.99 159.888 150.017 159.878C150.154 159.913 150.276 159.833 150.285 159.704C150.306 159.604 150.251 159.472 150.15 159.452C150.139 159.426 150.113 159.436 150.113 159.436C150.049 159.432 149.985 159.427 149.943 159.476C149.89 159.498 149.849 159.545 149.844 159.609C149.828 159.648 149.835 159.738 149.883 159.779ZM140.23 178.57C140.248 178.686 140.371 178.759 140.487 178.742C140.603 178.725 140.702 178.591 140.685 178.475C140.668 178.359 140.534 178.26 140.418 178.277C140.286 178.332 140.202 178.427 140.23 178.57ZM139.15 173.125C139.168 173.241 139.302 173.34 139.418 173.323C139.534 173.306 139.633 173.172 139.616 173.056C139.599 172.94 139.465 172.841 139.348 172.858C139.196 172.86 139.122 172.983 139.15 173.125C139.15 173.125 139.14 173.099 139.15 173.125ZM138.07 167.68C138.087 167.796 138.221 167.895 138.353 167.841C138.469 167.823 138.542 167.7 138.524 167.584C138.507 167.468 138.373 167.369 138.257 167.386C138.141 167.403 138.042 167.537 138.07 167.68ZM159.208 172.523C159.331 172.596 159.474 172.568 159.521 172.457C159.604 172.36 159.577 172.218 159.454 172.145C159.358 172.062 159.215 172.09 159.131 172.186C159.084 172.297 159.112 172.439 159.208 172.523ZM154.591 169.433C154.714 169.506 154.857 169.477 154.904 169.366C154.987 169.27 154.959 169.127 154.837 169.055C154.74 168.972 154.598 169 154.514 169.096C154.466 169.207 154.494 169.35 154.591 169.433ZM149.973 166.343C150.096 166.416 150.239 166.387 150.286 166.276C150.369 166.18 150.342 166.037 150.219 165.965C150.122 165.882 149.98 165.91 149.907 166.031C149.849 166.117 149.876 166.26 149.973 166.343ZM145.355 163.252C145.477 163.325 145.62 163.297 145.668 163.186C145.751 163.089 145.723 162.947 145.601 162.874C145.504 162.791 145.362 162.819 145.288 162.941C145.231 163.027 145.26 163.169 145.355 163.252ZM133.375 167.984C133.464 167.978 133.559 167.908 133.553 167.818C133.547 167.728 133.476 167.633 133.387 167.64C133.297 167.647 133.229 167.706 133.209 167.806C133.188 167.907 133.273 167.964 133.375 167.984ZM133.332 163.775C133.422 163.769 133.49 163.71 133.511 163.609C133.505 163.519 133.434 163.425 133.345 163.431C133.255 163.437 133.186 163.496 133.166 163.597C133.156 163.725 133.215 163.794 133.332 163.775C133.305 163.786 133.305 163.786 133.332 163.775ZM149.619 173.552C149.678 173.62 149.795 173.603 149.863 173.544C149.931 173.485 149.914 173.369 149.855 173.301C149.796 173.233 149.695 173.213 149.611 173.309C149.611 173.309 149.611 173.309 149.585 173.32C149.554 173.394 149.56 173.484 149.619 173.552ZM146.617 170.629C146.676 170.697 146.793 170.679 146.861 170.621C146.929 170.562 146.911 170.446 146.852 170.378C146.794 170.31 146.666 170.301 146.609 170.386C146.551 170.471 146.557 170.561 146.617 170.629ZM143.613 167.705C143.672 167.773 143.789 167.755 143.857 167.696C143.925 167.637 143.908 167.521 143.849 167.453C143.789 167.384 143.673 167.402 143.605 167.461C143.574 167.535 143.554 167.636 143.613 167.705ZM140.637 164.769C140.696 164.837 140.812 164.82 140.88 164.761C140.948 164.702 140.958 164.575 140.872 164.517C140.813 164.449 140.685 164.441 140.628 164.526C140.56 164.584 140.551 164.712 140.637 164.769ZM141.247 176.547C141.28 176.626 141.391 176.673 141.471 176.64C141.55 176.607 141.597 176.495 141.564 176.416C141.531 176.336 141.419 176.29 141.34 176.323C141.234 176.367 141.214 176.468 141.247 176.547ZM139.591 172.697C139.624 172.776 139.736 172.822 139.815 172.79C139.894 172.757 139.941 172.645 139.908 172.566C139.876 172.487 139.789 172.43 139.684 172.473C139.605 172.506 139.558 172.617 139.591 172.697ZM137.946 168.873C137.978 168.951 138.09 168.998 138.17 168.965C138.248 168.933 138.306 168.847 138.262 168.742C138.23 168.663 138.118 168.616 138.038 168.649C137.949 168.655 137.902 168.767 137.946 168.873C137.935 168.846 137.935 168.846 137.946 168.873ZM136.29 165.021C136.323 165.1 136.435 165.147 136.514 165.114C136.593 165.082 136.64 164.97 136.607 164.891C136.575 164.812 136.463 164.765 136.383 164.798C136.304 164.831 136.247 164.916 136.29 165.021ZM152.661 165.295C152.736 165.326 152.841 165.283 152.872 165.208C152.903 165.133 152.885 165.017 152.784 164.997C152.683 164.976 152.604 165.009 152.547 165.095C152.517 165.17 152.576 165.237 152.661 165.295ZM148.766 163.726C148.867 163.747 148.947 163.714 149.004 163.628C149.035 163.553 148.991 163.448 148.917 163.418C148.841 163.387 148.736 163.43 148.679 163.516C148.621 163.601 148.665 163.706 148.766 163.726ZM144.871 162.157C144.946 162.188 145.051 162.145 145.082 162.07C145.113 161.995 145.069 161.89 144.994 161.859C144.919 161.829 144.814 161.871 144.783 161.946C144.726 162.031 144.77 162.138 144.871 162.157ZM136.747 168.441C136.769 168.494 136.833 168.498 136.885 168.477C136.938 168.455 136.942 168.391 136.92 168.339C136.898 168.286 136.834 168.282 136.782 168.304C136.73 168.325 136.7 168.4 136.747 168.441ZM135.516 166.513C135.538 166.567 135.602 166.57 135.654 166.549C135.707 166.527 135.711 166.463 135.7 166.437C135.678 166.384 135.614 166.381 135.562 166.402C135.5 166.397 135.494 166.461 135.516 166.513ZM134.286 164.585C134.308 164.638 134.372 164.641 134.424 164.62C134.477 164.598 134.48 164.534 134.459 164.482C134.437 164.43 134.373 164.425 134.321 164.447C134.269 164.468 134.264 164.532 134.286 164.585ZM131.429 166.72C131.451 166.774 131.499 166.815 131.551 166.793C131.604 166.771 131.645 166.723 131.624 166.671C131.602 166.617 131.554 166.576 131.501 166.598C131.476 166.609 131.434 166.657 131.429 166.72ZM131.054 164.47C131.076 164.523 131.124 164.564 131.177 164.542C131.241 164.546 131.282 164.499 131.26 164.446C131.238 164.392 131.19 164.351 131.137 164.373C131.074 164.368 131.032 164.416 131.054 164.47ZM139.307 164.394C139.355 164.436 139.408 164.414 139.423 164.377C139.465 164.328 139.443 164.276 139.395 164.234C139.346 164.192 139.294 164.214 139.278 164.252C139.274 164.314 139.268 164.378 139.307 164.394ZM137.44 163.097C137.488 163.139 137.541 163.117 137.583 163.068C137.626 163.02 137.604 162.968 137.555 162.926C137.507 162.884 137.454 162.906 137.412 162.954C137.397 162.992 137.392 163.056 137.44 163.097ZM140.636 170.815C140.722 170.872 140.8 170.839 140.869 170.781C140.911 170.733 140.904 170.643 140.846 170.574C140.797 170.532 140.708 170.539 140.639 170.597C140.544 170.668 140.55 170.759 140.636 170.815C140.609 170.826 140.609 170.826 140.636 170.815ZM137.529 168.613C137.578 168.655 137.667 168.648 137.736 168.59C137.804 168.531 137.761 168.426 137.713 168.383C137.627 168.326 137.548 168.359 137.48 168.417C137.438 168.465 137.454 168.582 137.529 168.613ZM134.433 166.436C134.519 166.493 134.598 166.46 134.667 166.402C134.724 166.316 134.692 166.238 134.644 166.195C134.558 166.138 134.479 166.171 134.411 166.229C134.342 166.289 134.385 166.394 134.433 166.436ZM131.364 164.249C131.439 164.28 131.529 164.273 131.597 164.215C131.628 164.14 131.621 164.051 131.563 163.982C131.477 163.925 131.398 163.958 131.356 164.005C131.273 164.102 131.279 164.192 131.364 164.249ZM142.054 163.043C142.13 163.074 142.224 163.004 142.254 162.93C142.286 162.854 142.215 162.76 142.141 162.73C142.066 162.698 141.972 162.769 141.967 162.832C141.909 162.918 141.953 163.023 142.054 163.043Z" fill="white"/>
<path d="M168.625 66.8331C168.625 66.8331 154.336 71.5914 141.061 84.692C127.786 97.7926 128.958 104.064 121.558 111.869C114.157 119.675 93.2079 135.297 104.776 160.996C104.776 160.996 125.174 172.562 174.368 149.534L180.998 71.7804C180.997 71.7807 174.115 73.45 168.625 66.8331Z" fill="url(#paint4_linear_5337_547)"/>
<path d="M293.895 145.144C287.687 149.188 286.78 145.953 280.978 147.917C277.643 149.048 251.752 157.363 240.475 160.292L236.83 135.883C241.645 136.24 259.603 138.326 263.172 137.839C274.088 136.355 277.364 136.205 278.618 133.929C279.435 132.543 280.616 131.439 282.013 130.707L286.456 128.225C289.64 124.565 289.644 123.083 292.634 125.674C295.623 128.265 300.102 141.1 293.895 145.144Z" fill="url(#paint5_linear_5337_547)"/>
<path d="M181.578 69.9593C181.578 69.9593 183.894 94.6619 191.127 109.071C198.359 123.479 202.222 127.806 215.939 130.037C226.645 131.784 236.366 132.797 236.366 132.797L243.231 178.938C243.231 178.938 227.62 182.886 216.571 175.081C204.13 166.308 197.616 168.412 190.04 169.073C182.448 169.771 165.202 166.931 159.214 143.065C153.226 119.199 155.028 99.3652 167.112 67.4199" fill="#23286B"/>
<path d="M184.405 58.0129C183.563 60.9819 181.817 67.4407 181.596 69.968C181.596 69.968 176.088 76.3754 167.13 67.4281C167.097 67.3493 171.67 62.7158 173.461 59.3538C177.152 59.6815 180.897 59.246 184.405 58.0129Z" fill="url(#paint6_linear_5337_547)"/>
<path d="M196.277 40.1597C195.951 40.4173 195.76 40.7749 195.742 41.1822C195.58 44.6729 193.674 60.8216 173.331 59.3196C173.331 59.3196 173.241 59.3259 173.076 59.302C173.812 59.214 174.319 58.5723 174.269 57.8532C174.201 57.0175 173.587 55.7592 171.602 53.8026C167.043 49.3613 168.777 45.037 170.958 45.1542C173.166 45.2602 177.772 52.0568 178.902 47.3946C179.682 44.2032 178.111 40.7814 178.239 38.4769C178.256 38.0686 178.474 37.7013 178.811 37.4699L189.396 29.7371C189.573 29.9417 189.735 30.1824 189.86 30.4094C189.893 30.4882 189.952 30.5569 190.048 30.6403C190.655 31.2843 194.045 34.696 196.571 35.1955C199.208 35.742 199.133 38.0251 196.277 40.1597Z" fill="#FFBEB6"/>
<path d="M160.114 51.1464L178.347 37.8497C177.8 40.1116 179.779 43.9213 178.937 47.4141C177.797 52.0496 173.2 45.279 170.993 45.1737C168.812 45.0565 167.078 49.3807 171.638 53.8219C176.197 58.2631 173.539 59.2366 173.539 59.2366C167.291 60.6443 161.473 53.0838 160.114 51.1464Z" fill="#23286B"/>
<path d="M196.834 45.7571C196.497 47.4079 194.908 48.4959 193.228 48.1718C192.621 48.0521 192.066 47.7565 191.636 47.3171C191.315 46.9876 191.753 46.4049 192.086 46.7613C192.966 47.6934 194.421 47.7715 195.393 46.9078C195.749 46.5751 195.999 46.1328 196.084 45.666C196.233 45.202 196.956 45.3053 196.834 45.7571Z" fill="#1C2868"/>
<path d="M205.62 17.9197L159.927 51.2899L158.703 49.6046L203.355 17.004C203.95 16.573 204.774 16.696 205.205 17.2896L205.62 17.9197Z" fill="#F1B505"/>
<path d="M188.35 27.9573L158.679 49.6168L156.217 46.2838C151.95 40.4568 153.231 32.2775 159.071 28.0161L167.141 22.1238C173.212 17.674 181.773 19.0126 186.201 25.0812L188.35 27.9573Z" fill="url(#paint7_linear_5337_547)"/>
<path d="M41.6774 332.816C46.0577 332.816 49.6086 331.085 49.6086 328.951C49.6086 326.817 46.0577 325.086 41.6774 325.086C37.297 325.086 33.7461 326.817 33.7461 328.951C33.7461 331.085 37.297 332.816 41.6774 332.816Z" fill="#A1C3FC"/>
<path d="M3.37562 286.599L-1.83485 281.38C-2.68266 281.725 -3.45802 282.195 -4.12663 282.828L1.50679 288.47C1.82285 288.787 1.82285 289.3 1.50679 289.616C1.19072 289.933 0.678616 289.933 0.36268 289.616L-5.16576 284.079C-5.68986 284.886 -6.0424 285.793 -6.22786 286.759L-1.56342 291.431C-1.24736 291.747 -1.24736 292.26 -1.56342 292.576C-1.87949 292.893 -2.39159 292.893 -2.70753 292.576L-6.37109 288.907C-6.23385 291.641 -4.93847 294.582 -2.56455 296.96C-2.50907 297.015 -2.45294 297.069 -2.39682 297.124C-2.79158 297.685 -3.16135 298.266 -3.49399 298.871C-4.42752 300.569 -5.43425 303.183 -4.92955 305.991L-4.13326 305.847C-4.59601 303.273 -3.65559 300.845 -2.78521 299.262C-2.48509 298.715 -2.15142 298.188 -1.79441 297.676C0.433597 299.604 3.06925 300.684 5.52174 300.818L2.0407 297.332C1.72464 297.016 1.72464 296.503 2.0407 296.186C2.35677 295.87 2.86887 295.87 3.18481 296.186L7.67067 300.679C8.63366 300.492 9.53249 300.132 10.3232 299.592L5.11078 294.372C4.79472 294.055 4.79472 293.542 5.11078 293.226C5.42685 292.909 5.93895 292.909 6.25489 293.226L11.5387 298.518C12.1369 297.835 12.576 297.025 12.8943 296.132L8.12385 291.354C7.80779 291.038 7.80779 290.525 8.12385 290.208C8.43992 289.892 8.95202 289.892 9.26796 290.208L13.3684 294.315C13.5682 293.211 13.6455 292.038 13.6538 290.857L11.0797 288.279C10.7636 287.963 10.7636 287.45 11.0797 287.133C11.3957 286.817 11.9078 286.817 12.2238 287.133L13.5946 288.506C13.4253 285.205 12.988 282.181 13.511 280.86C11.7744 281.261 8.81988 280.79 5.70082 280.601L7.47527 282.378C7.79134 282.694 7.79134 283.207 7.47527 283.524C7.15921 283.84 6.6471 283.84 6.33116 283.524L3.34131 280.529C2.17106 280.538 1.01483 280.626 -0.0727692 280.853L4.51985 285.453C4.83592 285.769 4.83592 286.282 4.51985 286.599C4.20379 286.915 3.69156 286.915 3.37562 286.599Z" fill="#DBECFF"/>
<path d="M150.522 107.367H53.9863V184.762H150.522V107.367Z" fill="#F8B757"/>
<path d="M141.183 29.9736H71.7617V107.368H141.183V29.9736Z" fill="url(#paint8_linear_5337_547)"/>
<path d="M124.768 -5.12402H89.2402V30.3351H124.768V-5.12402Z" fill="url(#paint9_linear_5337_547)"/>
<path d="M151.425 107.367H53.0859V122.216H151.425V107.367Z" fill="#ECB157"/>
<path opacity="0.86" d="M147.675 149.447C147.719 149.264 147.606 149.079 147.421 149.036C147.419 149.035 147.417 149.035 147.414 149.033C147.229 148.987 147.041 149.095 146.989 149.279C146.953 149.466 147.064 149.65 147.248 149.704C147.437 149.752 147.629 149.637 147.675 149.447Z" fill="white"/>
<path opacity="0.86" d="M139.234 143.165C139.221 142.979 139.061 142.838 138.875 142.847C138.695 142.856 138.558 143.01 138.567 143.188C138.567 143.194 138.568 143.2 138.568 143.206C138.581 143.392 138.74 143.533 138.926 143.524C139.111 143.51 139.248 143.349 139.234 143.165Z" fill="white"/>
<path opacity="0.86" d="M147.071 142.958C147.072 142.958 147.074 142.958 147.074 142.958C147.26 142.936 147.398 142.775 147.392 142.588C147.377 142.403 147.216 142.267 147.033 142.282C146.846 142.292 146.702 142.452 146.714 142.639C146.723 142.825 146.884 142.969 147.071 142.958Z" fill="white"/>
<path opacity="0.86" d="M147.54 158.731C147.46 158.558 147.256 158.484 147.083 158.564C146.911 158.645 146.837 158.849 146.917 159.02C146.918 159.023 146.92 159.024 146.92 159.026C147.003 159.193 147.204 159.265 147.374 159.186C147.546 159.107 147.621 158.903 147.54 158.731Z" fill="white"/>
<path opacity="0.86" d="M146.178 135.769C146.216 135.606 146.114 135.446 145.953 135.409C145.951 135.409 145.949 135.408 145.948 135.408C145.793 135.367 145.634 135.459 145.592 135.613C145.591 135.617 145.589 135.622 145.589 135.625C145.554 135.79 145.655 135.954 145.818 135.998C145.98 136.028 146.137 135.929 146.178 135.769Z" fill="white"/>
<path opacity="0.86" d="M144.612 154.808C144.806 154.808 144.963 154.651 144.963 154.457C144.963 154.263 144.806 154.106 144.612 154.106C144.419 154.106 144.262 154.263 144.262 154.457C144.262 154.651 144.419 154.808 144.612 154.808Z" fill="white"/>
<path opacity="0.86" d="M145.091 127.86C145.151 127.691 145.062 127.507 144.893 127.447C144.885 127.444 144.877 127.442 144.867 127.439C144.695 127.381 144.508 127.473 144.449 127.645C144.449 127.646 144.448 127.648 144.448 127.649C144.388 127.825 144.481 128.017 144.657 128.08C144.837 128.129 145.025 128.034 145.091 127.86Z" fill="white"/>
<path opacity="0.86" d="M143.228 165.838C143.199 165.647 143.023 165.515 142.83 165.54C142.641 165.572 142.513 165.75 142.544 165.939C142.575 166.128 142.75 166.26 142.941 166.237C143.131 166.206 143.259 166.027 143.228 165.838Z" fill="white"/>
<path opacity="0.86" d="M122.743 162.573C122.78 162.41 122.679 162.25 122.518 162.214C122.515 162.214 122.514 162.213 122.513 162.213C122.358 162.171 122.198 162.263 122.156 162.418C122.155 162.421 122.154 162.426 122.153 162.43C122.119 162.594 122.219 162.758 122.382 162.803C122.544 162.833 122.701 162.733 122.743 162.573Z" fill="white"/>
<path opacity="0.86" d="M137.646 162.476C137.746 162.476 137.828 162.395 137.828 162.294C137.828 162.193 137.746 162.111 137.646 162.111C137.545 162.111 137.463 162.193 137.463 162.294C137.463 162.395 137.545 162.476 137.646 162.476Z" fill="white"/>
<path opacity="0.86" d="M129.398 157.261C129.398 157.26 129.398 157.259 129.399 157.257C129.462 157.083 129.371 156.89 129.197 156.828C129.194 156.827 129.193 156.827 129.191 156.826C129.014 156.766 128.822 156.859 128.759 157.034C128.71 157.213 128.805 157.401 128.98 157.467C129.152 157.525 129.339 157.432 129.398 157.261Z" fill="white"/>
<path opacity="0.86" d="M127.971 158.007C127.819 157.899 127.606 157.929 127.491 158.078C127.38 158.237 127.414 158.456 127.568 158.575C127.726 158.684 127.94 158.649 128.055 158.496C128.168 158.338 128.13 158.119 127.971 158.007Z" fill="white"/>
<path opacity="0.86" d="M137.158 159.838C137.218 159.662 137.125 159.47 136.95 159.407C136.775 159.345 136.584 159.436 136.522 159.611C136.52 159.616 136.519 159.622 136.518 159.627C136.456 159.795 136.544 159.98 136.713 160.041C136.718 160.043 136.723 160.043 136.728 160.045C136.903 160.106 137.096 160.014 137.158 159.838Z" fill="white"/>
<path opacity="0.86" d="M144.274 162.21C144.214 162.386 144.307 162.578 144.482 162.641C144.662 162.696 144.854 162.598 144.915 162.421C144.968 162.244 144.869 162.057 144.694 162C144.525 161.94 144.34 162.027 144.279 162.196C144.277 162.2 144.276 162.205 144.274 162.21Z" fill="white"/>
<path opacity="0.86" d="M141.785 162.265C141.785 162.27 141.785 162.276 141.785 162.28C141.782 162.377 141.859 162.459 141.954 162.463C142.055 162.456 142.134 162.378 142.14 162.28C142.137 162.18 142.058 162.101 141.957 162.097C141.863 162.097 141.786 162.173 141.785 162.265Z" fill="white"/>
<path opacity="0.86" d="M131.962 151.093C132.057 150.958 132.03 150.772 131.898 150.67C131.765 150.573 131.576 150.603 131.478 150.737C131.476 150.74 131.475 150.743 131.473 150.746C131.375 150.87 131.398 151.049 131.522 151.145C131.527 151.149 131.531 151.153 131.537 151.156C131.665 151.257 131.852 151.234 131.953 151.104C131.958 151.101 131.959 151.098 131.962 151.093Z" fill="white"/>
<path opacity="0.86" d="M141.014 169.713C141.05 169.803 141.154 169.844 141.244 169.806C141.329 169.775 141.375 169.68 141.345 169.593C141.343 169.587 141.34 169.581 141.337 169.575C141.301 169.483 141.2 169.437 141.108 169.47C141.017 169.515 140.977 169.62 141.014 169.713Z" fill="white"/>
<path opacity="0.86" d="M143.237 175.502C143.232 175.601 143.305 175.687 143.405 175.697C143.506 175.699 143.587 175.619 143.588 175.52C143.588 175.517 143.588 175.516 143.588 175.513C143.596 175.42 143.525 175.339 143.432 175.333C143.428 175.333 143.424 175.333 143.419 175.333C143.321 175.33 143.24 175.405 143.237 175.502Z" fill="white"/>
<path opacity="0.86" d="M147.747 169.783C147.752 169.787 147.755 169.79 147.761 169.793L147.713 169.519C147.65 169.601 147.664 169.719 147.747 169.783Z" fill="white"/>
<path opacity="0.86" d="M137.907 155.313C137.999 155.171 137.958 154.982 137.817 154.892C137.682 154.805 137.504 154.836 137.407 154.965C137.313 155.103 137.346 155.292 137.482 155.39C137.613 155.488 137.799 155.461 137.898 155.329C137.902 155.323 137.905 155.318 137.907 155.313Z" fill="white"/>
<path opacity="0.86" d="M142.206 176.066C142.177 176.176 142.243 176.288 142.353 176.318H142.354C142.468 176.337 142.577 176.268 142.609 176.158C142.623 176.049 142.554 175.945 142.446 175.916C142.339 175.893 142.231 175.959 142.206 176.066Z" fill="white"/>
<path opacity="0.86" d="M147.029 169.083C147.029 169.083 147.029 169.084 147.028 169.084C146.987 169.176 147.026 169.285 147.117 169.329C147.204 169.37 147.307 169.331 147.348 169.244C147.349 169.242 147.35 169.24 147.351 169.238C147.394 169.157 147.363 169.057 147.282 169.015C147.274 169.011 147.268 169.007 147.26 169.006C147.175 168.963 147.072 168.997 147.029 169.083Z" fill="white"/>
<path opacity="0.86" d="M121.655 154.665C121.715 154.496 121.627 154.312 121.457 154.252C121.449 154.249 121.441 154.247 121.432 154.244C121.26 154.186 121.072 154.278 121.013 154.45C121.013 154.451 121.012 154.452 121.012 154.454C120.952 154.63 121.046 154.822 121.221 154.885C121.402 154.934 121.589 154.838 121.655 154.665Z" fill="white"/>
<path opacity="0.86" d="M137.313 153.254C137.314 153.252 137.314 153.25 137.315 153.246C137.348 153.156 137.301 153.058 137.212 153.024C137.131 152.981 137.031 153.012 136.987 153.093C136.984 153.1 136.98 153.107 136.979 153.114C136.941 153.206 136.984 153.312 137.077 153.351C137.169 153.39 137.275 153.346 137.313 153.254Z" fill="white"/>
<path opacity="0.86" d="M134.58 163.588C134.772 163.588 134.928 163.433 134.928 163.241C134.928 163.049 134.772 162.893 134.58 162.893C134.388 162.893 134.232 163.049 134.232 163.241C134.232 163.433 134.388 163.588 134.58 163.588Z" fill="white"/>
<path opacity="0.86" d="M115.798 169.97C115.785 169.784 115.626 169.643 115.439 169.652C115.26 169.661 115.122 169.815 115.131 169.994C115.131 170 115.132 170.006 115.132 170.012C115.145 170.198 115.304 170.339 115.491 170.33C115.676 170.315 115.813 170.154 115.798 169.97Z" fill="white"/>
<path opacity="0.86" d="M145.431 174.903C145.506 175.062 145.695 175.132 145.856 175.058C145.862 175.055 145.869 175.053 145.876 175.049L145.875 175.05C146.043 174.972 146.116 174.773 146.039 174.605C145.961 174.437 145.762 174.365 145.593 174.441C145.589 174.444 145.585 174.445 145.579 174.448C145.414 174.529 145.346 174.729 145.427 174.893C145.427 174.897 145.429 174.899 145.431 174.903Z" fill="white"/>
<path opacity="0.86" d="M137.811 175.107C137.81 175.107 137.81 175.106 137.811 175.106C137.825 174.997 137.757 174.893 137.649 174.864C137.541 174.84 137.433 174.907 137.409 175.014C137.378 175.115 137.435 175.218 137.535 175.249C137.542 175.251 137.55 175.253 137.559 175.254C137.669 175.283 137.781 175.217 137.811 175.107Z" fill="white"/>
<path opacity="0.86" d="M139.112 175.541C139.21 175.541 139.289 175.462 139.289 175.364C139.289 175.267 139.21 175.188 139.112 175.188C139.015 175.188 138.936 175.267 138.936 175.364C138.936 175.462 139.015 175.541 139.112 175.541Z" fill="white"/>
<path opacity="0.86" d="M140.101 176.006C140.259 175.985 140.369 175.838 140.347 175.68C140.348 175.675 140.347 175.669 140.345 175.663C140.323 175.505 140.177 175.395 140.017 175.418C140.012 175.418 140.005 175.42 139.999 175.42C139.837 175.449 139.729 175.603 139.756 175.764C139.785 175.925 139.939 176.034 140.101 176.006Z" fill="white"/>
<path opacity="0.86" d="M147.299 174.805C147.46 174.778 147.569 174.625 147.541 174.463C147.515 174.299 147.362 174.186 147.198 174.208C147.196 174.209 147.195 174.21 147.194 174.21C147.139 174.203 147.083 174.22 147.045 174.261C147.036 174.269 147.029 174.281 147.028 174.294C147.028 174.294 147.028 174.295 147.027 174.295L147.026 174.307C146.96 174.375 146.934 174.473 146.953 174.565C146.983 174.727 147.137 174.836 147.299 174.805Z" fill="white"/>
<path opacity="0.86" d="M145.757 172.452C145.861 172.359 145.87 172.2 145.777 172.096C145.774 172.093 145.773 172.091 145.77 172.088C145.675 171.983 145.511 171.975 145.407 172.071C145.402 172.075 145.398 172.079 145.393 172.085C145.29 172.183 145.288 172.347 145.388 172.45C145.488 172.552 145.652 172.555 145.755 172.455C145.754 172.454 145.755 172.453 145.757 172.452Z" fill="white"/>
<path opacity="0.86" d="M133.163 176.863C133.126 176.701 132.971 176.594 132.806 176.619C132.643 176.648 132.535 176.802 132.563 176.963C132.585 177.12 132.731 177.231 132.891 177.208C132.896 177.207 132.903 177.206 132.909 177.205C133.071 177.18 133.185 177.028 133.163 176.863Z" fill="white"/>
<path opacity="0.86" d="M132.418 178.242C132.42 178.238 132.421 178.23 132.423 178.223C132.471 178.044 132.364 177.862 132.185 177.814C132.178 177.812 132.171 177.81 132.163 177.81C131.98 177.764 131.796 177.874 131.75 178.056C131.704 178.244 131.819 178.435 132.008 178.481H132.009C132.187 178.528 132.37 178.421 132.418 178.242Z" fill="white"/>
<path opacity="0.86" d="M124.239 176.252C124.283 176.069 124.17 175.885 123.986 175.841C123.984 175.84 123.982 175.84 123.979 175.838C123.794 175.792 123.605 175.901 123.554 176.084C123.517 176.271 123.629 176.455 123.812 176.509C124.001 176.557 124.193 176.442 124.239 176.252Z" fill="white"/>
<path opacity="0.86" d="M121.177 181.613C121.37 181.613 121.527 181.456 121.527 181.262C121.527 181.069 121.37 180.912 121.177 180.912C120.983 180.912 120.826 181.069 120.826 181.262C120.826 181.456 120.983 181.613 121.177 181.613Z" fill="white"/>
<path opacity="0.86" d="M138.959 172.024C139.063 171.869 139.022 171.659 138.866 171.555C138.863 171.552 138.858 171.55 138.853 171.547C138.697 171.442 138.482 171.483 138.377 171.639C138.269 171.799 138.309 172.016 138.468 172.126C138.627 172.233 138.844 172.192 138.953 172.033C138.955 172.03 138.956 172.027 138.959 172.024Z" fill="white"/>
<path opacity="0.86" d="M125.965 178.062C125.929 177.899 125.774 177.793 125.609 177.818C125.446 177.846 125.338 178 125.366 178.161C125.392 178.325 125.544 178.439 125.709 178.416C125.876 178.387 125.991 178.229 125.965 178.062Z" fill="white"/>
<path opacity="0.86" d="M131.784 169.185C131.788 169.185 131.792 169.185 131.796 169.184C131.983 169.171 132.124 169.012 132.115 168.826C132.094 168.64 131.932 168.5 131.744 168.506C131.564 168.515 131.427 168.669 131.436 168.848C131.436 168.854 131.437 168.86 131.437 168.866C131.445 169.049 131.6 169.192 131.784 169.185Z" fill="white"/>
<path opacity="0.86" d="M137.198 171.478C137.296 171.478 137.375 171.399 137.375 171.301C137.375 171.204 137.296 171.125 137.198 171.125C137.101 171.125 137.021 171.204 137.021 171.301C137.021 171.399 137.101 171.478 137.198 171.478Z" fill="white"/>
<path opacity="0.86" d="M131.974 167.381C132.079 167.226 132.037 167.015 131.882 166.912C131.878 166.909 131.874 166.907 131.869 166.903C131.712 166.798 131.498 166.84 131.393 166.995C131.284 167.155 131.325 167.372 131.484 167.482C131.643 167.589 131.86 167.548 131.968 167.389C131.97 167.387 131.973 167.384 131.974 167.381Z" fill="white"/>
<path opacity="0.86" d="M136.957 165.852C136.994 165.69 136.893 165.53 136.732 165.492C136.729 165.492 136.728 165.491 136.727 165.491C136.576 165.447 136.419 165.532 136.374 165.682C136.372 165.691 136.37 165.7 136.367 165.71C136.33 165.87 136.431 166.032 136.592 166.069C136.594 166.069 136.596 166.07 136.597 166.07C136.756 166.105 136.915 166.009 136.957 165.852Z" fill="white"/>
<path opacity="0.86" d="M143.727 166.991C143.73 166.992 143.731 166.994 143.733 166.995C143.827 167.057 143.955 167.033 144.02 166.938C144.081 166.851 144.059 166.731 143.972 166.669C143.968 166.666 143.964 166.664 143.961 166.662C143.872 166.6 143.749 166.62 143.687 166.709C143.62 166.798 143.638 166.924 143.727 166.991Z" fill="white"/>
<path opacity="0.86" d="M144.066 167.48C144.096 167.318 143.995 167.16 143.835 167.118C143.671 167.083 143.508 167.186 143.474 167.35C143.439 167.509 143.536 167.667 143.693 167.709C143.858 167.744 144.023 167.642 144.066 167.48Z" fill="white"/>
<path opacity="0.86" d="M143.439 167.455C143.482 167.375 143.451 167.275 143.37 167.232C143.362 167.228 143.356 167.225 143.348 167.223C143.259 167.184 143.155 167.224 143.115 167.314C143.075 167.403 143.116 167.507 143.206 167.547C143.294 167.585 143.399 167.543 143.439 167.455Z" fill="white"/>
<path opacity="0.86" d="M144.988 168.047C145.024 168.139 145.127 168.186 145.219 168.151C145.311 168.11 145.358 168.005 145.326 167.91C145.281 167.819 145.175 167.778 145.082 167.815C144.993 167.854 144.951 167.958 144.988 168.047Z" fill="white"/>
<path opacity="0.86" d="M123.639 169.762C123.825 169.74 123.964 169.579 123.958 169.392C123.943 169.208 123.781 169.071 123.598 169.086C123.412 169.097 123.268 169.258 123.28 169.444C123.291 169.631 123.452 169.774 123.639 169.762Z" fill="white"/>
<path opacity="0.86" d="M129.852 164.213C129.889 164.051 129.787 163.89 129.626 163.854C129.624 163.854 129.623 163.853 129.622 163.853C129.466 163.811 129.307 163.903 129.265 164.058C129.264 164.062 129.262 164.066 129.262 164.07C129.224 164.228 129.322 164.389 129.481 164.429C129.641 164.47 129.806 164.373 129.852 164.213Z" fill="white"/>
<path opacity="0.86" d="M139.947 168.615C140.134 168.602 140.276 168.441 140.262 168.255C140.263 168.252 140.263 168.249 140.262 168.246C140.247 168.062 140.086 167.925 139.903 167.94C139.903 167.94 139.903 167.94 139.902 167.94C139.715 167.952 139.573 168.114 139.587 168.3C139.598 168.486 139.761 168.628 139.947 168.615Z" fill="white"/>
<path opacity="0.86" d="M141.184 168.47C141.336 168.583 141.551 168.552 141.665 168.401C141.667 168.398 141.669 168.396 141.671 168.392C141.786 168.243 141.76 168.029 141.61 167.913C141.608 167.911 141.605 167.909 141.603 167.909C141.443 167.799 141.224 167.831 141.105 167.986C140.995 168.141 141.03 168.356 141.184 168.47Z" fill="white"/>
<path d="M104.145 185.007C103.798 185.007 103.503 184.742 103.472 184.391C101.281 159.273 100.943 133.12 102.468 106.658C102.49 106.286 102.801 106.004 103.182 106.022C103.555 106.044 103.839 106.363 103.818 106.734C102.297 133.132 102.635 159.219 104.82 184.274C104.853 184.645 104.577 184.972 104.205 185.004C104.185 185.006 104.165 185.007 104.145 185.007Z" fill="white"/>
<path d="M100.085 186.782C99.7278 186.782 99.429 186.502 99.4102 186.142C99.1127 180.5 98.7618 174.832 98.422 169.351C97.4448 153.575 96.5072 138.447 96.6817 123.024C94.8591 138.293 93.1782 153.655 91.6645 168.875C91.1747 173.799 90.6194 179.382 91.6115 184.636C91.6814 185.002 91.4399 185.355 91.0721 185.424C90.7081 185.497 90.3514 185.252 90.2824 184.886C89.2542 179.441 89.8197 173.756 90.3191 168.74C92.3654 148.161 94.7183 127.322 97.3123 106.802C97.3581 106.44 97.6887 106.184 98.0484 106.215C98.4133 106.251 98.6827 106.568 98.6577 106.932C97.2178 128.044 98.4586 148.068 99.7722 169.267C100.065 173.989 100.366 178.849 100.634 183.714C100.642 183.752 100.647 183.789 100.649 183.828L100.761 186.072C100.779 186.444 100.492 186.761 100.12 186.78C100.109 186.781 100.096 186.782 100.085 186.782Z" fill="white"/>
<path d="M115.715 100.168H97.2301C96.1142 100.168 95.2012 99.2571 95.2012 98.1433C95.2012 97.0295 96.1142 96.1182 97.2301 96.1182H115.715C116.831 96.1182 117.744 97.0295 117.744 98.1433C117.744 99.2571 116.831 100.168 115.715 100.168Z" fill="white"/>
<path d="M104.932 31.0163C104.693 31.0163 104.494 30.7573 104.482 30.5167C104.354 27.8797 104.139 25.3859 103.932 23.0093C103.723 20.6239 103.508 18.1393 103.379 15.4849C103.229 12.3966 102.629 3.4185 102.129 -2.12651C100.823 6.11771 99.7376 14.0818 98.5961 22.4586L98.4896 23.2364C98.3006 24.6202 98.0813 25.7008 97.8494 26.8464C97.6522 27.8175 97.4488 28.8214 97.2618 30.0423C97.2242 30.2877 96.9991 30.4569 96.7479 30.4188C96.5021 30.3812 96.3329 30.1512 96.3705 29.9058C96.5604 28.6632 96.7662 27.6478 96.9648 26.6666C97.1943 25.5359 97.4107 24.4678 97.5954 23.1125L97.7019 22.3323C98.9986 12.8146 100.223 3.82497 101.781 -5.64735C101.817 -5.86771 102.014 -6.01573 102.234 -6.02441C102.457 -6.02056 102.644 -5.85324 102.673 -5.63192C103.221 -1.3531 104.117 12.101 104.278 15.4222C104.406 18.0593 104.621 20.5174 104.828 22.894C105.036 25.2793 105.251 27.818 105.381 30.4724C105.393 30.7207 105.2 31.0153 104.952 31.0153C104.947 31.0163 104.939 31.0163 104.932 31.0163Z" fill="white"/>
<path d="M107.185 30.4234C106.959 30.4234 106.763 30.2531 106.737 30.0227C105.604 19.7798 105.612 11.5636 106.008 1.01551C104.865 8.15459 104.166 15.1871 103.436 22.5326C103.19 25.009 102.942 27.5019 102.675 30.0207C102.649 30.2676 102.43 30.4431 102.179 30.4209C101.931 30.3944 101.751 30.1731 101.778 29.9258C102.045 27.4098 102.292 24.9188 102.538 22.4443C103.491 12.8601 104.39 3.8073 106.292 -5.66262C106.339 -5.8931 106.552 -6.04787 106.789 -6.02087C107.023 -5.99242 107.195 -5.78895 107.185 -5.55413C106.562 8.37012 106.281 17.7065 107.634 29.9238C107.661 30.1707 107.483 30.393 107.235 30.4205C107.218 30.4224 107.201 30.4234 107.185 30.4234Z" fill="white"/>
<path d="M112.959 30.4927C112.727 30.4927 112.53 30.3148 112.51 30.08C111.471 17.5733 110.691 7.7741 110.111 -4.47073C110.094 -4.84683 110.06 -5.54598 110.565 -5.97994C110.753 -6.14243 111.037 -6.1217 111.201 -5.93268C111.363 -5.74464 111.343 -5.46015 111.154 -5.29814C111.003 -5.16795 110.998 -4.8285 111.012 -4.51316C111.59 7.71672 112.37 17.5083 113.408 30.0057C113.429 30.2531 113.244 30.471 112.997 30.4908C112.984 30.4927 112.972 30.4927 112.959 30.4927Z" fill="white"/>
<path d="M147.494 29.9736H65.4492V75.8699H147.494V29.9736Z" fill="url(#paint10_linear_5337_547)"/>
</g>
<defs>
<linearGradient id="paint0_linear_5337_547" x1="182.835" y1="264.962" x2="183.329" y2="210.699" gradientUnits="userSpaceOnUse">
<stop stop-color="#A1C3FC"/>
<stop offset="1" stop-color="#78A9EF"/>
</linearGradient>
<linearGradient id="paint1_linear_5337_547" x1="378.431" y1="330.26" x2="377.746" y2="240.039" gradientUnits="userSpaceOnUse">
<stop stop-color="#23286B"/>
<stop offset="1" stop-color="#151A4F"/>
</linearGradient>
<linearGradient id="paint2_linear_5337_547" x1="307.649" y1="119.106" x2="332.273" y2="118.614" gradientUnits="userSpaceOnUse">
<stop stop-color="#A1C3FC"/>
<stop offset="1" stop-color="#78A9EF"/>
</linearGradient>
<linearGradient id="paint3_linear_5337_547" x1="130.172" y1="332.144" x2="129.487" y2="241.923" gradientUnits="userSpaceOnUse">
<stop stop-color="#23286B"/>
<stop offset="1" stop-color="#151A4F"/>
</linearGradient>
<linearGradient id="paint4_linear_5337_547" x1="136.686" y1="101.875" x2="171.423" y2="183.47" gradientUnits="userSpaceOnUse">
<stop stop-color="#23286B"/>
<stop offset="1" stop-color="#151A4F"/>
</linearGradient>
<linearGradient id="paint5_linear_5337_547" x1="276.301" y1="143.661" x2="233.321" y2="138.403" gradientUnits="userSpaceOnUse">
<stop stop-color="#FFBEB6"/>
<stop offset="1" stop-color="#F2A19C"/>
</linearGradient>
<linearGradient id="paint6_linear_5337_547" x1="171.127" y1="77.4257" x2="178.688" y2="57.0177" gradientUnits="userSpaceOnUse">
<stop stop-color="#FFBEB6"/>
<stop offset="1" stop-color="#F2A19C"/>
</linearGradient>
<linearGradient id="paint7_linear_5337_547" x1="179.901" y1="16.7633" x2="148.686" y2="68.4477" gradientUnits="userSpaceOnUse">
<stop stop-color="#F1B505"/>
<stop offset="1" stop-color="#D69B09"/>
</linearGradient>
<linearGradient id="paint8_linear_5337_547" x1="74.0656" y1="60.0716" x2="185.555" y2="89.6412" gradientUnits="userSpaceOnUse">
<stop stop-color="#89B3F4"/>
<stop offset="1" stop-color="#428DFC"/>
</linearGradient>
<linearGradient id="paint9_linear_5337_547" x1="89.2404" y1="12.6055" x2="124.768" y2="12.6055" gradientUnits="userSpaceOnUse">
<stop stop-color="#23286B"/>
<stop offset="1" stop-color="#151A4F"/>
</linearGradient>
<linearGradient id="paint10_linear_5337_547" x1="102.56" y1="60.1579" x2="160.006" y2="-46.0411" gradientUnits="userSpaceOnUse">
<stop stop-color="#89B3F4"/>
<stop offset="1" stop-color="#428DFC"/>
</linearGradient>
<clipPath id="clip0_5337_547">
<rect width="436" height="341" fill="white"/>
</clipPath>
</defs>
</svg>
