<svg width="197" height="393" viewBox="0 0 197 393" fill="none" xmlns="http://www.w3.org/2000/svg">
<path d="M167.667 392.421H29.1031C14.906 392.421 3.39648 381.034 3.39648 366.992V25.9362C3.39648 11.8919 14.905 0.507812 29.1031 0.507812H167.666C181.863 0.507812 193.373 11.8929 193.373 25.9362V366.993C193.374 381.035 181.863 392.421 167.667 392.421Z" fill="#599AC1"/>
<path d="M71.09 29.5669C73.5743 29.5669 75.5882 27.5749 75.5882 25.1177C75.5882 22.6604 73.5743 20.6685 71.09 20.6685C68.6057 20.6685 66.5918 22.6604 66.5918 25.1177C66.5918 27.5749 68.6057 29.5669 71.09 29.5669Z" fill="#0A8996"/>
<path d="M167.667 0.506836H141.068C139.704 1.34651 138.363 2.20774 137.05 3.07779C102.2 26.1576 72.2263 58.8354 60.564 98.6852C55.862 114.748 54.2345 131.519 50.6593 147.863C42.4771 185.287 24.2443 219.834 3.39844 252.114V366.991C3.39844 381.035 14.907 392.42 29.105 392.42H167.668C181.865 392.42 193.375 381.034 193.375 366.991V25.9362C193.374 11.8919 181.863 0.506836 167.667 0.506836Z" fill="#4291C1"/>
<path d="M99.7742 385.322C108.592 385.322 115.74 378.252 115.74 369.53C115.74 360.808 108.592 353.738 99.7742 353.738C90.9566 353.738 83.8086 360.808 83.8086 369.53C83.8086 378.252 90.9566 385.322 99.7742 385.322Z" fill="url(#paint0_linear_5337_526)"/>
<path d="M83.59 21.4302L115.823 22.1897L115.708 27.6754L83.4747 26.9148L83.59 21.4302Z" fill="#0A8996"/>
<path d="M185.851 44.8735H10.9219V348.444H185.851V44.8735Z" fill="white"/>
<path d="M97.8917 379.74C104.631 379.74 110.094 374.336 110.094 367.669C110.094 361.002 104.631 355.598 97.8917 355.598C91.1526 355.598 85.6895 361.002 85.6895 367.669C85.6895 374.336 91.1526 379.74 97.8917 379.74Z" fill="#C1D7FD"/>
<path d="M111.395 24.8523H85.1007C84.5805 24.8523 84.1602 24.4359 84.1602 23.9225C84.1602 23.4091 84.5805 22.9927 85.1007 22.9927H111.395C111.915 22.9927 112.336 23.4091 112.336 23.9225C112.336 24.4359 111.915 24.8523 111.395 24.8523Z" fill="#428DFC"/>
<path d="M71.2035 27.6299C72.908 27.6299 74.2898 26.2631 74.2898 24.5769C74.2898 22.8908 72.908 21.5239 71.2035 21.5239C69.499 21.5239 68.1172 22.8908 68.1172 24.5769C68.1172 26.2631 69.499 27.6299 71.2035 27.6299Z" fill="#428DFC"/>
<path d="M3.79066 45.749H0.630859V59.2279H3.79066V45.749Z" fill="#D62929"/>
<path d="M3.79066 75.4434H0.630859V99.6685H3.79066V75.4434Z" fill="#D62929"/>
<path d="M196.588 75.4434H193.428V99.6685H196.588V75.4434Z" fill="#D62929"/>
<path d="M3.79066 107.091H0.630859V131.316H3.79066V107.091Z" fill="#D62929"/>
<path d="M67.6727 18.248L72.0308 22.905L67.3229 27.217L62.9648 22.5601L67.6727 18.248Z" fill="white"/>
<path d="M67.3283 20L70.4097 23.2921L67.0814 26.3402L64 23.0481L67.3283 20Z" fill="#0A8996"/>
<rect x="18.0918" y="67.4429" width="162.974" height="166.854" rx="60" fill="#DEE7F2"/>
<path d="M54.6447 160.454C54.578 160.454 54.5214 160.434 54.4747 160.394C54.4347 160.347 54.4147 160.29 54.4147 160.224V153.694C54.4147 153.62 54.4347 153.564 54.4747 153.524C54.5214 153.477 54.578 153.454 54.6447 153.454H56.9147C57.9214 153.454 58.648 153.68 59.0947 154.134C59.5414 154.58 59.7747 155.257 59.7947 156.164C59.8014 156.357 59.8047 156.617 59.8047 156.944C59.8047 157.27 59.8014 157.534 59.7947 157.734C59.7747 158.367 59.668 158.884 59.4747 159.284C59.288 159.677 58.9914 159.97 58.5847 160.164C58.178 160.357 57.638 160.454 56.9647 160.454H54.6447ZM56.9147 159.604C57.3747 159.604 57.738 159.54 58.0047 159.414C58.278 159.287 58.4747 159.087 58.5947 158.814C58.7214 158.534 58.7914 158.16 58.8047 157.694C58.818 157.294 58.8247 157.044 58.8247 156.944C58.8247 156.837 58.818 156.59 58.8047 156.204C58.7914 155.544 58.6347 155.064 58.3347 154.764C58.0347 154.457 57.5447 154.304 56.8647 154.304H55.3947V159.604H56.9147ZM63.2592 160.554C62.5726 160.554 62.0226 160.344 61.6092 159.924C61.2026 159.497 60.9792 158.917 60.9392 158.184L60.9292 157.844L60.9392 157.514C60.9859 156.794 61.2126 156.22 61.6192 155.794C62.0326 155.367 62.5759 155.154 63.2492 155.154C63.9892 155.154 64.5626 155.39 64.9692 155.864C65.3759 156.33 65.5792 156.964 65.5792 157.764V157.934C65.5792 158 65.5559 158.057 65.5092 158.104C65.4692 158.144 65.4159 158.164 65.3492 158.164H61.8892V158.254C61.9092 158.687 62.0392 159.057 62.2792 159.364C62.5259 159.664 62.8492 159.814 63.2492 159.814C63.5559 159.814 63.8059 159.754 63.9992 159.634C64.1992 159.507 64.3459 159.377 64.4392 159.244C64.4992 159.164 64.5426 159.117 64.5692 159.104C64.6026 159.084 64.6592 159.074 64.7392 159.074H65.2292C65.2892 159.074 65.3392 159.09 65.3792 159.124C65.4192 159.157 65.4392 159.204 65.4392 159.264C65.4392 159.41 65.3459 159.587 65.1592 159.794C64.9792 160 64.7226 160.18 64.3892 160.334C64.0626 160.48 63.6859 160.554 63.2592 160.554ZM64.6292 157.474V157.444C64.6292 156.984 64.5026 156.61 64.2492 156.324C64.0026 156.03 63.6692 155.884 63.2492 155.884C62.8292 155.884 62.4959 156.03 62.2492 156.324C62.0092 156.61 61.8892 156.984 61.8892 157.444V157.474H64.6292ZM67.0149 160.454C66.9483 160.454 66.8916 160.434 66.8449 160.394C66.8049 160.347 66.7849 160.29 66.7849 160.224V153.584C66.7849 153.517 66.8049 153.464 66.8449 153.424C66.8916 153.377 66.9483 153.354 67.0149 153.354H67.4849C67.5516 153.354 67.6049 153.377 67.6449 153.424C67.6916 153.464 67.7149 153.517 67.7149 153.584V160.224C67.7149 160.29 67.6916 160.347 67.6449 160.394C67.6049 160.434 67.5516 160.454 67.4849 160.454H67.0149ZM69.3566 154.284C69.2899 154.284 69.2332 154.264 69.1866 154.224C69.1466 154.177 69.1266 154.12 69.1266 154.054V153.514C69.1266 153.447 69.1466 153.39 69.1866 153.344C69.2332 153.297 69.2899 153.274 69.3566 153.274H69.9866C70.0532 153.274 70.1099 153.297 70.1566 153.344C70.2033 153.39 70.2266 153.447 70.2266 153.514V154.054C70.2266 154.12 70.2033 154.177 70.1566 154.224C70.1099 154.264 70.0532 154.284 69.9866 154.284H69.3566ZM69.4366 160.454C69.3699 160.454 69.3132 160.434 69.2666 160.394C69.2266 160.347 69.2066 160.29 69.2066 160.224V155.484C69.2066 155.417 69.2266 155.364 69.2666 155.324C69.3132 155.277 69.3699 155.254 69.4366 155.254H69.9166C69.9832 155.254 70.0366 155.277 70.0766 155.324C70.1233 155.364 70.1466 155.417 70.1466 155.484V160.224C70.1466 160.29 70.1233 160.347 70.0766 160.394C70.0366 160.434 69.9832 160.454 69.9166 160.454H69.4366ZM73.4385 160.454C73.2651 160.454 73.1418 160.37 73.0685 160.204L71.2185 155.564L71.1985 155.464C71.1985 155.404 71.2185 155.354 71.2585 155.314C71.2985 155.274 71.3485 155.254 71.4085 155.254H71.8885C72.0018 155.254 72.0851 155.31 72.1385 155.424L73.6585 159.364L75.1785 155.424C75.2385 155.31 75.3185 155.254 75.4185 155.254H75.9085C75.9618 155.254 76.0085 155.274 76.0485 155.314C76.0951 155.354 76.1185 155.404 76.1185 155.464L76.0985 155.564L74.2385 160.204C74.1651 160.37 74.0418 160.454 73.8685 160.454H73.4385ZM79.06 160.554C78.3734 160.554 77.8234 160.344 77.41 159.924C77.0034 159.497 76.78 158.917 76.74 158.184L76.73 157.844L76.74 157.514C76.7867 156.794 77.0134 156.22 77.42 155.794C77.8334 155.367 78.3767 155.154 79.05 155.154C79.79 155.154 80.3634 155.39 80.77 155.864C81.1767 156.33 81.38 156.964 81.38 157.764V157.934C81.38 158 81.3567 158.057 81.31 158.104C81.27 158.144 81.2167 158.164 81.15 158.164H77.69V158.254C77.71 158.687 77.84 159.057 78.08 159.364C78.3267 159.664 78.65 159.814 79.05 159.814C79.3567 159.814 79.6067 159.754 79.8 159.634C80 159.507 80.1467 159.377 80.24 159.244C80.3 159.164 80.3434 159.117 80.37 159.104C80.4034 159.084 80.46 159.074 80.54 159.074H81.03C81.09 159.074 81.14 159.09 81.18 159.124C81.22 159.157 81.24 159.204 81.24 159.264C81.24 159.41 81.1467 159.587 80.96 159.794C80.78 160 80.5234 160.18 80.19 160.334C79.8634 160.48 79.4867 160.554 79.06 160.554ZM80.43 157.474V157.444C80.43 156.984 80.3034 156.61 80.05 156.324C79.8034 156.03 79.47 155.884 79.05 155.884C78.63 155.884 78.2967 156.03 78.05 156.324C77.81 156.61 77.69 156.984 77.69 157.444V157.474H80.43ZM82.8057 160.454C82.7391 160.454 82.6824 160.434 82.6357 160.394C82.5957 160.347 82.5757 160.29 82.5757 160.224V155.494C82.5757 155.427 82.5957 155.37 82.6357 155.324C82.6824 155.277 82.7391 155.254 82.8057 155.254H83.2657C83.3324 155.254 83.3891 155.277 83.4357 155.324C83.4824 155.37 83.5057 155.427 83.5057 155.494V155.934C83.7791 155.48 84.2457 155.254 84.9057 155.254H85.2957C85.3624 155.254 85.4157 155.277 85.4557 155.324C85.5024 155.364 85.5257 155.417 85.5257 155.484V155.894C85.5257 155.96 85.5024 156.014 85.4557 156.054C85.4157 156.094 85.3624 156.114 85.2957 156.114H84.6957C84.3357 156.114 84.0524 156.22 83.8457 156.434C83.6391 156.64 83.5357 156.924 83.5357 157.284V160.224C83.5357 160.29 83.5124 160.347 83.4657 160.394C83.4191 160.434 83.3624 160.454 83.2957 160.454H82.8057ZM87.2846 162.354C87.2312 162.354 87.1846 162.334 87.1446 162.294C87.1046 162.254 87.0846 162.207 87.0846 162.154C87.0846 162.107 87.1012 162.047 87.1346 161.974L87.9046 160.144L85.9946 155.634C85.9612 155.547 85.9446 155.49 85.9446 155.464C85.9446 155.404 85.9646 155.354 86.0046 155.314C86.0446 155.274 86.0946 155.254 86.1546 155.254H86.6446C86.7512 155.254 86.8312 155.31 86.8846 155.424L88.4046 159.064L89.9646 155.424C90.0179 155.31 90.1012 155.254 90.2146 155.254H90.6846C90.7446 155.254 90.7946 155.274 90.8346 155.314C90.8746 155.354 90.8946 155.4 90.8946 155.454C90.8946 155.474 90.8779 155.534 90.8446 155.634L88.0046 162.184C87.9512 162.297 87.8679 162.354 87.7546 162.354H87.2846ZM94.4396 160.454C94.373 160.454 94.3163 160.434 94.2696 160.394C94.2296 160.347 94.2096 160.29 94.2096 160.224V153.694C94.2096 153.62 94.2296 153.564 94.2696 153.524C94.3163 153.477 94.373 153.454 94.4396 153.454H98.5696C98.6363 153.454 98.6896 153.477 98.7296 153.524C98.7763 153.564 98.7996 153.62 98.7996 153.694V154.074C98.7996 154.14 98.7796 154.197 98.7396 154.244C98.6996 154.284 98.643 154.304 98.5696 154.304H95.1696V156.494H98.3496C98.4163 156.494 98.4696 156.517 98.5096 156.564C98.5563 156.604 98.5796 156.66 98.5796 156.734V157.104C98.5796 157.17 98.5563 157.227 98.5096 157.274C98.4696 157.314 98.4163 157.334 98.3496 157.334H95.1696V159.604H98.6496C98.723 159.604 98.7796 159.624 98.8196 159.664C98.8596 159.704 98.8796 159.76 98.8796 159.834V160.224C98.8796 160.29 98.8563 160.347 98.8096 160.394C98.7696 160.434 98.7163 160.454 98.6496 160.454H94.4396ZM99.9041 160.454C99.8507 160.454 99.8007 160.434 99.7541 160.394C99.7141 160.354 99.6941 160.304 99.6941 160.244C99.6941 160.184 99.7174 160.124 99.7641 160.064L101.504 157.794L99.8741 155.644C99.8274 155.59 99.8041 155.53 99.8041 155.464C99.8041 155.404 99.8241 155.354 99.8641 155.314C99.9041 155.274 99.9541 155.254 100.014 155.254H100.524C100.624 155.254 100.711 155.307 100.784 155.414L102.114 157.144L103.444 155.424C103.484 155.37 103.521 155.33 103.554 155.304C103.594 155.27 103.644 155.254 103.704 155.254H104.194C104.254 155.254 104.304 155.274 104.344 155.314C104.384 155.354 104.404 155.404 104.404 155.464C104.404 155.53 104.381 155.59 104.334 155.644L102.684 157.814L104.424 160.064C104.471 160.124 104.494 160.184 104.494 160.244C104.494 160.304 104.474 160.354 104.434 160.394C104.394 160.434 104.344 160.454 104.284 160.454H103.754C103.654 160.454 103.567 160.404 103.494 160.304L102.094 158.474L100.674 160.304C100.634 160.35 100.594 160.387 100.554 160.414C100.521 160.44 100.474 160.454 100.414 160.454H99.9041ZM107.478 160.554C106.791 160.554 106.241 160.344 105.828 159.924C105.421 159.497 105.198 158.917 105.158 158.184L105.148 157.844L105.158 157.514C105.205 156.794 105.431 156.22 105.838 155.794C106.251 155.367 106.795 155.154 107.468 155.154C108.208 155.154 108.781 155.39 109.188 155.864C109.595 156.33 109.798 156.964 109.798 157.764V157.934C109.798 158 109.775 158.057 109.728 158.104C109.688 158.144 109.635 158.164 109.568 158.164H106.108V158.254C106.128 158.687 106.258 159.057 106.498 159.364C106.745 159.664 107.068 159.814 107.468 159.814C107.775 159.814 108.025 159.754 108.218 159.634C108.418 159.507 108.565 159.377 108.658 159.244C108.718 159.164 108.761 159.117 108.788 159.104C108.821 159.084 108.878 159.074 108.958 159.074H109.448C109.508 159.074 109.558 159.09 109.598 159.124C109.638 159.157 109.658 159.204 109.658 159.264C109.658 159.41 109.565 159.587 109.378 159.794C109.198 160 108.941 160.18 108.608 160.334C108.281 160.48 107.905 160.554 107.478 160.554ZM108.848 157.474V157.444C108.848 156.984 108.721 156.61 108.468 156.324C108.221 156.03 107.888 155.884 107.468 155.884C107.048 155.884 106.715 156.03 106.468 156.324C106.228 156.61 106.108 156.984 106.108 157.444V157.474H108.848ZM113.094 160.554C112.38 160.554 111.82 160.354 111.414 159.954C111.014 159.547 110.8 158.98 110.774 158.254L110.764 157.854L110.774 157.454C110.8 156.727 111.014 156.164 111.414 155.764C111.82 155.357 112.38 155.154 113.094 155.154C113.574 155.154 113.98 155.24 114.314 155.414C114.647 155.587 114.894 155.8 115.054 156.054C115.22 156.307 115.31 156.56 115.324 156.814C115.33 156.88 115.31 156.934 115.264 156.974C115.217 157.014 115.16 157.034 115.094 157.034H114.614C114.547 157.034 114.497 157.02 114.464 156.994C114.43 156.967 114.397 156.914 114.364 156.834C114.25 156.514 114.09 156.287 113.884 156.154C113.677 156.014 113.417 155.944 113.104 155.944C112.69 155.944 112.36 156.074 112.114 156.334C111.874 156.587 111.744 156.977 111.724 157.504L111.714 157.864L111.724 158.204C111.744 158.737 111.874 159.13 112.114 159.384C112.354 159.637 112.684 159.764 113.104 159.764C113.417 159.764 113.677 159.697 113.884 159.564C114.09 159.424 114.25 159.194 114.364 158.874C114.397 158.794 114.43 158.74 114.464 158.714C114.497 158.68 114.547 158.664 114.614 158.664H115.094C115.16 158.664 115.217 158.687 115.264 158.734C115.31 158.774 115.33 158.827 115.324 158.894C115.31 159.14 115.22 159.394 115.054 159.654C114.894 159.907 114.647 160.12 114.314 160.294C113.987 160.467 113.58 160.554 113.094 160.554ZM118.451 160.554C117.818 160.554 117.328 160.35 116.981 159.944C116.635 159.53 116.461 158.984 116.461 158.304V155.484C116.461 155.417 116.481 155.364 116.521 155.324C116.568 155.277 116.625 155.254 116.691 155.254H117.191C117.258 155.254 117.311 155.277 117.351 155.324C117.398 155.364 117.421 155.417 117.421 155.484V158.254C117.421 159.247 117.855 159.744 118.721 159.744C119.141 159.744 119.475 159.614 119.721 159.354C119.968 159.087 120.091 158.72 120.091 158.254V155.484C120.091 155.417 120.111 155.364 120.151 155.324C120.198 155.277 120.255 155.254 120.321 155.254H120.821C120.888 155.254 120.941 155.277 120.981 155.324C121.021 155.364 121.041 155.417 121.041 155.484V160.224C121.041 160.29 121.021 160.347 120.981 160.394C120.941 160.434 120.888 160.454 120.821 160.454H120.351C120.285 160.454 120.228 160.434 120.181 160.394C120.141 160.347 120.121 160.29 120.121 160.224V159.784C119.935 160.037 119.708 160.23 119.441 160.364C119.175 160.49 118.845 160.554 118.451 160.554ZM124.557 160.454C123.504 160.454 122.977 159.867 122.977 158.694V156.054H122.197C122.13 156.054 122.074 156.034 122.027 155.994C121.987 155.947 121.967 155.89 121.967 155.824V155.484C121.967 155.417 121.987 155.364 122.027 155.324C122.074 155.277 122.13 155.254 122.197 155.254H122.977V153.584C122.977 153.517 122.997 153.464 123.037 153.424C123.084 153.377 123.14 153.354 123.207 153.354H123.677C123.744 153.354 123.797 153.377 123.837 153.424C123.884 153.464 123.907 153.517 123.907 153.584V155.254H125.147C125.214 155.254 125.267 155.277 125.307 155.324C125.354 155.364 125.377 155.417 125.377 155.484V155.824C125.377 155.89 125.354 155.947 125.307 155.994C125.267 156.034 125.214 156.054 125.147 156.054H123.907V158.624C123.907 158.957 123.964 159.21 124.077 159.384C124.19 159.55 124.377 159.634 124.637 159.634H125.247C125.314 159.634 125.367 159.657 125.407 159.704C125.454 159.744 125.477 159.797 125.477 159.864V160.224C125.477 160.29 125.454 160.347 125.407 160.394C125.367 160.434 125.314 160.454 125.247 160.454H124.557ZM126.583 154.284C126.516 154.284 126.46 154.264 126.413 154.224C126.373 154.177 126.353 154.12 126.353 154.054V153.514C126.353 153.447 126.373 153.39 126.413 153.344C126.46 153.297 126.516 153.274 126.583 153.274H127.213C127.28 153.274 127.336 153.297 127.383 153.344C127.43 153.39 127.453 153.447 127.453 153.514V154.054C127.453 154.12 127.43 154.177 127.383 154.224C127.336 154.264 127.28 154.284 127.213 154.284H126.583ZM126.663 160.454C126.596 160.454 126.54 160.434 126.493 160.394C126.453 160.347 126.433 160.29 126.433 160.224V155.484C126.433 155.417 126.453 155.364 126.493 155.324C126.54 155.277 126.596 155.254 126.663 155.254H127.143C127.21 155.254 127.263 155.277 127.303 155.324C127.35 155.364 127.373 155.417 127.373 155.484V160.224C127.373 160.29 127.35 160.347 127.303 160.394C127.263 160.434 127.21 160.454 127.143 160.454H126.663ZM130.665 160.454C130.492 160.454 130.368 160.37 130.295 160.204L128.445 155.564L128.425 155.464C128.425 155.404 128.445 155.354 128.485 155.314C128.525 155.274 128.575 155.254 128.635 155.254H129.115C129.228 155.254 129.312 155.31 129.365 155.424L130.885 159.364L132.405 155.424C132.465 155.31 132.545 155.254 132.645 155.254H133.135C133.188 155.254 133.235 155.274 133.275 155.314C133.322 155.354 133.345 155.404 133.345 155.464L133.325 155.564L131.465 160.204C131.392 160.37 131.268 160.454 131.095 160.454H130.665ZM136.287 160.554C135.6 160.554 135.05 160.344 134.637 159.924C134.23 159.497 134.007 158.917 133.967 158.184L133.957 157.844L133.967 157.514C134.013 156.794 134.24 156.22 134.647 155.794C135.06 155.367 135.603 155.154 136.277 155.154C137.017 155.154 137.59 155.39 137.997 155.864C138.403 156.33 138.607 156.964 138.607 157.764V157.934C138.607 158 138.583 158.057 138.537 158.104C138.497 158.144 138.443 158.164 138.377 158.164H134.917V158.254C134.937 158.687 135.067 159.057 135.307 159.364C135.553 159.664 135.877 159.814 136.277 159.814C136.583 159.814 136.833 159.754 137.027 159.634C137.227 159.507 137.373 159.377 137.467 159.244C137.527 159.164 137.57 159.117 137.597 159.104C137.63 159.084 137.687 159.074 137.767 159.074H138.257C138.317 159.074 138.367 159.09 138.407 159.124C138.447 159.157 138.467 159.204 138.467 159.264C138.467 159.41 138.373 159.587 138.187 159.794C138.007 160 137.75 160.18 137.417 160.334C137.09 160.48 136.713 160.554 136.287 160.554ZM137.657 157.474V157.444C137.657 156.984 137.53 156.61 137.277 156.324C137.03 156.03 136.697 155.884 136.277 155.884C135.857 155.884 135.523 156.03 135.277 156.324C135.037 156.61 134.917 156.984 134.917 157.444V157.474H137.657ZM142.403 154.284C142.337 154.284 142.28 154.264 142.233 154.224C142.193 154.177 142.173 154.12 142.173 154.054V153.514C142.173 153.447 142.193 153.39 142.233 153.344C142.28 153.297 142.337 153.274 142.403 153.274H143.033C143.1 153.274 143.157 153.297 143.203 153.344C143.25 153.39 143.273 153.447 143.273 153.514V154.054C143.273 154.12 143.25 154.177 143.203 154.224C143.157 154.264 143.1 154.284 143.033 154.284H142.403ZM142.483 160.454C142.417 160.454 142.36 160.434 142.313 160.394C142.273 160.347 142.253 160.29 142.253 160.224V155.484C142.253 155.417 142.273 155.364 142.313 155.324C142.36 155.277 142.417 155.254 142.483 155.254H142.963C143.03 155.254 143.083 155.277 143.123 155.324C143.17 155.364 143.193 155.417 143.193 155.484V160.224C143.193 160.29 143.17 160.347 143.123 160.394C143.083 160.434 143.03 160.454 142.963 160.454H142.483ZM146.475 160.554C146.009 160.554 145.615 160.48 145.295 160.334C144.982 160.18 144.745 160.007 144.585 159.814C144.432 159.62 144.355 159.46 144.355 159.334C144.355 159.267 144.379 159.217 144.425 159.184C144.479 159.144 144.532 159.124 144.585 159.124H145.035C145.102 159.124 145.162 159.157 145.215 159.224C145.375 159.41 145.549 159.557 145.735 159.664C145.922 159.77 146.172 159.824 146.485 159.824C146.832 159.824 147.112 159.757 147.325 159.624C147.545 159.484 147.655 159.294 147.655 159.054C147.655 158.894 147.609 158.764 147.515 158.664C147.429 158.557 147.275 158.467 147.055 158.394C146.842 158.314 146.522 158.227 146.095 158.134C145.515 158.007 145.102 157.824 144.855 157.584C144.615 157.344 144.495 157.034 144.495 156.654C144.495 156.4 144.569 156.16 144.715 155.934C144.869 155.7 145.089 155.514 145.375 155.374C145.669 155.227 146.019 155.154 146.425 155.154C146.852 155.154 147.215 155.224 147.515 155.364C147.815 155.504 148.039 155.67 148.185 155.864C148.339 156.05 148.415 156.207 148.415 156.334C148.415 156.394 148.392 156.444 148.345 156.484C148.305 156.524 148.255 156.544 148.195 156.544H147.775C147.695 156.544 147.629 156.51 147.575 156.444C147.469 156.317 147.375 156.22 147.295 156.154C147.222 156.08 147.112 156.017 146.965 155.964C146.825 155.91 146.645 155.884 146.425 155.884C146.105 155.884 145.859 155.954 145.685 156.094C145.512 156.227 145.425 156.404 145.425 156.624C145.425 156.764 145.462 156.884 145.535 156.984C145.609 157.077 145.749 157.164 145.955 157.244C146.169 157.324 146.475 157.407 146.875 157.494C147.509 157.627 147.955 157.82 148.215 158.074C148.482 158.32 148.615 158.637 148.615 159.024C148.615 159.31 148.532 159.57 148.365 159.804C148.199 160.037 147.952 160.22 147.625 160.354C147.305 160.487 146.922 160.554 146.475 160.554ZM59.8005 172.454C59.7138 172.454 59.6471 172.434 59.6005 172.394C59.5538 172.354 59.5138 172.29 59.4805 172.204L58.0605 167.564L58.0405 167.464C58.0405 167.404 58.0605 167.354 58.1005 167.314C58.1471 167.274 58.1971 167.254 58.2505 167.254H58.6905C58.7571 167.254 58.8105 167.274 58.8505 167.314C58.8971 167.347 58.9271 167.384 58.9405 167.424L60.0505 171.194L61.2405 167.464C61.2538 167.41 61.2838 167.364 61.3305 167.324C61.3771 167.277 61.4405 167.254 61.5205 167.254H61.8605C61.9405 167.254 62.0038 167.277 62.0505 167.324C62.0971 167.364 62.1271 167.41 62.1405 167.464L63.3305 171.194L64.4405 167.424C64.4471 167.39 64.4705 167.354 64.5105 167.314C64.5571 167.274 64.6138 167.254 64.6805 167.254H65.1305C65.1838 167.254 65.2305 167.274 65.2705 167.314C65.3105 167.354 65.3305 167.404 65.3305 167.464L65.3105 167.564L63.9005 172.204C63.8671 172.29 63.8271 172.354 63.7805 172.394C63.7338 172.434 63.6638 172.454 63.5705 172.454H63.1805C63.0005 172.454 62.8905 172.37 62.8505 172.204L61.6905 168.624L60.5305 172.204C60.4771 172.37 60.3638 172.454 60.1905 172.454H59.8005ZM67.7415 172.554C67.4149 172.554 67.1115 172.487 66.8315 172.354C66.5515 172.22 66.3282 172.04 66.1615 171.814C66.0015 171.58 65.9215 171.324 65.9215 171.044C65.9215 170.604 66.1015 170.244 66.4615 169.964C66.8282 169.677 67.3215 169.49 67.9415 169.404L69.4315 169.194V168.904C69.4315 168.224 69.0415 167.884 68.2615 167.884C67.9682 167.884 67.7282 167.947 67.5415 168.074C67.3549 168.194 67.2149 168.337 67.1215 168.504C67.1015 168.564 67.0749 168.607 67.0415 168.634C67.0149 168.66 66.9749 168.674 66.9215 168.674H66.4915C66.4315 168.674 66.3782 168.654 66.3315 168.614C66.2915 168.567 66.2715 168.514 66.2715 168.454C66.2782 168.294 66.3515 168.114 66.4915 167.914C66.6382 167.707 66.8615 167.53 67.1615 167.384C67.4615 167.23 67.8315 167.154 68.2715 167.154C69.0182 167.154 69.5549 167.33 69.8815 167.684C70.2082 168.03 70.3715 168.464 70.3715 168.984V172.224C70.3715 172.29 70.3482 172.347 70.3015 172.394C70.2615 172.434 70.2082 172.454 70.1415 172.454H69.6815C69.6149 172.454 69.5582 172.434 69.5115 172.394C69.4715 172.347 69.4515 172.29 69.4515 172.224V171.794C69.3049 172.007 69.0915 172.187 68.8115 172.334C68.5315 172.48 68.1749 172.554 67.7415 172.554ZM67.9515 171.804C68.3849 171.804 68.7382 171.664 69.0115 171.384C69.2915 171.097 69.4315 170.687 69.4315 170.154V169.874L68.2715 170.044C67.7982 170.11 67.4415 170.224 67.2015 170.384C66.9615 170.537 66.8415 170.734 66.8415 170.974C66.8415 171.24 66.9515 171.447 67.1715 171.594C67.3915 171.734 67.6515 171.804 67.9515 171.804ZM71.9591 166.284C71.8925 166.284 71.8358 166.264 71.7891 166.224C71.7491 166.177 71.7291 166.12 71.7291 166.054V165.514C71.7291 165.447 71.7491 165.39 71.7891 165.344C71.8358 165.297 71.8925 165.274 71.9591 165.274H72.5891C72.6558 165.274 72.7125 165.297 72.7591 165.344C72.8058 165.39 72.8291 165.447 72.8291 165.514V166.054C72.8291 166.12 72.8058 166.177 72.7591 166.224C72.7125 166.264 72.6558 166.284 72.5891 166.284H71.9591ZM72.0391 172.454C71.9725 172.454 71.9158 172.434 71.8691 172.394C71.8291 172.347 71.8091 172.29 71.8091 172.224V167.484C71.8091 167.417 71.8291 167.364 71.8691 167.324C71.9158 167.277 71.9725 167.254 72.0391 167.254H72.5191C72.5858 167.254 72.6391 167.277 72.6791 167.324C72.7258 167.364 72.7491 167.417 72.7491 167.484V172.224C72.7491 172.29 72.7258 172.347 72.6791 172.394C72.6391 172.434 72.5858 172.454 72.5191 172.454H72.0391ZM76.261 172.454C75.2077 172.454 74.681 171.867 74.681 170.694V168.054H73.901C73.8343 168.054 73.7777 168.034 73.731 167.994C73.691 167.947 73.671 167.89 73.671 167.824V167.484C73.671 167.417 73.691 167.364 73.731 167.324C73.7777 167.277 73.8343 167.254 73.901 167.254H74.681V165.584C74.681 165.517 74.701 165.464 74.741 165.424C74.7877 165.377 74.8443 165.354 74.911 165.354H75.381C75.4477 165.354 75.501 165.377 75.541 165.424C75.5877 165.464 75.611 165.517 75.611 165.584V167.254H76.851C76.9177 167.254 76.971 167.277 77.011 167.324C77.0577 167.364 77.081 167.417 77.081 167.484V167.824C77.081 167.89 77.0577 167.947 77.011 167.994C76.971 168.034 76.9177 168.054 76.851 168.054H75.611V170.624C75.611 170.957 75.6677 171.21 75.781 171.384C75.8943 171.55 76.081 171.634 76.341 171.634H76.951C77.0177 171.634 77.071 171.657 77.111 171.704C77.1577 171.744 77.181 171.797 77.181 171.864V172.224C77.181 172.29 77.1577 172.347 77.111 172.394C77.071 172.434 77.0177 172.454 76.951 172.454H76.261ZM78.2872 166.284C78.2206 166.284 78.1639 166.264 78.1172 166.224C78.0772 166.177 78.0572 166.12 78.0572 166.054V165.514C78.0572 165.447 78.0772 165.39 78.1172 165.344C78.1639 165.297 78.2206 165.274 78.2872 165.274H78.9172C78.9839 165.274 79.0406 165.297 79.0872 165.344C79.1339 165.39 79.1572 165.447 79.1572 165.514V166.054C79.1572 166.12 79.1339 166.177 79.0872 166.224C79.0406 166.264 78.9839 166.284 78.9172 166.284H78.2872ZM78.3672 172.454C78.3006 172.454 78.2439 172.434 78.1972 172.394C78.1572 172.347 78.1372 172.29 78.1372 172.224V167.484C78.1372 167.417 78.1572 167.364 78.1972 167.324C78.2439 167.277 78.3006 167.254 78.3672 167.254H78.8472C78.9139 167.254 78.9672 167.277 79.0072 167.324C79.0539 167.364 79.0772 167.417 79.0772 167.484V172.224C79.0772 172.29 79.0539 172.347 79.0072 172.394C78.9672 172.434 78.9139 172.454 78.8472 172.454H78.3672ZM80.7891 172.454C80.7225 172.454 80.6658 172.434 80.6191 172.394C80.5791 172.347 80.5591 172.29 80.5591 172.224V167.484C80.5591 167.417 80.5791 167.364 80.6191 167.324C80.6658 167.277 80.7225 167.254 80.7891 167.254H81.2591C81.3258 167.254 81.3791 167.277 81.4191 167.324C81.4658 167.364 81.4891 167.417 81.4891 167.484V167.924C81.6825 167.677 81.9091 167.487 82.1691 167.354C82.4358 167.22 82.7658 167.154 83.1591 167.154C83.7991 167.154 84.2958 167.36 84.6491 167.774C85.0091 168.18 85.1891 168.724 85.1891 169.404V172.224C85.1891 172.29 85.1658 172.347 85.1191 172.394C85.0791 172.434 85.0258 172.454 84.9591 172.454H84.4591C84.3925 172.454 84.3358 172.434 84.2891 172.394C84.2491 172.347 84.2291 172.29 84.2291 172.224V169.454C84.2291 168.98 84.1125 168.614 83.8791 168.354C83.6525 168.094 83.3225 167.964 82.8891 167.964C82.4691 167.964 82.1358 168.097 81.8891 168.364C81.6425 168.624 81.5191 168.987 81.5191 169.454V172.224C81.5191 172.29 81.4958 172.347 81.4491 172.394C81.4091 172.434 81.3558 172.454 81.2891 172.454H80.7891ZM88.7536 174.654C88.2069 174.654 87.7669 174.56 87.4336 174.374C87.1002 174.194 86.8636 173.987 86.7236 173.754C86.5836 173.52 86.5069 173.31 86.4936 173.124C86.4869 173.057 86.5069 173 86.5536 172.954C86.6069 172.907 86.6636 172.884 86.7236 172.884H87.2036C87.2636 172.884 87.3136 172.897 87.3536 172.924C87.3936 172.957 87.4269 173.014 87.4536 173.094C87.5336 173.307 87.6636 173.49 87.8436 173.644C88.0302 173.804 88.3169 173.884 88.7036 173.884C89.1969 173.884 89.5602 173.777 89.7936 173.564C90.0269 173.357 90.1436 172.987 90.1436 172.454V171.774C89.9702 171.994 89.7502 172.17 89.4836 172.304C89.2169 172.43 88.9002 172.494 88.5336 172.494C87.8269 172.494 87.2969 172.27 86.9436 171.824C86.5969 171.37 86.4136 170.797 86.3936 170.104L86.3836 169.824L86.3936 169.554C86.4136 168.867 86.6002 168.297 86.9536 167.844C87.3069 167.384 87.8336 167.154 88.5336 167.154C89.2336 167.154 89.7802 167.41 90.1736 167.924V167.494C90.1736 167.427 90.1936 167.37 90.2336 167.324C90.2802 167.277 90.3369 167.254 90.4036 167.254H90.8636C90.9302 167.254 90.9869 167.277 91.0336 167.324C91.0802 167.37 91.1036 167.427 91.1036 167.494V172.344C91.1036 173.884 90.3202 174.654 88.7536 174.654ZM88.7336 171.694C89.1869 171.694 89.5302 171.544 89.7636 171.244C89.9969 170.944 90.1236 170.587 90.1436 170.174C90.1502 170.114 90.1536 169.997 90.1536 169.824C90.1536 169.657 90.1502 169.544 90.1436 169.484C90.1236 169.07 89.9969 168.714 89.7636 168.414C89.5369 168.114 89.1936 167.964 88.7336 167.964C88.2602 167.964 87.9169 168.11 87.7036 168.404C87.4902 168.697 87.3736 169.084 87.3536 169.564L87.3436 169.824L87.3536 170.094C87.3736 170.567 87.4902 170.954 87.7036 171.254C87.9169 171.547 88.2602 171.694 88.7336 171.694ZM96.4915 172.554C96.1649 172.554 95.8615 172.487 95.5815 172.354C95.3015 172.22 95.0782 172.04 94.9115 171.814C94.7515 171.58 94.6715 171.324 94.6715 171.044C94.6715 170.604 94.8515 170.244 95.2115 169.964C95.5782 169.677 96.0715 169.49 96.6915 169.404L98.1815 169.194V168.904C98.1815 168.224 97.7915 167.884 97.0115 167.884C96.7182 167.884 96.4782 167.947 96.2915 168.074C96.1049 168.194 95.9649 168.337 95.8715 168.504C95.8515 168.564 95.8249 168.607 95.7915 168.634C95.7649 168.66 95.7249 168.674 95.6715 168.674H95.2415C95.1815 168.674 95.1282 168.654 95.0815 168.614C95.0415 168.567 95.0215 168.514 95.0215 168.454C95.0282 168.294 95.1015 168.114 95.2415 167.914C95.3882 167.707 95.6115 167.53 95.9115 167.384C96.2115 167.23 96.5815 167.154 97.0215 167.154C97.7682 167.154 98.3049 167.33 98.6315 167.684C98.9582 168.03 99.1215 168.464 99.1215 168.984V172.224C99.1215 172.29 99.0982 172.347 99.0515 172.394C99.0115 172.434 98.9582 172.454 98.8915 172.454H98.4315C98.3649 172.454 98.3082 172.434 98.2615 172.394C98.2215 172.347 98.2015 172.29 98.2015 172.224V171.794C98.0549 172.007 97.8415 172.187 97.5615 172.334C97.2815 172.48 96.9249 172.554 96.4915 172.554ZM96.7015 171.804C97.1349 171.804 97.4882 171.664 97.7615 171.384C98.0415 171.097 98.1815 170.687 98.1815 170.154V169.874L97.0215 170.044C96.5482 170.11 96.1915 170.224 95.9515 170.384C95.7115 170.537 95.5915 170.734 95.5915 170.974C95.5915 171.24 95.7015 171.447 95.9215 171.594C96.1415 171.734 96.4015 171.804 96.7015 171.804ZM102.54 172.454C101.487 172.454 100.96 171.867 100.96 170.694V168.054H100.18C100.114 168.054 100.057 168.034 100.01 167.994C99.9703 167.947 99.9503 167.89 99.9503 167.824V167.484C99.9503 167.417 99.9703 167.364 100.01 167.324C100.057 167.277 100.114 167.254 100.18 167.254H100.96V165.584C100.96 165.517 100.98 165.464 101.02 165.424C101.067 165.377 101.124 165.354 101.19 165.354H101.66C101.727 165.354 101.78 165.377 101.82 165.424C101.867 165.464 101.89 165.517 101.89 165.584V167.254H103.13C103.197 167.254 103.25 167.277 103.29 167.324C103.337 167.364 103.36 167.417 103.36 167.484V167.824C103.36 167.89 103.337 167.947 103.29 167.994C103.25 168.034 103.197 168.054 103.13 168.054H101.89V170.624C101.89 170.957 101.947 171.21 102.06 171.384C102.174 171.55 102.36 171.634 102.62 171.634H103.23C103.297 171.634 103.35 171.657 103.39 171.704C103.437 171.744 103.46 171.797 103.46 171.864V172.224C103.46 172.29 103.437 172.347 103.39 172.394C103.35 172.434 103.297 172.454 103.23 172.454H102.54ZM108.683 172.454C107.63 172.454 107.103 171.867 107.103 170.694V168.054H106.323C106.256 168.054 106.2 168.034 106.153 167.994C106.113 167.947 106.093 167.89 106.093 167.824V167.484C106.093 167.417 106.113 167.364 106.153 167.324C106.2 167.277 106.256 167.254 106.323 167.254H107.103V165.584C107.103 165.517 107.123 165.464 107.163 165.424C107.21 165.377 107.266 165.354 107.333 165.354H107.803C107.87 165.354 107.923 165.377 107.963 165.424C108.01 165.464 108.033 165.517 108.033 165.584V167.254H109.273C109.34 167.254 109.393 167.277 109.433 167.324C109.48 167.364 109.503 167.417 109.503 167.484V167.824C109.503 167.89 109.48 167.947 109.433 167.994C109.393 168.034 109.34 168.054 109.273 168.054H108.033V170.624C108.033 170.957 108.09 171.21 108.203 171.384C108.316 171.55 108.503 171.634 108.763 171.634H109.373C109.44 171.634 109.493 171.657 109.533 171.704C109.58 171.744 109.603 171.797 109.603 171.864V172.224C109.603 172.29 109.58 172.347 109.533 172.394C109.493 172.434 109.44 172.454 109.373 172.454H108.683ZM110.799 172.454C110.732 172.454 110.676 172.434 110.629 172.394C110.589 172.347 110.569 172.29 110.569 172.224V165.584C110.569 165.517 110.589 165.464 110.629 165.424C110.676 165.377 110.732 165.354 110.799 165.354H111.299C111.366 165.354 111.419 165.377 111.459 165.424C111.506 165.464 111.529 165.517 111.529 165.584V167.914C111.722 167.667 111.949 167.48 112.209 167.354C112.469 167.22 112.792 167.154 113.179 167.154C113.819 167.154 114.316 167.36 114.669 167.774C115.029 168.18 115.209 168.724 115.209 169.404V172.224C115.209 172.29 115.186 172.347 115.139 172.394C115.099 172.434 115.046 172.454 114.979 172.454H114.479C114.412 172.454 114.356 172.434 114.309 172.394C114.269 172.347 114.249 172.29 114.249 172.224V169.454C114.249 168.98 114.132 168.614 113.899 168.354C113.672 168.094 113.342 167.964 112.909 167.964C112.489 167.964 112.152 168.097 111.899 168.364C111.652 168.624 111.529 168.987 111.529 169.454V172.224C111.529 172.29 111.506 172.347 111.459 172.394C111.419 172.434 111.366 172.454 111.299 172.454H110.799ZM118.733 172.554C118.046 172.554 117.496 172.344 117.083 171.924C116.676 171.497 116.453 170.917 116.413 170.184L116.403 169.844L116.413 169.514C116.46 168.794 116.686 168.22 117.093 167.794C117.506 167.367 118.05 167.154 118.723 167.154C119.463 167.154 120.036 167.39 120.443 167.864C120.85 168.33 121.053 168.964 121.053 169.764V169.934C121.053 170 121.03 170.057 120.983 170.104C120.943 170.144 120.89 170.164 120.823 170.164H117.363V170.254C117.383 170.687 117.513 171.057 117.753 171.364C118 171.664 118.323 171.814 118.723 171.814C119.03 171.814 119.28 171.754 119.473 171.634C119.673 171.507 119.82 171.377 119.913 171.244C119.973 171.164 120.016 171.117 120.043 171.104C120.076 171.084 120.133 171.074 120.213 171.074H120.703C120.763 171.074 120.813 171.09 120.853 171.124C120.893 171.157 120.913 171.204 120.913 171.264C120.913 171.41 120.82 171.587 120.633 171.794C120.453 172 120.196 172.18 119.863 172.334C119.536 172.48 119.16 172.554 118.733 172.554ZM120.103 169.474V169.444C120.103 168.984 119.976 168.61 119.723 168.324C119.476 168.03 119.143 167.884 118.723 167.884C118.303 167.884 117.97 168.03 117.723 168.324C117.483 168.61 117.363 168.984 117.363 169.444V169.474H120.103ZM126.83 174.654C126.283 174.654 125.843 174.56 125.51 174.374C125.176 174.194 124.94 173.987 124.8 173.754C124.66 173.52 124.583 173.31 124.57 173.124C124.563 173.057 124.583 173 124.63 172.954C124.683 172.907 124.74 172.884 124.8 172.884H125.28C125.34 172.884 125.39 172.897 125.43 172.924C125.47 172.957 125.503 173.014 125.53 173.094C125.61 173.307 125.74 173.49 125.92 173.644C126.106 173.804 126.393 173.884 126.78 173.884C127.273 173.884 127.636 173.777 127.87 173.564C128.103 173.357 128.22 172.987 128.22 172.454V171.774C128.046 171.994 127.826 172.17 127.56 172.304C127.293 172.43 126.976 172.494 126.61 172.494C125.903 172.494 125.373 172.27 125.02 171.824C124.673 171.37 124.49 170.797 124.47 170.104L124.46 169.824L124.47 169.554C124.49 168.867 124.676 168.297 125.03 167.844C125.383 167.384 125.91 167.154 126.61 167.154C127.31 167.154 127.856 167.41 128.25 167.924V167.494C128.25 167.427 128.27 167.37 128.31 167.324C128.356 167.277 128.413 167.254 128.48 167.254H128.94C129.006 167.254 129.063 167.277 129.11 167.324C129.156 167.37 129.18 167.427 129.18 167.494V172.344C129.18 173.884 128.396 174.654 126.83 174.654ZM126.81 171.694C127.263 171.694 127.606 171.544 127.84 171.244C128.073 170.944 128.2 170.587 128.22 170.174C128.226 170.114 128.23 169.997 128.23 169.824C128.23 169.657 128.226 169.544 128.22 169.484C128.2 169.07 128.073 168.714 127.84 168.414C127.613 168.114 127.27 167.964 126.81 167.964C126.336 167.964 125.993 168.11 125.78 168.404C125.566 168.697 125.45 169.084 125.43 169.564L125.42 169.824L125.43 170.094C125.45 170.567 125.566 170.954 125.78 171.254C125.993 171.547 126.336 171.694 126.81 171.694ZM132.117 172.554C131.79 172.554 131.487 172.487 131.207 172.354C130.927 172.22 130.703 172.04 130.537 171.814C130.377 171.58 130.297 171.324 130.297 171.044C130.297 170.604 130.477 170.244 130.837 169.964C131.203 169.677 131.697 169.49 132.317 169.404L133.807 169.194V168.904C133.807 168.224 133.417 167.884 132.637 167.884C132.343 167.884 132.103 167.947 131.917 168.074C131.73 168.194 131.59 168.337 131.497 168.504C131.477 168.564 131.45 168.607 131.417 168.634C131.39 168.66 131.35 168.674 131.297 168.674H130.867C130.807 168.674 130.753 168.654 130.707 168.614C130.667 168.567 130.647 168.514 130.647 168.454C130.653 168.294 130.727 168.114 130.867 167.914C131.013 167.707 131.237 167.53 131.537 167.384C131.837 167.23 132.207 167.154 132.647 167.154C133.393 167.154 133.93 167.33 134.257 167.684C134.583 168.03 134.747 168.464 134.747 168.984V172.224C134.747 172.29 134.723 172.347 134.677 172.394C134.637 172.434 134.583 172.454 134.517 172.454H134.057C133.99 172.454 133.933 172.434 133.887 172.394C133.847 172.347 133.827 172.29 133.827 172.224V171.794C133.68 172.007 133.467 172.187 133.187 172.334C132.907 172.48 132.55 172.554 132.117 172.554ZM132.327 171.804C132.76 171.804 133.113 171.664 133.387 171.384C133.667 171.097 133.807 170.687 133.807 170.154V169.874L132.647 170.044C132.173 170.11 131.817 170.224 131.577 170.384C131.337 170.537 131.217 170.734 131.217 170.974C131.217 171.24 131.327 171.447 131.547 171.594C131.767 171.734 132.027 171.804 132.327 171.804ZM138.165 172.454C137.112 172.454 136.585 171.867 136.585 170.694V168.054H135.805C135.739 168.054 135.682 168.034 135.635 167.994C135.595 167.947 135.575 167.89 135.575 167.824V167.484C135.575 167.417 135.595 167.364 135.635 167.324C135.682 167.277 135.739 167.254 135.805 167.254H136.585V165.584C136.585 165.517 136.605 165.464 136.645 165.424C136.692 165.377 136.749 165.354 136.815 165.354H137.285C137.352 165.354 137.405 165.377 137.445 165.424C137.492 165.464 137.515 165.517 137.515 165.584V167.254H138.755C138.822 167.254 138.875 167.277 138.915 167.324C138.962 167.364 138.985 167.417 138.985 167.484V167.824C138.985 167.89 138.962 167.947 138.915 167.994C138.875 168.034 138.822 168.054 138.755 168.054H137.515V170.624C137.515 170.957 137.572 171.21 137.685 171.384C137.799 171.55 137.985 171.634 138.245 171.634H138.855C138.922 171.634 138.975 171.657 139.015 171.704C139.062 171.744 139.085 171.797 139.085 171.864V172.224C139.085 172.29 139.062 172.347 139.015 172.394C138.975 172.434 138.922 172.454 138.855 172.454H138.165ZM142.122 172.554C141.435 172.554 140.885 172.344 140.472 171.924C140.065 171.497 139.842 170.917 139.802 170.184L139.792 169.844L139.802 169.514C139.848 168.794 140.075 168.22 140.482 167.794C140.895 167.367 141.438 167.154 142.112 167.154C142.852 167.154 143.425 167.39 143.832 167.864C144.238 168.33 144.442 168.964 144.442 169.764V169.934C144.442 170 144.418 170.057 144.372 170.104C144.332 170.144 144.278 170.164 144.212 170.164H140.752V170.254C140.772 170.687 140.902 171.057 141.142 171.364C141.388 171.664 141.712 171.814 142.112 171.814C142.418 171.814 142.668 171.754 142.862 171.634C143.062 171.507 143.208 171.377 143.302 171.244C143.362 171.164 143.405 171.117 143.432 171.104C143.465 171.084 143.522 171.074 143.602 171.074H144.092C144.152 171.074 144.202 171.09 144.242 171.124C144.282 171.157 144.302 171.204 144.302 171.264C144.302 171.41 144.208 171.587 144.022 171.794C143.842 172 143.585 172.18 143.252 172.334C142.925 172.48 142.548 172.554 142.122 172.554ZM143.492 169.474V169.444C143.492 168.984 143.365 168.61 143.112 168.324C142.865 168.03 142.532 167.884 142.112 167.884C141.692 167.884 141.358 168.03 141.112 168.324C140.872 168.61 140.752 168.984 140.752 169.444V169.474H143.492Z" fill="#050505"/>
<path d="M62.8408 220.985C62.7741 220.985 62.7175 220.965 62.6708 220.925C62.6308 220.879 62.6108 220.822 62.6108 220.755V214.225C62.6108 214.152 62.6308 214.095 62.6708 214.055C62.7175 214.009 62.7741 213.985 62.8408 213.985H65.1108C66.1175 213.985 66.8441 214.212 67.2908 214.665C67.7375 215.112 67.9708 215.789 67.9908 216.695C67.9975 216.889 68.0008 217.149 68.0008 217.475C68.0008 217.802 67.9975 218.065 67.9908 218.265C67.9708 218.899 67.8641 219.415 67.6708 219.815C67.4841 220.209 67.1875 220.502 66.7808 220.695C66.3741 220.889 65.8341 220.985 65.1608 220.985H62.8408ZM65.1108 220.135C65.5708 220.135 65.9341 220.072 66.2008 219.945C66.4741 219.819 66.6708 219.619 66.7908 219.345C66.9175 219.065 66.9875 218.692 67.0008 218.225C67.0141 217.825 67.0208 217.575 67.0208 217.475C67.0208 217.369 67.0141 217.122 67.0008 216.735C66.9875 216.075 66.8308 215.595 66.5308 215.295C66.2308 214.989 65.7408 214.835 65.0608 214.835H63.5908V220.135H65.1108ZM71.4553 221.085C70.7687 221.085 70.2187 220.875 69.8053 220.455C69.3987 220.029 69.1753 219.449 69.1353 218.715L69.1253 218.375L69.1353 218.045C69.182 217.325 69.4087 216.752 69.8153 216.325C70.2287 215.899 70.772 215.685 71.4453 215.685C72.1853 215.685 72.7587 215.922 73.1653 216.395C73.572 216.862 73.7753 217.495 73.7753 218.295V218.465C73.7753 218.532 73.752 218.589 73.7053 218.635C73.6653 218.675 73.612 218.695 73.5453 218.695H70.0853V218.785C70.1053 219.219 70.2353 219.589 70.4753 219.895C70.722 220.195 71.0453 220.345 71.4453 220.345C71.752 220.345 72.002 220.285 72.1953 220.165C72.3953 220.039 72.542 219.909 72.6353 219.775C72.6953 219.695 72.7387 219.649 72.7653 219.635C72.7987 219.615 72.8553 219.605 72.9353 219.605H73.4253C73.4853 219.605 73.5353 219.622 73.5753 219.655C73.6153 219.689 73.6353 219.735 73.6353 219.795C73.6353 219.942 73.542 220.119 73.3553 220.325C73.1753 220.532 72.9187 220.712 72.5853 220.865C72.2587 221.012 71.882 221.085 71.4553 221.085ZM72.8253 218.005V217.975C72.8253 217.515 72.6987 217.142 72.4453 216.855C72.1987 216.562 71.8653 216.415 71.4453 216.415C71.0253 216.415 70.692 216.562 70.4453 216.855C70.2053 217.142 70.0853 217.515 70.0853 217.975V218.005H72.8253ZM75.201 220.985C75.1344 220.985 75.0777 220.965 75.031 220.925C74.991 220.879 74.971 220.822 74.971 220.755V216.015C74.971 215.949 74.991 215.895 75.031 215.855C75.0777 215.809 75.1344 215.785 75.201 215.785H75.671C75.7377 215.785 75.791 215.809 75.831 215.855C75.8777 215.895 75.901 215.949 75.901 216.015V216.455C76.0944 216.209 76.321 216.019 76.581 215.885C76.8477 215.752 77.1777 215.685 77.571 215.685C78.211 215.685 78.7077 215.892 79.061 216.305C79.421 216.712 79.601 217.255 79.601 217.935V220.755C79.601 220.822 79.5777 220.879 79.531 220.925C79.491 220.965 79.4377 220.985 79.371 220.985H78.871C78.8044 220.985 78.7477 220.965 78.701 220.925C78.661 220.879 78.641 220.822 78.641 220.755V217.985C78.641 217.512 78.5244 217.145 78.291 216.885C78.0644 216.625 77.7344 216.495 77.301 216.495C76.881 216.495 76.5477 216.629 76.301 216.895C76.0544 217.155 75.931 217.519 75.931 217.985V220.755C75.931 220.822 75.9077 220.879 75.861 220.925C75.821 220.965 75.7677 220.985 75.701 220.985H75.201ZM81.7892 222.885C81.7359 222.885 81.6892 222.865 81.6492 222.825C81.6092 222.785 81.5892 222.739 81.5892 222.685C81.5892 222.639 81.6059 222.579 81.6392 222.505L82.4092 220.675L80.4992 216.165C80.4659 216.079 80.4492 216.022 80.4492 215.995C80.4492 215.935 80.4692 215.885 80.5092 215.845C80.5492 215.805 80.5992 215.785 80.6592 215.785H81.1492C81.2559 215.785 81.3359 215.842 81.3892 215.955L82.9092 219.595L84.4692 215.955C84.5226 215.842 84.6059 215.785 84.7192 215.785H85.1892C85.2492 215.785 85.2992 215.805 85.3392 215.845C85.3792 215.885 85.3992 215.932 85.3992 215.985C85.3992 216.005 85.3826 216.065 85.3492 216.165L82.5092 222.715C82.4559 222.829 82.3726 222.885 82.2592 222.885H81.7892Z" fill="black"/>
<path d="M113.844 220.985C113.79 220.985 113.744 220.965 113.704 220.925C113.664 220.885 113.644 220.839 113.644 220.785C113.644 220.732 113.647 220.695 113.654 220.675L116.134 214.205C116.187 214.059 116.294 213.985 116.454 213.985H117.134C117.294 213.985 117.4 214.059 117.454 214.205L119.924 220.675L119.944 220.785C119.944 220.839 119.924 220.885 119.884 220.925C119.844 220.965 119.797 220.985 119.744 220.985H119.234C119.16 220.985 119.104 220.969 119.064 220.935C119.024 220.895 118.997 220.855 118.984 220.815L118.434 219.395H115.154L114.604 220.815C114.59 220.855 114.56 220.895 114.514 220.935C114.474 220.969 114.42 220.985 114.354 220.985H113.844ZM118.144 218.535L116.794 214.985L115.444 218.535H118.144ZM121.123 220.985C121.056 220.985 121 220.965 120.953 220.925C120.913 220.879 120.893 220.822 120.893 220.755V214.115C120.893 214.049 120.913 213.995 120.953 213.955C121 213.909 121.056 213.885 121.123 213.885H121.593C121.66 213.885 121.713 213.909 121.753 213.955C121.8 213.995 121.823 214.049 121.823 214.115V220.755C121.823 220.822 121.8 220.879 121.753 220.925C121.713 220.965 121.66 220.985 121.593 220.985H121.123ZM123.555 220.985C123.488 220.985 123.431 220.965 123.385 220.925C123.345 220.879 123.325 220.822 123.325 220.755V214.115C123.325 214.049 123.345 213.995 123.385 213.955C123.431 213.909 123.488 213.885 123.555 213.885H124.025C124.091 213.885 124.145 213.909 124.185 213.955C124.231 213.995 124.255 214.049 124.255 214.115V220.755C124.255 220.822 124.231 220.879 124.185 220.925C124.145 220.965 124.091 220.985 124.025 220.985H123.555ZM127.876 221.085C127.143 221.085 126.573 220.879 126.166 220.465C125.766 220.052 125.553 219.502 125.526 218.815L125.516 218.385L125.526 217.955C125.553 217.275 125.77 216.729 126.176 216.315C126.583 215.895 127.15 215.685 127.876 215.685C128.603 215.685 129.17 215.895 129.576 216.315C129.983 216.729 130.2 217.275 130.226 217.955C130.233 218.029 130.236 218.172 130.236 218.385C130.236 218.599 130.233 218.742 130.226 218.815C130.2 219.502 129.983 220.052 129.576 220.465C129.176 220.879 128.61 221.085 127.876 221.085ZM127.876 220.315C128.296 220.315 128.626 220.182 128.866 219.915C129.113 219.649 129.246 219.265 129.266 218.765C129.273 218.699 129.276 218.572 129.276 218.385C129.276 218.199 129.273 218.072 129.266 218.005C129.246 217.505 129.113 217.122 128.866 216.855C128.626 216.589 128.296 216.455 127.876 216.455C127.456 216.455 127.123 216.589 126.876 216.855C126.63 217.122 126.5 217.505 126.486 218.005L126.476 218.385L126.486 218.765C126.5 219.265 126.63 219.649 126.876 219.915C127.123 220.182 127.456 220.315 127.876 220.315ZM132.732 220.985C132.645 220.985 132.578 220.965 132.532 220.925C132.485 220.885 132.445 220.822 132.412 220.735L130.992 216.095L130.972 215.995C130.972 215.935 130.992 215.885 131.032 215.845C131.078 215.805 131.128 215.785 131.182 215.785H131.622C131.688 215.785 131.742 215.805 131.782 215.845C131.828 215.879 131.858 215.915 131.872 215.955L132.982 219.725L134.172 215.995C134.185 215.942 134.215 215.895 134.262 215.855C134.308 215.809 134.372 215.785 134.452 215.785H134.792C134.872 215.785 134.935 215.809 134.982 215.855C135.028 215.895 135.058 215.942 135.072 215.995L136.262 219.725L137.372 215.955C137.378 215.922 137.402 215.885 137.442 215.845C137.488 215.805 137.545 215.785 137.612 215.785H138.062C138.115 215.785 138.162 215.805 138.202 215.845C138.242 215.885 138.262 215.935 138.262 215.995L138.242 216.095L136.832 220.735C136.798 220.822 136.758 220.885 136.712 220.925C136.665 220.965 136.595 220.985 136.502 220.985H136.112C135.932 220.985 135.822 220.902 135.782 220.735L134.622 217.155L133.462 220.735C133.408 220.902 133.295 220.985 133.122 220.985H132.732Z" fill="black"/>
<path fill-rule="evenodd" clip-rule="evenodd" d="M109.807 120.558H120.675V124.423C120.675 125.379 119.913 126.159 118.98 126.159H115.071L112.739 127.365L109.807 126.159V120.558Z" fill="#FFE07D"/>
<path fill-rule="evenodd" clip-rule="evenodd" d="M109.806 126.159H115.07V128.639C115.07 129.234 114.594 129.719 114.015 129.719H96.875C96.875 128.161 96.875 127.368 98.0397 127.368L100.359 127.365C101.819 127.363 102.777 126.98 103.311 126.159H109.806Z" fill="#6F6571"/>
<path fill-rule="evenodd" clip-rule="evenodd" d="M98.9431 129.719H114.016C114.9 131.295 115.61 133.189 114.998 136.812C113.972 133.239 103.556 134.665 102.486 138.789H90.9929C90.5582 137.78 90.148 136.784 89.7891 135.779H93.0293C99.5828 133.247 97.4756 134.375 98.9431 129.719Z" fill="#FFE07D"/>
<path fill-rule="evenodd" clip-rule="evenodd" d="M98.0117 120.035C98.2364 121.246 98.5415 122.439 98.8834 123.455L102.197 124.784L105.891 123.455C105.762 116.297 103.149 112.864 100.927 111.754C100.126 111.129 99.3059 110.894 99.3059 110.894C99.3059 110.894 98.2266 112.662 98.1705 112.662C97.7554 113.672 97.5991 114.991 97.626 116.415L98.0117 120.035Z" fill="#ECEAEC"/>
<path fill-rule="evenodd" clip-rule="evenodd" d="M105.892 123.455H98.8843C97.2703 123.635 95.2852 124.893 95.2852 128.791V132.877H98.9429V129.719C98.9429 128.161 98.9429 127.367 100.108 127.367L102.427 127.365C103.887 127.363 104.845 126.98 105.379 126.159C105.792 125.526 105.951 124.633 105.892 123.455V123.455Z" fill="#FF8086"/>
<path fill-rule="evenodd" clip-rule="evenodd" d="M105.891 123.455C105.762 116.297 103.149 112.864 100.927 111.753C100.597 111.991 100.231 112.186 99.8281 112.331C101.796 113.855 103.769 117.26 103.881 123.455H105.891Z" fill="#DAD8DB"/>
<path fill-rule="evenodd" clip-rule="evenodd" d="M105.891 123.455H103.882C103.94 124.633 103.782 125.526 103.369 126.159C103.032 126.677 102.524 127.115 101.828 127.365H102.426C103.887 127.363 104.844 126.98 105.378 126.159C105.791 125.526 105.95 124.633 105.891 123.455Z" fill="#F76672"/>
<path fill-rule="evenodd" clip-rule="evenodd" d="M111.501 114.948H118.98C119.913 114.948 120.675 115.729 120.675 116.685V119.557H109.807V116.685C109.807 115.729 110.568 114.948 111.501 114.948V114.948Z" fill="#FFE07D"/>
<path fill-rule="evenodd" clip-rule="evenodd" d="M109.807 118.691H120.675V121.42H109.807V118.691Z" fill="#FF8086"/>
<path fill-rule="evenodd" clip-rule="evenodd" d="M118.405 118.691H119.797H120.674V116.685C120.674 116.032 120.317 115.461 119.797 115.166C119.553 115.028 119.275 114.948 118.979 114.948H116.711C117.644 114.948 118.405 115.729 118.405 116.685V118.691Z" fill="#FFC269"/>
<path fill-rule="evenodd" clip-rule="evenodd" d="M118.406 121.42H119.798H120.675V120.557V119.557V118.691H119.798H118.406V119.557V120.557V121.42Z" fill="#F76672"/>
<path fill-rule="evenodd" clip-rule="evenodd" d="M118.405 121.421V124.423C118.405 125.379 117.644 126.159 116.711 126.159H118.979C119.275 126.159 119.553 126.082 119.797 125.944C120.317 125.647 120.674 125.076 120.674 124.423V121.421H119.797H118.405Z" fill="#FFC269"/>
<path fill-rule="evenodd" clip-rule="evenodd" d="M102.486 138.789C102.486 135.088 105.35 132.141 108.884 132.141C111.758 132.141 114.19 134.093 114.998 136.812C115.164 137.37 115.262 137.963 115.279 138.578C115.286 138.819 115.125 138.789 114.905 138.789C110.766 138.789 106.625 138.786 102.486 138.789V138.789Z" fill="#FF8086"/>
<path fill-rule="evenodd" clip-rule="evenodd" d="M104.094 138.789H113.831C113.692 141.476 111.565 143.612 108.963 143.612C106.36 143.612 104.233 141.476 104.094 138.789V138.789Z" fill="#6F6571"/>
<path fill-rule="evenodd" clip-rule="evenodd" d="M79.3663 137.726L87.7439 139.7C87.2116 142.069 84.9042 143.55 82.5919 143.005C80.277 142.459 78.834 140.095 79.3663 137.726Z" fill="#6F6571"/>
<path fill-rule="evenodd" clip-rule="evenodd" d="M78.7397 135.321C79.924 133.557 81.98 132.534 84.1287 132.754C87.9183 133.575 89.1514 135.894 89.398 138.786C89.3931 139.179 89.3516 139.574 89.2686 139.97C89.2442 140.08 89.1733 140.035 89.0562 140.007L87.745 139.7L79.3674 137.726L78.7398 137.578L77.8633 137.37C78.0317 136.615 78.3345 135.924 78.7397 135.321V135.321Z" fill="#ECEAEC"/>
<path fill-rule="evenodd" clip-rule="evenodd" d="M84.1211 132.744L87.5053 120.755L89.029 120.057L90.7333 120.755C88.4942 127.11 89.1193 131.546 90.6307 135.779C90.9921 136.785 91.4023 137.78 91.8345 138.789H89.4001L84.1211 132.744Z" fill="#FF8086"/>
<path fill-rule="evenodd" clip-rule="evenodd" d="M94.6006 107.312L98.5709 106.447C98.9738 106.484 100.126 107.475 100.126 108.095L99.2814 112.494C98.9298 112.601 98.5562 112.661 98.1704 112.661C96.0559 112.661 94.3418 110.903 94.3418 108.736C94.3418 108.233 94.4322 107.753 94.6006 107.312V107.312Z" fill="#FFECE4"/>
<path fill-rule="evenodd" clip-rule="evenodd" d="M93.3184 107.313C93.3184 104.516 95.4817 102.251 98.153 102.251C100.824 102.251 102.988 104.516 102.988 107.313C102.988 109.159 102.255 110.8 100.927 111.754C100.453 112.096 99.9013 112.349 99.2812 112.494V108.096C99.2812 107.475 98.9735 107.35 98.5706 107.313H94.6004H93.3184V107.313Z" fill="#FF8086"/>
<path fill-rule="evenodd" clip-rule="evenodd" d="M95.625 102.999C96.3599 102.524 97.2268 102.251 98.1546 102.251C100.826 102.251 102.989 104.516 102.989 107.313C102.989 109.159 102.257 110.8 100.928 111.754C100.592 111.996 100.218 112.194 99.8077 112.339C100.789 111.321 101.322 109.86 101.322 108.248C101.322 105.326 99.0582 102.957 96.2673 102.957C96.0498 102.957 95.835 102.97 95.625 102.999V102.999Z" fill="#F76672"/>
<path fill-rule="evenodd" clip-rule="evenodd" d="M95.2852 132.876H98.9429V135.236C98.9429 135.741 98.6743 135.779 98.2788 135.779H93.029C92.924 133.412 94.3231 132.876 95.2852 132.876Z" fill="#6F6571"/>
<path fill-rule="evenodd" clip-rule="evenodd" d="M90.631 135.779C89.1196 131.546 88.4945 127.11 90.7336 120.755H89.4785C89.4736 120.755 89.4688 120.755 89.4639 120.755H89.0122C86.7731 127.11 87.3958 131.546 88.9096 135.779C89.2685 136.785 89.6787 137.781 90.1134 138.789H90.9924H91.8349C91.4026 137.781 90.9924 136.785 90.631 135.779V135.779Z" fill="#F76672"/>
<path fill-rule="evenodd" clip-rule="evenodd" d="M89.397 138.786L84.1277 132.754C83.5832 132.699 83.0435 132.721 82.5234 132.819L87.5876 138.616C87.5827 138.954 87.551 139.296 87.4875 139.639L87.7439 139.699L89.0551 140.007C89.1723 140.034 89.2431 140.08 89.2675 139.969C89.3506 139.574 89.3922 139.179 89.397 138.786V138.786Z" fill="#DAD8DB"/>
<path fill-rule="evenodd" clip-rule="evenodd" d="M114.016 129.719H98.9434V131.078H111.328C112.336 131.078 112.815 131.523 113.208 132.426C113.547 133.209 113.555 133.464 113.709 134.41C114.287 135.098 114.732 135.914 114.998 136.812C115.611 133.189 114.9 131.295 114.016 129.719V129.719Z" fill="#FFC269"/>
<path fill-rule="evenodd" clip-rule="evenodd" d="M113.707 134.41C112.535 133.017 110.809 132.141 108.882 132.141C108.399 132.141 107.93 132.196 107.479 132.299C110.362 132.967 112.379 135.574 112.467 138.578C112.472 138.744 112.399 138.781 112.281 138.789H113.832H114.904C115.124 138.789 115.285 138.819 115.277 138.578C115.26 137.963 115.163 137.37 114.997 136.812C114.992 136.795 114.987 136.78 114.982 136.765C114.982 136.765 114.982 136.765 114.982 136.762C114.713 135.884 114.276 135.086 113.707 134.41Z" fill="#F76672"/>
<path fill-rule="evenodd" clip-rule="evenodd" d="M87.4879 139.639L79.3667 137.726C79.2763 138.118 79.2446 138.514 79.2593 138.899L85.7055 140.418L85.9594 140.478C85.7201 141.553 85.1122 142.447 84.3039 143.05C85.9521 142.752 87.3464 141.476 87.7443 139.7L87.4879 139.639Z" fill="#5D5360"/>
<path fill-rule="evenodd" clip-rule="evenodd" d="M112.281 138.789H104.094C104.121 139.314 104.226 139.819 104.394 140.292H110.098H111.648C111.587 141.468 111.148 142.536 110.455 143.37C112.337 142.737 113.722 140.938 113.831 138.789H112.281Z" fill="#5D5360"/>
<path fill-rule="evenodd" clip-rule="evenodd" d="M115.07 128.639V126.159H111.762V128.639C111.762 129.234 111.286 129.719 110.707 129.719H114.016C114.594 129.719 115.07 129.234 115.07 128.639Z" fill="#5D5360"/>
<path fill-rule="evenodd" clip-rule="evenodd" d="M94.3613 108.316H97.6235C98.0264 108.353 98.3341 108.481 98.3341 109.101V112.657C98.6612 112.642 98.9786 112.587 99.2814 112.494V108.096C99.2814 107.475 98.9737 107.35 98.5709 107.312H94.6006C94.481 107.628 94.3979 107.966 94.3613 108.316V108.316Z" fill="#FFDDCE"/>
<path fill-rule="evenodd" clip-rule="evenodd" d="M86.7999 116.98L91.3684 118.526C91.5931 118.731 91.3391 120.823 91.1877 120.755H87.5056H85.877V117.312C85.877 116.634 86.2213 116.785 86.7999 116.98V116.98Z" fill="#FFE07D"/>
<path fill-rule="evenodd" clip-rule="evenodd" d="M93.4976 120.755H93.1143H91.1878C89.9474 120.755 89.9108 118.649 91.3685 118.526L93.4977 118.351L94.0691 119.59L93.4976 120.755Z" fill="#FFECE4"/>
<path fill-rule="evenodd" clip-rule="evenodd" d="M97.6271 116.414L98.3913 115.742C100.306 114.053 102.725 116.902 100.166 118.604L98.0128 120.035L96.9287 120.755H93.498V118.351L95.6296 118.173L97.6271 116.414Z" fill="#FF8086"/>
<path fill-rule="evenodd" clip-rule="evenodd" d="M93.4983 120.755V119.589H93.0417H92.7951H92.4093H90.4828C90.4096 119.589 90.3412 119.584 90.2753 119.569C90.2045 120.15 90.5243 120.755 91.1885 120.755H93.115H93.4983Z" fill="#FFDDCE"/>
<path fill-rule="evenodd" clip-rule="evenodd" d="M100.166 118.603C101.714 117.573 101.441 116.124 100.56 115.514C100.63 116.139 100.34 116.857 99.4608 117.44L97.7833 118.553L97.3096 118.871L96.2255 119.589H93.498V120.755H96.9287L98.0128 120.035L100.166 118.603Z" fill="#F76672"/>
<path fill-rule="evenodd" clip-rule="evenodd" d="M91.3675 118.526L89.5288 117.905C88.9135 118.581 88.6156 119.897 89.0112 120.755H90.7326H91.1868C90.5226 120.755 90.2027 120.149 90.2735 119.569C90.3371 119.066 90.6911 118.583 91.3675 118.526V118.526Z" fill="#FFC269"/>
<path d="M118.979 114.287H111.5C110.21 114.287 109.16 115.362 109.16 116.685V125.498H106.362C106.518 124.919 106.575 124.237 106.537 123.442V123.442C106.477 120.086 105.882 117.257 104.769 115.035C103.905 113.309 102.897 112.274 102.032 111.656C103.047 110.587 103.634 109.066 103.634 107.312C103.634 104.157 101.176 101.59 98.1538 101.59C95.1317 101.59 92.6731 104.157 92.6731 107.312C92.6731 107.678 92.9623 107.974 93.3191 107.974H93.7581C93.7177 108.223 93.6961 108.478 93.6961 108.736C93.6961 110.96 95.2482 112.819 97.3002 113.235C97.0851 114.053 96.9782 115.017 96.9786 116.112L95.3673 117.531L91.4467 117.856L86.9242 116.325C86.5096 116.184 86.0398 116.025 85.6322 116.326C85.2306 116.622 85.2306 117.142 85.2306 117.312V120.755C85.2306 121.12 85.5198 121.416 85.8766 121.416H86.6457L85.4661 125.59C85.3669 125.941 85.5644 126.308 85.9071 126.409C86.25 126.511 86.6081 126.308 86.7073 125.958L87.991 121.416H89.8276C87.5432 128.548 88.8467 133.309 90.8502 138.127H89.6889L84.8519 132.59L85.8747 128.972C85.974 128.621 85.7765 128.255 85.4338 128.153C85.091 128.052 84.7328 128.254 84.6335 128.605L83.6553 132.065C80.6295 132.013 77.9231 134.149 77.2333 137.222C77.1535 137.578 77.3705 137.933 77.718 138.014L78.6352 138.231C78.4009 140.722 80.0035 143.073 82.4476 143.649C82.8188 143.736 83.1931 143.78 83.5649 143.78C84.4818 143.78 85.3825 143.516 86.1792 143.005C87.1143 142.405 87.811 141.523 88.188 140.481L88.9116 140.652C89.1272 140.703 89.3317 140.729 89.5361 140.616C89.7262 140.511 89.8525 140.322 89.8999 140.108C89.9454 139.892 89.98 139.672 90.0041 139.45H103.516C103.948 142.2 106.233 144.274 108.963 144.274C111.693 144.274 113.979 142.2 114.411 139.45H114.904L114.961 139.45C114.981 139.451 115.002 139.451 115.024 139.451C115.209 139.451 115.476 139.43 115.695 139.202C115.805 139.088 115.933 138.883 115.923 138.559C115.905 137.938 115.814 137.337 115.659 136.767C116.173 133.568 115.678 131.62 114.944 130.096C115.408 129.785 115.716 129.248 115.716 128.638V126.821H118.979C120.27 126.821 121.32 125.745 121.32 124.423V116.685C121.32 115.362 120.27 114.287 118.979 114.287V114.287ZM85.4931 141.884C84.6661 142.415 83.6876 142.584 82.7376 142.36H82.7375C80.9891 141.948 79.8226 140.306 79.9076 138.531L86.9153 140.183C86.6253 140.882 86.1348 141.473 85.4931 141.884V141.884ZM88.7257 139.251L78.6763 136.883C79.4518 134.709 81.5388 133.27 83.82 133.393L88.743 139.029C88.7387 139.103 88.733 139.177 88.7257 139.251ZM98.484 127.725C98.2965 128.231 98.2965 128.855 98.2965 129.719V132.215H95.9308V128.791C95.9308 124.92 97.9946 124.23 98.9207 124.116H105.254C105.229 124.995 105.035 125.619 104.668 126.016C104.239 126.478 103.506 126.703 102.426 126.704L100.107 126.706C99.2804 126.706 98.7342 127.049 98.484 127.725V127.725ZM98.2965 133.538V135.117C98.2906 135.117 98.2846 135.117 98.2784 135.117H93.6895C93.7411 134.628 93.8901 134.249 94.1349 133.986C94.4989 133.596 95.0116 133.538 95.2848 133.538H98.2965ZM105.226 122.793H99.3507C99.1147 122.033 98.9044 121.201 98.7314 120.345L100.518 119.158C101.493 118.51 102 117.594 101.909 116.645C101.829 115.804 101.271 115.052 100.486 114.731C99.7702 114.437 98.9993 114.529 98.318 114.975C98.3742 114.343 98.4788 113.778 98.63 113.298C98.9054 113.269 99.1789 113.214 99.4475 113.133C99.9942 113.003 100.499 112.796 100.956 112.521C102.2 113.283 104.936 115.751 105.226 122.793V122.793ZM94.0124 106.651C94.3171 104.538 96.0582 102.913 98.1538 102.913C100.463 102.913 102.342 104.887 102.342 107.313C102.342 109.286 101.418 110.876 99.928 111.576V108.096C99.928 107.493 99.7027 106.754 98.6299 106.654C98.6105 106.652 98.5909 106.651 98.5714 106.651H94.0124ZM94.9883 108.736C94.9883 108.475 95.0173 108.22 95.0745 107.974H98.5397C98.5795 107.978 98.6087 107.983 98.6295 107.987C98.6329 108.012 98.6358 108.047 98.6358 108.096V111.965C98.4819 111.988 98.327 112 98.1722 112C98.1707 112 98.1693 112 98.1679 112C96.4144 111.998 94.9883 110.535 94.9883 108.736ZM94.1508 118.959L95.681 118.832C95.8173 118.821 95.9466 118.766 96.0504 118.675L98.812 116.243L98.8125 116.242C99.0795 116.007 99.3645 115.886 99.6421 115.886C99.7656 115.886 99.8876 115.91 100.006 115.959C100.347 116.099 100.59 116.418 100.624 116.774C100.666 117.22 100.379 117.673 99.8143 118.049L96.7369 120.094H94.151V118.959H94.1508ZM91.4205 119.185L92.8587 119.066V120.094H91.1875C90.9709 120.094 90.9181 119.909 90.9119 119.755C90.9083 119.667 90.9164 119.228 91.4205 119.185V119.185ZM89.8915 118.729C89.6969 119.055 89.606 119.437 89.6209 119.809C89.6248 119.905 89.6368 119.998 89.6535 120.088C89.6535 120.09 89.6524 120.092 89.6528 120.094H86.5228V117.583L89.894 118.724C89.8929 118.725 89.8924 118.727 89.8915 118.729V118.729ZM91.1911 121.417H96.9281C97.0529 121.417 97.1751 121.379 97.2798 121.31L97.5722 121.116C97.7129 121.752 97.8731 122.372 98.0476 122.957C96.73 123.355 94.6387 124.642 94.6387 128.791V132.282C94.1854 132.375 93.6492 132.592 93.2007 133.072C92.7279 133.579 92.4578 134.265 92.393 135.117H91.0897C89.7765 131.242 89.277 127.119 91.1911 121.417V121.417ZM92.256 138.125C92.0172 137.563 91.787 137.003 91.5703 136.44H98.2783C99.1477 136.44 99.5885 136.035 99.5885 135.236V132.877V130.381H104.688C105.045 130.381 105.334 130.085 105.334 129.719C105.334 129.354 105.045 129.058 104.688 129.058H99.5931C99.6014 128.682 99.6249 128.375 99.6922 128.193C99.7248 128.105 99.7531 128.029 100.108 128.029L102.427 128.027C103.88 128.025 104.919 127.665 105.605 126.926C105.636 126.892 105.666 126.856 105.696 126.821H109.806H114.424V128.638C114.424 128.866 114.237 129.058 114.015 129.058H107.584C107.227 129.058 106.938 129.354 106.938 129.719C106.938 130.085 107.227 130.381 107.584 130.381H113.636C114.146 131.351 114.606 132.559 114.578 134.466C113.3 132.648 111.231 131.48 108.883 131.48C106.997 131.48 105.227 132.237 103.9 133.612C102.722 134.833 102.014 136.416 101.869 138.127L92.256 138.125ZM108.963 142.951C106.944 142.951 105.24 141.461 104.828 139.45H113.098C112.686 141.461 110.983 142.951 108.963 142.951V142.951ZM113.832 138.127H104.095H103.166C103.484 135.136 105.926 132.803 108.883 132.803C111.479 132.803 113.659 134.555 114.38 137.008C114.383 137.016 114.385 137.024 114.388 137.031C114.49 137.383 114.562 137.75 114.601 138.127H113.832ZM120.028 124.423C120.028 125.016 119.557 125.498 118.979 125.498H110.452V122.082H120.028V124.423ZM120.028 120.759H110.452V119.353H120.028V120.759ZM120.028 118.03H110.452V116.685C110.452 116.092 110.922 115.61 111.5 115.61H118.979C119.557 115.61 120.028 116.092 120.028 116.685V118.03Z" fill="black"/>
<ellipse cx="126.868" cy="198.21" rx="9.47523" ry="9.70083" fill="#38C016"/>
<path d="M132.552 193.941L124.214 202.478L120.424 198.598" stroke="white" stroke-width="2" stroke-linecap="round" stroke-linejoin="round"/>
<ellipse cx="73.8053" cy="198.21" rx="9.47523" ry="9.70083" fill="#FF0000"/>
<path d="M79.4908 193.166L70.3945 202.478" stroke="white" stroke-width="2" stroke-linecap="round" stroke-linejoin="round"/>
<path d="M68.8789 193.166L77.9751 202.478" stroke="white" stroke-width="2" stroke-linecap="round" stroke-linejoin="round"/>
<defs>
<linearGradient id="paint0_linear_5337_526" x1="83.809" y1="369.53" x2="115.739" y2="369.53" gradientUnits="userSpaceOnUse">
<stop stop-color="#A1C3FC"/>
<stop offset="1" stop-color="#8AB8FD"/>
</linearGradient>
</defs>
</svg>
