<svg width="759" height="750" viewBox="0 0 759 750" fill="none" xmlns="http://www.w3.org/2000/svg">
<rect x="512" y="609" width="245" height="139" rx="19" fill="#EEF5FF" stroke="#14335D" stroke-width="4"/>
<path d="M563.684 671C563.516 671 563.376 670.944 563.264 670.832C563.152 670.72 563.096 670.58 563.096 670.412C563.096 670.356 563.105 670.3 563.124 670.244C563.142 670.188 563.161 670.132 563.18 670.076L569.452 661.004L563.572 652.324C563.516 652.212 563.488 652.1 563.488 651.988C563.488 651.82 563.544 651.68 563.656 651.568C563.768 651.456 563.898 651.4 564.048 651.4H566.932C567.156 651.4 567.333 651.456 567.464 651.568C567.594 651.68 567.706 651.801 567.8 651.932L571.916 657.98L576.06 651.932C576.134 651.801 576.237 651.68 576.368 651.568C576.517 651.456 576.704 651.4 576.928 651.4H579.644C579.812 651.4 579.952 651.456 580.064 651.568C580.176 651.68 580.232 651.82 580.232 651.988C580.232 652.1 580.194 652.212 580.12 652.324L574.268 661.004L580.54 670.076C580.577 670.132 580.605 670.188 580.624 670.244C580.642 670.3 580.652 670.356 580.652 670.412C580.652 670.58 580.586 670.72 580.456 670.832C580.344 670.944 580.213 671 580.064 671H577.096C576.872 671 576.694 670.944 576.564 670.832C576.433 670.72 576.33 670.608 576.256 670.496L571.776 664.168L567.38 670.496C567.305 670.608 567.202 670.72 567.072 670.832C566.941 670.944 566.754 671 566.512 671H563.684ZM583.679 676.32C583.492 676.32 583.334 676.255 583.203 676.124C583.072 675.993 583.007 675.835 583.007 675.648V657.112C583.007 656.925 583.072 656.767 583.203 656.636C583.334 656.505 583.492 656.44 583.679 656.44H585.891C586.096 656.44 586.255 656.505 586.367 656.636C586.498 656.767 586.563 656.925 586.563 657.112V658.232C587.011 657.635 587.599 657.14 588.327 656.748C589.055 656.356 589.96 656.16 591.043 656.16C592.032 656.16 592.891 656.319 593.619 656.636C594.347 656.953 594.954 657.411 595.439 658.008C595.924 658.587 596.298 659.277 596.559 660.08C596.82 660.883 596.97 661.769 597.007 662.74C597.026 663.057 597.035 663.384 597.035 663.72C597.035 664.056 597.026 664.392 597.007 664.728C596.988 665.661 596.848 666.529 596.587 667.332C596.326 668.116 595.943 668.807 595.439 669.404C594.954 669.983 594.347 670.44 593.619 670.776C592.891 671.112 592.032 671.28 591.043 671.28C590.035 671.28 589.176 671.103 588.467 670.748C587.758 670.375 587.179 669.889 586.731 669.292V675.648C586.731 675.835 586.666 675.993 586.535 676.124C586.423 676.255 586.264 676.32 586.059 676.32H583.679ZM590.007 668.284C590.81 668.284 591.435 668.116 591.883 667.78C592.331 667.425 592.648 666.968 592.835 666.408C593.04 665.848 593.162 665.232 593.199 664.56C593.236 664 593.236 663.44 593.199 662.88C593.162 662.208 593.04 661.592 592.835 661.032C592.648 660.472 592.331 660.024 591.883 659.688C591.435 659.333 590.81 659.156 590.007 659.156C589.242 659.156 588.616 659.333 588.131 659.688C587.664 660.043 587.319 660.5 587.095 661.06C586.89 661.601 586.768 662.161 586.731 662.74C586.712 663.076 586.703 663.431 586.703 663.804C586.703 664.177 586.712 664.541 586.731 664.896C586.75 665.456 586.88 665.997 587.123 666.52C587.366 667.024 587.72 667.444 588.187 667.78C588.654 668.116 589.26 668.284 590.007 668.284ZM600.85 671C600.663 671 600.505 670.935 600.374 670.804C600.243 670.673 600.178 670.515 600.178 670.328V657.14C600.178 656.935 600.243 656.767 600.374 656.636C600.505 656.505 600.663 656.44 600.85 656.44H603.118C603.305 656.44 603.463 656.505 603.594 656.636C603.743 656.767 603.818 656.935 603.818 657.14V658.288C604.247 657.691 604.798 657.233 605.47 656.916C606.161 656.599 606.954 656.44 607.85 656.44H608.998C609.203 656.44 609.362 656.505 609.474 656.636C609.605 656.767 609.67 656.925 609.67 657.112V659.128C609.67 659.315 609.605 659.473 609.474 659.604C609.362 659.735 609.203 659.8 608.998 659.8H606.814C605.918 659.8 605.218 660.052 604.714 660.556C604.229 661.06 603.986 661.751 603.986 662.628V670.328C603.986 670.515 603.921 670.673 603.79 670.804C603.659 670.935 603.491 671 603.286 671H600.85ZM617.934 671.28C615.862 671.28 614.22 670.683 613.006 669.488C611.793 668.293 611.14 666.595 611.046 664.392C611.028 664.205 611.018 663.972 611.018 663.692C611.018 663.393 611.028 663.16 611.046 662.992C611.121 661.592 611.438 660.379 611.998 659.352C612.577 658.325 613.37 657.541 614.378 657C615.386 656.44 616.572 656.16 617.934 656.16C619.446 656.16 620.716 656.477 621.742 657.112C622.769 657.728 623.544 658.596 624.066 659.716C624.589 660.817 624.85 662.096 624.85 663.552V664.14C624.85 664.327 624.785 664.485 624.654 664.616C624.524 664.747 624.356 664.812 624.15 664.812H614.854C614.854 664.812 614.854 664.84 614.854 664.896C614.854 664.952 614.854 664.999 614.854 665.036C614.873 665.689 614.994 666.296 615.218 666.856C615.461 667.397 615.806 667.836 616.254 668.172C616.721 668.508 617.272 668.676 617.906 668.676C618.429 668.676 618.868 668.601 619.222 668.452C619.577 668.284 619.866 668.097 620.09 667.892C620.314 667.687 620.473 667.519 620.566 667.388C620.734 667.164 620.865 667.033 620.958 666.996C621.07 666.94 621.229 666.912 621.434 666.912H623.842C624.029 666.912 624.178 666.968 624.29 667.08C624.421 667.192 624.477 667.332 624.458 667.5C624.44 667.799 624.281 668.163 623.982 668.592C623.702 669.021 623.292 669.441 622.75 669.852C622.209 670.263 621.528 670.608 620.706 670.888C619.904 671.149 618.98 671.28 617.934 671.28ZM614.854 662.46H621.042V662.376C621.042 661.648 620.921 661.013 620.678 660.472C620.436 659.931 620.081 659.501 619.614 659.184C619.148 658.867 618.588 658.708 617.934 658.708C617.281 658.708 616.721 658.867 616.254 659.184C615.788 659.501 615.433 659.931 615.19 660.472C614.966 661.013 614.854 661.648 614.854 662.376V662.46ZM633.339 671.28C632.219 671.28 631.257 671.149 630.455 670.888C629.671 670.627 629.027 670.3 628.523 669.908C628.019 669.516 627.645 669.124 627.403 668.732C627.16 668.34 627.029 668.013 627.011 667.752C626.992 667.547 627.048 667.388 627.179 667.276C627.328 667.145 627.487 667.08 627.655 667.08H629.867C629.941 667.08 630.007 667.089 630.063 667.108C630.119 667.127 630.193 667.183 630.287 667.276C630.529 667.481 630.781 667.696 631.043 667.92C631.323 668.144 631.649 668.34 632.023 668.508C632.396 668.657 632.863 668.732 633.423 668.732C634.151 668.732 634.757 668.592 635.243 668.312C635.747 668.013 635.999 667.593 635.999 667.052C635.999 666.66 635.887 666.343 635.663 666.1C635.457 665.857 635.065 665.643 634.487 665.456C633.908 665.251 633.087 665.036 632.023 664.812C630.977 664.569 630.109 664.261 629.419 663.888C628.728 663.515 628.215 663.048 627.879 662.488C627.543 661.928 627.375 661.275 627.375 660.528C627.375 659.8 627.589 659.109 628.019 658.456C628.467 657.784 629.12 657.233 629.979 656.804C630.856 656.375 631.939 656.16 633.227 656.16C634.235 656.16 635.112 656.291 635.859 656.552C636.605 656.795 637.221 657.103 637.707 657.476C638.211 657.849 638.593 658.232 638.855 658.624C639.116 658.997 639.256 659.324 639.275 659.604C639.293 659.809 639.237 659.977 639.107 660.108C638.976 660.22 638.827 660.276 638.659 660.276H636.587C636.493 660.276 636.409 660.257 636.335 660.22C636.26 660.183 636.185 660.136 636.111 660.08C635.905 659.893 635.681 659.697 635.439 659.492C635.196 659.287 634.897 659.109 634.543 658.96C634.207 658.792 633.759 658.708 633.199 658.708C632.489 658.708 631.948 658.867 631.575 659.184C631.201 659.483 631.015 659.865 631.015 660.332C631.015 660.649 631.099 660.929 631.267 661.172C631.453 661.396 631.817 661.611 632.359 661.816C632.9 662.021 633.721 662.236 634.823 662.46C636.073 662.684 637.063 663.02 637.791 663.468C638.537 663.897 639.06 664.401 639.359 664.98C639.676 665.54 639.835 666.165 639.835 666.856C639.835 667.696 639.583 668.452 639.079 669.124C638.593 669.796 637.865 670.328 636.895 670.72C635.943 671.093 634.757 671.28 633.339 671.28ZM648.241 671.28C647.121 671.28 646.16 671.149 645.357 670.888C644.573 670.627 643.929 670.3 643.425 669.908C642.921 669.516 642.548 669.124 642.305 668.732C642.062 668.34 641.932 668.013 641.913 667.752C641.894 667.547 641.95 667.388 642.081 667.276C642.23 667.145 642.389 667.08 642.557 667.08H644.769C644.844 667.08 644.909 667.089 644.965 667.108C645.021 667.127 645.096 667.183 645.189 667.276C645.432 667.481 645.684 667.696 645.945 667.92C646.225 668.144 646.552 668.34 646.925 668.508C647.298 668.657 647.765 668.732 648.325 668.732C649.053 668.732 649.66 668.592 650.145 668.312C650.649 668.013 650.901 667.593 650.901 667.052C650.901 666.66 650.789 666.343 650.565 666.1C650.36 665.857 649.968 665.643 649.389 665.456C648.81 665.251 647.989 665.036 646.925 664.812C645.88 664.569 645.012 664.261 644.321 663.888C643.63 663.515 643.117 663.048 642.781 662.488C642.445 661.928 642.277 661.275 642.277 660.528C642.277 659.8 642.492 659.109 642.921 658.456C643.369 657.784 644.022 657.233 644.881 656.804C645.758 656.375 646.841 656.16 648.129 656.16C649.137 656.16 650.014 656.291 650.761 656.552C651.508 656.795 652.124 657.103 652.609 657.476C653.113 657.849 653.496 658.232 653.757 658.624C654.018 658.997 654.158 659.324 654.177 659.604C654.196 659.809 654.14 659.977 654.009 660.108C653.878 660.22 653.729 660.276 653.561 660.276H651.489C651.396 660.276 651.312 660.257 651.237 660.22C651.162 660.183 651.088 660.136 651.013 660.08C650.808 659.893 650.584 659.697 650.341 659.492C650.098 659.287 649.8 659.109 649.445 658.96C649.109 658.792 648.661 658.708 648.101 658.708C647.392 658.708 646.85 658.867 646.477 659.184C646.104 659.483 645.917 659.865 645.917 660.332C645.917 660.649 646.001 660.929 646.169 661.172C646.356 661.396 646.72 661.611 647.261 661.816C647.802 662.021 648.624 662.236 649.725 662.46C650.976 662.684 651.965 663.02 652.693 663.468C653.44 663.897 653.962 664.401 654.261 664.98C654.578 665.54 654.737 666.165 654.737 666.856C654.737 667.696 654.485 668.452 653.981 669.124C653.496 669.796 652.768 670.328 651.797 670.72C650.845 671.093 649.66 671.28 648.241 671.28ZM665.579 671.28C663.862 671.28 662.397 670.981 661.183 670.384C659.989 669.787 659.055 668.928 658.383 667.808C657.73 666.669 657.375 665.316 657.319 663.748C657.301 662.945 657.291 662.087 657.291 661.172C657.291 660.239 657.301 659.361 657.319 658.54C657.375 656.991 657.73 655.665 658.383 654.564C659.055 653.463 659.998 652.613 661.211 652.016C662.443 651.419 663.899 651.12 665.579 651.12C666.942 651.12 668.137 651.307 669.163 651.68C670.19 652.035 671.039 652.501 671.711 653.08C672.402 653.64 672.915 654.247 673.251 654.9C673.606 655.553 673.793 656.16 673.811 656.72C673.83 656.888 673.783 657.028 673.671 657.14C673.559 657.252 673.41 657.308 673.223 657.308H670.339C670.153 657.308 670.013 657.271 669.919 657.196C669.826 657.121 669.742 657.009 669.667 656.86C669.518 656.468 669.285 656.085 668.967 655.712C668.65 655.32 668.221 654.993 667.679 654.732C667.138 654.471 666.438 654.34 665.579 654.34C664.31 654.34 663.293 654.676 662.527 655.348C661.781 656.02 661.379 657.131 661.323 658.68C661.267 660.304 661.267 661.947 661.323 663.608C661.379 665.195 661.79 666.333 662.555 667.024C663.339 667.715 664.366 668.06 665.635 668.06C666.475 668.06 667.222 667.911 667.875 667.612C668.547 667.313 669.07 666.847 669.443 666.212C669.835 665.577 670.031 664.765 670.031 663.776V662.908H666.615C666.429 662.908 666.27 662.843 666.139 662.712C666.009 662.581 665.943 662.413 665.943 662.208V660.724C665.943 660.519 666.009 660.351 666.139 660.22C666.27 660.089 666.429 660.024 666.615 660.024H673.307C673.513 660.024 673.671 660.089 673.783 660.22C673.914 660.351 673.979 660.519 673.979 660.724V663.664C673.979 665.232 673.634 666.585 672.943 667.724C672.271 668.863 671.301 669.74 670.031 670.356C668.781 670.972 667.297 671.28 665.579 671.28ZM681.461 671.28C680.49 671.28 679.613 671.093 678.829 670.72C678.045 670.328 677.419 669.815 676.953 669.18C676.505 668.527 676.281 667.799 676.281 666.996C676.281 665.689 676.803 664.653 677.849 663.888C678.913 663.104 680.313 662.581 682.049 662.32L685.885 661.76V661.172C685.885 660.388 685.689 659.781 685.297 659.352C684.905 658.923 684.233 658.708 683.281 658.708C682.609 658.708 682.058 658.848 681.629 659.128C681.218 659.389 680.91 659.744 680.705 660.192C680.555 660.435 680.341 660.556 680.061 660.556H677.849C677.643 660.556 677.485 660.5 677.373 660.388C677.279 660.276 677.233 660.127 677.233 659.94C677.251 659.641 677.373 659.277 677.597 658.848C677.821 658.419 678.175 658.008 678.661 657.616C679.146 657.205 679.771 656.86 680.537 656.58C681.302 656.3 682.226 656.16 683.309 656.16C684.485 656.16 685.474 656.309 686.277 656.608C687.098 656.888 687.751 657.271 688.237 657.756C688.722 658.241 689.077 658.811 689.301 659.464C689.525 660.117 689.637 660.808 689.637 661.536V670.328C689.637 670.515 689.571 670.673 689.441 670.804C689.31 670.935 689.151 671 688.965 671H686.697C686.491 671 686.323 670.935 686.193 670.804C686.081 670.673 686.025 670.515 686.025 670.328V669.236C685.782 669.591 685.455 669.927 685.045 670.244C684.634 670.543 684.13 670.795 683.533 671C682.954 671.187 682.263 671.28 681.461 671.28ZM682.413 668.62C683.066 668.62 683.654 668.48 684.177 668.2C684.718 667.92 685.138 667.491 685.437 666.912C685.754 666.315 685.913 665.568 685.913 664.672V664.084L683.113 664.532C682.011 664.7 681.19 664.971 680.649 665.344C680.107 665.717 679.837 666.175 679.837 666.716C679.837 667.127 679.958 667.481 680.201 667.78C680.462 668.06 680.789 668.275 681.181 668.424C681.573 668.555 681.983 668.62 682.413 668.62ZM699.672 671C698.552 671 697.609 670.804 696.844 670.412C696.079 670.02 695.509 669.441 695.136 668.676C694.763 667.892 694.576 666.921 694.576 665.764V659.408H692.364C692.177 659.408 692.019 659.343 691.888 659.212C691.757 659.081 691.692 658.923 691.692 658.736V657.112C691.692 656.925 691.757 656.767 691.888 656.636C692.019 656.505 692.177 656.44 692.364 656.44H694.576V651.792C694.576 651.605 694.632 651.447 694.744 651.316C694.875 651.185 695.043 651.12 695.248 651.12H697.516C697.703 651.12 697.861 651.185 697.992 651.316C698.123 651.447 698.188 651.605 698.188 651.792V656.44H701.688C701.875 656.44 702.033 656.505 702.164 656.636C702.295 656.767 702.36 656.925 702.36 657.112V658.736C702.36 658.923 702.295 659.081 702.164 659.212C702.033 659.343 701.875 659.408 701.688 659.408H698.188V665.484C698.188 666.249 698.319 666.847 698.58 667.276C698.86 667.705 699.336 667.92 700.008 667.92H701.94C702.127 667.92 702.285 667.985 702.416 668.116C702.547 668.247 702.612 668.405 702.612 668.592V670.328C702.612 670.515 702.547 670.673 702.416 670.804C702.285 670.935 702.127 671 701.94 671H699.672ZM711.368 671.28C709.296 671.28 707.653 670.683 706.44 669.488C705.227 668.293 704.573 666.595 704.48 664.392C704.461 664.205 704.452 663.972 704.452 663.692C704.452 663.393 704.461 663.16 704.48 662.992C704.555 661.592 704.872 660.379 705.432 659.352C706.011 658.325 706.804 657.541 707.812 657C708.82 656.44 710.005 656.16 711.368 656.16C712.88 656.16 714.149 656.477 715.176 657.112C716.203 657.728 716.977 658.596 717.5 659.716C718.023 660.817 718.284 662.096 718.284 663.552V664.14C718.284 664.327 718.219 664.485 718.088 664.616C717.957 664.747 717.789 664.812 717.584 664.812H708.288C708.288 664.812 708.288 664.84 708.288 664.896C708.288 664.952 708.288 664.999 708.288 665.036C708.307 665.689 708.428 666.296 708.652 666.856C708.895 667.397 709.24 667.836 709.688 668.172C710.155 668.508 710.705 668.676 711.34 668.676C711.863 668.676 712.301 668.601 712.656 668.452C713.011 668.284 713.3 668.097 713.524 667.892C713.748 667.687 713.907 667.519 714 667.388C714.168 667.164 714.299 667.033 714.392 666.996C714.504 666.94 714.663 666.912 714.868 666.912H717.276C717.463 666.912 717.612 666.968 717.724 667.08C717.855 667.192 717.911 667.332 717.892 667.5C717.873 667.799 717.715 668.163 717.416 668.592C717.136 669.021 716.725 669.441 716.184 669.852C715.643 670.263 714.961 670.608 714.14 670.888C713.337 671.149 712.413 671.28 711.368 671.28ZM708.288 662.46H714.476V662.376C714.476 661.648 714.355 661.013 714.112 660.472C713.869 659.931 713.515 659.501 713.048 659.184C712.581 658.867 712.021 658.708 711.368 658.708C710.715 658.708 710.155 658.867 709.688 659.184C709.221 659.501 708.867 659.931 708.624 660.472C708.4 661.013 708.288 661.648 708.288 662.376V662.46ZM599.265 704.28C597.529 704.28 596.073 704.028 594.897 703.524C593.74 703.001 592.853 702.329 592.237 701.508C591.64 700.668 591.323 699.791 591.285 698.876C591.285 698.708 591.341 698.568 591.453 698.456C591.565 698.344 591.705 698.288 591.873 698.288H594.365C594.608 698.288 594.785 698.344 594.897 698.456C595.028 698.549 595.14 698.671 595.233 698.82C595.345 699.175 595.56 699.529 595.877 699.884C596.195 700.22 596.624 700.5 597.165 700.724C597.725 700.948 598.425 701.06 599.265 701.06C600.609 701.06 601.608 700.836 602.261 700.388C602.933 699.94 603.269 699.333 603.269 698.568C603.269 698.027 603.092 697.597 602.737 697.28C602.383 696.944 601.832 696.645 601.085 696.384C600.357 696.104 599.387 695.815 598.173 695.516C596.773 695.18 595.597 694.779 594.645 694.312C593.712 693.827 593.003 693.22 592.517 692.492C592.051 691.764 591.817 690.84 591.817 689.72C591.817 688.637 592.107 687.676 592.685 686.836C593.283 685.996 594.123 685.333 595.205 684.848C596.307 684.363 597.613 684.12 599.125 684.12C600.339 684.12 601.412 684.288 602.345 684.624C603.279 684.941 604.053 685.371 604.669 685.912C605.285 686.435 605.752 687.004 606.069 687.62C606.405 688.217 606.583 688.805 606.601 689.384C606.601 689.533 606.545 689.673 606.433 689.804C606.34 689.916 606.2 689.972 606.013 689.972H603.409C603.26 689.972 603.111 689.935 602.961 689.86C602.812 689.785 602.691 689.645 602.597 689.44C602.485 688.861 602.121 688.367 601.505 687.956C600.889 687.545 600.096 687.34 599.125 687.34C598.117 687.34 597.305 687.527 596.689 687.9C596.073 688.273 595.765 688.852 595.765 689.636C595.765 690.159 595.915 690.597 596.213 690.952C596.531 691.288 597.025 691.587 597.697 691.848C598.388 692.109 599.293 692.389 600.413 692.688C602 693.043 603.297 693.453 604.305 693.92C605.313 694.387 606.051 694.984 606.517 695.712C606.984 696.421 607.217 697.327 607.217 698.428C607.217 699.66 606.881 700.715 606.209 701.592C605.556 702.451 604.632 703.113 603.437 703.58C602.243 704.047 600.852 704.28 599.265 704.28ZM616.53 704.28C615.037 704.28 613.777 704.019 612.75 703.496C611.742 702.973 610.968 702.236 610.426 701.284C609.904 700.332 609.605 699.221 609.53 697.952C609.512 697.616 609.502 697.205 609.502 696.72C609.502 696.235 609.512 695.824 609.53 695.488C609.605 694.2 609.913 693.089 610.454 692.156C611.014 691.204 611.798 690.467 612.806 689.944C613.833 689.421 615.074 689.16 616.53 689.16C617.986 689.16 619.218 689.421 620.226 689.944C621.253 690.467 622.037 691.204 622.578 692.156C623.138 693.089 623.456 694.2 623.53 695.488C623.549 695.824 623.558 696.235 623.558 696.72C623.558 697.205 623.549 697.616 623.53 697.952C623.456 699.221 623.148 700.332 622.606 701.284C622.084 702.236 621.309 702.973 620.282 703.496C619.274 704.019 618.024 704.28 616.53 704.28ZM616.53 701.508C617.52 701.508 618.285 701.2 618.826 700.584C619.368 699.949 619.666 699.025 619.722 697.812C619.741 697.532 619.75 697.168 619.75 696.72C619.75 696.272 619.741 695.908 619.722 695.628C619.666 694.433 619.368 693.519 618.826 692.884C618.285 692.249 617.52 691.932 616.53 691.932C615.541 691.932 614.776 692.249 614.234 692.884C613.693 693.519 613.394 694.433 613.338 695.628C613.32 695.908 613.31 696.272 613.31 696.72C613.31 697.168 613.32 697.532 613.338 697.812C613.394 699.025 613.693 699.949 614.234 700.584C614.776 701.2 615.541 701.508 616.53 701.508ZM632.961 704.28C631.617 704.28 630.431 704.028 629.405 703.524C628.397 703.02 627.603 702.292 627.025 701.34C626.465 700.369 626.157 699.203 626.101 697.84C626.082 697.56 626.073 697.196 626.073 696.748C626.073 696.281 626.082 695.899 626.101 695.6C626.157 694.237 626.465 693.08 627.025 692.128C627.603 691.157 628.397 690.42 629.405 689.916C630.431 689.412 631.617 689.16 632.961 689.16C634.155 689.16 635.173 689.328 636.013 689.664C636.853 690 637.543 690.42 638.085 690.924C638.626 691.428 639.027 691.96 639.289 692.52C639.569 693.061 639.718 693.556 639.737 694.004C639.755 694.209 639.69 694.377 639.541 694.508C639.41 694.62 639.251 694.676 639.065 694.676H636.601C636.414 694.676 636.265 694.629 636.153 694.536C636.059 694.443 635.966 694.303 635.873 694.116C635.593 693.369 635.219 692.847 634.753 692.548C634.305 692.231 633.726 692.072 633.017 692.072C632.083 692.072 631.337 692.371 630.777 692.968C630.235 693.547 629.946 694.471 629.909 695.74C629.871 696.449 629.871 697.103 629.909 697.7C629.946 698.988 630.235 699.921 630.777 700.5C631.337 701.079 632.083 701.368 633.017 701.368C633.745 701.368 634.333 701.219 634.781 700.92C635.229 700.603 635.593 700.071 635.873 699.324C635.966 699.137 636.059 698.997 636.153 698.904C636.265 698.811 636.414 698.764 636.601 698.764H639.065C639.251 698.764 639.41 698.829 639.541 698.96C639.69 699.072 639.755 699.231 639.737 699.436C639.718 699.772 639.625 700.155 639.457 700.584C639.307 700.995 639.055 701.424 638.701 701.872C638.365 702.301 637.935 702.703 637.413 703.076C636.89 703.431 636.255 703.72 635.509 703.944C634.781 704.168 633.931 704.28 632.961 704.28ZM643.329 704C643.142 704 642.983 703.935 642.853 703.804C642.722 703.673 642.657 703.515 642.657 703.328V690.112C642.657 689.925 642.722 689.767 642.853 689.636C642.983 689.505 643.142 689.44 643.329 689.44H645.653C645.858 689.44 646.017 689.505 646.129 689.636C646.259 689.767 646.325 689.925 646.325 690.112V703.328C646.325 703.515 646.259 703.673 646.129 703.804C646.017 703.935 645.858 704 645.653 704H643.329ZM643.217 687.032C643.011 687.032 642.843 686.976 642.713 686.864C642.601 686.733 642.545 686.565 642.545 686.36V684.344C642.545 684.157 642.601 683.999 642.713 683.868C642.843 683.737 643.011 683.672 643.217 683.672H645.765C645.97 683.672 646.138 683.737 646.269 683.868C646.399 683.999 646.465 684.157 646.465 684.344V686.36C646.465 686.565 646.399 686.733 646.269 686.864C646.138 686.976 645.97 687.032 645.765 687.032H643.217ZM656.393 704.28C654.321 704.28 652.679 703.683 651.465 702.488C650.252 701.293 649.599 699.595 649.505 697.392C649.487 697.205 649.477 696.972 649.477 696.692C649.477 696.393 649.487 696.16 649.505 695.992C649.58 694.592 649.897 693.379 650.457 692.352C651.036 691.325 651.829 690.541 652.837 690C653.845 689.44 655.031 689.16 656.393 689.16C657.905 689.16 659.175 689.477 660.201 690.112C661.228 690.728 662.003 691.596 662.525 692.716C663.048 693.817 663.309 695.096 663.309 696.552V697.14C663.309 697.327 663.244 697.485 663.113 697.616C662.983 697.747 662.815 697.812 662.609 697.812H653.313C653.313 697.812 653.313 697.84 653.313 697.896C653.313 697.952 653.313 697.999 653.313 698.036C653.332 698.689 653.453 699.296 653.677 699.856C653.92 700.397 654.265 700.836 654.713 701.172C655.18 701.508 655.731 701.676 656.365 701.676C656.888 701.676 657.327 701.601 657.681 701.452C658.036 701.284 658.325 701.097 658.549 700.892C658.773 700.687 658.932 700.519 659.025 700.388C659.193 700.164 659.324 700.033 659.417 699.996C659.529 699.94 659.688 699.912 659.893 699.912H662.301C662.488 699.912 662.637 699.968 662.749 700.08C662.88 700.192 662.936 700.332 662.917 700.5C662.899 700.799 662.74 701.163 662.441 701.592C662.161 702.021 661.751 702.441 661.209 702.852C660.668 703.263 659.987 703.608 659.165 703.888C658.363 704.149 657.439 704.28 656.393 704.28ZM653.313 695.46H659.501V695.376C659.501 694.648 659.38 694.013 659.137 693.472C658.895 692.931 658.54 692.501 658.073 692.184C657.607 691.867 657.047 691.708 656.393 691.708C655.74 691.708 655.18 691.867 654.713 692.184C654.247 692.501 653.892 692.931 653.649 693.472C653.425 694.013 653.313 694.648 653.313 695.376V695.46ZM672.807 704C671.687 704 670.744 703.804 669.979 703.412C669.214 703.02 668.644 702.441 668.271 701.676C667.898 700.892 667.711 699.921 667.711 698.764V692.408H665.499C665.312 692.408 665.154 692.343 665.023 692.212C664.892 692.081 664.827 691.923 664.827 691.736V690.112C664.827 689.925 664.892 689.767 665.023 689.636C665.154 689.505 665.312 689.44 665.499 689.44H667.711V684.792C667.711 684.605 667.767 684.447 667.879 684.316C668.01 684.185 668.178 684.12 668.383 684.12H670.651C670.838 684.12 670.996 684.185 671.127 684.316C671.258 684.447 671.323 684.605 671.323 684.792V689.44H674.823C675.01 689.44 675.168 689.505 675.299 689.636C675.43 689.767 675.495 689.925 675.495 690.112V691.736C675.495 691.923 675.43 692.081 675.299 692.212C675.168 692.343 675.01 692.408 674.823 692.408H671.323V698.484C671.323 699.249 671.454 699.847 671.715 700.276C671.995 700.705 672.471 700.92 673.143 700.92H675.075C675.262 700.92 675.42 700.985 675.551 701.116C675.682 701.247 675.747 701.405 675.747 701.592V703.328C675.747 703.515 675.682 703.673 675.551 703.804C675.42 703.935 675.262 704 675.075 704H672.807ZM680.863 709.32C680.713 709.32 680.583 709.264 680.471 709.152C680.359 709.04 680.303 708.909 680.303 708.76C680.303 708.685 680.303 708.611 680.303 708.536C680.321 708.48 680.359 708.405 680.415 708.312L682.599 703.132L677.223 690.448C677.148 690.261 677.111 690.131 677.111 690.056C677.129 689.888 677.195 689.748 677.307 689.636C677.419 689.505 677.559 689.44 677.727 689.44H679.995C680.219 689.44 680.387 689.496 680.499 689.608C680.611 689.72 680.695 689.841 680.751 689.972L684.475 699.128L688.311 689.972C688.367 689.823 688.451 689.701 688.563 689.608C688.675 689.496 688.843 689.44 689.067 689.44H691.307C691.456 689.44 691.587 689.496 691.699 689.608C691.829 689.72 691.895 689.851 691.895 690C691.895 690.112 691.857 690.261 691.783 690.448L683.859 708.788C683.784 708.937 683.691 709.059 683.579 709.152C683.467 709.264 683.299 709.32 683.075 709.32H680.863Z" fill="#060606"/>
<path d="M127.702 168.479H42.8725V88.3226" stroke="#0A8996" stroke-width="3" stroke-linecap="round" stroke-linejoin="round"/>
<path d="M138.499 86.7811H40.6052L93.6931 39.2574L139.794 80.5227" stroke="#0A8996" stroke-width="3" stroke-linecap="round" stroke-linejoin="round"/>
<path d="M112.279 109.903H75.262V143.816H112.279V109.903Z" stroke="#0A8996" stroke-width="3" stroke-linecap="round" stroke-linejoin="round"/>
<path d="M93.7703 109.903V142.274" stroke="#0A8996" stroke-width="3" stroke-linecap="round" stroke-linejoin="round"/>
<path d="M96.855 126.859H109.194" stroke="#0A8996" stroke-width="3" stroke-linecap="round" stroke-linejoin="round"/>
<path d="M140.041 202.392L140.396 77.0543C140.396 73.0619 143.635 69.8248 147.629 69.8248H287.043C291.038 69.8248 294.277 73.0619 294.277 77.0543V211.641" stroke="#14335D" stroke-width="3" stroke-linecap="round" stroke-linejoin="round"/>
<path d="M271.141 91.4055H161.634V125.318H271.141V91.4055Z" stroke="#0A8996" stroke-width="3" stroke-linecap="round" stroke-linejoin="round"/>
<path d="M106.109 273.3H2.77118V270.633V2H217.159V65.2005" stroke="#14335D" stroke-width="3" stroke-linecap="round" stroke-linejoin="round"/>
<path d="M186.312 148.44H163.176V171.562H186.312V148.44Z" stroke="#14335D" stroke-width="3" stroke-linecap="round" stroke-linejoin="round"/>
<path d="M227.955 148.44H204.82V171.562H227.955V148.44Z" stroke="#14335D" stroke-width="3" stroke-linecap="round" stroke-linejoin="round"/>
<path d="M271.141 148.44H248.006V171.562H271.141V148.44Z" stroke="#14335D" stroke-width="3" stroke-linecap="round" stroke-linejoin="round"/>
<path d="M81.4314 196.226H110.736" stroke="#14335D" stroke-width="3" stroke-linecap="round" stroke-linejoin="round"/>
<path d="M44.4148 196.226H59.8384" stroke="#14335D" stroke-width="3" stroke-linecap="round" stroke-linejoin="round"/>
<path d="M81.4314 225.514H110.736" stroke="#14335D" stroke-width="3" stroke-linecap="round" stroke-linejoin="round"/>
<path d="M44.4148 225.514H59.8384" stroke="#14335D" stroke-width="3" stroke-linecap="round" stroke-linejoin="round"/>
<path d="M59.8384 381.203V402.783" stroke="#14335D" stroke-width="3" stroke-linecap="round" stroke-linejoin="round"/>
<path d="M59.8384 428.988V452.111" stroke="#14335D" stroke-width="3" stroke-linecap="round" stroke-linejoin="round"/>
<path d="M24.3642 416.657H45.9572" stroke="#14335D" stroke-width="3" stroke-linecap="round" stroke-linejoin="round"/>
<path d="M73.7196 416.657H95.3126" stroke="#14335D" stroke-width="3" stroke-linecap="round" stroke-linejoin="round"/>
<path d="M424.806 410.244L529.933 506.833H311.304L424.806 410.244Z" fill="#0A8996"/>
<path d="M205.591 534.533V577.17L187.993 664.063H267.316L237.981 568.461V542.487L215.231 532.637L205.591 534.533Z" fill="#0A8996"/>
<path d="M126.838 481.506L117.723 558.904L208.815 531.589" stroke="black" stroke-width="4" stroke-linecap="round" stroke-linejoin="round"/>
<path d="M213.38 531.589L299.922 561.817" stroke="black" stroke-width="4" stroke-linecap="round" stroke-linejoin="round"/>
<path d="M227.184 540.745V568.492H194.795V540.745" stroke="black" stroke-width="4" stroke-linecap="round" stroke-linejoin="round"/>
<path d="M227.03 568.492H195.165L176.95 664.063H245.245L227.03 568.492Z" stroke="black" stroke-width="4" stroke-linecap="round" stroke-linejoin="round"/>
<path d="M102.253 616.278V664.063" stroke="black" stroke-width="4" stroke-linecap="round" stroke-linejoin="round"/>
<path d="M265.743 437.467V472.057C265.743 499.218 243.734 524.622 216.681 527.35C183.89 530.664 156.236 505.014 156.236 472.92V437.467" stroke="black" stroke-width="4" stroke-linecap="round" stroke-linejoin="round"/>
<path d="M312.014 665.605H2V592.03C2 538.449 41.4381 493.021 94.526 485.468L124.988 478.963L129.538 474.416L152.318 469.868" stroke="black" stroke-width="4" stroke-linecap="round" stroke-linejoin="round"/>
<path d="M270.308 470.13L293.089 474.678L297.639 479.24L312.338 482.37" stroke="black" stroke-width="4" stroke-linecap="round" stroke-linejoin="round"/>
<path d="M507.893 497.584V665.605H312.014V497.584" stroke="black" stroke-width="4" stroke-linecap="round" stroke-linejoin="round"/>
<path d="M413.424 400.995L518.551 497.584H299.922L413.424 400.995Z" stroke="black" stroke-width="4" stroke-linecap="round" stroke-linejoin="round"/>
<path d="M461.622 554.619H379.878V627.068H461.622V554.619Z" fill="#14335D"/>
<path d="M450.826 545.37H369.081V617.819H450.826V545.37Z" stroke="black" stroke-width="4" stroke-linecap="round" stroke-linejoin="round"/>
<path d="M409.182 549.994V613.195" stroke="black" stroke-width="4" stroke-linecap="round" stroke-linejoin="round"/>
<path d="M413.809 582.365H446.199" stroke="black" stroke-width="4" stroke-linecap="round" stroke-linejoin="round"/>
<path d="M517.918 584.677H584.24" stroke="#14335D" stroke-width="3" stroke-linecap="round" stroke-linejoin="round"/>
<path d="M599.663 381.203V447.486" stroke="#14335D" stroke-width="3" stroke-linecap="round" stroke-linejoin="round"/>
<path d="M391.445 351.915H479.36" stroke="#14335D" stroke-width="3" stroke-linecap="round" stroke-linejoin="round"/>
<path d="M406.869 371.954H370.947C370.947 359.668 381.358 349.156 394.422 352.331C403.676 354.582 409.953 363.198 409.953 372.709V395.076" stroke="#14335D" stroke-width="3" stroke-linecap="round" stroke-linejoin="round"/>
<path d="M559.562 85.2396H598.337C602.471 85.2396 605.833 88.6 605.833 92.7312V202.392" stroke="#14335D" stroke-width="3" stroke-linecap="round" stroke-linejoin="round"/>
<path d="M300.446 85.2396H332.836" stroke="#14335D" stroke-width="3" stroke-linecap="round" stroke-linejoin="round"/>
<path d="M457.767 308.753H422.292V299.505H320.497" stroke="#14335D" stroke-width="3" stroke-linecap="round" stroke-linejoin="round"/>
<path d="M450.055 282.548H320.497" stroke="#14335D" stroke-width="3" stroke-linecap="round" stroke-linejoin="round"/>
<path d="M334.378 279.465V15.8733H558.02V183.894" stroke="#14335D" stroke-width="3" stroke-linecap="round" stroke-linejoin="round"/>
<path d="M493.241 170.021V102.196H502.634L443.114 61.7938L383.595 102.196H392.988V170.021" stroke="#0A8996" stroke-width="3" stroke-linecap="round" stroke-linejoin="round"/>
<path d="M451.597 170.021V123.776H473.19V170.021" stroke="#0A8996" stroke-width="3" stroke-linecap="round" stroke-linejoin="round"/>
<path d="M433.089 123.776H411.496V145.357H433.089V123.776Z" stroke="#0A8996" stroke-width="3" stroke-linecap="round" stroke-linejoin="round"/>
<path d="M389.903 102.196H491.698" stroke="#0A8996" stroke-width="3" stroke-linecap="round" stroke-linejoin="round"/>
<path d="M383.733 173.104H502.495" stroke="#0A8996" stroke-width="3" stroke-linecap="round" stroke-linejoin="round"/>
<path d="M500.706 303.867C499.996 303.867 499.41 303.62 498.947 303.142C498.485 302.665 498.253 302.063 498.253 301.354V268.629C498.253 267.889 498.485 267.288 498.947 266.81C499.41 266.347 499.996 266.101 500.706 266.101C501.477 266.101 502.125 266.409 502.634 267.026L523.718 295.065V268.629C523.718 267.889 523.965 267.288 524.443 266.81C524.921 266.347 525.522 266.101 526.232 266.101C526.941 266.101 527.574 266.332 528.021 266.81C528.468 267.272 528.7 267.889 528.7 268.629V301.354C528.7 302.063 528.468 302.665 528.021 303.142C527.574 303.62 526.972 303.867 526.232 303.867C525.908 303.867 525.569 303.79 525.198 303.651C524.828 303.512 524.535 303.281 524.304 303.004L503.22 274.964V301.354C503.22 302.063 502.988 302.665 502.51 303.142C502.048 303.62 501.431 303.867 500.69 303.867H500.706Z" fill="#0A8996"/>
<path d="M539.928 303.867C539.218 303.867 538.617 303.62 538.139 303.142C537.661 302.665 537.414 302.063 537.414 301.354V268.629C537.414 267.889 537.661 267.288 538.139 266.81C538.617 266.347 539.218 266.101 539.928 266.101H561.783C562.523 266.101 563.125 266.317 563.572 266.748C564.02 267.18 564.251 267.75 564.251 268.459C564.251 269.168 564.02 269.677 563.572 270.109C563.125 270.525 562.523 270.741 561.783 270.741H542.442V282.487H556.323C557.064 282.487 557.665 282.703 558.112 283.134C558.56 283.566 558.791 284.121 558.791 284.799C558.791 285.477 558.56 286.032 558.112 286.464C557.665 286.895 557.064 287.111 556.323 287.111H542.442V299.196H561.783C562.523 299.196 563.125 299.412 563.572 299.828C564.02 300.244 564.251 300.799 564.251 301.478C564.251 302.156 564.02 302.757 563.572 303.189C563.125 303.62 562.523 303.836 561.783 303.836H539.928V303.867Z" fill="#0A8996"/>
<path d="M578.317 303.867C577.731 303.867 577.222 303.697 576.775 303.343C576.328 302.988 576.004 302.51 575.803 301.894L566.086 269.6C565.762 268.536 565.793 267.689 566.163 267.057C566.534 266.425 567.135 266.116 567.983 266.116C568.523 266.116 569.032 266.27 569.479 266.579C569.927 266.887 570.251 267.365 570.451 268.012L578.919 297.501H577.854L585.69 268.305C585.813 267.827 586.106 267.426 586.553 267.103C587.001 266.779 587.525 266.625 588.096 266.625C588.605 266.625 589.098 266.764 589.576 267.041C590.039 267.319 590.348 267.719 590.471 268.274L598.352 297.516H597.381L605.895 267.796C606.218 266.702 607.036 266.147 608.362 266.147C609.257 266.147 609.843 266.502 610.105 267.18C610.367 267.873 610.367 268.69 610.105 269.615L600.388 301.848C600.157 302.464 599.833 302.957 599.401 303.327C598.969 303.697 598.46 303.882 597.874 303.882C597.257 303.882 596.733 303.697 596.301 303.297C595.869 302.896 595.545 302.449 595.36 301.894L587.571 271.835H588.728L580.847 301.848C580.615 302.464 580.291 302.957 579.86 303.327C579.428 303.697 578.919 303.882 578.333 303.882L578.317 303.867Z" fill="#0A8996"/>
</svg>
