<svg width="132" height="132" viewBox="0 0 132 132" fill="none" xmlns="http://www.w3.org/2000/svg">
<path d="M108.581 70.2579C101.683 64.7437 93.1244 61.7418 84.3102 61.7418H68.1295C67.5334 61.7418 66.9799 61.9973 66.5753 62.4018L63.5734 59.3999L64.4463 58.527C66.7457 56.2063 67.427 52.7573 66.1708 49.7554C66.1495 49.7128 66.1282 49.6915 66.1282 49.6489C64.8934 46.6683 61.9766 44.7095 58.7192 44.7095H57.4844V43.3683V31.9354H58.7192C61.9766 31.9354 64.8934 29.9766 66.1282 26.996C66.1282 26.9534 66.1495 26.9321 66.1708 26.8896C67.427 23.8876 66.7457 20.4386 64.4463 18.1179L63.5734 17.245L72.6005 8.21794L73.4734 9.09084C75.794 11.3902 79.2431 12.0715 82.245 10.8154C82.2876 10.7941 82.3089 10.7728 82.3515 10.7728C85.3321 9.53794 87.2908 6.62116 87.2908 3.36374V2.12891H100.065V3.36374C100.065 6.62116 102.024 9.53794 105.004 10.7728C105.047 10.7728 105.068 10.7941 105.111 10.8154C108.113 12.0715 111.562 11.3902 113.882 9.09084L114.755 8.21794L123.782 17.245L122.91 18.1179C120.61 20.4386 119.929 23.8876 121.185 26.8896C121.206 26.9321 121.228 26.9534 121.228 26.996C122.462 29.9766 125.379 31.9354 128.637 31.9354H129.871V44.7095H128.637C125.379 44.7095 122.462 46.6683 121.228 49.6489C121.228 49.6915 121.206 49.7128 121.185 49.7554C119.929 52.7573 120.61 56.2063 122.91 58.527L123.782 59.3999L117.182 65.9999H110.71C109.539 65.9999 108.581 66.9579 108.581 68.1289V70.2579ZM74.5166 38.3225C74.5166 48.9037 83.0966 57.4837 93.6779 57.4837C104.259 57.4837 112.839 48.9037 112.839 38.3225C112.839 27.7412 104.259 19.1612 93.6779 19.1612C83.0966 19.1612 74.5166 27.7412 74.5166 38.3225Z" fill="#6B83A5"/>
<path d="M93.6769 19.1611C104.258 19.1611 112.838 27.7411 112.838 38.3224C112.838 48.9037 104.258 57.4837 93.6769 57.4837C83.0956 57.4837 74.5156 48.9037 74.5156 38.3224C74.5156 27.7411 83.0956 19.1611 93.6769 19.1611ZM104.322 38.3224C104.322 32.4463 99.553 27.6773 93.6769 27.6773C87.8008 27.6773 83.0318 32.4463 83.0318 38.3224C83.0318 44.1986 87.8008 48.9676 93.6769 48.9676C99.553 48.9676 104.322 44.1986 104.322 38.3224Z" fill="white"/>
<path d="M36.1934 87.2901C39.4508 87.2901 42.4954 86.3746 45.0928 84.7779C45.7528 86.2469 47.2431 87.2901 48.9676 87.2901H47.6902C38.876 87.2901 30.3173 90.2921 23.4192 95.8063V93.6772C23.4192 92.5063 22.4612 91.5482 21.2902 91.5482H9.30374L6.08891 88.3334L7.66439 86.7366C8.98439 85.4166 9.38891 83.4366 8.66504 81.7121L8.64374 81.6269C7.94116 79.9024 6.25923 78.774 4.38568 78.774H2.12891V61.7417H4.36439C6.23794 61.7417 7.94116 60.6134 8.64374 58.8675L8.66504 58.8037C9.38891 57.0792 8.98439 55.0992 7.66439 53.7792L6.08891 52.1824L18.1179 40.1534L19.736 41.7501C21.056 43.0701 23.0147 43.4534 24.7392 42.7295C24.7605 42.7295 24.7818 42.7295 24.8031 42.7082C26.5489 42.0056 27.6773 40.3237 27.6773 38.4501V36.1934H44.7095V38.4501C44.7095 40.3237 45.8379 42.0056 47.5625 42.7082L47.6476 42.7295C49.3721 43.4534 51.3521 43.0488 52.6721 41.7288L54.2689 40.1534L57.4837 43.3682V44.7095H58.7186C61.976 44.7095 64.8928 46.6682 66.1276 49.6488C66.1276 49.6914 66.1489 49.7127 66.1702 49.7553C67.4263 52.7572 66.745 56.2063 64.4457 58.5269L63.5728 59.3998L66.5747 62.4017C66.2341 62.785 65.9999 63.2959 65.9999 63.8708C65.9999 67.405 68.8528 70.2579 72.387 70.2579H53.2257C53.2257 60.8476 45.6037 53.2256 36.1934 53.2256C26.7831 53.2256 19.1612 60.8476 19.1612 70.2579C19.1612 79.6682 26.7831 87.2901 36.1934 87.2901Z" fill="#0A8996"/>
<path d="M36.1944 78.774C40.8995 78.774 44.7105 74.963 44.7105 70.2578C44.7105 65.5527 40.8995 61.7417 36.1944 61.7417C31.4892 61.7417 27.6782 65.5527 27.6782 70.2578C27.6782 74.963 31.4892 78.774 36.1944 78.774ZM45.9666 80.0301C45.1789 80.7966 44.7105 81.8611 44.7105 83.032C44.7105 83.6495 44.8382 84.2456 45.0937 84.7778C42.4963 86.3746 39.4518 87.2901 36.1944 87.2901C26.784 87.2901 19.1621 79.6682 19.1621 70.2578C19.1621 60.8475 26.784 53.2256 36.1944 53.2256C45.6047 53.2256 53.2266 60.8475 53.2266 70.2578C52.0557 70.2578 50.9911 70.7262 50.2247 71.514C49.4369 72.2804 48.9686 73.3449 48.9686 74.5159C48.9686 76.8578 50.8847 78.774 53.2266 78.774H48.9686C47.7976 78.774 46.7331 79.2424 45.9666 80.0301Z" fill="#FEFEFE"/>
<path d="M129.87 68.129V97.9355C129.87 99.1064 128.912 100.065 127.741 100.065H110.709C109.538 100.065 108.58 99.1064 108.58 97.9355V95.8064V70.2581V68.129C108.58 66.9581 109.538 66 110.709 66H117.181H127.741C128.912 66 129.87 66.9581 129.87 68.129Z" fill="#599AC1"/>
<path d="M23.4192 121.355V123.484C23.4192 124.655 22.4612 125.613 21.2902 125.613H4.25794C3.08697 125.613 2.12891 124.655 2.12891 123.484V93.6774C2.12891 92.5064 3.08697 91.5483 4.25794 91.5483H9.30374H21.2902C22.4612 91.5483 23.4192 92.5064 23.4192 93.6774V95.8064V121.355Z" fill="#52C8D4"/>
<path d="M85.2029 74.4946C83.4997 75.6443 82.0732 77.092 81.0087 78.7739H53.2249C50.8829 78.7739 48.9668 76.8578 48.9668 74.5159C48.9668 73.3449 49.4352 72.2804 50.2229 71.5139C50.9894 70.7262 52.0539 70.2578 53.2249 70.2578H72.3862H79.1139C81.5197 70.2578 83.7339 71.6204 84.7984 73.7707V73.792C84.9262 74.0262 85.0539 74.2604 85.2029 74.4946Z" fill="#FFEED1"/>
<path d="M66.0004 89.4191C66.0004 88.2481 65.0423 87.29 63.8713 87.29H78.7746V95.8062H59.6133C63.1475 95.8062 66.0004 92.9533 66.0004 89.4191Z" fill="#FFEED1"/>
<path d="M83.0323 100.064C83.0323 98.8933 82.5639 97.8288 81.7761 97.0623C81.0097 96.2746 79.9452 95.8062 78.7742 95.8062V87.2901V86.4811C78.7742 83.7133 79.5619 81.052 81.0097 78.774C82.0742 77.092 83.5006 75.6443 85.2039 74.4946C85.0548 74.2604 84.9271 74.0262 84.7994 73.792V73.7707C83.7348 71.6204 81.5206 70.2578 79.1148 70.2578C76.8794 70.2578 74.4948 70.2578 72.3871 70.2578C68.8529 70.2578 66 67.4049 66 63.8707C66 63.2959 66.2342 62.7849 66.5748 62.4017C66.9794 61.9972 67.5329 61.7417 68.129 61.7417H84.3097C93.1239 61.7417 101.683 64.7436 108.581 70.2578V95.8062C101.683 101.32 93.1239 104.322 84.3097 104.322H83.0323H78.7742C81.1161 104.322 83.0323 102.406 83.0323 100.064Z" fill="#FFEED1"/>
<path d="M53.2251 78.7739H81.009C79.5612 81.052 78.7735 83.7133 78.7735 86.481V87.2901H63.8703H48.967C47.2425 87.2901 45.7522 86.2468 45.0922 84.7778C44.8367 84.2455 44.709 83.6494 44.709 83.032C44.709 81.861 45.1774 80.7965 45.9651 80.0301C46.7316 79.2423 47.7961 78.7739 48.967 78.7739H53.2251Z" fill="#FFEED1"/>
<path d="M78.7748 112.838C79.9457 112.838 81.0102 113.307 81.7767 114.095C82.5644 114.861 83.0328 115.926 83.0328 117.096C83.0328 119.438 81.1167 121.355 78.7748 121.355H70.2586C72.6006 121.355 74.5167 123.271 74.5167 125.613C74.5167 126.784 74.0483 127.848 73.2606 128.615C72.4941 129.402 71.4296 129.871 70.2586 129.871H47.6909C38.8767 129.871 30.318 126.869 23.4199 121.355V95.8062C30.318 90.292 38.8767 87.29 47.6909 87.29H48.9683H63.8715C65.0425 87.29 66.0006 88.2481 66.0006 89.4191C66.0006 92.9533 63.1477 95.8062 59.6135 95.8062H78.7748C79.9457 95.8062 81.0102 96.2746 81.7767 97.0623C82.5644 97.8287 83.0328 98.8933 83.0328 100.064C83.0328 102.406 81.1167 104.322 78.7748 104.322H83.0328C84.2038 104.322 85.2683 104.791 86.0348 105.578C86.8225 106.345 87.2909 107.409 87.2909 108.58C87.2909 110.922 85.3748 112.838 83.0328 112.838H78.7748Z" fill="#FFEED1"/>
<path d="M97.9355 114.968H102.194V119.226H97.9355V114.968Z" fill="black"/>
<path d="M106.451 114.968H110.709V119.226H106.451V114.968Z" fill="black"/>
<path d="M114.967 114.968H119.225V119.226H114.967V114.968Z" fill="black"/>
<path d="M12.7734 12.7744H17.0315V17.0325H12.7734V12.7744Z" fill="black"/>
<path d="M21.291 12.7744H25.5491V17.0325H21.291V12.7744Z" fill="black"/>
<path d="M29.8066 12.7744H34.0647V17.0325H29.8066V12.7744Z" fill="black"/>
<path d="M93.6765 25.5483C86.6316 25.5483 80.9023 31.2776 80.9023 38.3225C80.9023 45.3675 86.6316 51.0967 93.6765 51.0967C100.722 51.0967 106.451 45.3675 106.451 38.3225C106.451 31.2776 100.722 25.5483 93.6765 25.5483ZM93.6765 46.8387C88.9799 46.8387 85.1604 43.0192 85.1604 38.3225C85.1604 33.6259 88.9799 29.8064 93.6765 29.8064C98.3732 29.8064 102.193 33.6259 102.193 38.3225C102.193 43.0192 98.3732 46.8387 93.6765 46.8387Z" fill="black"/>
<path d="M93.677 17.0322C81.9376 17.0322 72.3867 26.5831 72.3867 38.3225C72.3867 50.062 81.9376 59.6129 93.677 59.6129C105.417 59.6129 114.967 50.062 114.967 38.3225C114.967 26.5831 105.417 17.0322 93.677 17.0322ZM93.677 55.3548C84.2859 55.3548 76.6448 47.7137 76.6448 38.3225C76.6448 28.9314 84.2859 21.2903 93.677 21.2903C103.068 21.2903 110.709 28.9314 110.709 38.3225C110.709 47.7137 103.068 55.3548 93.677 55.3548Z" fill="black"/>
<path d="M128.628 46.8387H132V29.8065H128.628C126.241 29.8065 124.11 28.3821 123.156 26.0721C122.228 23.8516 122.722 21.3223 124.41 19.6318L126.799 17.2473L114.755 5.20336L112.37 7.58787C110.68 9.28045 108.151 9.77226 105.826 8.80142C103.618 7.89019 102.194 5.76116 102.194 3.37239V0H85.1613V3.37239C85.1613 5.75903 83.737 7.89019 81.427 8.844C79.2085 9.77226 76.6792 9.27832 74.9866 7.58787L72.6021 5.20336L60.5582 17.2473L62.9448 19.6318C64.6353 21.3223 65.1271 23.8515 64.1563 26.1786C63.245 28.3821 61.1139 29.8065 58.7272 29.8065H55.3548V38.2332L54.2584 37.1367L51.1734 40.2217C50.4559 40.937 49.385 41.1542 48.3674 40.7348C47.437 40.3516 46.8387 39.4574 46.8387 38.4525V34.0645H25.5484V38.4546C25.5484 39.4595 24.9395 40.3601 23.9346 40.771C22.9957 41.1563 21.9354 40.9477 21.2307 40.243L18.1266 37.1388L3.07219 52.1932L6.15716 55.2782C6.87465 55.9957 7.08968 57.0645 6.6809 58.0587C6.29342 59.0019 5.38219 59.6129 4.36239 59.6129H0V80.9032H4.39006C5.39497 80.9032 6.28916 81.5036 6.70432 82.5149C7.08968 83.4517 6.87677 84.5205 6.15716 85.2379L3.07432 88.3229L4.17716 89.4257C1.86716 89.4705 0 91.3568 0 93.6774V123.484C0 125.832 1.90974 127.742 4.25806 127.742H21.2903C23.0148 127.742 24.4924 126.709 25.163 125.234C31.8248 129.611 39.6916 132 47.6967 132H70.2581C73.7795 132 76.6452 129.134 76.6452 125.613C76.6452 124.863 76.4919 124.152 76.2534 123.484H78.7742C82.2956 123.484 85.1613 120.618 85.1613 117.097C85.1613 116.256 84.9888 115.457 84.6929 114.721C87.4074 113.984 89.4194 111.525 89.4194 108.581C89.4194 107.721 89.2426 106.903 88.9339 106.154C95.3125 105.421 101.468 103.213 106.837 99.6856C107.508 101.161 108.985 102.194 110.71 102.194H127.742C130.09 102.194 132 100.284 132 97.9355V68.129C132 65.7807 130.09 63.871 127.742 63.871H122.326L126.799 59.3979L124.414 57.0134C122.724 55.3229 122.23 52.7936 123.201 50.4666C124.11 48.263 126.241 46.8387 128.628 46.8387ZM4.39006 76.6452H4.25806V63.871H4.36239C7.11523 63.871 9.57213 62.2252 10.643 59.6214C11.6841 57.09 11.105 54.203 9.17187 52.2677L9.09735 52.1932L18.1308 43.1597L18.2224 43.2534C20.1492 45.1802 23.0276 45.7486 25.6144 44.6841C28.1628 43.6388 29.8086 41.1925 29.8086 38.4525V38.3226H42.5828V38.4546C42.5828 41.1925 44.22 43.6324 46.8323 44.7076C49.368 45.7486 52.2507 45.1696 54.186 43.2364L54.2605 43.1619L55.3548 44.2562V46.8387H58.7272C61.1139 46.8387 63.245 48.263 64.1988 50.573C65.1271 52.7936 64.6332 55.3229 62.9427 57.0134L60.5582 59.3979L64.0094 62.849C63.9263 63.179 63.871 63.5176 63.871 63.871C63.871 65.4294 64.3223 66.8729 65.0547 68.1312H55.2292C54.1647 58.5654 46.0382 51.0989 36.1936 51.0989C25.6293 51.0989 17.0323 59.6959 17.0323 70.2602C17.0323 79.0467 22.9872 86.4536 31.0668 88.704C29.0166 89.6131 27.0451 90.6946 25.163 91.9295C24.4924 90.4519 23.0148 89.4194 21.2903 89.4194H10.1917L9.09523 88.3229L9.16974 88.2484C11.105 86.3131 11.6841 83.4261 10.609 80.8117C9.56787 78.2824 7.12587 76.6452 4.39006 76.6452ZM106.452 94.7292C100.222 99.4386 92.5895 102.07 84.7759 102.172C85.0101 101.51 85.1613 100.808 85.1613 100.065C85.1613 97.2925 83.375 94.9506 80.9032 94.0692V86.4919C80.9032 83.0344 82.3595 79.7961 84.8505 77.4904C86.9092 79.6386 89.7621 80.9032 92.8535 80.9032H93.6774V76.6452H92.8535C90.2369 76.6452 87.8843 75.1889 86.7048 72.8278C85.2614 69.9302 82.3552 68.129 79.1212 68.129H72.3786C70.0366 68.129 68.129 66.2193 68.129 63.871H84.3033C92.2808 63.871 100.096 66.5301 106.452 71.3354V94.7292ZM72.3871 72.3892L79.1212 72.3871C80.4136 72.3871 81.5803 72.9832 82.3744 73.969C81.4461 74.7695 80.635 75.6765 79.9154 76.6452H53.2258C52.0527 76.6452 51.0968 75.6892 51.0968 74.5161C51.0968 73.343 52.0527 72.3871 53.2258 72.3871L72.3871 72.3892ZM46.8387 74.5161C46.8387 75.3571 47.0112 76.1555 47.3071 76.8921C44.5926 77.6267 42.5806 80.0878 42.5806 83.0323C42.5806 83.2494 42.6232 83.4538 42.6445 83.6646C40.639 84.6312 38.4439 85.1613 36.1936 85.1613C27.9755 85.1613 21.2903 78.4761 21.2903 70.2581C21.2903 62.04 27.9755 55.3548 36.1936 55.3548C43.8346 55.3548 50.143 61.1373 50.9925 68.5548C48.5739 69.4639 46.8387 71.7825 46.8387 74.5161ZM46.8387 83.0323C46.8387 81.8592 47.7946 80.9032 48.9677 80.9032H77.6352C77.1476 82.2637 76.8453 83.6923 76.7282 85.1613H48.9677C47.7946 85.1613 46.8387 84.2054 46.8387 83.0323ZM76.6452 89.4194V93.6774H66.9453C67.6777 92.4213 68.129 90.9778 68.129 89.4194H76.6452ZM4.25806 123.484V93.6774H21.2903L21.2925 123.484H4.25806ZM83.0323 110.71H51.0968V114.968H78.7742C79.9473 114.968 80.9032 115.924 80.9032 117.097C80.9032 118.27 79.9473 119.226 78.7742 119.226H51.0968V123.484H70.2581C71.4312 123.484 72.3871 124.44 72.3871 125.613C72.3871 126.786 71.4312 127.742 70.2581 127.742H47.6967C39.7192 127.742 31.9035 125.083 25.5484 120.278V96.8838C31.9035 92.0785 39.7192 89.4194 47.6967 89.4194H63.871C63.871 91.7677 61.9634 93.6774 59.6214 93.6774H51.0968V97.9355H59.6129H78.7742C79.9473 97.9355 80.9032 98.8914 80.9032 100.065C80.9032 101.238 79.9473 102.194 78.7742 102.194H51.0968V106.452H83.0323C84.2054 106.452 85.1613 107.408 85.1613 108.581C85.1613 109.754 84.2054 110.71 83.0323 110.71ZM127.744 97.9355H110.71V68.129H127.742L127.744 97.9355ZM119.226 48.9315C117.746 52.4785 118.374 56.4811 120.803 59.3702L116.303 63.871H110.71C108.985 63.871 107.508 64.9035 106.837 66.379C100.175 62.0017 92.3085 59.6129 84.3033 59.6129H68.129C67.7245 59.6129 67.3434 59.6874 66.973 59.7917L66.5514 59.3702C68.9807 56.4811 69.6066 52.47 68.0907 48.84C66.6323 45.3122 63.3643 42.9405 59.6129 42.6168V34.0241C63.3643 33.7005 66.6366 31.3223 68.129 27.7115C69.6087 24.1666 68.9807 20.1619 66.5536 17.2728L72.6298 11.1966C75.5189 13.6237 79.5257 14.2517 83.1579 12.7359C86.6857 11.2796 89.0574 8.00942 89.381 4.25806H97.9738C98.2974 8.00942 100.676 11.2817 104.286 12.7742C107.833 14.2517 111.836 13.6258 114.725 11.1966L120.801 17.2728C118.372 20.1619 117.748 24.173 119.262 27.803C120.72 31.3308 123.988 33.7026 127.74 34.0262V42.619C123.991 42.9426 120.718 45.3207 119.226 48.9315Z" fill="black"/>
<path d="M112.839 55.355C112.294 55.355 111.748 55.5636 111.333 55.9788C110.501 56.8112 110.501 58.1589 111.333 58.9892C111.748 59.4044 112.294 59.613 112.839 59.613C113.384 59.613 113.929 59.4044 114.344 58.9892C115.176 58.1568 115.176 56.8091 114.344 55.9788C113.929 55.5636 113.384 55.355 112.839 55.355Z" fill="black"/>
<path d="M121.356 40.4514C122.531 40.4514 123.485 39.4982 123.485 38.3224C123.485 37.1466 122.531 36.1934 121.356 36.1934C120.18 36.1934 119.227 37.1466 119.227 38.3224C119.227 39.4982 120.18 40.4514 121.356 40.4514Z" fill="black"/>
<path d="M112.839 17.0322C112.294 17.0322 111.748 17.2409 111.333 17.656C110.501 18.4885 110.501 19.8362 111.333 20.6665C111.748 21.0816 112.294 21.2903 112.839 21.2903C113.384 21.2903 113.929 21.0816 114.344 20.6665C115.176 19.834 115.176 18.4864 114.344 17.656C113.929 17.2409 113.384 17.0322 112.839 17.0322Z" fill="black"/>
<path d="M93.6779 12.7742C94.8537 12.7742 95.8069 11.821 95.8069 10.6451C95.8069 9.46931 94.8537 8.51611 93.6779 8.51611C92.502 8.51611 91.5488 9.46931 91.5488 10.6451C91.5488 11.821 92.502 12.7742 93.6779 12.7742Z" fill="black"/>
<path d="M74.5163 21.2903C75.0613 21.2903 75.6064 21.0816 76.0215 20.6665C76.854 19.834 76.854 18.4864 76.0215 17.656C75.6064 17.2409 75.0613 17.0322 74.5163 17.0322C73.9713 17.0322 73.4262 17.2409 73.0111 17.656C72.1786 18.4885 72.1786 19.8362 73.0111 20.6665C73.4262 21.0816 73.9713 21.2903 74.5163 21.2903Z" fill="black"/>
<path d="M66.0001 40.4514C67.176 40.4514 68.1292 39.4982 68.1292 38.3224C68.1292 37.1466 67.176 36.1934 66.0001 36.1934C64.8243 36.1934 63.8711 37.1466 63.8711 38.3224C63.8711 39.4982 64.8243 40.4514 66.0001 40.4514Z" fill="black"/>
<path d="M36.194 59.6128C30.3242 59.6128 25.5488 64.3882 25.5488 70.258C25.5488 76.1277 30.3242 80.9031 36.194 80.9031C42.0637 80.9031 46.8391 76.1277 46.8391 70.258C46.8391 64.3882 42.0637 59.6128 36.194 59.6128ZM36.194 76.6451C32.6726 76.6451 29.8069 73.7794 29.8069 70.258C29.8069 66.7365 32.6726 63.8709 36.194 63.8709C39.7154 63.8709 42.5811 66.7365 42.5811 70.258C42.5811 73.7794 39.7154 76.6451 36.194 76.6451Z" fill="black"/>
<path d="M36.1935 46.8386C37.3693 46.8386 38.3225 45.8854 38.3225 44.7096C38.3225 43.5338 37.3693 42.5806 36.1935 42.5806C35.0177 42.5806 34.0645 43.5338 34.0645 44.7096C34.0645 45.8854 35.0177 46.8386 36.1935 46.8386Z" fill="black"/>
<path d="M18.1296 54.322C18.6746 54.322 19.2196 54.1134 19.6348 53.6982C20.4672 52.8658 20.4672 51.5181 19.6348 50.6878C19.2196 50.2726 18.6746 50.064 18.1296 50.064C17.5845 50.064 17.0395 50.2726 16.6243 50.6878C15.7919 51.5202 15.7919 52.8679 16.6243 53.6982C17.0395 54.1134 17.5845 54.322 18.1296 54.322Z" fill="black"/>
<path d="M10.6447 72.387C11.8205 72.387 12.7737 71.4338 12.7737 70.2579C12.7737 69.0821 11.8205 68.1289 10.6447 68.1289C9.46883 68.1289 8.51562 69.0821 8.51562 70.2579C8.51562 71.4338 9.46883 72.387 10.6447 72.387Z" fill="black"/>
<path d="M54.2585 54.322C54.8035 54.322 55.3485 54.1134 55.7637 53.6982C56.5961 52.8658 56.5961 51.5181 55.7637 50.6878C55.3485 50.2726 54.8035 50.064 54.2585 50.064C53.7134 50.064 53.1684 50.2726 52.7532 50.6878C51.9208 51.5202 51.9208 52.8679 52.7532 53.6982C53.1684 54.1134 53.7134 54.322 54.2585 54.322Z" fill="black"/>
</svg>
