<svg width="331" height="282" viewBox="0 0 331 282" fill="none" xmlns="http://www.w3.org/2000/svg">
<path d="M104.111 48.6783H34.8188V105.564H104.111V48.6783Z" fill="#AED8DC"/>
<path fill-rule="evenodd" clip-rule="evenodd" d="M31.97 158.314H97.7699C97.7699 158.314 116.058 156.844 124.421 171.364C132.692 185.792 151.623 210.697 151.623 210.697L177.998 181.841L196.837 198.566L167.062 235.786C167.062 235.786 157.688 245.619 145.466 242.402C133.335 239.186 112.198 212.443 112.198 212.443V281H29.6725V251.868C29.6725 251.868 23.4234 251.776 16.8985 249.662C0.999922 240.656 4.6759 225.033 4.6759 225.033L8.81137 182.116L8.90326 181.841C8.90326 181.841 12.8549 158.223 31.97 158.314Z" fill="white"/>
<path d="M39.9651 189.468L37.3 222.46L88.8556 226.228L97.6779 226.871L97.586 232.018" stroke="black" stroke-width="2" stroke-linecap="round" stroke-linejoin="round"/>
<path d="M29.6726 251.868H66.7999" stroke="black" stroke-width="2"/>
<path d="M315.939 25.7039H137.103V146.735H315.939V25.7039Z" fill="white" stroke="black" stroke-width="2"/>
<path fill-rule="evenodd" clip-rule="evenodd" d="M201.524 48.035L199.319 70.0909C199.319 70.0909 198.584 74.4102 200.789 77.6266C202.995 80.8431 207.957 81.3945 207.957 81.3945L207.865 95.2713H225.418L224.775 74.2264C224.775 74.2264 230.197 74.8697 232.77 68.2529C235.343 61.5443 230.289 61.2686 230.289 61.2686C230.289 61.2686 235.711 41.8778 201.524 48.035Z" fill="white" stroke="black" stroke-width="2" stroke-linecap="round" stroke-linejoin="round"/>
<path fill-rule="evenodd" clip-rule="evenodd" d="M199.686 66.9665C199.319 70.6425 198.583 74.4104 200.789 77.6269C202.995 80.8433 207.773 81.3947 207.957 81.3947C222.202 81.4866 223.764 71.102 223.948 68.0693C224.407 60.6255 236.078 59.7065 232.77 68.2531C232.678 68.5288 232.586 68.7126 232.402 68.9883C232.402 68.9883 238.284 60.6255 237.365 54.4682C236.538 48.311 230.289 48.7705 230.289 48.7705C230.289 48.7705 229.462 44.3593 222.477 42.5213C200.697 36.8236 184.155 53.8249 201.248 51.0679C204.649 50.7003 210.53 50.4247 216.412 51.5274C225.51 53.0897 224.775 57.409 224.407 60.6255L224.315 60.9931C224.131 62.8311 222.845 69.0802 213.563 70.2749C207.038 71.102 202.259 68.7126 199.686 66.9665Z" fill="black"/>
<path fill-rule="evenodd" clip-rule="evenodd" d="M198.584 91.8711H232.403C232.403 91.8711 248.209 91.1359 251.334 102.807C254.459 114.386 254.734 119.717 254.734 119.717L261.167 97.7527L281.201 103.726L270.265 146.735H170.371L181.674 106.575C181.674 106.575 183.972 91.8711 198.584 91.8711Z" fill="white" stroke="black" stroke-width="2" stroke-linecap="round" stroke-linejoin="round"/>
<path d="M242.236 109.24L243.43 146.735" stroke="black" stroke-width="2" stroke-linecap="round" stroke-linejoin="round"/>
<path d="M189.118 108.597L184.707 146.735" stroke="black" stroke-width="2" stroke-linecap="round" stroke-linejoin="round"/>
<path fill-rule="evenodd" clip-rule="evenodd" d="M209.704 97.8446L212.552 102.44L206.671 140.394L213.563 145.357L221.742 140.118L218.526 101.98L221.283 97.9365L215.493 91.8711L209.704 97.8446Z" fill="#14335D"/>
<path d="M215.789 62.532C216.529 62.6191 217.212 61.9808 217.315 61.1064C217.418 60.232 216.902 59.4526 216.162 59.3656C215.422 59.2786 214.739 59.9168 214.636 60.7912C214.533 61.6656 215.05 62.445 215.789 62.532Z" fill="black"/>
<path d="M204.061 61.9235C204.801 62.0105 205.484 61.3723 205.587 60.4979C205.69 59.6235 205.173 58.8441 204.434 58.7571C203.694 58.67 203.011 59.3083 202.908 60.1827C202.805 61.0571 203.321 61.8365 204.061 61.9235Z" fill="black"/>
<path d="M209.152 58.8794C208.325 60.5336 205.201 65.0366 206.947 66.5989C208.049 67.6098 209.244 67.7936 209.244 67.7936" stroke="black" stroke-width="2" stroke-linecap="round" stroke-linejoin="round"/>
<path d="M208.325 74.6859C209.188 74.6859 209.887 73.9042 209.887 72.9398C209.887 71.9755 209.188 71.1937 208.325 71.1937C207.462 71.1937 206.763 71.9755 206.763 72.9398C206.763 73.9042 207.462 74.6859 208.325 74.6859Z" fill="white"/>
<path fill-rule="evenodd" clip-rule="evenodd" d="M261.167 97.7527L261.718 85.5301C261.718 85.5301 261.902 79.4647 265.302 79.189C267.14 79.0052 269.07 79.5566 270.357 80.108L273.665 70.7343C274.033 69.5396 275.319 68.8963 276.514 69.3558C277.709 69.7234 278.352 71.01 277.985 72.2047L272.746 87.1843L285.98 90.5845L281.201 103.726L261.167 97.7527Z" fill="white" stroke="black" stroke-width="2" stroke-linecap="round" stroke-linejoin="round"/>
<path fill-rule="evenodd" clip-rule="evenodd" d="M277.709 79.8324C278.903 80.2919 279.547 81.5784 279.087 82.7731L276.882 89.0223C276.514 90.217 275.136 90.8603 274.033 90.4008C272.838 90.0332 272.195 88.7466 272.562 87.5519L274.768 81.2108C275.228 80.1081 276.514 79.4648 277.709 79.8324Z" fill="white" stroke="black" stroke-width="2"/>
<path fill-rule="evenodd" clip-rule="evenodd" d="M282.028 81.3944C283.223 81.762 283.774 83.0486 283.407 84.2433L281.201 90.4924C280.834 91.6871 279.455 92.3304 278.26 91.9628C277.158 91.5033 276.514 90.2167 276.882 89.022L279.088 82.7729C279.547 81.5782 280.834 80.9349 282.028 81.3944Z" fill="white" stroke="black" stroke-width="2"/>
<path fill-rule="evenodd" clip-rule="evenodd" d="M286.348 82.8652C287.451 83.2328 288.094 84.6113 287.726 85.806L285.521 92.0551C285.061 93.2498 283.775 93.8931 282.58 93.4336C281.385 93.066 280.834 91.6875 281.201 90.4928L283.407 84.2437C283.775 83.049 285.153 82.4057 286.348 82.8652Z" fill="white" stroke="black" stroke-width="2"/>
<path d="M270.357 80.1079C273.114 80.8431 274.309 82.5892 273.757 84.0596C273.39 85.2543 272.195 86.0814 270.173 85.7138L266.405 84.611C266.405 84.611 270.816 87.5518 271.276 90.952C271.735 94.4442 271.184 95.6389 271.184 95.6389" stroke="black" stroke-width="2" stroke-linecap="round" stroke-linejoin="round"/>
<path d="M259.237 104.37L279.547 110.435" stroke="black" stroke-width="2" stroke-linecap="round" stroke-linejoin="round"/>
<path d="M226.062 70.0911C226.613 68.5289 227.256 65.5881 230.105 64.761" stroke="black" stroke-width="2" stroke-linecap="round" stroke-linejoin="round"/>
<path d="M250.323 134.604L254.734 119.717" stroke="black" stroke-width="2" stroke-linecap="round" stroke-linejoin="round"/>
<path d="M215.034 55.8466C216.045 55.7547 217.147 55.8466 218.066 56.398" stroke="black" stroke-width="2" stroke-linecap="round" stroke-linejoin="round"/>
<path d="M206.855 55.0194C205.844 54.6518 204.741 54.5599 203.73 54.9275" stroke="black" stroke-width="2" stroke-linecap="round" stroke-linejoin="round"/>
<path d="M313.442 -0.000162871L270.339 15.8157L287.467 62.4945L330.569 46.6786L313.442 -0.000162871Z" fill="#AED8DC"/>
<path d="M315.923 146.735H137.103V155.194H315.923V146.735Z" fill="#0A8996"/>
<path d="M128.097 146.735H324.853" stroke="black" stroke-width="2" stroke-linecap="round" stroke-linejoin="round"/>
<path fill-rule="evenodd" clip-rule="evenodd" d="M207.958 86.7247L215.493 91.8711L207.958 99.6825L202.719 91.8711L207.958 86.7247Z" fill="white" stroke="black" stroke-width="2"/>
<path fill-rule="evenodd" clip-rule="evenodd" d="M225.143 85.8057L215.493 91.871L223.121 99.8663L229.094 91.871L225.143 85.8057Z" fill="white" stroke="black" stroke-width="2"/>
<path d="M96.1159 34.2504C98.6028 34.2504 100.619 32.2343 100.619 29.7473C100.619 27.2604 98.6028 25.2443 96.1159 25.2443C93.6289 25.2443 91.6128 27.2604 91.6128 29.7473C91.6128 32.2343 93.6289 34.2504 96.1159 34.2504Z" stroke="black" stroke-width="2"/>
<path d="M190.405 77.2593L185.258 79.2811" stroke="#0A8996" stroke-width="2" stroke-linecap="round" stroke-linejoin="round"/>
<path d="M20.1151 139.291L11.2927 148.481" stroke="#F86667" stroke-width="2" stroke-linecap="round" stroke-linejoin="round"/>
<path d="M189.577 69.4479L180.755 65.9557" stroke="#0A8996" stroke-width="2" stroke-linecap="round" stroke-linejoin="round"/>
<path d="M13.7742 50.057H39.3222" stroke="#843EF3" stroke-width="2" stroke-linecap="round" stroke-linejoin="round"/>
<path d="M13.7742 60.5337H35.6462" stroke="#843EF3" stroke-width="2" stroke-linecap="round" stroke-linejoin="round"/>
<path d="M124.329 86.2653H156.953" stroke="#AED8DC" stroke-width="2" stroke-linecap="round" stroke-linejoin="round"/>
<path d="M291.402 95.5471L294.619 87.0005" stroke="#AED8DC" stroke-width="2" stroke-linecap="round" stroke-linejoin="round"/>
<path d="M114.036 148.114C116.523 148.114 118.539 146.098 118.539 143.611C118.539 141.124 116.523 139.108 114.036 139.108C111.549 139.108 109.533 141.124 109.533 143.611C109.533 146.098 111.549 148.114 114.036 148.114Z" stroke="#0A8996" stroke-width="2"/>
<path fill-rule="evenodd" clip-rule="evenodd" d="M125.799 11.6432H186.177V49.1381V58.4199L173.219 49.1381H125.799V11.6432Z" fill="#14335D"/>
<path fill-rule="evenodd" clip-rule="evenodd" d="M144.087 25.7039C146.017 25.7039 147.58 27.358 147.58 29.2879C147.58 31.2178 146.017 32.7801 144.087 32.7801C142.066 32.7801 140.503 31.2178 140.503 29.2879C140.503 27.358 142.066 25.7039 144.087 25.7039ZM156.034 25.7039C157.964 25.7039 159.527 27.358 159.527 29.2879C159.527 31.2178 157.964 32.7801 156.034 32.7801C154.013 32.7801 152.45 31.2178 152.45 29.2879C152.45 27.358 154.013 25.7039 156.034 25.7039ZM167.889 25.7039C165.96 25.7039 164.397 27.358 164.397 29.2879C164.397 31.2178 165.96 32.7801 167.889 32.7801C169.911 32.7801 171.473 31.2178 171.473 29.2879C171.473 27.358 169.911 25.7039 167.889 25.7039Z" fill="white"/>
<path d="M29.6725 281V251.868C29.6725 251.868 23.4234 251.776 16.8985 249.662C0.999922 240.656 4.6759 225.033 4.6759 225.033L8.81137 182.116L8.90326 181.841C8.90326 181.841 12.8549 158.223 31.97 158.314H97.7699C97.7699 158.314 116.058 156.844 124.421 171.364C132.692 185.792 151.623 210.697 151.623 210.697L177.998 181.841L196.837 198.566L167.062 235.786C167.062 235.786 157.688 245.619 145.466 242.402C133.335 239.186 112.198 212.443 112.198 212.443V281" stroke="black" stroke-width="2" stroke-linecap="round" stroke-linejoin="round"/>
<path d="M303.9 251.684H66.7996V281H303.9V251.684Z" fill="#0A8996" stroke="#14335D" stroke-width="2" stroke-linecap="round" stroke-linejoin="round"/>
<path d="M112.29 191.398L112.198 212.443" stroke="black" stroke-width="2" stroke-linecap="round" stroke-linejoin="round"/>
<path fill-rule="evenodd" clip-rule="evenodd" d="M208.509 172.835H217.055C218.526 172.835 219.812 174.121 219.812 175.592C219.812 177.062 218.526 178.349 217.055 178.349C218.526 178.349 219.812 179.543 219.812 181.014C219.812 182.484 218.526 183.771 217.055 183.771C218.526 183.771 219.812 184.965 219.812 186.436C219.812 187.998 218.526 189.193 217.055 189.193H213.012C214.482 189.193 215.677 190.387 215.677 191.95C215.677 193.42 214.482 194.615 213.012 194.615H206.854C202.443 194.615 196.837 198.566 196.837 198.566L177.998 181.841C182.777 177.062 187.831 170.078 194.724 168.883C200.973 167.872 206.027 167.688 206.027 167.688C206.027 167.688 208.509 167.964 209.06 169.986C209.703 171.916 208.509 172.835 208.509 172.835Z" fill="white" stroke="black" stroke-width="2" stroke-linecap="round" stroke-linejoin="round"/>
<path d="M203.822 189.56C204.189 189.468 204.649 189.284 205.108 189.193C207.498 188.733 213.011 189.193 213.011 189.193" stroke="black" stroke-width="2" stroke-linecap="round" stroke-linejoin="round"/>
<path d="M203.362 184.873C204.465 184.414 205.844 183.954 207.314 183.77C210.806 183.219 217.055 183.77 217.055 183.77" stroke="black" stroke-width="2" stroke-linecap="round" stroke-linejoin="round"/>
<path d="M202.995 179.635C204.189 179.084 205.66 178.532 207.038 178.257C210.347 177.797 217.055 178.348 217.055 178.348" stroke="black" stroke-width="2" stroke-linecap="round" stroke-linejoin="round"/>
<path d="M208.509 172.834C208.509 172.834 205.476 173.11 203.179 173.937C200.789 174.856 199.043 176.235 199.043 176.235C199.043 176.235 198.768 179.635 197.849 182.116C197.022 184.598 196.562 185.057 196.562 185.057" stroke="black" stroke-width="2" stroke-linecap="round" stroke-linejoin="round"/>
<path d="M283.958 175.132H309.506" stroke="#F86667" stroke-width="2" stroke-linecap="round" stroke-linejoin="round"/>
<path d="M283.958 185.609H309.506" stroke="#F86667" stroke-width="2" stroke-linecap="round" stroke-linejoin="round"/>
<path d="M283.958 196.085H309.506" stroke="#F86667" stroke-width="2" stroke-linecap="round" stroke-linejoin="round"/>
<path d="M303.716 229.077C306.203 229.077 308.22 227.061 308.22 224.574C308.22 222.087 306.203 220.071 303.716 220.071C301.229 220.071 299.213 222.087 299.213 224.574C299.213 227.061 301.229 229.077 303.716 229.077Z" stroke="#14335D" stroke-width="2"/>
<path d="M221.742 163.645C225.694 166.31 227.808 170.813 227.072 175.591" stroke="#AED8DC" stroke-width="2" stroke-linecap="round" stroke-linejoin="round"/>
<path d="M265.395 209.962L276.331 240.105" stroke="#0A8996" stroke-width="2" stroke-linecap="round" stroke-linejoin="round"/>
<path d="M86.834 226.044V251.684" stroke="black" stroke-width="2" stroke-linecap="round" stroke-linejoin="round"/>
<path d="M172.025 188.366L190.956 205.918" stroke="black" stroke-width="2" stroke-linecap="round" stroke-linejoin="round"/>
<path fill-rule="evenodd" clip-rule="evenodd" d="M192.61 192.593H255.377L232.035 246.997H169.268L192.61 192.593Z" fill="white" stroke="black" stroke-width="2"/>
<path d="M232.006 246.997H127.27V251.688H232.006V246.997Z" fill="white" stroke="black" stroke-width="2"/>
<path d="M169.272 246.997H127.27V251.688H169.272V246.997Z" fill="white" stroke="black" stroke-width="2"/>
<path fill-rule="evenodd" clip-rule="evenodd" d="M97.6781 226.871L97.5862 251.684C97.5862 251.684 109.717 250.122 115.047 246.17C120.469 242.219 128.097 251.776 131.681 251.041C135.265 250.214 133.151 246.17 132.784 245.803C132.508 245.527 132.324 239.002 123.961 234.039C115.598 229.077 97.6781 226.871 97.6781 226.871Z" fill="white" stroke="black" stroke-width="2"/>
<path d="M121.847 238.542C124.972 239.553 129.935 242.678 132.783 245.803" stroke="black" stroke-width="2" stroke-linecap="round" stroke-linejoin="round"/>
<path fill-rule="evenodd" clip-rule="evenodd" d="M103.927 227.882C107.236 227.882 118.631 227.79 121.021 227.055C123.134 226.504 125.064 230.364 121.572 232.845C116.242 230.455 109.074 228.801 103.927 227.882Z" fill="white" stroke="black" stroke-width="2"/>
<path fill-rule="evenodd" clip-rule="evenodd" d="M53.0151 86.6329L90.1424 84.0597L96.8511 122.474C96.8511 122.474 100.435 138.097 94.0022 144.529C87.5692 151.054 77.6441 146.551 77.6441 146.551L78.4712 159.325C78.4712 159.601 78.5631 159.877 78.5631 160.152C78.5631 169.618 70.1083 172.467 60.5508 169.894C50.9014 167.32 51.0852 160.152 51.0852 160.152L50.7176 131.847C50.7176 131.847 37.3922 130.009 37.3922 118.614C37.3003 107.31 48.1444 110.802 48.1444 110.802C48.1444 110.802 42.5385 87.8276 53.0151 86.6329Z" fill="white" stroke="black" stroke-width="2" stroke-linecap="round" stroke-linejoin="round"/>
<path fill-rule="evenodd" clip-rule="evenodd" d="M91.521 92.1469C87.5694 92.3307 81.6878 92.2388 72.6817 92.3307C51.7286 92.5145 57.6102 121.83 56.3236 121.922C54.9451 122.106 54.5775 118.43 52.7395 115.397C50.8096 112.457 47.777 111.63 47.777 111.63C47.777 111.63 37.3004 107.31 37.3923 118.614C37.3923 130.009 50.7177 131.847 50.7177 131.847L50.8096 135.891C49.3392 136.442 47.5013 136.626 45.3876 136.075C38.2194 134.145 37.0247 127.712 37.0247 127.712C37.0247 127.712 32.6136 129.182 27.651 124.22C22.6884 119.257 25.3535 111.997 25.3535 111.997C25.3535 111.997 21.1261 109.148 22.2289 101.888C23.4236 94.7201 29.3052 92.4226 29.3052 92.4226C29.3052 92.4226 29.8566 87.46 33.0731 84.3354C36.1976 81.2109 42.1711 81.4866 42.1711 81.4866C42.1711 81.4866 41.5278 76.3402 44.8362 74.4103C48.1445 72.4804 52.7395 73.3994 52.7395 73.3994C52.7395 73.3994 55.5884 67.1503 63.216 67.1503C70.8437 67.1503 75.4387 72.848 75.4387 72.848C75.4387 72.848 79.2065 66.5989 87.7532 68.8045C96.2079 71.01 96.0241 80.3838 96.0241 80.3838C96.0241 80.3838 99.3325 81.119 99.1487 86.3572C98.873 91.5955 91.521 92.1469 91.521 92.1469Z" fill="black"/>
<path d="M50.9015 124.403C49.0635 121.83 45.7551 118.43 42.7224 117.235" stroke="black" stroke-width="2" stroke-linecap="round" stroke-linejoin="round"/>
<path d="M72.7567 112.349C71.6477 112.48 70.6238 111.523 70.4696 110.212C70.3154 108.902 71.0894 107.733 72.1984 107.603C73.3073 107.473 74.3313 108.429 74.4855 109.74C74.6396 111.05 73.8656 112.219 72.7567 112.349Z" fill="black"/>
<path d="M83.8933 106.115C86.8341 110.435 99.0567 121.463 86.926 125.598" stroke="black" stroke-width="2" stroke-linecap="round" stroke-linejoin="round"/>
<path d="M91.1107 108.382C90.0017 108.512 88.9778 107.556 88.8236 106.245C88.6694 104.935 89.4434 103.766 90.5524 103.636C91.6613 103.505 92.6853 104.462 92.8395 105.773C92.9936 107.083 92.2196 108.251 91.1107 108.382Z" fill="black"/>
<path d="M74.6113 128.355C75.1627 132.583 79.482 134.421 82.7904 132.123" stroke="black" stroke-width="2" stroke-linecap="round" stroke-linejoin="round"/>
<path d="M66.2485 104.921C66.7999 102.715 68.3622 100.418 71.5787 99.7747" stroke="black" stroke-width="2" stroke-linecap="round" stroke-linejoin="round"/>
<path d="M83.5256 97.5689C83.5256 97.5689 84.9041 97.0176 86.7421 97.1095C88.672 97.2933 89.7748 98.5798 89.7748 98.5798" stroke="black" stroke-width="2" stroke-linecap="round" stroke-linejoin="round"/>
<path d="M1 192.593H22.6882" stroke="#14335D" stroke-width="2" stroke-linecap="round" stroke-linejoin="round"/>
<path d="M85.0879 259.771H106.868" stroke="white" stroke-width="2" stroke-linecap="round" stroke-linejoin="round"/>
<path d="M135.081 269.421H168.441" stroke="white" stroke-width="2" stroke-linecap="round" stroke-linejoin="round"/>
<path d="M215.493 260.874H227.991" stroke="white" stroke-width="2" stroke-linecap="round" stroke-linejoin="round"/>
<path d="M255.194 273.28H281.936" stroke="white" stroke-width="2" stroke-linecap="round" stroke-linejoin="round"/>
<path d="M274.309 261.701H283.039" stroke="white" stroke-width="2" stroke-linecap="round" stroke-linejoin="round"/>
<path d="M186.821 273.832H195.459" stroke="white" stroke-width="2" stroke-linecap="round" stroke-linejoin="round"/>
</svg>
