<svg width="350" height="234" viewBox="0 0 350 234" fill="none" xmlns="http://www.w3.org/2000/svg">
<rect width="350" height="234" rx="28" fill="#0A8996"/>
<path d="M53.4538 209V192.273H60.0533C61.322 192.273 62.4028 192.515 63.2958 193C64.1888 193.479 64.8694 194.146 65.3377 195.001C65.8114 195.85 66.0483 196.83 66.0483 197.941C66.0483 199.052 65.8087 200.032 65.3295 200.881C64.8504 201.731 64.1561 202.392 63.2468 202.866C62.3429 203.34 61.2485 203.577 59.9634 203.577H55.7571V200.743H59.3917C60.0723 200.743 60.6332 200.625 61.0742 200.391C61.5207 200.152 61.8529 199.822 62.0707 199.403C62.2939 198.978 62.4055 198.491 62.4055 197.941C62.4055 197.386 62.2939 196.901 62.0707 196.487C61.8529 196.068 61.5207 195.744 61.0742 195.515C60.6277 195.281 60.0614 195.164 59.3754 195.164H56.9904V209H53.4538ZM71.5206 209.237C70.7202 209.237 70.0069 209.098 69.3807 208.82C68.7545 208.537 68.259 208.121 67.8942 207.571C67.5348 207.015 67.3551 206.324 67.3551 205.496C67.3551 204.799 67.4831 204.214 67.739 203.74C67.9949 203.266 68.3434 202.885 68.7844 202.597C69.2255 202.308 69.7264 202.09 70.2873 201.943C70.8536 201.796 71.4471 201.693 72.0678 201.633C72.7975 201.557 73.3855 201.486 73.832 201.42C74.2785 201.35 74.6025 201.246 74.804 201.11C75.0054 200.974 75.1062 200.772 75.1062 200.506V200.457C75.1062 199.939 74.9428 199.539 74.6161 199.256C74.2949 198.973 73.8375 198.831 73.244 198.831C72.6178 198.831 72.1196 198.97 71.7493 199.248C71.379 199.52 71.134 199.863 71.0142 200.277L67.7962 200.016C67.9595 199.253 68.2808 198.594 68.7599 198.039C69.2391 197.478 69.8571 197.048 70.614 196.749C71.3763 196.444 72.2584 196.291 73.2603 196.291C73.9573 196.291 74.6243 196.373 75.2614 196.536C75.9039 196.7 76.4729 196.953 76.9684 197.296C77.4693 197.639 77.8641 198.08 78.1527 198.619C78.4413 199.153 78.5856 199.792 78.5856 200.538V209H75.2859V207.26H75.1879C74.9864 207.652 74.7169 207.998 74.3793 208.298C74.0417 208.592 73.636 208.823 73.1623 208.992C72.6886 209.155 72.1413 209.237 71.5206 209.237ZM72.517 206.836C73.0289 206.836 73.4808 206.735 73.8729 206.533C74.2649 206.326 74.5726 206.049 74.7958 205.7C75.0191 205.352 75.1307 204.957 75.1307 204.516V203.185C75.0218 203.255 74.872 203.321 74.6815 203.381C74.4963 203.435 74.2867 203.487 74.0526 203.536C73.8184 203.579 73.5843 203.62 73.3501 203.658C73.116 203.691 72.9036 203.721 72.7131 203.748C72.3047 203.808 71.948 203.903 71.6431 204.034C71.3382 204.165 71.1013 204.342 70.9325 204.565C70.7637 204.783 70.6793 205.055 70.6793 205.382C70.6793 205.855 70.8509 206.218 71.1939 206.468C71.5424 206.713 71.9834 206.836 72.517 206.836ZM82.9838 213.705C82.5428 213.705 82.129 213.669 81.7424 213.598C81.3612 213.533 81.0454 213.449 80.7949 213.345L81.579 210.748C81.9874 210.873 82.3549 210.941 82.6816 210.952C83.0138 210.963 83.2997 210.887 83.5392 210.723C83.7843 210.56 83.983 210.282 84.1355 209.89L84.3397 209.359L79.8393 196.455H83.4984L86.0957 205.668H86.2264L88.8482 196.455H92.5318L87.6557 210.356C87.4216 211.031 87.103 211.619 86.7001 212.12C86.3026 212.626 85.7989 213.016 85.1891 213.288C84.5792 213.566 83.8442 213.705 82.9838 213.705ZM94.3123 209V196.455H97.6284V198.668H97.7754C98.0368 197.933 98.4724 197.353 99.0822 196.928C99.6921 196.504 100.422 196.291 101.271 196.291C102.131 196.291 102.864 196.506 103.468 196.936C104.073 197.361 104.476 197.938 104.677 198.668H104.808C105.064 197.949 105.526 197.375 106.196 196.945C106.871 196.509 107.669 196.291 108.589 196.291C109.76 196.291 110.71 196.664 111.44 197.41C112.175 198.151 112.542 199.202 112.542 200.563V209H109.071V201.249C109.071 200.552 108.886 200.029 108.516 199.681C108.146 199.332 107.683 199.158 107.127 199.158C106.496 199.158 106.003 199.359 105.649 199.762C105.295 200.16 105.118 200.685 105.118 201.339V209H101.745V201.175C101.745 200.56 101.568 200.07 101.214 199.705C100.865 199.34 100.405 199.158 99.8336 199.158C99.447 199.158 99.0985 199.256 98.7882 199.452C98.4833 199.643 98.2409 199.912 98.0613 200.261C97.8816 200.604 97.7917 201.007 97.7917 201.469V209H94.3123ZM121.008 209.245C119.718 209.245 118.607 208.984 117.676 208.461C116.75 207.933 116.037 207.187 115.536 206.223C115.035 205.254 114.784 204.108 114.784 202.784C114.784 201.494 115.035 200.361 115.536 199.387C116.037 198.412 116.742 197.652 117.651 197.108C118.566 196.563 119.639 196.291 120.869 196.291C121.697 196.291 122.467 196.425 123.181 196.691C123.9 196.953 124.526 197.348 125.059 197.876C125.598 198.404 126.018 199.068 126.317 199.869C126.617 200.664 126.766 201.595 126.766 202.662V203.618H116.173V201.461H123.491C123.491 200.96 123.382 200.517 123.164 200.13C122.947 199.743 122.644 199.441 122.258 199.223C121.877 199 121.433 198.888 120.926 198.888C120.398 198.888 119.93 199.011 119.522 199.256C119.119 199.496 118.803 199.82 118.574 200.228C118.346 200.631 118.228 201.08 118.223 201.576V203.626C118.223 204.246 118.337 204.783 118.566 205.235C118.8 205.687 119.13 206.035 119.554 206.28C119.979 206.525 120.483 206.648 121.065 206.648C121.452 206.648 121.806 206.593 122.127 206.484C122.448 206.375 122.723 206.212 122.952 205.994C123.181 205.777 123.355 205.51 123.475 205.194L126.693 205.406C126.529 206.179 126.195 206.855 125.688 207.432C125.187 208.004 124.539 208.45 123.744 208.771C122.955 209.087 122.043 209.245 121.008 209.245ZM132.516 201.747V209H129.037V196.455H132.353V198.668H132.5C132.778 197.938 133.243 197.361 133.897 196.936C134.55 196.506 135.342 196.291 136.273 196.291C137.145 196.291 137.904 196.482 138.552 196.863C139.2 197.244 139.704 197.789 140.063 198.496C140.423 199.199 140.602 200.037 140.602 201.012V209H137.123V201.633C137.128 200.865 136.932 200.266 136.535 199.836C136.137 199.4 135.59 199.183 134.893 199.183C134.425 199.183 134.011 199.283 133.652 199.485C133.298 199.686 133.02 199.98 132.819 200.367C132.623 200.748 132.522 201.208 132.516 201.747ZM150.017 196.455V199.068H142.462V196.455H150.017ZM144.178 193.449H147.657V205.145C147.657 205.466 147.706 205.717 147.804 205.896C147.902 206.071 148.038 206.193 148.212 206.264C148.392 206.335 148.599 206.37 148.833 206.37C148.997 206.37 149.16 206.356 149.323 206.329C149.487 206.297 149.612 206.272 149.699 206.256L150.246 208.845C150.072 208.899 149.827 208.962 149.511 209.033C149.195 209.109 148.811 209.155 148.359 209.172C147.521 209.204 146.786 209.093 146.154 208.837C145.528 208.581 145.041 208.183 144.692 207.644C144.344 207.105 144.172 206.424 144.178 205.602V193.449ZM157.673 192.273H162.034L166.641 203.511H166.837L171.443 192.273H175.805V209H172.374V198.113H172.235L167.907 208.918H165.571L161.242 198.072H161.103V209H157.673V192.273ZM182.231 209.237C181.43 209.237 180.717 209.098 180.091 208.82C179.464 208.537 178.969 208.121 178.604 207.571C178.245 207.015 178.065 206.324 178.065 205.496C178.065 204.799 178.193 204.214 178.449 203.74C178.705 203.266 179.053 202.885 179.494 202.597C179.935 202.308 180.436 202.09 180.997 201.943C181.564 201.796 182.157 201.693 182.778 201.633C183.507 201.557 184.095 201.486 184.542 201.42C184.988 201.35 185.312 201.246 185.514 201.11C185.715 200.974 185.816 200.772 185.816 200.506V200.457C185.816 199.939 185.653 199.539 185.326 199.256C185.005 198.973 184.547 198.831 183.954 198.831C183.328 198.831 182.83 198.97 182.459 199.248C182.089 199.52 181.844 199.863 181.724 200.277L178.506 200.016C178.669 199.253 178.991 198.594 179.47 198.039C179.949 197.478 180.567 197.048 181.324 196.749C182.086 196.444 182.968 196.291 183.97 196.291C184.667 196.291 185.334 196.373 185.971 196.536C186.614 196.7 187.183 196.953 187.678 197.296C188.179 197.639 188.574 198.08 188.863 198.619C189.151 199.153 189.296 199.792 189.296 200.538V209H185.996V207.26H185.898C185.696 207.652 185.427 207.998 185.089 208.298C184.752 208.592 184.346 208.823 183.872 208.992C183.399 209.155 182.851 209.237 182.231 209.237ZM183.227 206.836C183.739 206.836 184.191 206.735 184.583 206.533C184.975 206.326 185.283 206.049 185.506 205.7C185.729 205.352 185.841 204.957 185.841 204.516V203.185C185.732 203.255 185.582 203.321 185.391 203.381C185.206 203.435 184.997 203.487 184.763 203.536C184.528 203.579 184.294 203.62 184.06 203.658C183.826 203.691 183.614 203.721 183.423 203.748C183.015 203.808 182.658 203.903 182.353 204.034C182.048 204.165 181.811 204.342 181.642 204.565C181.474 204.783 181.389 205.055 181.389 205.382C181.389 205.855 181.561 206.218 181.904 206.468C182.252 206.713 182.693 206.836 183.227 206.836ZM195.474 201.747V209H191.995V196.455H195.311V198.668H195.458C195.736 197.938 196.201 197.361 196.855 196.936C197.508 196.506 198.3 196.291 199.231 196.291C200.103 196.291 200.862 196.482 201.51 196.863C202.158 197.244 202.662 197.789 203.021 198.496C203.381 199.199 203.56 200.037 203.56 201.012V209H200.081V201.633C200.086 200.865 199.89 200.266 199.493 199.836C199.095 199.4 198.548 199.183 197.851 199.183C197.383 199.183 196.969 199.283 196.61 199.485C196.256 199.686 195.978 199.98 195.777 200.367C195.581 200.748 195.48 201.208 195.474 201.747ZM209.88 209.237C209.08 209.237 208.366 209.098 207.74 208.82C207.114 208.537 206.618 208.121 206.254 207.571C205.894 207.015 205.714 206.324 205.714 205.496C205.714 204.799 205.842 204.214 206.098 203.74C206.354 203.266 206.703 202.885 207.144 202.597C207.585 202.308 208.086 202.09 208.647 201.943C209.213 201.796 209.806 201.693 210.427 201.633C211.157 201.557 211.745 201.486 212.191 201.42C212.638 201.35 212.962 201.246 213.163 201.11C213.365 200.974 213.466 200.772 213.466 200.506V200.457C213.466 199.939 213.302 199.539 212.975 199.256C212.654 198.973 212.197 198.831 211.603 198.831C210.977 198.831 210.479 198.97 210.109 199.248C209.738 199.52 209.493 199.863 209.374 200.277L206.156 200.016C206.319 199.253 206.64 198.594 207.119 198.039C207.598 197.478 208.217 197.048 208.973 196.749C209.736 196.444 210.618 196.291 211.62 196.291C212.317 196.291 212.984 196.373 213.621 196.536C214.263 196.7 214.832 196.953 215.328 197.296C215.829 197.639 216.223 198.08 216.512 198.619C216.801 199.153 216.945 199.792 216.945 200.538V209H213.645V207.26H213.547C213.346 207.652 213.076 207.998 212.739 208.298C212.401 208.592 211.995 208.823 211.522 208.992C211.048 209.155 210.501 209.237 209.88 209.237ZM210.876 206.836C211.388 206.836 211.84 206.735 212.232 206.533C212.624 206.326 212.932 206.049 213.155 205.7C213.378 205.352 213.49 204.957 213.49 204.516V203.185C213.381 203.255 213.231 203.321 213.041 203.381C212.856 203.435 212.646 203.487 212.412 203.536C212.178 203.579 211.944 203.62 211.71 203.658C211.475 203.691 211.263 203.721 211.072 203.748C210.664 203.808 210.307 203.903 210.002 204.034C209.698 204.165 209.461 204.342 209.292 204.565C209.123 204.783 209.039 205.055 209.039 205.382C209.039 205.855 209.21 206.218 209.553 206.468C209.902 206.713 210.343 206.836 210.876 206.836ZM225.296 213.966C224.169 213.966 223.203 213.811 222.397 213.5C221.596 213.195 220.959 212.779 220.486 212.251C220.012 211.723 219.704 211.129 219.563 210.47L222.781 210.037C222.879 210.288 223.034 210.522 223.246 210.74C223.459 210.958 223.739 211.132 224.088 211.262C224.441 211.399 224.872 211.467 225.378 211.467C226.135 211.467 226.758 211.281 227.248 210.911C227.744 210.546 227.992 209.934 227.992 209.074V206.778H227.845C227.692 207.127 227.463 207.456 227.159 207.767C226.854 208.077 226.462 208.33 225.982 208.526C225.503 208.722 224.932 208.82 224.267 208.82C223.325 208.82 222.468 208.603 221.694 208.167C220.927 207.726 220.314 207.053 219.857 206.15C219.405 205.24 219.179 204.091 219.179 202.703C219.179 201.282 219.41 200.095 219.873 199.142C220.336 198.189 220.951 197.475 221.719 197.002C222.492 196.528 223.339 196.291 224.259 196.291C224.961 196.291 225.55 196.411 226.023 196.651C226.497 196.885 226.878 197.179 227.167 197.533C227.461 197.881 227.687 198.224 227.845 198.562H227.975V196.455H231.43V209.123C231.43 210.19 231.169 211.083 230.646 211.801C230.123 212.52 229.399 213.059 228.474 213.419C227.553 213.783 226.494 213.966 225.296 213.966ZM225.37 206.207C225.931 206.207 226.404 206.068 226.791 205.79C227.183 205.507 227.483 205.104 227.689 204.581C227.902 204.053 228.008 203.422 228.008 202.686C228.008 201.951 227.905 201.314 227.698 200.775C227.491 200.231 227.191 199.809 226.799 199.509C226.407 199.21 225.931 199.06 225.37 199.06C224.798 199.06 224.316 199.215 223.924 199.526C223.532 199.83 223.235 200.255 223.034 200.8C222.832 201.344 222.732 201.973 222.732 202.686C222.732 203.411 222.832 204.037 223.034 204.565C223.241 205.088 223.538 205.493 223.924 205.782C224.316 206.065 224.798 206.207 225.37 206.207ZM239.916 209.245C238.626 209.245 237.515 208.984 236.584 208.461C235.658 207.933 234.945 207.187 234.444 206.223C233.943 205.254 233.693 204.108 233.693 202.784C233.693 201.494 233.943 200.361 234.444 199.387C234.945 198.412 235.65 197.652 236.559 197.108C237.474 196.563 238.547 196.291 239.778 196.291C240.605 196.291 241.376 196.425 242.089 196.691C242.808 196.953 243.434 197.348 243.968 197.876C244.507 198.404 244.926 199.068 245.225 199.869C245.525 200.664 245.675 201.595 245.675 202.662V203.618H235.081V201.461H242.399C242.399 200.96 242.29 200.517 242.073 200.13C241.855 199.743 241.553 199.441 241.166 199.223C240.785 199 240.341 198.888 239.835 198.888C239.307 198.888 238.838 199.011 238.43 199.256C238.027 199.496 237.711 199.82 237.482 200.228C237.254 200.631 237.137 201.08 237.131 201.576V203.626C237.131 204.246 237.246 204.783 237.474 205.235C237.708 205.687 238.038 206.035 238.463 206.28C238.887 206.525 239.391 206.648 239.974 206.648C240.36 206.648 240.714 206.593 241.035 206.484C241.357 206.375 241.632 206.212 241.86 205.994C242.089 205.777 242.263 205.51 242.383 205.194L245.601 205.406C245.438 206.179 245.103 206.855 244.596 207.432C244.095 208.004 243.448 208.45 242.653 208.771C241.863 209.087 240.951 209.245 239.916 209.245ZM247.945 209V196.455H251.261V198.668H251.408C251.67 197.933 252.105 197.353 252.715 196.928C253.325 196.504 254.055 196.291 254.904 196.291C255.764 196.291 256.497 196.506 257.101 196.936C257.705 197.361 258.108 197.938 258.31 198.668H258.441C258.696 197.949 259.159 197.375 259.829 196.945C260.504 196.509 261.302 196.291 262.222 196.291C263.393 196.291 264.343 196.664 265.073 197.41C265.808 198.151 266.175 199.202 266.175 200.563V209H262.704V201.249C262.704 200.552 262.519 200.029 262.149 199.681C261.778 199.332 261.316 199.158 260.76 199.158C260.128 199.158 259.636 199.359 259.282 199.762C258.928 200.16 258.751 200.685 258.751 201.339V209H255.378V201.175C255.378 200.56 255.201 200.07 254.847 199.705C254.498 199.34 254.038 199.158 253.466 199.158C253.08 199.158 252.731 199.256 252.421 199.452C252.116 199.643 251.874 199.912 251.694 200.261C251.514 200.604 251.425 201.007 251.425 201.469V209H247.945ZM274.641 209.245C273.35 209.245 272.24 208.984 271.309 208.461C270.383 207.933 269.67 207.187 269.169 206.223C268.668 205.254 268.417 204.108 268.417 202.784C268.417 201.494 268.668 200.361 269.169 199.387C269.67 198.412 270.375 197.652 271.284 197.108C272.199 196.563 273.272 196.291 274.502 196.291C275.33 196.291 276.1 196.425 276.814 196.691C277.532 196.953 278.158 197.348 278.692 197.876C279.231 198.404 279.65 199.068 279.95 199.869C280.249 200.664 280.399 201.595 280.399 202.662V203.618H269.806V201.461H277.124C277.124 200.96 277.015 200.517 276.797 200.13C276.579 199.743 276.277 199.441 275.891 199.223C275.509 199 275.066 198.888 274.559 198.888C274.031 198.888 273.563 199.011 273.154 199.256C272.752 199.496 272.436 199.82 272.207 200.228C271.978 200.631 271.861 201.08 271.856 201.576V203.626C271.856 204.246 271.97 204.783 272.199 205.235C272.433 205.687 272.762 206.035 273.187 206.28C273.612 206.525 274.116 206.648 274.698 206.648C275.085 206.648 275.439 206.593 275.76 206.484C276.081 206.375 276.356 206.212 276.585 205.994C276.814 205.777 276.988 205.51 277.108 205.194L280.326 205.406C280.162 206.179 279.827 206.855 279.321 207.432C278.82 208.004 278.172 208.45 277.377 208.771C276.588 209.087 275.676 209.245 274.641 209.245ZM286.149 201.747V209H282.67V196.455H285.986V198.668H286.133C286.411 197.938 286.876 197.361 287.529 196.936C288.183 196.506 288.975 196.291 289.906 196.291C290.777 196.291 291.537 196.482 292.185 196.863C292.833 197.244 293.337 197.789 293.696 198.496C294.055 199.199 294.235 200.037 294.235 201.012V209H290.756V201.633C290.761 200.865 290.565 200.266 290.168 199.836C289.77 199.4 289.223 199.183 288.526 199.183C288.058 199.183 287.644 199.283 287.284 199.485C286.931 199.686 286.653 199.98 286.451 200.367C286.255 200.748 286.155 201.208 286.149 201.747ZM303.65 196.455V199.068H296.095V196.455H303.65ZM297.81 193.449H301.29V205.145C301.29 205.466 301.339 205.717 301.437 205.896C301.535 206.071 301.671 206.193 301.845 206.264C302.025 206.335 302.232 206.37 302.466 206.37C302.629 206.37 302.793 206.356 302.956 206.329C303.119 206.297 303.245 206.272 303.332 206.256L303.879 208.845C303.705 208.899 303.46 208.962 303.144 209.033C302.828 209.109 302.444 209.155 301.992 209.172C301.154 209.204 300.419 209.093 299.787 208.837C299.161 208.581 298.674 208.183 298.325 207.644C297.977 207.105 297.805 206.424 297.81 205.602V193.449Z" fill="white"/>
<circle cx="179.5" cy="93.5" r="70.5" fill="white"/>
<path d="M189.703 115.109L165.094 139.719L140.484 115.109" fill="#0A8996"/>
<path d="M182.179 115.109H177.536L165.093 127.552L152.649 115.109H148.008L163.932 131.033C164.084 131.186 164.265 131.307 164.464 131.389C164.663 131.472 164.877 131.514 165.092 131.514C165.308 131.514 165.522 131.472 165.721 131.389C165.92 131.307 166.101 131.186 166.253 131.033L182.179 115.109Z" fill="#14335D"/>
<path d="M173.297 65.8906L197.906 41.2812L222.516 65.8906" fill="#0A8996"/>
<path d="M199.066 49.9617C198.752 49.6667 198.337 49.5024 197.905 49.5024C197.474 49.5024 197.059 49.6667 196.745 49.9617L180.817 65.8906H185.459L197.906 53.4431L210.352 65.8906H214.993L199.066 49.9617Z" fill="#14335D"/>
<path d="M132.281 65.8906H230.719V115.109H132.281V65.8906Z" fill="#09BCB1"/>
<path d="M181.5 106.906C190.561 106.906 197.906 99.5609 197.906 90.5C197.906 81.4391 190.561 74.0938 181.5 74.0938C172.439 74.0938 165.094 81.4391 165.094 90.5C165.094 99.5609 172.439 106.906 181.5 106.906Z" fill="#0A8996"/>
<path d="M161.812 110.188H138.844C138.409 110.188 137.991 110.015 137.684 109.707C137.376 109.399 137.203 108.982 137.203 108.547V72.4531C137.203 72.018 137.376 71.6007 137.684 71.293C137.991 70.9853 138.409 70.8125 138.844 70.8125H161.812V74.0938H140.484V106.906H161.812V110.188Z" fill="#14335D"/>
<path d="M224.156 110.188H209.391V106.906H222.516V74.0938H201.188V70.8125H224.156C224.591 70.8125 225.009 70.9853 225.316 71.293C225.624 71.6007 225.797 72.018 225.797 72.4531V108.547C225.797 108.982 225.624 109.399 225.316 109.707C225.009 110.015 224.591 110.188 224.156 110.188Z" fill="#14335D"/>
<path d="M145.406 87.2188H158.531V93.7812H145.406V87.2188Z" fill="#0A8996"/>
<path d="M204.469 87.2188H217.594V93.7812H204.469V87.2188Z" fill="#0A8996"/>
<path d="M209.391 139.719C218.452 139.719 225.797 132.373 225.797 123.312C225.797 114.252 218.452 106.906 209.391 106.906C200.33 106.906 192.984 114.252 192.984 123.312C192.984 132.373 200.33 139.719 209.391 139.719Z" fill="#F7D881"/>
<path d="M230.719 64.25H223.193L199.066 40.1181C198.752 39.8227 198.337 39.6582 197.905 39.6582C197.474 39.6582 197.059 39.8227 196.745 40.1181L172.616 64.25H132.281C131.846 64.25 131.429 64.4229 131.121 64.7306C130.813 65.0383 130.641 65.4556 130.641 65.8907V115.109C130.641 115.545 130.813 115.962 131.121 116.27C131.429 116.577 131.846 116.75 132.281 116.75H139.804L163.932 140.877C164.085 141.03 164.266 141.151 164.465 141.233C164.664 141.316 164.877 141.358 165.093 141.358C165.309 141.358 165.522 141.316 165.721 141.233C165.92 141.151 166.101 141.03 166.254 140.877L190.384 116.75H192.597C191.52 119.486 191.129 122.445 191.456 125.367C191.783 128.289 192.82 131.087 194.475 133.518C196.13 135.948 198.355 137.937 200.954 139.312C203.554 140.687 206.45 141.405 209.391 141.405C212.331 141.405 215.227 140.687 217.827 139.312C220.427 137.937 222.651 135.948 224.306 133.518C225.962 131.087 226.998 128.289 227.325 125.367C227.653 122.445 227.261 119.486 226.184 116.75H230.719C231.154 116.75 231.571 116.577 231.879 116.27C232.187 115.962 232.359 115.545 232.359 115.109V65.8907C232.359 65.4556 232.187 65.0383 231.879 64.7306C231.571 64.4229 231.154 64.25 230.719 64.25V64.25ZM197.906 43.5995L218.552 64.25H213.351L199.066 49.9618C198.752 49.6664 198.337 49.502 197.905 49.502C197.474 49.502 197.059 49.6664 196.745 49.9618L182.46 64.25H177.259L197.906 43.5995ZM208.708 64.25H187.103L197.906 53.4433L208.708 64.25ZM165.094 137.396L144.446 116.75H149.647L163.932 131.035C164.085 131.188 164.266 131.309 164.465 131.391C164.664 131.474 164.877 131.516 165.093 131.516C165.309 131.516 165.522 131.474 165.721 131.391C165.92 131.309 166.101 131.188 166.254 131.035L180.539 116.75H185.741L165.094 137.396ZM154.289 116.75H175.896L165.094 127.552L154.289 116.75ZM209.391 138.078C206.47 138.078 203.615 137.212 201.187 135.59C198.759 133.967 196.867 131.661 195.749 128.963C194.631 126.265 194.339 123.296 194.909 120.432C195.478 117.568 196.885 114.937 198.95 112.872C201.015 110.807 203.646 109.4 206.51 108.831C209.374 108.261 212.343 108.553 215.041 109.671C217.739 110.788 220.045 112.681 221.668 115.109C223.29 117.537 224.156 120.392 224.156 123.313C224.152 127.227 222.595 130.981 219.827 133.749C217.059 136.517 213.306 138.074 209.391 138.078V138.078ZM229.078 113.469H224.496C223.709 112.27 222.783 111.168 221.736 110.188H224.156C224.591 110.188 225.009 110.015 225.316 109.707C225.624 109.399 225.797 108.982 225.797 108.547V72.4532C225.797 72.0181 225.624 71.6008 225.316 71.2931C225.009 70.9854 224.591 70.8126 224.156 70.8126H201.188V74.0938H222.516V106.906H216.862C212.938 105.104 208.496 104.776 204.35 105.981C200.204 107.186 196.63 109.844 194.284 113.469H133.922V67.5313H229.078V113.469Z" fill="black"/>
<path d="M181.5 108.547C185.069 108.547 188.559 107.488 191.526 105.505C194.494 103.522 196.807 100.704 198.173 97.4062C199.539 94.1086 199.896 90.48 199.2 86.9792C198.504 83.4785 196.785 80.2628 194.261 77.7389C191.737 75.215 188.522 73.4962 185.021 72.7999C181.52 72.1036 177.891 72.4609 174.594 73.8269C171.296 75.1928 168.478 77.5059 166.495 80.4737C164.512 83.4415 163.453 86.9307 163.453 90.5C163.459 95.2846 165.362 99.8716 168.745 103.255C172.128 106.638 176.715 108.541 181.5 108.547ZM181.5 75.7344C184.42 75.7344 187.275 76.6004 189.703 78.2228C192.132 79.8453 194.024 82.1514 195.142 84.8494C196.259 87.5475 196.552 90.5164 195.982 93.3806C195.412 96.2449 194.006 98.8759 191.941 100.941C189.876 103.006 187.245 104.412 184.381 104.982C181.516 105.552 178.548 105.259 175.849 104.142C173.151 103.024 170.845 101.132 169.223 98.7034C167.6 96.2752 166.734 93.4204 166.734 90.5C166.739 86.5853 168.296 82.8321 171.064 80.0639C173.832 77.2958 177.585 75.7387 181.5 75.7344Z" fill="black"/>
<path d="M138.844 110.188H161.812V106.906H140.484V74.0938H161.812V70.8125H138.844C138.409 70.8125 137.991 70.9853 137.684 71.293C137.376 71.6007 137.203 72.018 137.203 72.4531V108.547C137.203 108.982 137.376 109.399 137.684 109.707C137.991 110.015 138.409 110.188 138.844 110.188Z" fill="black"/>
<path d="M145.406 85.5781C144.971 85.5781 144.554 85.751 144.246 86.0587C143.938 86.3663 143.766 86.7836 143.766 87.2188V93.7812C143.766 94.2164 143.938 94.6337 144.246 94.9413C144.554 95.249 144.971 95.4219 145.406 95.4219H158.531C158.966 95.4219 159.384 95.249 159.691 94.9413C159.999 94.6337 160.172 94.2164 160.172 93.7812V87.2188C160.172 86.7836 159.999 86.3663 159.691 86.0587C159.384 85.751 158.966 85.5781 158.531 85.5781H145.406ZM156.891 92.1406H147.047V88.8594H156.891V92.1406Z" fill="black"/>
<path d="M204.469 95.4219H217.594C218.029 95.4219 218.446 95.249 218.754 94.9413C219.062 94.6337 219.234 94.2164 219.234 93.7812V87.2188C219.234 86.7836 219.062 86.3663 218.754 86.0587C218.446 85.751 218.029 85.5781 217.594 85.5781H204.469C204.034 85.5781 203.616 85.751 203.309 86.0587C203.001 86.3663 202.828 86.7836 202.828 87.2188V93.7812C202.828 94.2164 203.001 94.6337 203.309 94.9413C203.616 95.249 204.034 95.4219 204.469 95.4219ZM206.109 88.8594H215.953V92.1406H206.109V88.8594Z" fill="black"/>
<path d="M185.81 87.7542L185.369 89.4324H177.274L177.709 87.7542H185.81ZM181.602 97.051L177.473 92.137L177.479 90.6277H179.52C179.974 90.6277 180.355 90.5432 180.661 90.3742C180.967 90.2051 181.196 89.9757 181.349 89.686C181.502 89.3962 181.58 89.0662 181.584 88.6959C181.58 88.1405 181.417 87.6877 181.095 87.3376C180.777 86.9834 180.252 86.8064 179.52 86.8064H177.274L177.769 84.6874H179.52C180.546 84.6874 181.401 84.8423 182.085 85.1522C182.774 85.4581 183.289 85.8948 183.631 86.4622C183.977 87.0297 184.152 87.7059 184.156 88.4907C184.152 89.1869 184.035 89.7946 183.806 90.3138C183.581 90.833 183.224 91.2656 182.737 91.6117C182.254 91.9579 181.625 92.2154 180.848 92.3845L180.751 92.4207L184.446 96.9424V97.051H181.602ZM185.822 84.6874L185.369 86.3898H178.705L179.157 84.6874H185.822Z" fill="black"/>
<path d="M213.664 119.788L213.274 121.688L204.24 122.181L204.622 120.282L213.664 119.788ZM209.534 130.42L204.627 125.187L204.541 123.503L206.819 123.378C207.326 123.351 207.745 123.233 208.076 123.026C208.407 122.819 208.65 122.549 208.803 122.216C208.956 121.883 209.023 121.51 209.005 121.097C208.967 120.477 208.757 119.982 208.376 119.611C208 119.235 207.403 119.069 206.586 119.114L204.079 119.251L204.503 116.856L206.457 116.749C207.602 116.686 208.566 116.807 209.348 117.111C210.135 117.411 210.736 117.867 211.153 118.479C211.574 119.091 211.81 119.835 211.862 120.711C211.9 121.488 211.807 122.173 211.583 122.767C211.363 123.36 210.992 123.864 210.469 124.28C209.952 124.696 209.264 125.022 208.408 125.258L208.302 125.304L212.701 130.125L212.708 130.246L209.534 130.42ZM213.49 116.365L213.089 118.292L205.651 118.699L206.052 116.771L213.49 116.365Z" fill="black"/>
</svg>
