<svg width="128" height="128" viewBox="0 0 128 128" fill="none" xmlns="http://www.w3.org/2000/svg">
<path d="M71.8652 92.6669L83.873 81.3887L79.1057 80.5032C76.8047 80.0407 75.1492 77.3714 75.1492 75.0244V64.5654H64H52.8507V75.0244C52.8507 77.3714 51.1952 80.0407 48.8942 80.5032L44.127 81.3887L56.1347 92.6669C60.556 96.8197 67.444 96.8197 71.8652 92.6669Z" fill="#FFE7CF"/>
<path d="M64.916 64.5654V79.4222C64.916 81.7692 66.5715 84.4384 68.8725 84.9009L78.276 86.6449L83.8723 81.3887L79.105 80.5032C76.804 80.0407 75.1485 77.3714 75.1485 75.0244V64.5654H64.916Z" fill="#F4D3A6"/>
<path d="M97.0306 82.3722L80.0809 79.2236C79.4589 79.1081 78.8169 79.2579 78.3101 79.6367L63.9994 90.3329L49.6889 79.6367C49.1821 79.2579 48.5401 79.1081 47.9181 79.2236L30.9684 82.3722C22.4421 84.8827 16.5879 92.7089 16.5879 101.597V121.913C16.5879 124.239 18.4731 126.124 20.7986 126.124H107.201C109.526 126.124 111.412 124.239 111.412 121.913V101.597C111.411 92.7092 105.557 84.8827 97.0306 82.3722Z" fill="#599AC1"/>
<path d="M97.0309 82.3722L80.0812 79.2236C79.4592 79.1081 78.8172 79.2579 78.3104 79.6367L70.7949 85.2539L86.9252 88.2502C95.4514 90.7607 101.306 93.1157 101.306 102.004V126.124H107.201C109.526 126.124 111.412 124.239 111.412 121.913V101.597C111.411 92.7092 105.557 84.8827 97.0309 82.3722Z" fill="#76A5BC"/>
<path d="M43.0547 80.1272L52.3309 93.1079C53.0299 94.0859 54.3142 94.4472 55.4204 93.9774L63.9997 90.3329L49.6892 79.6367C49.1824 79.2579 48.5404 79.1081 47.9184 79.2236L43.0547 80.1272Z" fill="#76A5BC"/>
<path d="M84.945 80.1272L75.6688 93.1079C74.9698 94.0859 73.6855 94.4472 72.5793 93.9774L64 90.3329L78.3105 79.6367C78.8173 79.2579 79.4593 79.1081 80.0813 79.2236L84.945 80.1272Z" fill="#76A5BC"/>
<path d="M63.9993 1.87549C46.0148 1.87549 31.4355 14.3172 31.4355 21.3477C31.4355 28.3782 46.0148 33.4022 63.9993 33.4022C81.9838 33.4022 96.563 28.3782 96.563 21.3477C96.563 14.3175 81.9838 1.87549 63.9993 1.87549Z" fill="#599AC1"/>
<path d="M63.9988 1.87549C62.2513 1.87549 60.5363 1.99424 58.8633 2.21299C74.4075 4.24374 86.2918 15.0005 86.2918 21.348C86.2918 27.6955 74.4075 32.4065 58.8633 33.2625C60.5363 33.3545 62.2513 33.4025 63.9988 33.4025C81.9833 33.4025 96.5625 28.3785 96.5625 21.348C96.5625 14.3175 81.9833 1.87549 63.9988 1.87549Z" fill="#76A5BC"/>
<path d="M87.2838 40.9756H85.7975V39.2304V35.0586C85.7975 29.1684 83.3793 23.4606 78.9158 19.6174C75.4163 16.6041 52.5823 16.6041 49.0828 19.6174C44.6193 23.4606 42.201 29.1684 42.201 35.0586V39.2304V40.9756H40.7148C38.536 40.9756 36.7695 42.7419 36.7695 44.9209V49.2929C36.7695 51.4716 38.5358 53.2381 40.7148 53.2381H42.2068C42.3298 58.9639 44.7358 64.4749 49.0825 68.2176C52.582 71.2309 57.501 73.8609 63.999 73.9334C70.497 73.8609 75.416 71.2309 78.9155 68.2176C83.2623 64.4749 85.6683 58.9639 85.7913 53.2381H87.2833C89.462 53.2381 91.2285 51.4719 91.2285 49.2929V44.9209C91.2288 42.7419 89.4625 40.9756 87.2838 40.9756Z" fill="#FFE7CF"/>
<path d="M87.284 40.9757H85.7978V39.2304V35.0587C85.7978 29.1684 83.3796 23.4607 78.916 19.6174C76.7131 17.7204 66.8473 17.0182 58.9668 17.5097C63.6038 17.7989 67.554 18.5012 68.8503 19.6174C73.3138 23.4607 75.732 29.1684 75.732 35.0587V39.2304L75.726 53.2379C75.603 58.9637 73.1971 64.4747 68.8503 68.2174C66.3188 70.3972 63.044 72.3757 58.9668 73.3312C60.526 73.6967 62.202 73.9132 63.9995 73.9332C70.4975 73.8607 75.4165 71.2307 78.916 68.2174C83.2628 64.4747 85.6688 58.9637 85.7918 53.2379H87.2838C89.4625 53.2379 91.229 51.4717 91.229 49.2927V44.9207C91.229 42.7419 89.4628 40.9757 87.284 40.9757Z" fill="#F4D3A6"/>
<path d="M38.8965 27.8366V41.4199C38.8965 41.4199 42.2307 41.3444 44.3735 43.4649C44.8197 43.9064 45.578 43.5839 45.578 42.9561V32.8969H82.4222V42.9561C82.4222 43.5839 83.1805 43.9066 83.6267 43.4649C85.7692 41.3444 89.1037 41.4199 89.1037 41.4199V27.8366C89.1035 19.4236 38.8965 19.4236 38.8965 27.8366Z" fill="#FF6D3A"/>
<path d="M64 38.9023C50.1357 38.9023 38.8965 34.599 38.8965 29.2905H89.1037C89.1035 34.599 77.8642 38.9023 64 38.9023Z" fill="#599AC1"/>
<path d="M38.8965 22.6183V29.291H89.1037V22.688C89.1037 20.897 87.8902 19.3355 86.155 18.892C81.5092 17.705 72.0612 15.6273 62.825 15.6235C54.313 15.62 45.9812 17.6585 41.7547 18.8463C40.064 19.3215 38.8965 20.8618 38.8965 22.6183Z" fill="#76A5BC"/>
<path d="M64.0002 90.333L57.2539 93.1988L61.1977 97.7835H66.8027L70.7467 93.1988L64.0002 90.333Z" fill="#282C3A"/>
<path d="M66.8027 97.7837H64.0002H61.1977L57.2539 126.125H70.7467L66.8027 97.7837Z" fill="#282C3A"/>
<path d="M89.6026 116.679H79.7254C79.0691 116.679 78.5371 116.147 78.5371 115.491V110.229C78.5371 109.573 79.0691 109.041 79.7254 109.041H89.6026C90.2589 109.041 90.7909 109.573 90.7909 110.229V115.491C90.7909 116.147 90.2589 116.679 89.6026 116.679Z" fill="#76A5BC"/>
<path d="M48.2764 116.679H38.3992C37.7429 116.679 37.2109 116.147 37.2109 115.491V110.229C37.2109 109.573 37.7429 109.041 38.3992 109.041H48.2764C48.9327 109.041 49.4647 109.573 49.4647 110.229V115.491C49.4644 116.147 48.9327 116.679 48.2764 116.679Z" fill="#76A5BC"/>
<path d="M20.3989 94.7911C22.2511 96.2843 24.9631 95.9936 26.4566 94.1413L28.4976 91.6098C29.9909 89.7576 29.7001 87.0456 27.8479 85.5521L26.3844 84.3721C22.8814 86.4551 20.1184 89.5506 18.4316 93.2048L20.3989 94.7911Z" fill="#FFBF14"/>
<path d="M109.567 93.2048C107.881 89.5506 105.118 86.4551 101.615 84.3721L100.151 85.5521C98.2988 87.0456 98.008 89.7576 99.5013 91.6098L101.542 94.1413C103.036 95.9936 105.748 96.2843 107.6 94.7911L109.567 93.2048Z" fill="#EAA200"/>
<path d="M110.125 90.2607C110.111 90.2365 110.096 90.212 110.081 90.1875C109.974 90.0117 109.864 89.8375 109.751 89.6645C109.689 89.569 109.626 89.4737 109.563 89.3792C109.486 89.2645 109.408 89.1503 109.328 89.0368C109.225 88.8895 109.12 88.744 109.014 88.5995C108.982 88.5565 108.953 88.5125 108.921 88.4697C108.898 88.4395 108.874 88.4108 108.852 88.3805C108.724 88.2108 108.593 88.0435 108.46 87.878C108.414 87.82 108.368 87.7617 108.321 87.7045C108.189 87.543 108.053 87.384 107.917 87.2265C107.86 87.1608 107.803 87.0945 107.746 87.0295C107.632 86.901 107.515 86.7753 107.398 86.6497C107.311 86.5557 107.224 86.4613 107.135 86.369C107.069 86.3 107 86.233 106.933 86.165C104.344 83.5445 101.153 81.6308 97.5614 80.5732C97.4999 80.555 97.4374 80.54 97.3741 80.5283L80.4241 77.3795C80.4234 77.3795 80.4249 77.3795 80.4241 77.3795C80.3941 77.374 80.3641 77.3725 80.3341 77.3678C79.5411 77.2388 78.7309 77.345 78.0036 77.6635C77.4136 76.939 77.0249 75.9437 77.0249 75.0242V71.9557C78.0961 71.2718 79.1364 70.503 80.1404 69.6385C84.3406 66.022 86.9859 60.8018 87.5566 55.107C90.6406 54.9645 93.1054 52.411 93.1054 49.2925V44.9205C93.1054 43.1525 92.3131 41.5165 90.9794 40.4245V30.374C97.1079 27.3538 98.4396 23.8325 98.4396 21.348C98.4396 17.085 94.4691 11.749 88.0776 7.422C83.9829 4.65025 75.4101 0 64.0001 0C52.5901 0 44.0174 4.65025 39.9226 7.422C33.5311 11.7487 29.5606 17.0847 29.5606 21.348C29.5606 23.8325 30.8924 27.3538 37.0209 30.374V40.4245C35.6874 41.5165 34.8949 43.1525 34.8949 44.9205V49.2925C34.8949 52.411 37.3596 54.9645 40.4436 55.107C41.0141 60.8018 43.6596 66.0222 47.8599 69.6385C48.8639 70.503 49.9041 71.2718 50.9754 71.9557V75.0242C50.9754 75.9437 50.5866 76.9388 49.9966 77.6633C49.2419 77.3325 48.3974 77.2265 47.5761 77.3795H47.5766C47.5761 77.3795 47.5766 77.3795 47.5761 77.3795L30.6264 80.5283C30.5631 80.54 30.5006 80.555 30.4391 80.5732C26.8489 81.6302 23.6601 83.5425 21.0716 86.161C21.0024 86.2308 20.9324 86.2995 20.8641 86.37C20.7766 86.4608 20.6914 86.5543 20.6054 86.6468C20.4871 86.7738 20.3691 86.9007 20.2536 87.0305C20.1969 87.0945 20.1414 87.16 20.0851 87.2247C19.9476 87.383 19.8119 87.5428 19.6791 87.705C19.6324 87.762 19.5869 87.82 19.5406 87.8775C19.4076 88.0435 19.2766 88.2108 19.1486 88.3805C19.1259 88.4108 19.1019 88.4392 19.0791 88.4697C19.0471 88.5125 19.0176 88.5565 18.9861 88.5995C18.8799 88.744 18.7751 88.8895 18.6724 89.0368C18.5926 89.1505 18.5144 89.265 18.4371 89.3798C18.3739 89.474 18.3116 89.5687 18.2499 89.664C18.1371 89.8372 18.0266 90.0117 17.9189 90.1875C17.9041 90.2117 17.8894 90.2363 17.8749 90.2605C15.8026 93.6752 14.7129 97.5527 14.7129 101.597V103.883C14.7129 104.919 15.5526 105.758 16.5884 105.758C17.6241 105.758 18.4639 104.919 18.4639 103.883V101.597C18.4639 99.769 18.7349 97.9827 19.2569 96.2763C20.3606 97.154 21.7001 97.6215 23.0924 97.6215C23.3149 97.6215 23.5391 97.6095 23.7634 97.5853C25.4056 97.4092 26.8811 96.604 27.9179 95.3183L29.9589 92.787C30.9956 91.5013 31.4696 89.8885 31.2936 88.2462C31.1536 86.9412 30.6151 85.7422 29.7551 84.7842C30.2941 84.565 30.8446 84.3672 31.4089 84.198L42.2241 82.189L50.8061 94.1982C51.6651 95.3997 53.0101 96.0622 54.4051 96.0622C54.9904 96.0622 55.5844 95.9457 56.1549 95.7035L56.7261 95.4607L59.2236 98.3643L55.6214 124.249H32.0529V109.04C32.0529 108.004 31.2131 107.165 30.1774 107.165C29.1416 107.165 28.3019 108.004 28.3019 109.04V124.249H20.7994C19.5116 124.249 18.4644 123.201 18.4644 121.914V112.61C18.4644 111.574 17.6246 110.735 16.5889 110.735C15.5531 110.735 14.7134 111.575 14.7134 112.61V121.914C14.7134 125.27 17.4436 128 20.7996 128H107.202C110.558 128 113.288 125.27 113.288 121.914V101.598C113.287 97.553 112.198 93.6755 110.125 90.2607ZM27.0386 90.433L24.9976 92.9645C24.5899 93.4703 24.0096 93.7867 23.3636 93.8562C22.7186 93.9252 22.0834 93.7393 21.5776 93.3313L20.7949 92.7002C20.9629 92.4007 21.1389 92.1068 21.3224 91.8185C21.3244 91.8152 21.3269 91.812 21.3289 91.8085C21.4864 91.5615 21.6521 91.321 21.8209 91.0827C21.8721 91.0107 21.9231 90.9388 21.9754 90.8672C22.1259 90.6612 22.2806 90.459 22.4394 90.26C22.4804 90.2085 22.5206 90.1562 22.5621 90.1052C22.7414 89.8855 22.9264 89.671 23.1156 89.4603C23.1709 89.3985 23.2271 89.338 23.2831 89.2773C23.4706 89.074 23.6611 88.8737 23.8579 88.6795C23.8746 88.6628 23.8911 88.6455 23.9081 88.6288C24.6334 87.9175 25.4196 87.266 26.2614 86.6815L26.6724 87.013C27.1781 87.4208 27.4949 88.001 27.5641 88.647C27.6329 89.2928 27.4466 89.9268 27.0386 90.433ZM101.328 87.0125L101.739 86.681C102.581 87.2655 103.367 87.917 104.093 88.6283C104.11 88.645 104.126 88.6623 104.143 88.679C104.34 88.8735 104.53 89.0737 104.718 89.2767C104.774 89.3375 104.83 89.398 104.885 89.4597C105.074 89.6705 105.259 89.8853 105.439 90.1048C105.48 90.1558 105.52 90.208 105.561 90.2595C105.72 90.4585 105.875 90.661 106.025 90.8668C106.078 90.938 106.129 91.0103 106.18 91.0823C106.349 91.3205 106.514 91.5612 106.672 91.808C106.674 91.8112 106.676 91.8145 106.678 91.818C106.862 92.1063 107.038 92.4003 107.206 92.6998L106.423 93.3307C105.917 93.7385 105.282 93.9245 104.637 93.8558C103.991 93.7865 103.411 93.4697 103.003 92.9638L100.962 90.4325C100.12 89.3885 100.284 87.8545 101.328 87.0125ZM79.4334 81.139C79.4361 81.1373 79.4309 81.141 79.4334 81.139C79.5206 81.0738 79.6324 81.0485 79.7389 81.0677L81.7061 81.4333L74.1426 92.0173C73.9534 92.2822 73.6119 92.3783 73.3121 92.251L67.7361 89.8822C67.7351 89.8817 67.7371 89.8828 67.7361 89.8822L79.4334 81.139ZM64.0001 87.9912L53.0709 79.8223C54.1034 78.4668 54.7266 76.7415 54.7266 75.0242V73.9262C57.6196 75.1382 60.7109 75.772 63.9794 75.8085C63.9864 75.8085 63.9934 75.8085 64.0004 75.8085C64.0074 75.8085 64.0144 75.8085 64.0214 75.8085C67.2899 75.7718 70.3811 75.138 73.2741 73.9262V75.0242C73.2741 76.7417 73.8974 78.4668 74.9296 79.8223L64.0001 87.9912ZM67.6509 93.9218L65.9424 95.908H62.0581L60.3496 93.9218L64.0001 92.371L67.6509 93.9218ZM37.0209 26.0985C34.6104 24.6125 33.3119 22.971 33.3119 21.3477C33.3119 17.9667 37.8286 13.3692 42.0254 10.5282C45.7644 7.9975 53.5909 3.75125 64.0001 3.75125C74.4094 3.75125 82.2359 7.9975 85.9749 10.5285C90.1716 13.3695 94.6884 17.967 94.6884 21.348C94.6884 22.971 93.3899 24.6127 90.9794 26.0987V22.688C90.9794 20.0392 89.1866 17.731 86.6194 17.0748C81.7636 15.8338 72.2154 13.7517 62.8259 13.748C62.8174 13.748 62.8104 13.748 62.8019 13.748C54.6711 13.748 46.5931 15.5382 41.2474 17.0408C38.7589 17.7402 37.0209 20.0338 37.0209 22.618V26.0985ZM82.1981 31.1663H86.3496C86.3464 31.17 86.3436 31.1737 86.3404 31.1772C86.3099 31.211 86.2764 31.245 86.2444 31.2787C86.1774 31.3495 86.1089 31.4202 86.0354 31.4912C85.9894 31.5355 85.9404 31.5795 85.8919 31.6238C85.8274 31.6828 85.7616 31.7415 85.6924 31.8005C85.6274 31.8558 85.5596 31.9107 85.4906 31.9657C85.4331 32.0117 85.3749 32.0577 85.3146 32.1037C85.2271 32.1702 85.1369 32.2367 85.0439 32.3027C84.9989 32.3348 84.9531 32.367 84.9069 32.399C84.7929 32.4775 84.6761 32.5557 84.5546 32.6335C84.5286 32.6502 84.5021 32.6667 84.4756 32.6835C83.6961 33.174 82.7674 33.6473 81.7059 34.0863C81.6836 34.0955 81.6636 34.1085 81.6419 34.1185C77.6234 35.775 71.5846 37.0267 64.0006 37.0267C56.4166 37.0267 50.3779 35.775 46.3594 34.1185C46.3376 34.1085 46.3176 34.0955 46.2954 34.0863C45.2339 33.6473 44.3051 33.174 43.5256 32.6835C43.4994 32.6667 43.4726 32.6502 43.4466 32.6335C43.3251 32.5557 43.2081 32.4775 43.0944 32.399C43.0481 32.367 43.0024 32.335 42.9574 32.3027C42.8644 32.2367 42.7741 32.1702 42.6866 32.1037C42.6264 32.0577 42.5681 32.0117 42.5106 31.9657C42.4416 31.9107 42.3739 31.8558 42.3089 31.8005C42.2396 31.7415 42.1739 31.6828 42.1094 31.6238C42.0609 31.5795 42.0119 31.5355 41.9659 31.4912C41.8924 31.4202 41.8236 31.3495 41.7569 31.2787C41.7249 31.245 41.6914 31.211 41.6609 31.1772C41.6576 31.1735 41.6549 31.1698 41.6516 31.1663H73.1401C74.1759 31.1663 75.0156 30.3265 75.0156 29.2908C75.0156 28.2548 74.1759 27.4153 73.1401 27.4153H40.7721V22.6182C40.7721 21.7073 41.3849 20.8988 42.2624 20.6523C47.3816 19.2133 55.0976 17.4993 62.8019 17.4993C62.8089 17.4993 62.8171 17.4993 62.8241 17.4993C71.8039 17.503 81.0051 19.5117 85.6904 20.7092C86.5956 20.9405 87.2279 21.7542 87.2279 22.688V27.415H82.1979C81.1621 27.415 80.3224 28.2548 80.3224 29.2905C80.3224 30.3267 81.1621 31.1663 82.1981 31.1663ZM87.2281 35.3618V39.7197C86.3726 39.8735 85.3291 40.1613 84.2979 40.6958V37.0418C85.4561 36.498 86.4234 35.9335 87.2281 35.3618ZM43.7026 37.042V40.696C42.6714 40.1615 41.6279 39.874 40.7724 39.7202V35.3618C41.5771 35.9335 42.5441 36.498 43.7026 37.042ZM50.3076 66.7958C46.4664 63.4885 44.1976 58.532 44.0831 53.1973C44.0614 52.1775 43.2281 51.362 42.2081 51.362H40.7159C39.5749 51.362 38.6464 50.4338 38.6464 49.2925V44.9205C38.6464 44.2913 38.9301 43.7083 39.4074 43.3198C40.0686 43.3783 41.3031 43.5765 42.3501 44.2415C42.3606 44.2482 42.3709 44.2548 42.3814 44.2615C42.5291 44.357 42.6726 44.4622 42.8104 44.5775C42.8264 44.5907 42.8424 44.6043 42.8581 44.618C42.9251 44.6758 42.9909 44.7352 43.0546 44.7982C43.1104 44.8532 43.1686 44.9045 43.2281 44.9535C43.2456 44.968 43.2634 44.9815 43.2811 44.9955C43.3261 45.0308 43.3719 45.0643 43.4186 45.096C43.4371 45.1085 43.4551 45.1213 43.4739 45.1333C43.5374 45.1743 43.6016 45.213 43.6679 45.2477C43.6681 45.248 43.6686 45.2482 43.6689 45.2485C43.7361 45.2838 43.8049 45.3153 43.8746 45.3442C43.8939 45.3522 43.9134 45.3595 43.9329 45.367C43.9859 45.3877 44.0391 45.4065 44.0931 45.4235C44.1134 45.43 44.1334 45.4365 44.1539 45.4422C44.2246 45.4627 44.2959 45.4807 44.3679 45.495C44.3691 45.4953 44.3701 45.4955 44.3714 45.4958C44.4454 45.5103 44.5201 45.5205 44.5951 45.5285C44.6154 45.5308 44.6356 45.532 44.6556 45.5335C44.7124 45.5382 44.7694 45.541 44.8266 45.5418C44.8396 45.542 44.8524 45.5435 44.8651 45.5435C44.8734 45.5435 44.8819 45.5423 44.8901 45.5423C44.9639 45.5415 45.0379 45.5385 45.1119 45.5315C45.1139 45.5312 45.1159 45.5312 45.1176 45.5312C45.1934 45.5238 45.2691 45.512 45.3446 45.4975C45.3659 45.4935 45.3871 45.4885 45.4084 45.484C45.4644 45.4718 45.5201 45.4578 45.5759 45.442C45.5979 45.4358 45.6199 45.4297 45.6419 45.4227C45.7159 45.3993 45.7894 45.3737 45.8621 45.3435C46.8291 44.9397 47.4539 44.0028 47.4539 42.9557V38.4702C52.2834 39.9912 58.2216 40.7777 64.0004 40.7777C69.7791 40.7777 75.7174 39.9912 80.5469 38.4702V42.9557C80.5469 44.0028 81.1716 44.94 82.1386 45.3435C82.2116 45.374 82.2856 45.3997 82.3599 45.4232C82.3809 45.4297 82.4019 45.4355 82.4229 45.4417C82.4799 45.458 82.5371 45.4725 82.5946 45.4847C82.6146 45.489 82.6346 45.4938 82.6549 45.4975C82.8066 45.5265 82.9596 45.5412 83.1121 45.5425C83.1199 45.5425 83.1279 45.5438 83.1356 45.5438C83.1476 45.5438 83.1596 45.5423 83.1719 45.542C83.2306 45.5412 83.2891 45.5382 83.3476 45.5335C83.3666 45.532 83.3856 45.5308 83.4046 45.5288C83.5546 45.513 83.7029 45.484 83.8479 45.442C83.8676 45.4363 83.8871 45.43 83.9069 45.4238C83.9614 45.4068 84.0151 45.3875 84.0686 45.3667C84.0879 45.3592 84.1074 45.352 84.1264 45.344C84.1961 45.315 84.2651 45.2835 84.3324 45.2482C84.3329 45.248 84.3334 45.2478 84.3339 45.2475C84.3999 45.2127 84.4641 45.174 84.5274 45.1333C84.5461 45.1213 84.5644 45.1082 84.5831 45.0957C84.6296 45.064 84.6754 45.0305 84.7201 44.9955C84.7381 44.9815 84.7561 44.9678 84.7736 44.9533C84.8331 44.904 84.8914 44.853 84.9469 44.798C85.0099 44.7355 85.0754 44.6768 85.1416 44.6195C85.1589 44.6045 85.1764 44.5898 85.1939 44.575C85.2554 44.5235 85.3176 44.4737 85.3814 44.4265C85.3874 44.422 85.3929 44.4175 85.3989 44.413C85.4679 44.3622 85.5381 44.3148 85.6091 44.2685C85.6281 44.256 85.6474 44.244 85.6666 44.2318C85.7299 44.192 85.7939 44.1535 85.8581 44.117C85.8674 44.1118 85.8766 44.106 85.8861 44.1007C85.9594 44.06 86.0331 44.0215 86.1074 43.9847C86.1259 43.9755 86.1444 43.9667 86.1629 43.9577C86.2294 43.9257 86.2961 43.8947 86.3629 43.8657C86.3721 43.8617 86.3811 43.8575 86.3904 43.8535C86.4674 43.8205 86.5444 43.7898 86.6211 43.7605C86.6349 43.7553 86.6484 43.7503 86.6621 43.7453C86.7351 43.718 86.8079 43.6922 86.8804 43.6683C86.8844 43.667 86.8884 43.6655 86.8924 43.6642C86.9736 43.6375 87.0544 43.6127 87.1341 43.5897C87.1371 43.589 87.1401 43.588 87.1431 43.5872C87.7144 43.4232 88.2379 43.351 88.5939 43.3192C89.0714 43.708 89.3551 44.2907 89.3551 44.9202V49.2923C89.3551 50.4335 88.4266 51.3618 87.2856 51.3618H85.7934C84.7731 51.3618 83.9401 52.1772 83.9184 53.197C83.8039 58.5317 81.5351 63.4883 77.6939 66.7955C73.7106 70.2253 69.1041 71.9955 64.0011 72.057C58.8976 71.9958 54.2909 70.2258 50.3076 66.7958ZM60.2639 89.8822C60.2626 89.8828 60.2651 89.8817 60.2639 89.8822L54.6881 92.251C54.3879 92.378 54.0466 92.2818 53.8576 92.0175L46.2941 81.4335L48.2614 81.068C48.3684 81.0485 48.4796 81.074 48.5669 81.1393C48.5696 81.1413 48.5641 81.1373 48.5669 81.1393L60.2639 89.8822ZM59.4084 124.249L62.8301 99.6592H65.1701L68.5919 124.249H59.4084ZM109.536 121.914C109.536 123.201 108.489 124.249 107.201 124.249H99.6994V109.04C99.6994 108.004 98.8596 107.165 97.8239 107.165C96.7881 107.165 95.9484 108.004 95.9484 109.04V124.249H72.3796L68.7774 98.3643L71.2749 95.4607L71.8461 95.7035C72.4166 95.9457 73.0104 96.0622 73.5956 96.0622C74.9904 96.0622 76.3361 95.4 77.1949 94.198L85.7766 82.189L96.5919 84.198C97.1561 84.3672 97.7069 84.565 98.2459 84.7842C96.2624 87.0003 96.1151 90.398 98.0411 92.7868L100.082 95.3183C101.119 96.604 102.594 97.409 104.237 97.585C104.461 97.6092 104.685 97.6212 104.908 97.6212C106.3 97.6212 107.639 97.1535 108.743 96.276C109.265 97.9825 109.536 99.7687 109.536 101.597V121.914H109.536Z" fill="black"/>
<path d="M89.6014 107.165H79.7242C78.0347 107.165 76.6602 108.54 76.6602 110.229V115.491C76.6602 117.181 78.0347 118.555 79.7242 118.555H89.6014C91.2909 118.555 92.6652 117.181 92.6652 115.491V110.229C92.6652 108.539 91.2907 107.165 89.6014 107.165ZM88.9139 114.804H80.4112V110.916H88.9139V114.804Z" fill="black"/>
<path d="M48.275 118.555C49.9645 118.555 51.339 117.18 51.339 115.491V110.229C51.339 108.539 49.9645 107.165 48.275 107.165H38.3977C36.7082 107.165 35.334 108.539 35.334 110.229V115.491C35.334 117.18 36.7085 118.555 38.3977 118.555H48.275ZM39.0847 110.916H47.5875V114.804H39.0847V110.916Z" fill="black"/>
</svg>
