<svg width="350" height="234" viewBox="0 0 350 234" fill="none" xmlns="http://www.w3.org/2000/svg">
<path d="M127.454 200V183.273H138.725V186.189H130.99V190.174H138.145V193.09H130.99V197.084H138.758V200H127.454ZM144.951 183.273V200H141.472V183.273H144.951ZM153.455 200.245C152.165 200.245 151.054 199.984 150.123 199.461C149.197 198.933 148.484 198.187 147.983 197.223C147.482 196.254 147.232 195.108 147.232 193.784C147.232 192.494 147.482 191.361 147.983 190.387C148.484 189.412 149.189 188.652 150.099 188.108C151.013 187.563 152.086 187.291 153.317 187.291C154.144 187.291 154.915 187.425 155.628 187.691C156.347 187.953 156.973 188.348 157.507 188.876C158.046 189.404 158.465 190.068 158.764 190.869C159.064 191.664 159.214 192.595 159.214 193.662V194.618H148.62V192.461H155.938C155.938 191.96 155.829 191.517 155.612 191.13C155.394 190.743 155.092 190.441 154.705 190.223C154.324 190 153.88 189.888 153.374 189.888C152.846 189.888 152.377 190.011 151.969 190.256C151.566 190.496 151.25 190.82 151.021 191.228C150.793 191.631 150.676 192.08 150.67 192.576V194.626C150.67 195.246 150.785 195.783 151.013 196.235C151.247 196.687 151.577 197.035 152.002 197.28C152.426 197.525 152.93 197.648 153.513 197.648C153.899 197.648 154.253 197.593 154.574 197.484C154.896 197.375 155.171 197.212 155.399 196.994C155.628 196.777 155.802 196.51 155.922 196.194L159.14 196.406C158.977 197.179 158.642 197.855 158.135 198.432C157.635 199.004 156.987 199.45 156.192 199.771C155.402 200.087 154.49 200.245 153.455 200.245ZM167.153 200.245C165.867 200.245 164.762 199.973 163.836 199.428C162.916 198.878 162.208 198.116 161.713 197.141C161.223 196.167 160.978 195.045 160.978 193.776C160.978 192.491 161.226 191.364 161.721 190.395C162.222 189.42 162.933 188.661 163.853 188.116C164.773 187.566 165.867 187.291 167.136 187.291C168.231 187.291 169.189 187.49 170.011 187.887C170.833 188.285 171.484 188.843 171.963 189.562C172.442 190.281 172.706 191.125 172.756 192.094H169.472C169.38 191.468 169.135 190.964 168.737 190.583C168.345 190.196 167.83 190.003 167.193 190.003C166.654 190.003 166.183 190.15 165.78 190.444C165.383 190.732 165.073 191.154 164.849 191.71C164.626 192.265 164.514 192.938 164.514 193.727C164.514 194.528 164.623 195.208 164.841 195.769C165.064 196.33 165.377 196.757 165.78 197.051C166.183 197.346 166.654 197.493 167.193 197.493C167.591 197.493 167.948 197.411 168.263 197.248C168.585 197.084 168.849 196.847 169.056 196.537C169.268 196.221 169.407 195.843 169.472 195.402H172.756C172.701 196.36 172.44 197.204 171.971 197.934C171.509 198.658 170.869 199.224 170.052 199.632C169.235 200.041 168.269 200.245 167.153 200.245ZM181.656 187.455V190.068H174.101V187.455H181.656ZM175.816 184.449H179.296V196.145C179.296 196.466 179.345 196.717 179.443 196.896C179.541 197.071 179.677 197.193 179.851 197.264C180.031 197.335 180.238 197.37 180.472 197.37C180.635 197.37 180.799 197.356 180.962 197.329C181.125 197.297 181.251 197.272 181.338 197.256L181.885 199.845C181.711 199.899 181.466 199.962 181.15 200.033C180.834 200.109 180.45 200.155 179.998 200.172C179.16 200.204 178.425 200.093 177.793 199.837C177.167 199.581 176.679 199.183 176.331 198.644C175.982 198.105 175.811 197.424 175.816 196.602V184.449ZM183.923 200V187.455H187.296V189.643H187.427C187.655 188.865 188.039 188.277 188.578 187.879C189.117 187.476 189.738 187.275 190.44 187.275C190.615 187.275 190.803 187.286 191.004 187.308C191.205 187.329 191.382 187.359 191.535 187.397V190.485C191.372 190.436 191.146 190.392 190.857 190.354C190.568 190.316 190.304 190.297 190.065 190.297C189.553 190.297 189.095 190.408 188.693 190.632C188.295 190.85 187.979 191.154 187.745 191.547C187.516 191.939 187.402 192.391 187.402 192.902V200H183.923ZM193.334 200V187.455H196.813V200H193.334ZM195.082 185.837C194.564 185.837 194.121 185.666 193.75 185.323C193.386 184.974 193.203 184.558 193.203 184.073C193.203 183.594 193.386 183.183 193.75 182.84C194.121 182.491 194.564 182.317 195.082 182.317C195.599 182.317 196.04 182.491 196.405 182.84C196.775 183.183 196.96 183.594 196.96 184.073C196.96 184.558 196.775 184.974 196.405 185.323C196.04 185.666 195.599 185.837 195.082 185.837ZM205.269 200.245C203.984 200.245 202.878 199.973 201.953 199.428C201.032 198.878 200.325 198.116 199.829 197.141C199.339 196.167 199.094 195.045 199.094 193.776C199.094 192.491 199.342 191.364 199.837 190.395C200.338 189.42 201.049 188.661 201.969 188.116C202.889 187.566 203.984 187.291 205.252 187.291C206.347 187.291 207.305 187.49 208.127 187.887C208.95 188.285 209.6 188.843 210.079 189.562C210.559 190.281 210.823 191.125 210.872 192.094H207.588C207.496 191.468 207.251 190.964 206.853 190.583C206.461 190.196 205.947 190.003 205.31 190.003C204.771 190.003 204.3 190.15 203.897 190.444C203.499 190.732 203.189 191.154 202.965 191.71C202.742 192.265 202.631 192.938 202.631 193.727C202.631 194.528 202.739 195.208 202.957 195.769C203.181 196.33 203.494 196.757 203.897 197.051C204.3 197.346 204.771 197.493 205.31 197.493C205.707 197.493 206.064 197.411 206.38 197.248C206.701 197.084 206.965 196.847 207.172 196.537C207.384 196.221 207.523 195.843 207.588 195.402H210.872C210.817 196.36 210.556 197.204 210.088 197.934C209.625 198.658 208.985 199.224 208.168 199.632C207.351 200.041 206.385 200.245 205.269 200.245ZM213.099 200V187.455H216.579V200H213.099ZM214.847 185.837C214.33 185.837 213.886 185.666 213.516 185.323C213.151 184.974 212.969 184.558 212.969 184.073C212.969 183.594 213.151 183.183 213.516 182.84C213.886 182.491 214.33 182.317 214.847 182.317C215.365 182.317 215.806 182.491 216.17 182.84C216.541 183.183 216.726 183.594 216.726 184.073C216.726 184.558 216.541 184.974 216.17 185.323C215.806 185.666 215.365 185.837 214.847 185.837ZM222.943 200.237C222.143 200.237 221.43 200.098 220.804 199.82C220.177 199.537 219.682 199.121 219.317 198.571C218.958 198.015 218.778 197.324 218.778 196.496C218.778 195.799 218.906 195.214 219.162 194.74C219.418 194.266 219.766 193.885 220.207 193.597C220.648 193.308 221.149 193.09 221.71 192.943C222.276 192.796 222.87 192.693 223.491 192.633C224.22 192.557 224.808 192.486 225.255 192.42C225.701 192.35 226.025 192.246 226.227 192.11C226.428 191.974 226.529 191.772 226.529 191.506V191.457C226.529 190.939 226.366 190.539 226.039 190.256C225.718 189.973 225.26 189.831 224.667 189.831C224.041 189.831 223.542 189.97 223.172 190.248C222.802 190.52 222.557 190.863 222.437 191.277L219.219 191.016C219.382 190.253 219.704 189.594 220.183 189.039C220.662 188.478 221.28 188.048 222.037 187.749C222.799 187.444 223.681 187.291 224.683 187.291C225.38 187.291 226.047 187.373 226.684 187.536C227.327 187.7 227.896 187.953 228.391 188.296C228.892 188.639 229.287 189.08 229.576 189.619C229.864 190.153 230.008 190.792 230.008 191.538V200H226.709V198.26H226.611C226.409 198.652 226.14 198.998 225.802 199.298C225.465 199.592 225.059 199.823 224.585 199.992C224.111 200.155 223.564 200.237 222.943 200.237ZM223.94 197.836C224.452 197.836 224.904 197.735 225.296 197.533C225.688 197.326 225.995 197.049 226.219 196.7C226.442 196.352 226.554 195.957 226.554 195.516V194.185C226.445 194.255 226.295 194.321 226.104 194.381C225.919 194.435 225.71 194.487 225.475 194.536C225.241 194.579 225.007 194.62 224.773 194.658C224.539 194.691 224.326 194.721 224.136 194.748C223.728 194.808 223.371 194.903 223.066 195.034C222.761 195.165 222.524 195.342 222.355 195.565C222.187 195.783 222.102 196.055 222.102 196.382C222.102 196.855 222.274 197.218 222.617 197.468C222.965 197.713 223.406 197.836 223.94 197.836ZM236.187 192.747V200H232.708V187.455H236.024V189.668H236.171C236.449 188.938 236.914 188.361 237.568 187.936C238.221 187.506 239.013 187.291 239.944 187.291C240.816 187.291 241.575 187.482 242.223 187.863C242.871 188.244 243.375 188.789 243.734 189.496C244.093 190.199 244.273 191.037 244.273 192.012V200H240.794V192.633C240.799 191.865 240.603 191.266 240.206 190.836C239.808 190.4 239.261 190.183 238.564 190.183C238.096 190.183 237.682 190.283 237.323 190.485C236.969 190.686 236.691 190.98 236.489 191.367C236.293 191.748 236.193 192.208 236.187 192.747Z" fill="white"/>
<rect width="350" height="234" rx="28" fill="#0A8996"/>
<circle cx="175.5" cy="93.5" r="70.5" fill="white"/>
<path d="M51.4538 200V183.273H58.0533C59.322 183.273 60.4028 183.515 61.2958 184C62.1888 184.479 62.8694 185.146 63.3377 186.001C63.8114 186.85 64.0483 187.83 64.0483 188.941C64.0483 190.052 63.8087 191.032 63.3295 191.881C62.8504 192.731 62.1561 193.392 61.2468 193.866C60.3429 194.34 59.2485 194.577 57.9634 194.577H53.7571V191.743H57.3917C58.0723 191.743 58.6332 191.625 59.0742 191.391C59.5207 191.152 59.8529 190.822 60.0707 190.403C60.2939 189.978 60.4055 189.491 60.4055 188.941C60.4055 188.386 60.2939 187.901 60.0707 187.487C59.8529 187.068 59.5207 186.744 59.0742 186.515C58.6277 186.281 58.0614 186.164 57.3754 186.164H54.9904V200H51.4538ZM66.2801 200V187.455H69.6533V189.643H69.784C70.0127 188.865 70.3966 188.277 70.9356 187.879C71.4747 187.476 72.0954 187.275 72.7979 187.275C72.9721 187.275 73.1599 187.286 73.3614 187.308C73.5629 187.329 73.7399 187.359 73.8923 187.397V190.485C73.729 190.436 73.503 190.392 73.2144 190.354C72.9258 190.316 72.6617 190.297 72.4221 190.297C71.9103 190.297 71.4529 190.408 71.05 190.632C70.6525 190.85 70.3367 191.154 70.1025 191.547C69.8738 191.939 69.7595 192.391 69.7595 192.902V200H66.2801ZM80.7756 200.245C79.5069 200.245 78.4097 199.975 77.484 199.436C76.5638 198.892 75.8532 198.135 75.3523 197.166C74.8513 196.191 74.6009 195.061 74.6009 193.776C74.6009 192.48 74.8513 191.348 75.3523 190.379C75.8532 189.404 76.5638 188.647 77.484 188.108C78.4097 187.563 79.5069 187.291 80.7756 187.291C82.0443 187.291 83.1387 187.563 84.0589 188.108C84.9846 188.647 85.6979 189.404 86.1989 190.379C86.6998 191.348 86.9503 192.48 86.9503 193.776C86.9503 195.061 86.6998 196.191 86.1989 197.166C85.6979 198.135 84.9846 198.892 84.0589 199.436C83.1387 199.975 82.0443 200.245 80.7756 200.245ZM80.7919 197.55C81.3691 197.55 81.851 197.386 82.2376 197.06C82.6242 196.728 82.9155 196.276 83.1115 195.704C83.313 195.132 83.4137 194.481 83.4137 193.752C83.4137 193.022 83.313 192.371 83.1115 191.8C82.9155 191.228 82.6242 190.776 82.2376 190.444C81.851 190.112 81.3691 189.946 80.7919 189.946C80.2093 189.946 79.7192 190.112 79.3217 190.444C78.9297 190.776 78.6329 191.228 78.4315 191.8C78.2354 192.371 78.1374 193.022 78.1374 193.752C78.1374 194.481 78.2354 195.132 78.4315 195.704C78.6329 196.276 78.9297 196.728 79.3217 197.06C79.7192 197.386 80.2093 197.55 80.7919 197.55ZM94.8647 204.966C93.7376 204.966 92.7711 204.811 91.9652 204.5C91.1648 204.195 90.5277 203.779 90.054 203.251C89.5803 202.723 89.2726 202.129 89.131 201.47L92.3491 201.037C92.4471 201.288 92.6023 201.522 92.8146 201.74C93.027 201.958 93.3074 202.132 93.6559 202.262C94.0098 202.399 94.44 202.467 94.9464 202.467C95.7032 202.467 96.3267 202.281 96.8168 201.911C97.3123 201.546 97.56 200.934 97.56 200.074V197.778H97.413C97.2605 198.127 97.0318 198.456 96.7269 198.767C96.422 199.077 96.0299 199.33 95.5508 199.526C95.0716 199.722 94.4999 199.82 93.8356 199.82C92.8936 199.82 92.036 199.603 91.2628 199.167C90.495 198.726 89.8825 198.053 89.4251 197.15C88.9731 196.24 88.7472 195.091 88.7472 193.703C88.7472 192.282 88.9786 191.095 89.4414 190.142C89.9042 189.189 90.5195 188.475 91.2873 188.002C92.0605 187.528 92.9072 187.291 93.8274 187.291C94.5298 187.291 95.1179 187.411 95.5916 187.651C96.0653 187.885 96.4465 188.179 96.7351 188.533C97.0291 188.881 97.2551 189.224 97.413 189.562H97.5437V187.455H100.999V200.123C100.999 201.19 100.737 202.083 100.214 202.801C99.6918 203.52 98.9676 204.059 98.0419 204.419C97.1217 204.783 96.0626 204.966 94.8647 204.966ZM94.9382 197.207C95.4991 197.207 95.9728 197.068 96.3594 196.79C96.7514 196.507 97.0509 196.104 97.2578 195.581C97.4702 195.053 97.5763 194.422 97.5763 193.686C97.5763 192.951 97.4729 192.314 97.266 191.775C97.0591 191.231 96.7596 190.809 96.3675 190.509C95.9755 190.21 95.4991 190.06 94.9382 190.06C94.3665 190.06 93.8846 190.215 93.4925 190.526C93.1005 190.83 92.8037 191.255 92.6023 191.8C92.4008 192.344 92.3001 192.973 92.3001 193.686C92.3001 194.411 92.4008 195.037 92.6023 195.565C92.8092 196.088 93.1059 196.493 93.4925 196.782C93.8846 197.065 94.3665 197.207 94.9382 197.207ZM103.767 200V187.455H107.141V189.643H107.271C107.5 188.865 107.884 188.277 108.423 187.879C108.962 187.476 109.583 187.275 110.285 187.275C110.459 187.275 110.647 187.286 110.849 187.308C111.05 187.329 111.227 187.359 111.38 187.397V190.485C111.216 190.436 110.99 190.392 110.702 190.354C110.413 190.316 110.149 190.297 109.909 190.297C109.398 190.297 108.94 190.408 108.537 190.632C108.14 190.85 107.824 191.154 107.59 191.547C107.361 191.939 107.247 192.391 107.247 192.902V200H103.767ZM116.397 200.237C115.596 200.237 114.883 200.098 114.257 199.82C113.63 199.537 113.135 199.121 112.77 198.571C112.411 198.015 112.231 197.324 112.231 196.496C112.231 195.799 112.359 195.214 112.615 194.74C112.871 194.266 113.219 193.885 113.66 193.597C114.101 193.308 114.602 193.09 115.163 192.943C115.73 192.796 116.323 192.693 116.944 192.633C117.673 192.557 118.262 192.486 118.708 192.42C119.155 192.35 119.478 192.246 119.68 192.11C119.881 191.974 119.982 191.772 119.982 191.506V191.457C119.982 190.939 119.819 190.539 119.492 190.256C119.171 189.973 118.713 189.831 118.12 189.831C117.494 189.831 116.996 189.97 116.625 190.248C116.255 190.52 116.01 190.863 115.89 191.277L112.672 191.016C112.835 190.253 113.157 189.594 113.636 189.039C114.115 188.478 114.733 188.048 115.49 187.749C116.252 187.444 117.134 187.291 118.136 187.291C118.833 187.291 119.5 187.373 120.137 187.536C120.78 187.7 121.349 187.953 121.844 188.296C122.345 188.639 122.74 189.08 123.029 189.619C123.317 190.153 123.462 190.792 123.462 191.538V200H120.162V198.26H120.064C119.862 198.652 119.593 198.998 119.255 199.298C118.918 199.592 118.512 199.823 118.038 199.992C117.565 200.155 117.017 200.237 116.397 200.237ZM117.393 197.836C117.905 197.836 118.357 197.735 118.749 197.533C119.141 197.326 119.449 197.049 119.672 196.7C119.895 196.352 120.007 195.957 120.007 195.516V194.185C119.898 194.255 119.748 194.321 119.557 194.381C119.372 194.435 119.163 194.487 118.929 194.536C118.694 194.579 118.46 194.62 118.226 194.658C117.992 194.691 117.78 194.721 117.589 194.748C117.181 194.808 116.824 194.903 116.519 195.034C116.214 195.165 115.977 195.342 115.809 195.565C115.64 195.783 115.555 196.055 115.555 196.382C115.555 196.855 115.727 197.218 116.07 197.468C116.418 197.713 116.859 197.836 117.393 197.836ZM126.161 200V187.455H129.477V189.668H129.624C129.885 188.933 130.321 188.353 130.931 187.928C131.541 187.504 132.27 187.291 133.12 187.291C133.98 187.291 134.712 187.506 135.317 187.936C135.921 188.361 136.324 188.938 136.526 189.668H136.656C136.912 188.949 137.375 188.375 138.045 187.945C138.72 187.509 139.518 187.291 140.438 187.291C141.609 187.291 142.559 187.664 143.288 188.41C144.024 189.151 144.391 190.202 144.391 191.563V200H140.92V192.249C140.92 191.552 140.735 191.029 140.364 190.681C139.994 190.332 139.531 190.158 138.976 190.158C138.344 190.158 137.852 190.359 137.498 190.762C137.144 191.16 136.967 191.685 136.967 192.339V200H133.593V192.175C133.593 191.56 133.417 191.07 133.063 190.705C132.714 190.34 132.254 190.158 131.682 190.158C131.296 190.158 130.947 190.256 130.637 190.452C130.332 190.643 130.09 190.912 129.91 191.261C129.73 191.604 129.64 192.007 129.64 192.469V200H126.161ZM152.528 183.273H156.89L161.496 194.511H161.692L166.299 183.273H170.66V200H167.23V189.113H167.091L162.762 199.918H160.426L156.097 189.072H155.958V200H152.528V183.273ZM177.086 200.237C176.286 200.237 175.572 200.098 174.946 199.82C174.32 199.537 173.824 199.121 173.46 198.571C173.1 198.015 172.921 197.324 172.921 196.496C172.921 195.799 173.049 195.214 173.304 194.74C173.56 194.266 173.909 193.885 174.35 193.597C174.791 193.308 175.292 193.09 175.853 192.943C176.419 192.796 177.013 192.693 177.633 192.633C178.363 192.557 178.951 192.486 179.397 192.42C179.844 192.35 180.168 192.246 180.369 192.11C180.571 191.974 180.672 191.772 180.672 191.506V191.457C180.672 190.939 180.508 190.539 180.182 190.256C179.86 189.973 179.403 189.831 178.809 189.831C178.183 189.831 177.685 189.97 177.315 190.248C176.944 190.52 176.699 190.863 176.58 191.277L173.362 191.016C173.525 190.253 173.846 189.594 174.325 189.039C174.805 188.478 175.423 188.048 176.179 187.749C176.942 187.444 177.824 187.291 178.826 187.291C179.523 187.291 180.19 187.373 180.827 187.536C181.469 187.7 182.038 187.953 182.534 188.296C183.035 188.639 183.43 189.08 183.718 189.619C184.007 190.153 184.151 190.792 184.151 191.538V200H180.851V198.26H180.753C180.552 198.652 180.282 198.998 179.945 199.298C179.607 199.592 179.201 199.823 178.728 199.992C178.254 200.155 177.707 200.237 177.086 200.237ZM178.082 197.836C178.594 197.836 179.046 197.735 179.438 197.533C179.83 197.326 180.138 197.049 180.361 196.7C180.584 196.352 180.696 195.957 180.696 195.516V194.185C180.587 194.255 180.437 194.321 180.247 194.381C180.062 194.435 179.852 194.487 179.618 194.536C179.384 194.579 179.15 194.62 178.916 194.658C178.681 194.691 178.469 194.721 178.278 194.748C177.87 194.808 177.513 194.903 177.209 195.034C176.904 195.165 176.667 195.342 176.498 195.565C176.329 195.783 176.245 196.055 176.245 196.382C176.245 196.855 176.416 197.218 176.759 197.468C177.108 197.713 177.549 197.836 178.082 197.836ZM190.33 192.747V200H186.85V187.455H190.166V189.668H190.313C190.591 188.938 191.057 188.361 191.71 187.936C192.364 187.506 193.156 187.291 194.087 187.291C194.958 187.291 195.718 187.482 196.366 187.863C197.014 188.244 197.517 188.789 197.877 189.496C198.236 190.199 198.416 191.037 198.416 192.012V200H194.936V192.633C194.942 191.865 194.746 191.266 194.348 190.836C193.951 190.4 193.404 190.183 192.707 190.183C192.238 190.183 191.824 190.283 191.465 190.485C191.111 190.686 190.833 190.98 190.632 191.367C190.436 191.748 190.335 192.208 190.33 192.747ZM204.735 200.237C203.935 200.237 203.222 200.098 202.596 199.82C201.969 199.537 201.474 199.121 201.109 198.571C200.75 198.015 200.57 197.324 200.57 196.496C200.57 195.799 200.698 195.214 200.954 194.74C201.21 194.266 201.558 193.885 201.999 193.597C202.44 193.308 202.941 193.09 203.502 192.943C204.068 192.796 204.662 192.693 205.283 192.633C206.012 192.557 206.6 192.486 207.047 192.42C207.493 192.35 207.817 192.246 208.019 192.11C208.22 191.974 208.321 191.772 208.321 191.506V191.457C208.321 190.939 208.158 190.539 207.831 190.256C207.51 189.973 207.052 189.831 206.459 189.831C205.833 189.831 205.334 189.97 204.964 190.248C204.594 190.52 204.349 190.863 204.229 191.277L201.011 191.016C201.174 190.253 201.496 189.594 201.975 189.039C202.454 188.478 203.072 188.048 203.829 187.749C204.591 187.444 205.473 187.291 206.475 187.291C207.172 187.291 207.839 187.373 208.476 187.536C209.119 187.7 209.688 187.953 210.183 188.296C210.684 188.639 211.079 189.08 211.368 189.619C211.656 190.153 211.8 190.792 211.8 191.538V200H208.501V198.26H208.403C208.201 198.652 207.932 198.998 207.594 199.298C207.257 199.592 206.851 199.823 206.377 199.992C205.903 200.155 205.356 200.237 204.735 200.237ZM205.732 197.836C206.244 197.836 206.696 197.735 207.088 197.533C207.48 197.326 207.787 197.049 208.011 196.7C208.234 196.352 208.346 195.957 208.346 195.516V194.185C208.237 194.255 208.087 194.321 207.896 194.381C207.711 194.435 207.502 194.487 207.267 194.536C207.033 194.579 206.799 194.62 206.565 194.658C206.331 194.691 206.118 194.721 205.928 194.748C205.52 194.808 205.163 194.903 204.858 195.034C204.553 195.165 204.316 195.342 204.147 195.565C203.979 195.783 203.894 196.055 203.894 196.382C203.894 196.855 204.066 197.218 204.409 197.468C204.757 197.713 205.198 197.836 205.732 197.836ZM220.152 204.966C219.025 204.966 218.058 204.811 217.252 204.5C216.452 204.195 215.815 203.779 215.341 203.251C214.867 202.723 214.56 202.129 214.418 201.47L217.636 201.037C217.734 201.288 217.889 201.522 218.102 201.74C218.314 201.958 218.595 202.132 218.943 202.262C219.297 202.399 219.727 202.467 220.233 202.467C220.99 202.467 221.614 202.281 222.104 201.911C222.599 201.546 222.847 200.934 222.847 200.074V197.778H222.7C222.548 198.127 222.319 198.456 222.014 198.767C221.709 199.077 221.317 199.33 220.838 199.526C220.359 199.722 219.787 199.82 219.123 199.82C218.181 199.82 217.323 199.603 216.55 199.167C215.782 198.726 215.17 198.053 214.712 197.15C214.26 196.24 214.034 195.091 214.034 193.703C214.034 192.282 214.266 191.095 214.729 190.142C215.191 189.189 215.807 188.475 216.574 188.002C217.348 187.528 218.194 187.291 219.115 187.291C219.817 187.291 220.405 187.411 220.879 187.651C221.352 187.885 221.734 188.179 222.022 188.533C222.316 188.881 222.542 189.224 222.7 189.562H222.831V187.455H226.286V200.123C226.286 201.19 226.024 202.083 225.502 202.801C224.979 203.52 224.255 204.059 223.329 204.419C222.409 204.783 221.35 204.966 220.152 204.966ZM220.225 197.207C220.786 197.207 221.26 197.068 221.646 196.79C222.039 196.507 222.338 196.104 222.545 195.581C222.757 195.053 222.863 194.422 222.863 193.686C222.863 192.951 222.76 192.314 222.553 191.775C222.346 191.231 222.047 190.809 221.655 190.509C221.263 190.21 220.786 190.06 220.225 190.06C219.654 190.06 219.172 190.215 218.78 190.526C218.388 190.83 218.091 191.255 217.889 191.8C217.688 192.344 217.587 192.973 217.587 193.686C217.587 194.411 217.688 195.037 217.889 195.565C218.096 196.088 218.393 196.493 218.78 196.782C219.172 197.065 219.654 197.207 220.225 197.207ZM234.772 200.245C233.481 200.245 232.371 199.984 231.439 199.461C230.514 198.933 229.8 198.187 229.3 197.223C228.799 196.254 228.548 195.108 228.548 193.784C228.548 192.494 228.799 191.361 229.3 190.387C229.8 189.412 230.506 188.652 231.415 188.108C232.33 187.563 233.402 187.291 234.633 187.291C235.461 187.291 236.231 187.425 236.944 187.691C237.663 187.953 238.289 188.348 238.823 188.876C239.362 189.404 239.781 190.068 240.081 190.869C240.38 191.664 240.53 192.595 240.53 193.662V194.618H229.937V192.461H237.255C237.255 191.96 237.146 191.517 236.928 191.13C236.71 190.743 236.408 190.441 236.021 190.223C235.64 190 235.197 189.888 234.69 189.888C234.162 189.888 233.694 190.011 233.285 190.256C232.882 190.496 232.567 190.82 232.338 191.228C232.109 191.631 231.992 192.08 231.987 192.576V194.626C231.987 195.246 232.101 195.783 232.33 196.235C232.564 196.687 232.893 197.035 233.318 197.28C233.743 197.525 234.246 197.648 234.829 197.648C235.216 197.648 235.57 197.593 235.891 197.484C236.212 197.375 236.487 197.212 236.716 196.994C236.944 196.777 237.119 196.51 237.238 196.194L240.456 196.406C240.293 197.179 239.958 197.855 239.452 198.432C238.951 199.004 238.303 199.45 237.508 199.771C236.718 200.087 235.806 200.245 234.772 200.245ZM242.801 200V187.455H246.117V189.668H246.264C246.525 188.933 246.961 188.353 247.57 187.928C248.18 187.504 248.91 187.291 249.759 187.291C250.62 187.291 251.352 187.506 251.956 187.936C252.561 188.361 252.964 188.938 253.165 189.668H253.296C253.552 188.949 254.015 188.375 254.684 187.945C255.36 187.509 256.157 187.291 257.078 187.291C258.248 187.291 259.198 187.664 259.928 188.41C260.663 189.151 261.031 190.202 261.031 191.563V200H257.559V192.249C257.559 191.552 257.374 191.029 257.004 190.681C256.634 190.332 256.171 190.158 255.616 190.158C254.984 190.158 254.491 190.359 254.137 190.762C253.783 191.16 253.606 191.685 253.606 192.339V200H250.233V192.175C250.233 191.56 250.056 191.07 249.702 190.705C249.354 190.34 248.894 190.158 248.322 190.158C247.935 190.158 247.587 190.256 247.276 190.452C246.972 190.643 246.729 190.912 246.55 191.261C246.37 191.604 246.28 192.007 246.28 192.469V200H242.801ZM269.496 200.245C268.206 200.245 267.095 199.984 266.164 199.461C265.238 198.933 264.525 198.187 264.024 197.223C263.523 196.254 263.273 195.108 263.273 193.784C263.273 192.494 263.523 191.361 264.024 190.387C264.525 189.412 265.23 188.652 266.14 188.108C267.054 187.563 268.127 187.291 269.358 187.291C270.185 187.291 270.956 187.425 271.669 187.691C272.388 187.953 273.014 188.348 273.548 188.876C274.087 189.404 274.506 190.068 274.805 190.869C275.105 191.664 275.255 192.595 275.255 193.662V194.618H264.661V192.461H271.979C271.979 191.96 271.871 191.517 271.653 191.13C271.435 190.743 271.133 190.441 270.746 190.223C270.365 190 269.921 189.888 269.415 189.888C268.887 189.888 268.418 190.011 268.01 190.256C267.607 190.496 267.291 190.82 267.062 191.228C266.834 191.631 266.717 192.08 266.711 192.576V194.626C266.711 195.246 266.826 195.783 267.054 196.235C267.288 196.687 267.618 197.035 268.043 197.28C268.467 197.525 268.971 197.648 269.554 197.648C269.94 197.648 270.294 197.593 270.615 197.484C270.937 197.375 271.212 197.212 271.44 196.994C271.669 196.777 271.843 196.51 271.963 196.194L275.181 196.406C275.018 197.179 274.683 197.855 274.176 198.432C273.676 199.004 273.028 199.45 272.233 199.771C271.443 200.087 270.531 200.245 269.496 200.245ZM281.005 192.747V200H277.525V187.455H280.841V189.668H280.988C281.266 188.938 281.732 188.361 282.385 187.936C283.038 187.506 283.831 187.291 284.762 187.291C285.633 187.291 286.393 187.482 287.04 187.863C287.688 188.244 288.192 188.789 288.551 189.496C288.911 190.199 289.091 191.037 289.091 192.012V200H285.611V192.633C285.617 191.865 285.421 191.266 285.023 190.836C284.626 190.4 284.078 190.183 283.381 190.183C282.913 190.183 282.499 190.283 282.14 190.485C281.786 190.686 281.508 190.98 281.307 191.367C281.111 191.748 281.01 192.208 281.005 192.747ZM298.506 187.455V190.068H290.951V187.455H298.506ZM292.666 184.449H296.145V196.145C296.145 196.466 296.194 196.717 296.292 196.896C296.39 197.071 296.526 197.193 296.701 197.264C296.88 197.335 297.087 197.37 297.321 197.37C297.485 197.37 297.648 197.356 297.812 197.329C297.975 197.297 298.1 197.272 298.187 197.256L298.734 199.845C298.56 199.899 298.315 199.962 297.999 200.033C297.684 200.109 297.3 200.155 296.848 200.172C296.009 200.204 295.274 200.093 294.642 199.837C294.016 199.581 293.529 199.183 293.18 198.644C292.832 198.105 292.66 197.424 292.666 196.602V184.449Z" fill="white"/>
<path d="M161.194 54.3491C157.969 54.3491 155.355 51.808 155.355 48.6736V42.125C155.355 40.4917 156.718 39.1678 158.397 39.1678H163.991C165.671 39.1678 167.033 40.4917 167.033 42.125V48.6736C167.033 51.808 164.419 54.3491 161.194 54.3491Z" fill="#FCC1B9"/>
<path d="M167.033 42.3044V47.9262C167.033 46.2388 165.74 44.8632 164.12 44.7927C164.078 44.7912 164.035 44.7897 163.992 44.7897H158.398C156.717 44.7897 155.355 46.1946 155.355 47.9262V42.3044C155.355 40.5728 156.717 39.1678 158.398 39.1678H163.992C165.671 39.1678 167.033 40.5728 167.033 42.3044Z" fill="#354968"/>
<path d="M146.652 117.993H144.207C143.27 117.993 142.51 117.222 142.51 116.27V112.154H148.349V116.269C148.349 117.222 147.589 117.993 146.652 117.993Z" fill="#FCC1B9"/>
<path d="M151.851 100.96V106.992C151.851 110.488 148.976 113.322 145.429 113.322C141.882 113.322 139.006 110.488 139.006 106.992V100.96C139.006 98.4343 141.083 96.3892 143.643 96.3892H147.214C149.776 96.3892 151.851 98.4343 151.851 100.96Z" fill="#FCC1B9"/>
<path d="M151.851 100.983V102.29C151.851 105.803 148.976 108.651 145.429 108.651C141.882 108.651 139.006 105.803 139.006 102.29V100.983C139.006 98.4444 141.083 96.3892 143.643 96.3892H147.214C149.776 96.3892 151.851 98.4444 151.851 100.983Z" fill="#354968"/>
<path d="M171.706 63.442V71.9663C171.706 72.8784 170.972 73.6174 170.068 73.6174H152.324C151.419 73.6174 150.686 72.8784 150.686 71.9663V63.442C150.686 60.0324 153.428 57.2684 156.811 57.2684H165.581C168.963 57.2684 171.706 60.0324 171.706 63.442Z" fill="#48BBED"/>
<path d="M164.114 53.7651V57.4817C164.114 58.9759 162.938 60.1879 161.488 60.1879C160.036 60.1879 158.859 58.9759 158.859 57.4817V53.7651H164.114Z" fill="#FCC1B9"/>
<path d="M164.114 53.7651V55.4818C163.319 55.8766 162.401 56.1006 161.422 56.1006C160.496 56.1006 159.624 55.9002 158.859 55.5454V53.7651H164.114Z" fill="#F9AFA7"/>
<path d="M147.765 73.0336H174.04V113.322H147.765V73.0336Z" fill="#BD9B7B"/>
<path d="M147.765 73.0336V76.6322H160.109C165.792 76.6322 170.399 81.2968 170.399 87.0503V113.322H174.04V73.0336H147.765Z" fill="#B38A65"/>
<path d="M178.284 73.0336H144.104C143.224 73.0336 142.51 72.3401 142.51 71.4846V69.9107C142.51 69.0552 143.224 68.3624 144.104 68.3624H178.284C179.165 68.3624 179.879 69.0552 179.879 69.9107V71.4846C179.879 72.3401 179.165 73.0336 178.284 73.0336Z" fill="#C9AD91"/>
<path d="M202.651 106.332V127.956C202.651 128.902 201.877 129.671 200.922 129.671H179.857C178.902 129.671 178.128 128.902 178.128 127.956V106.332C178.128 102.452 181.296 99.3087 185.202 99.3087H195.577C199.484 99.3087 202.651 102.452 202.651 106.332Z" fill="#37CD90"/>
<path d="M191.612 101.06H189.167C188.229 101.06 187.47 100.289 187.47 99.3366V95.2215H193.309V99.3366C193.308 100.289 192.549 101.06 191.612 101.06Z" fill="#FCC1B9"/>
<path d="M196.812 84.0272V90.0595C196.812 93.5549 193.937 96.3892 190.39 96.3892C186.843 96.3892 183.967 93.5549 183.967 90.0595V84.0272C183.967 81.5022 186.044 79.4564 188.604 79.4564H192.175C194.737 79.4571 196.812 81.5022 196.812 84.0272Z" fill="#FCC1B9"/>
<path d="M196.812 84.0494V85.3569C196.812 88.87 193.937 91.7181 190.39 91.7181C186.843 91.7181 183.967 88.87 183.967 85.3569V84.0494C183.967 81.5121 186.044 79.4564 188.604 79.4564H192.175C194.737 79.4571 196.812 81.5121 196.812 84.0494Z" fill="#354968"/>
<path d="M172.872 106.332V127.956C172.872 128.902 172.116 129.671 171.184 129.671H150.621C149.688 129.671 148.933 128.902 148.933 127.956V106.332C148.933 102.452 152.025 99.3087 155.838 99.3087H165.967C169.78 99.3087 172.872 102.452 172.872 106.332Z" fill="#37CD90"/>
<path d="M161.833 101.06H159.388C158.451 101.06 157.691 100.289 157.691 99.3366V95.2215H163.53V99.3366C163.53 100.289 162.77 101.06 161.833 101.06Z" fill="#FCC1B9"/>
<path d="M167.033 84.0272V90.0595C167.033 93.5549 164.157 96.3892 160.61 96.3892C157.063 96.3892 154.188 93.5549 154.188 90.0595V84.0272C154.188 81.5022 156.265 79.4564 158.825 79.4564H162.396C164.957 79.4571 167.033 81.5022 167.033 84.0272Z" fill="#FCC1B9"/>
<path d="M167.033 84.0494V85.3569C167.033 88.87 164.157 91.7181 160.61 91.7181C157.063 91.7181 154.188 88.87 154.188 85.3569V84.0494C154.188 81.5121 156.265 79.4564 158.825 79.4564H162.396C164.957 79.4571 167.033 81.5121 167.033 84.0494Z" fill="#354968"/>
<path d="M157.108 123.406V127.922C157.108 128.888 156.352 129.671 155.419 129.671H134.856C133.924 129.671 133.168 128.888 133.168 127.922V123.406C133.168 119.448 136.261 116.242 140.074 116.242H150.202C154.016 116.242 157.108 119.448 157.108 123.406Z" fill="#7885ED"/>
<path d="M187.47 123.406V127.922C187.47 128.888 186.714 129.671 185.782 129.671H165.218C164.286 129.671 163.53 128.888 163.53 127.922V123.406C163.53 119.448 166.623 116.242 170.436 116.242H180.564C184.378 116.242 187.47 119.448 187.47 123.406Z" fill="#7885ED"/>
<path d="M176.844 117.993H174.155C173.123 117.993 172.288 117.222 172.288 116.27V112.154H178.711V116.269C178.71 117.222 177.875 117.993 176.844 117.993Z" fill="#FCC1B9"/>
<path d="M181.631 100.96V106.992C181.631 110.488 178.754 113.322 175.208 113.322C171.661 113.322 168.785 110.488 168.785 106.992V100.96C168.785 98.4343 170.862 96.3892 173.423 96.3892H176.993C179.555 96.3892 181.631 98.4343 181.631 100.96Z" fill="#FCC1B9"/>
<path d="M181.631 100.983V102.29C181.631 105.803 178.754 108.651 175.208 108.651C171.661 108.651 168.785 105.803 168.785 102.29V100.983C168.785 98.4444 170.862 96.3892 173.423 96.3892H176.993C179.555 96.3892 181.631 98.4444 181.631 100.983Z" fill="#354968"/>
<path d="M217.248 123.406V127.922C217.248 128.888 216.492 129.671 215.56 129.671H194.997C194.064 129.671 193.309 128.888 193.309 127.922V123.406C193.309 119.448 196.4 116.242 200.214 116.242H210.342C214.156 116.242 217.248 119.448 217.248 123.406Z" fill="#7885ED"/>
<path d="M206.624 117.993H203.934C202.903 117.993 202.067 117.222 202.067 116.27V112.154H208.49V116.269C208.49 117.222 207.655 117.993 206.624 117.993Z" fill="#FCC1B9"/>
<path d="M211.993 100.96V106.992C211.993 110.488 209.117 113.322 205.571 113.322C202.023 113.322 199.147 110.488 199.147 106.992V100.96C199.147 98.4343 201.225 96.3892 203.785 96.3892H207.356C209.918 96.3892 211.993 98.4343 211.993 100.96Z" fill="#FCC1B9"/>
<path d="M211.993 100.983V102.29C211.993 105.803 209.117 108.651 205.571 108.651C202.023 108.651 199.147 105.803 199.147 102.29V100.983C199.147 98.4444 201.225 96.3892 203.785 96.3892H207.356C209.918 96.3892 211.993 98.4444 211.993 100.983Z" fill="#354968"/>
<path d="M210.683 115.081H210.036V113.445C212.136 111.994 213.413 109.606 213.413 107.024V102.238C213.413 102.23 213.414 102.222 213.414 102.214V100.891C213.414 100.365 213.349 99.8718 213.228 99.4143C212.567 96.807 210.198 94.8726 207.383 94.8726H203.798C201.325 94.8726 199.148 96.4075 198.232 98.5834C197.41 98.3185 196.546 98.179 195.673 98.179H195.027V96.5421C197.128 95.0929 198.405 92.7045 198.405 90.1206V83.9867C198.405 83.9151 198.402 83.8436 198.4 83.7728C198.372 82.9044 198.18 82.1309 197.848 81.4644C196.89 79.4032 194.798 77.9689 192.375 77.9689H188.79C185.578 77.9689 182.946 80.4884 182.77 83.6517C182.763 83.7614 182.76 83.8734 182.76 83.9874V85.3105C182.76 85.319 182.76 85.3275 182.76 85.3353V90.1206C182.76 92.7024 184.037 95.0908 186.137 96.5414V98.179H185.49C184.593 98.179 183.708 98.3263 182.867 98.6054C181.956 96.4125 179.78 94.8726 177.293 94.8726H175.842V74.5322H178.26C179.893 74.5322 181.22 73.207 181.22 71.5779V69.9516C181.22 68.3218 179.893 66.9966 178.26 66.9966H176.318L178.752 58.946C178.887 58.4983 178.784 58.0117 178.478 57.6569L172.542 50.7622C172.048 50.1878 171.18 50.1226 170.606 50.6156C170.03 51.1093 169.965 51.9749 170.459 52.5486L175.904 58.8737L173.448 66.9966H173.244V63.3842C173.244 59.2406 169.867 55.8691 165.716 55.8691H165.581V54.6133C167.397 53.2958 168.497 51.1773 168.497 48.9044V47.6719C168.497 47.6655 168.498 47.6592 168.498 47.6521V42.3362C168.498 40.7022 167.587 39.2764 166.245 38.5376C165.625 38.1955 164.913 38 164.154 38H158.692C156.296 38 154.347 39.9457 154.347 42.337V48.9036C154.347 51.2481 155.499 53.4021 157.401 54.711V55.8691H156.742C152.591 55.8691 149.215 59.2406 149.215 63.3842V66.9966H144.118C142.486 66.9966 141.158 68.3218 141.158 69.9516V71.5779C141.158 73.207 142.486 74.5322 144.118 74.5322H146.537V94.8726H143.617C140.599 94.8726 138.092 97.0967 137.654 99.9887C137.61 100.276 137.586 100.577 137.586 100.891V102.214C137.586 102.223 137.587 102.23 137.587 102.239V107.025C137.587 109.606 138.864 111.995 140.964 113.445V115.081H140.317C135.731 115.081 132 118.806 132 123.384V127.776C132 129.465 133.377 130.839 135.069 130.839H215.931C217.623 130.839 219 129.465 219 127.776V123.384C219 118.806 215.269 115.081 210.683 115.081ZM203.893 112.692C203.894 112.204 203.635 111.731 203.175 111.482C201.913 110.799 201.021 109.631 200.675 108.282C202.02 109.369 203.731 110.022 205.591 110.022C207.451 110.022 209.161 109.369 210.506 108.283C210.159 109.63 209.268 110.798 208.008 111.482C207.548 111.732 207.288 112.206 207.29 112.694V116.452C207.29 116.678 207.105 116.863 206.878 116.863H204.305C204.078 116.863 203.893 116.678 203.893 116.452V112.692ZM200.515 100.891C200.515 100.791 200.521 100.689 200.53 100.586C200.683 98.9185 202.115 97.6145 203.798 97.6145H207.383C209.193 97.6145 210.667 99.0842 210.667 100.891V102.238C210.653 105.021 208.382 107.28 205.591 107.28C202.792 107.28 200.515 105.007 200.515 102.214V100.891ZM188.884 95.7892C188.884 95.7835 188.883 95.7778 188.883 95.7722C188.883 95.678 188.876 95.6093 188.864 95.5604C188.797 95.1581 188.553 94.789 188.167 94.5787C186.906 93.8945 186.015 92.7272 185.669 91.38C187.013 92.4658 188.722 93.1189 190.582 93.1189C192.444 93.1189 194.154 92.4658 195.498 91.3786C195.152 92.7272 194.26 93.8952 192.999 94.578C192.539 94.8273 192.279 95.3004 192.28 95.7885V99.5496C192.28 99.7769 192.096 99.9611 191.869 99.9611H189.296C189.068 99.9611 188.884 99.7769 188.884 99.5496V95.7892ZM185.507 83.9874C185.507 82.1805 186.98 80.7101 188.79 80.7101H192.375C194.179 80.7101 195.647 82.1699 195.658 83.9683C195.658 83.9746 195.658 83.981 195.658 83.9874V85.3105C195.658 88.1041 193.381 90.377 190.582 90.377C187.792 90.377 185.52 88.1175 185.507 85.3353V83.9874ZM177.916 111.482C177.457 111.732 177.197 112.206 177.199 112.694V116.452C177.199 116.678 177.014 116.863 176.787 116.863H174.213C173.986 116.863 173.8 116.678 173.8 116.452V112.694C173.803 112.206 173.543 111.732 173.083 111.482C171.823 110.798 170.931 109.63 170.585 108.282C171.929 109.369 173.639 110.022 175.5 110.022C177.361 110.022 179.07 109.369 180.415 108.282C180.069 109.63 179.177 110.798 177.916 111.482ZM170.408 115.081C165.822 115.081 162.09 118.806 162.09 123.384V127.776C162.09 127.885 162.097 127.992 162.108 128.098H158.801C158.813 127.992 158.818 127.885 158.818 127.776V123.384C158.818 121.038 157.816 118.79 156.069 117.215C154.54 115.839 152.561 115.081 150.5 115.081H149.853V113.446C151.955 111.997 153.232 109.609 153.232 107.024V101.508C153.999 101.123 154.846 100.92 155.721 100.92H156.685C157.197 101.973 158.276 102.702 159.525 102.702H162.1C163.349 102.702 164.428 101.973 164.94 100.92H165.905C166.519 100.92 167.111 101.019 167.678 101.209V107.025C167.678 109.606 168.954 111.994 171.054 113.445V115.081H170.408ZM143.71 112.694C143.712 112.206 143.452 111.732 142.992 111.482C141.732 110.798 140.841 109.631 140.494 108.283C141.839 109.369 143.549 110.022 145.409 110.022C147.269 110.022 148.98 109.369 150.325 108.282C149.978 109.631 149.087 110.799 147.825 111.482C147.365 111.731 147.106 112.204 147.107 112.692V116.452C147.107 116.674 146.936 116.851 146.716 116.863H144.122C143.894 116.863 143.71 116.678 143.71 116.452V112.694ZM140.333 100.891C140.333 99.0842 141.806 97.6145 143.617 97.6145H147.202C147.37 97.6145 147.54 97.6272 147.703 97.6513C149.255 97.8879 150.422 99.1947 150.481 100.768C150.483 100.809 150.484 100.85 150.484 100.891V102.214C150.484 105.008 148.208 107.28 145.409 107.28C142.618 107.28 140.347 105.021 140.333 102.239V100.891ZM155.737 83.9867C155.737 83.8797 155.743 83.7742 155.753 83.6701C155.753 83.6616 155.754 83.6538 155.755 83.646C155.926 81.9992 157.325 80.7101 159.02 80.7101H162.605C164.415 80.7101 165.888 82.1798 165.889 83.9867V83.9874V85.3105C165.889 88.1041 163.611 90.377 160.812 90.377C158.014 90.377 155.737 88.1041 155.737 85.3105V83.9874V83.9867ZM160.812 93.1189C162.673 93.1189 164.383 92.4658 165.727 91.3793C165.381 92.7272 164.49 93.8945 163.229 94.5787C162.77 94.828 162.51 95.3012 162.512 95.7892V99.5496C162.512 99.7762 162.327 99.9611 162.1 99.9611H159.525C159.298 99.9611 159.113 99.7762 159.113 99.5496V95.7892C159.115 95.3012 158.855 94.828 158.395 94.5787C157.135 93.8945 156.244 92.7272 155.897 91.3793C157.242 92.4658 158.952 93.1189 160.812 93.1189ZM175.5 107.28C172.701 107.28 170.424 105.008 170.424 102.214V100.891C170.424 100.828 170.426 100.764 170.43 100.699C170.431 100.69 170.432 100.68 170.433 100.67C170.437 100.611 170.443 100.55 170.451 100.489C170.451 100.487 170.451 100.485 170.452 100.483C170.653 98.8469 172.053 97.6138 173.707 97.6138H177.293C178.997 97.6138 180.435 98.9397 180.565 100.63C180.568 100.674 180.571 100.716 180.573 100.756C180.574 100.8 180.576 100.845 180.576 100.889V100.891V102.214C180.576 105.008 178.299 107.28 175.5 107.28ZM160.15 57.2213C160.15 57.2036 160.149 57.1866 160.148 57.1696V55.85C161.035 56.0115 161.955 56.0023 162.834 55.8238V57.1681C162.833 57.1859 162.833 57.2029 162.832 57.2213C162.823 57.9487 162.221 58.5408 161.492 58.5408C160.762 58.5408 160.16 57.9487 160.15 57.2213ZM164.427 43.3286C164.337 42.6585 163.763 42.1407 163.066 42.1407C162.375 42.1407 161.804 42.6514 161.709 43.3158H158.692C158.129 43.3158 157.589 43.4235 157.095 43.6197V42.3362C157.095 41.4572 157.811 40.7418 158.692 40.7418H164.154C164.429 40.7418 164.689 40.812 164.915 40.9345C165.412 41.2051 165.751 41.7321 165.751 42.337V43.619C165.337 43.4554 164.891 43.3576 164.427 43.3286ZM157.094 47.6677C157.094 47.6627 157.095 47.6577 157.095 47.6521C157.095 46.7731 157.811 46.0577 158.692 46.0577H164.154C165.028 46.0577 165.74 46.7624 165.751 47.6322V48.9036C165.751 50.4662 164.903 51.9104 163.537 52.6732C163.537 52.6732 163.536 52.674 163.535 52.674C163.535 52.674 163.535 52.674 163.535 52.6747C162.885 53.0394 162.174 53.2243 161.422 53.2243C160.713 53.2243 160.037 53.0586 159.414 52.7306C159.413 52.7306 159.413 52.7306 159.413 52.7306C157.982 51.9812 157.094 50.515 157.094 48.9036V47.6677ZM151.961 63.3842C151.961 60.7522 154.106 58.6103 156.742 58.6103H157.657C158.236 60.1657 159.743 61.2827 161.492 61.2827C163.24 61.2827 164.746 60.1657 165.325 58.6103H165.716C168.352 58.6103 170.498 60.7522 170.498 63.3842V66.9966H167.571V65.4695C167.571 64.7123 166.957 64.0989 166.198 64.0989C165.439 64.0989 164.824 64.7123 164.824 65.4695V66.9966H157.708V65.4695C157.708 64.7123 157.094 64.0989 156.335 64.0989C155.577 64.0989 154.962 64.7123 154.962 65.4695V66.9966H151.961V63.3842ZM151.1 74.5322C151.859 74.5322 152.474 73.9188 152.474 73.1617C152.474 72.4045 151.859 71.7911 151.1 71.7911H144.118C144 71.7911 143.904 71.6955 143.904 71.5779V69.9516C143.904 69.8341 144 69.7377 144.118 69.7377H150.571C150.577 69.7377 150.582 69.7384 150.588 69.7384C150.593 69.7384 150.598 69.7377 150.604 69.7377H156.32C156.325 69.7377 156.33 69.7384 156.336 69.7384C156.341 69.7384 156.346 69.7377 156.352 69.7377H166.182C166.187 69.7377 166.193 69.7384 166.198 69.7384C166.204 69.7384 166.209 69.7377 166.214 69.7377H171.855C171.86 69.7377 171.866 69.7384 171.871 69.7384C171.877 69.7384 171.882 69.7377 171.887 69.7377H174.465C174.466 69.7377 174.468 69.7384 174.47 69.7384C174.471 69.7384 174.472 69.7377 174.474 69.7377H178.261C178.378 69.7377 178.474 69.8341 178.474 69.9516V71.5779C178.474 71.6955 178.378 71.7911 178.261 71.7911H174.778C174.679 71.7684 174.575 71.755 174.469 71.755C174.362 71.755 174.259 71.7677 174.159 71.7911H157.715C156.957 71.7911 156.342 72.4045 156.342 73.1617C156.342 73.9188 156.957 74.5322 157.715 74.5322H173.096V94.9045C170.901 95.1269 169.029 96.5301 168.174 98.497C167.438 98.2895 166.673 98.179 165.905 98.179H165.258V96.5414C167.358 95.0908 168.635 92.7024 168.635 90.1206V83.9874C168.635 83.9867 168.635 83.986 168.635 83.9853C168.634 82.2683 168.031 80.8404 166.988 79.8608C165.889 78.6971 164.331 77.9689 162.605 77.9689H159.02C155.695 77.9689 152.99 80.669 152.99 83.9874V90.1206C152.99 92.7024 154.267 95.0908 156.366 96.5414V98.179H155.721C154.719 98.179 153.739 98.3568 152.818 98.6996C152.195 97.1095 150.912 95.8395 149.284 95.2424V74.5322H151.1ZM152.401 128.098V125.759C152.401 125.002 151.786 124.388 151.027 124.388C150.268 124.388 149.654 125.002 149.654 125.759V128.098H141.247V125.759C141.247 125.002 140.632 124.388 139.874 124.388C139.115 124.388 138.5 125.002 138.5 125.759V128.098H135.069C134.891 128.098 134.747 127.953 134.747 127.776V123.384C134.747 120.317 137.246 117.822 140.317 117.822H141.282C141.794 118.875 142.873 119.605 144.122 119.605H146.739C146.75 119.605 146.761 119.604 146.773 119.604C148.006 119.573 149.046 118.857 149.541 117.822H150.5C151.881 117.822 153.206 118.33 154.229 119.251C155.4 120.306 156.072 121.813 156.072 123.384V127.776C156.072 127.953 155.926 128.098 155.748 128.098H152.401ZM182.492 128.098V125.759C182.492 125.002 181.877 124.388 181.118 124.388C180.36 124.388 179.745 125.002 179.745 125.759V128.098H171.338V125.759C171.338 125.002 170.723 124.388 169.965 124.388C169.206 124.388 168.592 125.002 168.592 125.759V128.098H165.162C164.983 128.098 164.838 127.953 164.838 127.776V123.384C164.838 120.317 167.336 117.822 170.408 117.822H171.373C171.885 118.875 172.964 119.605 174.213 119.605H176.787C178.036 119.605 179.115 118.875 179.627 117.822H180.592C183.664 117.822 186.162 120.317 186.162 123.384C186.162 124.141 186.778 124.755 187.536 124.755C188.294 124.755 188.909 124.141 188.909 123.384C188.909 118.806 185.178 115.081 180.592 115.081H179.946V113.445C182.046 111.994 183.322 109.606 183.322 107.024V101.358C184.004 101.07 184.741 100.92 185.49 100.92H186.456C186.968 101.973 188.047 102.702 189.296 102.702H191.868C193.118 102.702 194.196 101.973 194.708 100.92H195.673C196.395 100.92 197.107 101.06 197.768 101.328V107.024C197.768 109.608 199.045 111.997 201.147 113.446V115.081H200.5C195.913 115.081 192.182 118.806 192.182 123.384V127.776C192.182 127.884 192.187 127.992 192.199 128.097H182.492V128.098ZM216.254 127.776C216.254 127.953 216.109 128.098 215.931 128.098H212.583V125.759C212.583 125.002 211.968 124.388 211.21 124.388C210.452 124.388 209.836 125.002 209.836 125.759V128.098H201.429V125.759C201.429 125.002 200.815 124.388 200.056 124.388C199.297 124.388 198.683 125.002 198.683 125.759V128.098H195.252C195.073 128.098 194.928 127.953 194.928 127.776V123.384C194.928 120.317 197.427 117.822 200.499 117.822H201.465C201.977 118.875 203.056 119.605 204.305 119.605H206.878C208.127 119.605 209.205 118.875 209.718 117.822H210.683C213.754 117.822 216.253 120.317 216.253 123.384V127.776H216.254Z" fill="black"/>
</svg>
