<svg width="350" height="234" viewBox="0 0 350 234" fill="none" xmlns="http://www.w3.org/2000/svg">
<rect width="350" height="234" rx="28" fill="#0A8996"/>
<path d="M131.454 207V190.273H138.053C139.317 190.273 140.395 190.499 141.288 190.951C142.186 191.397 142.869 192.031 143.338 192.854C143.811 193.67 144.048 194.632 144.048 195.737C144.048 196.848 143.809 197.803 143.33 198.604C142.85 199.399 142.156 200.009 141.247 200.433C140.343 200.858 139.248 201.07 137.963 201.07H133.545V198.228H137.392C138.067 198.228 138.628 198.135 139.074 197.95C139.521 197.765 139.853 197.487 140.071 197.117C140.294 196.747 140.406 196.287 140.406 195.737C140.406 195.181 140.294 194.713 140.071 194.332C139.853 193.951 139.518 193.662 139.066 193.466C138.62 193.265 138.056 193.164 137.375 193.164H134.99V207H131.454ZM140.487 199.388L144.645 207H140.74L136.673 199.388H140.487ZM151.997 207.245C150.707 207.245 149.596 206.984 148.665 206.461C147.739 205.933 147.026 205.187 146.525 204.223C146.024 203.254 145.774 202.108 145.774 200.784C145.774 199.494 146.024 198.361 146.525 197.387C147.026 196.412 147.731 195.652 148.641 195.108C149.555 194.563 150.628 194.291 151.859 194.291C152.686 194.291 153.457 194.425 154.17 194.691C154.889 194.953 155.515 195.348 156.049 195.876C156.588 196.404 157.007 197.068 157.306 197.869C157.606 198.664 157.756 199.595 157.756 200.662V201.618H147.162V199.461H154.48C154.48 198.96 154.371 198.517 154.154 198.13C153.936 197.743 153.634 197.441 153.247 197.223C152.866 197 152.422 196.888 151.916 196.888C151.388 196.888 150.919 197.011 150.511 197.256C150.108 197.496 149.792 197.82 149.563 198.228C149.335 198.631 149.218 199.08 149.212 199.576V201.626C149.212 202.246 149.327 202.783 149.555 203.235C149.789 203.687 150.119 204.035 150.544 204.28C150.968 204.525 151.472 204.648 152.055 204.648C152.441 204.648 152.795 204.593 153.116 204.484C153.438 204.375 153.713 204.212 153.941 203.994C154.17 203.777 154.344 203.51 154.464 203.194L157.682 203.406C157.519 204.179 157.184 204.855 156.677 205.432C156.177 206.004 155.529 206.45 154.734 206.771C153.944 207.087 153.032 207.245 151.997 207.245ZM160.026 211.705V194.455H163.457V196.562H163.612C163.764 196.224 163.985 195.881 164.273 195.533C164.567 195.179 164.949 194.885 165.417 194.651C165.891 194.411 166.479 194.291 167.181 194.291C168.096 194.291 168.94 194.531 169.713 195.01C170.486 195.484 171.104 196.2 171.567 197.158C172.03 198.111 172.261 199.306 172.261 200.744C172.261 202.143 172.035 203.325 171.583 204.288C171.137 205.247 170.527 205.974 169.754 206.469C168.986 206.959 168.126 207.204 167.173 207.204C166.498 207.204 165.923 207.093 165.449 206.869C164.981 206.646 164.597 206.366 164.298 206.028C163.998 205.685 163.77 205.339 163.612 204.991H163.506V211.705H160.026ZM163.432 200.727C163.432 201.473 163.536 202.124 163.742 202.679C163.949 203.235 164.249 203.668 164.641 203.978C165.033 204.283 165.509 204.435 166.07 204.435C166.637 204.435 167.116 204.28 167.508 203.97C167.9 203.654 168.197 203.218 168.398 202.663C168.605 202.102 168.708 201.457 168.708 200.727C168.708 200.003 168.608 199.366 168.406 198.816C168.205 198.266 167.908 197.836 167.516 197.526C167.124 197.215 166.642 197.06 166.07 197.06C165.504 197.06 165.025 197.21 164.633 197.509C164.246 197.809 163.949 198.233 163.742 198.783C163.536 199.333 163.432 199.981 163.432 200.727ZM180.249 207.245C178.98 207.245 177.883 206.975 176.958 206.436C176.037 205.892 175.327 205.135 174.826 204.166C174.325 203.191 174.074 202.061 174.074 200.776C174.074 199.48 174.325 198.348 174.826 197.379C175.327 196.404 176.037 195.647 176.958 195.108C177.883 194.563 178.98 194.291 180.249 194.291C181.518 194.291 182.612 194.563 183.533 195.108C184.458 195.647 185.172 196.404 185.672 197.379C186.173 198.348 186.424 199.48 186.424 200.776C186.424 202.061 186.173 203.191 185.672 204.166C185.172 205.135 184.458 205.892 183.533 206.436C182.612 206.975 181.518 207.245 180.249 207.245ZM180.266 204.55C180.843 204.55 181.325 204.386 181.711 204.06C182.098 203.728 182.389 203.276 182.585 202.704C182.787 202.132 182.887 201.481 182.887 200.752C182.887 200.022 182.787 199.371 182.585 198.8C182.389 198.228 182.098 197.776 181.711 197.444C181.325 197.112 180.843 196.946 180.266 196.946C179.683 196.946 179.193 197.112 178.795 197.444C178.403 197.776 178.107 198.228 177.905 198.8C177.709 199.371 177.611 200.022 177.611 200.752C177.611 201.481 177.709 202.132 177.905 202.704C178.107 203.276 178.403 203.728 178.795 204.06C179.193 204.386 179.683 204.55 180.266 204.55ZM188.686 207V194.455H192.06V196.643H192.19C192.419 195.865 192.803 195.277 193.342 194.879C193.881 194.476 194.502 194.275 195.204 194.275C195.378 194.275 195.566 194.286 195.768 194.308C195.969 194.329 196.146 194.359 196.299 194.397V197.485C196.135 197.436 195.909 197.392 195.621 197.354C195.332 197.316 195.068 197.297 194.828 197.297C194.317 197.297 193.859 197.408 193.456 197.632C193.059 197.85 192.743 198.154 192.509 198.547C192.28 198.939 192.166 199.391 192.166 199.902V207H188.686ZM205.399 194.455V197.068H197.844V194.455H205.399ZM199.559 191.449H203.039V203.145C203.039 203.466 203.088 203.717 203.186 203.896C203.284 204.071 203.42 204.193 203.594 204.264C203.774 204.335 203.981 204.37 204.215 204.37C204.378 204.37 204.542 204.356 204.705 204.329C204.868 204.297 204.994 204.272 205.081 204.256L205.628 206.845C205.454 206.899 205.209 206.962 204.893 207.033C204.577 207.109 204.193 207.155 203.741 207.172C202.903 207.204 202.168 207.093 201.536 206.837C200.91 206.581 200.423 206.183 200.074 205.644C199.726 205.105 199.554 204.424 199.559 203.602V191.449ZM217.947 198.032L214.761 198.228C214.707 197.956 214.59 197.711 214.41 197.493C214.231 197.27 213.994 197.093 213.7 196.962C213.411 196.826 213.065 196.758 212.662 196.758C212.123 196.758 211.669 196.872 211.298 197.101C210.928 197.324 210.743 197.624 210.743 197.999C210.743 198.299 210.863 198.552 211.102 198.759C211.342 198.966 211.753 199.132 212.336 199.257L214.606 199.714C215.826 199.965 216.735 200.368 217.334 200.923C217.933 201.479 218.233 202.208 218.233 203.112C218.233 203.934 217.99 204.656 217.506 205.277C217.027 205.897 216.368 206.382 215.529 206.73C214.696 207.074 213.735 207.245 212.646 207.245C210.985 207.245 209.662 206.899 208.677 206.208C207.696 205.511 207.122 204.563 206.953 203.365L210.375 203.186C210.479 203.692 210.729 204.079 211.127 204.346C211.524 204.607 212.033 204.738 212.654 204.738C213.264 204.738 213.754 204.621 214.124 204.386C214.5 204.147 214.691 203.839 214.696 203.463C214.691 203.148 214.557 202.889 214.296 202.688C214.035 202.481 213.632 202.323 213.087 202.214L210.915 201.781C209.689 201.536 208.777 201.111 208.178 200.507C207.585 199.902 207.288 199.132 207.288 198.195C207.288 197.389 207.506 196.695 207.941 196.113C208.383 195.53 209.001 195.081 209.796 194.765C210.596 194.449 211.533 194.291 212.605 194.291C214.19 194.291 215.437 194.626 216.346 195.296C217.261 195.966 217.794 196.878 217.947 198.032Z" fill="white"/>
<circle cx="175.5" cy="93.5" r="70.5" fill="white"/>
<path d="M138.963 126.37H177.073L190.548 112.95V52.9603C190.548 52.0293 189.793 51.2745 188.863 51.2745H138.963C138.032 51.2745 137.277 52.0293 137.277 52.9603V124.684C137.277 125.615 138.032 126.37 138.963 126.37Z" fill="#FFF9E9"/>
<path d="M143.764 131.174L183.574 132.873L197.049 119.454L195.35 57.7645C195.35 56.8335 194.595 56.0787 193.664 56.0787H143.764C142.834 56.0787 142.079 56.8335 142.079 57.7645V129.488C142.079 130.42 142.834 131.174 143.764 131.174Z" fill="#FFEEC2"/>
<path d="M148.563 135.725H188.372L200.149 124.005V62.3157C200.149 61.3847 199.394 60.6299 198.463 60.6299H148.563C147.633 60.6299 146.878 61.3847 146.878 62.3157V134.04C146.878 134.971 147.633 135.725 148.563 135.725Z" fill="#FFF9E9"/>
<path d="M198.462 60.63H191.665C192.596 60.63 193.35 61.3848 193.35 62.3158V124.005L188.371 135.725L200.147 124.005V62.3158C200.147 61.3848 199.393 60.63 198.462 60.63Z" fill="#FFF4D6"/>
<path d="M188.371 135.726V125.582C188.371 124.651 189.126 123.896 190.056 123.896H200.147L188.371 135.726Z" fill="#FFEEC2"/>
<path d="M158.87 114.278H165.243V124.746H158.87V114.278Z" fill="#FDF385"/>
<path d="M165.249 105.249H171.622V124.746H165.249V105.249Z" fill="#FFABE7"/>
<path d="M171.638 111.016H178.011V124.745H171.638V111.016Z" fill="#ABDAFF"/>
<path d="M201.966 110.103C212.876 110.103 221.72 101.259 221.72 90.3491C221.72 79.4392 212.876 70.5949 201.966 70.5949C191.056 70.5949 182.212 79.4392 182.212 90.3491C182.212 101.259 191.056 110.103 201.966 110.103Z" fill="#FDF385"/>
<path d="M215.935 76.3804C211.206 71.6511 204.686 69.8197 198.568 70.8839C202.438 71.5571 206.147 73.3887 209.138 76.3804C216.859 84.1013 216.859 96.5963 209.138 104.317C206.147 107.309 202.438 109.14 198.568 109.814C204.686 110.878 211.206 109.046 215.935 104.317C223.656 96.5963 223.656 84.1011 215.935 76.3804Z" fill="#FAEE6E"/>
<path d="M221.068 95.4104C222.806 88.8349 221.096 81.5412 215.935 76.3804C214.189 74.6342 212.198 73.2846 210.074 72.3281L201.967 90.3486L221.068 95.4104Z" fill="#ABDAFF"/>
<path d="M215.934 76.3804C214.188 74.6342 212.197 73.2846 210.073 72.3281L208.517 75.7877C208.726 75.9802 208.934 76.177 209.137 76.3804C213.856 81.0992 215.688 87.6011 214.638 93.7069L221.066 95.4104C222.805 88.8349 221.095 81.541 215.934 76.3804Z" fill="#99D3FF"/>
<path d="M201.966 90.3487L187.998 104.317C195.719 112.038 208.214 112.038 215.935 104.317C218.495 101.757 220.205 98.672 221.067 95.4103L201.966 90.3487Z" fill="#FFABE7"/>
<path d="M214.639 93.7068L214.27 95.4103C213.407 98.6719 211.697 101.757 209.137 104.317C206.146 107.309 202.437 109.14 198.567 109.813C204.685 110.878 211.205 109.046 215.934 104.317C218.494 101.757 220.204 98.6719 221.067 95.4103L214.639 93.7068Z" fill="#FF94E1"/>
<path d="M156.649 73.5494H181.655C183.302 73.5494 183.302 71.0005 181.655 71.0005H156.649C155.001 71.0005 155.001 73.5494 156.649 73.5494Z" fill="#060606"/>
<path d="M156.649 82.8993H175.877C177.525 82.8993 177.525 80.3505 175.877 80.3505H156.649C155.001 80.3505 155.001 82.8993 156.649 82.8993Z" fill="#060606"/>
<path d="M156.649 92.2493H173.159C174.806 92.2493 174.806 89.7004 173.159 89.7004H156.649C155.001 89.7004 155.001 92.2493 156.649 92.2493Z" fill="#060606"/>
<path d="M180.128 123.471H179.284V111.016C179.284 110.312 178.713 109.742 178.009 109.742H172.895V105.249C172.895 104.546 172.325 103.975 171.621 103.975H165.247C164.543 103.975 163.973 104.546 163.973 105.249V113.004H158.869C158.165 113.004 157.594 113.575 157.594 114.279V123.471H156.75C156.046 123.471 155.476 124.042 155.476 124.746C155.476 125.449 156.046 126.02 156.75 126.02H180.128C180.832 126.02 181.402 125.449 181.402 124.746C181.402 124.042 180.832 123.471 180.128 123.471ZM160.143 123.471V115.553H163.968V123.471H160.143ZM166.522 123.471V106.524H170.346V123.471H166.522ZM172.91 123.471V112.291H176.735V123.471H172.91Z" fill="#060606"/>
<path d="M222.989 89.6942C222.823 84.3294 220.638 79.2811 216.836 75.4791C215.012 73.6548 212.932 72.2375 210.712 71.2251C210.675 71.2037 210.637 71.1838 210.597 71.1658C210.556 71.1474 210.515 71.1314 210.473 71.1178C207.602 69.8518 204.504 69.2577 201.42 69.3372V62.3157C201.42 60.6835 200.092 59.3555 198.46 59.3555H196.622V57.7644C196.622 56.1321 195.294 54.8042 193.662 54.8042H191.819V52.9602C191.819 51.3279 190.491 50 188.86 50H138.96C137.328 50 136 51.3279 136 52.9602V124.684C136 126.317 137.328 127.644 138.96 127.644H140.803V129.488C140.803 131.121 142.13 132.449 143.757 132.449L145.601 132.456V134.04C145.601 135.672 146.928 137 148.56 137H188.369C188.703 137 189.032 136.864 189.269 136.629L201.045 124.909C201.285 124.669 201.42 124.344 201.42 124.005V111.371C201.592 111.375 201.764 111.379 201.935 111.379C205.527 111.379 209.104 110.461 212.233 108.708C213.67 107.903 212.424 105.68 210.987 106.485C204.183 110.298 195.667 109.358 189.834 104.283L202.349 91.7684L219.459 96.3023C218.705 98.5318 217.513 100.647 215.877 102.514C214.79 103.753 216.707 105.433 217.793 104.194C221.309 100.184 223.154 95.0345 222.989 89.6942ZM208.367 73.015L200.9 89.6126L188.03 102.483C181.708 95.2319 181.997 84.1836 188.899 77.2812C194.154 72.0266 201.811 70.6052 208.367 73.015ZM143.762 129.9C143.536 129.9 143.351 129.715 143.351 129.488V57.7644C143.351 57.5375 143.536 57.353 143.762 57.353H152.652C154.3 57.353 154.3 54.8042 152.652 54.8042H143.762C142.13 54.8042 140.803 56.1321 140.803 57.7644V125.095H138.96C138.733 125.095 138.549 124.911 138.549 124.684V52.9602C138.549 52.7334 138.733 52.5488 138.96 52.5488H188.86C189.086 52.5488 189.27 52.7334 189.27 52.9602V54.8044H159.789C158.141 54.8044 158.141 57.3532 159.789 57.3532H193.662C193.889 57.3532 194.073 57.5377 194.073 57.7646V59.3557H148.56C146.928 59.3557 145.601 60.6836 145.601 62.3159V129.907L143.762 129.9ZM148.149 134.04V62.3157C148.149 62.0889 148.334 61.9044 148.56 61.9044H198.46C198.687 61.9044 198.871 62.0889 198.871 62.3157V69.5576C194.559 70.1942 190.409 72.1675 187.097 75.4792C178.898 83.6783 178.898 97.0192 187.097 105.218C190.322 108.443 194.387 110.487 198.871 111.15V122.621H190.055C188.423 122.621 187.095 123.949 187.095 125.582V134.451H148.56C148.334 134.451 148.149 134.266 148.149 134.04ZM189.644 132.639V125.582C189.644 125.355 189.828 125.17 190.055 125.17H197.078L189.644 132.639ZM203.745 89.5015L210.693 74.0583C212.253 74.8932 213.719 75.9669 215.033 77.2814C219.5 81.7483 221.215 88.0041 220.106 93.8372L203.745 89.5015Z" fill="#060606"/>
</svg>
