<svg width="76" height="76" viewBox="0 0 76 76" fill="none" xmlns="http://www.w3.org/2000/svg">
<g clip-path="url(#clip0_1290_3928)">
<path d="M2.58573 66.714H35.8773L47.6488 54.9912V2.58593C47.6488 1.77264 46.9898 1.11328 46.1766 1.11328H2.58573C1.77274 1.11328 1.11353 1.77264 1.11353 2.58593V65.2414C1.11353 66.0547 1.77259 66.714 2.58573 66.714Z" fill="#FFF9E9"/>
<path d="M6.78116 70.9103L41.5571 72.3947L53.3286 60.6719L51.8443 6.78222C51.8443 5.96893 51.1852 5.30957 50.3721 5.30957H6.78116C5.96817 5.30957 5.30896 5.96893 5.30896 6.78222V69.4377C5.30896 70.2511 5.96802 70.9103 6.78116 70.9103Z" fill="#FFEEC2"/>
<path d="M10.9723 74.8869H45.7483L56.0354 64.6484V10.7588C56.0354 9.94549 55.3764 9.28613 54.5632 9.28613H10.9723C10.1593 9.28613 9.50012 9.94549 9.50012 10.7588V73.4142C9.50027 74.2277 10.1593 74.8869 10.9723 74.8869Z" fill="#FFF9E9"/>
<path d="M54.5633 9.28613H48.6258C49.4387 9.28613 50.098 9.94549 50.098 10.7588V64.6484L45.7483 74.8869L56.0355 64.6484V10.7588C56.0355 9.94549 55.3762 9.28613 54.5633 9.28613Z" fill="#FFF4D6"/>
<path d="M45.7483 74.8868V66.0254C45.7483 65.2121 46.4074 64.5527 47.2205 64.5527H56.0355L45.7483 74.8868Z" fill="#FFEEC2"/>
<path d="M19.979 56.1514H25.5465V65.2951H19.979V56.1514Z" fill="#FDF385"/>
<path d="M25.551 48.2637H31.1185V65.2951H25.551V48.2637Z" fill="#FFABE7"/>
<path d="M31.132 53.3018H36.6994V65.2954H31.132V53.3018Z" fill="#ABDAFF"/>
<path d="M57.6262 52.5044C67.1568 52.5044 74.8828 44.7784 74.8828 35.2478C74.8828 25.7173 67.1568 17.9912 57.6262 17.9912C48.0957 17.9912 40.3696 25.7173 40.3696 35.2478C40.3696 44.7784 48.0957 52.5044 57.6262 52.5044Z" fill="#FDF385"/>
<path d="M69.8285 23.0451C65.6972 18.9137 60.0014 17.3139 54.6575 18.2435C58.038 18.8317 61.2776 20.4317 63.891 23.0451C70.6357 29.7898 70.6357 40.705 63.891 47.4497C61.2776 50.0631 58.038 51.6631 54.6575 52.2512C60.0014 53.1808 65.6972 51.581 69.8285 47.4497C76.5731 40.705 76.5731 29.7896 69.8285 23.0451Z" fill="#FAEE6E"/>
<path d="M74.3121 39.6688C75.8307 33.9247 74.3367 27.5532 69.8285 23.0448C68.3032 21.5195 66.5642 20.3404 64.7088 19.5049L57.6262 35.247L74.3121 39.6688Z" fill="#ABDAFF"/>
<path d="M69.8286 23.0448C68.3032 21.5195 66.5643 20.3404 64.7088 19.5049L63.3491 22.5271C63.5324 22.6953 63.7135 22.8671 63.8911 23.0448C68.0133 27.1671 69.6136 32.8469 68.6969 38.1807L74.3123 39.6688C75.8308 33.9247 74.3368 27.553 69.8286 23.0448Z" fill="#99D3FF"/>
<path d="M57.6263 35.2471L45.424 47.4494C52.1685 54.1939 63.0839 54.1939 69.8286 47.4494C72.0649 45.213 73.5588 42.518 74.3121 39.6687L57.6263 35.2471Z" fill="#FFABE7"/>
<path d="M68.6967 38.1807L68.3746 39.6688C67.6213 42.518 66.1272 45.213 63.891 47.4494C61.2776 50.0628 58.038 51.6628 54.6575 52.2509C60.0014 53.1806 65.6972 51.5807 69.8285 47.4494C72.0649 45.213 73.5588 42.518 74.3121 39.6688L68.6967 38.1807Z" fill="#FF94E1"/>
<path d="M18.0387 20.5723H39.8829C41.3223 20.5723 41.3223 18.3457 39.8829 18.3457H18.0387C16.5993 18.3457 16.5993 20.5723 18.0387 20.5723Z" fill="#060606"/>
<path d="M18.0387 28.7393H34.836C36.2754 28.7393 36.2754 26.5127 34.836 26.5127H18.0387C16.5993 26.5127 16.5993 28.7393 18.0387 28.7393Z" fill="#060606"/>
<path d="M18.0387 36.9072H32.461C33.9004 36.9072 33.9004 34.6807 32.461 34.6807H18.0387C16.5993 34.6807 16.5993 36.9072 18.0387 36.9072Z" fill="#060606"/>
<path d="M38.5504 64.1817H37.8128V53.3013C37.8128 52.6865 37.3145 52.1881 36.6995 52.1881H32.2318V48.2637C32.2318 47.6488 31.7335 47.1504 31.1186 47.1504H25.5511C24.9361 47.1504 24.4378 47.6488 24.4378 48.2637V55.0379H19.9789C19.3639 55.0379 18.8656 55.5364 18.8656 56.1512V64.1817H18.1281C17.5131 64.1817 17.0148 64.6801 17.0148 65.2949C17.0148 65.9098 17.5131 66.4082 18.1281 66.4082H38.5502C39.1652 66.4082 39.6635 65.9098 39.6635 65.2949C39.6635 64.6801 39.1652 64.1817 38.5504 64.1817ZM21.0923 64.1817V57.2645H24.4334V64.1817H21.0923ZM26.6645 64.1817V49.377H30.0054V64.1817H26.6645ZM32.2452 64.1817V54.4146H35.5862V64.1817H32.2452Z" fill="#060606"/>
<path d="M75.9911 34.6754C75.8461 29.989 73.9373 25.5789 70.616 22.2576C69.0224 20.664 67.2061 19.4259 65.2668 18.5415C65.2343 18.5228 65.2006 18.5054 65.1657 18.4897C65.1301 18.4736 65.094 18.4597 65.0578 18.4478C62.5497 17.3418 59.8432 16.8229 57.1489 16.8923V10.7586C57.1489 9.33271 55.9892 8.17267 54.5634 8.17267H52.9578V6.7827C52.9578 5.35681 51.798 4.19677 50.3723 4.19677H48.7622V2.58593C48.7623 1.16004 47.6024 0 46.1768 0H2.58609C1.16035 0 0.000610352 1.16004 0.000610352 2.58593V65.2416C0.000610352 66.6674 1.16035 67.8275 2.58609 67.8275H4.1962V69.4383C4.1962 70.8642 5.35594 72.0243 6.77708 72.0243L8.38748 72.0308V73.4142C8.38748 74.8401 9.54722 76.0002 10.973 76.0002H45.7488C46.0398 76.0002 46.3278 75.8814 46.5341 75.676L56.8213 65.4375C57.0312 65.2285 57.1492 64.9445 57.1492 64.6484V53.6115C57.2993 53.6152 57.4493 53.6187 57.5994 53.6187C60.7374 53.6187 63.862 52.8167 66.5949 51.2855C67.8508 50.5819 66.7623 48.6399 65.5065 49.343C59.5626 52.6738 52.1237 51.8531 47.0284 47.42L57.961 36.4874L72.9072 40.448C72.2484 42.3957 71.2073 44.2439 69.778 45.8743C68.8292 46.9567 70.5032 48.4245 71.4522 47.3422C74.5234 43.8389 76.1352 39.3405 75.9911 34.6754ZM63.2182 20.1051L56.6948 34.6042L45.4519 45.8473C39.9293 39.513 40.1818 29.8616 46.2114 23.8319C50.8017 19.2417 57.4912 18 63.2182 20.1051ZM6.78138 69.7975C6.58352 69.7975 6.42261 69.6363 6.42261 69.4382V6.7827C6.42261 6.58454 6.58352 6.42334 6.78138 6.42334H14.5473C15.9867 6.42334 15.9867 4.19677 14.5473 4.19677H6.78138C5.35579 4.19677 4.19605 5.35681 4.19605 6.7827V65.6008H2.58609C2.38823 65.6008 2.22717 65.4396 2.22717 65.2414V2.58593C2.22717 2.38777 2.38823 2.22656 2.58609 2.22656H46.1768C46.3747 2.22656 46.5358 2.38777 46.5358 2.58593V4.19692H20.7819C19.3425 4.19692 19.3425 6.42348 20.7819 6.42348H50.3724C50.5703 6.42348 50.7314 6.58469 50.7314 6.78285V8.17282H10.9728C9.54722 8.17282 8.38733 9.33286 8.38733 10.7588V69.8042L6.78138 69.7975ZM10.6139 73.4141V10.7586C10.6139 10.5604 10.7749 10.3992 10.9728 10.3992H54.5636C54.7614 10.3992 54.9225 10.5604 54.9225 10.7586V17.0849C51.1559 17.6409 47.53 19.3647 44.637 22.2578C37.4745 29.4202 37.4745 41.0743 44.637 48.2368C47.4542 51.0539 51.0055 52.839 54.9225 53.4182V63.4395H47.2208C45.7952 63.4395 44.6353 64.5996 44.6353 66.0255V73.7734H10.9728C10.7749 73.7734 10.6139 73.6122 10.6139 73.4141ZM46.8619 72.1904V66.0255C46.8619 65.8273 47.0229 65.6661 47.2208 65.6661H53.3566L46.8619 72.1904ZM59.1801 34.5071L65.2497 21.0165C66.613 21.7458 67.8931 22.6838 69.0414 23.8321C72.9434 27.7342 74.4414 33.1991 73.4726 38.2947L59.1801 34.5071Z" fill="#060606"/>
</g>
<defs>
<clipPath id="clip0_1290_3928">
<rect width="76" height="76" fill="white"/>
</clipPath>
</defs>
</svg>
