<svg width="350" height="234" viewBox="0 0 350 234" fill="none" xmlns="http://www.w3.org/2000/svg">
<rect width="350" height="234" rx="28" fill="#0A8996"/>
<path d="M56.4538 202V185.273H63.0533C64.3165 185.273 65.3947 185.499 66.2876 185.951C67.1861 186.397 67.8694 187.031 68.3377 187.854C68.8114 188.67 69.0483 189.632 69.0483 190.737C69.0483 191.848 68.8087 192.803 68.3295 193.604C67.8504 194.399 67.1561 195.009 66.2468 195.433C65.3429 195.858 64.2485 196.07 62.9634 196.07H58.5447V193.228H62.3917C63.0669 193.228 63.6277 193.135 64.0742 192.95C64.5207 192.765 64.8529 192.487 65.0707 192.117C65.2939 191.747 65.4055 191.287 65.4055 190.737C65.4055 190.181 65.2939 189.713 65.0707 189.332C64.8529 188.951 64.518 188.662 64.0661 188.466C63.6196 188.265 63.056 188.164 62.3754 188.164H59.9904V202H56.4538ZM65.4872 194.388L69.6445 202H65.7404L61.6729 194.388H65.4872ZM76.9974 202.245C75.7069 202.245 74.5961 201.984 73.665 201.461C72.7394 200.933 72.0261 200.187 71.5251 199.223C71.0242 198.254 70.7737 197.108 70.7737 195.784C70.7737 194.494 71.0242 193.361 71.5251 192.387C72.0261 191.412 72.7312 190.652 73.6405 190.108C74.5553 189.563 75.628 189.291 76.8586 189.291C77.6862 189.291 78.4567 189.425 79.17 189.691C79.8888 189.953 80.5149 190.348 81.0486 190.876C81.5876 191.404 82.0069 192.068 82.3064 192.869C82.6059 193.664 82.7556 194.595 82.7556 195.662V196.618H72.1622V194.461H79.4804C79.4804 193.96 79.3715 193.517 79.1537 193.13C78.9359 192.743 78.6337 192.441 78.2471 192.223C77.8659 192 77.4221 191.888 76.9157 191.888C76.3876 191.888 75.9193 192.011 75.5109 192.256C75.108 192.496 74.7922 192.82 74.5635 193.228C74.3348 193.631 74.2177 194.08 74.2123 194.576V196.626C74.2123 197.246 74.3266 197.783 74.5553 198.235C74.7894 198.687 75.1189 199.035 75.5436 199.28C75.9683 199.525 76.472 199.648 77.0546 199.648C77.4412 199.648 77.7951 199.593 78.1164 199.484C78.4376 199.375 78.7126 199.212 78.9413 198.994C79.17 198.777 79.3443 198.51 79.464 198.194L82.6821 198.406C82.5187 199.179 82.1839 199.855 81.6775 200.432C81.1765 201.004 80.5286 201.45 79.7336 201.771C78.944 202.087 78.032 202.245 76.9974 202.245ZM95.4644 193.032L92.279 193.228C92.2246 192.956 92.1075 192.711 91.9278 192.493C91.7481 192.27 91.5113 192.093 91.2172 191.962C90.9287 191.826 90.5829 191.758 90.18 191.758C89.6409 191.758 89.1862 191.872 88.816 192.101C88.4457 192.324 88.2606 192.624 88.2606 192.999C88.2606 193.299 88.3804 193.552 88.6199 193.759C88.8595 193.966 89.2706 194.132 89.8532 194.257L92.1238 194.714C93.3435 194.965 94.2529 195.368 94.8518 195.923C95.4508 196.479 95.7503 197.208 95.7503 198.112C95.7503 198.934 95.508 199.656 95.0233 200.277C94.5442 200.897 93.8853 201.382 93.0468 201.73C92.2137 202.074 91.2526 202.245 90.1636 202.245C88.5029 202.245 87.1797 201.899 86.1942 201.208C85.214 200.511 84.6396 199.563 84.4708 198.365L87.893 198.186C87.9965 198.692 88.247 199.079 88.6444 199.346C89.0419 199.607 89.551 199.738 90.1718 199.738C90.7816 199.738 91.2717 199.621 91.642 199.386C92.0177 199.147 92.2082 198.839 92.2137 198.463C92.2082 198.148 92.0748 197.889 91.8135 197.688C91.5521 197.481 91.1492 197.323 90.6047 197.214L88.4321 196.781C87.2069 196.536 86.2949 196.111 85.6959 195.507C85.1024 194.902 84.8057 194.132 84.8057 193.195C84.8057 192.389 85.0235 191.695 85.4591 191.113C85.9001 190.53 86.5181 190.081 87.3131 189.765C88.1135 189.449 89.0501 189.291 90.1228 189.291C91.7073 189.291 92.9542 189.626 93.8635 190.296C94.7783 190.966 95.3119 191.878 95.4644 193.032ZM97.9412 202V189.455H101.421V202H97.9412ZM99.6891 187.837C99.1718 187.837 98.728 187.666 98.3578 187.323C97.993 186.974 97.8105 186.558 97.8105 186.073C97.8105 185.594 97.993 185.183 98.3578 184.84C98.728 184.491 99.1718 184.317 99.6891 184.317C100.206 184.317 100.647 184.491 101.012 184.84C101.383 185.183 101.568 185.594 101.568 186.073C101.568 186.558 101.383 186.974 101.012 187.323C100.647 187.666 100.206 187.837 99.6891 187.837ZM108.831 202.204C107.878 202.204 107.015 201.959 106.242 201.469C105.474 200.974 104.864 200.247 104.412 199.288C103.966 198.325 103.742 197.143 103.742 195.744C103.742 194.306 103.974 193.111 104.437 192.158C104.899 191.2 105.515 190.484 106.282 190.01C107.056 189.531 107.902 189.291 108.823 189.291C109.525 189.291 110.11 189.411 110.579 189.651C111.052 189.885 111.433 190.179 111.722 190.533C112.016 190.881 112.239 191.224 112.392 191.562H112.498V185.273H115.969V202H112.539V199.991H112.392C112.228 200.339 111.997 200.685 111.698 201.028C111.403 201.366 111.02 201.646 110.546 201.869C110.078 202.093 109.506 202.204 108.831 202.204ZM109.933 199.435C110.494 199.435 110.968 199.283 111.354 198.978C111.747 198.668 112.046 198.235 112.253 197.679C112.465 197.124 112.571 196.473 112.571 195.727C112.571 194.981 112.468 194.333 112.261 193.783C112.054 193.233 111.755 192.809 111.363 192.509C110.971 192.21 110.494 192.06 109.933 192.06C109.362 192.06 108.88 192.215 108.488 192.526C108.096 192.836 107.799 193.266 107.597 193.816C107.396 194.366 107.295 195.003 107.295 195.727C107.295 196.457 107.396 197.102 107.597 197.663C107.804 198.218 108.101 198.654 108.488 198.97C108.88 199.28 109.362 199.435 109.933 199.435ZM124.547 202.245C123.257 202.245 122.146 201.984 121.215 201.461C120.289 200.933 119.576 200.187 119.075 199.223C118.574 198.254 118.324 197.108 118.324 195.784C118.324 194.494 118.574 193.361 119.075 192.387C119.576 191.412 120.281 190.652 121.19 190.108C122.105 189.563 123.178 189.291 124.408 189.291C125.236 189.291 126.007 189.425 126.72 189.691C127.439 189.953 128.065 190.348 128.598 190.876C129.137 191.404 129.557 192.068 129.856 192.869C130.156 193.664 130.305 194.595 130.305 195.662V196.618H119.712V194.461H127.03C127.03 193.96 126.921 193.517 126.703 193.13C126.486 192.743 126.183 192.441 125.797 192.223C125.416 192 124.972 191.888 124.466 191.888C123.937 191.888 123.469 192.011 123.061 192.256C122.658 192.496 122.342 192.82 122.113 193.228C121.885 193.631 121.768 194.08 121.762 194.576V196.626C121.762 197.246 121.876 197.783 122.105 198.235C122.339 198.687 122.669 199.035 123.093 199.28C123.518 199.525 124.022 199.648 124.604 199.648C124.991 199.648 125.345 199.593 125.666 199.484C125.987 199.375 126.262 199.212 126.491 198.994C126.72 198.777 126.894 198.51 127.014 198.194L130.232 198.406C130.069 199.179 129.734 199.855 129.227 200.432C128.726 201.004 128.078 201.45 127.283 201.771C126.494 202.087 125.582 202.245 124.547 202.245ZM136.055 194.747V202H132.576V189.455H135.892V191.668H136.039C136.317 190.938 136.782 190.361 137.436 189.936C138.089 189.506 138.881 189.291 139.812 189.291C140.684 189.291 141.443 189.482 142.091 189.863C142.739 190.244 143.243 190.789 143.602 191.496C143.962 192.199 144.141 193.037 144.141 194.012V202H140.662V194.633C140.667 193.865 140.471 193.266 140.074 192.836C139.676 192.4 139.129 192.183 138.432 192.183C137.964 192.183 137.55 192.283 137.191 192.485C136.837 192.686 136.559 192.98 136.358 193.367C136.162 193.748 136.061 194.208 136.055 194.747ZM153.557 189.455V192.068H146.002V189.455H153.557ZM147.717 186.449H151.196V198.145C151.196 198.466 151.245 198.717 151.343 198.896C151.441 199.071 151.577 199.193 151.752 199.264C151.931 199.335 152.138 199.37 152.372 199.37C152.536 199.37 152.699 199.356 152.862 199.329C153.026 199.297 153.151 199.272 153.238 199.256L153.785 201.845C153.611 201.899 153.366 201.962 153.05 202.033C152.734 202.109 152.35 202.155 151.899 202.172C151.06 202.204 150.325 202.093 149.693 201.837C149.067 201.581 148.58 201.183 148.231 200.644C147.883 200.105 147.711 199.424 147.717 198.602V186.449ZM164.748 185.273V202H161.212V185.273H164.748ZM171.072 194.747V202H167.593V189.455H170.909V191.668H171.056C171.333 190.938 171.799 190.361 172.452 189.936C173.106 189.506 173.898 189.291 174.829 189.291C175.7 189.291 176.46 189.482 177.108 189.863C177.756 190.244 178.259 190.789 178.619 191.496C178.978 192.199 179.158 193.037 179.158 194.012V202H175.679V194.633C175.684 193.865 175.488 193.266 175.09 192.836C174.693 192.4 174.146 192.183 173.449 192.183C172.98 192.183 172.567 192.283 172.207 192.485C171.853 192.686 171.576 192.98 171.374 193.367C171.178 193.748 171.077 194.208 171.072 194.747ZM189.717 193.751V196.511H182.088V193.751H189.717ZM208.118 193.636C208.118 195.46 207.772 197.012 207.081 198.292C206.395 199.571 205.458 200.549 204.271 201.224C203.09 201.894 201.761 202.229 200.286 202.229C198.799 202.229 197.465 201.891 196.283 201.216C195.102 200.541 194.168 199.563 193.482 198.284C192.796 197.004 192.453 195.455 192.453 193.636C192.453 191.812 192.796 190.26 193.482 188.981C194.168 187.701 195.102 186.727 196.283 186.057C197.465 185.382 198.799 185.044 200.286 185.044C201.761 185.044 203.09 185.382 204.271 186.057C205.458 186.727 206.395 187.701 207.081 188.981C207.772 190.26 208.118 191.812 208.118 193.636ZM204.533 193.636C204.533 192.455 204.356 191.458 204.002 190.647C203.653 189.836 203.161 189.22 202.523 188.801C201.886 188.382 201.14 188.172 200.286 188.172C199.431 188.172 198.685 188.382 198.048 188.801C197.411 189.22 196.915 189.836 196.561 190.647C196.213 191.458 196.038 192.455 196.038 193.636C196.038 194.818 196.213 195.814 196.561 196.626C196.915 197.437 197.411 198.052 198.048 198.472C198.685 198.891 199.431 199.1 200.286 199.1C201.14 199.1 201.886 198.891 202.523 198.472C203.161 198.052 203.653 197.437 204.002 196.626C204.356 195.814 204.533 194.818 204.533 193.636ZM218.718 196.658V189.455H222.197V202H218.857V199.721H218.726C218.443 200.456 217.972 201.047 217.313 201.494C216.66 201.94 215.862 202.163 214.92 202.163C214.081 202.163 213.343 201.973 212.706 201.592C212.069 201.21 211.571 200.669 211.212 199.966C210.858 199.264 210.678 198.423 210.673 197.442V189.455H214.152V196.822C214.158 197.562 214.356 198.148 214.748 198.578C215.14 199.008 215.666 199.223 216.325 199.223C216.744 199.223 217.136 199.128 217.501 198.937C217.866 198.741 218.16 198.453 218.383 198.071C218.612 197.69 218.723 197.219 218.718 196.658ZM231.653 189.455V192.068H224.098V189.455H231.653ZM225.813 186.449H229.293V198.145C229.293 198.466 229.342 198.717 229.44 198.896C229.538 199.071 229.674 199.193 229.848 199.264C230.028 199.335 230.235 199.37 230.469 199.37C230.632 199.37 230.796 199.356 230.959 199.329C231.122 199.297 231.248 199.272 231.335 199.256L231.882 201.845C231.708 201.899 231.463 201.962 231.147 202.033C230.831 202.109 230.447 202.155 229.995 202.172C229.157 202.204 228.422 202.093 227.79 201.837C227.164 201.581 226.676 201.183 226.328 200.644C225.979 200.105 225.808 199.424 225.813 198.602V186.449ZM239.308 202V185.273H242.788V191.562H242.894C243.046 191.224 243.267 190.881 243.555 190.533C243.85 190.179 244.231 189.885 244.699 189.651C245.173 189.411 245.761 189.291 246.463 189.291C247.378 189.291 248.222 189.531 248.995 190.01C249.768 190.484 250.386 191.2 250.849 192.158C251.312 193.111 251.543 194.306 251.543 195.744C251.543 197.143 251.317 198.325 250.866 199.288C250.419 200.247 249.809 200.974 249.036 201.469C248.268 201.959 247.408 202.204 246.455 202.204C245.78 202.204 245.205 202.093 244.732 201.869C244.263 201.646 243.879 201.366 243.58 201.028C243.281 200.685 243.052 200.339 242.894 199.991H242.739V202H239.308ZM242.714 195.727C242.714 196.473 242.818 197.124 243.025 197.679C243.232 198.235 243.531 198.668 243.923 198.978C244.315 199.283 244.792 199.435 245.352 199.435C245.919 199.435 246.398 199.28 246.79 198.97C247.182 198.654 247.479 198.218 247.68 197.663C247.887 197.102 247.991 196.457 247.991 195.727C247.991 195.003 247.89 194.366 247.688 193.816C247.487 193.266 247.19 192.836 246.798 192.526C246.406 192.215 245.924 192.06 245.352 192.06C244.786 192.06 244.307 192.21 243.915 192.509C243.528 192.809 243.232 193.233 243.025 193.783C242.818 194.333 242.714 194.981 242.714 195.727ZM259.533 202.245C258.265 202.245 257.167 201.975 256.242 201.436C255.322 200.892 254.611 200.135 254.11 199.166C253.609 198.191 253.359 197.061 253.359 195.776C253.359 194.48 253.609 193.348 254.11 192.379C254.611 191.404 255.322 190.647 256.242 190.108C257.167 189.563 258.265 189.291 259.533 189.291C260.802 189.291 261.897 189.563 262.817 190.108C263.742 190.647 264.456 191.404 264.957 192.379C265.458 193.348 265.708 194.48 265.708 195.776C265.708 197.061 265.458 198.191 264.957 199.166C264.456 200.135 263.742 200.892 262.817 201.436C261.897 201.975 260.802 202.245 259.533 202.245ZM259.55 199.55C260.127 199.55 260.609 199.386 260.995 199.06C261.382 198.728 261.673 198.276 261.869 197.704C262.071 197.132 262.172 196.481 262.172 195.752C262.172 195.022 262.071 194.371 261.869 193.8C261.673 193.228 261.382 192.776 260.995 192.444C260.609 192.112 260.127 191.946 259.55 191.946C258.967 191.946 258.477 192.112 258.08 192.444C257.688 192.776 257.391 193.228 257.189 193.8C256.993 194.371 256.895 195.022 256.895 195.752C256.895 196.481 256.993 197.132 257.189 197.704C257.391 198.276 257.688 198.728 258.08 199.06C258.477 199.386 258.967 199.55 259.55 199.55ZM273.639 202.245C272.37 202.245 271.273 201.975 270.347 201.436C269.427 200.892 268.717 200.135 268.216 199.166C267.715 198.191 267.464 197.061 267.464 195.776C267.464 194.48 267.715 193.348 268.216 192.379C268.717 191.404 269.427 190.647 270.347 190.108C271.273 189.563 272.37 189.291 273.639 189.291C274.908 189.291 276.002 189.563 276.922 190.108C277.848 190.647 278.561 191.404 279.062 192.379C279.563 193.348 279.814 194.48 279.814 195.776C279.814 197.061 279.563 198.191 279.062 199.166C278.561 200.135 277.848 200.892 276.922 201.436C276.002 201.975 274.908 202.245 273.639 202.245ZM273.655 199.55C274.232 199.55 274.714 199.386 275.101 199.06C275.487 198.728 275.779 198.276 275.975 197.704C276.176 197.132 276.277 196.481 276.277 195.752C276.277 195.022 276.176 194.371 275.975 193.8C275.779 193.228 275.487 192.776 275.101 192.444C274.714 192.112 274.232 191.946 273.655 191.946C273.073 191.946 272.583 192.112 272.185 192.444C271.793 192.776 271.496 193.228 271.295 193.8C271.099 194.371 271.001 195.022 271.001 195.752C271.001 196.481 271.099 197.132 271.295 197.704C271.496 198.276 271.793 198.728 272.185 199.06C272.583 199.386 273.073 199.55 273.655 199.55ZM285.229 198.39L285.237 194.216H285.743L289.762 189.455H293.756L288.357 195.76H287.532L285.229 198.39ZM282.076 202V185.273H285.555V202H282.076ZM289.917 202L286.225 196.536L288.545 194.077L293.993 202H289.917Z" fill="white"/>
<circle cx="174.5" cy="93.5" r="70.5" fill="white"/>
<g clip-path="url(#clip0_8_337)">
<path d="M210.224 116.872L212.89 127.536C215.835 127.536 218.223 125.149 218.223 122.204V121.315L210.224 116.872Z" fill="#2DADE3"/>
<path d="M207.558 121.315V122.204C207.558 125.149 209.946 127.536 212.89 127.536V116.872L207.558 121.315Z" fill="#49C9FF"/>
<path d="M212.89 110.651H214.668C216.631 110.651 218.223 112.243 218.223 114.206V121.315H212.89L210.224 115.094L212.89 110.651Z" fill="#869E47"/>
<path d="M212.89 110.651H211.113C209.15 110.651 207.558 112.243 207.558 114.206V121.315H212.89V110.651Z" fill="#9DB55F"/>
<path d="M212.89 94.655L210.224 99.987L212.89 105.319C215.835 105.319 218.223 102.932 218.223 99.987C218.223 97.0422 215.835 94.655 212.89 94.655Z" fill="#60312C"/>
<path d="M207.558 99.987C207.558 102.932 209.946 105.319 212.89 105.319V94.655C209.946 94.655 207.558 97.0422 207.558 99.987Z" fill="#85453D"/>
<path d="M188.896 94.655V107.985C193.314 107.985 196.895 104.404 196.895 99.987L188.896 94.655Z" fill="#1990C2"/>
<path d="M191.562 99.987L188.896 94.655L180.898 99.987C180.898 104.404 184.479 107.985 188.896 107.985C190.369 107.985 191.562 104.404 191.562 99.987Z" fill="#2DADE3"/>
<path d="M193.34 78.6592H188.008L191.562 99.9872H196.894V82.2139C196.894 80.2506 195.303 78.6592 193.34 78.6592Z" fill="#FF6337"/>
<path d="M188.008 78.6592H184.453C182.49 78.6592 180.898 80.2506 180.898 82.2139V99.9872H191.562V82.2139C191.562 80.2506 189.971 78.6592 188.008 78.6592Z" fill="#FF8646"/>
<path d="M188.896 57.3311V73.3271C193.314 73.3271 196.895 69.7463 196.895 65.3291C196.895 60.9119 193.314 57.3311 188.896 57.3311Z" fill="#60312C"/>
<path d="M191.562 65.3291C191.562 60.9119 190.369 57.3311 188.896 57.3311C184.479 57.3311 180.898 60.9119 180.898 65.3291C180.898 69.7463 184.479 73.3271 188.896 73.3271C190.369 73.3271 191.562 69.7463 191.562 65.3291Z" fill="#85453D"/>
<path d="M130.777 49.333L141.441 74.6601H162.236L172.9 49.333H130.777Z" fill="#E18F4E"/>
<path d="M162.236 74.6602H141.441L130.777 99.9872H172.9L162.236 74.6602Z" fill="#C27749"/>
<path d="M146.773 65.329L130.777 49.333V99.9871L146.773 83.9911V65.329Z" fill="#FFA754"/>
<path d="M156.904 65.329V83.9911L172.9 99.9871V49.333L156.904 65.329Z" fill="#A45E43"/>
<path d="M167.568 54.665H136.109V94.6551H167.568V54.665Z" fill="#FFF0D3"/>
<path d="M155.127 61.7744L149.795 74.6601L155.127 87.5458H160.459V61.7744H155.127Z" fill="#869E47"/>
<path d="M155.127 61.7744H143.219V87.5458H155.127V61.7744Z" fill="#9DB55F"/>
<path d="M212.89 106.652C216.566 106.652 219.555 103.662 219.555 99.987C219.555 96.3119 216.566 93.322 212.89 93.322C209.215 93.322 206.225 96.3119 206.225 99.987C206.225 103.662 209.215 106.652 212.89 106.652ZM212.89 95.988C215.096 95.988 216.889 97.7819 216.889 99.987C216.889 102.192 215.096 103.986 212.89 103.986C210.685 103.986 208.891 102.192 208.891 99.987C208.891 97.7819 210.685 95.988 212.89 95.988Z" fill="black"/>
<path d="M214.668 109.318H211.113C208.937 109.318 207.089 110.748 206.458 112.718C204.787 112.238 203.559 110.697 203.559 108.874V87.5459C203.559 84.2725 201.187 81.5447 198.071 80.987C197.526 78.8838 195.611 77.3262 193.34 77.3262H184.453C181.758 77.3262 179.565 79.5187 179.565 82.2138V99.9872C179.565 102.523 180.584 104.825 182.231 106.509V134.929L177.811 136.402C177.112 136.635 176.735 137.39 176.968 138.088C177.154 138.647 177.674 139 178.232 139C178.372 139 178.514 138.978 178.654 138.931L183.986 137.154C184.53 136.973 184.897 136.463 184.897 135.889V108.416C186.11 108.994 187.466 109.318 188.896 109.318C190.327 109.318 191.682 108.994 192.895 108.416V134.929L188.475 136.402C187.776 136.635 187.399 137.39 187.631 138.088C187.818 138.647 188.338 139 188.896 139C189.036 139 189.178 138.978 189.318 138.931L194.65 137.154C195.194 136.973 195.561 136.463 195.561 135.889V106.509C197.209 104.825 198.227 102.523 198.227 99.9872V83.7761C199.779 84.3264 200.893 85.808 200.893 87.5459V108.874C200.893 112.093 203.187 114.785 206.225 115.405V137.667C206.225 138.403 206.822 139 207.558 139C208.294 139 208.891 138.403 208.891 137.667V127.532C210.006 128.371 211.391 128.869 212.89 128.869C214.389 128.869 215.774 128.371 216.889 127.532V137.667C216.889 138.403 217.486 139 218.222 139C218.958 139 219.555 138.403 219.555 137.667V114.206C219.555 111.511 217.363 109.318 214.668 109.318ZM184.453 79.9922H193.34C194.565 79.9922 195.561 80.9887 195.561 82.2138V98.6542H182.231V82.2138C182.231 80.9887 183.228 79.9922 184.453 79.9922ZM182.366 101.32H195.427C194.808 104.359 192.115 106.652 188.897 106.652C185.678 106.652 182.985 104.359 182.366 101.32ZM211.113 111.984H214.668C215.893 111.984 216.889 112.981 216.889 114.206V119.982H208.891V114.206C208.891 112.981 209.888 111.984 211.113 111.984ZM212.89 126.203C210.836 126.203 209.138 124.645 208.917 122.648H216.864C216.642 124.645 214.945 126.203 212.89 126.203Z" fill="black"/>
<path d="M188.896 74.6601C194.042 74.6601 198.227 70.4743 198.227 65.3291C198.227 60.1839 194.042 55.998 188.896 55.998C183.751 55.998 179.565 60.1839 179.565 65.3291C179.565 70.4743 183.751 74.6601 188.896 74.6601ZM188.896 58.6641C192.572 58.6641 195.561 61.6539 195.561 65.3291C195.561 69.0042 192.572 71.9941 188.896 71.9941C185.221 71.9941 182.231 69.0042 182.231 65.3291C182.231 61.6539 185.221 58.6641 188.896 58.6641Z" fill="black"/>
<path d="M172.9 103.986H167.568C166.832 103.986 166.235 104.583 166.235 105.319C166.235 106.055 166.832 106.652 167.568 106.652H172.9C173.637 106.652 174.233 106.055 174.233 105.319C174.233 104.583 173.637 103.986 172.9 103.986Z" fill="black"/>
<path d="M172.9 48H130.777C130.041 48 129.444 48.5968 129.444 49.333V99.9871C129.444 100.723 130.041 101.32 130.777 101.32H172.9C173.637 101.32 174.233 100.723 174.233 99.9871V49.333C174.233 48.5968 173.637 48 172.9 48ZM132.11 52.551L134.776 55.2171V94.1029L132.11 96.7689V52.551ZM137.442 93.3221V55.998H166.235V93.3221H137.442ZM167.016 53.332H136.662L133.996 50.666H169.682L167.016 53.332ZM136.662 95.9881H167.016L169.682 98.6541H133.996L136.662 95.9881ZM168.901 94.1031V55.2171L171.567 52.551V96.7689L168.901 94.1031Z" fill="black"/>
<path d="M160.459 60.4414H143.219C142.483 60.4414 141.886 61.0382 141.886 61.7744V87.5458C141.886 88.282 142.483 88.8788 143.219 88.8788H160.459C161.195 88.8788 161.792 88.282 161.792 87.5458V84.8798C161.792 84.1436 161.195 83.5468 160.459 83.5468C159.723 83.5468 159.126 84.1436 159.126 84.8798V86.2128H144.552V63.1074H159.126V79.5478C159.126 80.284 159.723 80.8808 160.459 80.8808C161.195 80.8808 161.792 80.284 161.792 79.5478V61.7744C161.792 61.0382 161.195 60.4414 160.459 60.4414Z" fill="black"/>
</g>
<defs>
<clipPath id="clip0_8_337">
<rect width="91" height="91" fill="white" transform="translate(129 48)"/>
</clipPath>
</defs>
</svg>
