<svg width="350" height="234" viewBox="0 0 350 234" fill="none" xmlns="http://www.w3.org/2000/svg">
<path d="M127.454 200V183.273H138.725V186.189H130.99V190.174H138.145V193.09H130.99V197.084H138.758V200H127.454ZM144.951 183.273V200H141.472V183.273H144.951ZM153.455 200.245C152.165 200.245 151.054 199.984 150.123 199.461C149.197 198.933 148.484 198.187 147.983 197.223C147.482 196.254 147.232 195.108 147.232 193.784C147.232 192.494 147.482 191.361 147.983 190.387C148.484 189.412 149.189 188.652 150.099 188.108C151.013 187.563 152.086 187.291 153.317 187.291C154.144 187.291 154.915 187.425 155.628 187.691C156.347 187.953 156.973 188.348 157.507 188.876C158.046 189.404 158.465 190.068 158.764 190.869C159.064 191.664 159.214 192.595 159.214 193.662V194.618H148.62V192.461H155.938C155.938 191.96 155.829 191.517 155.612 191.13C155.394 190.743 155.092 190.441 154.705 190.223C154.324 190 153.88 189.888 153.374 189.888C152.846 189.888 152.377 190.011 151.969 190.256C151.566 190.496 151.25 190.82 151.021 191.228C150.793 191.631 150.676 192.08 150.67 192.576V194.626C150.67 195.246 150.785 195.783 151.013 196.235C151.247 196.687 151.577 197.035 152.002 197.28C152.426 197.525 152.93 197.648 153.513 197.648C153.899 197.648 154.253 197.593 154.574 197.484C154.896 197.375 155.171 197.212 155.399 196.994C155.628 196.777 155.802 196.51 155.922 196.194L159.14 196.406C158.977 197.179 158.642 197.855 158.135 198.432C157.635 199.004 156.987 199.45 156.192 199.771C155.402 200.087 154.49 200.245 153.455 200.245ZM167.153 200.245C165.867 200.245 164.762 199.973 163.836 199.428C162.916 198.878 162.208 198.116 161.713 197.141C161.223 196.167 160.978 195.045 160.978 193.776C160.978 192.491 161.226 191.364 161.721 190.395C162.222 189.42 162.933 188.661 163.853 188.116C164.773 187.566 165.867 187.291 167.136 187.291C168.231 187.291 169.189 187.49 170.011 187.887C170.833 188.285 171.484 188.843 171.963 189.562C172.442 190.281 172.706 191.125 172.756 192.094H169.472C169.38 191.468 169.135 190.964 168.737 190.583C168.345 190.196 167.83 190.003 167.193 190.003C166.654 190.003 166.183 190.15 165.78 190.444C165.383 190.732 165.073 191.154 164.849 191.71C164.626 192.265 164.514 192.938 164.514 193.727C164.514 194.528 164.623 195.208 164.841 195.769C165.064 196.33 165.377 196.757 165.78 197.051C166.183 197.346 166.654 197.493 167.193 197.493C167.591 197.493 167.948 197.411 168.263 197.248C168.585 197.084 168.849 196.847 169.056 196.537C169.268 196.221 169.407 195.843 169.472 195.402H172.756C172.701 196.36 172.44 197.204 171.971 197.934C171.509 198.658 170.869 199.224 170.052 199.632C169.235 200.041 168.269 200.245 167.153 200.245ZM181.656 187.455V190.068H174.101V187.455H181.656ZM175.816 184.449H179.296V196.145C179.296 196.466 179.345 196.717 179.443 196.896C179.541 197.071 179.677 197.193 179.851 197.264C180.031 197.335 180.238 197.37 180.472 197.37C180.635 197.37 180.799 197.356 180.962 197.329C181.125 197.297 181.251 197.272 181.338 197.256L181.885 199.845C181.711 199.899 181.466 199.962 181.15 200.033C180.834 200.109 180.45 200.155 179.998 200.172C179.16 200.204 178.425 200.093 177.793 199.837C177.167 199.581 176.679 199.183 176.331 198.644C175.982 198.105 175.811 197.424 175.816 196.602V184.449ZM183.923 200V187.455H187.296V189.643H187.427C187.655 188.865 188.039 188.277 188.578 187.879C189.117 187.476 189.738 187.275 190.44 187.275C190.615 187.275 190.803 187.286 191.004 187.308C191.205 187.329 191.382 187.359 191.535 187.397V190.485C191.372 190.436 191.146 190.392 190.857 190.354C190.568 190.316 190.304 190.297 190.065 190.297C189.553 190.297 189.095 190.408 188.693 190.632C188.295 190.85 187.979 191.154 187.745 191.547C187.516 191.939 187.402 192.391 187.402 192.902V200H183.923ZM193.334 200V187.455H196.813V200H193.334ZM195.082 185.837C194.564 185.837 194.121 185.666 193.75 185.323C193.386 184.974 193.203 184.558 193.203 184.073C193.203 183.594 193.386 183.183 193.75 182.84C194.121 182.491 194.564 182.317 195.082 182.317C195.599 182.317 196.04 182.491 196.405 182.84C196.775 183.183 196.96 183.594 196.96 184.073C196.96 184.558 196.775 184.974 196.405 185.323C196.04 185.666 195.599 185.837 195.082 185.837ZM205.269 200.245C203.984 200.245 202.878 199.973 201.953 199.428C201.032 198.878 200.325 198.116 199.829 197.141C199.339 196.167 199.094 195.045 199.094 193.776C199.094 192.491 199.342 191.364 199.837 190.395C200.338 189.42 201.049 188.661 201.969 188.116C202.889 187.566 203.984 187.291 205.252 187.291C206.347 187.291 207.305 187.49 208.127 187.887C208.95 188.285 209.6 188.843 210.079 189.562C210.559 190.281 210.823 191.125 210.872 192.094H207.588C207.496 191.468 207.251 190.964 206.853 190.583C206.461 190.196 205.947 190.003 205.31 190.003C204.771 190.003 204.3 190.15 203.897 190.444C203.499 190.732 203.189 191.154 202.965 191.71C202.742 192.265 202.631 192.938 202.631 193.727C202.631 194.528 202.739 195.208 202.957 195.769C203.181 196.33 203.494 196.757 203.897 197.051C204.3 197.346 204.771 197.493 205.31 197.493C205.707 197.493 206.064 197.411 206.38 197.248C206.701 197.084 206.965 196.847 207.172 196.537C207.384 196.221 207.523 195.843 207.588 195.402H210.872C210.817 196.36 210.556 197.204 210.088 197.934C209.625 198.658 208.985 199.224 208.168 199.632C207.351 200.041 206.385 200.245 205.269 200.245ZM213.099 200V187.455H216.579V200H213.099ZM214.847 185.837C214.33 185.837 213.886 185.666 213.516 185.323C213.151 184.974 212.969 184.558 212.969 184.073C212.969 183.594 213.151 183.183 213.516 182.84C213.886 182.491 214.33 182.317 214.847 182.317C215.365 182.317 215.806 182.491 216.17 182.84C216.541 183.183 216.726 183.594 216.726 184.073C216.726 184.558 216.541 184.974 216.17 185.323C215.806 185.666 215.365 185.837 214.847 185.837ZM222.943 200.237C222.143 200.237 221.43 200.098 220.804 199.82C220.177 199.537 219.682 199.121 219.317 198.571C218.958 198.015 218.778 197.324 218.778 196.496C218.778 195.799 218.906 195.214 219.162 194.74C219.418 194.266 219.766 193.885 220.207 193.597C220.648 193.308 221.149 193.09 221.71 192.943C222.276 192.796 222.87 192.693 223.491 192.633C224.22 192.557 224.808 192.486 225.255 192.42C225.701 192.35 226.025 192.246 226.227 192.11C226.428 191.974 226.529 191.772 226.529 191.506V191.457C226.529 190.939 226.366 190.539 226.039 190.256C225.718 189.973 225.26 189.831 224.667 189.831C224.041 189.831 223.542 189.97 223.172 190.248C222.802 190.52 222.557 190.863 222.437 191.277L219.219 191.016C219.382 190.253 219.704 189.594 220.183 189.039C220.662 188.478 221.28 188.048 222.037 187.749C222.799 187.444 223.681 187.291 224.683 187.291C225.38 187.291 226.047 187.373 226.684 187.536C227.327 187.7 227.896 187.953 228.391 188.296C228.892 188.639 229.287 189.08 229.576 189.619C229.864 190.153 230.008 190.792 230.008 191.538V200H226.709V198.26H226.611C226.409 198.652 226.14 198.998 225.802 199.298C225.465 199.592 225.059 199.823 224.585 199.992C224.111 200.155 223.564 200.237 222.943 200.237ZM223.94 197.836C224.452 197.836 224.904 197.735 225.296 197.533C225.688 197.326 225.995 197.049 226.219 196.7C226.442 196.352 226.554 195.957 226.554 195.516V194.185C226.445 194.255 226.295 194.321 226.104 194.381C225.919 194.435 225.71 194.487 225.475 194.536C225.241 194.579 225.007 194.62 224.773 194.658C224.539 194.691 224.326 194.721 224.136 194.748C223.728 194.808 223.371 194.903 223.066 195.034C222.761 195.165 222.524 195.342 222.355 195.565C222.187 195.783 222.102 196.055 222.102 196.382C222.102 196.855 222.274 197.218 222.617 197.468C222.965 197.713 223.406 197.836 223.94 197.836ZM236.187 192.747V200H232.708V187.455H236.024V189.668H236.171C236.449 188.938 236.914 188.361 237.568 187.936C238.221 187.506 239.013 187.291 239.944 187.291C240.816 187.291 241.575 187.482 242.223 187.863C242.871 188.244 243.375 188.789 243.734 189.496C244.093 190.199 244.273 191.037 244.273 192.012V200H240.794V192.633C240.799 191.865 240.603 191.266 240.206 190.836C239.808 190.4 239.261 190.183 238.564 190.183C238.096 190.183 237.682 190.283 237.323 190.485C236.969 190.686 236.691 190.98 236.489 191.367C236.293 191.748 236.193 192.208 236.187 192.747Z" fill="white"/>
<rect width="350" height="234" rx="28" fill="#0A8996"/>
<circle cx="175.5" cy="93.5" r="70.5" fill="white"/>
<path d="M63.5281 191.083C63.4627 190.425 63.1823 189.913 62.6868 189.548C62.1913 189.183 61.5188 189.001 60.6694 189.001C60.0922 189.001 59.6049 189.082 59.2074 189.246C58.8099 189.404 58.505 189.624 58.2926 189.907C58.0857 190.19 57.9822 190.512 57.9822 190.871C57.9714 191.171 58.034 191.432 58.1701 191.655C58.3117 191.878 58.505 192.072 58.75 192.235C58.995 192.393 59.2782 192.532 59.5994 192.652C59.9207 192.766 60.2637 192.864 60.6286 192.946L62.1314 193.305C62.861 193.468 63.5308 193.686 64.1406 193.958C64.7505 194.231 65.2786 194.566 65.7251 194.963C66.1716 195.361 66.5174 195.829 66.7624 196.368C67.0129 196.907 67.1409 197.525 67.1463 198.222C67.1409 199.246 66.8795 200.133 66.3622 200.885C65.8504 201.631 65.1098 202.21 64.1406 202.624C63.1768 203.033 62.0143 203.237 60.6531 203.237C59.3027 203.237 58.1265 203.03 57.1246 202.616C56.1282 202.202 55.3496 201.59 54.7887 200.778C54.2333 199.962 53.942 198.952 53.9148 197.748H57.337C57.3751 198.309 57.5357 198.777 57.8189 199.153C58.1075 199.523 58.4914 199.804 58.9705 199.994C59.4551 200.179 60.0024 200.272 60.6122 200.272C61.2112 200.272 61.7312 200.185 62.1722 200.011C62.6187 199.836 62.9645 199.594 63.2095 199.284C63.4545 198.973 63.5771 198.617 63.5771 198.214C63.5771 197.838 63.4654 197.522 63.2422 197.266C63.0244 197.01 62.7031 196.793 62.2784 196.613C61.8591 196.433 61.3446 196.27 60.7347 196.123L58.9134 195.665C57.5031 195.322 56.3896 194.786 55.5728 194.056C54.756 193.327 54.3504 192.344 54.3558 191.108C54.3504 190.095 54.6199 189.21 55.1644 188.453C55.7144 187.697 56.4685 187.106 57.4268 186.681C58.3852 186.256 59.4742 186.044 60.6939 186.044C61.9354 186.044 63.0189 186.256 63.9446 186.681C64.8757 187.106 65.5999 187.697 66.1172 188.453C66.6345 189.21 66.9013 190.087 66.9176 191.083H63.5281ZM75.1281 203.245C73.8594 203.245 72.7622 202.975 71.8366 202.436C70.9163 201.892 70.2058 201.135 69.7048 200.166C69.2039 199.191 68.9534 198.061 68.9534 196.776C68.9534 195.48 69.2039 194.348 69.7048 193.379C70.2058 192.404 70.9163 191.647 71.8366 191.108C72.7622 190.563 73.8594 190.291 75.1281 190.291C76.3968 190.291 77.4913 190.563 78.4115 191.108C79.3372 191.647 80.0505 192.404 80.5514 193.379C81.0524 194.348 81.3028 195.48 81.3028 196.776C81.3028 198.061 81.0524 199.191 80.5514 200.166C80.0505 201.135 79.3372 201.892 78.4115 202.436C77.4913 202.975 76.3968 203.245 75.1281 203.245ZM75.1444 200.55C75.7216 200.55 76.2035 200.386 76.5901 200.06C76.9767 199.728 77.268 199.276 77.464 198.704C77.6655 198.132 77.7662 197.481 77.7662 196.752C77.7662 196.022 77.6655 195.371 77.464 194.8C77.268 194.228 76.9767 193.776 76.5901 193.444C76.2035 193.112 75.7216 192.946 75.1444 192.946C74.5618 192.946 74.0718 193.112 73.6743 193.444C73.2822 193.776 72.9855 194.228 72.784 194.8C72.588 195.371 72.49 196.022 72.49 196.752C72.49 197.481 72.588 198.132 72.784 198.704C72.9855 199.276 73.2822 199.728 73.6743 200.06C74.0718 200.386 74.5618 200.55 75.1444 200.55ZM89.2336 203.245C87.9485 203.245 86.8432 202.973 85.9175 202.428C84.9973 201.878 84.2894 201.116 83.7939 200.141C83.3039 199.167 83.0589 198.045 83.0589 196.776C83.0589 195.491 83.3066 194.364 83.8021 193.395C84.3031 192.42 85.0136 191.661 85.9339 191.116C86.8541 190.566 87.9485 190.291 89.2172 190.291C90.3117 190.291 91.27 190.49 92.0922 190.887C92.9144 191.285 93.5651 191.843 94.0443 192.562C94.5235 193.281 94.7876 194.125 94.8366 195.094H91.5532C91.4606 194.468 91.2156 193.964 90.8181 193.583C90.426 193.196 89.9115 193.003 89.2744 193.003C88.7354 193.003 88.2644 193.15 87.8614 193.444C87.4639 193.732 87.1536 194.154 86.9303 194.71C86.7071 195.265 86.5954 195.938 86.5954 196.727C86.5954 197.528 86.7043 198.208 86.9221 198.769C87.1454 199.33 87.4585 199.757 87.8614 200.051C88.2644 200.346 88.7354 200.493 89.2744 200.493C89.6719 200.493 90.0286 200.411 90.3444 200.248C90.6656 200.084 90.9297 199.847 91.1366 199.537C91.349 199.221 91.4878 198.843 91.5532 198.402H94.8366C94.7821 199.36 94.5207 200.204 94.0525 200.934C93.5896 201.658 92.9498 202.224 92.1331 202.632C91.3163 203.041 90.3498 203.245 89.2336 203.245ZM97.0643 203V190.455H100.544V203H97.0643ZM98.8121 188.837C98.2949 188.837 97.8511 188.666 97.4808 188.323C97.116 187.974 96.9336 187.558 96.9336 187.073C96.9336 186.594 97.116 186.183 97.4808 185.84C97.8511 185.491 98.2949 185.317 98.8121 185.317C99.3294 185.317 99.7705 185.491 100.135 185.84C100.506 186.183 100.691 186.594 100.691 187.073C100.691 187.558 100.506 187.974 100.135 188.323C99.7705 188.666 99.3294 188.837 98.8121 188.837ZM109.048 203.245C107.758 203.245 106.647 202.984 105.716 202.461C104.79 201.933 104.077 201.187 103.576 200.223C103.075 199.254 102.824 198.108 102.824 196.784C102.824 195.494 103.075 194.361 103.576 193.387C104.077 192.412 104.782 191.652 105.691 191.108C106.606 190.563 107.679 190.291 108.909 190.291C109.737 190.291 110.507 190.425 111.221 190.691C111.94 190.953 112.566 191.348 113.099 191.876C113.638 192.404 114.058 193.068 114.357 193.869C114.657 194.664 114.806 195.595 114.806 196.662V197.618H104.213V195.461H111.531C111.531 194.96 111.422 194.517 111.204 194.13C110.987 193.743 110.684 193.441 110.298 193.223C109.917 193 109.473 192.888 108.967 192.888C108.438 192.888 107.97 193.011 107.562 193.256C107.159 193.496 106.843 193.82 106.614 194.228C106.386 194.631 106.268 195.08 106.263 195.576V197.626C106.263 198.246 106.377 198.783 106.606 199.235C106.84 199.687 107.17 200.035 107.594 200.28C108.019 200.525 108.523 200.648 109.105 200.648C109.492 200.648 109.846 200.593 110.167 200.484C110.488 200.375 110.763 200.212 110.992 199.994C111.221 199.777 111.395 199.51 111.515 199.194L114.733 199.406C114.57 200.179 114.235 200.855 113.728 201.432C113.227 202.004 112.579 202.45 111.784 202.771C110.995 203.087 110.083 203.245 109.048 203.245ZM123.75 190.455V193.068H116.195V190.455H123.75ZM117.91 187.449H121.389V199.145C121.389 199.466 121.438 199.717 121.536 199.896C121.634 200.071 121.771 200.193 121.945 200.264C122.125 200.335 122.331 200.37 122.566 200.37C122.729 200.37 122.892 200.356 123.056 200.329C123.219 200.297 123.344 200.272 123.431 200.256L123.979 202.845C123.804 202.899 123.559 202.962 123.244 203.033C122.928 203.109 122.544 203.155 122.092 203.172C121.253 203.204 120.518 203.093 119.887 202.837C119.26 202.581 118.773 202.183 118.425 201.644C118.076 201.105 117.905 200.424 117.91 199.602V187.449ZM128.165 207.705C127.723 207.705 127.31 207.669 126.923 207.598C126.542 207.533 126.226 207.449 125.976 207.345L126.76 204.748C127.168 204.873 127.536 204.941 127.862 204.952C128.194 204.963 128.48 204.887 128.72 204.723C128.965 204.56 129.164 204.282 129.316 203.89L129.52 203.359L125.02 190.455H128.679L131.276 199.668H131.407L134.029 190.455H137.712L132.836 204.356C132.602 205.031 132.284 205.619 131.881 206.12C131.483 206.626 130.98 207.016 130.37 207.288C129.76 207.566 129.025 207.705 128.165 207.705ZM153.956 191.083C153.89 190.425 153.61 189.913 153.115 189.548C152.619 189.183 151.947 189.001 151.097 189.001C150.52 189.001 150.033 189.082 149.635 189.246C149.238 189.404 148.933 189.624 148.72 189.907C148.513 190.19 148.41 190.512 148.41 190.871C148.399 191.171 148.462 191.432 148.598 191.655C148.739 191.878 148.933 192.072 149.178 192.235C149.423 192.393 149.706 192.532 150.027 192.652C150.348 192.766 150.691 192.864 151.056 192.946L152.559 193.305C153.289 193.468 153.959 193.686 154.568 193.958C155.178 194.231 155.706 194.566 156.153 194.963C156.599 195.361 156.945 195.829 157.19 196.368C157.441 196.907 157.569 197.525 157.574 198.222C157.569 199.246 157.307 200.133 156.79 200.885C156.278 201.631 155.538 202.21 154.568 202.624C153.605 203.033 152.442 203.237 151.081 203.237C149.73 203.237 148.554 203.03 147.552 202.616C146.556 202.202 145.777 201.59 145.216 200.778C144.661 199.962 144.37 198.952 144.343 197.748H147.765C147.803 198.309 147.963 198.777 148.247 199.153C148.535 199.523 148.919 199.804 149.398 199.994C149.883 200.179 150.43 200.272 151.04 200.272C151.639 200.272 152.159 200.185 152.6 200.011C153.046 199.836 153.392 199.594 153.637 199.284C153.882 198.973 154.005 198.617 154.005 198.214C154.005 197.838 153.893 197.522 153.67 197.266C153.452 197.01 153.131 196.793 152.706 196.613C152.287 196.433 151.772 196.27 151.162 196.123L149.341 195.665C147.931 195.322 146.817 194.786 146.001 194.056C145.184 193.327 144.778 192.344 144.784 191.108C144.778 190.095 145.048 189.21 145.592 188.453C146.142 187.697 146.896 187.106 147.855 186.681C148.813 186.256 149.902 186.044 151.122 186.044C152.363 186.044 153.447 186.256 154.372 186.681C155.303 187.106 156.028 187.697 156.545 188.453C157.062 189.21 157.329 190.087 157.345 191.083H153.956ZM166.56 190.455V193.068H159.005V190.455H166.56ZM160.721 187.449H164.2V199.145C164.2 199.466 164.249 199.717 164.347 199.896C164.445 200.071 164.581 200.193 164.755 200.264C164.935 200.335 165.142 200.37 165.376 200.37C165.54 200.37 165.703 200.356 165.866 200.329C166.03 200.297 166.155 200.272 166.242 200.256L166.789 202.845C166.615 202.899 166.37 202.962 166.054 203.033C165.738 203.109 165.354 203.155 164.902 203.172C164.064 203.204 163.329 203.093 162.697 202.837C162.071 202.581 161.584 202.183 161.235 201.644C160.887 201.105 160.715 200.424 160.721 199.602V187.449ZM172.404 203.237C171.604 203.237 170.891 203.098 170.264 202.82C169.638 202.537 169.143 202.121 168.778 201.571C168.419 201.015 168.239 200.324 168.239 199.496C168.239 198.799 168.367 198.214 168.623 197.74C168.879 197.266 169.227 196.885 169.668 196.597C170.109 196.308 170.61 196.09 171.171 195.943C171.737 195.796 172.331 195.693 172.952 195.633C173.681 195.557 174.269 195.486 174.716 195.42C175.162 195.35 175.486 195.246 175.688 195.11C175.889 194.974 175.99 194.772 175.99 194.506V194.457C175.99 193.939 175.827 193.539 175.5 193.256C175.179 192.973 174.721 192.831 174.128 192.831C173.502 192.831 173.003 192.97 172.633 193.248C172.263 193.52 172.018 193.863 171.898 194.277L168.68 194.016C168.843 193.253 169.165 192.594 169.644 192.039C170.123 191.478 170.741 191.048 171.498 190.749C172.26 190.444 173.142 190.291 174.144 190.291C174.841 190.291 175.508 190.373 176.145 190.536C176.788 190.7 177.357 190.953 177.852 191.296C178.353 191.639 178.748 192.08 179.036 192.619C179.325 193.153 179.469 193.792 179.469 194.538V203H176.17V201.26H176.072C175.87 201.652 175.601 201.998 175.263 202.298C174.925 202.592 174.52 202.823 174.046 202.992C173.572 203.155 173.025 203.237 172.404 203.237ZM173.401 200.836C173.913 200.836 174.365 200.735 174.757 200.533C175.149 200.326 175.456 200.049 175.68 199.7C175.903 199.352 176.014 198.957 176.014 198.516V197.185C175.906 197.255 175.756 197.321 175.565 197.381C175.38 197.435 175.17 197.487 174.936 197.536C174.702 197.579 174.468 197.62 174.234 197.658C174 197.691 173.787 197.721 173.597 197.748C173.188 197.808 172.832 197.903 172.527 198.034C172.222 198.165 171.985 198.342 171.816 198.565C171.648 198.783 171.563 199.055 171.563 199.382C171.563 199.855 171.735 200.218 172.078 200.468C172.426 200.713 172.867 200.836 173.401 200.836ZM188.915 190.455V193.068H181.172V190.455H188.915ZM182.945 203V189.548C182.945 188.639 183.122 187.884 183.476 187.286C183.835 186.687 184.325 186.237 184.946 185.938C185.566 185.638 186.272 185.489 187.061 185.489C187.595 185.489 188.082 185.529 188.523 185.611C188.97 185.693 189.302 185.766 189.52 185.832L188.899 188.445C188.763 188.402 188.594 188.361 188.392 188.323C188.196 188.285 187.995 188.266 187.788 188.266C187.276 188.266 186.92 188.385 186.718 188.625C186.517 188.859 186.416 189.189 186.416 189.613V203H182.945ZM197.787 190.455V193.068H190.044V190.455H197.787ZM191.817 203V189.548C191.817 188.639 191.994 187.884 192.348 187.286C192.707 186.687 193.197 186.237 193.818 185.938C194.439 185.638 195.144 185.489 195.933 185.489C196.467 185.489 196.954 185.529 197.395 185.611C197.842 185.693 198.174 185.766 198.392 185.832L197.771 188.445C197.635 188.402 197.466 188.361 197.265 188.323C197.069 188.285 196.867 188.266 196.66 188.266C196.148 188.266 195.792 188.385 195.59 188.625C195.389 188.859 195.288 189.189 195.288 189.613V203H191.817ZM220.06 192.129H216.483C216.418 191.666 216.284 191.255 216.083 190.896C215.881 190.531 215.623 190.22 215.307 189.964C214.991 189.709 214.626 189.513 214.212 189.376C213.804 189.24 213.36 189.172 212.881 189.172C212.015 189.172 211.261 189.387 210.619 189.817C209.976 190.242 209.478 190.863 209.124 191.68C208.77 192.491 208.593 193.477 208.593 194.636C208.593 195.829 208.77 196.831 209.124 197.642C209.483 198.453 209.984 199.066 210.627 199.48C211.269 199.894 212.013 200.1 212.857 200.1C213.33 200.1 213.769 200.038 214.172 199.913C214.58 199.787 214.942 199.605 215.258 199.365C215.574 199.12 215.835 198.824 216.042 198.475C216.254 198.127 216.401 197.729 216.483 197.283L220.06 197.299C219.968 198.067 219.736 198.807 219.366 199.521C219.001 200.228 218.509 200.863 217.888 201.424C217.272 201.979 216.537 202.42 215.683 202.747C214.833 203.068 213.872 203.229 212.799 203.229C211.307 203.229 209.973 202.891 208.797 202.216C207.627 201.541 206.701 200.563 206.02 199.284C205.345 198.004 205.007 196.455 205.007 194.636C205.007 192.812 205.35 191.26 206.037 189.981C206.723 188.701 207.654 187.727 208.83 187.057C210.006 186.382 211.329 186.044 212.799 186.044C213.769 186.044 214.667 186.18 215.495 186.452C216.328 186.725 217.066 187.122 217.708 187.645C218.351 188.162 218.873 188.797 219.276 189.548C219.685 190.299 219.946 191.16 220.06 192.129ZM226.01 195.747V203H222.531V186.273H225.912V192.668H226.059C226.343 191.927 226.8 191.348 227.432 190.928C228.063 190.504 228.856 190.291 229.808 190.291C230.68 190.291 231.439 190.482 232.087 190.863C232.741 191.239 233.247 191.78 233.606 192.488C233.971 193.191 234.151 194.032 234.145 195.012V203H230.666V195.633C230.671 194.86 230.475 194.258 230.078 193.828C229.686 193.398 229.136 193.183 228.428 193.183C227.954 193.183 227.535 193.283 227.17 193.485C226.811 193.686 226.528 193.98 226.321 194.367C226.119 194.748 226.016 195.208 226.01 195.747ZM242.601 203.245C241.31 203.245 240.2 202.984 239.269 202.461C238.343 201.933 237.63 201.187 237.129 200.223C236.628 199.254 236.377 198.108 236.377 196.784C236.377 195.494 236.628 194.361 237.129 193.387C237.63 192.412 238.335 191.652 239.244 191.108C240.159 190.563 241.232 190.291 242.462 190.291C243.29 190.291 244.06 190.425 244.774 190.691C245.492 190.953 246.118 191.348 246.652 191.876C247.191 192.404 247.61 193.068 247.91 193.869C248.209 194.664 248.359 195.595 248.359 196.662V197.618H237.766V195.461H245.084C245.084 194.96 244.975 194.517 244.757 194.13C244.539 193.743 244.237 193.441 243.851 193.223C243.469 193 243.026 192.888 242.519 192.888C241.991 192.888 241.523 193.011 241.114 193.256C240.711 193.496 240.396 193.82 240.167 194.228C239.938 194.631 239.821 195.08 239.816 195.576V197.626C239.816 198.246 239.93 198.783 240.159 199.235C240.393 199.687 240.722 200.035 241.147 200.28C241.572 200.525 242.075 200.648 242.658 200.648C243.045 200.648 243.399 200.593 243.72 200.484C244.041 200.375 244.316 200.212 244.545 199.994C244.774 199.777 244.948 199.51 245.068 199.194L248.286 199.406C248.122 200.179 247.787 200.855 247.281 201.432C246.78 202.004 246.132 202.45 245.337 202.771C244.548 203.087 243.636 203.245 242.601 203.245ZM256.298 203.245C255.013 203.245 253.908 202.973 252.982 202.428C252.062 201.878 251.354 201.116 250.858 200.141C250.368 199.167 250.123 198.045 250.123 196.776C250.123 195.491 250.371 194.364 250.867 193.395C251.368 192.42 252.078 191.661 252.998 191.116C253.919 190.566 255.013 190.291 256.282 190.291C257.376 190.291 258.334 190.49 259.157 190.887C259.979 191.285 260.63 191.843 261.109 192.562C261.588 193.281 261.852 194.125 261.901 195.094H258.618C258.525 194.468 258.28 193.964 257.883 193.583C257.491 193.196 256.976 193.003 256.339 193.003C255.8 193.003 255.329 193.15 254.926 193.444C254.528 193.732 254.218 194.154 253.995 194.71C253.772 195.265 253.66 195.938 253.66 196.727C253.66 197.528 253.769 198.208 253.987 198.769C254.21 199.33 254.523 199.757 254.926 200.051C255.329 200.346 255.8 200.493 256.339 200.493C256.736 200.493 257.093 200.411 257.409 200.248C257.73 200.084 257.994 199.847 258.201 199.537C258.413 199.221 258.552 198.843 258.618 198.402H261.901C261.847 199.36 261.585 200.204 261.117 200.934C260.654 201.658 260.014 202.224 259.198 202.632C258.381 203.041 257.414 203.245 256.298 203.245ZM267.281 199.39L267.29 195.216H267.796L271.814 190.455H275.808L270.41 196.76H269.585L267.281 199.39ZM264.129 203V186.273H267.608V203H264.129ZM271.97 203L268.278 197.536L270.597 195.077L276.045 203H271.97ZM280.995 186.273V203H277.515V186.273H280.995ZM283.782 203V190.455H287.261V203H283.782ZM285.53 188.837C285.013 188.837 284.569 188.666 284.199 188.323C283.834 187.974 283.651 187.558 283.651 187.073C283.651 186.594 283.834 186.183 284.199 185.84C284.569 185.491 285.013 185.317 285.53 185.317C286.047 185.317 286.488 185.491 286.853 185.84C287.223 186.183 287.408 186.594 287.408 187.073C287.408 187.558 287.223 187.974 286.853 188.323C286.488 188.666 286.047 188.837 285.53 188.837ZM300.487 194.032L297.301 194.228C297.247 193.956 297.13 193.711 296.95 193.493C296.771 193.27 296.534 193.093 296.24 192.962C295.951 192.826 295.605 192.758 295.202 192.758C294.663 192.758 294.209 192.872 293.838 193.101C293.468 193.324 293.283 193.624 293.283 193.999C293.283 194.299 293.403 194.552 293.642 194.759C293.882 194.966 294.293 195.132 294.876 195.257L297.146 195.714C298.366 195.965 299.275 196.368 299.874 196.923C300.473 197.479 300.773 198.208 300.773 199.112C300.773 199.934 300.53 200.656 300.046 201.277C299.567 201.897 298.908 202.382 298.069 202.73C297.236 203.074 296.275 203.245 295.186 203.245C293.525 203.245 292.202 202.899 291.217 202.208C290.237 201.511 289.662 200.563 289.493 199.365L292.915 199.186C293.019 199.692 293.269 200.079 293.667 200.346C294.064 200.607 294.574 200.738 295.194 200.738C295.804 200.738 296.294 200.621 296.664 200.386C297.04 200.147 297.231 199.839 297.236 199.463C297.231 199.148 297.097 198.889 296.836 198.688C296.575 198.481 296.172 198.323 295.627 198.214L293.455 197.781C292.229 197.536 291.317 197.111 290.718 196.507C290.125 195.902 289.828 195.132 289.828 194.195C289.828 193.389 290.046 192.695 290.482 192.113C290.923 191.53 291.541 191.081 292.336 190.765C293.136 190.449 294.073 190.291 295.145 190.291C296.73 190.291 297.977 190.626 298.886 191.296C299.801 191.966 300.334 192.878 300.487 194.032ZM309.637 190.455V193.068H302.082V190.455H309.637ZM303.797 187.449H307.276V199.145C307.276 199.466 307.325 199.717 307.423 199.896C307.521 200.071 307.657 200.193 307.832 200.264C308.011 200.335 308.218 200.37 308.452 200.37C308.616 200.37 308.779 200.356 308.942 200.329C309.106 200.297 309.231 200.272 309.318 200.256L309.865 202.845C309.691 202.899 309.446 202.962 309.13 203.033C308.814 203.109 308.431 203.155 307.979 203.172C307.14 203.204 306.405 203.093 305.773 202.837C305.147 202.581 304.66 202.183 304.311 201.644C303.963 201.105 303.791 200.424 303.797 199.602V187.449Z" fill="white"/>
<g clip-path="url(#clip0_5924_1441)">
<path d="M134.791 52.9333H193.513V138H134.791V52.9333Z" fill="#A1D1D1"/>
<path d="M195.231 75.487H192.577V115.373H195.231V75.487Z" fill="black"/>
<path d="M195.8 98.169L193.126 93.6333C193.063 96.1065 193.128 98.5852 192.955 101.056C192.878 102.149 192.801 103.262 192.667 104.366L192.722 104.265V135.065H136.936V52.9333H192.722V65.2607C192.836 66.0802 192.832 66.9235 192.722 67.7522V70.3977C192.812 72.8947 192.746 75.3917 192.658 77.8887C192.829 79.04 192.829 80.206 192.678 81.3555L194.493 84.4483C194.346 82.3767 194.636 80.2848 195.445 78.3507C195.488 78.1985 195.537 78.0518 195.587 77.9033V51.4667C195.587 50.6563 194.93 50 194.119 50H135.468C134.657 50 134 50.6563 134 51.4667V136.533C134 137.344 134.657 138 135.468 138H194.19C195.001 138 195.658 137.344 195.658 136.533V103.871L195.858 104.214C195.792 102.201 195.785 100.186 195.8 98.169Z" fill="black"/>
<path d="M182.194 112.071L178.498 111.186L174.781 112.073C171.978 112.742 170.004 115.243 170.004 118.121V125.132H173.09L185.226 113.804C184.422 112.971 183.383 112.355 182.196 112.071H182.194Z" fill="#72D8FF"/>
<path d="M177.247 108.527C179.508 107.721 181.127 105.563 181.127 103.025V99.3973H173.368V103.025C173.368 105.561 174.987 107.719 177.247 108.527Z" fill="#FFCDAC"/>
<path d="M173.454 100.547H173.465C175.988 100.547 178.466 99.863 180.629 98.5668L181.127 100.547V99.1407C181.127 96.8105 179.759 94.7993 177.785 93.8625C175.24 94.9423 173.454 97.4632 173.454 100.4V100.547Z" fill="#898998"/>
<path d="M210.18 112.075L205.895 111.052V108.425H200.65V111.045L199.567 111.303L202.801 112.075C205.603 112.744 207.577 115.245 207.577 118.123V125.134H214.956V118.123C214.956 115.246 212.98 112.744 210.18 112.077V112.075Z" fill="#A0E557"/>
<path d="M189.084 115.135L193.972 113.965L192.923 113.714L185.617 113.703L179.635 115.135C175.735 116.068 172.986 119.551 172.986 123.557V129.306H182.435V123.557C182.435 119.551 185.184 116.07 189.084 115.135Z" fill="white"/>
<path d="M198.888 115.136L193.97 113.963L189.081 115.133C185.182 116.066 182.433 119.549 182.433 123.555V129.304H205.542V123.561C205.542 119.553 202.789 116.07 198.888 115.138V115.136Z" fill="#FF5D5D"/>
<path d="M175.129 108.423H172.571V111.123L175.291 117.628L176.57 114.568L175.129 111.123V108.423Z" fill="white"/>
<path d="M203.094 108.423H200.538V111.114L203.259 117.628L204.539 114.568L203.094 111.114V108.423Z" fill="white"/>
<path d="M178.012 108.423H175.129V111.123L176.569 114.568L178.012 111.114V108.423Z" fill="#FFCDAC"/>
<path d="M205.978 108.423H203.094V111.114L204.538 114.568L205.978 111.123V108.423Z" fill="#FFCDAC"/>
<path d="M189.015 111.598V110.749H185.831V111.598C185.831 112.194 185.668 112.759 185.378 113.243L189.276 122.079L190.867 118.469L188.562 113.243C188.85 112.759 189.015 112.194 189.015 111.598Z" fill="white"/>
<path d="M192.717 111.598V110.749H189.014V111.598C189.014 112.194 188.85 112.759 188.561 113.243L190.865 118.469L193.168 113.244C192.878 112.759 192.715 112.196 192.715 111.598H192.717Z" fill="#FFEFD5"/>
<path d="M192.042 110.188C195.176 109.057 197.419 106.058 197.419 102.536V96.9223H186.665V102.536C186.665 106.058 188.906 109.057 192.042 110.188Z" fill="#FFEFD5"/>
<path d="M192.601 89.6972C189.118 91.1217 186.666 94.5408 186.666 98.5338V98.9445C188.723 98.5833 190.608 97.509 191.971 95.8828L197.273 98.994C197.322 98.961 197.37 98.9262 197.42 98.8913V97.1222C197.42 93.813 195.441 90.9677 192.602 89.6972H192.601Z" fill="#FFB954"/>
<path d="M205.265 108.518C207.511 107.702 209.115 105.552 209.115 103.027V99.3992H201.415V103.027C201.415 105.552 203.019 107.702 205.265 108.518Z" fill="#FFCDAC"/>
<path d="M205.858 93.9028C203.421 94.9588 201.674 97.2982 201.465 100.066C201.639 100.114 201.815 100.156 201.992 100.197L202.065 99.9033C202.34 100.068 202.623 100.224 202.905 100.373C203.623 100.486 204.351 100.545 205.084 100.545H209.113V99.1388C209.113 96.8417 207.785 94.8562 205.856 93.901L205.858 93.9028Z" fill="#898998"/>
<path d="M163.594 126.175H171.942V129.305C171.942 129.88 172.41 130.348 172.986 130.348H184.438C185.015 130.348 185.483 129.88 185.483 129.305C185.483 128.729 185.015 128.261 184.438 128.261H179.777V123.671C179.777 123.095 179.309 122.628 178.733 122.628C178.157 122.628 177.689 123.095 177.689 123.671V128.261H174.028V123.555C174.028 120.019 176.432 116.972 179.876 116.149L185.011 114.92L188.314 122.43C188.481 122.809 188.855 123.053 189.27 123.053C189.685 123.053 190.059 122.809 190.226 122.43L193.526 114.931L198.645 116.152C202.092 116.975 204.498 120.021 204.498 123.561V124.725C204.444 124.85 204.415 124.989 204.415 125.132C204.415 125.275 204.444 125.414 204.498 125.539V128.26H200.859V123.669C200.859 123.093 200.391 122.626 199.814 122.626C199.238 122.626 198.77 123.093 198.77 123.669V128.26H193.658C193.082 128.26 192.614 128.727 192.614 129.303C192.614 129.878 193.082 130.346 193.658 130.346H205.542C206.118 130.346 206.586 129.878 206.586 129.303V126.173H214.956C215.532 126.173 216 125.706 216 125.13V118.119C216 114.746 213.706 111.842 210.421 111.057L206.938 110.227V108.846C208.87 107.625 210.159 105.473 210.159 103.026V99.1388C210.159 95.3438 207.068 92.2547 203.268 92.2547C201.218 92.2547 199.376 93.1548 198.113 94.5775C197.007 90.7495 193.469 87.9427 189.285 87.9427C185.095 87.9427 181.552 90.7587 180.451 94.5958C179.186 93.1622 177.338 92.2547 175.28 92.2547C171.481 92.2547 168.389 95.342 168.389 99.1388V103.026C168.389 105.475 169.677 107.627 171.609 108.846V110.227L168.126 111.057C164.842 111.842 162.548 114.746 162.548 118.119V125.13C162.548 125.706 163.016 126.173 163.592 126.173L163.594 126.175ZM181.102 106.703C181.889 108.24 183.097 109.527 184.572 110.41V111.945C183.917 111.538 183.198 111.237 182.438 111.056L178.944 110.22V108.852C179.814 108.306 180.552 107.569 181.102 106.703ZM199.607 108.852V110.22L196.113 111.056C195.35 111.239 194.627 111.541 193.968 111.952V110.429C195.452 109.547 196.669 108.26 197.462 106.72C198.011 107.578 198.745 108.307 199.607 108.85V108.852ZM196.379 100.545V102.78C196.249 106.577 193.118 109.627 189.287 109.627C185.455 109.627 182.187 106.447 182.187 102.534V100.122H185.125C187.789 100.122 190.314 99.0692 192.181 97.2065L196.379 99.6705V100.543V100.545ZM179.392 114.119C178.775 114.266 178.186 114.473 177.627 114.726L178.643 112.293L181.954 113.085C182.211 113.147 182.46 113.228 182.702 113.327L179.392 114.119ZM189.272 119.416L186.661 113.481V111.331C187.494 111.58 188.375 111.714 189.287 111.714C190.199 111.714 191.056 111.584 191.88 111.342V113.494L189.272 119.417V119.416ZM195.83 113.334C196.078 113.232 196.335 113.147 196.599 113.085L199.901 112.295L200.921 114.739C200.354 114.48 199.758 114.273 199.132 114.123L195.83 113.334ZM213.913 118.121V124.089H211.825V119.454C211.825 118.878 211.357 118.411 210.781 118.411C210.205 118.411 209.737 118.878 209.737 119.454V124.089H206.588V123.561C206.588 121.276 205.8 119.155 204.453 117.48L206.621 112.297L209.938 113.089C212.28 113.648 213.915 115.718 213.915 118.121H213.913ZM204.854 111.107L203.259 114.92L201.686 111.158C201.69 111.12 201.694 111.083 201.694 111.045C201.694 111.035 201.694 111.024 201.694 111.015V109.726C202.2 109.846 202.727 109.91 203.268 109.91C203.809 109.91 204.342 109.844 204.85 109.725V111.052C204.85 111.07 204.85 111.09 204.852 111.109L204.854 111.107ZM203.27 107.823C200.622 107.823 198.467 105.671 198.467 103.026V102.855C198.471 102.749 198.473 102.642 198.473 102.534V100.05C200.525 101.058 202.787 101.586 205.085 101.586H208.07V103.024C208.07 105.669 205.916 107.822 203.268 107.822L203.27 107.823ZM203.27 94.341C205.918 94.341 208.072 96.4933 208.072 99.1388V99.5018H205.087C202.831 99.5018 200.614 98.9097 198.662 97.7895C199.247 95.7985 201.092 94.3428 203.272 94.3428L203.27 94.341ZM182.187 97.1203C182.187 93.2098 185.371 90.029 189.287 90.029C193.203 90.029 196.386 93.2098 196.386 97.1203V97.256L192.513 94.9827C192.072 94.7242 191.511 94.8213 191.184 95.2118C189.679 97.0067 187.472 98.0352 185.127 98.0352H182.189V97.1203H182.187ZM170.479 99.1388C170.479 96.4933 172.633 94.341 175.281 94.341C177.46 94.341 179.306 95.7985 179.891 97.7895C177.939 98.9115 175.722 99.5018 173.467 99.5018H170.481V99.1388H170.479ZM170.479 101.588H173.465C175.764 101.588 178.03 101.058 180.084 100.048V103.026C180.084 105.671 177.929 107.823 175.281 107.823C172.633 107.823 170.479 105.671 170.479 103.026V101.588ZM175.281 109.91C175.823 109.91 176.349 109.846 176.856 109.726V110.986C176.856 111.006 176.856 111.024 176.856 111.045C176.856 111.078 176.86 111.111 176.861 111.144L175.281 114.922L173.696 111.127C173.696 111.101 173.7 111.078 173.7 111.052V109.725C174.208 109.844 174.736 109.91 175.281 109.91ZM164.638 118.121C164.638 115.716 166.273 113.648 168.615 113.089L171.923 112.299L174.083 117.467C172.732 119.142 171.942 121.267 171.942 123.555V124.089H168.813V119.454C168.813 118.878 168.345 118.411 167.769 118.411C167.192 118.411 166.724 118.878 166.724 119.454V124.089H164.636V118.121H164.638Z" fill="black"/>
<path d="M186.738 101.711C186.712 101.647 186.679 101.586 186.643 101.531C186.604 101.474 186.56 101.421 186.512 101.374C186.465 101.326 186.412 101.282 186.355 101.244C186.298 101.207 186.237 101.174 186.175 101.148C186.111 101.122 186.044 101.102 185.98 101.09C185.846 101.062 185.707 101.062 185.573 101.09C185.507 101.102 185.441 101.122 185.378 101.148C185.314 101.174 185.254 101.207 185.199 101.244C185.142 101.28 185.088 101.324 185.039 101.374C184.844 101.568 184.732 101.837 184.732 102.111C184.732 102.178 184.74 102.248 184.753 102.314C184.765 102.38 184.786 102.446 184.811 102.509C184.837 102.573 184.87 102.633 184.907 102.688C184.943 102.745 184.987 102.798 185.037 102.846C185.087 102.894 185.138 102.937 185.197 102.976C185.254 103.013 185.314 103.046 185.377 103.071C185.439 103.097 185.505 103.119 185.571 103.13C185.637 103.143 185.707 103.15 185.775 103.15C186.05 103.15 186.318 103.038 186.512 102.844C186.56 102.796 186.604 102.743 186.643 102.686C186.679 102.63 186.712 102.569 186.738 102.507C186.764 102.444 186.784 102.378 186.797 102.312C186.81 102.246 186.817 102.177 186.817 102.109C186.817 102.041 186.812 101.971 186.797 101.905C186.782 101.839 186.764 101.773 186.738 101.711Z" fill="black"/>
<path d="M192.016 101.372C191.968 101.419 191.924 101.473 191.885 101.529C191.849 101.586 191.816 101.647 191.79 101.709C191.764 101.771 191.744 101.837 191.731 101.903C191.718 101.969 191.711 102.039 191.711 102.107C191.711 102.175 191.718 102.244 191.731 102.31C191.744 102.376 191.764 102.442 191.79 102.507C191.816 102.569 191.849 102.629 191.885 102.686C191.922 102.743 191.966 102.796 192.016 102.844C192.065 102.892 192.116 102.936 192.173 102.974C192.23 103.011 192.291 103.044 192.353 103.069C192.416 103.095 192.482 103.117 192.548 103.13C192.614 103.143 192.684 103.15 192.751 103.15C192.819 103.15 192.889 103.145 192.957 103.13C193.023 103.117 193.089 103.095 193.151 103.069C193.214 103.044 193.274 103.013 193.331 102.974C193.388 102.936 193.441 102.892 193.491 102.844C193.685 102.65 193.796 102.38 193.796 102.107C193.796 101.834 193.685 101.564 193.491 101.37C193.441 101.322 193.388 101.278 193.331 101.24C193.274 101.203 193.214 101.17 193.151 101.144C193.087 101.119 193.021 101.097 192.957 101.086C192.823 101.058 192.684 101.058 192.55 101.086C192.484 101.099 192.417 101.119 192.355 101.144C192.291 101.17 192.23 101.203 192.175 101.24C192.118 101.276 192.065 101.32 192.017 101.37L192.016 101.372Z" fill="black"/>
<path d="M189.808 104.883C189.5 105.191 188.997 105.191 188.689 104.883C188.282 104.476 187.621 104.476 187.212 104.883C186.804 105.29 186.804 105.95 187.212 106.358C187.773 106.919 188.511 107.2 189.249 107.2C189.986 107.2 190.724 106.919 191.286 106.358C191.693 105.951 191.693 105.291 191.286 104.883C190.878 104.476 190.218 104.476 189.808 104.883Z" fill="black"/>
<path d="M156.008 78.145H145.264C144.077 78.145 143.115 77.1839 143.115 75.9979V65.2645C143.115 64.0785 144.077 63.1173 145.264 63.1173H156.008C157.195 63.1173 158.157 64.0785 158.157 65.2645V75.9979C158.157 77.1839 157.195 78.145 156.008 78.145Z" fill="#B3E59F"/>
<path d="M156.187 63.1246C156.211 63.4229 156.221 63.7235 156.221 64.0289C156.221 70.52 150.953 75.7826 144.456 75.7826C144.001 75.7826 143.553 75.7565 143.112 75.7068V75.998C143.112 77.184 144.074 78.1451 145.261 78.1451H156.005C157.192 78.1451 158.154 77.184 158.154 75.998V65.2622C158.154 64.1378 157.287 63.2169 156.185 63.1246H156.187Z" fill="#95D6A4"/>
<path d="M156.008 97.9806H145.264C144.077 97.9806 143.115 97.0195 143.115 95.8335V85.1001C143.115 83.9141 144.077 82.953 145.264 82.953H156.008C157.195 82.953 158.157 83.9141 158.157 85.1001V95.8335C158.157 97.0195 157.195 97.9806 156.008 97.9806Z" fill="#B3E59F"/>
<path d="M156.187 82.9624C156.211 83.2607 156.221 83.5614 156.221 83.8667C156.221 90.3579 150.953 95.6204 144.456 95.6204C144.001 95.6204 143.553 95.5944 143.112 95.5447V95.8358C143.112 97.0219 144.074 97.983 145.261 97.983H156.005C157.192 97.983 158.154 97.0219 158.154 95.8358V85.1025C158.154 83.978 157.287 83.0571 156.185 82.9648L156.187 82.9624Z" fill="#95D6A4"/>
<path d="M156.008 117.819H145.264C144.077 117.819 143.115 116.858 143.115 115.672V104.938C143.115 103.752 144.077 102.791 145.264 102.791H156.008C157.195 102.791 158.157 103.752 158.157 104.938V115.672C158.157 116.858 157.195 117.819 156.008 117.819Z" fill="#B3E59F"/>
<path d="M156.187 102.8C156.211 103.099 156.221 103.399 156.221 103.705C156.221 110.196 150.953 115.458 144.456 115.458C144.001 115.458 143.553 115.432 143.112 115.383V115.674C143.112 116.86 144.074 117.821 145.261 117.821H156.005C157.192 117.821 158.154 116.86 158.154 115.674V104.94C158.154 103.816 157.287 102.895 156.185 102.803L156.187 102.8Z" fill="#95D6A4"/>
<path d="M159.274 65.2621C159.274 63.463 157.81 62 156.009 62H145.265C143.464 62 142 63.463 142 65.2621V75.9955C142 77.7947 143.464 79.2577 145.265 79.2577H156.009C157.81 79.2577 159.274 77.7947 159.274 75.9955V65.2621ZM157.04 75.9955C157.04 76.5637 156.577 77.0277 156.006 77.0277H145.265C144.697 77.0277 144.232 76.566 144.232 75.9955V65.2621C144.232 64.694 144.694 64.23 145.265 64.23H156.009C156.577 64.23 157.042 64.6916 157.042 65.2621V75.9955H157.04Z" fill="black"/>
<path d="M152.856 67.9372L149.835 70.9555L148.719 69.8405C148.283 69.405 147.575 69.405 147.139 69.8405C146.703 70.2761 146.703 70.9839 147.139 71.4195L149.044 73.3228C149.252 73.5312 149.537 73.6495 149.833 73.6495C150.129 73.6495 150.413 73.5312 150.622 73.3228L154.432 69.5162C154.868 69.0806 154.868 68.3728 154.432 67.9372C153.996 67.5016 153.287 67.5016 152.851 67.9372H152.856Z" fill="black"/>
<path d="M159.274 85.1002C159.274 83.301 157.81 81.838 156.009 81.838H145.265C143.464 81.838 142 83.301 142 85.1002V95.8335C142 97.6327 143.464 99.0957 145.265 99.0957H156.009C157.81 99.0957 159.274 97.6327 159.274 95.8335V85.1002ZM157.04 95.8335C157.04 96.4017 156.577 96.8657 156.006 96.8657H145.265C144.697 96.8657 144.232 96.4041 144.232 95.8335V85.1002C144.232 84.532 144.694 84.068 145.265 84.068H156.009C156.577 84.068 157.042 84.5297 157.042 85.1002V95.8335H157.04Z" fill="black"/>
<path d="M152.856 87.7752L149.835 90.7935L148.719 89.6785C148.283 89.2429 147.575 89.2429 147.139 89.6785C146.703 90.1141 146.703 90.8219 147.139 91.2575L149.044 93.1608C149.262 93.3786 149.548 93.4875 149.833 93.4875C150.117 93.4875 150.404 93.3786 150.622 93.1608L154.432 89.3542C154.868 88.9186 154.868 88.2108 154.432 87.7752C153.996 87.3396 153.29 87.3396 152.851 87.7752H152.856Z" fill="black"/>
<path d="M156.009 101.674H145.265C143.464 101.674 142 103.137 142 104.936V115.669C142 117.468 143.464 118.931 145.265 118.931H156.009C157.81 118.931 159.274 117.468 159.274 115.669V104.936C159.274 103.137 157.81 101.674 156.009 101.674ZM157.042 115.672C157.042 116.24 156.58 116.704 156.009 116.704H145.265C144.697 116.704 144.232 116.242 144.232 115.672V104.938C144.232 104.37 144.694 103.906 145.265 103.906H156.009C156.577 103.906 157.042 104.368 157.042 104.938V115.672Z" fill="black"/>
<path d="M152.856 107.611L149.835 110.629L148.719 109.514C148.283 109.079 147.575 109.079 147.139 109.514C146.703 109.95 146.703 110.658 147.139 111.093L149.044 112.996C149.262 113.214 149.548 113.323 149.833 113.323C150.117 113.323 150.404 113.214 150.622 112.996L154.432 109.19C154.868 108.754 154.868 108.046 154.432 107.611C153.996 107.175 153.287 107.175 152.851 107.611H152.856Z" fill="black"/>
<path d="M189.291 67H176.964C176.252 67 175.675 67.577 175.675 68.2891C175.675 69.0011 176.252 69.5781 176.964 69.5781H189.291C190.003 69.5781 190.58 69.0011 190.58 68.2891C190.58 67.577 190.003 67 189.291 67Z" fill="black"/>
<path d="M189.291 73H176.964C176.252 73 175.675 73.577 175.675 74.2891C175.675 75.0011 176.252 75.5781 176.964 75.5781H189.291C190.003 75.5781 190.58 75.0011 190.58 74.2891C190.58 73.577 190.003 73 189.291 73Z" fill="black"/>
<path d="M189.291 84H176.964C176.252 84 175.675 84.577 175.675 85.2891C175.675 86.0011 176.252 86.5781 176.964 86.5781H189.291C190.003 86.5781 190.58 86.0011 190.58 85.2891C190.58 84.577 190.003 84 189.291 84Z" fill="black"/>
<path d="M164.289 69.5781H170.887C171.599 69.5781 172.176 69.0011 172.176 68.2891C172.176 67.577 171.599 67 170.887 67H164.289C163.577 67 163 67.577 163 68.2891C163 69.0011 163.577 69.5781 164.289 69.5781Z" fill="black"/>
<path d="M164.289 75.5781H170.887C171.599 75.5781 172.176 75.0011 172.176 74.2891C172.176 73.577 171.599 73 170.887 73H164.289C163.577 73 163 73.577 163 74.2891C163 75.0011 163.577 75.5781 164.289 75.5781Z" fill="black"/>
<path d="M164.289 86.5781H170.887C171.599 86.5781 172.176 86.0011 172.176 85.2891C172.176 84.577 171.599 84 170.887 84H164.289C163.577 84 163 84.577 163 85.2891C163 86.0011 163.577 86.5781 164.289 86.5781Z" fill="black"/>
</g>
<defs>
<clipPath id="clip0_5924_1441">
<rect width="82" height="88" fill="white" transform="translate(134 50)"/>
</clipPath>
</defs>
</svg>
