<svg width="350" height="234" viewBox="0 0 350 234" fill="none" xmlns="http://www.w3.org/2000/svg">
<path d="M127.454 200V183.273H138.725V186.189H130.99V190.174H138.145V193.09H130.99V197.084H138.758V200H127.454ZM144.951 183.273V200H141.472V183.273H144.951ZM153.455 200.245C152.165 200.245 151.054 199.984 150.123 199.461C149.197 198.933 148.484 198.187 147.983 197.223C147.482 196.254 147.232 195.108 147.232 193.784C147.232 192.494 147.482 191.361 147.983 190.387C148.484 189.412 149.189 188.652 150.099 188.108C151.013 187.563 152.086 187.291 153.317 187.291C154.144 187.291 154.915 187.425 155.628 187.691C156.347 187.953 156.973 188.348 157.507 188.876C158.046 189.404 158.465 190.068 158.764 190.869C159.064 191.664 159.214 192.595 159.214 193.662V194.618H148.62V192.461H155.938C155.938 191.96 155.829 191.517 155.612 191.13C155.394 190.743 155.092 190.441 154.705 190.223C154.324 190 153.88 189.888 153.374 189.888C152.846 189.888 152.377 190.011 151.969 190.256C151.566 190.496 151.25 190.82 151.021 191.228C150.793 191.631 150.676 192.08 150.67 192.576V194.626C150.67 195.246 150.785 195.783 151.013 196.235C151.247 196.687 151.577 197.035 152.002 197.28C152.426 197.525 152.93 197.648 153.513 197.648C153.899 197.648 154.253 197.593 154.574 197.484C154.896 197.375 155.171 197.212 155.399 196.994C155.628 196.777 155.802 196.51 155.922 196.194L159.14 196.406C158.977 197.179 158.642 197.855 158.135 198.432C157.635 199.004 156.987 199.45 156.192 199.771C155.402 200.087 154.49 200.245 153.455 200.245ZM167.153 200.245C165.867 200.245 164.762 199.973 163.836 199.428C162.916 198.878 162.208 198.116 161.713 197.141C161.223 196.167 160.978 195.045 160.978 193.776C160.978 192.491 161.226 191.364 161.721 190.395C162.222 189.42 162.933 188.661 163.853 188.116C164.773 187.566 165.867 187.291 167.136 187.291C168.231 187.291 169.189 187.49 170.011 187.887C170.833 188.285 171.484 188.843 171.963 189.562C172.442 190.281 172.706 191.125 172.756 192.094H169.472C169.38 191.468 169.135 190.964 168.737 190.583C168.345 190.196 167.83 190.003 167.193 190.003C166.654 190.003 166.183 190.15 165.78 190.444C165.383 190.732 165.073 191.154 164.849 191.71C164.626 192.265 164.514 192.938 164.514 193.727C164.514 194.528 164.623 195.208 164.841 195.769C165.064 196.33 165.377 196.757 165.78 197.051C166.183 197.346 166.654 197.493 167.193 197.493C167.591 197.493 167.948 197.411 168.263 197.248C168.585 197.084 168.849 196.847 169.056 196.537C169.268 196.221 169.407 195.843 169.472 195.402H172.756C172.701 196.36 172.44 197.204 171.971 197.934C171.509 198.658 170.869 199.224 170.052 199.632C169.235 200.041 168.269 200.245 167.153 200.245ZM181.656 187.455V190.068H174.101V187.455H181.656ZM175.816 184.449H179.296V196.145C179.296 196.466 179.345 196.717 179.443 196.896C179.541 197.071 179.677 197.193 179.851 197.264C180.031 197.335 180.238 197.37 180.472 197.37C180.635 197.37 180.799 197.356 180.962 197.329C181.125 197.297 181.251 197.272 181.338 197.256L181.885 199.845C181.711 199.899 181.466 199.962 181.15 200.033C180.834 200.109 180.45 200.155 179.998 200.172C179.16 200.204 178.425 200.093 177.793 199.837C177.167 199.581 176.679 199.183 176.331 198.644C175.982 198.105 175.811 197.424 175.816 196.602V184.449ZM183.923 200V187.455H187.296V189.643H187.427C187.655 188.865 188.039 188.277 188.578 187.879C189.117 187.476 189.738 187.275 190.44 187.275C190.615 187.275 190.803 187.286 191.004 187.308C191.205 187.329 191.382 187.359 191.535 187.397V190.485C191.372 190.436 191.146 190.392 190.857 190.354C190.568 190.316 190.304 190.297 190.065 190.297C189.553 190.297 189.095 190.408 188.693 190.632C188.295 190.85 187.979 191.154 187.745 191.547C187.516 191.939 187.402 192.391 187.402 192.902V200H183.923ZM193.334 200V187.455H196.813V200H193.334ZM195.082 185.837C194.564 185.837 194.121 185.666 193.75 185.323C193.386 184.974 193.203 184.558 193.203 184.073C193.203 183.594 193.386 183.183 193.75 182.84C194.121 182.491 194.564 182.317 195.082 182.317C195.599 182.317 196.04 182.491 196.405 182.84C196.775 183.183 196.96 183.594 196.96 184.073C196.96 184.558 196.775 184.974 196.405 185.323C196.04 185.666 195.599 185.837 195.082 185.837ZM205.269 200.245C203.984 200.245 202.878 199.973 201.953 199.428C201.032 198.878 200.325 198.116 199.829 197.141C199.339 196.167 199.094 195.045 199.094 193.776C199.094 192.491 199.342 191.364 199.837 190.395C200.338 189.42 201.049 188.661 201.969 188.116C202.889 187.566 203.984 187.291 205.252 187.291C206.347 187.291 207.305 187.49 208.127 187.887C208.95 188.285 209.6 188.843 210.079 189.562C210.559 190.281 210.823 191.125 210.872 192.094H207.588C207.496 191.468 207.251 190.964 206.853 190.583C206.461 190.196 205.947 190.003 205.31 190.003C204.771 190.003 204.3 190.15 203.897 190.444C203.499 190.732 203.189 191.154 202.965 191.71C202.742 192.265 202.631 192.938 202.631 193.727C202.631 194.528 202.739 195.208 202.957 195.769C203.181 196.33 203.494 196.757 203.897 197.051C204.3 197.346 204.771 197.493 205.31 197.493C205.707 197.493 206.064 197.411 206.38 197.248C206.701 197.084 206.965 196.847 207.172 196.537C207.384 196.221 207.523 195.843 207.588 195.402H210.872C210.817 196.36 210.556 197.204 210.088 197.934C209.625 198.658 208.985 199.224 208.168 199.632C207.351 200.041 206.385 200.245 205.269 200.245ZM213.099 200V187.455H216.579V200H213.099ZM214.847 185.837C214.33 185.837 213.886 185.666 213.516 185.323C213.151 184.974 212.969 184.558 212.969 184.073C212.969 183.594 213.151 183.183 213.516 182.84C213.886 182.491 214.33 182.317 214.847 182.317C215.365 182.317 215.806 182.491 216.17 182.84C216.541 183.183 216.726 183.594 216.726 184.073C216.726 184.558 216.541 184.974 216.17 185.323C215.806 185.666 215.365 185.837 214.847 185.837ZM222.943 200.237C222.143 200.237 221.43 200.098 220.804 199.82C220.177 199.537 219.682 199.121 219.317 198.571C218.958 198.015 218.778 197.324 218.778 196.496C218.778 195.799 218.906 195.214 219.162 194.74C219.418 194.266 219.766 193.885 220.207 193.597C220.648 193.308 221.149 193.09 221.71 192.943C222.276 192.796 222.87 192.693 223.491 192.633C224.22 192.557 224.808 192.486 225.255 192.42C225.701 192.35 226.025 192.246 226.227 192.11C226.428 191.974 226.529 191.772 226.529 191.506V191.457C226.529 190.939 226.366 190.539 226.039 190.256C225.718 189.973 225.26 189.831 224.667 189.831C224.041 189.831 223.542 189.97 223.172 190.248C222.802 190.52 222.557 190.863 222.437 191.277L219.219 191.016C219.382 190.253 219.704 189.594 220.183 189.039C220.662 188.478 221.28 188.048 222.037 187.749C222.799 187.444 223.681 187.291 224.683 187.291C225.38 187.291 226.047 187.373 226.684 187.536C227.327 187.7 227.896 187.953 228.391 188.296C228.892 188.639 229.287 189.08 229.576 189.619C229.864 190.153 230.008 190.792 230.008 191.538V200H226.709V198.26H226.611C226.409 198.652 226.14 198.998 225.802 199.298C225.465 199.592 225.059 199.823 224.585 199.992C224.111 200.155 223.564 200.237 222.943 200.237ZM223.94 197.836C224.452 197.836 224.904 197.735 225.296 197.533C225.688 197.326 225.995 197.049 226.219 196.7C226.442 196.352 226.554 195.957 226.554 195.516V194.185C226.445 194.255 226.295 194.321 226.104 194.381C225.919 194.435 225.71 194.487 225.475 194.536C225.241 194.579 225.007 194.62 224.773 194.658C224.539 194.691 224.326 194.721 224.136 194.748C223.728 194.808 223.371 194.903 223.066 195.034C222.761 195.165 222.524 195.342 222.355 195.565C222.187 195.783 222.102 196.055 222.102 196.382C222.102 196.855 222.274 197.218 222.617 197.468C222.965 197.713 223.406 197.836 223.94 197.836ZM236.187 192.747V200H232.708V187.455H236.024V189.668H236.171C236.449 188.938 236.914 188.361 237.568 187.936C238.221 187.506 239.013 187.291 239.944 187.291C240.816 187.291 241.575 187.482 242.223 187.863C242.871 188.244 243.375 188.789 243.734 189.496C244.093 190.199 244.273 191.037 244.273 192.012V200H240.794V192.633C240.799 191.865 240.603 191.266 240.206 190.836C239.808 190.4 239.261 190.183 238.564 190.183C238.096 190.183 237.682 190.283 237.323 190.485C236.969 190.686 236.691 190.98 236.489 191.367C236.293 191.748 236.193 192.208 236.187 192.747Z" fill="white"/>
<rect width="350" height="234" rx="28" fill="#0A8996"/>
<circle cx="175.5" cy="93.5" r="70.5" fill="white"/>
<path d="M79.5281 191.083C79.4627 190.425 79.1823 189.913 78.6868 189.548C78.1913 189.183 77.5188 189.001 76.6694 189.001C76.0922 189.001 75.6049 189.082 75.2074 189.246C74.8099 189.404 74.505 189.624 74.2926 189.907C74.0857 190.19 73.9822 190.512 73.9822 190.871C73.9714 191.171 74.034 191.432 74.1701 191.655C74.3117 191.878 74.505 192.072 74.75 192.235C74.995 192.393 75.2782 192.532 75.5994 192.652C75.9207 192.766 76.2637 192.864 76.6286 192.946L78.1314 193.305C78.861 193.468 79.5308 193.686 80.1406 193.958C80.7505 194.231 81.2786 194.566 81.7251 194.963C82.1716 195.361 82.5174 195.829 82.7624 196.368C83.0129 196.907 83.1409 197.525 83.1463 198.222C83.1409 199.246 82.8795 200.133 82.3622 200.885C81.8504 201.631 81.1098 202.21 80.1406 202.624C79.1768 203.033 78.0143 203.237 76.6531 203.237C75.3027 203.237 74.1265 203.03 73.1246 202.616C72.1282 202.202 71.3496 201.59 70.7887 200.778C70.2333 199.962 69.942 198.952 69.9148 197.748H73.337C73.3751 198.309 73.5357 198.777 73.8189 199.153C74.1075 199.523 74.4914 199.804 74.9705 199.994C75.4551 200.179 76.0024 200.272 76.6122 200.272C77.2112 200.272 77.7312 200.185 78.1722 200.011C78.6187 199.836 78.9645 199.594 79.2095 199.284C79.4545 198.973 79.5771 198.617 79.5771 198.214C79.5771 197.838 79.4654 197.522 79.2422 197.266C79.0244 197.01 78.7031 196.793 78.2784 196.613C77.8591 196.433 77.3446 196.27 76.7347 196.123L74.9134 195.665C73.5031 195.322 72.3896 194.786 71.5728 194.056C70.756 193.327 70.3504 192.344 70.3558 191.108C70.3504 190.095 70.6199 189.21 71.1644 188.453C71.7144 187.697 72.4685 187.106 73.4268 186.681C74.3852 186.256 75.4742 186.044 76.6939 186.044C77.9354 186.044 79.0189 186.256 79.9446 186.681C80.8757 187.106 81.5999 187.697 82.1172 188.453C82.6345 189.21 82.9013 190.087 82.9176 191.083H79.5281ZM91.1771 203.245C89.8866 203.245 88.7758 202.984 87.8447 202.461C86.9191 201.933 86.2058 201.187 85.7048 200.223C85.2039 199.254 84.9534 198.108 84.9534 196.784C84.9534 195.494 85.2039 194.361 85.7048 193.387C86.2058 192.412 86.9109 191.652 87.8202 191.108C88.735 190.563 89.8077 190.291 91.0383 190.291C91.8659 190.291 92.6364 190.425 93.3497 190.691C94.0684 190.953 94.6946 191.348 95.2282 191.876C95.7673 192.404 96.1866 193.068 96.4861 193.869C96.7855 194.664 96.9353 195.595 96.9353 196.662V197.618H86.3419V195.461H93.6601C93.6601 194.96 93.5512 194.517 93.3334 194.13C93.1156 193.743 92.8134 193.441 92.4268 193.223C92.0456 193 91.6018 192.888 91.0954 192.888C90.5673 192.888 90.099 193.011 89.6906 193.256C89.2877 193.496 88.9719 193.82 88.7432 194.228C88.5145 194.631 88.3974 195.08 88.392 195.576V197.626C88.392 198.246 88.5063 198.783 88.735 199.235C88.9691 199.687 89.2986 200.035 89.7233 200.28C90.148 200.525 90.6517 200.648 91.2343 200.648C91.6209 200.648 91.9748 200.593 92.2961 200.484C92.6173 200.375 92.8923 200.212 93.121 199.994C93.3497 199.777 93.5239 199.51 93.6437 199.194L96.8618 199.406C96.6984 200.179 96.3635 200.855 95.8572 201.432C95.3562 202.004 94.7082 202.45 93.9133 202.771C93.1237 203.087 92.2117 203.245 91.1771 203.245ZM104.874 203.245C103.589 203.245 102.484 202.973 101.558 202.428C100.638 201.878 99.9301 201.116 99.4346 200.141C98.9445 199.167 98.6995 198.045 98.6995 196.776C98.6995 195.491 98.9472 194.364 99.4427 193.395C99.9437 192.42 100.654 191.661 101.574 191.116C102.495 190.566 103.589 190.291 104.858 190.291C105.952 190.291 106.911 190.49 107.733 190.887C108.555 191.285 109.206 191.843 109.685 192.562C110.164 193.281 110.428 194.125 110.477 195.094H107.194C107.101 194.468 106.856 193.964 106.459 193.583C106.067 193.196 105.552 193.003 104.915 193.003C104.376 193.003 103.905 193.15 103.502 193.444C103.105 193.732 102.794 194.154 102.571 194.71C102.348 195.265 102.236 195.938 102.236 196.727C102.236 197.528 102.345 198.208 102.563 198.769C102.786 199.33 103.099 199.757 103.502 200.051C103.905 200.346 104.376 200.493 104.915 200.493C105.313 200.493 105.669 200.411 105.985 200.248C106.306 200.084 106.57 199.847 106.777 199.537C106.99 199.221 107.128 198.843 107.194 198.402H110.477C110.423 199.36 110.161 200.204 109.693 200.934C109.23 201.658 108.59 202.224 107.774 202.632C106.957 203.041 105.99 203.245 104.874 203.245ZM120.75 197.658V190.455H124.229V203H120.889V200.721H120.758C120.475 201.456 120.004 202.047 119.345 202.494C118.692 202.94 117.894 203.163 116.952 203.163C116.114 203.163 115.376 202.973 114.739 202.592C114.102 202.21 113.603 201.669 113.244 200.966C112.89 200.264 112.71 199.423 112.705 198.442V190.455H116.184V197.822C116.19 198.562 116.388 199.148 116.781 199.578C117.173 200.008 117.698 200.223 118.357 200.223C118.776 200.223 119.168 200.128 119.533 199.937C119.898 199.741 120.192 199.453 120.415 199.071C120.644 198.69 120.755 198.219 120.75 197.658ZM127.013 203V190.455H130.386V192.643H130.516C130.745 191.865 131.129 191.277 131.668 190.879C132.207 190.476 132.828 190.275 133.53 190.275C133.705 190.275 133.892 190.286 134.094 190.308C134.295 190.329 134.472 190.359 134.625 190.397V193.485C134.461 193.436 134.235 193.392 133.947 193.354C133.658 193.316 133.394 193.297 133.155 193.297C132.643 193.297 132.185 193.408 131.782 193.632C131.385 193.85 131.069 194.154 130.835 194.547C130.606 194.939 130.492 195.391 130.492 195.902V203H127.013ZM136.424 203V190.455H139.903V203H136.424ZM138.172 188.837C137.654 188.837 137.21 188.666 136.84 188.323C136.475 187.974 136.293 187.558 136.293 187.073C136.293 186.594 136.475 186.183 136.84 185.84C137.21 185.491 137.654 185.317 138.172 185.317C138.689 185.317 139.13 185.491 139.495 185.84C139.865 186.183 140.05 186.594 140.05 187.073C140.05 187.558 139.865 187.974 139.495 188.323C139.13 188.666 138.689 188.837 138.172 188.837ZM149.363 190.455V193.068H141.808V190.455H149.363ZM143.523 187.449H147.003V199.145C147.003 199.466 147.052 199.717 147.15 199.896C147.248 200.071 147.384 200.193 147.558 200.264C147.738 200.335 147.945 200.37 148.179 200.37C148.342 200.37 148.506 200.356 148.669 200.329C148.832 200.297 148.958 200.272 149.045 200.256L149.592 202.845C149.418 202.899 149.173 202.962 148.857 203.033C148.541 203.109 148.157 203.155 147.705 203.172C146.867 203.204 146.132 203.093 145.5 202.837C144.874 202.581 144.386 202.183 144.038 201.644C143.689 201.105 143.518 200.424 143.523 199.602V187.449ZM153.778 207.705C153.337 207.705 152.923 207.669 152.536 207.598C152.155 207.533 151.839 207.449 151.589 207.345L152.373 204.748C152.781 204.873 153.149 204.941 153.476 204.952C153.808 204.963 154.094 204.887 154.333 204.723C154.578 204.56 154.777 204.282 154.929 203.89L155.134 203.359L150.633 190.455H154.292L156.89 199.668H157.02L159.642 190.455H163.326L158.45 204.356C158.216 205.031 157.897 205.619 157.494 206.12C157.097 206.626 156.593 207.016 155.983 207.288C155.373 207.566 154.638 207.705 153.778 207.705ZM185.254 192.129H181.676C181.611 191.666 181.478 191.255 181.276 190.896C181.075 190.531 180.816 190.22 180.5 189.964C180.184 189.709 179.82 189.513 179.406 189.376C178.997 189.24 178.554 189.172 178.074 189.172C177.209 189.172 176.454 189.387 175.812 189.817C175.169 190.242 174.671 190.863 174.317 191.68C173.963 192.491 173.786 193.477 173.786 194.636C173.786 195.829 173.963 196.831 174.317 197.642C174.677 198.453 175.178 199.066 175.82 199.48C176.463 199.894 177.206 200.1 178.05 200.1C178.524 200.1 178.962 200.038 179.365 199.913C179.773 199.787 180.135 199.605 180.451 199.365C180.767 199.12 181.028 198.824 181.235 198.475C181.448 198.127 181.595 197.729 181.676 197.283L185.254 197.299C185.161 198.067 184.93 198.807 184.559 199.521C184.195 200.228 183.702 200.863 183.081 201.424C182.466 201.979 181.731 202.42 180.876 202.747C180.026 203.068 179.065 203.229 177.993 203.229C176.501 203.229 175.167 202.891 173.991 202.216C172.82 201.541 171.894 200.563 171.214 199.284C170.538 198.004 170.201 196.455 170.201 194.636C170.201 192.812 170.544 191.26 171.23 189.981C171.916 188.701 172.847 187.727 174.023 187.057C175.199 186.382 176.523 186.044 177.993 186.044C178.962 186.044 179.86 186.18 180.688 186.452C181.521 186.725 182.259 187.122 182.901 187.645C183.544 188.162 184.067 188.797 184.47 189.548C184.878 190.299 185.139 191.16 185.254 192.129ZM191.204 195.747V203H187.724V186.273H191.106V192.668H191.253C191.536 191.927 191.993 191.348 192.625 190.928C193.257 190.504 194.049 190.291 195.002 190.291C195.873 190.291 196.633 190.482 197.281 190.863C197.934 191.239 198.44 191.78 198.8 192.488C199.165 193.191 199.344 194.032 199.339 195.012V203H195.859V195.633C195.865 194.86 195.669 194.258 195.271 193.828C194.879 193.398 194.329 193.183 193.621 193.183C193.148 193.183 192.728 193.283 192.364 193.485C192.004 193.686 191.721 193.98 191.514 194.367C191.313 194.748 191.209 195.208 191.204 195.747ZM207.794 203.245C206.504 203.245 205.393 202.984 204.462 202.461C203.536 201.933 202.823 201.187 202.322 200.223C201.821 199.254 201.571 198.108 201.571 196.784C201.571 195.494 201.821 194.361 202.322 193.387C202.823 192.412 203.528 191.652 204.437 191.108C205.352 190.563 206.425 190.291 207.655 190.291C208.483 190.291 209.254 190.425 209.967 190.691C210.686 190.953 211.312 191.348 211.845 191.876C212.384 192.404 212.804 193.068 213.103 193.869C213.403 194.664 213.552 195.595 213.552 196.662V197.618H202.959V195.461H210.277C210.277 194.96 210.168 194.517 209.951 194.13C209.733 193.743 209.431 193.441 209.044 193.223C208.663 193 208.219 192.888 207.713 192.888C207.184 192.888 206.716 193.011 206.308 193.256C205.905 193.496 205.589 193.82 205.36 194.228C205.132 194.631 205.015 195.08 205.009 195.576V197.626C205.009 198.246 205.123 198.783 205.352 199.235C205.586 199.687 205.916 200.035 206.34 200.28C206.765 200.525 207.269 200.648 207.851 200.648C208.238 200.648 208.592 200.593 208.913 200.484C209.235 200.375 209.509 200.212 209.738 199.994C209.967 199.777 210.141 199.51 210.261 199.194L213.479 199.406C213.316 200.179 212.981 200.855 212.474 201.432C211.973 202.004 211.325 202.45 210.53 202.771C209.741 203.087 208.829 203.245 207.794 203.245ZM221.491 203.245C220.206 203.245 219.101 202.973 218.175 202.428C217.255 201.878 216.547 201.116 216.052 200.141C215.562 199.167 215.317 198.045 215.317 196.776C215.317 195.491 215.564 194.364 216.06 193.395C216.561 192.42 217.271 191.661 218.192 191.116C219.112 190.566 220.206 190.291 221.475 190.291C222.57 190.291 223.528 190.49 224.35 190.887C225.172 191.285 225.823 191.843 226.302 192.562C226.781 193.281 227.045 194.125 227.094 195.094H223.811C223.718 194.468 223.473 193.964 223.076 193.583C222.684 193.196 222.169 193.003 221.532 193.003C220.993 193.003 220.522 193.15 220.119 193.444C219.722 193.732 219.411 194.154 219.188 194.71C218.965 195.265 218.853 195.938 218.853 196.727C218.853 197.528 218.962 198.208 219.18 198.769C219.403 199.33 219.716 199.757 220.119 200.051C220.522 200.346 220.993 200.493 221.532 200.493C221.93 200.493 222.286 200.411 222.602 200.248C222.923 200.084 223.188 199.847 223.394 199.537C223.607 199.221 223.746 198.843 223.811 198.402H227.094C227.04 199.36 226.779 200.204 226.31 200.934C225.847 201.658 225.208 202.224 224.391 202.632C223.574 203.041 222.608 203.245 221.491 203.245ZM232.475 199.39L232.483 195.216H232.989L237.008 190.455H241.002L235.603 196.76H234.778L232.475 199.39ZM229.322 203V186.273H232.801V203H229.322ZM237.163 203L233.471 197.536L235.791 195.077L241.239 203H237.163ZM246.188 186.273V203H242.709V186.273H246.188ZM248.975 203V190.455H252.455V203H248.975ZM250.723 188.837C250.206 188.837 249.762 188.666 249.392 188.323C249.027 187.974 248.845 187.558 248.845 187.073C248.845 186.594 249.027 186.183 249.392 185.84C249.762 185.491 250.206 185.317 250.723 185.317C251.241 185.317 251.682 185.491 252.046 185.84C252.417 186.183 252.602 186.594 252.602 187.073C252.602 187.558 252.417 187.974 252.046 188.323C251.682 188.666 251.241 188.837 250.723 188.837ZM265.68 194.032L262.495 194.228C262.44 193.956 262.323 193.711 262.144 193.493C261.964 193.27 261.727 193.093 261.433 192.962C261.144 192.826 260.799 192.758 260.396 192.758C259.857 192.758 259.402 192.872 259.032 193.101C258.662 193.324 258.476 193.624 258.476 193.999C258.476 194.299 258.596 194.552 258.836 194.759C259.075 194.966 259.486 195.132 260.069 195.257L262.34 195.714C263.559 195.965 264.469 196.368 265.068 196.923C265.667 197.479 265.966 198.208 265.966 199.112C265.966 199.934 265.724 200.656 265.239 201.277C264.76 201.897 264.101 202.382 263.263 202.73C262.43 203.074 261.468 203.245 260.379 203.245C258.719 203.245 257.396 202.899 256.41 202.208C255.43 201.511 254.855 200.563 254.687 199.365L258.109 199.186C258.212 199.692 258.463 200.079 258.86 200.346C259.258 200.607 259.767 200.738 260.388 200.738C260.997 200.738 261.488 200.621 261.858 200.386C262.233 200.147 262.424 199.839 262.43 199.463C262.424 199.148 262.291 198.889 262.029 198.688C261.768 198.481 261.365 198.323 260.82 198.214L258.648 197.781C257.423 197.536 256.511 197.111 255.912 196.507C255.318 195.902 255.021 195.132 255.021 194.195C255.021 193.389 255.239 192.695 255.675 192.113C256.116 191.53 256.734 191.081 257.529 190.765C258.329 190.449 259.266 190.291 260.339 190.291C261.923 190.291 263.17 190.626 264.079 191.296C264.994 191.966 265.528 192.878 265.68 194.032ZM274.83 190.455V193.068H267.275V190.455H274.83ZM268.99 187.449H272.47V199.145C272.47 199.466 272.519 199.717 272.617 199.896C272.715 200.071 272.851 200.193 273.025 200.264C273.205 200.335 273.412 200.37 273.646 200.37C273.809 200.37 273.972 200.356 274.136 200.329C274.299 200.297 274.424 200.272 274.511 200.256L275.059 202.845C274.884 202.899 274.639 202.962 274.324 203.033C274.008 203.109 273.624 203.155 273.172 203.172C272.333 203.204 271.598 203.093 270.967 202.837C270.341 202.581 269.853 202.183 269.505 201.644C269.156 201.105 268.985 200.424 268.99 199.602V187.449Z" fill="white"/>
<g clip-path="url(#clip0_5924_1442)">
<path d="M130.787 52.9333H189.257V138H130.787V52.9333Z" fill="#A1D1D1"/>
<path d="M191.534 75.487H188.325V115.373H191.534V75.487Z" fill="black"/>
<path d="M191.534 98.169L188.872 93.6333C188.81 96.1065 188.874 98.5852 188.702 101.056C188.625 102.149 188.549 103.262 188.415 104.366L188.47 104.265V135.065H132.923V52.9333H188.47V65.2607C188.583 66.0802 188.58 66.9235 188.47 67.7522V70.3977C188.559 72.8947 188.494 75.3917 188.406 77.8887C188.576 79.04 188.576 80.206 188.426 81.3555L190.233 84.4483C190.087 82.3767 190.376 80.2848 191.181 78.3507C191.224 78.1985 191.273 78.0518 191.322 77.9033V51.4667C191.322 50.6563 190.668 50 189.86 50H131.462C130.654 50 130 50.6563 130 51.4667V136.533C130 137.344 130.654 138 131.462 138H189.932C190.739 138 191.393 137.344 191.393 136.533V103.871L191.593 104.214C191.527 102.201 191.52 100.186 191.534 98.169Z" fill="black"/>
<path d="M210.767 102.133V134.711C210.763 135.734 209.937 136.563 208.92 136.564H175.654C174.634 136.561 173.808 135.732 173.807 134.711V102.226L182.279 95.0138L182.519 94.8103L192.285 86.5035L210.765 102.134L210.767 102.133Z" fill="#ACABB1"/>
<path d="M210.767 103.761V104.049L194.136 89.985L184.37 98.2918L175.656 105.71L175.61 105.746L173.809 107.275V103.854L182.522 96.4365L192.289 88.1297L210.769 103.761H210.767Z" fill="#898890"/>
<path d="M219.502 109.308C218.843 110.089 217.679 110.188 216.897 109.53L211.565 105.024L193.085 89.3928L183.319 97.6997L174.605 105.117L174.559 105.154L171.769 107.528L170.91 108.26L169.284 109.651H169.275C168.487 110.311 167.316 110.207 166.658 109.416C166.594 109.339 166.536 109.255 166.485 109.169C166.046 108.346 166.253 107.328 166.975 106.74L170.91 103.431L179.873 95.8847L191.903 85.761C192.583 85.178 193.584 85.1743 194.269 85.7518L219.272 106.696C220.056 107.352 220.16 108.522 219.506 109.308H219.504V109.31L219.502 109.308Z" fill="#FF9811"/>
<path d="M205.077 113.809V118.893C205.077 122.622 203.063 126.06 199.814 127.871L197.401 129.215L194.987 127.871C191.738 126.06 189.725 122.622 189.725 118.893V113.809L197.401 110.386L205.077 113.809Z" fill="#FF5023"/>
<path d="M188.871 113.809V118.891C188.873 122.93 191.056 126.652 194.576 128.613L196.987 129.957C197.245 130.1 197.559 130.1 197.817 129.957L200.229 128.613C203.748 126.652 205.93 122.93 205.933 118.891V113.809C205.933 113.47 205.734 113.164 205.427 113.026L197.751 109.604C197.53 109.505 197.28 109.505 197.059 109.604L189.383 113.026C189.074 113.164 188.877 113.47 188.877 113.809H188.871ZM190.578 114.365L197.4 111.321L204.223 114.365V118.891C204.223 122.31 202.374 125.46 199.398 127.121L197.4 128.234L195.403 127.121C192.425 125.46 190.578 122.31 190.578 118.891V114.365Z" fill="black"/>
<path d="M196.548 122.367C196.774 122.367 196.992 122.277 197.151 122.116L201.415 117.837L200.209 116.627L196.548 120.301L194.593 118.339L193.387 119.549L195.945 122.116C196.106 122.277 196.321 122.367 196.548 122.367Z" fill="black"/>
<path d="M184.96 117.067L182.033 115.76L179.148 114.473V110.528C181.763 109.292 183.429 106.65 183.422 103.752H184.491C185.671 103.752 186.628 102.791 186.628 101.607C186.628 100.422 185.671 99.4615 184.491 99.4615H183.422V91.9558C183.409 90.0748 182.187 88.4193 180.398 87.8602L170.599 96.2018V108.993C170.613 109.017 170.631 109.039 170.651 109.057C171.256 109.664 171.96 110.163 172.734 110.526V114.471L170.597 115.424V133.769C170.6 134.951 171.554 135.91 172.734 135.914H188.763V122.941C188.763 120.4 187.272 118.099 184.958 117.065L184.96 117.067ZM172.736 98.389H172.683L172.736 98.3468V98.389Z" fill="#898890"/>
<path d="M182.353 97.3165C183.533 97.3165 184.491 98.2772 184.491 99.4615C184.491 100.646 183.533 101.606 182.353 101.606H181.284V97.3183H182.353V97.3165Z" fill="#FFB655"/>
<path d="M179.895 113.615L178.078 117.688L176.582 116.187L173.803 113.398L177.008 112.326L179.893 113.613L179.895 113.615Z" fill="#1E81CE"/>
<path d="M181.283 89.8108V96.244H170.598V96.2018L170.545 96.244H166.324V89.8108C166.324 87.4422 168.237 85.5227 170.598 85.5227H177.01C179.365 85.5373 181.269 87.4495 181.283 89.8108Z" fill="#5AAAE7"/>
<path d="M176.583 116.187L174.872 118.761H172.735L171.024 116.187L173.804 113.398L176.583 116.187Z" fill="#D8D7DA"/>
<path d="M174.872 118.761L175.941 131.627L173.803 134.843L171.665 131.627L172.734 118.761H174.872Z" fill="#E0E0E2"/>
<path d="M173.803 91.9558C174.394 91.9558 174.872 91.4756 174.872 90.8833C174.872 90.291 174.394 89.8108 173.803 89.8108C173.213 89.8108 172.734 90.291 172.734 90.8833C172.734 91.4756 173.213 91.9558 173.803 91.9558Z" fill="#E6E7E8"/>
<path d="M186.627 120.798V135.915H160.98V120.798C160.98 118.257 162.471 115.956 164.785 114.922L167.712 113.615L169.528 117.688L171.025 116.187L172.735 118.761L171.666 131.627L173.804 134.843L175.941 131.627L174.873 118.761L176.583 116.187L178.079 117.688L179.895 113.615L182.823 114.922C185.136 115.956 186.627 118.257 186.627 120.798Z" fill="#3D9AE2"/>
<path d="M170.598 112.328L167.713 113.615L169.529 117.688L170.598 116.616L171.026 116.187L173.805 113.398L170.6 112.326L170.598 112.328Z" fill="#1E81CE"/>
<path d="M165.255 97.3165C164.075 97.311 163.114 98.2662 163.106 99.4505C163.103 100.325 163.625 101.113 164.431 101.445H164.442C164.7 101.553 164.976 101.608 165.253 101.606H166.322V97.3183H165.253L165.255 97.3165Z" fill="#FFB655"/>
<path d="M166.325 96.244V97.3165H165.256C164.075 97.311 163.114 98.2662 163.107 99.4505C163.103 100.325 163.626 101.113 164.432 101.445C163.522 102.208 162.168 102.087 161.406 101.174C161.331 101.084 161.263 100.989 161.205 100.888C160.699 99.9363 160.936 98.7575 161.771 98.0792L166.323 94.2512V96.2458L166.325 96.244Z" fill="#FF9811"/>
<path d="M177.01 108.04V112.328L173.805 113.4L170.601 112.328V108.04H177.012H177.01Z" fill="#FFC477"/>
<path d="M177.01 108.04V110.527C174.982 111.499 172.627 111.499 170.599 110.527V108.04H177.01Z" fill="#FFB655"/>
<path d="M170.598 96.244H166.324V101.605C166.319 103.596 167.108 105.508 168.515 106.912C170.75 109.158 174.154 109.747 177.01 108.381C179.624 107.145 181.291 104.503 181.283 101.605V96.244H170.598Z" fill="#FFC477"/>
<path d="M170.598 96.244H166.324C166.328 98.6108 168.239 100.529 170.598 100.532H177.01C179.37 100.532 181.283 98.6127 181.283 96.244H170.598Z" fill="#3D9AE2"/>
<path d="M173.803 93.0283C174.984 93.0283 175.941 92.068 175.941 90.8833C175.941 89.6987 174.984 88.7383 173.803 88.7383C172.622 88.7383 171.665 89.6987 171.665 90.8833C171.665 92.068 172.622 93.0283 173.803 93.0283Z" fill="black"/>
<path d="M183.261 113.947L178.079 111.631V109.026C180.387 107.68 181.94 105.335 182.278 102.679H182.353C184.123 102.679 185.558 101.238 185.558 99.4633C185.558 97.6887 184.121 96.2477 182.353 96.2477V89.8145C182.349 89.1655 182.225 88.522 181.989 87.917L181.996 87.9097C181.958 87.8528 181.92 87.796 181.881 87.7373C181.832 87.6622 181.794 87.5815 181.757 87.499C181.741 87.4605 181.719 87.4147 181.697 87.367C181.479 87.0847 181.295 86.7822 181.145 86.4613C181.039 86.3348 180.94 86.2065 180.845 86.0745L180.834 86.0837C180.584 85.8252 180.31 85.5942 180.014 85.3907C179.466 85.1725 178.919 84.9305 178.41 84.6372C178.307 84.6427 178.207 84.6463 178.106 84.6463C177.653 84.6463 177.215 84.5987 176.794 84.5125C176.652 84.5217 176.509 84.5272 176.365 84.5272C176.179 84.5015 175.992 84.4777 175.804 84.452H170.597C167.646 84.452 165.254 86.8518 165.254 89.8127V96.2458C163.483 96.2458 162.049 97.6868 162.049 99.4615C162.049 101.236 163.485 102.677 165.254 102.677H165.329C165.669 105.334 167.22 107.678 169.528 109.024V111.629L164.346 113.945C161.651 115.151 159.913 117.835 159.911 120.796V135.914C159.911 136.506 160.39 136.986 160.98 136.986H186.957C186.968 136.872 186.981 136.759 186.997 136.643C187.122 135.721 187.357 134.832 187.695 133.987V120.796C187.695 117.835 185.956 115.151 183.261 113.945V113.947ZM182.353 98.389C182.943 98.389 183.422 98.8693 183.422 99.4615C183.422 100.054 182.943 100.534 182.353 100.534V98.389ZM165.256 100.534C164.665 100.534 164.187 100.054 164.187 99.4615C164.187 98.8693 164.665 98.389 165.256 98.389V100.534ZM178.484 114.161L177.737 115.833L175.782 113.872L176.957 113.475L178.484 114.161ZM173.803 112.275L171.665 111.556V109.904C173.067 110.276 174.54 110.276 175.939 109.904V111.556L173.801 112.275H173.803ZM175.203 116.328L174.295 117.69H173.312L172.404 116.328L173.803 114.913L175.203 116.328ZM167.392 89.8127C167.397 88.038 168.83 86.6007 170.597 86.597H177.008C178.777 86.6025 180.209 88.0398 180.213 89.8127V95.1733H167.39V89.8127H167.392ZM180.034 97.3183C179.577 98.6017 178.368 99.4597 177.01 99.4633H170.598C169.241 99.4597 168.031 98.6017 167.574 97.3183H180.034ZM167.392 101.606V100.503C168.309 101.216 169.436 101.605 170.597 101.606H177.008C178.168 101.603 179.296 101.214 180.213 100.503V101.606C180.213 105.159 177.342 108.04 173.801 108.04C170.26 108.04 167.39 105.159 167.39 101.606H167.392ZM170.651 113.475L171.826 113.872L169.871 115.833L169.124 114.161L170.651 113.475ZM166.323 134.845V119.833H164.185V134.845H162.047V120.8C162.049 118.682 163.293 116.763 165.221 115.899L167.176 115.03L168.554 118.128C168.698 118.449 168.989 118.678 169.334 118.739C169.398 118.752 169.462 118.759 169.526 118.761C169.809 118.761 170.083 118.649 170.284 118.449L170.85 117.87L171.631 119.038L170.595 131.539C170.573 131.78 170.637 132.018 170.776 132.214L172.517 134.841H166.319L166.323 134.845ZM173.803 132.914L172.767 131.349L173.717 119.833H173.889L174.839 131.349L173.803 132.914ZM185.558 134.845H183.42V119.833H181.282V134.845H175.084L176.825 132.218C176.964 132.021 177.028 131.781 177.006 131.543L175.97 119.041L176.75 117.874L177.317 118.453C177.52 118.653 177.792 118.765 178.075 118.765C178.139 118.765 178.205 118.755 178.267 118.743C178.612 118.68 178.903 118.451 179.047 118.132L180.425 115.034L182.38 115.903C184.308 116.764 185.552 118.684 185.554 120.803V134.848L185.558 134.845Z" fill="black"/>
<path d="M152.008 78.145H141.264C140.077 78.145 139.115 77.1839 139.115 75.9979V65.2645C139.115 64.0785 140.077 63.1173 141.264 63.1173H152.008C153.195 63.1173 154.157 64.0785 154.157 65.2645V75.9979C154.157 77.1839 153.195 78.145 152.008 78.145Z" fill="#B3E59F"/>
<path d="M152.187 63.1246C152.211 63.4229 152.221 63.7235 152.221 64.0289C152.221 70.52 146.953 75.7826 140.456 75.7826C140.001 75.7826 139.553 75.7565 139.112 75.7068V75.998C139.112 77.184 140.074 78.1451 141.261 78.1451H152.005C153.192 78.1451 154.154 77.184 154.154 75.998V65.2622C154.154 64.1378 153.287 63.2169 152.185 63.1246H152.187Z" fill="#95D6A4"/>
<path d="M152.008 97.9806H141.264C140.077 97.9806 139.115 97.0195 139.115 95.8335V85.1001C139.115 83.9141 140.077 82.953 141.264 82.953H152.008C153.195 82.953 154.157 83.9141 154.157 85.1001V95.8335C154.157 97.0195 153.195 97.9806 152.008 97.9806Z" fill="#B3E59F"/>
<path d="M152.187 82.9624C152.211 83.2607 152.221 83.5614 152.221 83.8667C152.221 90.3579 146.953 95.6204 140.456 95.6204C140.001 95.6204 139.553 95.5944 139.112 95.5447V95.8358C139.112 97.0219 140.074 97.983 141.261 97.983H152.005C153.192 97.983 154.154 97.0219 154.154 95.8358V85.1025C154.154 83.978 153.287 83.0571 152.185 82.9648L152.187 82.9624Z" fill="#95D6A4"/>
<path d="M152.008 117.819H141.264C140.077 117.819 139.115 116.858 139.115 115.672V104.938C139.115 103.752 140.077 102.791 141.264 102.791H152.008C153.195 102.791 154.157 103.752 154.157 104.938V115.672C154.157 116.858 153.195 117.819 152.008 117.819Z" fill="#B3E59F"/>
<path d="M152.187 102.8C152.211 103.099 152.221 103.399 152.221 103.705C152.221 110.196 146.953 115.458 140.456 115.458C140.001 115.458 139.553 115.432 139.112 115.383V115.674C139.112 116.86 140.074 117.821 141.261 117.821H152.005C153.192 117.821 154.154 116.86 154.154 115.674V104.94C154.154 103.816 153.287 102.895 152.185 102.803L152.187 102.8Z" fill="#95D6A4"/>
<path d="M155.274 65.2621C155.274 63.463 153.81 62 152.009 62H141.265C139.464 62 138 63.463 138 65.2621V75.9955C138 77.7947 139.464 79.2577 141.265 79.2577H152.009C153.81 79.2577 155.274 77.7947 155.274 75.9955V65.2621ZM153.04 75.9955C153.04 76.5637 152.577 77.0277 152.006 77.0277H141.265C140.697 77.0277 140.232 76.566 140.232 75.9955V65.2621C140.232 64.694 140.694 64.23 141.265 64.23H152.009C152.577 64.23 153.042 64.6916 153.042 65.2621V75.9955H153.04Z" fill="black"/>
<path d="M148.856 67.9372L145.835 70.9555L144.719 69.8405C144.283 69.405 143.575 69.405 143.139 69.8405C142.703 70.2761 142.703 70.9839 143.139 71.4195L145.044 73.3228C145.252 73.5312 145.537 73.6495 145.833 73.6495C146.129 73.6495 146.413 73.5312 146.622 73.3228L150.432 69.5162C150.868 69.0806 150.868 68.3728 150.432 67.9372C149.996 67.5016 149.287 67.5016 148.851 67.9372H148.856Z" fill="black"/>
<path d="M155.274 85.1002C155.274 83.301 153.81 81.838 152.009 81.838H141.265C139.464 81.838 138 83.301 138 85.1002V95.8335C138 97.6327 139.464 99.0957 141.265 99.0957H152.009C153.81 99.0957 155.274 97.6327 155.274 95.8335V85.1002ZM153.04 95.8335C153.04 96.4017 152.577 96.8657 152.006 96.8657H141.265C140.697 96.8657 140.232 96.4041 140.232 95.8335V85.1002C140.232 84.532 140.694 84.068 141.265 84.068H152.009C152.577 84.068 153.042 84.5297 153.042 85.1002V95.8335H153.04Z" fill="black"/>
<path d="M148.856 87.7752L145.835 90.7935L144.719 89.6785C144.283 89.2429 143.575 89.2429 143.139 89.6785C142.703 90.1141 142.703 90.8219 143.139 91.2575L145.044 93.1608C145.262 93.3786 145.548 93.4875 145.833 93.4875C146.117 93.4875 146.404 93.3786 146.622 93.1608L150.432 89.3542C150.868 88.9186 150.868 88.2108 150.432 87.7752C149.996 87.3396 149.29 87.3396 148.851 87.7752H148.856Z" fill="black"/>
<path d="M152.009 101.674H141.265C139.464 101.674 138 103.137 138 104.936V115.669C138 117.468 139.464 118.931 141.265 118.931H152.009C153.81 118.931 155.274 117.468 155.274 115.669V104.936C155.274 103.137 153.81 101.674 152.009 101.674ZM153.042 115.672C153.042 116.24 152.58 116.704 152.009 116.704H141.265C140.697 116.704 140.232 116.242 140.232 115.672V104.938C140.232 104.37 140.694 103.906 141.265 103.906H152.009C152.577 103.906 153.042 104.368 153.042 104.938V115.672Z" fill="black"/>
<path d="M148.856 107.611L145.835 110.629L144.719 109.514C144.283 109.079 143.575 109.079 143.139 109.514C142.703 109.95 142.703 110.658 143.139 111.093L145.044 112.996C145.262 113.214 145.548 113.323 145.833 113.323C146.117 113.323 146.404 113.214 146.622 112.996L150.432 109.19C150.868 108.754 150.868 108.046 150.432 107.611C149.996 107.175 149.287 107.175 148.851 107.611H148.856Z" fill="black"/>
<path d="M185.291 67H172.964C172.252 67 171.675 67.577 171.675 68.2891C171.675 69.0011 172.252 69.5781 172.964 69.5781H185.291C186.003 69.5781 186.58 69.0011 186.58 68.2891C186.58 67.577 186.003 67 185.291 67Z" fill="black"/>
<path d="M185.291 73H172.964C172.252 73 171.675 73.577 171.675 74.2891C171.675 75.0011 172.252 75.5781 172.964 75.5781H185.291C186.003 75.5781 186.58 75.0011 186.58 74.2891C186.58 73.577 186.003 73 185.291 73Z" fill="black"/>
<path d="M160.289 69.5781H166.887C167.599 69.5781 168.176 69.0011 168.176 68.2891C168.176 67.577 167.599 67 166.887 67H160.289C159.577 67 159 67.577 159 68.2891C159 69.0011 159.577 69.5781 160.289 69.5781Z" fill="black"/>
<path d="M160.289 75.5781H166.887C167.599 75.5781 168.176 75.0011 168.176 74.2891C168.176 73.577 167.599 73 166.887 73H160.289C159.577 73 159 73.577 159 74.2891C159 75.0011 159.577 75.5781 160.289 75.5781Z" fill="black"/>
</g>
<defs>
<clipPath id="clip0_5924_1442">
<rect width="89.9341" height="88" fill="white" transform="translate(130 50)"/>
</clipPath>
</defs>
</svg>
