<svg width="72" height="72" viewBox="0 0 72 72" fill="none" xmlns="http://www.w3.org/2000/svg">
<rect width="72" height="72" rx="36" fill="#D9D9D9"/>
<path d="M39.1367 25.1453H55.7891V56.5118H39.1367V25.1453Z" fill="#04BCBC"/>
<path d="M47.7939 32.0601H51.2393V35.5054H47.7939V32.0601Z" fill="#EFEFFB"/>
<path d="M47.7939 38.9265H51.2393V42.3718H47.7939V38.9265Z" fill="#EFEFFB"/>
<path d="M47.7939 45.793H51.2393V49.2383H47.7939V45.793Z" fill="#EFEFFB"/>
<path d="M38.1797 23.9968H57.5117V26.2937H38.1797V23.9968Z" fill="#EFEFFB"/>
<path d="M15.2109 13.6367H42.5181V56.5117H15.2109V13.6367Z" fill="#0BD5DD"/>
<path d="M17.5078 48.7119C17.3302 48.7118 17.1598 48.6412 17.0342 48.5156C16.9086 48.39 16.838 48.2196 16.8379 48.042V45.2666C16.8379 45.0889 16.9085 44.9185 17.0341 44.7929C17.1597 44.6673 17.3301 44.5967 17.5078 44.5967C17.6855 44.5967 17.8559 44.6673 17.9815 44.7929C18.1072 44.9185 18.1777 45.0889 18.1777 45.2666V48.042C18.1776 48.2196 18.107 48.39 17.9814 48.5156C17.8558 48.6412 17.6855 48.7118 17.5078 48.7119Z" fill="#04BCBC"/>
<path d="M13.4883 12.4883H44.2408V14.7852H13.4883V12.4883Z" fill="#EFEFFB"/>
<path d="M19.7607 20.5515H23.2061V23.9968H19.7607V20.5515Z" fill="#EFEFFB"/>
<path d="M27.1426 20.5515H30.5879V23.9968H27.1426V20.5515Z" fill="#EFEFFB"/>
<path d="M34.5234 20.5515H37.9687V23.9968H34.5234V20.5515Z" fill="#EFEFFB"/>
<path d="M19.7607 27.418H23.2061V30.8633H19.7607V27.418Z" fill="#EFEFFB"/>
<path d="M27.1426 27.418H30.5879V30.8633H27.1426V27.418Z" fill="#EFEFFB"/>
<path d="M34.5234 27.418H37.9687V30.8633H34.5234V27.418Z" fill="#EFEFFB"/>
<path d="M19.7607 34.2844H23.2061V37.7297H19.7607V34.2844Z" fill="#EFEFFB"/>
<path d="M27.1426 34.2844H30.5879V37.7297H27.1426V34.2844Z" fill="#EFEFFB"/>
<path d="M34.5234 34.2844H37.9687V37.7297H34.5234V34.2844Z" fill="#EFEFFB"/>
<path d="M24.2705 43.6875H33.458V56.5117H24.2705V43.6875Z" fill="#EFEFFB"/>
</svg>
