<svg width="387" height="301" viewBox="0 0 387 301" fill="none" xmlns="http://www.w3.org/2000/svg">
<rect x="48" y="15.0107" width="94" height="118" fill="#F3F3F3"/>
<path d="M73.1751 145.831H53.4612C49.6577 145.831 46.5664 142.751 46.5664 138.944V8.88669C46.5664 5.08768 49.6499 2 53.4612 2H134.367C138.171 2 141.262 5.07986 141.262 8.88669V81.7324" stroke="#14335D" stroke-width="3" stroke-linecap="round" stroke-linejoin="round"/>
<path d="M47.3496 15.2887H140.48" stroke="#14335D" stroke-width="3" stroke-linecap="round" stroke-linejoin="round"/>
<path d="M47.3496 133.324H86.48" stroke="#14335D" stroke-width="3" stroke-linecap="round" stroke-linejoin="round"/>
<path d="M121.155 59.5569C121.155 74.2214 94.5774 109.937 94.5774 109.937C94.5774 109.937 68 74.2136 68 59.5569C68 44.9002 79.8957 33.0107 94.5774 33.0107C109.259 33.0107 121.155 44.8924 121.155 59.5569Z" fill="#FD6B22" stroke="#14335D" stroke-width="3" stroke-linecap="round" stroke-linejoin="round"/>
<path d="M95.1739 67.3347C100.793 67.3347 105.348 62.785 105.348 57.1727C105.348 51.5604 100.793 47.0107 95.1739 47.0107C89.555 47.0107 85 51.5604 85 57.1727C85 62.785 89.555 67.3347 95.1739 67.3347Z" fill="white" stroke="#14335D" stroke-width="3" stroke-linecap="round" stroke-linejoin="round"/>
<path d="M246.494 15.6035H185.359V174.489H246.494V15.6035Z" fill="#E6E6E6"/>
<path d="M223.754 16.0107H162.754V150.011H223.754V16.0107Z" fill="#F0F0F0"/>
<path d="M218.535 26.3867H168.068V34.4831H218.535V26.3867Z" fill="#E6E6E6"/>
<path d="M218.527 26.3867H170.02V34.4831H218.527V26.3867Z" fill="#14335D"/>
<path d="M218.535 40.0166H168.068V48.113H218.535V40.0166Z" fill="#E6E6E6"/>
<path d="M218.527 40.0166H170.02V48.113H218.527V40.0166Z" fill="#14335D"/>
<path d="M218.535 54.1699H168.068V62.2663H218.535V54.1699Z" fill="#E6E6E6"/>
<path d="M218.527 54.1699H170.02V62.2663H218.527V54.1699Z" fill="#14335D"/>
<path d="M218.535 68.332H168.068V76.4284H218.535V68.332Z" fill="#E6E6E6"/>
<path d="M218.527 68.332H170.02V76.4284H218.527V68.332Z" fill="#14335D"/>
<path d="M218.535 82.4854H168.068V90.5817H218.535V82.4854Z" fill="#E6E6E6"/>
<path d="M218.527 82.4854H170.02V90.5817H218.527V82.4854Z" fill="#14335D"/>
<path d="M218.535 96.6475H168.068V104.744H218.535V96.6475Z" fill="#E6E6E6"/>
<path d="M218.527 96.6475H170.02V104.744H218.527V96.6475Z" fill="#14335D"/>
<path d="M218.535 112.246H168.068V120.342H218.535V112.246Z" fill="#E6E6E6"/>
<path d="M218.527 112.246H170.02V120.342H218.527V112.246Z" fill="#14335D"/>
<path d="M218.535 127.854H168.068V135.95H218.535V127.854Z" fill="#E6E6E6"/>
<path d="M218.527 127.854H170.02V135.95H218.527V127.854Z" fill="#14335D"/>
<path d="M230.781 160.461H180.314V168.557H230.781V160.461Z" fill="#E6E6E6"/>
<path d="M230.773 160.461H182.266V168.557H230.773V160.461Z" fill="#14335D"/>
<path d="M248.082 14.0078H161V17.8831H248.082V14.0078Z" fill="#2D476B"/>
<path d="M248.082 7.01074H161V10.886H248.082V7.01074Z" fill="#2D476B"/>
<path d="M245.191 10.123H162.729V13.9983H245.191V10.123Z" fill="#F0F0F0"/>
<path d="M246.496 26.3867H229.461V34.4831H246.496V26.3867Z" fill="#2D476B"/>
<path d="M269.496 55.707H252.461V63.8034H269.496V55.707Z" fill="#2D476B"/>
<path d="M269.496 69.0352H252.461V77.1315H269.496V69.0352Z" fill="#2D476B"/>
<path d="M269.496 84.3232H252.461V92.4196H269.496V84.3232Z" fill="#2D476B"/>
<path d="M258.742 99.4854H241.707V107.582H258.742V99.4854Z" fill="#2D476B"/>
<path d="M258.742 113.647H241.707V121.744H258.742V113.647Z" fill="#2D476B"/>
<path d="M258.742 129.246H241.707V137.342H258.742V129.246Z" fill="#2D476B"/>
<path d="M258.742 144.854H241.707V152.95H258.742V144.854Z" fill="#2D476B"/>
<path d="M258.742 160.452H241.707V168.549H258.742V160.452Z" fill="#2D476B"/>
<path d="M258.742 176.06H241.707V184.156H258.742V176.06Z" fill="#2D476B"/>
<path d="M386.338 171.717H381.434V179.388H386.338V171.717Z" fill="#6CB8C0"/>
<path d="M386.338 184.274H381.434V191.945H386.338V184.274Z" fill="#6CB8C0"/>
<path d="M386.338 196.467H381.434V204.138H386.338V196.467Z" fill="#6CB8C0"/>
<path d="M386.338 209.37H381.434V217.041H386.338V209.37Z" fill="#6CB8C0"/>
<path d="M386.338 221.918H381.434V229.589H386.338V221.918Z" fill="#6CB8C0"/>
<path d="M386.338 164.011H334.754V242.465H386.338V164.011Z" fill="#6CB8C0"/>
<path d="M377.631 164.011H334.764V242.465H377.631V164.011Z" fill="#6CB8C0"/>
<path d="M373.481 171.717H338.621V179.388H373.481V171.717Z" fill="#6CB8C0"/>
<path d="M373.481 184.274H338.621V191.945H373.481V184.274Z" fill="#6CB8C0"/>
<path d="M373.481 196.822H338.621V204.493H373.481V196.822Z" fill="#6CB8C0"/>
<path d="M373.481 209.37H338.621V217.041H373.481V209.37Z" fill="#6CB8C0"/>
<path d="M373.481 221.918H338.621V229.589H373.481V221.918Z" fill="#6CB8C0"/>
<path d="M377.328 177.011H343.754V184.681H377.328V177.011Z" fill="#3BA1AB"/>
<path d="M377.328 189.568H343.754V197.238H377.328V189.568Z" fill="#3BA1AB"/>
<path d="M377.328 202.116H343.754V209.786H377.328V202.116Z" fill="#3BA1AB"/>
<path d="M377.328 214.664H343.754V222.334H377.328V214.664Z" fill="#3BA1AB"/>
<path d="M377.328 227.212H343.754V234.882H377.328V227.212Z" fill="#3BA1AB"/>
<path d="M326.5 58.0403H255.176V243.405H326.5V58.0403Z" fill="#0A8996"/>
<path d="M300.092 58.0403H228.768V243.405H300.092V58.0403Z" fill="#0A8996"/>
<path opacity="0.7" d="M326.499 60.7007H300.1V243.405H326.499V60.7007Z" fill="white"/>
<path d="M326.5 70.6238H306.627V80.0681H326.5V70.6238Z" fill="#0A8996"/>
<path d="M326.5 86.1603H306.627V95.6045H326.5V86.1603Z" fill="#0A8996"/>
<path d="M326.5 101.706H306.627V111.15H326.5V101.706Z" fill="#0A8996"/>
<path d="M326.5 119.548H306.627V128.992H326.5V119.548Z" fill="#0A8996"/>
<path d="M326.5 136.069H306.627V145.513H326.5V136.069Z" fill="#0A8996"/>
<path d="M326.5 152.589H306.627V162.034H326.5V152.589Z" fill="#0A8996"/>
<path d="M326.5 170.786H306.627V180.231H326.5V170.786Z" fill="#0A8996"/>
<path d="M326.5 188.992H306.627V198.436H326.5V188.992Z" fill="#0A8996"/>
<path d="M326.5 207.198H306.627V216.642H326.5V207.198Z" fill="#0A8996"/>
<path d="M326.5 225.403H306.627V234.848H326.5V225.403Z" fill="#0A8996"/>
<path opacity="0.3" d="M326.5 70.6238H306.627V80.0681H326.5V70.6238Z" fill="white"/>
<path opacity="0.3" d="M326.5 86.1603H306.627V95.6045H326.5V86.1603Z" fill="white"/>
<path opacity="0.3" d="M326.5 101.706H306.627V111.15H326.5V101.706Z" fill="white"/>
<path opacity="0.3" d="M326.5 119.548H306.627V128.992H326.5V119.548Z" fill="white"/>
<path opacity="0.3" d="M326.5 136.069H306.627V145.513H326.5V136.069Z" fill="white"/>
<path opacity="0.3" d="M326.5 152.589H306.627V162.034H326.5V152.589Z" fill="white"/>
<path opacity="0.3" d="M326.5 170.786H306.627V180.231H326.5V170.786Z" fill="white"/>
<path opacity="0.3" d="M326.5 188.992H306.627V198.436H326.5V188.992Z" fill="white"/>
<path opacity="0.3" d="M326.5 207.198H306.627V216.642H326.5V207.198Z" fill="white"/>
<path opacity="0.3" d="M326.5 225.403H306.627V234.848H326.5V225.403Z" fill="white"/>
<path opacity="0.4" d="M299.754 58.0107H228.754V217.011H299.754V58.0107Z" fill="white"/>
<path d="M293.875 70.6238H234.992V80.0681H293.875V70.6238Z" fill="#0A8996"/>
<path opacity="0.2" d="M293.874 70.6238H237.279V80.0681H293.874V70.6238Z" fill="white"/>
<path d="M293.875 86.5151H234.992V95.9594H293.875V86.5151Z" fill="#0A8996"/>
<path opacity="0.2" d="M293.874 86.5151H237.279V95.9594H293.874V86.5151Z" fill="white"/>
<path d="M293.875 103.036H234.992V112.48H293.875V103.036Z" fill="#0A8996"/>
<path opacity="0.2" d="M293.874 103.036H237.279V112.48H293.874V103.036Z" fill="white"/>
<path d="M293.875 119.557H234.992V129.001H293.875V119.557Z" fill="#0A8996"/>
<path opacity="0.2" d="M293.874 119.557H237.279V129.001H293.874V119.557Z" fill="white"/>
<path d="M293.875 136.069H234.992V145.513H293.875V136.069Z" fill="#0A8996"/>
<path opacity="0.2" d="M293.874 136.069H237.279V145.513H293.874V136.069Z" fill="white"/>
<path d="M293.875 152.589H234.992V162.034H293.875V152.589Z" fill="#0A8996"/>
<path opacity="0.2" d="M293.874 152.589H237.279V162.034H293.874V152.589Z" fill="white"/>
<path d="M293.637 183.011H234.754V192.455H293.637V183.011Z" fill="#0A8996"/>
<path opacity="0.2" d="M293.636 183.011H237.041V192.455H293.636V183.011Z" fill="white"/>
<path d="M293.875 189.001H234.992V198.445H293.875V189.001Z" fill="#0A8996"/>
<path opacity="0.2" d="M293.874 189.001H237.279V198.445H293.874V189.001Z" fill="white"/>
<path d="M293.875 207.198H234.992V216.642H293.875V207.198Z" fill="#0A8996"/>
<path opacity="0.2" d="M293.874 207.198H237.279V216.642H293.874V207.198Z" fill="white"/>
<path d="M293.875 225.404H234.992V234.848H293.875V225.404Z" fill="#0A8996"/>
<path opacity="0.2" d="M293.874 225.404H237.279V234.848H293.874V225.404Z" fill="white"/>
<path d="M324.974 52.5333H300.1V56.1692H324.974V52.5333Z" fill="#0A8996"/>
<path d="M324.975 51.6466H228.768V56.1692H324.975V51.6466Z" fill="#F0F0F0"/>
<path d="M328.353 56.1781H226.754V60.7007H328.353V56.1781Z" fill="#0A8996"/>
<path d="M328.353 48.0107H226.754V52.5333H328.353V48.0107Z" fill="#0A8996"/>
<path opacity="0.05" d="M328.353 56.1781H226.754V60.7007H328.353V56.1781Z" fill="black"/>
<path opacity="0.05" d="M328.353 48.0107H226.754V52.5333H328.353V48.0107Z" fill="black"/>
<path d="M354.647 95.8082H279.377V242.704H354.647V95.8082Z" fill="#E6E6E6"/>
<path d="M340.964 95.8082H279.377V242.704H340.964V95.8082Z" fill="#F0F0F0"/>
<path d="M355.534 95.8082H277.754V98.2025H355.534V95.8082Z" fill="#2D476B"/>
<path d="M355.534 91.0107H277.754V93.4051H355.534V91.0107Z" fill="#2D476B"/>
<path d="M353.902 93.405H279.377V95.7994H353.902V93.405Z" fill="#F0F0F0"/>
<path d="M296.784 104.454H285.221V116.018H296.784V104.454Z" fill="#E6E6E6"/>
<path d="M296.784 104.454H286.24V116.018H296.784V104.454Z" fill="#14335D"/>
<path d="M314.308 104.454H302.744V116.018H314.308V104.454Z" fill="#E6E6E6"/>
<path d="M314.308 104.454H303.764V116.018H314.308V104.454Z" fill="#14335D"/>
<path d="M331.822 104.454H320.258V116.018H331.822V104.454Z" fill="#E6E6E6"/>
<path d="M331.821 104.454H321.277V116.018H331.821V104.454Z" fill="#14335D"/>
<path d="M296.784 121.49H285.221V133.053H296.784V121.49Z" fill="#E6E6E6"/>
<path d="M296.784 121.49H286.24V133.053H296.784V121.49Z" fill="#14335D"/>
<path d="M314.308 121.49H302.744V133.053H314.308V121.49Z" fill="#E6E6E6"/>
<path d="M314.308 121.49H303.764V133.053H314.308V121.49Z" fill="#14335D"/>
<path d="M331.822 121.49H320.258V133.053H331.822V121.49Z" fill="#E6E6E6"/>
<path d="M331.821 121.49H321.277V133.053H331.821V121.49Z" fill="#14335D"/>
<path d="M296.784 152.678H285.221V164.242H296.784V152.678Z" fill="#E6E6E6"/>
<path d="M296.784 152.678H286.24V164.242H296.784V152.678Z" fill="#14335D"/>
<path d="M314.308 152.678H302.744V164.242H314.308V152.678Z" fill="#E6E6E6"/>
<path d="M314.308 152.678H303.764V164.242H314.308V152.678Z" fill="#14335D"/>
<path d="M331.822 152.678H320.258V164.242H331.822V152.678Z" fill="#E6E6E6"/>
<path d="M331.821 152.678H321.277V164.242H331.821V152.678Z" fill="#14335D"/>
<path d="M296.784 169.713H285.221V181.277H296.784V169.713Z" fill="#E6E6E6"/>
<path d="M296.784 169.713H286.24V181.277H296.784V169.713Z" fill="#14335D"/>
<path d="M314.308 169.713H302.744V181.277H314.308V169.713Z" fill="#E6E6E6"/>
<path d="M314.308 169.713H303.764V181.277H314.308V169.713Z" fill="#14335D"/>
<path d="M331.822 169.713H320.258V181.277H331.822V169.713Z" fill="#E6E6E6"/>
<path d="M331.821 169.713H321.277V181.277H331.821V169.713Z" fill="#14335D"/>
<path d="M354.647 141.185H279.377V142.258H354.647V141.185Z" fill="#2D476B"/>
<path d="M354.647 194.508H279.377V195.581H354.647V194.508Z" fill="#2D476B"/>
<path d="M301.759 236.072V240.023C301.759 241.554 300.516 242.795 298.984 242.795H296.255C294.723 242.795 293.48 241.554 293.48 240.023V236.072" stroke="#0A8996" stroke-width="3" stroke-linecap="round" stroke-linejoin="round"/>
<path d="M330.752 236.072V240.023C330.752 241.554 331.994 242.795 333.527 242.795H336.255C337.788 242.795 339.03 241.554 339.03 240.023V236.072" stroke="#0A8996" stroke-width="3" stroke-linecap="round" stroke-linejoin="round"/>
<path d="M293.642 236.073H338.86C341.858 236.073 344.152 233.234 343.696 230.09L342.355 220.828C341.988 218.294 339.932 216.422 337.52 216.422H294.988C292.57 216.422 290.52 218.294 290.153 220.828L288.812 230.09C288.356 233.234 290.65 236.073 293.647 236.073H293.642Z" stroke="#0A8996" stroke-width="3" stroke-linecap="round" stroke-linejoin="round"/>
<path d="M338.389 216.753L331.721 206.87C330.602 205.174 328.651 204.011 326.782 204.011H305.834C303.965 204.011 302.013 205.174 300.895 206.87L295.029 216.422" stroke="#0A8996" stroke-width="3" stroke-linecap="round" stroke-linejoin="round"/>
<path d="M325.576 226.764H307.455V231.418H325.576V226.764Z" stroke="#14335D" stroke-width="3" stroke-linecap="round" stroke-linejoin="round"/>
<path d="M297.877 231.936C299.736 231.936 301.242 230.431 301.242 228.574C301.242 226.718 299.736 225.213 297.877 225.213C296.018 225.213 294.512 226.718 294.512 228.574C294.512 230.431 296.018 231.936 297.877 231.936Z" stroke="#14335D" stroke-width="3" stroke-linecap="round" stroke-linejoin="round"/>
<path d="M334.637 231.936C336.495 231.936 338.002 230.431 338.002 228.574C338.002 226.718 336.495 225.213 334.637 225.213C332.778 225.213 331.271 226.718 331.271 228.574C331.271 230.431 332.778 231.936 334.637 231.936Z" stroke="#14335D" stroke-width="3" stroke-linecap="round" stroke-linejoin="round"/>
<path d="M149 222.011C151 216.011 159.4 204.811 177 208.011C179.666 213.011 186.8 220.011 194 208.011C204 208.344 223.4 214.211 221 235.011V245.939C221.085 247.032 221.078 248.07 221 249.011V245.939C220.356 237.744 214.47 226.481 194 230.011H159C152.333 227.344 141 222.011 149 222.011Z" fill="#0A8996" stroke="black"/>
<path d="M83 183.01V227.01C117.4 213.41 140 221.343 147 227.01C154.2 208.61 169.333 207.344 176 209.011V201.011L169 196.011C156.2 190.411 155.667 174.344 157 167.01H147C135 191.81 122.667 177.343 118 167.01H113C94.6 165.41 85.3333 177.01 83 183.01Z" fill="#57A0A7" stroke="black"/>
<path d="M205 148.212V156.651L215.994 176.011H267.464C282.655 174.422 275.792 166.413 270.462 162.608C282.055 160.622 275.292 153.838 270.462 150.694C281.256 145.928 276.292 141.427 272.461 139.773C279.657 133.022 274.126 129.679 270.462 128.852L267.464 115.448C261.067 101.152 245.476 98.5704 238.481 99.0669C222.89 98.6698 216.993 109.822 215.994 115.448L205 128.852L209.997 138.283L205 148.212Z" fill="white"/>
<path d="M87.7388 225.167H62.6953V297.083H87.7388V225.167Z" fill="#0A8996"/>
<path d="M184.218 153.775C184.218 153.775 168.371 154.252 163.785 165.821C158.518 179.102 160.685 187.193 169.607 193.868C178.529 200.544 169.607 193.868 169.607 193.868L168.371 187.388L167.776 170.449H201.217L200.653 186.348L199.151 193.212L199.651 195.463C199.651 195.463 208.143 195.721 211.79 190.64C215.437 185.559 216.345 177.633 213.48 168.62C209.176 155.073 192.264 153.768 184.218 153.768V153.775Z" fill="#14335D"/>
<path d="M113.565 129.387L126.086 118.928C126.086 118.928 130.132 121.585 135.086 121.46C140.04 121.335 157.5 121.781 157.5 121.781C157.5 121.781 157.258 100.011 134.038 100.011C110.818 100.011 113.557 129.387 113.557 129.387H113.565Z" fill="#14335D"/>
<path d="M220.181 255.059L280.794 244.264C288.463 243.201 295.295 249.212 295.178 256.974C295.131 259.976 293.198 262.626 290.365 263.618L193.572 297.411C189.878 298.521 185.989 298.771 182.185 298.154L87.3094 283.794H84.6016" stroke="black" stroke-width="4" stroke-linecap="round" stroke-linejoin="round"/>
<path d="M83.0435 219.695H58V291.611H83.0435V219.695Z" stroke="black" stroke-width="4" stroke-linecap="round" stroke-linejoin="round"/>
<path d="M160.521 257.216H213.997C218.121 257.216 221.463 253.91 221.541 249.79C221.729 239.245 213.23 230.639 202.719 230.639H172.268C161.844 230.639 154.519 228.075 145.824 223.705C137.137 219.344 127.785 216.928 113.056 217.35C97.5368 217.796 88.662 228.427 84.2324 228.427" stroke="black" stroke-width="4" stroke-linecap="round" stroke-linejoin="round"/>
<path d="M141.347 136.836C142.428 136.836 143.304 135.961 143.304 134.882C143.304 133.803 142.428 132.928 141.347 132.928C140.267 132.928 139.391 133.803 139.391 134.882C139.391 135.961 140.267 136.836 141.347 136.836Z" fill="black"/>
<path d="M122.566 136.836C123.646 136.836 124.522 135.961 124.522 134.882C124.522 133.803 123.646 132.928 122.566 132.928C121.485 132.928 120.609 133.803 120.609 134.882C120.609 135.961 121.485 136.836 122.566 136.836Z" fill="black"/>
<path d="M126.682 146.295C127.284 148.437 129.343 150.016 131.816 150.016C134.289 150.016 136.347 148.429 136.949 146.295" stroke="black" stroke-width="4" stroke-linecap="round" stroke-linejoin="round"/>
<path d="M110.951 124.181L119.842 118.607L120.906 119.6C124.162 122.633 128.442 124.329 132.896 124.329H151.13" stroke="black" stroke-width="4" stroke-linecap="round" stroke-linejoin="round"/>
<path d="M108.063 141.354C104.729 141.354 102.021 138.673 102.021 135.367C102.021 132.06 104.729 129.379 108.063 129.379" stroke="black" stroke-width="4" stroke-linecap="round" stroke-linejoin="round"/>
<path d="M247.783 143.09C248.863 143.09 249.739 142.215 249.739 141.135C249.739 140.056 248.863 139.181 247.783 139.181C246.702 139.181 245.826 140.056 245.826 141.135C245.826 142.215 246.702 143.09 247.783 143.09Z" fill="black"/>
<path d="M231.347 143.09C232.428 143.09 233.304 142.215 233.304 141.135C233.304 140.056 232.428 139.181 231.347 139.181C230.267 139.181 229.391 140.056 229.391 141.135C229.391 142.215 230.267 143.09 231.347 143.09Z" fill="black"/>
<path d="M230 178.011H213C213 190.011 202.667 195.344 197.5 196.511L188.5 202.511V209.011H206C217.2 211.411 221.667 220.677 222.5 225.011V255.511L276.5 245.511V193.511C278.1 181.111 270.833 178.011 267 178.011H252C242.4 190.811 233.333 183.344 230 178.011Z" fill="#57A0A7" stroke="black"/>
<path d="M234.973 152.275C235.599 154.393 237.759 155.964 240.341 155.964C242.924 155.964 245.084 154.393 245.71 152.275" stroke="black" stroke-width="4" stroke-linecap="round" stroke-linejoin="round"/>
<path d="M259.912 130.583V146.897C259.912 156.832 252.61 165.477 242.733 166.642C230.861 168.041 220.781 158.817 220.781 147.24V130.575" stroke="black" stroke-width="4" stroke-linecap="round" stroke-linejoin="round"/>
<path d="M221.566 130.583H241.1C246.516 130.583 251.611 128.034 254.859 123.712L255.054 123.454L260.251 130.59" stroke="black" stroke-width="4" stroke-linecap="round" stroke-linejoin="round"/>
<path d="M178.13 182.174C179.211 182.174 180.087 181.299 180.087 180.22C180.087 179.141 179.211 178.266 178.13 178.266C177.05 178.266 176.174 179.141 176.174 180.22C176.174 181.299 177.05 182.174 178.13 182.174Z" fill="black"/>
<path d="M190.652 182.174C191.732 182.174 192.608 181.299 192.608 180.22C192.608 179.141 191.732 178.266 190.652 178.266C189.571 178.266 188.695 179.141 188.695 180.22C188.695 181.299 189.571 182.174 190.652 182.174Z" fill="black"/>
<path d="M188.327 189.6C187.842 191.359 186.198 192.664 184.218 192.664C182.238 192.664 180.595 191.359 180.109 189.6" stroke="black" stroke-width="4" stroke-linecap="round" stroke-linejoin="round"/>
<path d="M167.566 185.715V169.667H200.436V186.09C200.436 195.651 192.258 203.303 182.514 202.443C173.976 201.693 167.566 194.275 167.566 185.715V185.715Z" stroke="black" stroke-width="4" stroke-linecap="round" stroke-linejoin="round"/>
<path d="M250.521 175.921H264.084C272.153 175.921 278.695 182.456 278.695 190.515V243.928" stroke="black" stroke-width="4" stroke-linecap="round" stroke-linejoin="round"/>
<path d="M119.044 165.759H106.224C93.8514 165.759 83.8262 175.78 83.8262 188.131V226.73" stroke="black" stroke-width="4" stroke-linecap="round" stroke-linejoin="round"/>
<path d="M144.869 165.759H157.391" stroke="black" stroke-width="4" stroke-linecap="round" stroke-linejoin="round"/>
<path d="M204.457 157.441C204.457 154.049 207.212 151.297 210.608 151.297C207.212 151.297 204.457 148.546 204.457 145.153C204.457 141.761 207.212 139.009 210.608 139.009V138.634C208.221 137.79 206.507 135.539 206.507 132.865C206.507 130.192 208.292 127.862 210.749 127.049C212.134 111.931 224.852 100.081 240.347 100.081C255.843 100.081 268.561 111.924 269.946 127.049C272.403 127.855 274.187 130.137 274.187 132.865C274.187 135.593 272.474 137.79 270.087 138.634V139.009C273.483 139.009 276.238 141.761 276.238 145.153C276.238 148.546 273.483 151.297 270.087 151.297C273.483 151.297 276.238 154.049 276.238 157.441C276.238 160.834 273.483 163.586 270.087 163.586C273.483 163.586 276.238 166.337 276.238 169.73C276.238 173.122 273.483 176.695 270.087 176.695" stroke="black" stroke-width="4" stroke-linecap="round" stroke-linejoin="round"/>
<path d="M249.74 165.759V174.803C249.74 179.126 246.867 183.026 242.665 184.027C236.474 185.504 230.957 180.853 230.957 174.92V165.751" stroke="black" stroke-width="4" stroke-linecap="round" stroke-linejoin="round"/>
<path d="M229.39 175.921H217.322C215.366 175.921 213.495 176.304 211.789 177.007" stroke="black" stroke-width="4" stroke-linecap="round" stroke-linejoin="round"/>
<path d="M143.305 159.505V168.534C143.305 174.052 139.455 178.969 134.015 179.923C126.839 181.181 120.609 175.702 120.609 168.768V159.505" stroke="black" stroke-width="4" stroke-linecap="round" stroke-linejoin="round"/>
<path d="M110.434 139.525V122.07C110.434 110.337 119.645 100.402 131.384 100.097C143.53 99.784 153.477 109.524 153.477 121.585V140.01C153.477 152.071 143.53 161.811 131.384 161.498C119.637 161.194 110.434 151.258 110.434 139.525Z" stroke="black" stroke-width="4" stroke-linecap="round" stroke-linejoin="round"/>
<path d="M155.576 141.354C158.91 141.354 161.618 138.673 161.618 135.367C161.618 132.06 158.91 129.379 155.576 129.379" stroke="black" stroke-width="4" stroke-linecap="round" stroke-linejoin="round"/>
<path d="M177.738 202.498V208.713C177.738 211.425 179.421 213.942 182.019 214.739C186.316 216.06 190.26 212.879 190.26 208.791V202.498" stroke="black" stroke-width="4" stroke-linecap="round" stroke-linejoin="round"/>
<path d="M170.664 195.885C163.041 194.017 157.391 187.146 157.391 178.954V176.585C157.391 160.983 170.178 148.397 185.776 149.421C199.644 150.336 210.608 161.858 210.608 175.944V178.954C210.608 186.943 205.224 193.673 197.891 195.737" stroke="black" stroke-width="4" stroke-linecap="round" stroke-linejoin="round"/>
<path d="M148.688 222.971C151.881 214.653 159.949 208.752 169.395 208.752H176.165" stroke="black" stroke-width="4" stroke-linecap="round" stroke-linejoin="round"/>
<path d="M192.609 208.752H199.395C211.642 208.752 221.566 218.664 221.566 230.897V248.618" stroke="black" stroke-width="4" stroke-linecap="round" stroke-linejoin="round"/>
<path d="M262.262 206.407V247.055" stroke="black" stroke-width="4" stroke-linecap="round" stroke-linejoin="round"/>
<path d="M104.174 196.245V218.132" stroke="black" stroke-width="4" stroke-linecap="round" stroke-linejoin="round"/>
<path d="M240.62 183.011C233.42 182.211 232.62 176.677 233.12 174.011L247.62 171.011C250.02 180.611 243.953 183.011 240.62 183.011Z" fill="white"/>
<path d="M25.5641 201.759C18.2215 201.493 11.0563 198.017 6.30311 192.422C1.54993 186.826 -0.720244 179.191 0.202014 171.901C0.867103 166.687 3.04861 161.81 4.59162 156.791C7.50915 147.284 8.43141 136.563 15.1266 129.211C19.2325 124.698 25.2892 122.02 31.3903 122.011C37.4914 122.002 43.5482 124.68 47.6628 129.185C51.9992 133.938 54.0477 140.367 54.9434 146.734C55.839 153.102 55.6971 159.575 56.3001 165.978C56.7967 171.298 57.8077 176.601 57.5948 181.94C57.382 187.278 55.7681 192.83 51.8573 196.465C49.9241 198.257 47.5476 199.489 45.1887 200.66C42.821 201.83 40.3912 202.974 37.7752 203.32C35.1591 203.666 32.2948 203.116 30.4148 201.263C29.2531 201.689 26.8056 201.804 25.5641 201.759Z" fill="#0A8996"/>
<path opacity="0.7" d="M25.5641 201.759C18.2215 201.493 11.0563 198.017 6.30311 192.422C1.54993 186.826 -0.720244 179.191 0.202014 171.901C0.867103 166.687 3.04861 161.81 4.59162 156.791C7.50915 147.284 8.43141 136.563 15.1266 129.211C19.2325 124.698 25.2892 122.02 31.3903 122.011C37.4914 122.002 43.5482 124.68 47.6628 129.185C51.9992 133.938 54.0477 140.367 54.9434 146.734C55.839 153.102 55.6971 159.575 56.3001 165.978C56.7967 171.298 57.8077 176.601 57.5948 181.94C57.382 187.278 55.7681 192.83 51.8573 196.465C49.9241 198.257 47.5476 199.489 45.1887 200.66C42.821 201.83 40.3912 202.974 37.7752 203.32C35.1591 203.666 32.2948 203.116 30.4148 201.263C29.2531 201.689 26.8056 201.804 25.5641 201.759Z" fill="white"/>
<path d="M37.8025 221.163V219.841L35.5944 217.961C35.5944 217.961 32.9429 190.906 32.4995 183.111C32.0562 175.316 31.5063 162.945 34.3795 153.998C34.3795 153.998 30.6196 162.387 28.9701 173.046C28.9701 173.046 25.5471 160.728 19.4727 152.889C19.4727 152.889 26.8773 171.813 25.8841 189.416C24.8909 207.018 22.1241 219.176 22.1241 219.176L20.794 220.063L20.6875 221.172H37.8114L37.8025 221.163Z" fill="#0A8996"/>
<path d="M31.0454 177.745C31.0454 177.745 32.9609 169.214 38.1397 164.984C38.1397 164.984 33.8033 170.953 32.3845 181.089C30.9656 191.224 29.4492 184.769 29.4492 184.769L31.0454 177.754V177.745Z" fill="#0A8996"/>
<path d="M33.3071 200.82C33.3071 200.82 34.0076 197.734 37.1734 195.8C37.1734 195.8 35.1959 197.725 34.2471 203.879C33.3071 210.033 31.0191 206.61 31.0191 206.61L30.8418 203.223L33.3071 200.82Z" fill="#0A8996"/>
<path opacity="0.2" d="M34.2563 203.879C35.1963 197.725 37.1827 195.8 37.1827 195.8C35.3825 196.9 34.3804 198.372 33.8484 199.436C33.2542 192.883 32.6867 186.338 32.5093 183.11C32.4738 182.472 32.4384 181.78 32.4029 181.08C33.8218 170.944 38.1582 164.976 38.1582 164.976C35.1431 167.432 33.2365 171.343 32.1635 174.189C32.0748 167.521 32.4561 159.992 34.3893 153.988C34.3893 153.988 30.6293 162.377 28.9799 173.037C28.9799 173.037 25.5569 160.719 19.4824 152.88C19.4824 152.88 26.8871 171.804 25.8939 189.407C24.9007 207.009 22.1339 219.167 22.1339 219.167L20.8038 220.054L20.6973 221.162H37.8212V219.841L35.6131 217.961C35.6131 217.961 34.9746 211.443 34.274 203.879H34.2563Z" fill="black"/>
</svg>
