<svg width="187" height="187" viewBox="0 0 187 187" fill="none" xmlns="http://www.w3.org/2000/svg">
<path d="M94.6267 10.6404L106.719 2.33182C107.536 1.76147 108.662 1.94645 109.264 2.7326L118.178 14.3707C118.657 14.9873 119.443 15.2494 120.199 15.0182L134.265 10.8408C135.222 10.5633 136.224 11.072 136.563 12.0123L141.453 25.8393C141.715 26.5638 142.393 27.0571 143.165 27.0879L157.832 27.4578C158.82 27.4887 159.622 28.2748 159.652 29.2768L160.023 43.9362C160.038 44.707 160.532 45.3852 161.272 45.6473L175.107 50.5337C176.048 50.8574 176.557 51.8748 176.279 52.8305L172.099 66.8888C171.883 67.6287 172.146 68.4302 172.747 68.9081L184.392 77.8178C185.178 78.419 185.364 79.5443 184.793 80.3613L176.48 92.4464C176.048 93.0784 176.048 93.9262 176.48 94.5582L184.793 106.643C185.364 107.46 185.178 108.586 184.392 109.187L172.747 118.097C172.13 118.574 171.868 119.361 172.099 120.116L176.279 134.174C176.557 135.13 176.048 136.132 175.107 136.471L161.272 141.357C160.547 141.619 160.053 142.298 160.023 143.068L159.652 157.728C159.622 158.714 158.835 159.516 157.832 159.547L143.165 159.917C142.393 159.932 141.715 160.425 141.453 161.165L136.563 174.992C136.239 175.933 135.222 176.441 134.265 176.164L120.199 171.987C119.459 171.771 118.657 172.033 118.178 172.634L109.264 184.272C108.662 185.058 107.536 185.243 106.719 184.673L94.6267 176.364C93.9943 175.933 93.146 175.933 92.5137 176.364L80.4216 184.673C79.6041 185.243 78.4782 185.058 77.8767 184.272L68.9464 172.634C68.4683 172.017 67.6817 171.755 66.926 171.987L52.8596 176.164C51.9034 176.441 50.9008 175.933 50.5615 174.992L45.6723 161.165C45.4101 160.441 44.7314 159.948 43.9602 159.917L29.2924 159.547C28.3053 159.516 27.5033 158.714 27.4724 157.728L27.1023 143.068C27.0869 142.298 26.5933 141.619 25.853 141.357L12.018 136.471C11.0772 136.147 10.5682 135.13 10.8458 134.174L15.0256 120.116C15.2415 119.376 14.9793 118.574 14.3778 118.097L2.733 109.187C1.9464 108.586 1.76135 107.46 2.33202 106.643L10.6453 94.5582C11.0772 93.9262 11.0772 93.0784 10.6453 92.4464L2.33202 80.3613C1.76135 79.5443 1.9464 78.419 2.733 77.8178L14.3778 68.9081C14.9948 68.4302 15.2569 67.6441 15.0256 66.8888L10.8458 52.8305C10.5682 51.8748 11.0772 50.8728 12.018 50.5337L25.853 45.6473C26.5779 45.3852 27.0714 44.707 27.1023 43.9362L27.4724 29.2768C27.5033 28.2903 28.2899 27.4887 29.2924 27.4578L43.9602 27.0879C44.7314 27.0725 45.4101 26.5792 45.6723 25.8393L50.5615 12.0123C50.8854 11.072 51.9034 10.5633 52.8596 10.8408L66.926 15.0182C67.6663 15.234 68.4683 14.9719 68.9464 14.3707L77.8767 2.7326C78.4782 1.94645 79.6041 1.76147 80.4216 2.33182L92.5137 10.6404C93.146 11.072 93.9943 11.072 94.6267 10.6404Z" stroke="#0A8996" stroke-width="3" stroke-linecap="round" stroke-linejoin="round"/>
</svg>
