<svg width="350" height="234" viewBox="0 0 350 234" fill="none" xmlns="http://www.w3.org/2000/svg">
<rect width="350" height="234" rx="28" fill="#0A8996"/>
<path d="M75.5281 191.083C75.4627 190.425 75.1823 189.913 74.6868 189.548C74.1913 189.183 73.5188 189.001 72.6694 189.001C72.0922 189.001 71.6049 189.082 71.2074 189.246C70.8099 189.404 70.505 189.624 70.2926 189.907C70.0857 190.19 69.9822 190.512 69.9822 190.871C69.9714 191.171 70.034 191.432 70.1701 191.655C70.3117 191.878 70.505 192.072 70.75 192.235C70.995 192.393 71.2782 192.532 71.5994 192.652C71.9207 192.766 72.2637 192.864 72.6286 192.946L74.1314 193.305C74.861 193.468 75.5308 193.686 76.1406 193.958C76.7505 194.231 77.2786 194.566 77.7251 194.963C78.1716 195.361 78.5174 195.829 78.7624 196.368C79.0129 196.907 79.1409 197.525 79.1463 198.222C79.1409 199.246 78.8795 200.133 78.3622 200.885C77.8504 201.631 77.1098 202.21 76.1406 202.624C75.1768 203.033 74.0143 203.237 72.6531 203.237C71.3027 203.237 70.1265 203.03 69.1246 202.616C68.1282 202.202 67.3496 201.59 66.7887 200.778C66.2333 199.962 65.942 198.952 65.9148 197.748H69.337C69.3751 198.309 69.5357 198.777 69.8189 199.153C70.1075 199.523 70.4914 199.804 70.9705 199.994C71.4551 200.179 72.0024 200.272 72.6122 200.272C73.2112 200.272 73.7312 200.185 74.1722 200.011C74.6187 199.836 74.9645 199.594 75.2095 199.284C75.4545 198.973 75.5771 198.617 75.5771 198.214C75.5771 197.838 75.4654 197.522 75.2422 197.266C75.0244 197.01 74.7031 196.793 74.2784 196.613C73.8591 196.433 73.3446 196.27 72.7347 196.123L70.9134 195.665C69.5031 195.322 68.3896 194.786 67.5728 194.056C66.756 193.327 66.3504 192.344 66.3558 191.108C66.3504 190.095 66.6199 189.21 67.1644 188.453C67.7144 187.697 68.4685 187.106 69.4268 186.681C70.3852 186.256 71.4742 186.044 72.6939 186.044C73.9354 186.044 75.0189 186.256 75.9446 186.681C76.8757 187.106 77.5999 187.697 78.1172 188.453C78.6345 189.21 78.9013 190.087 78.9176 191.083H75.5281ZM88.1327 190.455V193.068H80.5777V190.455H88.1327ZM82.2929 187.449H85.7723V199.145C85.7723 199.466 85.8213 199.717 85.9193 199.896C86.0173 200.071 86.1534 200.193 86.3277 200.264C86.5074 200.335 86.7143 200.37 86.9484 200.37C87.1118 200.37 87.2751 200.356 87.4385 200.329C87.6018 200.297 87.7271 200.272 87.8142 200.256L88.3614 202.845C88.1872 202.899 87.9421 202.962 87.6263 203.033C87.3105 203.109 86.9266 203.155 86.4747 203.172C85.6362 203.204 84.9011 203.093 84.2694 202.837C83.6433 202.581 83.1559 202.183 82.8074 201.644C82.459 201.105 82.2874 200.424 82.2929 199.602V187.449ZM98.4443 197.658V190.455H101.924V203H98.5832V200.721H98.4525C98.1694 201.456 97.6984 202.047 97.0395 202.494C96.3861 202.94 95.5884 203.163 94.6464 203.163C93.8079 203.163 93.07 202.973 92.433 202.592C91.7959 202.21 91.2977 201.669 90.9383 200.966C90.5844 200.264 90.4047 199.423 90.3992 198.442V190.455H93.8786V197.822C93.8841 198.562 94.0828 199.148 94.4749 199.578C94.8669 200.008 95.3924 200.223 96.0512 200.223C96.4705 200.223 96.8625 200.128 97.2274 199.937C97.5922 199.741 97.8862 199.453 98.1095 199.071C98.3382 198.69 98.4498 198.219 98.4443 197.658ZM109.33 203.204C108.377 203.204 107.514 202.959 106.741 202.469C105.973 201.974 105.363 201.247 104.911 200.288C104.465 199.325 104.241 198.143 104.241 196.744C104.241 195.306 104.473 194.111 104.936 193.158C105.398 192.2 106.014 191.484 106.781 191.01C107.555 190.531 108.401 190.291 109.322 190.291C110.024 190.291 110.609 190.411 111.078 190.651C111.551 190.885 111.932 191.179 112.221 191.533C112.515 191.881 112.738 192.224 112.891 192.562H112.997V186.273H116.468V203H113.038V200.991H112.891C112.727 201.339 112.496 201.685 112.197 202.028C111.903 202.366 111.519 202.646 111.045 202.869C110.577 203.093 110.005 203.204 109.33 203.204ZM110.432 200.435C110.993 200.435 111.467 200.283 111.854 199.978C112.246 199.668 112.545 199.235 112.752 198.679C112.964 198.124 113.07 197.473 113.07 196.727C113.07 195.981 112.967 195.333 112.76 194.783C112.553 194.233 112.254 193.809 111.862 193.509C111.47 193.21 110.993 193.06 110.432 193.06C109.861 193.06 109.379 193.215 108.987 193.526C108.595 193.836 108.298 194.266 108.096 194.816C107.895 195.366 107.794 196.003 107.794 196.727C107.794 197.457 107.895 198.102 108.096 198.663C108.303 199.218 108.6 199.654 108.987 199.97C109.379 200.28 109.861 200.435 110.432 200.435ZM125.046 203.245C123.756 203.245 122.645 202.984 121.714 202.461C120.788 201.933 120.075 201.187 119.574 200.223C119.073 199.254 118.823 198.108 118.823 196.784C118.823 195.494 119.073 194.361 119.574 193.387C120.075 192.412 120.78 191.652 121.689 191.108C122.604 190.563 123.677 190.291 124.907 190.291C125.735 190.291 126.506 190.425 127.219 190.691C127.938 190.953 128.564 191.348 129.097 191.876C129.636 192.404 130.056 193.068 130.355 193.869C130.655 194.664 130.804 195.595 130.804 196.662V197.618H120.211V195.461H127.529C127.529 194.96 127.42 194.517 127.203 194.13C126.985 193.743 126.682 193.441 126.296 193.223C125.915 193 125.471 192.888 124.965 192.888C124.436 192.888 123.968 193.011 123.56 193.256C123.157 193.496 122.841 193.82 122.612 194.228C122.384 194.631 122.267 195.08 122.261 195.576V197.626C122.261 198.246 122.375 198.783 122.604 199.235C122.838 199.687 123.168 200.035 123.592 200.28C124.017 200.525 124.521 200.648 125.103 200.648C125.49 200.648 125.844 200.593 126.165 200.484C126.486 200.375 126.761 200.212 126.99 199.994C127.219 199.777 127.393 199.51 127.513 199.194L130.731 199.406C130.568 200.179 130.233 200.855 129.726 201.432C129.225 202.004 128.577 202.45 127.782 202.771C126.993 203.087 126.081 203.245 125.046 203.245ZM136.554 195.747V203H133.075V190.455H136.391V192.668H136.538C136.816 191.938 137.281 191.361 137.935 190.936C138.588 190.506 139.38 190.291 140.312 190.291C141.183 190.291 141.942 190.482 142.59 190.863C143.238 191.244 143.742 191.789 144.101 192.496C144.461 193.199 144.64 194.037 144.64 195.012V203H141.161V195.633C141.166 194.865 140.97 194.266 140.573 193.836C140.175 193.4 139.628 193.183 138.931 193.183C138.463 193.183 138.049 193.283 137.69 193.485C137.336 193.686 137.058 193.98 136.857 194.367C136.661 194.748 136.56 195.208 136.554 195.747ZM154.056 190.455V193.068H146.501V190.455H154.056ZM148.216 187.449H151.695V199.145C151.695 199.466 151.744 199.717 151.842 199.896C151.94 200.071 152.076 200.193 152.251 200.264C152.43 200.335 152.637 200.37 152.871 200.37C153.035 200.37 153.198 200.356 153.361 200.329C153.525 200.297 153.65 200.272 153.737 200.256L154.284 202.845C154.11 202.899 153.865 202.962 153.549 203.033C153.233 203.109 152.849 203.155 152.398 203.172C151.559 203.204 150.824 203.093 150.192 202.837C149.566 202.581 149.079 202.183 148.73 201.644C148.382 201.105 148.21 200.424 148.216 199.602V187.449ZM161.711 186.273H166.072L170.679 197.511H170.875L175.481 186.273H179.843V203H176.412V192.113H176.274L171.945 202.918H169.609L165.28 192.072H165.141V203H161.711V186.273ZM186.269 203.237C185.468 203.237 184.755 203.098 184.129 202.82C183.503 202.537 183.007 202.121 182.642 201.571C182.283 201.015 182.103 200.324 182.103 199.496C182.103 198.799 182.231 198.214 182.487 197.74C182.743 197.266 183.091 196.885 183.532 196.597C183.974 196.308 184.474 196.09 185.035 195.943C185.602 195.796 186.195 195.693 186.816 195.633C187.546 195.557 188.134 195.486 188.58 195.42C189.027 195.35 189.351 195.246 189.552 195.11C189.753 194.974 189.854 194.772 189.854 194.506V194.457C189.854 193.939 189.691 193.539 189.364 193.256C189.043 192.973 188.586 192.831 187.992 192.831C187.366 192.831 186.868 192.97 186.497 193.248C186.127 193.52 185.882 193.863 185.762 194.277L182.544 194.016C182.708 193.253 183.029 192.594 183.508 192.039C183.987 191.478 184.605 191.048 185.362 190.749C186.124 190.444 187.006 190.291 188.008 190.291C188.705 190.291 189.372 190.373 190.009 190.536C190.652 190.7 191.221 190.953 191.716 191.296C192.217 191.639 192.612 192.08 192.901 192.619C193.189 193.153 193.334 193.792 193.334 194.538V203H190.034V201.26H189.936C189.734 201.652 189.465 201.998 189.127 202.298C188.79 202.592 188.384 202.823 187.91 202.992C187.437 203.155 186.889 203.237 186.269 203.237ZM187.265 200.836C187.777 200.836 188.229 200.735 188.621 200.533C189.013 200.326 189.321 200.049 189.544 199.7C189.767 199.352 189.879 198.957 189.879 198.516V197.185C189.77 197.255 189.62 197.321 189.43 197.381C189.244 197.435 189.035 197.487 188.801 197.536C188.566 197.579 188.332 197.62 188.098 197.658C187.864 197.691 187.652 197.721 187.461 197.748C187.053 197.808 186.696 197.903 186.391 198.034C186.086 198.165 185.849 198.342 185.681 198.565C185.512 198.783 185.427 199.055 185.427 199.382C185.427 199.855 185.599 200.218 185.942 200.468C186.29 200.713 186.731 200.836 187.265 200.836ZM199.512 195.747V203H196.033V190.455H199.349V192.668H199.496C199.774 191.938 200.239 191.361 200.893 190.936C201.546 190.506 202.338 190.291 203.27 190.291C204.141 190.291 204.9 190.482 205.548 190.863C206.196 191.244 206.7 191.789 207.059 192.496C207.419 193.199 207.598 194.037 207.598 195.012V203H204.119V195.633C204.124 194.865 203.928 194.266 203.531 193.836C203.133 193.4 202.586 193.183 201.889 193.183C201.421 193.183 201.007 193.283 200.648 193.485C200.294 193.686 200.016 193.98 199.815 194.367C199.619 194.748 199.518 195.208 199.512 195.747ZM213.918 203.237C213.118 203.237 212.404 203.098 211.778 202.82C211.152 202.537 210.656 202.121 210.292 201.571C209.932 201.015 209.753 200.324 209.753 199.496C209.753 198.799 209.881 198.214 210.136 197.74C210.392 197.266 210.741 196.885 211.182 196.597C211.623 196.308 212.124 196.09 212.685 195.943C213.251 195.796 213.845 195.693 214.465 195.633C215.195 195.557 215.783 195.486 216.229 195.42C216.676 195.35 217 195.246 217.201 195.11C217.403 194.974 217.504 194.772 217.504 194.506V194.457C217.504 193.939 217.34 193.539 217.014 193.256C216.692 192.973 216.235 192.831 215.641 192.831C215.015 192.831 214.517 192.97 214.147 193.248C213.776 193.52 213.531 193.863 213.412 194.277L210.194 194.016C210.357 193.253 210.678 192.594 211.157 192.039C211.637 191.478 212.255 191.048 213.011 190.749C213.774 190.444 214.656 190.291 215.658 190.291C216.355 190.291 217.022 190.373 217.659 190.536C218.301 190.7 218.87 190.953 219.366 191.296C219.867 191.639 220.262 192.08 220.55 192.619C220.839 193.153 220.983 193.792 220.983 194.538V203H217.683V201.26H217.585C217.384 201.652 217.114 201.998 216.777 202.298C216.439 202.592 216.033 202.823 215.56 202.992C215.086 203.155 214.539 203.237 213.918 203.237ZM214.915 200.836C215.426 200.836 215.878 200.735 216.27 200.533C216.662 200.326 216.97 200.049 217.193 199.7C217.417 199.352 217.528 198.957 217.528 198.516V197.185C217.419 197.255 217.27 197.321 217.079 197.381C216.894 197.435 216.684 197.487 216.45 197.536C216.216 197.579 215.982 197.62 215.748 197.658C215.513 197.691 215.301 197.721 215.111 197.748C214.702 197.808 214.345 197.903 214.041 198.034C213.736 198.165 213.499 198.342 213.33 198.565C213.161 198.783 213.077 199.055 213.077 199.382C213.077 199.855 213.248 200.218 213.591 200.468C213.94 200.713 214.381 200.836 214.915 200.836ZM229.334 207.966C228.207 207.966 227.241 207.811 226.435 207.5C225.634 207.195 224.997 206.779 224.524 206.251C224.05 205.723 223.742 205.129 223.601 204.47L226.819 204.037C226.917 204.288 227.072 204.522 227.284 204.74C227.497 204.958 227.777 205.132 228.126 205.262C228.48 205.399 228.91 205.467 229.416 205.467C230.173 205.467 230.796 205.281 231.286 204.911C231.782 204.546 232.03 203.934 232.03 203.074V200.778H231.883C231.73 201.127 231.502 201.456 231.197 201.767C230.892 202.077 230.5 202.33 230.021 202.526C229.541 202.722 228.97 202.82 228.305 202.82C227.363 202.82 226.506 202.603 225.733 202.167C224.965 201.726 224.352 201.053 223.895 200.15C223.443 199.24 223.217 198.091 223.217 196.703C223.217 195.282 223.448 194.095 223.911 193.142C224.374 192.189 224.989 191.475 225.757 191.002C226.53 190.528 227.377 190.291 228.297 190.291C229 190.291 229.588 190.411 230.061 190.651C230.535 190.885 230.916 191.179 231.205 191.533C231.499 191.881 231.725 192.224 231.883 192.562H232.013V190.455H235.468V203.123C235.468 204.19 235.207 205.083 234.684 205.801C234.161 206.52 233.437 207.059 232.512 207.419C231.591 207.783 230.532 207.966 229.334 207.966ZM229.408 200.207C229.969 200.207 230.443 200.068 230.829 199.79C231.221 199.507 231.521 199.104 231.728 198.581C231.94 198.053 232.046 197.422 232.046 196.686C232.046 195.951 231.943 195.314 231.736 194.775C231.529 194.231 231.229 193.809 230.837 193.509C230.445 193.21 229.969 193.06 229.408 193.06C228.836 193.06 228.354 193.215 227.962 193.526C227.57 193.83 227.273 194.255 227.072 194.8C226.871 195.344 226.77 195.973 226.77 196.686C226.77 197.411 226.871 198.037 227.072 198.565C227.279 199.088 227.576 199.493 227.962 199.782C228.354 200.065 228.836 200.207 229.408 200.207ZM243.954 203.245C242.664 203.245 241.553 202.984 240.622 202.461C239.696 201.933 238.983 201.187 238.482 200.223C237.981 199.254 237.731 198.108 237.731 196.784C237.731 195.494 237.981 194.361 238.482 193.387C238.983 192.412 239.688 191.652 240.598 191.108C241.512 190.563 242.585 190.291 243.816 190.291C244.643 190.291 245.414 190.425 246.127 190.691C246.846 190.953 247.472 191.348 248.006 191.876C248.545 192.404 248.964 193.068 249.263 193.869C249.563 194.664 249.713 195.595 249.713 196.662V197.618H239.119V195.461H246.437C246.437 194.96 246.329 194.517 246.111 194.13C245.893 193.743 245.591 193.441 245.204 193.223C244.823 193 244.379 192.888 243.873 192.888C243.345 192.888 242.876 193.011 242.468 193.256C242.065 193.496 241.749 193.82 241.521 194.228C241.292 194.631 241.175 195.08 241.169 195.576V197.626C241.169 198.246 241.284 198.783 241.512 199.235C241.746 199.687 242.076 200.035 242.501 200.28C242.925 200.525 243.429 200.648 244.012 200.648C244.398 200.648 244.752 200.593 245.073 200.484C245.395 200.375 245.67 200.212 245.898 199.994C246.127 199.777 246.301 199.51 246.421 199.194L249.639 199.406C249.476 200.179 249.141 200.855 248.634 201.432C248.134 202.004 247.486 202.45 246.691 202.771C245.901 203.087 244.989 203.245 243.954 203.245ZM251.983 203V190.455H255.299V192.668H255.446C255.708 191.933 256.143 191.353 256.753 190.928C257.363 190.504 258.093 190.291 258.942 190.291C259.802 190.291 260.535 190.506 261.139 190.936C261.744 191.361 262.146 191.938 262.348 192.668H262.479C262.735 191.949 263.197 191.375 263.867 190.945C264.542 190.509 265.34 190.291 266.26 190.291C267.431 190.291 268.381 190.664 269.111 191.41C269.846 192.151 270.213 193.202 270.213 194.563V203H266.742V195.249C266.742 194.552 266.557 194.029 266.187 193.681C265.816 193.332 265.354 193.158 264.798 193.158C264.167 193.158 263.674 193.359 263.32 193.762C262.966 194.16 262.789 194.685 262.789 195.339V203H259.416V195.175C259.416 194.56 259.239 194.07 258.885 193.705C258.536 193.34 258.076 193.158 257.505 193.158C257.118 193.158 256.769 193.256 256.459 193.452C256.154 193.643 255.912 193.912 255.732 194.261C255.552 194.604 255.463 195.007 255.463 195.469V203H251.983ZM278.679 203.245C277.389 203.245 276.278 202.984 275.347 202.461C274.421 201.933 273.708 201.187 273.207 200.223C272.706 199.254 272.455 198.108 272.455 196.784C272.455 195.494 272.706 194.361 273.207 193.387C273.708 192.412 274.413 191.652 275.322 191.108C276.237 190.563 277.31 190.291 278.54 190.291C279.368 190.291 280.138 190.425 280.852 190.691C281.57 190.953 282.197 191.348 282.73 191.876C283.269 192.404 283.689 193.068 283.988 193.869C284.287 194.664 284.437 195.595 284.437 196.662V197.618H273.844V195.461H281.162C281.162 194.96 281.053 194.517 280.835 194.13C280.618 193.743 280.315 193.441 279.929 193.223C279.548 193 279.104 192.888 278.597 192.888C278.069 192.888 277.601 193.011 277.193 193.256C276.79 193.496 276.474 193.82 276.245 194.228C276.016 194.631 275.899 195.08 275.894 195.576V197.626C275.894 198.246 276.008 198.783 276.237 199.235C276.471 199.687 276.801 200.035 277.225 200.28C277.65 200.525 278.154 200.648 278.736 200.648C279.123 200.648 279.477 200.593 279.798 200.484C280.119 200.375 280.394 200.212 280.623 199.994C280.852 199.777 281.026 199.51 281.146 199.194L284.364 199.406C284.2 200.179 283.866 200.855 283.359 201.432C282.858 202.004 282.21 202.45 281.415 202.771C280.626 203.087 279.714 203.245 278.679 203.245ZM290.187 195.747V203H286.708V190.455H290.024V192.668H290.171C290.449 191.938 290.914 191.361 291.568 190.936C292.221 190.506 293.013 190.291 293.944 190.291C294.816 190.291 295.575 190.482 296.223 190.863C296.871 191.244 297.375 191.789 297.734 192.496C298.093 193.199 298.273 194.037 298.273 195.012V203H294.794V195.633C294.799 194.865 294.603 194.266 294.206 193.836C293.808 193.4 293.261 193.183 292.564 193.183C292.096 193.183 291.682 193.283 291.323 193.485C290.969 193.686 290.691 193.98 290.489 194.367C290.293 194.748 290.193 195.208 290.187 195.747ZM307.688 190.455V193.068H300.133V190.455H307.688ZM301.849 187.449H305.328V199.145C305.328 199.466 305.377 199.717 305.475 199.896C305.573 200.071 305.709 200.193 305.883 200.264C306.063 200.335 306.27 200.37 306.504 200.37C306.667 200.37 306.831 200.356 306.994 200.329C307.157 200.297 307.283 200.272 307.37 200.256L307.917 202.845C307.743 202.899 307.498 202.962 307.182 203.033C306.866 203.109 306.482 203.155 306.03 203.172C305.192 203.204 304.457 203.093 303.825 202.837C303.199 202.581 302.712 202.183 302.363 201.644C302.015 201.105 301.843 200.424 301.849 199.602V187.449Z" fill="white"/>
<circle cx="175.5" cy="93.5" r="70.5" fill="white"/>
<mask id="mask0_127_3" style="mask-type:luminance" maskUnits="userSpaceOnUse" x="130" y="40" width="90" height="90">
<path d="M130 40.0001H220V130H130V40.0001Z" fill="white"/>
</mask>
<g mask="url(#mask0_127_3)">
<path d="M154.711 72.5903V63.4405H152.972C152.548 63.4405 152.142 63.3663 151.763 63.2359C150.005 64.0262 148.655 66.0298 148.655 68.0402C148.655 70.9156 151.496 73.2744 154.719 72.9206C154.716 72.8103 154.711 72.7007 154.711 72.5903Z" fill="#FFB1A0"/>
<path d="M182.304 62.9545C181.903 63.2577 181.406 63.4403 180.867 63.4403C180.544 63.4403 180.053 63.4057 179.749 63.341V72.5899C179.749 72.7013 179.743 72.8114 179.74 72.9221C182.96 73.2645 185.805 70.9061 185.805 68.0231C185.805 65.8373 184.381 63.6117 182.304 62.9545Z" fill="#FFB1A0"/>
<path d="M154.711 72.0877C153.283 71.1954 152.33 69.705 152.33 68.0398C152.33 66.3175 153.322 64.6028 154.711 63.6491V63.4403H152.972C152.548 63.4403 152.142 63.366 151.763 63.2357C150.005 64.0258 148.655 66.0294 148.655 68.0398C148.655 70.9154 151.496 73.274 154.719 72.9202C154.716 72.8102 154.711 72.7003 154.711 72.5899V72.0877Z" fill="#FFA68E"/>
<path d="M183.423 63.4971C183.077 63.2663 182.703 63.0809 182.304 62.9547C181.903 63.2579 181.406 63.4404 180.867 63.4404C180.544 63.4404 180.053 63.4057 179.749 63.3412V72.5901C179.749 72.7016 179.743 72.8116 179.74 72.9222C181.096 73.0665 182.385 72.7304 183.423 72.0791V63.4971Z" fill="#FFA68E"/>
<path d="M163.453 125.863V123.92C163.453 123.58 163.726 123.304 164.063 123.304L169.128 123.128C167.605 122.675 166.509 121.249 166.509 119.626V94.3589L159.994 87.9373C159.902 88.0679 159.788 88.1725 159.666 88.2554L141.673 95.2826C138.739 96.4901 134.811 100.289 134.811 105.927V112.638H145.266V128.721H166.283C164.727 128.721 163.453 127.435 163.453 125.863Z" fill="#FF656F"/>
<path d="M141.017 103.827C141.017 99.0723 143.936 95.444 145.633 93.736L141.673 95.2827C138.739 96.4899 134.81 100.289 134.81 105.926V112.638H141.017V103.827Z" fill="#FF4756"/>
<path d="M175.233 88.5921C174.746 88.4042 174.247 87.7605 174.246 87.2363L174.243 82.5386C169.782 85.4572 164.139 85.0628 160.206 82.5199V87.2287C160.206 87.5304 160.121 87.7589 159.995 87.9373L166.509 94.3591V92.1163C166.509 90.1017 168.148 88.6385 170.162 88.6385H175.353C175.3 88.6179 175.258 88.6019 175.233 88.5921Z" fill="#FFB1A0"/>
<path d="M160.206 82.5197V87.2286C160.206 87.5304 160.121 87.7589 159.995 87.9373L166.509 94.3591V92.1162V84.5553C164.232 84.4187 162.034 83.7019 160.206 82.5197Z" fill="#FFA68E"/>
<path d="M164.455 99.2282L166.333 97.5268V93.9157L160.065 87.8237C159.964 88.01 159.821 88.1498 159.666 88.2554L153.426 90.6924L161.961 99.2282C162.647 99.9141 163.77 99.9141 164.455 99.2282Z" fill="#FF7F87"/>
<path d="M145.905 118.673H134.81V112.33H145.905V118.673Z" fill="#FF7F87"/>
<path d="M141.017 112.33H134.81V118.673H141.017V112.33Z" fill="#FF656F"/>
<path d="M145.905 118.248H134.811V126.435C134.811 127.698 135.835 128.722 137.098 128.722H145.905V118.248Z" fill="#FFB1A0"/>
<path d="M141.017 118.248H134.81V126.435C134.81 127.698 135.834 128.722 137.097 128.722H141.017V118.248Z" fill="#FFA68E"/>
<path d="M176.303 58.5253C176.303 58.2806 175.976 58.1964 175.861 58.4121C174.373 61.1949 171.441 63.0888 168.065 63.0888H161.634V72.7527C161.634 78.0525 164.946 82.9814 170.279 84.7677C175.8 83.4674 179.924 78.5027 179.924 72.5901V62.9895C177.863 62.552 176.303 60.7121 176.303 58.5253Z" fill="#FFCEBE"/>
<path d="M161.79 72.5902V63.0889H154.536V72.5902C154.536 79.1301 159.66 85.1033 167.411 85.1033C168.629 85.1033 169.806 84.9249 170.92 84.5987C165.308 83.0319 161.79 78.0072 161.79 72.5902Z" fill="#FFB1A0"/>
<path d="M179.111 47.1444C177.916 47.2363 176.819 46.4845 176.588 45.3077C176.201 43.3257 175.22 41.3589 171.387 41.3589H158.088C153.207 41.3589 149.251 45.3156 149.251 50.1963V59.895C149.251 61.9501 150.917 63.6161 152.972 63.6161H168.065C171.441 63.6161 174.373 61.7221 175.861 58.9395C175.976 58.7238 176.304 58.808 176.304 59.0527C176.304 61.5625 178.357 63.6161 180.867 63.6161C182.183 63.6161 183.259 62.5397 183.259 61.2239V51.103C183.259 48.7185 181.179 46.9855 179.111 47.1444Z" fill="#FFE181"/>
<path d="M157.48 60.1455V50.1186C157.48 45.9749 160.24 42.4776 164.021 41.3589H158.088C153.207 41.3589 149.251 45.3154 149.251 50.1961V59.895C149.251 61.9501 150.917 63.616 152.972 63.616H159.666C158.373 62.996 157.48 61.6752 157.48 60.1455Z" fill="#FEC458"/>
<path d="M208.487 88.4626H169.811C167.796 88.4626 166.157 90.1016 166.157 92.1162V119.626C166.157 121.249 167.253 122.851 168.777 123.304H209.521C211.045 122.851 212.141 121.249 212.141 119.626V92.1162C212.141 90.1016 210.502 88.4626 208.487 88.4626Z" fill="#DFEBFA"/>
<path d="M174.915 119.626V92.1161C174.915 90.1016 176.554 88.4626 178.568 88.4626H169.811C167.796 88.4626 166.157 90.1016 166.157 92.1161V119.626C166.157 121.249 167.253 122.851 168.777 123.304H177.534C176.011 122.851 174.915 121.249 174.915 119.626Z" fill="#B1DBFC"/>
<path d="M189.322 107.943C188.708 108.251 187.985 108.251 187.371 107.943L178.787 103.642V112.21C178.787 112.934 179.174 113.612 179.811 113.955C182.352 115.325 185.258 116.105 188.347 116.105C191.436 116.105 194.342 115.325 196.883 113.955C197.52 113.612 197.906 112.934 197.906 112.21V103.642L189.322 107.943Z" fill="#6E60B8"/>
<path d="M183.09 114.275V105.798L178.787 103.642V112.21C178.787 112.934 179.173 113.611 179.811 113.955C180.957 114.573 182.179 115.07 183.458 115.431C183.224 115.098 183.09 114.696 183.09 114.275Z" fill="#6353B2"/>
<path d="M214.586 123.128H163.711C163.374 123.128 163.101 123.404 163.101 123.744V125.863C163.101 127.435 164.375 128.721 165.931 128.721H212.366C213.923 128.721 215.196 127.435 215.196 125.863V123.744C215.196 123.404 214.923 123.128 214.586 123.128Z" fill="#B1DBFC"/>
<path d="M171.858 125.863V123.744C171.858 123.404 172.132 123.128 172.468 123.128H163.711C163.374 123.128 163.101 123.404 163.101 123.744V125.863C163.101 127.435 164.375 128.721 165.932 128.721H174.689C173.132 128.721 171.858 127.435 171.858 125.863Z" fill="#8BCAFF"/>
<path d="M201.678 100.558L189.322 94.3674C188.708 94.0599 187.985 94.0599 187.371 94.3674L178.155 98.9853C178.237 99.2332 178.409 99.4557 178.678 99.5907L192.182 106.357C192.46 106.496 192.758 106.575 193.061 106.598L201.678 102.28C202.387 101.925 202.387 100.913 201.678 100.558Z" fill="#9790CC"/>
<path d="M192.068 106.256L178.749 99.5823C178.471 99.4432 178.296 99.2105 178.22 98.9528L175.016 100.558C174.307 100.913 174.307 101.925 175.016 102.28L187.371 108.471C187.985 108.778 188.708 108.778 189.322 108.471L193.264 106.496C192.856 106.521 192.443 106.444 192.068 106.256Z" fill="#8479C2"/>
<path d="M204.826 115.068L204.263 112.919C204.022 112.001 203.176 111.403 202.227 111.411H202.209H202.191C201.242 111.403 200.396 112.001 200.156 112.919L199.592 115.068C199.36 115.953 200.028 116.817 200.942 116.817H203.476C204.391 116.817 205.058 115.953 204.826 115.068Z" fill="#FFE181"/>
<path d="M202.256 115.068L202.819 112.919C202.936 112.473 203.196 112.104 203.541 111.842C203.176 111.564 202.716 111.407 202.227 111.411H202.209H202.192C201.242 111.402 200.396 112.001 200.156 112.919L199.592 115.068C199.361 115.953 200.028 116.817 200.942 116.817H203.477C203.499 116.817 203.519 116.815 203.541 116.814C202.661 116.774 202.03 115.932 202.256 115.068Z" fill="#FEC458"/>
<path d="M154.532 72.5499V63.5759H152.968C152.544 63.5759 152.139 63.5017 151.759 63.3713C150.002 64.1616 148.652 65.9892 148.652 67.9998C148.652 70.8752 151.316 73.234 154.54 72.8802C154.537 72.7699 154.532 72.6603 154.532 72.5499Z" stroke="black" stroke-width="3" stroke-miterlimit="10" stroke-linecap="round" stroke-linejoin="round"/>
<path d="M182.3 63.09C181.899 63.3934 181.402 63.5759 180.863 63.5759C180.54 63.5759 180.225 63.5412 179.921 63.4767V72.5498C179.921 72.6611 179.915 72.7712 179.912 72.8819C183.132 73.2243 185.801 70.866 185.801 67.9829C185.801 65.7972 184.377 63.7473 182.3 63.09Z" stroke="black" stroke-width="3" stroke-miterlimit="10" stroke-linecap="round" stroke-linejoin="round"/>
<path d="M176.3 59.0125C176.3 58.7678 175.972 58.6836 175.857 58.8993C174.369 61.6819 171.437 63.576 168.061 63.576H154.532V72.5499C154.532 79.0897 159.656 85.0629 167.407 85.0629C174.307 85.0629 179.92 79.4495 179.92 72.5499V63.4767C177.859 63.0391 176.3 61.1992 176.3 59.0125Z" stroke="black" stroke-width="3" stroke-miterlimit="10" stroke-linecap="round" stroke-linejoin="round"/>
<path d="M163.097 125.823V123.704C163.097 123.364 163.37 123.088 163.707 123.088H168.773C167.25 122.634 166.153 121.209 166.153 119.585V92.0759C166.153 90.0613 167.792 88.4223 169.807 88.4223H175.173C175.12 88.4017 175.079 88.3857 175.053 88.3759C174.567 88.188 174.244 87.72 174.242 87.1959L174.239 83.0255C169.779 85.944 164.135 85.5497 160.202 83.0067V87.1881C160.202 87.7109 159.951 88.0189 159.662 88.2152L141.669 95.2424C138.735 96.4497 134.807 100.249 134.807 105.886V126.395C134.807 127.658 135.831 128.681 137.094 128.681H165.928C164.371 128.681 163.097 127.395 163.097 125.823Z" stroke="black" stroke-width="3" stroke-miterlimit="10" stroke-linecap="round" stroke-linejoin="round"/>
<path d="M145.901 128.397V107.734" stroke="black" stroke-width="3" stroke-miterlimit="10" stroke-linecap="round" stroke-linejoin="round"/>
<path d="M164.452 99.188L166.153 97.4866V93.8755L160.061 87.7835C159.961 87.97 159.817 88.1095 159.662 88.2152L153.422 90.6522L161.958 99.188C162.643 99.8739 163.766 99.8739 164.452 99.188Z" stroke="black" stroke-width="3" stroke-miterlimit="10" stroke-linecap="round" stroke-linejoin="round"/>
<path d="M145.901 118.208H134.807V112.29H145.901V118.208Z" stroke="black" stroke-width="3" stroke-miterlimit="10" stroke-linecap="round" stroke-linejoin="round"/>
<path d="M214.583 123.088H163.707C163.37 123.088 163.097 123.364 163.097 123.704V125.823C163.097 127.395 164.371 128.681 165.928 128.681H212.362C213.919 128.681 215.193 127.395 215.193 125.823V123.704C215.193 123.364 214.92 123.088 214.583 123.088Z" stroke="black" stroke-width="3" stroke-miterlimit="10" stroke-linecap="round" stroke-linejoin="round"/>
<path d="M201.674 100.518L189.318 94.3274C188.704 94.02 187.981 94.02 187.368 94.3274L175.012 100.518C174.303 100.873 174.303 101.885 175.012 102.24L187.368 108.431C187.981 108.738 188.704 108.738 189.318 108.431L201.674 102.24C202.383 101.885 202.383 100.873 201.674 100.518Z" stroke="black" stroke-width="3" stroke-miterlimit="10" stroke-linecap="round" stroke-linejoin="round"/>
<path d="M189.319 108.431C188.705 108.738 187.982 108.738 187.368 108.431L178.784 104.13V112.17C178.784 112.894 179.17 113.571 179.807 113.915C182.348 115.285 185.254 116.065 188.343 116.065C191.432 116.065 194.338 115.285 196.879 113.915C197.516 113.571 197.903 112.894 197.903 112.17V104.13L189.319 108.431Z" stroke="black" stroke-width="3" stroke-miterlimit="10" stroke-linecap="round" stroke-linejoin="round"/>
<path d="M188.343 101.379H202.205V111.056" stroke="black" stroke-width="3" stroke-miterlimit="10" stroke-linecap="round" stroke-linejoin="round"/>
<path d="M204.823 115.028L204.259 112.879C204.019 111.961 203.173 111.362 202.224 111.371C202.218 111.371 202.212 111.371 202.206 111.371C202.2 111.371 202.194 111.371 202.188 111.371C201.238 111.362 200.393 111.961 200.152 112.879L199.589 115.028C199.357 115.913 200.024 116.777 200.938 116.777H203.473C204.387 116.777 205.054 115.913 204.823 115.028Z" stroke="black" stroke-width="3" stroke-miterlimit="10" stroke-linecap="round" stroke-linejoin="round"/>
<path d="M185.267 88.4224H169.807C167.792 88.4224 166.153 90.0614 166.153 92.076V119.586C166.153 121.209 167.25 122.635 168.773 123.088H209.517C211.041 122.635 212.137 121.209 212.137 119.586V92.076C212.137 90.0614 210.498 88.4224 208.484 88.4224H191.419" stroke="black" stroke-width="3" stroke-miterlimit="10" stroke-linecap="round" stroke-linejoin="round"/>
<path d="M183.255 52.4473V51.0628C183.255 48.6784 181.175 46.9452 179.107 47.1042C177.912 47.1962 176.815 46.4444 176.585 45.2675C176.197 43.2856 175.216 41.3187 171.383 41.3187H158.084C153.204 41.3187 149.247 45.2754 149.247 50.156V59.8549C149.247 61.9099 150.913 63.5758 152.968 63.5758H168.061C171.437 63.5758 174.369 61.6819 175.857 58.8993C175.972 58.6836 176.3 58.7678 176.3 59.0124C176.3 61.5223 178.353 63.5758 180.863 63.5758C182.179 63.5758 183.255 62.4995 183.255 61.1838V58.5996" stroke="black" stroke-width="3" stroke-miterlimit="10" stroke-linecap="round" stroke-linejoin="round"/>
</g>
</svg>
