<svg width="350" height="234" viewBox="0 0 350 234" fill="none" xmlns="http://www.w3.org/2000/svg">
<rect width="350" height="234" rx="28" fill="#0A8996"/>
<path d="M30.4538 201V184.273H37.0533C38.322 184.273 39.4028 184.515 40.2958 185C41.1888 185.479 41.8694 186.146 42.3377 187.001C42.8114 187.85 43.0483 188.83 43.0483 189.941C43.0483 191.052 42.8087 192.032 42.3295 192.881C41.8504 193.731 41.1561 194.392 40.2468 194.866C39.3429 195.34 38.2485 195.577 36.9634 195.577H32.7571V192.743H36.3917C37.0723 192.743 37.6332 192.625 38.0742 192.391C38.5207 192.152 38.8529 191.822 39.0707 191.403C39.2939 190.978 39.4055 190.491 39.4055 189.941C39.4055 189.386 39.2939 188.901 39.0707 188.487C38.8529 188.068 38.5207 187.744 38.0742 187.515C37.6277 187.281 37.0614 187.164 36.3754 187.164H33.9904V201H30.4538ZM48.5206 201.237C47.7202 201.237 47.0069 201.098 46.3807 200.82C45.7545 200.537 45.259 200.121 44.8942 199.571C44.5348 199.015 44.3551 198.324 44.3551 197.496C44.3551 196.799 44.4831 196.214 44.739 195.74C44.9949 195.266 45.3434 194.885 45.7844 194.597C46.2255 194.308 46.7264 194.09 47.2873 193.943C47.8536 193.796 48.4471 193.693 49.0678 193.633C49.7975 193.557 50.3855 193.486 50.832 193.42C51.2785 193.35 51.6025 193.246 51.804 193.11C52.0054 192.974 52.1062 192.772 52.1062 192.506V192.457C52.1062 191.939 51.9428 191.539 51.6161 191.256C51.2949 190.973 50.8375 190.831 50.244 190.831C49.6178 190.831 49.1196 190.97 48.7493 191.248C48.379 191.52 48.134 191.863 48.0142 192.277L44.7962 192.016C44.9595 191.253 45.2808 190.594 45.7599 190.039C46.2391 189.478 46.8571 189.048 47.614 188.749C48.3763 188.444 49.2584 188.291 50.2603 188.291C50.9573 188.291 51.6243 188.373 52.2614 188.536C52.9039 188.7 53.4729 188.953 53.9684 189.296C54.4693 189.639 54.8641 190.08 55.1527 190.619C55.4413 191.153 55.5856 191.792 55.5856 192.538V201H52.2859V199.26H52.1879C51.9864 199.652 51.7169 199.998 51.3793 200.298C51.0417 200.592 50.636 200.823 50.1623 200.992C49.6886 201.155 49.1413 201.237 48.5206 201.237ZM49.517 198.836C50.0289 198.836 50.4808 198.735 50.8729 198.533C51.2649 198.326 51.5726 198.049 51.7958 197.7C52.0191 197.352 52.1307 196.957 52.1307 196.516V195.185C52.0218 195.255 51.872 195.321 51.6815 195.381C51.4963 195.435 51.2867 195.487 51.0526 195.536C50.8184 195.579 50.5843 195.62 50.3501 195.658C50.116 195.691 49.9036 195.721 49.7131 195.748C49.3047 195.808 48.948 195.903 48.6431 196.034C48.3382 196.165 48.1013 196.342 47.9325 196.565C47.7637 196.783 47.6793 197.055 47.6793 197.382C47.6793 197.855 47.8509 198.218 48.1939 198.468C48.5424 198.713 48.9834 198.836 49.517 198.836ZM58.285 201V188.455H61.6582V190.643H61.7889C62.0176 189.865 62.4015 189.277 62.9405 188.879C63.4796 188.476 64.1003 188.275 64.8027 188.275C64.977 188.275 65.1648 188.286 65.3663 188.308C65.5678 188.329 65.7447 188.359 65.8972 188.397V191.485C65.7338 191.436 65.5079 191.392 65.2193 191.354C64.9307 191.316 64.6666 191.297 64.427 191.297C63.9152 191.297 63.4578 191.408 63.0549 191.632C62.6574 191.85 62.3416 192.154 62.1074 192.547C61.8787 192.939 61.7644 193.391 61.7644 193.902V201H58.285ZM74.998 188.455V191.068H67.4429V188.455H74.998ZM69.1581 185.449H72.6375V197.145C72.6375 197.466 72.6865 197.717 72.7845 197.896C72.8825 198.071 73.0187 198.193 73.1929 198.264C73.3726 198.335 73.5795 198.37 73.8137 198.37C73.977 198.37 74.1404 198.356 74.3037 198.329C74.4671 198.297 74.5923 198.272 74.6794 198.256L75.2267 200.845C75.0524 200.899 74.8074 200.962 74.4916 201.033C74.1758 201.109 73.7919 201.155 73.3399 201.172C72.5014 201.204 71.7663 201.093 71.1347 200.837C70.5085 200.581 70.0212 200.183 69.6727 199.644C69.3242 199.105 69.1527 198.424 69.1581 197.602V185.449ZM77.2645 201V188.455H80.7439V201H77.2645ZM79.0123 186.837C78.4951 186.837 78.0513 186.666 77.681 186.323C77.3162 185.974 77.1338 185.558 77.1338 185.073C77.1338 184.594 77.3162 184.183 77.681 183.84C78.0513 183.491 78.4951 183.317 79.0123 183.317C79.5296 183.317 79.9707 183.491 80.3355 183.84C80.7058 184.183 80.8909 184.594 80.8909 185.073C80.8909 185.558 80.7058 185.974 80.3355 186.323C79.9707 186.666 79.5296 186.837 79.0123 186.837ZM89.1994 201.245C87.9144 201.245 86.809 200.973 85.8833 200.428C84.9631 199.878 84.2553 199.116 83.7598 198.141C83.2697 197.167 83.0247 196.045 83.0247 194.776C83.0247 193.491 83.2724 192.364 83.7679 191.395C84.2689 190.42 84.9795 189.661 85.8997 189.116C86.8199 188.566 87.9144 188.291 89.1831 188.291C90.2775 188.291 91.2359 188.49 92.0581 188.887C92.8803 189.285 93.531 189.843 94.0101 190.562C94.4893 191.281 94.7534 192.125 94.8024 193.094H91.519C91.4264 192.468 91.1814 191.964 90.7839 191.583C90.3919 191.196 89.8773 191.003 89.2402 191.003C88.7012 191.003 88.2302 191.15 87.8272 191.444C87.4297 191.732 87.1194 192.154 86.8961 192.71C86.6729 193.265 86.5613 193.938 86.5613 194.727C86.5613 195.528 86.6702 196.208 86.888 196.769C87.1112 197.33 87.4243 197.757 87.8272 198.051C88.2302 198.346 88.7012 198.493 89.2402 198.493C89.6377 198.493 89.9944 198.411 90.3102 198.248C90.6315 198.084 90.8955 197.847 91.1025 197.537C91.3148 197.221 91.4537 196.843 91.519 196.402H94.8024C94.7479 197.36 94.4866 198.204 94.0183 198.934C93.5555 199.658 92.9157 200.224 92.0989 200.632C91.2821 201.041 90.3156 201.245 89.1994 201.245ZM97.0301 201V188.455H100.509V201H97.0301ZM98.778 186.837C98.2607 186.837 97.8169 186.666 97.4466 186.323C97.0818 185.974 96.8994 185.558 96.8994 185.073C96.8994 184.594 97.0818 184.183 97.4466 183.84C97.8169 183.491 98.2607 183.317 98.778 183.317C99.2952 183.317 99.7363 183.491 100.101 183.84C100.471 184.183 100.657 184.594 100.657 185.073C100.657 185.558 100.471 185.974 100.101 186.323C99.7363 186.666 99.2952 186.837 98.778 186.837ZM103.297 205.705V188.455H106.727V190.562H106.882C107.035 190.224 107.255 189.881 107.544 189.533C107.838 189.179 108.219 188.885 108.687 188.651C109.161 188.411 109.749 188.291 110.452 188.291C111.366 188.291 112.21 188.531 112.983 189.01C113.757 189.484 114.375 190.2 114.838 191.158C115.3 192.111 115.532 193.306 115.532 194.744C115.532 196.143 115.306 197.325 114.854 198.288C114.407 199.247 113.798 199.974 113.024 200.469C112.257 200.959 111.396 201.204 110.443 201.204C109.768 201.204 109.194 201.093 108.72 200.869C108.252 200.646 107.868 200.366 107.568 200.028C107.269 199.685 107.04 199.339 106.882 198.991H106.776V205.705H103.297ZM106.703 194.727C106.703 195.473 106.806 196.124 107.013 196.679C107.22 197.235 107.519 197.668 107.911 197.978C108.303 198.283 108.78 198.435 109.341 198.435C109.907 198.435 110.386 198.28 110.778 197.97C111.17 197.654 111.467 197.218 111.669 196.663C111.875 196.102 111.979 195.457 111.979 194.727C111.979 194.003 111.878 193.366 111.677 192.816C111.475 192.266 111.178 191.836 110.786 191.526C110.394 191.215 109.912 191.06 109.341 191.06C108.774 191.06 108.295 191.21 107.903 191.509C107.517 191.809 107.22 192.233 107.013 192.783C106.806 193.333 106.703 193.981 106.703 194.727ZM121.429 201.237C120.628 201.237 119.915 201.098 119.289 200.82C118.663 200.537 118.167 200.121 117.802 199.571C117.443 199.015 117.263 198.324 117.263 197.496C117.263 196.799 117.391 196.214 117.647 195.74C117.903 195.266 118.252 194.885 118.693 194.597C119.134 194.308 119.635 194.09 120.195 193.943C120.762 193.796 121.355 193.693 121.976 193.633C122.706 193.557 123.294 193.486 123.74 193.42C124.187 193.35 124.511 193.246 124.712 193.11C124.914 192.974 125.014 192.772 125.014 192.506V192.457C125.014 191.939 124.851 191.539 124.524 191.256C124.203 190.973 123.746 190.831 123.152 190.831C122.526 190.831 122.028 190.97 121.657 191.248C121.287 191.52 121.042 191.863 120.922 192.277L117.704 192.016C117.868 191.253 118.189 190.594 118.668 190.039C119.147 189.478 119.765 189.048 120.522 188.749C121.285 188.444 122.167 188.291 123.169 188.291C123.865 188.291 124.532 188.373 125.17 188.536C125.812 188.7 126.381 188.953 126.877 189.296C127.378 189.639 127.772 190.08 128.061 190.619C128.349 191.153 128.494 191.792 128.494 192.538V201H125.194V199.26H125.096C124.895 199.652 124.625 199.998 124.287 200.298C123.95 200.592 123.544 200.823 123.07 200.992C122.597 201.155 122.05 201.237 121.429 201.237ZM122.425 198.836C122.937 198.836 123.389 198.735 123.781 198.533C124.173 198.326 124.481 198.049 124.704 197.7C124.927 197.352 125.039 196.957 125.039 196.516V195.185C124.93 195.255 124.78 195.321 124.59 195.381C124.405 195.435 124.195 195.487 123.961 195.536C123.727 195.579 123.492 195.62 123.258 195.658C123.024 195.691 122.812 195.721 122.621 195.748C122.213 195.808 121.856 195.903 121.551 196.034C121.246 196.165 121.01 196.342 120.841 196.565C120.672 196.783 120.588 197.055 120.588 197.382C120.588 197.855 120.759 198.218 121.102 198.468C121.451 198.713 121.892 198.836 122.425 198.836ZM134.673 193.747V201H131.193V188.455H134.509V190.668H134.656C134.934 189.938 135.4 189.361 136.053 188.936C136.706 188.506 137.499 188.291 138.43 188.291C139.301 188.291 140.06 188.482 140.708 188.863C141.356 189.244 141.86 189.789 142.219 190.496C142.579 191.199 142.759 192.037 142.759 193.012V201H139.279V193.633C139.285 192.865 139.089 192.266 138.691 191.836C138.294 191.4 137.746 191.183 137.049 191.183C136.581 191.183 136.167 191.283 135.808 191.485C135.454 191.686 135.176 191.98 134.975 192.367C134.779 192.748 134.678 193.208 134.673 193.747ZM152.174 188.455V191.068H144.619V188.455H152.174ZM146.334 185.449H149.813V197.145C149.813 197.466 149.862 197.717 149.96 197.896C150.058 198.071 150.194 198.193 150.369 198.264C150.548 198.335 150.755 198.37 150.989 198.37C151.153 198.37 151.316 198.356 151.479 198.329C151.643 198.297 151.768 198.272 151.855 198.256L152.402 200.845C152.228 200.899 151.983 200.962 151.667 201.033C151.352 201.109 150.968 201.155 150.516 201.172C149.677 201.204 148.942 201.093 148.31 200.837C147.684 200.581 147.197 200.183 146.848 199.644C146.5 199.105 146.328 198.424 146.334 197.602V185.449ZM164.721 192.032L161.536 192.228C161.481 191.956 161.364 191.711 161.185 191.493C161.005 191.27 160.768 191.093 160.474 190.962C160.185 190.826 159.84 190.758 159.437 190.758C158.898 190.758 158.443 190.872 158.073 191.101C157.703 191.324 157.517 191.624 157.517 191.999C157.517 192.299 157.637 192.552 157.877 192.759C158.116 192.966 158.527 193.132 159.11 193.257L161.381 193.714C162.6 193.965 163.51 194.368 164.109 194.923C164.708 195.479 165.007 196.208 165.007 197.112C165.007 197.934 164.765 198.656 164.28 199.277C163.801 199.897 163.142 200.382 162.304 200.73C161.471 201.074 160.509 201.245 159.42 201.245C157.76 201.245 156.437 200.899 155.451 200.208C154.471 199.511 153.896 198.563 153.728 197.365L157.15 197.186C157.253 197.692 157.504 198.079 157.901 198.346C158.299 198.607 158.808 198.738 159.429 198.738C160.038 198.738 160.529 198.621 160.899 198.386C161.275 198.147 161.465 197.839 161.471 197.463C161.465 197.148 161.332 196.889 161.07 196.688C160.809 196.481 160.406 196.323 159.862 196.214L157.689 195.781C156.464 195.536 155.552 195.111 154.953 194.507C154.359 193.902 154.062 193.132 154.062 192.195C154.062 191.389 154.28 190.695 154.716 190.113C155.157 189.53 155.775 189.081 156.57 188.765C157.37 188.449 158.307 188.291 159.38 188.291C160.964 188.291 162.211 188.626 163.12 189.296C164.035 189.966 164.569 190.878 164.721 192.032ZM172.587 184.273H176.948L181.555 195.511H181.751L186.357 184.273H190.719V201H187.288V190.113H187.15L182.821 200.918H180.485L176.156 190.072H176.017V201H172.587V184.273ZM197.145 201.237C196.344 201.237 195.631 201.098 195.005 200.82C194.379 200.537 193.883 200.121 193.518 199.571C193.159 199.015 192.979 198.324 192.979 197.496C192.979 196.799 193.107 196.214 193.363 195.74C193.619 195.266 193.967 194.885 194.408 194.597C194.85 194.308 195.35 194.09 195.911 193.943C196.478 193.796 197.071 193.693 197.692 193.633C198.421 193.557 199.01 193.486 199.456 193.42C199.903 193.35 200.227 193.246 200.428 193.11C200.629 192.974 200.73 192.772 200.73 192.506V192.457C200.73 191.939 200.567 191.539 200.24 191.256C199.919 190.973 199.461 190.831 198.868 190.831C198.242 190.831 197.744 190.97 197.373 191.248C197.003 191.52 196.758 191.863 196.638 192.277L193.42 192.016C193.584 191.253 193.905 190.594 194.384 190.039C194.863 189.478 195.481 189.048 196.238 188.749C197 188.444 197.882 188.291 198.884 188.291C199.581 188.291 200.248 188.373 200.885 188.536C201.528 188.7 202.097 188.953 202.592 189.296C203.093 189.639 203.488 190.08 203.777 190.619C204.065 191.153 204.21 191.792 204.21 192.538V201H200.91V199.26H200.812C200.61 199.652 200.341 199.998 200.003 200.298C199.666 200.592 199.26 200.823 198.786 200.992C198.313 201.155 197.765 201.237 197.145 201.237ZM198.141 198.836C198.653 198.836 199.105 198.735 199.497 198.533C199.889 198.326 200.197 198.049 200.42 197.7C200.643 197.352 200.755 196.957 200.755 196.516V195.185C200.646 195.255 200.496 195.321 200.305 195.381C200.12 195.435 199.911 195.487 199.677 195.536C199.442 195.579 199.208 195.62 198.974 195.658C198.74 195.691 198.528 195.721 198.337 195.748C197.929 195.808 197.572 195.903 197.267 196.034C196.962 196.165 196.725 196.342 196.557 196.565C196.388 196.783 196.303 197.055 196.303 197.382C196.303 197.855 196.475 198.218 196.818 198.468C197.166 198.713 197.607 198.836 198.141 198.836ZM210.388 193.747V201H206.909V188.455H210.225V190.668H210.372C210.65 189.938 211.115 189.361 211.769 188.936C212.422 188.506 213.214 188.291 214.146 188.291C215.017 188.291 215.776 188.482 216.424 188.863C217.072 189.244 217.576 189.789 217.935 190.496C218.295 191.199 218.474 192.037 218.474 193.012V201H214.995V193.633C215 192.865 214.804 192.266 214.407 191.836C214.009 191.4 213.462 191.183 212.765 191.183C212.297 191.183 211.883 191.283 211.524 191.485C211.17 191.686 210.892 191.98 210.691 192.367C210.495 192.748 210.394 193.208 210.388 193.747ZM224.794 201.237C223.994 201.237 223.28 201.098 222.654 200.82C222.028 200.537 221.532 200.121 221.168 199.571C220.808 199.015 220.629 198.324 220.629 197.496C220.629 196.799 220.757 196.214 221.012 195.74C221.268 195.266 221.617 194.885 222.058 194.597C222.499 194.308 223 194.09 223.561 193.943C224.127 193.796 224.721 193.693 225.341 193.633C226.071 193.557 226.659 193.486 227.105 193.42C227.552 193.35 227.876 193.246 228.077 193.11C228.279 192.974 228.38 192.772 228.38 192.506V192.457C228.38 191.939 228.216 191.539 227.89 191.256C227.568 190.973 227.111 190.831 226.517 190.831C225.891 190.831 225.393 190.97 225.023 191.248C224.652 191.52 224.407 191.863 224.288 192.277L221.07 192.016C221.233 191.253 221.554 190.594 222.033 190.039C222.513 189.478 223.131 189.048 223.887 188.749C224.65 188.444 225.532 188.291 226.534 188.291C227.231 188.291 227.898 188.373 228.535 188.536C229.177 188.7 229.746 188.953 230.242 189.296C230.743 189.639 231.138 190.08 231.426 190.619C231.715 191.153 231.859 191.792 231.859 192.538V201H228.559V199.26H228.461C228.26 199.652 227.99 199.998 227.653 200.298C227.315 200.592 226.909 200.823 226.436 200.992C225.962 201.155 225.415 201.237 224.794 201.237ZM225.79 198.836C226.302 198.836 226.754 198.735 227.146 198.533C227.538 198.326 227.846 198.049 228.069 197.7C228.292 197.352 228.404 196.957 228.404 196.516V195.185C228.295 195.255 228.145 195.321 227.955 195.381C227.77 195.435 227.56 195.487 227.326 195.536C227.092 195.579 226.858 195.62 226.624 195.658C226.389 195.691 226.177 195.721 225.987 195.748C225.578 195.808 225.221 195.903 224.917 196.034C224.612 196.165 224.375 196.342 224.206 196.565C224.037 196.783 223.953 197.055 223.953 197.382C223.953 197.855 224.124 198.218 224.467 198.468C224.816 198.713 225.257 198.836 225.79 198.836ZM240.21 205.966C239.083 205.966 238.117 205.811 237.311 205.5C236.51 205.195 235.873 204.779 235.4 204.251C234.926 203.723 234.618 203.129 234.477 202.47L237.695 202.037C237.793 202.288 237.948 202.522 238.16 202.74C238.373 202.958 238.653 203.132 239.002 203.262C239.356 203.399 239.786 203.467 240.292 203.467C241.049 203.467 241.672 203.281 242.162 202.911C242.658 202.546 242.906 201.934 242.906 201.074V198.778H242.759C242.606 199.127 242.378 199.456 242.073 199.767C241.768 200.077 241.376 200.33 240.896 200.526C240.417 200.722 239.846 200.82 239.181 200.82C238.239 200.82 237.382 200.603 236.608 200.167C235.841 199.726 235.228 199.053 234.771 198.15C234.319 197.24 234.093 196.091 234.093 194.703C234.093 193.282 234.324 192.095 234.787 191.142C235.25 190.189 235.865 189.475 236.633 189.002C237.406 188.528 238.253 188.291 239.173 188.291C239.876 188.291 240.464 188.411 240.937 188.651C241.411 188.885 241.792 189.179 242.081 189.533C242.375 189.881 242.601 190.224 242.759 190.562H242.889V188.455H246.344V201.123C246.344 202.19 246.083 203.083 245.56 203.801C245.037 204.52 244.313 205.059 243.388 205.419C242.467 205.783 241.408 205.966 240.21 205.966ZM240.284 198.207C240.845 198.207 241.318 198.068 241.705 197.79C242.097 197.507 242.397 197.104 242.604 196.581C242.816 196.053 242.922 195.422 242.922 194.686C242.922 193.951 242.819 193.314 242.612 192.775C242.405 192.231 242.105 191.809 241.713 191.509C241.321 191.21 240.845 191.06 240.284 191.06C239.712 191.06 239.23 191.215 238.838 191.526C238.446 191.83 238.149 192.255 237.948 192.8C237.747 193.344 237.646 193.973 237.646 194.686C237.646 195.411 237.747 196.037 237.948 196.565C238.155 197.088 238.452 197.493 238.838 197.782C239.23 198.065 239.712 198.207 240.284 198.207ZM254.83 201.245C253.54 201.245 252.429 200.984 251.498 200.461C250.572 199.933 249.859 199.187 249.358 198.223C248.857 197.254 248.607 196.108 248.607 194.784C248.607 193.494 248.857 192.361 249.358 191.387C249.859 190.412 250.564 189.652 251.474 189.108C252.388 188.563 253.461 188.291 254.692 188.291C255.519 188.291 256.29 188.425 257.003 188.691C257.722 188.953 258.348 189.348 258.882 189.876C259.421 190.404 259.84 191.068 260.139 191.869C260.439 192.664 260.589 193.595 260.589 194.662V195.618H249.995V193.461H257.313C257.313 192.96 257.204 192.517 256.987 192.13C256.769 191.743 256.467 191.441 256.08 191.223C255.699 191 255.255 190.888 254.749 190.888C254.221 190.888 253.752 191.011 253.344 191.256C252.941 191.496 252.625 191.82 252.396 192.228C252.168 192.631 252.051 193.08 252.045 193.576V195.626C252.045 196.246 252.16 196.783 252.388 197.235C252.622 197.687 252.952 198.035 253.377 198.28C253.801 198.525 254.305 198.648 254.888 198.648C255.274 198.648 255.628 198.593 255.949 198.484C256.271 198.375 256.546 198.212 256.774 197.994C257.003 197.777 257.177 197.51 257.297 197.194L260.515 197.406C260.352 198.179 260.017 198.855 259.51 199.432C259.01 200.004 258.362 200.45 257.567 200.771C256.777 201.087 255.865 201.245 254.83 201.245ZM262.859 201V188.455H266.175V190.668H266.322C266.584 189.933 267.019 189.353 267.629 188.928C268.239 188.504 268.969 188.291 269.818 188.291C270.678 188.291 271.411 188.506 272.015 188.936C272.619 189.361 273.022 189.938 273.224 190.668H273.355C273.61 189.949 274.073 189.375 274.743 188.945C275.418 188.509 276.216 188.291 277.136 188.291C278.307 188.291 279.257 188.664 279.987 189.41C280.722 190.151 281.089 191.202 281.089 192.563V201H277.618V193.249C277.618 192.552 277.433 192.029 277.063 191.681C276.692 191.332 276.23 191.158 275.674 191.158C275.043 191.158 274.55 191.359 274.196 191.762C273.842 192.16 273.665 192.685 273.665 193.339V201H270.292V193.175C270.292 192.56 270.115 192.07 269.761 191.705C269.412 191.34 268.952 191.158 268.381 191.158C267.994 191.158 267.645 191.256 267.335 191.452C267.03 191.643 266.788 191.912 266.608 192.261C266.428 192.604 266.339 193.007 266.339 193.469V201H262.859ZM289.555 201.245C288.265 201.245 287.154 200.984 286.223 200.461C285.297 199.933 284.584 199.187 284.083 198.223C283.582 197.254 283.331 196.108 283.331 194.784C283.331 193.494 283.582 192.361 284.083 191.387C284.584 190.412 285.289 189.652 286.198 189.108C287.113 188.563 288.186 188.291 289.416 188.291C290.244 188.291 291.014 188.425 291.728 188.691C292.446 188.953 293.073 189.348 293.606 189.876C294.145 190.404 294.565 191.068 294.864 191.869C295.163 192.664 295.313 193.595 295.313 194.662V195.618H284.72V193.461H292.038C292.038 192.96 291.929 192.517 291.711 192.13C291.493 191.743 291.191 191.441 290.805 191.223C290.424 191 289.98 190.888 289.473 190.888C288.945 190.888 288.477 191.011 288.069 191.256C287.666 191.496 287.35 191.82 287.121 192.228C286.892 192.631 286.775 193.08 286.77 193.576V195.626C286.77 196.246 286.884 196.783 287.113 197.235C287.347 197.687 287.676 198.035 288.101 198.28C288.526 198.525 289.03 198.648 289.612 198.648C289.999 198.648 290.353 198.593 290.674 198.484C290.995 198.375 291.27 198.212 291.499 197.994C291.728 197.777 291.902 197.51 292.022 197.194L295.24 197.406C295.076 198.179 294.741 198.855 294.235 199.432C293.734 200.004 293.086 200.45 292.291 200.771C291.502 201.087 290.59 201.245 289.555 201.245ZM301.063 193.747V201H297.584V188.455H300.9V190.668H301.047C301.325 189.938 301.79 189.361 302.444 188.936C303.097 188.506 303.889 188.291 304.82 188.291C305.692 188.291 306.451 188.482 307.099 188.863C307.747 189.244 308.251 189.789 308.61 190.496C308.969 191.199 309.149 192.037 309.149 193.012V201H305.67V193.633C305.675 192.865 305.479 192.266 305.082 191.836C304.684 191.4 304.137 191.183 303.44 191.183C302.972 191.183 302.558 191.283 302.199 191.485C301.845 191.686 301.567 191.98 301.365 192.367C301.169 192.748 301.069 193.208 301.063 193.747ZM318.564 188.455V191.068H311.009V188.455H318.564ZM312.725 185.449H316.204V197.145C316.204 197.466 316.253 197.717 316.351 197.896C316.449 198.071 316.585 198.193 316.759 198.264C316.939 198.335 317.146 198.37 317.38 198.37C317.543 198.37 317.707 198.356 317.87 198.329C318.033 198.297 318.159 198.272 318.246 198.256L318.793 200.845C318.619 200.899 318.374 200.962 318.058 201.033C317.742 201.109 317.358 201.155 316.906 201.172C316.068 201.204 315.333 201.093 314.701 200.837C314.075 200.581 313.588 200.183 313.239 199.644C312.891 199.105 312.719 198.424 312.725 197.602V185.449Z" fill="white"/>
<circle cx="174.5" cy="93.5" r="70.5" fill="white"/>
<mask id="mask0_127_3" style="mask-type:luminance" maskUnits="userSpaceOnUse" x="130" y="40" width="90" height="90">
<path d="M130 40.0001H220V130H130V40.0001Z" fill="white"/>
</mask>
<g mask="url(#mask0_127_3)">
<path d="M154.711 72.5903V63.4405H152.972C152.548 63.4405 152.142 63.3663 151.763 63.2359C150.005 64.0262 148.655 66.0298 148.655 68.0402C148.655 70.9156 151.496 73.2744 154.719 72.9206C154.716 72.8103 154.711 72.7007 154.711 72.5903Z" fill="#FFB1A0"/>
<path d="M182.304 62.9545C181.903 63.2577 181.406 63.4403 180.867 63.4403C180.544 63.4403 180.053 63.4057 179.749 63.341V72.5899C179.749 72.7013 179.743 72.8114 179.74 72.9221C182.96 73.2645 185.805 70.9061 185.805 68.0231C185.805 65.8373 184.381 63.6117 182.304 62.9545Z" fill="#FFB1A0"/>
<path d="M154.711 72.0877C153.283 71.1954 152.33 69.705 152.33 68.0398C152.33 66.3175 153.322 64.6028 154.711 63.6491V63.4403H152.972C152.548 63.4403 152.142 63.366 151.763 63.2357C150.005 64.0258 148.655 66.0294 148.655 68.0398C148.655 70.9154 151.496 73.274 154.719 72.9202C154.716 72.8102 154.711 72.7003 154.711 72.5899V72.0877Z" fill="#FFA68E"/>
<path d="M183.423 63.4971C183.077 63.2663 182.703 63.0809 182.304 62.9547C181.903 63.2579 181.406 63.4404 180.867 63.4404C180.544 63.4404 180.053 63.4057 179.749 63.3412V72.5901C179.749 72.7016 179.743 72.8116 179.74 72.9222C181.096 73.0665 182.385 72.7304 183.423 72.0791V63.4971Z" fill="#FFA68E"/>
<path d="M163.453 125.863V123.92C163.453 123.58 163.726 123.304 164.063 123.304L169.128 123.128C167.605 122.675 166.509 121.249 166.509 119.626V94.3589L159.994 87.9373C159.902 88.0679 159.788 88.1725 159.666 88.2554L141.673 95.2826C138.739 96.4901 134.811 100.289 134.811 105.927V112.638H145.266V128.721H166.283C164.727 128.721 163.453 127.435 163.453 125.863Z" fill="#FF656F"/>
<path d="M141.017 103.827C141.017 99.0723 143.936 95.444 145.633 93.736L141.673 95.2827C138.739 96.4899 134.81 100.289 134.81 105.926V112.638H141.017V103.827Z" fill="#FF4756"/>
<path d="M175.233 88.5921C174.746 88.4042 174.247 87.7605 174.246 87.2363L174.243 82.5386C169.782 85.4572 164.139 85.0628 160.206 82.5199V87.2287C160.206 87.5304 160.121 87.7589 159.995 87.9373L166.509 94.3591V92.1163C166.509 90.1017 168.148 88.6385 170.162 88.6385H175.353C175.3 88.6179 175.258 88.6019 175.233 88.5921Z" fill="#FFB1A0"/>
<path d="M160.206 82.5197V87.2286C160.206 87.5304 160.121 87.7589 159.995 87.9373L166.509 94.3591V92.1162V84.5553C164.232 84.4187 162.034 83.7019 160.206 82.5197Z" fill="#FFA68E"/>
<path d="M164.455 99.2282L166.333 97.5268V93.9157L160.065 87.8237C159.964 88.01 159.821 88.1498 159.666 88.2554L153.426 90.6924L161.961 99.2282C162.647 99.9141 163.77 99.9141 164.455 99.2282Z" fill="#FF7F87"/>
<path d="M145.905 118.673H134.81V112.33H145.905V118.673Z" fill="#FF7F87"/>
<path d="M141.017 112.33H134.81V118.673H141.017V112.33Z" fill="#FF656F"/>
<path d="M145.905 118.248H134.811V126.435C134.811 127.698 135.835 128.722 137.098 128.722H145.905V118.248Z" fill="#FFB1A0"/>
<path d="M141.017 118.248H134.81V126.435C134.81 127.698 135.834 128.722 137.097 128.722H141.017V118.248Z" fill="#FFA68E"/>
<path d="M176.303 58.5253C176.303 58.2806 175.976 58.1964 175.861 58.4121C174.373 61.1949 171.441 63.0888 168.065 63.0888H161.634V72.7527C161.634 78.0525 164.946 82.9814 170.279 84.7677C175.8 83.4674 179.924 78.5027 179.924 72.5901V62.9895C177.863 62.552 176.303 60.7121 176.303 58.5253Z" fill="#FFCEBE"/>
<path d="M161.79 72.5902V63.0889H154.536V72.5902C154.536 79.1301 159.66 85.1033 167.411 85.1033C168.629 85.1033 169.806 84.9249 170.92 84.5987C165.308 83.0319 161.79 78.0072 161.79 72.5902Z" fill="#FFB1A0"/>
<path d="M179.111 47.1444C177.916 47.2363 176.819 46.4845 176.588 45.3077C176.201 43.3257 175.22 41.3589 171.387 41.3589H158.088C153.207 41.3589 149.251 45.3156 149.251 50.1963V59.895C149.251 61.9501 150.917 63.6161 152.972 63.6161H168.065C171.441 63.6161 174.373 61.7221 175.861 58.9395C175.976 58.7238 176.304 58.808 176.304 59.0527C176.304 61.5625 178.357 63.6161 180.867 63.6161C182.183 63.6161 183.259 62.5397 183.259 61.2239V51.103C183.259 48.7185 181.179 46.9855 179.111 47.1444Z" fill="#FFE181"/>
<path d="M157.48 60.1455V50.1186C157.48 45.9749 160.24 42.4776 164.021 41.3589H158.088C153.207 41.3589 149.251 45.3154 149.251 50.1961V59.895C149.251 61.9501 150.917 63.616 152.972 63.616H159.666C158.373 62.996 157.48 61.6752 157.48 60.1455Z" fill="#FEC458"/>
<path d="M208.487 88.4626H169.811C167.796 88.4626 166.157 90.1016 166.157 92.1162V119.626C166.157 121.249 167.253 122.851 168.777 123.304H209.521C211.045 122.851 212.141 121.249 212.141 119.626V92.1162C212.141 90.1016 210.502 88.4626 208.487 88.4626Z" fill="#DFEBFA"/>
<path d="M174.915 119.626V92.1161C174.915 90.1016 176.554 88.4626 178.568 88.4626H169.811C167.796 88.4626 166.157 90.1016 166.157 92.1161V119.626C166.157 121.249 167.253 122.851 168.777 123.304H177.534C176.011 122.851 174.915 121.249 174.915 119.626Z" fill="#B1DBFC"/>
<path d="M189.322 107.943C188.708 108.251 187.985 108.251 187.371 107.943L178.787 103.642V112.21C178.787 112.934 179.174 113.612 179.811 113.955C182.352 115.325 185.258 116.105 188.347 116.105C191.436 116.105 194.342 115.325 196.883 113.955C197.52 113.612 197.906 112.934 197.906 112.21V103.642L189.322 107.943Z" fill="#6E60B8"/>
<path d="M183.09 114.275V105.798L178.787 103.642V112.21C178.787 112.934 179.173 113.611 179.811 113.955C180.957 114.573 182.179 115.07 183.458 115.431C183.224 115.098 183.09 114.696 183.09 114.275Z" fill="#6353B2"/>
<path d="M214.586 123.128H163.711C163.374 123.128 163.101 123.404 163.101 123.744V125.863C163.101 127.435 164.375 128.721 165.931 128.721H212.366C213.923 128.721 215.196 127.435 215.196 125.863V123.744C215.196 123.404 214.923 123.128 214.586 123.128Z" fill="#B1DBFC"/>
<path d="M171.858 125.863V123.744C171.858 123.404 172.132 123.128 172.468 123.128H163.711C163.374 123.128 163.101 123.404 163.101 123.744V125.863C163.101 127.435 164.375 128.721 165.932 128.721H174.689C173.132 128.721 171.858 127.435 171.858 125.863Z" fill="#8BCAFF"/>
<path d="M201.678 100.558L189.322 94.3674C188.708 94.0599 187.985 94.0599 187.371 94.3674L178.155 98.9853C178.237 99.2332 178.409 99.4557 178.678 99.5907L192.182 106.357C192.46 106.496 192.758 106.575 193.061 106.598L201.678 102.28C202.387 101.925 202.387 100.913 201.678 100.558Z" fill="#9790CC"/>
<path d="M192.068 106.256L178.749 99.5823C178.471 99.4432 178.296 99.2105 178.22 98.9528L175.016 100.558C174.307 100.913 174.307 101.925 175.016 102.28L187.371 108.471C187.985 108.778 188.708 108.778 189.322 108.471L193.264 106.496C192.856 106.521 192.443 106.444 192.068 106.256Z" fill="#8479C2"/>
<path d="M204.826 115.068L204.263 112.919C204.022 112.001 203.176 111.403 202.227 111.411H202.209H202.191C201.242 111.403 200.396 112.001 200.156 112.919L199.592 115.068C199.36 115.953 200.028 116.817 200.942 116.817H203.476C204.391 116.817 205.058 115.953 204.826 115.068Z" fill="#FFE181"/>
<path d="M202.256 115.068L202.819 112.919C202.936 112.473 203.196 112.104 203.541 111.842C203.176 111.564 202.716 111.407 202.227 111.411H202.209H202.192C201.242 111.402 200.396 112.001 200.156 112.919L199.592 115.068C199.361 115.953 200.028 116.817 200.942 116.817H203.477C203.499 116.817 203.519 116.815 203.541 116.814C202.661 116.774 202.03 115.932 202.256 115.068Z" fill="#FEC458"/>
<path d="M154.532 72.5499V63.5759H152.968C152.544 63.5759 152.139 63.5017 151.759 63.3713C150.002 64.1616 148.652 65.9892 148.652 67.9998C148.652 70.8752 151.316 73.234 154.54 72.8802C154.537 72.7699 154.532 72.6603 154.532 72.5499Z" stroke="black" stroke-width="3" stroke-miterlimit="10" stroke-linecap="round" stroke-linejoin="round"/>
<path d="M182.3 63.09C181.899 63.3934 181.402 63.5759 180.863 63.5759C180.54 63.5759 180.225 63.5412 179.921 63.4767V72.5498C179.921 72.6611 179.915 72.7712 179.912 72.8819C183.132 73.2243 185.801 70.866 185.801 67.9829C185.801 65.7972 184.377 63.7473 182.3 63.09Z" stroke="black" stroke-width="3" stroke-miterlimit="10" stroke-linecap="round" stroke-linejoin="round"/>
<path d="M176.3 59.0125C176.3 58.7678 175.972 58.6836 175.857 58.8993C174.369 61.6819 171.437 63.576 168.061 63.576H154.532V72.5499C154.532 79.0897 159.656 85.0629 167.407 85.0629C174.307 85.0629 179.92 79.4495 179.92 72.5499V63.4767C177.859 63.0391 176.3 61.1992 176.3 59.0125Z" stroke="black" stroke-width="3" stroke-miterlimit="10" stroke-linecap="round" stroke-linejoin="round"/>
<path d="M163.097 125.823V123.704C163.097 123.364 163.37 123.088 163.707 123.088H168.773C167.25 122.634 166.153 121.209 166.153 119.585V92.0759C166.153 90.0613 167.792 88.4223 169.807 88.4223H175.173C175.12 88.4017 175.079 88.3857 175.053 88.3759C174.567 88.188 174.244 87.72 174.242 87.1959L174.239 83.0255C169.779 85.944 164.135 85.5497 160.202 83.0067V87.1881C160.202 87.7109 159.951 88.0189 159.662 88.2152L141.669 95.2424C138.735 96.4497 134.807 100.249 134.807 105.886V126.395C134.807 127.658 135.831 128.681 137.094 128.681H165.928C164.371 128.681 163.097 127.395 163.097 125.823Z" stroke="black" stroke-width="3" stroke-miterlimit="10" stroke-linecap="round" stroke-linejoin="round"/>
<path d="M145.901 128.397V107.734" stroke="black" stroke-width="3" stroke-miterlimit="10" stroke-linecap="round" stroke-linejoin="round"/>
<path d="M164.452 99.188L166.153 97.4866V93.8755L160.061 87.7835C159.961 87.97 159.817 88.1095 159.662 88.2152L153.422 90.6522L161.958 99.188C162.643 99.8739 163.766 99.8739 164.452 99.188Z" stroke="black" stroke-width="3" stroke-miterlimit="10" stroke-linecap="round" stroke-linejoin="round"/>
<path d="M145.901 118.208H134.807V112.29H145.901V118.208Z" stroke="black" stroke-width="3" stroke-miterlimit="10" stroke-linecap="round" stroke-linejoin="round"/>
<path d="M214.583 123.088H163.707C163.37 123.088 163.097 123.364 163.097 123.704V125.823C163.097 127.395 164.371 128.681 165.928 128.681H212.362C213.919 128.681 215.193 127.395 215.193 125.823V123.704C215.193 123.364 214.92 123.088 214.583 123.088Z" stroke="black" stroke-width="3" stroke-miterlimit="10" stroke-linecap="round" stroke-linejoin="round"/>
<path d="M201.674 100.518L189.318 94.3274C188.704 94.02 187.981 94.02 187.368 94.3274L175.012 100.518C174.303 100.873 174.303 101.885 175.012 102.24L187.368 108.431C187.981 108.738 188.704 108.738 189.318 108.431L201.674 102.24C202.383 101.885 202.383 100.873 201.674 100.518Z" stroke="black" stroke-width="3" stroke-miterlimit="10" stroke-linecap="round" stroke-linejoin="round"/>
<path d="M189.319 108.431C188.705 108.738 187.982 108.738 187.368 108.431L178.784 104.13V112.17C178.784 112.894 179.17 113.571 179.807 113.915C182.348 115.285 185.254 116.065 188.343 116.065C191.432 116.065 194.338 115.285 196.879 113.915C197.516 113.571 197.903 112.894 197.903 112.17V104.13L189.319 108.431Z" stroke="black" stroke-width="3" stroke-miterlimit="10" stroke-linecap="round" stroke-linejoin="round"/>
<path d="M188.343 101.379H202.205V111.056" stroke="black" stroke-width="3" stroke-miterlimit="10" stroke-linecap="round" stroke-linejoin="round"/>
<path d="M204.823 115.028L204.259 112.879C204.019 111.961 203.173 111.362 202.224 111.371C202.218 111.371 202.212 111.371 202.206 111.371C202.2 111.371 202.194 111.371 202.188 111.371C201.238 111.362 200.393 111.961 200.152 112.879L199.589 115.028C199.357 115.913 200.024 116.777 200.938 116.777H203.473C204.387 116.777 205.054 115.913 204.823 115.028Z" stroke="black" stroke-width="3" stroke-miterlimit="10" stroke-linecap="round" stroke-linejoin="round"/>
<path d="M185.267 88.4224H169.807C167.792 88.4224 166.153 90.0614 166.153 92.076V119.586C166.153 121.209 167.25 122.635 168.773 123.088H209.517C211.041 122.635 212.137 121.209 212.137 119.586V92.076C212.137 90.0614 210.498 88.4224 208.484 88.4224H191.419" stroke="black" stroke-width="3" stroke-miterlimit="10" stroke-linecap="round" stroke-linejoin="round"/>
<path d="M183.255 52.4473V51.0628C183.255 48.6784 181.175 46.9452 179.107 47.1042C177.912 47.1962 176.815 46.4444 176.585 45.2675C176.197 43.2856 175.216 41.3187 171.383 41.3187H158.084C153.204 41.3187 149.247 45.2754 149.247 50.156V59.8549C149.247 61.9099 150.913 63.5758 152.968 63.5758H168.061C171.437 63.5758 174.369 61.6819 175.857 58.8993C175.972 58.6836 176.3 58.7678 176.3 59.0124C176.3 61.5223 178.353 63.5758 180.863 63.5758C182.179 63.5758 183.255 62.4995 183.255 61.1838V58.5996" stroke="black" stroke-width="3" stroke-miterlimit="10" stroke-linecap="round" stroke-linejoin="round"/>
</g>
</svg>
