<svg width="1182" height="1024" viewBox="0 0 1182 1024" fill="none" xmlns="http://www.w3.org/2000/svg">
<path d="M975.23 927.832C978.82 927.832 981.73 924.922 981.73 921.332C981.73 917.742 978.82 914.832 975.23 914.832C971.64 914.832 968.73 917.742 968.73 921.332C968.73 924.922 971.64 927.832 975.23 927.832Z" fill="#40FCFC"/>
<path d="M927.492 893.385C927.691 891.002 925.921 888.908 923.538 888.708C921.155 888.509 919.062 890.279 918.862 892.662C918.662 895.045 920.432 897.138 922.815 897.338C925.198 897.538 927.292 895.768 927.492 893.385Z" fill="#FD5122"/>
<path d="M106.79 950.332L112.65 934.352C114.76 934.252 116.84 934.482 118.86 935.152L112.53 952.432C112.18 953.402 112.67 954.472 113.64 954.832C114.61 955.182 115.68 954.692 116.04 953.722L122.25 936.762C124.13 937.942 125.75 939.492 127.08 941.342L121.84 955.652C121.49 956.622 121.98 957.692 122.95 958.052C123.92 958.412 124.99 957.912 125.35 956.942L129.47 945.702C131.83 951.552 131.97 958.972 129.31 966.252C129.25 966.422 129.18 966.592 129.12 966.762C130.49 967.552 131.83 968.412 133.11 969.352C136.71 972.002 141.36 976.492 143.03 982.862L141.22 983.332C139.69 977.492 135.37 973.332 132.01 970.862C130.85 970.012 129.64 969.232 128.39 968.502C125.59 974.702 121.12 979.522 116.11 982.192L120.02 971.512C120.37 970.542 119.88 969.472 118.91 969.112C117.94 968.762 116.87 969.252 116.51 970.222L111.47 983.982C109.27 984.522 107.04 984.652 104.86 984.282L110.72 968.292C111.07 967.322 110.58 966.252 109.61 965.892C108.64 965.542 107.57 966.032 107.21 967.002L101.27 983.212C99.35 982.362 97.65 981.092 96.11 979.532L101.47 964.892C101.82 963.922 101.33 962.852 100.36 962.492C99.39 962.142 98.32 962.632 97.96 963.602L93.35 976.182C91.86 974.062 90.56 971.692 89.4 969.222L92.29 961.322C92.64 960.352 92.15 959.282 91.18 958.922C90.21 958.572 89.14 959.062 88.78 960.032L87.24 964.242C84.39 957.172 82.38 950.412 80 948.152C84.03 947.302 89.76 943.452 96.11 940.022L94.12 945.462C93.77 946.432 94.26 947.502 95.23 947.862C96.2 948.222 97.27 947.722 97.63 946.752L100.99 937.582C103.45 936.462 105.96 935.522 108.46 934.942L103.3 949.032C102.95 950.002 103.44 951.072 104.41 951.432C105.38 951.792 106.45 951.292 106.8 950.322L106.79 950.332Z" fill="#E0F4FE"/>
<path d="M1008.88 646.012L1003.02 630.022C1000.91 629.922 998.83 630.152 996.81 630.822L1003.14 648.102C1003.49 649.072 1003 650.142 1002.03 650.502C1001.06 650.852 999.99 650.362 999.63 649.392L993.42 632.432C991.54 633.612 989.92 635.162 988.59 637.012L993.83 651.322C994.18 652.292 993.69 653.362 992.72 653.722C991.75 654.072 990.68 653.582 990.32 652.612L986.2 641.372C983.84 647.222 983.7 654.642 986.36 661.922C986.42 662.092 986.49 662.262 986.55 662.432C985.18 663.222 983.84 664.082 982.56 665.022C978.96 667.672 974.31 672.162 972.65 678.532L974.46 679.002C975.99 673.162 980.31 669.002 983.67 666.532C984.83 665.682 986.04 664.902 987.28 664.172C990.08 670.372 994.55 675.192 999.56 677.862L995.65 667.182C995.3 666.212 995.79 665.142 996.76 664.782C997.73 664.432 998.8 664.922 999.16 665.892L1004.2 679.652C1006.4 680.192 1008.63 680.322 1010.81 679.952L1004.95 663.962C1004.6 662.992 1005.09 661.922 1006.06 661.562C1007.03 661.212 1008.1 661.702 1008.46 662.672L1014.4 678.882C1016.32 678.032 1018.02 676.762 1019.56 675.202L1014.2 660.562C1013.84 659.592 1014.34 658.522 1015.31 658.162C1016.28 657.812 1017.35 658.302 1017.71 659.272L1022.32 671.852C1023.81 669.732 1025.11 667.352 1026.27 664.892L1023.38 656.992C1023.03 656.022 1023.52 654.952 1024.49 654.592C1025.46 654.242 1026.53 654.732 1026.89 655.702L1028.43 659.902C1031.28 652.832 1033.29 646.072 1035.67 643.812C1031.64 642.962 1025.91 639.112 1019.56 635.682L1021.55 641.122C1021.9 642.092 1021.41 643.162 1020.44 643.522C1019.47 643.872 1018.4 643.382 1018.04 642.412L1014.68 633.242C1012.22 632.122 1009.71 631.182 1007.21 630.602L1012.37 644.692C1012.72 645.662 1012.23 646.732 1011.26 647.092C1010.29 647.452 1009.22 646.952 1008.86 645.982L1008.88 646.012Z" fill="#E0F4FE"/>
<path d="M936.86 779.692L1111.91 1022.63" stroke="#BDE8FD" stroke-width="17.26" stroke-miterlimit="10"/>
<path d="M889.14 746.862L1087.84 1022.62" stroke="#BDE8FD" stroke-width="17.26" stroke-miterlimit="10"/>
<path d="M888.72 779.692L1063.77 1022.63" stroke="#BDE8FD" stroke-width="17.26" stroke-miterlimit="10"/>
<path d="M637.1 986.882H538.15V1027H637.1V986.882Z" fill="#BDE8FD"/>
<path d="M1045.09 903.762H925.39V1026.52H957.31V961.002C957.31 945.632 969.88 933.062 985.24 933.062C1000.6 933.062 1013.17 945.632 1013.17 961.002V1026.52H1045.09V903.762V903.762Z" fill="#E6F6FE"/>
<path d="M985.25 933.062C969.89 933.062 957.32 945.632 957.32 961.002V1026.52H1013.18V961.002C1013.18 945.632 1000.61 933.062 985.25 933.062V933.062Z" fill="white"/>
<path d="M286.99 881.832H181.96V1027.01H286.99V881.832Z" fill="white"/>
<path d="M402.24 803.772H394.95V873.812H402.24V803.772V803.772Z" fill="#BDE8FD"/>
<path d="M486.05 857.432H455.39V888.872H463.56V872.092C463.56 868.162 466.78 864.932 470.71 864.932C474.64 864.932 477.86 868.152 477.86 872.092V888.872H486.03V857.432H486.05Z" fill="#D5F0FE"/>
<path d="M470.72 864.932C466.79 864.932 463.57 868.152 463.57 872.092V888.872H477.88V872.092C477.88 868.152 474.66 864.932 470.72 864.932Z" fill="white"/>
<path d="M482.33 852.212H458.03L451.22 857.892H489.15L482.34 852.212H482.33Z" fill="#A1DFFC"/>
<path d="M497.01 897.512H445.2V950.652H459.02V922.292C459.02 915.642 464.46 910.202 471.11 910.202C477.76 910.202 483.2 915.642 483.2 922.292V950.652H497.02V897.512H497.01Z" fill="#D5F0FE"/>
<path d="M471.1 910.192C464.45 910.192 459.01 915.632 459.01 922.282V950.642H483.19V922.282C483.19 915.632 477.75 910.192 471.1 910.192V910.192Z" fill="white"/>
<path d="M427.05 859.942H340.99V1027H427.05V859.942Z" fill="#BDE8FD"/>
<path d="M359.17 736.662H334.77C336.19 736.212 337.61 735.842 339.1 735.622H354.77C356.26 735.922 357.68 736.292 359.17 736.662ZM364.69 738.832H329.24C328.49 739.132 327.82 739.502 327.15 739.872H366.71C366.11 739.502 365.37 739.122 364.7 738.832H364.69ZM369.84 742.042H323.64C323.12 742.412 322.67 742.712 322.15 743.082H370.96C370.59 742.712 370.21 742.332 369.84 742.042ZM372.6 745.182H319.53C319.16 745.552 318.71 745.852 318.34 746.222H373.12C372.97 745.922 372.82 745.552 372.6 745.182V745.182ZM374.09 748.392H316.25C315.95 748.762 315.65 749.062 315.28 749.432H374.39C374.32 749.062 374.17 748.762 374.09 748.392ZM374.91 751.602H313.56C313.26 751.972 313.04 752.272 312.81 752.652H375.05C374.98 752.282 374.9 751.902 374.9 751.602H374.91ZM375.28 754.742H311.39C311.17 755.112 310.94 755.412 310.79 755.782H375.42C375.34 755.482 375.34 755.112 375.27 754.742H375.28ZM375.43 757.952H309.6C309.45 758.322 309.23 758.622 309.08 758.992H375.43V757.952ZM374.83 761.532C374.9 761.382 374.9 761.312 374.98 761.162H308.18C308.03 761.532 307.88 761.832 307.81 762.202H374.38C374.53 761.982 374.68 761.752 374.83 761.532V761.532ZM370.5 764.672C370.72 764.522 370.95 764.452 371.17 764.372H307.13C307.05 764.742 306.98 765.042 306.83 765.412H369.22C369.6 765.112 370.04 764.892 370.49 764.672H370.5ZM366.39 767.512H306.39C306.32 767.882 306.24 768.182 306.24 768.552H365.35C365.65 768.182 366.02 767.802 366.39 767.512ZM363.48 770.652H305.86C305.86 771.022 305.79 771.322 305.79 771.692H362.74C362.96 771.392 363.19 771.022 363.49 770.652H363.48ZM361.47 773.862H305.72V774.902H360.95C361.1 774.602 361.32 774.232 361.47 773.862ZM360.13 777.072H305.87C305.87 777.442 305.94 777.742 306.02 778.112H359.83C359.9 777.742 360.05 777.362 360.13 777.072ZM359.31 780.202H306.39C306.46 780.572 306.54 780.952 306.61 781.242H359.15C359.22 780.942 359.3 780.572 359.3 780.202H359.31ZM359.01 783.412H307.29C307.44 783.782 307.51 784.162 307.66 784.452H359.01C359.01 784.152 359.01 783.782 359.01 783.412ZM309.23 787.672H359.38C359.3 787.302 359.23 787.002 359.23 786.632H308.7C308.85 786.932 309.07 787.302 309.22 787.672H309.23ZM311.32 790.812H360.2C360.13 790.442 359.98 790.142 359.9 789.772H310.57C310.79 790.142 311.02 790.522 311.32 790.812ZM314.16 794.022H360.73C360.73 793.652 360.73 793.352 360.65 792.982H313.03C313.48 793.352 313.85 793.732 314.15 794.022H314.16ZM318.12 797.012C318.27 797.082 318.34 797.162 318.49 797.232H359.76C359.98 796.932 360.21 796.562 360.36 796.192H316.85C317.3 796.412 317.67 796.792 318.12 797.012V797.012ZM327.52 800.372H354.16C355.2 800.142 356.17 799.772 357.15 799.332H323.41C324.76 799.782 326.1 800.152 327.52 800.372V800.372Z" fill="#C8EBF8"/>
<path d="M478.25 843.932C479.58 843.112 480.77 842.102 481.79 840.942L481.69 840.962L476.9 836.172L483.46 834.492L484.79 835.822C485.24 834.562 485.53 833.232 485.64 831.852L484.07 832.252L479.28 827.462L485.01 825.992C483.66 821.602 480.45 818.042 476.29 816.222L477.73 817.662L471.17 819.342L467.02 815.192C466.25 815.342 465.51 815.552 464.78 815.812L468.89 819.922L462.33 821.602L459.6 818.872C459.1 819.322 458.62 819.802 458.18 820.302L460.05 822.182L456.18 823.172C455.78 823.922 455.45 824.702 455.17 825.512L461.7 823.842L466.49 828.632L459.92 830.312L455.15 825.542C454.9 826.272 454.71 827.032 454.57 827.812L457.65 830.892L454.37 831.732C454.42 832.412 454.5 833.092 454.63 833.752L459.31 832.552L464.1 837.342L457.54 839.022L455.87 837.352C457.41 840.562 460.01 843.162 463.23 844.712L459.21 840.692L465.78 839.012L470.57 843.802L464.66 845.312C466.09 845.832 467.62 846.152 469.22 846.232L472.23 845.462L472.78 846.012C473.56 845.872 474.32 845.682 475.05 845.432L474.5 844.882L478.23 843.932H478.25ZM481.81 832.832L475.25 834.512L470.46 829.722L477.03 828.042L481.82 832.832H481.81ZM479.41 819.322L484.2 824.112L477.64 825.792L472.85 821.002L479.41 819.322ZM464.01 823.262L470.58 821.582L475.37 826.372L468.81 828.052L464.02 823.262H464.01ZM461.62 831.972L468.19 830.292L472.98 835.082L466.42 836.762L461.63 831.972H461.62ZM468.07 838.422L474.64 836.742L479.43 841.532L472.87 843.212L468.08 838.422H468.07Z" fill="#C8ECFD"/>
<path d="M235.55 792.822H130.52V1027H235.55V792.822Z" fill="#D5F0FE"/>
<path d="M392.03 915.392H287V1027.01H392.03V915.392Z" fill="#D5F0FE"/>
<path d="M347.39 881.392H242.36L286.99 915.872H392.02L347.39 881.392V881.392Z" fill="#B1D8E8"/>
<path d="M594.41 964.562H489.38L534.01 987.122H639.04L594.41 964.562Z" fill="#B1D8E8"/>
<path d="M331.29 931.982H317.76V1006.24H331.29V931.982Z" fill="white"/>
<path d="M356.36 931.982H342.83V1006.24H356.36V931.982Z" fill="white"/>
<path d="M381.44 931.982H367.91V1006.24H381.44V931.982Z" fill="white"/>
<path d="M786.63 937.282H721.72V1027.01H786.63V937.282Z" fill="white"/>
<path d="M851.55 958.022H786.64V1027.01H851.55V958.022Z" fill="#D5F0FE"/>
<path d="M823.96 937.012H759.05L786.64 959.072H851.55L823.96 937.012Z" fill="#B1D8E8"/>
<path d="M820.62 968.272H814.04V990.722H820.62V968.272Z" fill="white"/>
<path d="M832.81 968.272H826.23V990.722H832.81V968.272Z" fill="white"/>
<path d="M845 968.272H838.42V990.722H845V968.272Z" fill="white"/>
<path d="M187.42 813.792H130.52V824.002H187.41V813.792H187.42Z" fill="white"/>
<path d="M187.42 832.762H130.52V842.972H187.41V832.762H187.42Z" fill="white"/>
<path d="M187.42 851.732H130.52V861.942H187.41V851.732H187.42Z" fill="white"/>
<path d="M187.42 870.692H130.52V880.902H187.41V870.692H187.42Z" fill="white"/>
<path d="M187.42 889.662H130.52V899.872H187.41V889.662H187.42Z" fill="white"/>
<path d="M187.42 908.632H130.52V918.842H187.41V908.632H187.42Z" fill="white"/>
<path d="M187.42 927.602H130.52V937.812H187.41V927.602H187.42Z" fill="white"/>
<path d="M187.42 946.572H130.52V956.782H187.41V946.572H187.42Z" fill="white"/>
<path d="M187.42 965.542H130.52V975.752H187.41V965.542H187.42Z" fill="white"/>
<path d="M187.42 984.512H130.52V994.722H187.41V984.512H187.42Z" fill="white"/>
<path d="M150.94 800.652L190.33 1010.77H222.42V802.112L150.94 800.652Z" fill="#D5F0FE"/>
<path d="M504.16 959.692H438.52V1027.01H456.02V991.082C456.02 982.652 462.91 975.762 471.34 975.762C479.77 975.762 486.66 982.662 486.66 991.082V1027.01H504.16V959.692Z" fill="#D5F0FE"/>
<path d="M471.34 975.752C462.91 975.752 456.02 982.652 456.02 991.072V1027H486.66V991.072C486.66 982.642 479.77 975.752 471.34 975.752Z" fill="white"/>
<path d="M1043.39 904.872H927.1L901.79 883.592H1068.7L1043.39 904.872V904.872Z" fill="#E6F6FE"/>
<path d="M392.03 918.552L287 1027.01H392.03V918.552Z" fill="#D5F0FE"/>
<path d="M502.9 964.022L441.64 1027H502.9V964.022Z" fill="#D5F0FE"/>
<path d="M495.12 905.662L452.78 949.192H495.12V905.662V905.662Z" fill="#D5F0FE"/>
<path d="M485.39 860.912L458.19 888.872H485.39V860.912Z" fill="#D5F0FE"/>
<path d="M472.12 764.662H467.74V813.302H472.12V764.662V764.662Z" fill="#BDE8FD"/>
<path d="M644.75 994.992L634.68 985.762L648.48 982.522L649.64 983.582V978.082L639.7 968.962L649.64 966.622V962.612L636.21 965.762L626.14 956.522L639.94 953.282L649.64 962.172V956.672L644.71 952.152L649.64 950.992V946.972L641.23 948.942L631.16 939.712L644.96 936.472L649.64 940.772V931.362L646.24 932.162L636.17 922.932L649.64 919.772V913.892L641.19 906.142L649.64 904.162V900.142L637.7 902.942L627.63 893.702L641.43 890.462L649.64 897.992V892.492L646.21 889.342L649.64 888.532V884.522L642.72 886.142L632.65 876.912L646.45 873.672L649.64 876.602V868.912L647.74 869.362L637.67 860.122L649.65 857.312V849.752H643.7L647.99 853.682L634.19 856.922L630.13 853.192L627.13 855.942L629.42 858.042L599.33 865.102V869.112L617.38 864.872L615.46 866.632L624.4 874.822L610.6 878.062L606.8 874.572L603.8 877.322L605.83 879.182L599.34 880.702V884.712L609.32 882.372L619.39 891.602L605.59 894.842L599.34 889.112V894.612L600.81 895.962L599.34 896.312V900.332L604.3 899.172L614.37 908.402L600.57 911.642L599.34 910.512V916.012L609.36 925.192L599.34 927.542V931.562L612.84 928.392L622.91 937.622L609.11 940.862L599.33 931.902V937.402L604.33 941.982L599.33 943.152V947.172L607.81 945.182L617.88 954.422L604.08 957.662L599.32 953.302V962.792L602.79 961.982L612.86 971.212L599.32 974.392V980.192L607.85 988.012L599.32 990.012V994.032L611.33 991.212L621.4 1000.44L607.6 1003.68L599.32 996.082V1001.58L602.83 1004.8L599.32 1005.62V1009.64L606.31 1008L616.38 1017.24L602.58 1020.48L599.31 1017.49V1025.27L601.29 1024.81L603.72 1027.04H609.72L606.07 1023.69L619.87 1020.45L623.93 1024.18L626.93 1021.43L624.64 1019.33L649.64 1013.46V1009.45L636.68 1012.49L638.6 1010.73L629.66 1002.54L643.46 999.302L647.26 1002.78L649.64 1000.6V999.452L648.24 998.172L649.64 997.842V993.822L644.76 994.972L644.75 994.992ZM644.99 979.322L631.19 982.562L621.12 973.322L634.92 970.082L644.99 979.322ZM646.48 916.512L632.68 919.752L622.61 910.512L636.41 907.272L646.48 916.502V916.512ZM619.08 864.502L632.88 861.262L642.95 870.502L629.15 873.742L619.08 864.502ZM614.06 881.292L627.86 878.052L637.93 887.292L624.13 890.532L614.06 881.292V881.292ZM609.04 898.082L622.84 894.842L632.91 904.082L619.11 907.322L609.04 898.082ZM604.02 914.872L617.82 911.632L627.89 920.872L614.09 924.112L604.02 914.872ZM617.58 927.302L631.38 924.062L641.45 933.302L627.65 936.542L617.58 927.302ZM612.56 944.092L626.36 940.852L636.43 950.092L622.63 953.332L612.56 944.092ZM607.54 960.882L621.34 957.642L631.41 966.882L617.61 970.122L607.54 960.892V960.882ZM602.52 977.672L616.32 974.432L626.39 983.672L612.59 986.912L602.52 977.682V977.672ZM634.94 1012.89L621.14 1016.13L611.07 1006.89L624.87 1003.65L634.94 1012.89ZM626.16 999.342L616.09 990.102L629.89 986.862L639.96 996.102L626.16 999.342Z" fill="#C8ECFD"/>
<path d="M946.81 836.602H861.41V1027.01H946.81V836.602Z" fill="#D5F0FE"/>
<path d="M946.81 853.642H900.55V861.942H946.81V853.642Z" fill="white"/>
<path d="M946.81 869.062H900.55V877.372H946.81V869.062Z" fill="white"/>
<path d="M946.81 884.492H900.55V892.802H946.81V884.492Z" fill="white"/>
<path d="M946.81 899.912H900.55V908.222H946.81V899.912Z" fill="white"/>
<path d="M946.81 915.332H900.55V923.642H946.81V915.332Z" fill="white"/>
<path d="M946.81 930.762H900.55V939.072H946.81V930.762Z" fill="white"/>
<path d="M946.81 946.182H900.55V954.492H946.81V946.182Z" fill="white"/>
<path d="M946.81 961.602H900.55V969.912H946.81V961.602Z" fill="white"/>
<path d="M946.81 977.032H900.55V985.332H946.81V977.032Z" fill="white"/>
<path d="M946.81 992.452H900.55V1000.76H946.81V992.452Z" fill="white"/>
<path d="M930.2 842.962L898.17 1013.8H872.08V844.152L930.2 842.962Z" fill="#D5F0FE"/>
<path d="M757.67 975.362C749.26 975.362 742.38 982.242 742.38 990.652V1026.51H772.96V990.652C772.96 982.242 766.08 975.362 757.67 975.362V975.362Z" fill="#89D4F4"/>
<path d="M753.07 859.942H667.01V1027H753.07V859.942V859.942Z" fill="#BDE8FD"/>
<path d="M681.22 892.042C687.46 892.042 692.52 886.982 692.52 880.732C692.52 874.482 687.46 869.422 681.22 869.422C674.98 869.422 669.92 874.482 669.92 880.732C669.92 886.982 674.98 892.042 681.22 892.042Z" fill="white"/>
<path d="M711 892.042C717.24 892.042 722.3 886.982 722.3 880.732C722.3 874.482 717.24 869.422 711 869.422C704.76 869.422 699.7 874.482 699.7 880.732C699.7 886.982 704.76 892.042 711 892.042Z" fill="white"/>
<path d="M740.8 892.042C747.04 892.042 752.1 886.982 752.1 880.732C752.1 874.482 747.04 869.422 740.8 869.422C734.56 869.422 729.5 874.482 729.5 880.732C729.5 886.982 734.56 892.042 740.8 892.042Z" fill="white"/>
<path d="M694.38 902.792H688.54V936.842H694.38V902.792Z" fill="white"/>
<path d="M707.02 902.792H701.18V936.842H707.02V902.792Z" fill="white"/>
<path d="M719.67 902.792H713.83V936.842H719.67V902.792Z" fill="white"/>
<path d="M732.31 902.792H726.47V936.842H732.31V902.792Z" fill="white"/>
<path d="M744.95 902.792H739.12V936.842H744.95V902.792Z" fill="white"/>
<path d="M679.79 969.922H673.95V1003.97H679.79V969.922Z" fill="white"/>
<path d="M692.44 969.922H686.6V1003.97H692.44V969.922Z" fill="white"/>
<path d="M705.08 969.922H699.25V1003.97H705.08V969.922Z" fill="white"/>
<path d="M717.72 969.922H711.88V1003.97H717.72V969.922Z" fill="white"/>
<path d="M730.36 969.922H724.52V1003.97H730.36V969.922Z" fill="white"/>
<path d="M753.07 897.882L667 967.662H753.07V897.882V897.882Z" fill="#BDE8FD"/>
<path d="M667 956.252L753.07 1026.03H667V956.252Z" fill="#BDE8FD"/>
<path d="M490.71 888.692H449.64L438.13 898.292H502.23L490.72 888.692H490.71Z" fill="#A1DFFC"/>
<path d="M496.19 948.512H444.16L429.57 960.672H510.78L496.19 948.512Z" fill="#A1DFFC"/>
<rect width="1296" height="1023" fill="#F9FAFF" fill-opacity="0.47"/>
<g opacity="0.5">
<path d="M921.603 705C854.852 678.866 821.926 603.567 848.061 536.816" stroke="white" stroke-width="5" stroke-linecap="round"/>
<path d="M1378.24 744.333C1289.75 970.337 1034.81 1081.82 808.805 993.33" stroke="white" stroke-width="5" stroke-linecap="round"/>
<path d="M1136.38 702.881C1202.03 610.399 1180.28 482.208 1087.8 416.558C995.317 350.908 867.125 372.659 801.475 465.141" stroke="white" stroke-width="5" stroke-linecap="round"/>
<path d="M605.115 691.54C545.814 490.693 660.56 279.801 861.408 220.5" stroke="white" stroke-width="5" stroke-linecap="round"/>
<path d="M852.237 302.947C696.931 367.425 623.301 545.595 687.779 700.901C752.257 856.206 930.428 929.837 1085.73 865.358" stroke="white" stroke-width="5" stroke-linecap="round"/>
<path d="M1054.41 545.146C1048.92 532.983 1040.91 522.127 1030.91 513.296C1020.91 504.466 1009.14 497.863 996.393 493.927C983.643 489.991 970.203 488.811 956.963 490.465" stroke="white" stroke-width="5" stroke-linecap="round"/>
<path d="M1002.92 550.137C994.085 541.145 982.069 535.984 969.463 535.765C956.856 535.547 944.668 540.289 935.524 548.97" stroke="white" stroke-width="5" stroke-linecap="round"/>
<circle cx="968.926" cy="584.137" r="12.3897" stroke="white" stroke-width="5" stroke-linecap="round"/>
<path d="M1313.81 783.257C1203.84 973.733 960.281 1038.99 769.805 929.023C579.33 819.052 514.068 575.492 624.039 385.017" stroke="white" stroke-width="5" stroke-linecap="round"/>
<path d="M1319.38 584.137C1319.38 777.686 1162.48 934.589 968.926 934.589C775.377 934.589 618.475 777.686 618.475 584.137" stroke="white" stroke-width="5" stroke-linecap="round"/>
<path d="M1376.66 819.541C1506.67 594.357 1429.51 306.415 1204.33 176.404C979.145 46.3942 691.203 123.548 561.193 348.733" stroke="white" stroke-width="5" stroke-linecap="round"/>
<path d="M1376.61 584.137C1376.61 358.981 1194.08 176.457 968.925 176.457" stroke="white" stroke-width="5" stroke-linecap="round"/>
<path d="M1393.13 584.137C1393.13 818.416 1203.21 1008.34 968.927 1008.34C734.648 1008.34 544.727 818.416 544.727 584.137" stroke="white" stroke-width="5" stroke-linecap="round"/>
<path d="M1202.17 446.548C1126.18 317.73 960.153 274.902 831.334 350.891C702.516 426.879 659.688 592.908 735.677 721.726" stroke="white" stroke-width="5" stroke-linecap="round"/>
<path d="M1164.69 916.011C981.406 1024.13 745.173 963.194 637.053 779.905C528.934 596.616 589.871 360.383 773.16 252.263" stroke="white" stroke-width="5" stroke-linecap="round"/>
<path d="M1079.98 772.394C976.005 833.725 842.001 799.158 780.67 695.187C719.339 591.216 753.906 457.212 857.877 395.881" stroke="white" stroke-width="5" stroke-linecap="round"/>
<path d="M1348.43 840.56C1206.81 1050.15 922.095 1105.26 712.502 963.639C502.909 822.02 447.805 537.307 589.423 327.714" stroke="white" stroke-width="5" stroke-linecap="round"/>
<path d="M1235.21 427.102C1321.99 574.22 1273.08 763.834 1125.96 850.617" stroke="white" stroke-width="7.07495" stroke-linecap="round"/>
<path d="M1061.28 529.66C1091.37 580.664 1074.41 646.402 1023.4 676.489C972.4 706.576 906.662 689.619 876.575 638.614" stroke="white" stroke-width="5" stroke-linecap="round"/>
<path d="M1092.41 511.297C1132.64 579.494 1109.96 667.39 1041.77 707.618C973.568 747.847 885.672 725.174 845.444 656.977" stroke="white" stroke-width="5" stroke-linecap="round"/>
<path d="M1056.36 732.353C974.498 780.64 868.995 753.425 820.709 671.568C772.422 589.71 799.637 484.208 881.494 435.921" stroke="white" stroke-width="5" stroke-linecap="round"/>
<circle cx="968.925" cy="584.137" r="496.178" stroke="white" stroke-width="5" stroke-linecap="round"/>
<path d="M1393.13 584.137C1393.13 349.858 1203.21 159.937 968.927 159.937C734.648 159.937 544.727 349.858 544.727 584.137" stroke="white" stroke-width="5" stroke-linecap="round"/>
<path d="M968.926 918.069C784.5 918.069 634.993 768.563 634.993 584.137C634.993 399.711 784.5 250.205 968.926 250.205" stroke="white" stroke-width="5" stroke-linecap="round"/>
<path d="M968.927 1090.93C689.03 1090.93 462.129 864.034 462.129 584.137C462.129 304.24 689.03 77.3386 968.927 77.3386" stroke="white" stroke-width="5" stroke-linecap="round"/>
<path d="M1056.88 255.884C1238.17 304.461 1345.75 490.803 1297.18 672.092C1248.6 853.381 1062.26 960.966 880.971 912.389" stroke="white" stroke-width="5" stroke-linecap="round"/>
<path d="M1056.88 255.884C1238.17 304.461 1345.75 490.803 1297.18 672.092C1248.6 853.381 1062.26 960.966 880.971 912.389" stroke="white" stroke-width="5" stroke-linecap="round"/>
<path d="M1421.45 584.137C1421.45 334.217 1218.85 131.618 968.926 131.618C719.007 131.618 516.407 334.217 516.407 584.137" stroke="white" stroke-width="5" stroke-linecap="round"/>
<path d="M1421.45 584.137C1421.45 334.217 1218.85 131.618 968.926 131.618C719.007 131.618 516.407 334.217 516.407 584.137" stroke="white" stroke-width="5" stroke-linecap="round"/>
<path d="M679.838 449.213C754.155 289.704 943.709 220.642 1103.22 294.959C1262.73 369.276 1331.79 558.83 1257.47 718.34" stroke="white" stroke-width="5" stroke-linecap="round"/>
<path d="M1049.02 722.642C1125.35 678.572 1151.5 580.968 1107.43 504.636C1063.36 428.305 965.757 402.152 889.425 446.222" stroke="white" stroke-width="5" stroke-linecap="round"/>
<path d="M1211.41 584.432C1211.41 718.189 1102.98 826.621 969.22 826.621C835.462 826.621 727.031 718.189 727.031 584.432" stroke="white" stroke-width="5" stroke-linecap="round"/>
<path d="M1113.5 898.582C939.706 978.483 734.044 902.366 654.143 728.57" stroke="white" stroke-width="5" stroke-linecap="round"/>
<path d="M645.21 266.396C820.811 87.4969 1108.19 84.8239 1287.09 260.425" stroke="white" stroke-width="5" stroke-linecap="round"/>
<path d="M1049.26 758.869C952.801 803.216 838.656 760.97 794.309 664.51C749.963 568.051 792.209 453.905 888.668 409.559" stroke="white" stroke-width="5" stroke-linecap="round"/>
<path d="M918.408 474.6C978.893 446.793 1050.47 473.283 1078.27 533.767" stroke="white" stroke-width="5" stroke-linecap="round"/>
<path d="M983.514 615.621C1000.78 607.682 1008.35 587.246 1000.41 569.977" stroke="white" stroke-width="5" stroke-linecap="round"/>
<path d="M968.63 652.023C930.996 652.002 900.504 621.476 900.524 583.842" stroke="white" stroke-width="5" stroke-linecap="round"/>
<path d="M963.024 604.301C951.793 601.291 945.127 589.746 948.137 578.514C951.146 567.283 962.691 560.617 973.923 563.627" stroke="white" stroke-width="5" stroke-linecap="round"/>
<path d="M732.721 476.33C792.329 345.911 946.376 288.507 1076.79 348.115C1207.21 407.722 1264.62 561.769 1205.01 692.188" stroke="white" stroke-width="5" stroke-linecap="round"/>
<path d="M867.624 233.412C1061.33 177.587 1263.61 289.358 1319.43 483.058C1375.26 676.759 1263.48 879.039 1069.78 934.864" stroke="white" stroke-width="5" stroke-linecap="round"/>
<path d="M953.924 532.245C925.024 540.575 908.347 570.755 916.676 599.656C925.006 628.557 955.186 645.233 984.087 636.904" stroke="white" stroke-width="5" stroke-linecap="round"/>
<path d="M968.978 991.626C1194.09 991.588 1376.54 809.072 1376.5 583.964" stroke="white" stroke-width="5" stroke-linecap="round"/>
<path d="M968.861 869.131C811.445 869.157 683.813 741.568 683.786 584.152C683.76 426.736 811.349 299.104 968.765 299.078" stroke="white" stroke-width="5" stroke-linecap="round"/>
<path d="M1082.83 505.421C1125.56 567.586 1109.11 653.091 1046.09 696.402" stroke="white" stroke-width="5" stroke-linecap="round"/>
<path d="M1188.34 148.38C1425.72 268.029 1519.84 560.098 1398.55 800.735C1277.26 1041.37 986.501 1139.45 749.116 1019.8" stroke="white" stroke-width="5" stroke-linecap="round"/>
<path d="M1156.96 454.507C1227.39 556.976 1200.27 697.918 1096.4 769.309C992.525 840.7 851.228 815.505 780.802 713.036" stroke="white" stroke-width="5" stroke-linecap="round"/>
<path d="M1284.57 510.204C1244.12 338.24 1070.02 232.071 895.698 273.071" stroke="white" stroke-width="5" stroke-linecap="round"/>
<path d="M1068.63 584.137C1068.63 563.527 1062.25 543.424 1050.35 526.593C1038.46 509.762 1021.64 497.03 1002.21 490.15C982.788 483.269 961.706 482.578 941.869 488.171C922.033 493.764 904.417 505.366 891.446 521.382" stroke="white" stroke-width="5" stroke-linecap="round"/>
</g>
<path opacity="0.5" d="M840.162 212.469C835.235 207.529 828.426 204.476 820.897 204.476C813.368 204.476 806.559 207.529 801.632 212.469C796.706 217.409 793.662 224.236 793.662 231.786C793.662 239.336 796.706 246.164 801.632 251.104C806.559 256.044 813.368 259.096 820.897 259.096C828.426 259.096 835.235 256.044 840.162 251.104C845.088 246.164 848.132 239.336 848.132 231.786C848.132 224.236 845.088 217.409 840.162 212.469ZM829.956 192.635C834.735 193.741 839.191 195.717 843.147 198.371L852.279 190.216L863.971 203.385L855.279 211.141C857.088 214.164 858.515 217.438 859.485 220.903L872.794 220.756L873 238.378L860.426 238.525C859.647 243.156 858.088 247.506 855.868 251.443L863.985 258.683L852.294 271.852L844.118 264.552C839.926 267.546 835.132 269.743 829.971 270.938V283H812.397V271.056C806.853 269.846 801.735 267.502 797.309 264.257L789.147 271.542L777.456 258.374L785.721 251.001C783.632 247.167 782.162 242.964 781.412 238.51L770 238.378L770.206 220.756L782.353 220.889C783.324 217.438 784.735 214.179 786.529 211.171L777.456 203.075L789.147 189.907L798.647 198.386C802.765 195.628 807.412 193.608 812.397 192.517V181H829.971V192.635H829.956Z" fill="white"/>
<path opacity="0.5" fill-rule="evenodd" clip-rule="evenodd" d="M811.912 218.834C819.188 213.817 829.149 215.636 834.166 222.912C839.183 230.188 837.364 240.149 830.088 245.166C822.812 250.183 812.851 248.364 807.834 241.088C802.817 233.812 804.636 223.851 811.912 218.834Z" fill="white"/>
<path opacity="0.5" d="M905.098 261.049C902.567 258.533 899.059 256.974 895.182 256.974C891.304 256.974 887.811 258.533 885.266 261.049C882.735 263.564 881.166 267.05 881.166 270.904C881.166 274.758 882.735 278.23 885.266 280.76C887.796 283.276 891.304 284.835 895.182 284.835C899.059 284.835 902.552 283.276 905.098 280.76C907.629 278.245 909.198 274.758 909.198 270.904C909.198 267.05 907.629 263.579 905.098 261.049ZM899.844 250.928C902.301 251.487 904.595 252.502 906.637 253.855L911.344 249.693L917.353 256.4L912.883 260.357C913.815 261.902 914.541 263.564 915.044 265.329L921.896 265.256L922 274.244L915.532 274.317C915.133 276.671 914.333 278.892 913.194 280.907L917.367 284.599L911.359 291.307L907.155 287.586C904.994 289.115 902.538 290.233 899.873 290.851V297H890.83V290.91C887.974 290.292 885.34 289.101 883.06 287.438L878.857 291.16L872.848 284.452L877.096 280.687C876.03 278.73 875.261 276.582 874.876 274.317L869 274.244L869.104 265.256L875.349 265.329C875.853 263.564 876.578 261.902 877.495 260.372L872.833 256.238L878.842 249.531L883.726 253.855C885.843 252.443 888.24 251.414 890.801 250.869V245H899.844V250.928V250.928Z" fill="white"/>
<path opacity="0.5" fill-rule="evenodd" clip-rule="evenodd" d="M890.453 264.416C894.082 261.906 899.074 262.824 901.584 266.453C904.094 270.082 903.176 275.074 899.547 277.584C895.918 280.094 890.926 279.176 888.416 275.547C885.906 271.918 886.824 266.926 890.453 264.416Z" fill="white"/>
<path d="M671.549 452.716C656.747 426.316 650.342 391.22 652.364 347.398C652.364 347.309 652.364 347.206 652.364 347.103C652.497 346.041 653.456 345.29 654.504 345.422C669.778 347.324 685.14 346.395 699.868 342.828C714.596 339.246 728.704 333.026 741.455 324.329C741.75 324.123 742.104 324.005 742.488 324.005C742.901 323.975 743.329 324.079 743.698 324.329C756.404 333.026 770.483 339.246 785.196 342.828C799.909 346.395 815.272 347.324 830.546 345.422C830.546 345.422 830.649 345.422 830.708 345.422C831.771 345.378 832.656 346.204 832.7 347.265C834.53 391.132 827.978 426.287 813.029 452.716C798.109 479.101 774.881 496.745 743.359 505.648C742.857 506.09 742.252 506.076 741.558 505.825C709.756 496.981 686.409 479.278 671.504 452.716M656.083 349.491C654.371 391.677 660.628 425.462 674.869 450.829C689.154 476.3 711.541 493.34 742.016 501.948C742.119 501.948 742.207 501.948 742.296 501.948C772.814 493.34 795.275 476.3 809.693 450.829C824.038 425.462 830.457 391.677 828.952 349.491C813.914 351.112 798.802 350.08 784.296 346.557C769.524 342.976 755.386 336.799 742.576 328.206C729.723 336.799 715.555 342.961 700.768 346.557C686.247 350.08 671.135 351.112 656.098 349.491H656.083Z" fill="white"/>
<path fill-rule="evenodd" clip-rule="evenodd" d="M349 489C350.654 489 352 490.571 352 492.5C352 494.429 350.654 496 349 496C347.346 496 346 494.429 346 492.5C346 490.571 347.346 489 349 489Z" fill="white"/>
<path fill-rule="evenodd" clip-rule="evenodd" d="M452 510C453.108 510 454 510.892 454 512C454 513.108 453.108 514 452 514C450.892 514 450 513.108 450 512C450 510.892 450.892 510 452 510Z" fill="white"/>
<path fill-rule="evenodd" clip-rule="evenodd" d="M469.507 479C470.329 479 471 479.674 471 480.5C471 481.326 470.329 482 469.507 482C468.685 482 468 481.326 468 480.5C468 479.674 468.671 479 469.507 479Z" fill="white"/>
<path fill-rule="evenodd" clip-rule="evenodd" d="M536 720C536.547 720 537 720.453 537 721C537 721.547 536.547 722 536 722C535.453 722 535 721.547 535 721C535 720.453 535.453 720 536 720Z" fill="white"/>
<path d="M402.339 717.664L374.998 678.422L419.794 677.462L402.339 717.664V717.664ZM386.051 684.062L401.152 705.719L410.785 683.533L386.051 684.062Z" fill="#0A8996"/>
<path d="M375.027 545.371L369.043 507.856L344.082 540.131L330.549 518.94L314.72 528.148L311.824 523.065L332.422 511.081L344.526 530.044L372.653 493.683L380.741 544.432L375.027 545.371Z" fill="#0A8996"/>
<path d="M476.651 216.864C468.726 216.864 462.294 210.175 462.294 201.932C462.294 193.69 468.745 187 476.651 187C484.558 187 491.009 193.69 491.009 201.932C491.009 210.175 484.577 216.864 476.651 216.864ZM476.651 192.973C471.904 192.973 468.037 196.995 468.037 201.932C468.037 206.87 471.904 210.891 476.651 210.891C481.399 210.891 485.266 206.87 485.266 201.932C485.266 196.995 481.399 192.973 476.651 192.973Z" fill="#0A8996"/>
<path d="M697.762 643.004H664.451V654.49H697.762V643.004Z" fill="#0A8996"/>
<path d="M713.842 660.233H680.532V671.719H713.842V660.233Z" fill="#0A8996"/>
<path d="M589.791 682.057H573.71V694.692H589.791V682.057Z" fill="#0A8996"/>
<path d="M589.791 664.828H556.481V677.462H589.791V664.828Z" fill="#0A8996"/>
<path d="M724.18 510.912H662.154V539.627H724.18V510.912Z" fill="#0A8996"/>
<path d="M592.088 510.912H531.211V535.033H592.088V510.912Z" fill="#0A8996"/>
<path d="M437.024 674.016H408.308V768.204H437.024V674.016Z" fill="#0A8996"/>
<path d="M424.718 425.193C417.937 442.906 398.081 451.772 380.356 445.015C362.631 438.239 353.758 418.397 360.52 400.685C367.301 382.972 387.157 374.106 404.882 380.863C422.607 387.639 431.48 407.481 424.718 425.193V425.193Z" fill="#14335D"/>
<path d="M413.158 353.088L409.069 363.778L414.545 365.87L418.635 355.18L413.158 353.088Z" fill="#1C3E58"/>
<path d="M370.373 354.27L365.021 356.66L369.693 367.108L375.046 364.718L370.373 354.27Z" fill="#1C3E58"/>
<path d="M334.821 387.717L332.727 393.19L343.424 397.276L345.518 391.804L334.821 387.717Z" fill="#1C3E58"/>
<path d="M344.374 431.283L333.918 435.952L336.31 441.301L346.766 436.632L344.374 431.283Z" fill="#1C3E58"/>
<path d="M371.483 459.996L367.394 470.686L372.87 472.778L376.959 462.088L371.483 459.996Z" fill="#1C3E58"/>
<path d="M416.312 458.772L410.959 461.162L415.632 471.61L420.985 469.22L416.312 458.772Z" fill="#1C3E58"/>
<path d="M448.942 384.585L438.487 389.255L440.879 394.603L451.334 389.934L448.942 384.585Z" fill="#1C3E58"/>
<path d="M290 524.229V658.179C291.206 658.589 292.471 658.921 293.794 659.213C308.816 662.61 323.78 657.3 333.393 646.564C335.066 647.208 336.74 647.716 338.51 648.126C360.732 653.143 382.779 639.127 387.779 616.893C391.01 602.409 386.223 588.08 376.435 578.379C381.494 572.308 385.308 564.988 387.137 556.73C393.345 528.836 375.91 501.194 348.181 494.948C323.838 489.463 299.729 502.288 290 524.229V524.229Z" fill="#0A8996"/>
<path d="M327.905 564.897H322.161V730.299H327.905V564.897Z" fill="#1C3E58"/>
<path d="M329.051 626.923C327.533 626.923 326.016 626.763 324.459 626.463L325.602 620.587C333.169 622.106 340.047 618.649 344.521 611.074C348.522 604.319 348.009 595.525 343.299 589.19L348.009 585.573C354.276 593.967 354.887 605.198 349.586 614.152C344.738 622.366 337.269 626.923 329.031 626.923H329.051Z" fill="#1C3E58"/>
<path d="M865.461 813H312.973V779.69H865.461V813V813ZM318.834 807.28H859.599V785.41H318.834V807.28V807.28Z" fill="#1C3E58"/>
<path d="M480.672 461.521H473.78V708.475H480.672V461.521Z" fill="#1C3E58"/>
<path d="M780.462 463.818H773.571V779.69H780.462V463.818Z" fill="#1C3E58"/>
<path d="M479.523 692.395H473.78V781.987H479.523V692.395Z" fill="#1C3E58"/>
<path d="M706.95 772.798H701.097V751.151H550.848V772.798H544.995V745.231H706.95V772.798Z" fill="#1C3E58"/>
<path d="M687.424 752.123H563.373V717.664H687.424V752.123V752.123ZM569.253 746.206H681.544V723.582H569.253V746.206Z" fill="#1C3E58"/>
<path d="M602.508 721.11H596.683V638.409H658.708V707.781H652.882V644.247H602.508V721.11Z" fill="#1C3E58"/>
<path d="M645.059 342.064L493.306 435.103H799.989L645.059 342.064V342.064ZM627.033 409.778C617.075 409.778 609.007 401.713 609.007 391.759C609.007 381.804 617.075 373.739 627.033 373.739C636.991 373.739 645.059 381.804 645.059 391.759C645.059 401.713 636.991 409.778 627.033 409.778Z" fill="#0A8996"/>
<path d="M499.026 407.536H493.306V359.293H535.805V384.184H530.086V365.286H499.026V407.536Z" fill="#1C3E58"/>
<path d="M450.807 464.948V432.08L627.434 324.835L803.435 431.826V464.693L450.807 464.967V464.948ZM456.676 435.365V459.062L797.566 458.808V435.091L627.434 331.678L456.676 435.365V435.365Z" fill="#1C3E58"/>
<path d="M597.831 575.235H591.914V511.13H535.979V575.235H530.062V505.169H597.831V575.235Z" fill="#1C3E58"/>
<path d="M605.872 571.789H520.873V577.532H605.872V571.789Z" fill="#1C3E58"/>
<path d="M566.818 532.736H561.075V566.046H566.818V532.736Z" fill="#1C3E58"/>
<path d="M728.774 577.532H662.154V505.169H728.774V577.532ZM667.972 571.627H722.956V511.074H667.972V571.627Z" fill="#1C3E58"/>
<path d="M740.26 571.789H651.816V577.532H740.26V571.789Z" fill="#1C3E58"/>
<path d="M698.91 540.776H693.167V564.897H698.91V540.776Z" fill="#1C3E58"/>
<path d="M409.457 674.016H402.565V781.987H409.457V674.016Z" fill="#1C3E58"/>
<path d="M441.618 674.016H437.024V781.987H441.618V674.016Z" fill="#1C3E58"/>
<path d="M726.477 538.479H665.6V545.371H726.477V538.479Z" fill="#1C3E58"/>
<path d="M594.385 529.29H533.508V535.033H594.385V529.29Z" fill="#1C3E58"/>
<path d="M865.461 813H312.973V779.69H865.461V813V813ZM318.834 807.28H859.599V785.41H318.834V807.28V807.28Z" fill="#1C3E58"/>
<path d="M686.275 603.95H569.116V610.842H686.275V603.95Z" fill="#1C3E58"/>
<path d="M799.989 430.508H472.631V436.251H799.989V430.508Z" fill="#1C3E58"/>
<path d="M910.257 513.757H840.861V507.899H904.394V248.651C904.394 246.874 903.671 245.117 902.401 243.867L853.466 195.318C852.195 194.048 850.495 193.365 848.697 193.365H668.337V325.869H662.475V187.506H848.697C852.059 187.506 855.205 188.815 857.589 191.158L906.524 239.707C908.889 242.051 910.257 245.312 910.257 248.651V513.757V513.757Z" fill="#0A8996"/>
<path d="M906.036 250.663H872.598C859.954 250.663 849.655 240.371 849.655 227.736V194.341H855.518V227.755C855.518 237.168 863.178 244.823 872.598 244.823H906.036V250.682V250.663Z" fill="#0A8996"/>
<path d="M864.976 354.206H736.678V360.064H864.976V354.206Z" fill="#0A8996"/>
<path d="M864.976 307.981H857.667V302.122H864.976V307.981ZM849.85 307.981H842.033V302.122H849.85V307.981ZM834.216 307.981H826.399V302.122H834.216V307.981ZM818.582 307.981H810.765V302.122H818.582V307.981ZM802.948 307.981H795.131V302.122H802.948V307.981Z" fill="#1C3E58"/>
<path d="M864.976 270.856H795.131V276.714H864.976V270.856Z" fill="#1C3E58"/>
<path d="M864.976 385.471H782.271V391.33H864.976V385.471Z" fill="#0A8996"/>
<path d="M864.976 416.718H821.083V422.576H864.976V416.718Z" fill="#0A8996"/>
<path d="M729.428 317.237C725.734 317.237 722.393 315.518 720.223 312.53C718.816 310.597 716.354 309.796 714.067 310.539C710.569 311.691 706.837 311.105 703.866 308.937C700.876 306.769 699.176 303.41 699.195 299.739C699.195 297.337 697.671 295.247 695.404 294.505C691.886 293.373 689.229 290.717 688.095 287.221C686.962 283.725 687.548 279.995 689.737 277.027C691.144 275.093 691.144 272.496 689.737 270.563C687.567 267.594 686.962 263.884 688.095 260.369C689.229 256.873 691.906 254.217 695.404 253.084C697.691 252.342 699.215 250.253 699.215 247.851C699.215 244.16 700.915 240.82 703.886 238.652C706.876 236.485 710.589 235.899 714.087 237.051C716.354 237.793 718.836 236.992 720.243 235.059C722.393 232.071 725.754 230.353 729.448 230.353C733.141 230.353 736.483 232.071 738.652 235.059C740.059 237.012 742.522 237.813 744.808 237.051C748.306 235.899 752.039 236.485 755.009 238.652C757.999 240.82 759.7 244.179 759.68 247.851C759.68 250.253 761.204 252.342 763.491 253.084C767.009 254.217 769.666 256.873 770.8 260.369C771.933 263.864 771.347 267.594 769.158 270.563C767.751 272.496 767.751 275.093 769.158 277.027C771.328 279.995 771.933 283.725 770.8 287.221C769.666 290.717 766.989 293.373 763.491 294.505C761.204 295.247 759.68 297.337 759.68 299.739C759.68 303.43 757.98 306.789 755.009 308.937C752.019 311.105 748.306 311.691 744.808 310.539C742.541 309.796 740.059 310.597 738.652 312.53C736.502 315.518 733.141 317.237 729.448 317.237H729.428ZM715.807 304.406C719.383 304.406 722.803 306.086 724.972 309.113C726.008 310.558 727.63 311.378 729.408 311.378C731.187 311.378 732.809 310.558 733.845 309.113C736.756 305.09 741.857 303.43 746.586 304.973C748.287 305.52 750.065 305.246 751.511 304.192C752.957 303.137 753.778 301.516 753.778 299.739C753.778 294.779 756.925 290.424 761.654 288.92C763.354 288.373 764.644 287.084 765.191 285.405C765.738 283.706 765.445 281.909 764.409 280.483C761.478 276.48 761.478 271.11 764.409 267.106C765.465 265.661 765.738 263.884 765.191 262.185C764.644 260.486 763.354 259.216 761.654 258.67C756.925 257.146 753.759 252.811 753.778 247.851C753.778 246.073 752.957 244.452 751.511 243.398C750.065 242.343 748.267 242.07 746.586 242.636C741.877 244.179 736.756 242.519 733.845 238.496C732.809 237.051 731.187 236.231 729.408 236.231C727.63 236.231 726.008 237.051 724.972 238.496C722.06 242.519 716.96 244.179 712.23 242.636C710.55 242.089 708.752 242.363 707.306 243.417C705.859 244.472 705.039 246.093 705.039 247.87C705.039 252.83 701.892 257.185 697.163 258.689C695.463 259.236 694.173 260.525 693.626 262.204C693.078 263.884 693.372 265.7 694.407 267.126C697.339 271.129 697.339 276.5 694.407 280.503C693.352 281.948 693.059 283.725 693.626 285.424C694.173 287.123 695.463 288.393 697.163 288.939C701.892 290.463 705.058 294.798 705.039 299.759C705.039 301.536 705.859 303.157 707.306 304.211C708.752 305.246 710.55 305.539 712.23 304.973C713.403 304.582 714.615 304.406 715.787 304.406H715.807Z" fill="#1C3E58"/>
<path d="M729.565 291.518C719.539 291.518 711.39 283.374 711.39 273.356C711.39 263.337 719.539 255.194 729.565 255.194C739.59 255.194 747.74 263.337 747.74 273.356C747.74 283.374 739.59 291.518 729.565 291.518V291.518ZM729.565 261.033C722.764 261.033 717.253 266.559 717.253 273.336C717.253 280.113 722.784 285.639 729.565 285.639C736.346 285.639 741.877 280.113 741.877 273.336C741.877 266.559 736.346 261.033 729.565 261.033Z" fill="#1C3E58"/>
<path d="M354.364 298.919C347.934 298.919 341.876 296.42 337.342 291.869C332.789 287.319 330.287 281.285 330.287 274.86C330.287 268.434 332.789 262.38 337.342 257.85C341.896 253.3 347.934 250.8 354.364 250.8C360.794 250.8 366.852 253.3 371.386 257.85C375.939 262.4 378.441 268.434 378.441 274.86C378.441 288.12 367.634 298.919 354.364 298.919V298.919ZM354.364 256.659C349.498 256.659 344.925 258.553 341.485 261.99C338.046 265.427 336.15 269.997 336.15 274.86C336.15 279.722 338.046 284.292 341.485 287.729C344.925 291.166 349.498 293.061 354.364 293.061C364.409 293.061 372.578 284.897 372.578 274.86C372.578 269.997 370.682 265.427 367.243 261.99C363.803 258.553 359.23 256.659 354.364 256.659V256.659Z" fill="#1C3E58"/>
<path d="M407.892 337.782L404.999 332.685C413.93 327.646 421.708 320.479 427.454 311.964L432.32 315.245C426.066 324.502 417.604 332.314 407.892 337.801V337.782Z" fill="#14335D"/>
<path d="M346.097 342.176C318.151 331.279 300.094 304.856 300.094 274.859C300.094 255.565 307.618 237.422 321.259 223.791C334.919 210.14 353.055 202.641 372.363 202.641C398.394 202.641 422.275 216.565 435.154 239.082H586.375L612.074 274.293L577.073 301.302L559.27 287.534L546.332 302.493H510.765L502.107 287.709L493.938 302.493H456.592V296.634H490.479L501.97 275.875L514.126 296.634H543.655L558.468 279.507L577.073 293.9L603.983 273.141L583.405 244.941H431.695L430.854 243.398C419.226 221.877 396.811 208.5 372.363 208.5C354.618 208.5 337.948 215.413 325.402 227.931C312.855 240.469 305.937 257.127 305.937 274.859C305.937 302.415 322.529 326.689 348.228 336.708L346.097 342.156V342.176Z" fill="#14335D"/>
<rect x="735" y="743" width="245" height="139" rx="19" fill="#EEF5FF" stroke="#14335D" stroke-width="4"/>
<path d="M781.184 805C781.016 805 780.876 804.944 780.764 804.832C780.652 804.72 780.596 804.58 780.596 804.412C780.596 804.3 780.624 804.188 780.68 804.076L786.952 795.004L781.072 786.324C781.016 786.231 780.988 786.119 780.988 785.988C780.988 785.82 781.044 785.68 781.156 785.568C781.268 785.456 781.408 785.4 781.576 785.4H784.432C784.768 785.4 785.057 785.577 785.3 785.932L789.416 791.98L793.56 785.932C793.802 785.577 794.092 785.4 794.428 785.4H797.144C797.312 785.4 797.452 785.456 797.564 785.568C797.676 785.68 797.732 785.82 797.732 785.988C797.732 786.119 797.694 786.231 797.62 786.324L791.768 795.004L798.04 804.076C798.114 804.225 798.152 804.337 798.152 804.412C798.152 804.58 798.086 804.72 797.956 804.832C797.844 804.944 797.713 805 797.564 805H794.596C794.241 805 793.961 804.832 793.756 804.496L789.276 798.168L784.88 804.496C784.637 804.832 784.348 805 784.012 805H781.184ZM801.179 810.32C800.992 810.32 800.834 810.255 800.703 810.124C800.572 810.012 800.507 809.853 800.507 809.648V791.112C800.507 790.907 800.572 790.748 800.703 790.636C800.834 790.505 800.992 790.44 801.179 790.44H803.391C803.596 790.44 803.755 790.505 803.867 790.636C803.998 790.748 804.063 790.907 804.063 791.112V792.232C805.108 790.851 806.602 790.16 808.543 790.16C810.428 790.16 811.875 790.757 812.883 791.952C813.891 793.128 814.432 794.724 814.507 796.74C814.526 796.964 814.535 797.291 814.535 797.72C814.535 798.168 814.526 798.504 814.507 798.728C814.432 800.688 813.891 802.275 812.883 803.488C811.875 804.683 810.428 805.28 808.543 805.28C806.658 805.28 805.22 804.617 804.231 803.292V809.648C804.231 809.853 804.166 810.012 804.035 810.124C803.923 810.255 803.764 810.32 803.559 810.32H801.179ZM807.507 802.284C809.523 802.284 810.596 801.043 810.727 798.56C810.746 798.373 810.755 798.093 810.755 797.72C810.755 797.347 810.746 797.067 810.727 796.88C810.596 794.397 809.523 793.156 807.507 793.156C806.424 793.156 805.622 793.501 805.099 794.192C804.576 794.883 804.287 795.732 804.231 796.74L804.203 797.804L804.231 798.896C804.268 799.829 804.558 800.632 805.099 801.304C805.659 801.957 806.462 802.284 807.507 802.284ZM818.35 805C818.163 805 818.005 804.935 817.874 804.804C817.743 804.673 817.678 804.515 817.678 804.328V791.14C817.678 790.953 817.743 790.795 817.874 790.664C818.005 790.515 818.163 790.44 818.35 790.44H820.618C820.823 790.44 820.991 790.505 821.122 790.636C821.253 790.767 821.318 790.935 821.318 791.14V792.288C821.766 791.691 822.326 791.233 822.998 790.916C823.689 790.599 824.473 790.44 825.35 790.44H826.498C826.703 790.44 826.862 790.505 826.974 790.636C827.105 790.748 827.17 790.907 827.17 791.112V793.128C827.17 793.315 827.105 793.473 826.974 793.604C826.862 793.735 826.703 793.8 826.498 793.8H824.314C823.437 793.8 822.746 794.052 822.242 794.556C821.738 795.06 821.486 795.751 821.486 796.628V804.328C821.486 804.515 821.421 804.673 821.29 804.804C821.159 804.935 820.991 805 820.786 805H818.35ZM835.434 805.28C833.362 805.28 831.71 804.683 830.478 803.488C829.265 802.275 828.621 800.576 828.546 798.392L828.518 797.692L828.546 796.992C828.64 794.864 829.293 793.193 830.506 791.98C831.738 790.767 833.381 790.16 835.434 790.16C837.637 790.16 839.336 790.832 840.53 792.176C841.744 793.52 842.35 795.312 842.35 797.552V798.14C842.35 798.327 842.285 798.485 842.154 798.616C842.024 798.747 841.856 798.812 841.65 798.812H832.354V799.036C832.392 800.063 832.672 800.931 833.194 801.64C833.736 802.331 834.473 802.676 835.406 802.676C836.508 802.676 837.394 802.247 838.066 801.388C838.234 801.183 838.365 801.052 838.458 800.996C838.57 800.94 838.729 800.912 838.934 800.912H841.342C841.51 800.912 841.65 800.968 841.762 801.08C841.893 801.173 841.958 801.295 841.958 801.444C841.958 801.892 841.688 802.424 841.146 803.04C840.624 803.637 839.868 804.16 838.878 804.608C837.889 805.056 836.741 805.28 835.434 805.28ZM838.542 796.46V796.376C838.542 795.275 838.262 794.388 837.702 793.716C837.161 793.044 836.405 792.708 835.434 792.708C834.464 792.708 833.708 793.044 833.166 793.716C832.625 794.388 832.354 795.275 832.354 796.376V796.46H838.542ZM850.839 805.28C849.439 805.28 848.263 805.075 847.311 804.664C846.359 804.235 845.649 803.74 845.183 803.18C844.735 802.601 844.511 802.107 844.511 801.696C844.511 801.509 844.576 801.36 844.707 801.248C844.837 801.136 844.987 801.08 845.155 801.08H847.367C847.535 801.08 847.675 801.145 847.787 801.276C847.861 801.332 848.057 801.5 848.375 801.78C848.692 802.079 849.065 802.312 849.495 802.48C849.924 802.648 850.4 802.732 850.923 802.732C851.669 802.732 852.285 802.583 852.771 802.284C853.256 801.985 853.499 801.575 853.499 801.052C853.499 800.66 853.387 800.343 853.163 800.1C852.957 799.857 852.575 799.643 852.015 799.456C851.455 799.251 850.624 799.036 849.523 798.812C847.936 798.476 846.76 797.963 845.995 797.272C845.248 796.581 844.875 795.667 844.875 794.528C844.875 793.781 845.099 793.081 845.547 792.428C845.995 791.756 846.657 791.215 847.535 790.804C848.431 790.375 849.495 790.16 850.727 790.16C851.977 790.16 853.06 790.365 853.975 790.776C854.889 791.168 855.58 791.644 856.047 792.204C856.532 792.745 856.775 793.231 856.775 793.66C856.775 793.828 856.709 793.977 856.579 794.108C856.467 794.22 856.327 794.276 856.159 794.276H854.087C853.937 794.276 853.779 794.211 853.611 794.08C853.48 793.987 853.275 793.809 852.995 793.548C852.715 793.287 852.388 793.081 852.015 792.932C851.641 792.783 851.203 792.708 850.699 792.708C850.008 792.708 849.467 792.857 849.075 793.156C848.701 793.455 848.515 793.847 848.515 794.332C848.515 794.687 848.608 794.976 848.795 795.2C848.981 795.424 849.345 795.639 849.887 795.844C850.428 796.049 851.24 796.255 852.323 796.46C854.115 796.815 855.393 797.365 856.159 798.112C856.943 798.859 857.335 799.773 857.335 800.856C857.335 802.163 856.765 803.227 855.627 804.048C854.488 804.869 852.892 805.28 850.839 805.28ZM865.741 805.28C864.341 805.28 863.165 805.075 862.213 804.664C861.261 804.235 860.552 803.74 860.085 803.18C859.637 802.601 859.413 802.107 859.413 801.696C859.413 801.509 859.478 801.36 859.609 801.248C859.74 801.136 859.889 801.08 860.057 801.08H862.269C862.437 801.08 862.577 801.145 862.689 801.276C862.764 801.332 862.96 801.5 863.277 801.78C863.594 802.079 863.968 802.312 864.397 802.48C864.826 802.648 865.302 802.732 865.825 802.732C866.572 802.732 867.188 802.583 867.673 802.284C868.158 801.985 868.401 801.575 868.401 801.052C868.401 800.66 868.289 800.343 868.065 800.1C867.86 799.857 867.477 799.643 866.917 799.456C866.357 799.251 865.526 799.036 864.425 798.812C862.838 798.476 861.662 797.963 860.897 797.272C860.15 796.581 859.777 795.667 859.777 794.528C859.777 793.781 860.001 793.081 860.449 792.428C860.897 791.756 861.56 791.215 862.437 790.804C863.333 790.375 864.397 790.16 865.629 790.16C866.88 790.16 867.962 790.365 868.877 790.776C869.792 791.168 870.482 791.644 870.949 792.204C871.434 792.745 871.677 793.231 871.677 793.66C871.677 793.828 871.612 793.977 871.481 794.108C871.369 794.22 871.229 794.276 871.061 794.276H868.989C868.84 794.276 868.681 794.211 868.513 794.08C868.382 793.987 868.177 793.809 867.897 793.548C867.617 793.287 867.29 793.081 866.917 792.932C866.544 792.783 866.105 792.708 865.601 792.708C864.91 792.708 864.369 792.857 863.977 793.156C863.604 793.455 863.417 793.847 863.417 794.332C863.417 794.687 863.51 794.976 863.697 795.2C863.884 795.424 864.248 795.639 864.789 795.844C865.33 796.049 866.142 796.255 867.225 796.46C869.017 796.815 870.296 797.365 871.061 798.112C871.845 798.859 872.237 799.773 872.237 800.856C872.237 802.163 871.668 803.227 870.529 804.048C869.39 804.869 867.794 805.28 865.741 805.28ZM883.079 805.28C880.522 805.28 878.525 804.617 877.087 803.292C875.669 801.967 874.913 800.119 874.819 797.748C874.801 797.207 874.791 796.339 874.791 795.144C874.791 793.949 874.801 793.081 874.819 792.54C874.913 790.225 875.678 788.415 877.115 787.108C878.571 785.783 880.559 785.12 883.079 785.12C884.797 785.12 886.271 785.409 887.503 785.988C888.735 786.567 889.669 787.295 890.303 788.172C890.938 789.031 891.274 789.88 891.311 790.72V790.776C891.311 790.925 891.255 791.056 891.143 791.168C891.031 791.261 890.891 791.308 890.723 791.308H887.839C887.653 791.308 887.513 791.28 887.419 791.224C887.326 791.149 887.242 791.028 887.167 790.86C886.906 790.169 886.449 789.581 885.795 789.096C885.142 788.592 884.237 788.34 883.079 788.34C881.773 788.34 880.746 788.695 879.999 789.404C879.271 790.113 878.879 791.205 878.823 792.68C878.805 793.221 878.795 794.043 878.795 795.144C878.795 796.227 878.805 797.048 878.823 797.608C878.935 800.576 880.373 802.06 883.135 802.06C884.461 802.06 885.525 801.705 886.327 800.996C887.13 800.268 887.531 799.195 887.531 797.776V796.908H884.115C883.91 796.908 883.742 796.843 883.611 796.712C883.499 796.581 883.443 796.413 883.443 796.208V794.724C883.443 794.519 883.499 794.351 883.611 794.22C883.742 794.089 883.91 794.024 884.115 794.024H890.807C891.013 794.024 891.171 794.089 891.283 794.22C891.414 794.351 891.479 794.519 891.479 794.724V797.664C891.479 799.213 891.134 800.567 890.443 801.724C889.771 802.863 888.801 803.74 887.531 804.356C886.262 804.972 884.778 805.28 883.079 805.28ZM898.961 805.28C898.009 805.28 897.131 805.093 896.329 804.72C895.545 804.328 894.919 803.805 894.453 803.152C894.005 802.499 893.781 801.78 893.781 800.996C893.781 799.727 894.294 798.7 895.321 797.916C896.347 797.132 897.757 796.6 899.549 796.32L903.385 795.76V795.172C903.385 794.351 903.179 793.735 902.769 793.324C902.358 792.913 901.695 792.708 900.781 792.708C900.165 792.708 899.661 792.829 899.269 793.072C898.895 793.296 898.597 793.52 898.373 793.744C898.149 793.987 897.999 794.145 897.925 794.22C897.85 794.444 897.71 794.556 897.505 794.556H895.349C895.181 794.556 895.031 794.5 894.901 794.388C894.789 794.276 894.733 794.127 894.733 793.94C894.751 793.473 894.975 792.941 895.405 792.344C895.853 791.747 896.534 791.233 897.449 790.804C898.363 790.375 899.483 790.16 900.809 790.16C903.011 790.16 904.617 790.655 905.625 791.644C906.633 792.633 907.137 793.931 907.137 795.536V804.328C907.137 804.515 907.071 804.673 906.941 804.804C906.829 804.935 906.67 805 906.465 805H904.197C904.01 805 903.851 804.935 903.721 804.804C903.59 804.673 903.525 804.515 903.525 804.328V803.236C903.114 803.833 902.526 804.328 901.761 804.72C901.014 805.093 900.081 805.28 898.961 805.28ZM899.913 802.62C900.939 802.62 901.779 802.284 902.433 801.612C903.086 800.94 903.413 799.96 903.413 798.672V798.084L900.613 798.532C899.53 798.7 898.709 798.971 898.149 799.344C897.607 799.717 897.337 800.175 897.337 800.716C897.337 801.313 897.589 801.78 898.093 802.116C898.597 802.452 899.203 802.62 899.913 802.62ZM917.172 805C915.473 805 914.195 804.561 913.336 803.684C912.496 802.788 912.076 801.481 912.076 799.764V793.408H909.864C909.677 793.408 909.519 793.343 909.388 793.212C909.257 793.063 909.192 792.895 909.192 792.708V791.112C909.192 790.925 909.257 790.767 909.388 790.636C909.519 790.505 909.677 790.44 909.864 790.44H912.076V785.792C912.076 785.587 912.141 785.428 912.272 785.316C912.403 785.185 912.561 785.12 912.748 785.12H915.016C915.221 785.12 915.38 785.185 915.492 785.316C915.623 785.428 915.688 785.587 915.688 785.792V790.44H919.188C919.393 790.44 919.552 790.505 919.664 790.636C919.795 790.748 919.86 790.907 919.86 791.112V792.708C919.86 792.913 919.795 793.081 919.664 793.212C919.533 793.343 919.375 793.408 919.188 793.408H915.688V799.484C915.688 800.287 915.828 800.893 916.108 801.304C916.388 801.715 916.855 801.92 917.508 801.92H919.44C919.627 801.92 919.785 801.985 919.916 802.116C920.047 802.247 920.112 802.405 920.112 802.592V804.328C920.112 804.515 920.047 804.673 919.916 804.804C919.804 804.935 919.645 805 919.44 805H917.172ZM928.868 805.28C926.796 805.28 925.144 804.683 923.912 803.488C922.699 802.275 922.055 800.576 921.98 798.392L921.952 797.692L921.98 796.992C922.073 794.864 922.727 793.193 923.94 791.98C925.172 790.767 926.815 790.16 928.868 790.16C931.071 790.16 932.769 790.832 933.964 792.176C935.177 793.52 935.784 795.312 935.784 797.552V798.14C935.784 798.327 935.719 798.485 935.588 798.616C935.457 798.747 935.289 798.812 935.084 798.812H925.788V799.036C925.825 800.063 926.105 800.931 926.628 801.64C927.169 802.331 927.907 802.676 928.84 802.676C929.941 802.676 930.828 802.247 931.5 801.388C931.668 801.183 931.799 801.052 931.892 800.996C932.004 800.94 932.163 800.912 932.368 800.912H934.776C934.944 800.912 935.084 800.968 935.196 801.08C935.327 801.173 935.392 801.295 935.392 801.444C935.392 801.892 935.121 802.424 934.58 803.04C934.057 803.637 933.301 804.16 932.312 804.608C931.323 805.056 930.175 805.28 928.868 805.28ZM931.976 796.46V796.376C931.976 795.275 931.696 794.388 931.136 793.716C930.595 793.044 929.839 792.708 928.868 792.708C927.897 792.708 927.141 793.044 926.6 793.716C926.059 794.388 925.788 795.275 925.788 796.376V796.46H931.976ZM781.492 838.28C779.831 838.28 778.403 838.028 777.208 837.524C776.013 837.02 775.108 836.357 774.492 835.536C773.876 834.715 773.549 833.828 773.512 832.876C773.512 832.708 773.568 832.568 773.68 832.456C773.792 832.344 773.932 832.288 774.1 832.288H776.592C776.816 832.288 776.984 832.335 777.096 832.428C777.227 832.503 777.348 832.633 777.46 832.82C777.647 833.455 778.076 833.987 778.748 834.416C779.42 834.845 780.335 835.06 781.492 835.06C782.817 835.06 783.816 834.845 784.488 834.416C785.16 833.968 785.496 833.352 785.496 832.568C785.496 832.045 785.319 831.616 784.964 831.28C784.628 830.944 784.115 830.655 783.424 830.412C782.752 830.169 781.744 829.871 780.4 829.516C778.197 828.993 776.583 828.303 775.556 827.444C774.548 826.567 774.044 825.325 774.044 823.72C774.044 822.637 774.333 821.676 774.912 820.836C775.509 819.996 776.359 819.333 777.46 818.848C778.58 818.363 779.877 818.12 781.352 818.12C782.883 818.12 784.208 818.391 785.328 818.932C786.448 819.473 787.297 820.155 787.876 820.976C788.473 821.779 788.791 822.581 788.828 823.384C788.828 823.552 788.772 823.692 788.66 823.804C788.548 823.916 788.408 823.972 788.24 823.972H785.636C785.244 823.972 784.973 823.795 784.824 823.44C784.712 822.843 784.339 822.348 783.704 821.956C783.069 821.545 782.285 821.34 781.352 821.34C780.307 821.34 779.485 821.536 778.888 821.928C778.291 822.32 777.992 822.889 777.992 823.636C777.992 824.159 778.141 824.588 778.44 824.924C778.739 825.26 779.205 825.559 779.84 825.82C780.493 826.081 781.427 826.371 782.64 826.688C784.283 827.061 785.589 827.481 786.56 827.948C787.549 828.415 788.277 829.003 788.744 829.712C789.211 830.421 789.444 831.327 789.444 832.428C789.444 833.623 789.108 834.668 788.436 835.564C787.783 836.441 786.849 837.113 785.636 837.58C784.441 838.047 783.06 838.28 781.492 838.28ZM797.721 838.28C796.003 838.28 794.65 837.72 793.661 836.6C792.671 835.461 792.177 833.921 792.177 831.98V824.112C792.177 823.925 792.242 823.767 792.373 823.636C792.503 823.505 792.662 823.44 792.849 823.44H795.313C795.518 823.44 795.677 823.505 795.789 823.636C795.919 823.748 795.985 823.907 795.985 824.112V831.812C795.985 834.127 797.002 835.284 799.037 835.284C800.007 835.284 800.773 834.976 801.333 834.36C801.911 833.744 802.201 832.895 802.201 831.812V824.112C802.201 823.925 802.266 823.767 802.397 823.636C802.527 823.505 802.686 823.44 802.873 823.44H805.337C805.542 823.44 805.701 823.505 805.813 823.636C805.943 823.748 806.009 823.907 806.009 824.112V837.328C806.009 837.515 805.943 837.673 805.813 837.804C805.701 837.935 805.542 838 805.337 838H803.069C802.882 838 802.723 837.935 802.593 837.804C802.462 837.673 802.397 837.515 802.397 837.328V836.18C801.351 837.58 799.793 838.28 797.721 838.28ZM810.407 843.32C810.221 843.32 810.062 843.255 809.931 843.124C809.801 843.012 809.735 842.853 809.735 842.648V824.112C809.735 823.907 809.801 823.748 809.931 823.636C810.062 823.505 810.221 823.44 810.407 823.44H812.619C812.825 823.44 812.983 823.505 813.095 823.636C813.226 823.748 813.291 823.907 813.291 824.112V825.232C814.337 823.851 815.83 823.16 817.771 823.16C819.657 823.16 821.103 823.757 822.111 824.952C823.119 826.128 823.661 827.724 823.735 829.74C823.754 829.964 823.763 830.291 823.763 830.72C823.763 831.168 823.754 831.504 823.735 831.728C823.661 833.688 823.119 835.275 822.111 836.488C821.103 837.683 819.657 838.28 817.771 838.28C815.886 838.28 814.449 837.617 813.459 836.292V842.648C813.459 842.853 813.394 843.012 813.263 843.124C813.151 843.255 812.993 843.32 812.787 843.32H810.407ZM816.735 835.284C818.751 835.284 819.825 834.043 819.955 831.56C819.974 831.373 819.983 831.093 819.983 830.72C819.983 830.347 819.974 830.067 819.955 829.88C819.825 827.397 818.751 826.156 816.735 826.156C815.653 826.156 814.85 826.501 814.327 827.192C813.805 827.883 813.515 828.732 813.459 829.74L813.431 830.804L813.459 831.896C813.497 832.829 813.786 833.632 814.327 834.304C814.887 834.957 815.69 835.284 816.735 835.284ZM833.179 838.28C831.107 838.28 829.455 837.683 828.223 836.488C827.009 835.275 826.365 833.576 826.291 831.392L826.263 830.692L826.291 829.992C826.384 827.864 827.037 826.193 828.251 824.98C829.483 823.767 831.125 823.16 833.179 823.16C835.381 823.16 837.08 823.832 838.275 825.176C839.488 826.52 840.095 828.312 840.095 830.552V831.14C840.095 831.327 840.029 831.485 839.899 831.616C839.768 831.747 839.6 831.812 839.395 831.812H830.099V832.036C830.136 833.063 830.416 833.931 830.939 834.64C831.48 835.331 832.217 835.676 833.151 835.676C834.252 835.676 835.139 835.247 835.811 834.388C835.979 834.183 836.109 834.052 836.203 833.996C836.315 833.94 836.473 833.912 836.679 833.912H839.087C839.255 833.912 839.395 833.968 839.507 834.08C839.637 834.173 839.703 834.295 839.703 834.444C839.703 834.892 839.432 835.424 838.891 836.04C838.368 836.637 837.612 837.16 836.623 837.608C835.633 838.056 834.485 838.28 833.179 838.28ZM836.287 829.46V829.376C836.287 828.275 836.007 827.388 835.447 826.716C834.905 826.044 834.149 825.708 833.179 825.708C832.208 825.708 831.452 826.044 830.911 826.716C830.369 827.388 830.099 828.275 830.099 829.376V829.46H836.287ZM843.739 838C843.552 838 843.393 837.935 843.263 837.804C843.132 837.673 843.067 837.515 843.067 837.328V824.14C843.067 823.953 843.132 823.795 843.263 823.664C843.393 823.515 843.552 823.44 843.739 823.44H846.007C846.212 823.44 846.38 823.505 846.511 823.636C846.641 823.767 846.707 823.935 846.707 824.14V825.288C847.155 824.691 847.715 824.233 848.387 823.916C849.077 823.599 849.861 823.44 850.739 823.44H851.887C852.092 823.44 852.251 823.505 852.363 823.636C852.493 823.748 852.559 823.907 852.559 824.112V826.128C852.559 826.315 852.493 826.473 852.363 826.604C852.251 826.735 852.092 826.8 851.887 826.8H849.703C848.825 826.8 848.135 827.052 847.631 827.556C847.127 828.06 846.875 828.751 846.875 829.628V837.328C846.875 837.515 846.809 837.673 846.679 837.804C846.548 837.935 846.38 838 846.175 838H843.739ZM858.933 838C858.784 838 858.644 837.944 858.513 837.832C858.401 837.72 858.345 837.58 858.345 837.412L858.401 837.16L865.149 819.1C865.28 818.633 865.606 818.4 866.129 818.4H869.181C869.666 818.4 869.993 818.633 870.161 819.1L876.909 837.16C876.928 837.216 876.937 837.3 876.937 837.412C876.937 837.58 876.881 837.72 876.769 837.832C876.657 837.944 876.526 838 876.377 838H873.941C873.698 838 873.512 837.944 873.381 837.832C873.25 837.72 873.166 837.599 873.129 837.468L871.813 834.052H863.497L862.181 837.468C862.032 837.823 861.761 838 861.369 838H858.933ZM870.833 830.832L867.641 822.18L864.477 830.832H870.833ZM884.455 838.28C882.57 838.28 881.123 837.673 880.115 836.46C879.107 835.247 878.566 833.632 878.491 831.616L878.463 830.692L878.491 829.796C878.547 827.836 879.079 826.24 880.087 825.008C881.114 823.776 882.57 823.16 884.455 823.16C886.266 823.16 887.703 823.776 888.767 825.008V818.792C888.767 818.587 888.832 818.428 888.963 818.316C889.094 818.185 889.252 818.12 889.439 818.12H891.819C892.024 818.12 892.183 818.185 892.295 818.316C892.426 818.428 892.491 818.587 892.491 818.792V837.328C892.491 837.515 892.426 837.673 892.295 837.804C892.183 837.935 892.024 838 891.819 838H889.607C889.42 838 889.262 837.935 889.131 837.804C889 837.673 888.935 837.515 888.935 837.328V836.292C887.871 837.617 886.378 838.28 884.455 838.28ZM885.491 835.284C886.574 835.284 887.376 834.939 887.899 834.248C888.422 833.557 888.711 832.708 888.767 831.7C888.786 831.476 888.795 831.112 888.795 830.608C888.795 830.123 888.786 829.768 888.767 829.544C888.73 828.611 888.431 827.817 887.871 827.164C887.33 826.492 886.536 826.156 885.491 826.156C883.475 826.156 882.402 827.397 882.271 829.88L882.243 830.72L882.271 831.56C882.402 834.043 883.475 835.284 885.491 835.284ZM896.895 838C896.708 838 896.55 837.935 896.419 837.804C896.288 837.673 896.223 837.515 896.223 837.328V824.112C896.223 823.925 896.288 823.767 896.419 823.636C896.55 823.505 896.708 823.44 896.895 823.44H899.079C899.266 823.44 899.424 823.505 899.555 823.636C899.686 823.767 899.751 823.925 899.751 824.112V825.064C900.722 823.795 902.075 823.16 903.811 823.16C905.883 823.16 907.33 823.991 908.151 825.652C908.599 824.905 909.234 824.308 910.055 823.86C910.876 823.393 911.763 823.16 912.715 823.16C914.246 823.16 915.496 823.683 916.467 824.728C917.438 825.773 917.923 827.295 917.923 829.292V837.328C917.923 837.515 917.858 837.673 917.727 837.804C917.615 837.935 917.456 838 917.251 838H914.955C914.768 838 914.61 837.935 914.479 837.804C914.348 837.673 914.283 837.515 914.283 837.328V829.516C914.283 828.34 914.031 827.491 913.527 826.968C913.042 826.427 912.388 826.156 911.567 826.156C910.839 826.156 910.214 826.427 909.691 826.968C909.187 827.509 908.935 828.359 908.935 829.516V837.328C908.935 837.515 908.87 837.673 908.739 837.804C908.608 837.935 908.45 838 908.263 838H905.967C905.78 838 905.622 837.935 905.491 837.804C905.36 837.673 905.295 837.515 905.295 837.328V829.516C905.295 828.34 905.034 827.491 904.511 826.968C904.007 826.427 903.363 826.156 902.579 826.156C901.832 826.156 901.198 826.427 900.675 826.968C900.171 827.509 899.919 828.359 899.919 829.516V837.328C899.919 837.515 899.854 837.673 899.723 837.804C899.592 837.935 899.434 838 899.247 838H896.895ZM922.049 821.032C921.862 821.032 921.703 820.967 921.573 820.836C921.442 820.705 921.377 820.547 921.377 820.36V818.344C921.377 818.157 921.442 817.999 921.573 817.868C921.703 817.737 921.862 817.672 922.049 817.672H924.597C924.783 817.672 924.942 817.737 925.073 817.868C925.222 817.999 925.297 818.157 925.297 818.344V820.36C925.297 820.547 925.231 820.705 925.101 820.836C924.97 820.967 924.802 821.032 924.597 821.032H922.049ZM922.161 838C921.974 838 921.815 837.935 921.685 837.804C921.554 837.673 921.489 837.515 921.489 837.328V824.112C921.489 823.925 921.554 823.767 921.685 823.636C921.815 823.505 921.974 823.44 922.161 823.44H924.485C924.69 823.44 924.849 823.505 924.961 823.636C925.091 823.748 925.157 823.907 925.157 824.112V837.328C925.157 837.515 925.091 837.673 924.961 837.804C924.849 837.935 924.69 838 924.485 838H922.161ZM929.543 838C929.357 838 929.198 837.935 929.067 837.804C928.937 837.673 928.871 837.515 928.871 837.328V824.112C928.871 823.925 928.937 823.767 929.067 823.636C929.198 823.505 929.357 823.44 929.543 823.44H931.839C932.026 823.44 932.185 823.505 932.315 823.636C932.446 823.767 932.511 823.925 932.511 824.112V825.26C933.613 823.86 935.171 823.16 937.187 823.16C938.905 823.16 940.267 823.729 941.275 824.868C942.283 825.988 942.787 827.519 942.787 829.46V837.328C942.787 837.515 942.722 837.673 942.591 837.804C942.479 837.935 942.321 838 942.115 838H939.651C939.465 838 939.306 837.935 939.175 837.804C939.045 837.673 938.979 837.515 938.979 837.328V829.628C938.979 828.527 938.709 827.677 938.167 827.08C937.645 826.464 936.879 826.156 935.871 826.156C934.882 826.156 934.098 826.464 933.519 827.08C932.959 827.696 932.679 828.545 932.679 829.628V837.328C932.679 837.515 932.614 837.673 932.483 837.804C932.371 837.935 932.213 838 932.007 838H929.543Z" fill="#060606"/>
</svg>
