<svg width="133" height="128" viewBox="0 0 133 128" fill="none" xmlns="http://www.w3.org/2000/svg">
<path fill-rule="evenodd" clip-rule="evenodd" d="M21.7754 30.8377C21.7754 41.6916 27.8067 51.1421 36.697 56.0164C40.7877 58.2633 45.4829 59.5399 50.4767 59.5399C55.4704 59.5399 60.1656 58.2633 64.2563 56.0164C73.1466 51.1419 79.1707 41.6914 79.1707 30.8377C79.1707 29.8822 79.1259 28.9342 79.0363 28.0011C79.0363 28.0011 62.5694 11.8175 55.3363 15.2439C41.3625 21.8577 39.9815 25.2093 22.492 24.4554C22.0218 26.5081 21.7754 28.6431 21.7754 30.8377Z" fill="#FFEED1"/>
<path fill-rule="evenodd" clip-rule="evenodd" d="M50.4769 2.14307C36.8166 2.14307 25.3884 11.6831 22.4922 24.4553C39.0187 32.2934 44.2291 26.9412 58.2102 20.3274C65.4433 16.901 79.0363 28.0011 79.0363 28.0011C77.6108 13.4821 65.3687 2.14307 50.4769 2.14307V2.14307Z" fill="#B3B3B3"/>
<path fill-rule="evenodd" clip-rule="evenodd" d="M36.6973 56.0161V66.0638L49.0735 76.2384C49.9095 76.716 50.1857 76.955 50.4769 76.9475C50.7679 76.955 51.0442 76.716 51.8803 76.2384L64.2566 66.0638V56.0161C60.1659 58.263 55.4707 59.5396 50.4769 59.5396C45.4832 59.5396 40.788 58.263 36.6973 56.0161V56.0161Z" fill="#FFE4B5"/>
<path fill-rule="evenodd" clip-rule="evenodd" d="M76.9001 77.6416C75.9746 78.5599 75.9746 80.0752 76.9001 80.9932L78.8335 82.9341C77.6092 84.9944 76.6614 87.2488 76.0567 89.63H73.3171C72.0183 89.63 70.9434 90.6974 70.9434 92.0038V99.9389C70.9434 101.238 72.0183 102.305 73.3171 102.305H76.0567C76.6614 104.694 77.6092 106.948 78.8335 109.009L76.9001 110.949C76.1613 111.681 76.0119 112.793 76.4523 113.681C76.5643 113.905 76.7135 114.114 76.9001 114.301L82.5061 119.907C83.4242 120.833 84.9397 120.833 85.8577 119.907L87.7986 117.974C89.8588 119.198 92.1132 120.146 94.4943 120.75V123.49C94.4943 124.789 95.5617 125.856 96.868 125.856H104.803C106.102 125.856 107.169 124.789 107.169 123.49V120.75C109.558 120.146 111.812 119.198 113.872 117.974L115.813 119.907C116.731 120.833 118.239 120.833 119.165 119.907L124.771 114.301C125.696 113.375 125.696 111.867 124.771 110.949L122.837 109.009C124.062 106.948 125.01 104.694 125.614 102.305H128.354C129.653 102.305 130.72 101.238 130.72 99.9389V92.004C130.72 90.6976 129.653 89.6302 128.354 89.6302H125.614C125.01 87.249 124.062 84.9946 122.837 82.9343L124.771 80.9935C125.696 80.0752 125.696 78.5599 124.771 77.6419L119.165 72.0359C118.239 71.1103 116.731 71.1103 115.813 72.0359L113.872 73.9693C111.812 72.745 109.558 71.7969 107.169 71.1924V68.4529C107.169 67.154 106.102 66.0791 104.803 66.0791H96.868C95.5617 66.0791 94.4943 67.154 94.4943 68.4529V71.1924C92.113 71.7972 89.8588 72.745 87.7986 73.9693L85.8577 72.0359C84.9395 71.1103 83.4242 71.1103 82.5061 72.0359L81.9985 72.5436L76.9001 77.6416ZM87.4776 95.9678C87.4776 90.9068 90.2917 86.5024 94.442 84.2407C96.3381 83.2031 98.5177 82.6133 100.832 82.6133C108.214 82.6133 114.193 88.5926 114.193 95.9678C114.193 103.351 108.214 109.33 100.832 109.33C98.7116 109.33 96.6962 108.83 94.9121 107.949C90.5082 105.769 87.4776 101.223 87.4776 95.9678V95.9678Z" fill="#88A0B5"/>
<path fill-rule="evenodd" clip-rule="evenodd" d="M51.8791 76.2379C51.0432 76.7156 50.767 76.9546 50.4757 76.9471C50.1847 76.9546 49.9085 76.7156 49.0723 76.2379L36.6961 66.0634C35.6212 65.4514 35.0912 65.0781 33.9042 65.4887C12.8394 72.6922 2.14258 85.5988 2.14258 97.5351V101.842C2.14258 104.671 3.21749 106.605 6.80801 108.351C17.3257 113.465 35.2631 116.018 50.4759 116.018C58.8736 116.018 68.0998 115.242 76.4527 113.681C76.0123 112.793 76.1617 111.681 76.9005 110.949L78.8339 109.009C77.6097 106.948 76.6618 104.694 76.0571 102.305H73.3175C72.0187 102.305 70.9438 101.238 70.9438 99.9389V92.0037C70.9438 90.6974 72.0187 89.6299 73.3175 89.6299H76.0571C76.6618 87.2487 77.6097 84.9943 78.8339 82.9341L76.9003 80.9932C75.9748 80.0749 75.9748 78.5596 76.9003 77.6416L81.9986 72.5431C77.7961 69.8558 72.8096 67.4595 67.047 65.4889C65.86 65.0783 65.3301 65.4516 64.2552 66.0636L51.8791 76.2379Z" fill="#599AC1"/>
<path fill-rule="evenodd" clip-rule="evenodd" d="M94.4429 84.2407C90.2926 86.5025 87.4785 90.9067 87.4785 95.9678C87.4785 101.223 90.5091 105.769 94.9133 107.949C96.6973 108.83 98.7128 109.33 100.833 109.33C108.215 109.33 114.194 103.35 114.194 95.9678C114.194 88.5926 108.215 82.6133 100.833 82.6133C98.5186 82.6135 96.339 83.2032 94.4429 84.2407V84.2407Z" fill="#D6D6D6"/>
<path fill-rule="evenodd" clip-rule="evenodd" d="M69.5698 30.8377C69.5698 41.6916 63.5459 51.1421 54.6481 56.0164C51.9011 57.5242 48.878 58.5993 45.6758 59.1368C47.2359 59.398 48.8407 59.5399 50.4756 59.5399C55.4693 59.5399 60.1645 58.2633 64.2552 56.0164C73.1455 51.1418 79.1696 41.6914 79.1696 30.8377C79.1696 29.8822 79.1248 28.9342 79.0352 28.0011C79.0352 28.0011 73.6907 23.6342 67.9205 21.2231C68.6819 23.373 69.1969 25.6424 69.4283 28.0011C69.525 28.9342 69.5698 29.8822 69.5698 30.8377V30.8377Z" fill="#FFE4B5"/>
<path fill-rule="evenodd" clip-rule="evenodd" d="M45.6758 2.53866C56.0218 4.28538 64.4865 11.5635 67.9203 21.2231C73.6905 23.6342 79.035 28.0011 79.035 28.0011C77.6093 13.4821 65.3672 2.14307 50.4754 2.14307C48.8407 2.14307 47.2359 2.27743 45.6758 2.53866V2.53866Z" fill="#919191"/>
<path fill-rule="evenodd" clip-rule="evenodd" d="M36.6973 56.0161V62.8912C40.788 65.138 45.4832 66.4146 50.4769 66.4146C55.4707 66.4146 60.1659 65.138 64.2566 62.8912V56.0161C60.1659 58.263 55.4707 59.5396 50.4769 59.5396C48.8423 59.5396 47.2372 59.3977 45.6771 59.1365C42.4674 58.599 39.4443 57.5239 36.6973 56.0161Z" fill="#F5D296"/>
<path fill-rule="evenodd" clip-rule="evenodd" d="M49.252 116.018H50.4762C58.8738 116.018 68.1001 115.242 76.453 113.682C76.0126 112.793 76.1619 111.681 76.9008 110.95L78.8342 109.009C77.6099 106.949 76.6621 104.694 76.0574 102.305H73.3178C72.019 102.305 70.9441 101.238 70.9441 99.9391V92.004C70.9441 90.6976 72.019 89.6302 73.3178 89.6302H76.0574C76.6621 87.249 77.6099 84.9946 78.8342 82.9343L76.9006 80.9935C75.9751 80.0752 75.9751 78.5599 76.9006 77.6419L81.9989 72.5433C77.7964 69.8561 72.8099 67.4598 67.0473 65.4891C65.8603 65.0786 65.3304 65.4519 64.2555 66.0639C65.6814 80.7247 60.0008 105.575 49.252 116.018V116.018Z" fill="#90B2B6"/>
<path fill-rule="evenodd" clip-rule="evenodd" d="M105.311 94.7287C105.311 99.6554 104.803 104.433 103.848 108.986C109.774 107.62 114.194 102.313 114.194 95.9678C114.194 89.8093 110.021 84.6212 104.34 83.0762C104.975 86.8386 105.311 90.7351 105.311 94.7287V94.7287Z" fill="#B3B3B3"/>
<path fill-rule="evenodd" clip-rule="evenodd" d="M104.341 83.076C110.022 84.6213 114.195 89.8092 114.195 95.9676C114.195 102.313 109.776 107.62 103.849 108.986C102.58 115.078 100.512 120.766 97.7949 125.857H104.804C106.103 125.857 107.17 124.789 107.17 123.49V120.751C109.559 120.146 111.813 119.198 113.874 117.974L115.814 119.907C116.732 120.833 118.24 120.833 119.166 119.907L124.772 114.301C125.698 113.376 125.698 111.868 124.772 110.95L122.839 109.009C124.063 106.949 125.011 104.694 125.615 102.306H128.355C129.654 102.306 130.721 101.238 130.721 99.9394V92.004C130.721 90.6976 129.654 89.6302 128.355 89.6302H125.615C125.011 87.249 124.063 84.9946 122.839 82.9343L124.772 80.9935C125.698 80.0752 125.698 78.5599 124.772 77.6419L119.166 72.0359C118.24 71.1103 116.732 71.1103 115.814 72.0359L113.874 73.9693C111.813 72.745 109.559 71.7969 107.17 71.1924V68.4529C107.17 67.154 106.103 66.0791 104.804 66.0791H99.049C101.505 71.2668 103.319 76.9848 104.341 83.076Z" fill="#748FA6"/>
<path d="M128.355 87.4869H127.228C126.767 86.0514 126.187 84.6533 125.493 83.3056L126.279 82.5166C127.136 81.6669 127.608 80.5305 127.608 79.3167C127.608 78.1051 127.136 76.9687 126.286 76.1273L120.679 70.5209C119.827 69.6672 118.693 69.2004 117.487 69.2004C117.483 69.2004 117.48 69.2004 117.477 69.2004C116.27 69.2026 115.139 69.6734 114.302 70.5188L113.502 71.314C112.152 70.6193 110.751 70.0396 109.313 69.5791V68.4532C109.313 65.9628 107.29 63.935 104.803 63.935H96.8686C94.3783 63.935 92.3525 65.9628 92.3525 68.4532V69.5791C90.9159 70.0394 89.5178 70.6212 88.1712 71.314L87.3792 70.525C86.5295 69.6712 85.3941 69.1983 84.1825 69.1983H84.1814C83.3054 69.1998 82.4733 69.4539 81.759 69.9112C77.5908 67.4055 72.9047 65.2261 67.7514 63.4663C67.2557 63.2946 66.8089 63.2089 66.3985 63.183V57.2033C75.3196 51.7921 81.3135 42.0146 81.3135 30.8385C81.3135 13.8349 67.4794 0 50.4761 0C33.4685 0 19.6323 13.8352 19.6323 30.8385C19.6323 42.0159 25.6285 51.7945 34.5535 57.2054V63.1817C34.1457 63.2076 33.7023 63.2921 33.2109 63.4622C12.726 70.4667 0 83.5233 0 97.5361V101.843C0 105.757 1.75573 108.278 5.87106 110.279C17.8363 116.097 37.3771 118.162 50.4757 118.162C58.8444 118.162 67.6787 117.381 75.5639 115.995L80.9856 121.416C81.8342 122.272 82.9696 122.743 84.1812 122.745H84.1823C85.3939 122.745 86.5293 122.272 87.3706 121.425L88.171 120.629C89.5176 121.322 90.9157 121.904 92.3523 122.364V123.49C92.3523 125.976 94.378 128 96.8684 128H104.803C107.29 128 109.313 125.976 109.313 123.49V122.364C110.75 121.904 112.152 121.324 113.501 120.629L114.292 121.416C115.139 122.27 116.27 122.741 117.476 122.743H117.487C118.693 122.743 119.827 122.274 120.68 121.422L126.285 115.816C127.14 114.962 127.61 113.824 127.608 112.612C127.605 111.405 127.133 110.275 126.29 109.439L125.493 108.638C126.188 107.288 126.768 105.886 127.229 104.448H128.354C130.841 104.448 132.863 102.425 132.863 99.9384V92.0049C132.863 89.5148 130.841 87.4869 128.355 87.4869V87.4869ZM50.4757 4.28613C62.413 4.28613 72.5302 12.2072 75.8614 23.0675C70.8604 19.8117 62.8894 15.7469 57.2929 18.3892C55.2661 19.3496 53.4222 20.281 51.701 21.1516C42.0854 26.014 37.032 28.5378 25.0364 23.252C28.3111 12.2984 38.4693 4.28613 50.4757 4.28613ZM24.5617 25.0934C24.586 25.2657 24.5746 25.4249 24.5101 25.5608C24.4953 25.5919 24.4565 25.6077 24.4368 25.6356C24.4732 25.4528 24.5215 25.2747 24.5617 25.0934V25.0934ZM23.9178 30.8387C23.9178 29.7183 24.0101 28.6216 24.1456 27.5375C29.092 29.6157 33.1104 30.4767 36.692 30.4767C42.7589 30.4767 47.5898 28.0325 53.6348 24.977C55.3258 24.1211 57.136 23.2065 59.1272 22.2628C63.2809 20.299 71.9258 25.1888 76.938 29.0752C76.9768 29.6609 77.0274 30.2436 77.0274 30.8387C77.0274 45.4837 65.1166 57.3977 50.4759 57.3977C35.8318 57.3974 23.9178 45.4837 23.9178 30.8387V30.8387ZM62.1124 59.3859V65.0508L50.6452 74.4785L50.4757 74.579L38.839 65.0484V59.387C42.4336 60.8577 46.358 61.6836 50.4757 61.6836C54.5932 61.6834 58.518 60.8572 62.1124 59.3859ZM75.3919 109.429C74.722 110.092 74.2981 110.933 74.1404 111.847C74.1335 111.874 74.1189 111.892 74.1142 111.922C66.6557 113.186 58.3423 113.876 50.4757 113.876C33.827 113.876 17.0547 110.951 7.7453 106.424C4.82059 105.003 4.28592 103.766 4.28592 101.843V97.5361C4.28592 85.413 15.9005 73.9113 34.7541 67.4531C34.8619 67.4824 35.182 67.6665 35.4394 67.8131L47.7113 77.8938C47.8053 77.9711 47.9048 78.0403 48.0104 78.0989L48.5534 78.4211C49.1164 78.7602 49.7201 79.097 50.414 79.0908C51.227 79.0782 51.836 78.7602 52.4001 78.4211L52.942 78.0989C53.0477 78.0403 53.1471 77.9711 53.2412 77.8938L65.4753 67.8341L65.512 67.8131C65.7693 67.6665 66.0906 67.4824 66.1399 67.4595L66.3554 67.518C70.8076 69.0395 74.899 70.8664 78.5519 72.9611L75.3919 76.1211C74.536 76.9687 74.0641 78.1051 74.0641 79.3167C74.0641 79.3171 74.0643 79.3173 74.0643 79.3178C74.0643 79.3182 74.0641 79.3184 74.0641 79.3188C74.0641 79.3203 74.0647 79.3214 74.0647 79.3229C74.0662 80.5343 74.5375 81.6684 75.3824 82.5061L76.1798 83.3054C75.4851 84.6531 74.9054 86.0512 74.4438 87.4867H73.3179C70.8276 87.4867 68.8008 89.5146 68.8008 92.0049V99.9384C68.8008 102.425 70.8276 104.448 73.3179 104.448H74.4427C74.9031 105.888 75.4838 107.288 76.1796 108.638L75.3919 109.429ZM128.578 99.9386C128.578 100.054 128.469 100.163 128.355 100.163H125.614C124.633 100.163 123.777 100.83 123.536 101.78C122.994 103.928 122.139 105.991 120.997 107.914C120.496 108.753 120.629 109.827 121.319 110.519L123.252 112.462C123.256 112.466 123.252 112.782 123.256 112.786L117.651 118.392L119.166 119.908L117.326 118.39L115.385 116.457C114.694 115.764 113.621 115.632 112.779 116.132C110.854 117.275 108.791 118.131 106.644 118.673C105.694 118.913 105.027 119.769 105.027 120.751V123.49C105.027 123.605 104.918 123.714 104.803 123.714H96.8686C96.7482 123.714 96.6384 123.607 96.6384 123.49V120.751C96.6384 119.771 95.9731 118.916 95.0229 118.675C92.8778 118.128 90.8154 117.273 88.8953 116.132C88.5541 115.929 88.1765 115.831 87.8009 115.831C87.2474 115.831 86.7 116.044 86.2877 116.457L84.3467 118.39C84.3434 118.392 84.0254 118.39 84.0222 118.392L78.4158 112.786L78.419 112.464L80.3526 110.521C81.0433 109.827 81.1761 108.755 80.676 107.914C79.5333 105.991 78.6785 103.927 78.1344 101.78C77.8938 100.828 77.0389 100.162 76.0575 100.162H73.3181C73.2009 100.162 73.0869 100.051 73.0869 99.9384V92.0049C73.0869 91.8856 73.1988 91.7726 73.3181 91.7726H76.0575C77.0379 91.7726 77.8927 91.1073 78.1344 90.1571C78.6785 88.012 79.5344 85.9506 80.676 84.0295C81.1761 83.1882 81.0433 82.1167 80.3526 81.4219L78.419 79.4798C78.4158 79.4776 78.419 79.1618 78.4158 79.1575L84.0222 73.5511H84.0378C84.1006 73.5511 84.337 73.5656 84.3464 73.5532L86.2875 75.4868C86.9812 76.1794 88.0516 76.3133 88.8951 75.8112C90.8152 74.6708 92.8776 73.8149 95.0227 73.2686C95.9728 73.028 96.6382 72.1721 96.6382 71.1925V68.4532C96.6382 68.3338 96.7501 68.2209 96.8684 68.2209H104.803C104.916 68.2209 105.027 68.336 105.027 68.4532V71.1925C105.027 72.174 105.693 73.0299 106.643 73.2705C108.791 73.8125 110.854 74.6684 112.778 75.811C113.62 76.3133 114.693 76.1794 115.385 75.4866L117.326 73.553C117.329 73.5509 117.647 73.553 117.65 73.5508L123.256 79.1573C123.258 79.1594 123.249 79.4774 123.251 79.4817L121.319 81.4239C120.629 82.1165 120.496 83.1901 120.996 84.0293C122.139 85.9526 122.994 88.0139 123.537 90.1568C123.778 91.107 124.633 91.7724 125.614 91.7724H128.354C128.47 91.7724 128.577 91.8834 128.577 92.0047V99.9386H128.578Z" fill="black"/>
<path d="M100.833 80.4692C92.2879 80.4692 85.3359 87.4212 85.3359 95.968C85.3359 104.517 92.2879 111.473 100.833 111.473C109.382 111.473 116.338 104.517 116.338 95.968C116.338 87.4214 109.383 80.4692 100.833 80.4692ZM100.833 107.187C94.6505 107.187 89.6219 102.154 89.6219 95.968C89.6219 89.786 94.6507 84.7552 100.833 84.7552C107.019 84.7552 112.052 89.7862 112.052 95.968C112.052 102.154 107.019 107.187 100.833 107.187Z" fill="black"/>
<path d="M50.7218 86.4565H50.6696C49.4862 86.4565 48.5527 87.4151 48.5527 88.5995C48.5527 89.7839 49.5385 90.7425 50.7218 90.7425C51.9052 90.7425 52.8648 89.7839 52.8648 88.5995C52.8648 87.4151 51.9054 86.4565 50.7218 86.4565Z" fill="black"/>
<path d="M50.6711 99.8799H50.6188C49.4354 99.8799 48.502 100.838 48.502 102.023C48.502 103.207 49.4877 104.166 50.6711 104.166C51.8544 104.166 52.814 103.207 52.814 102.023C52.814 100.838 51.8546 99.8799 50.6711 99.8799Z" fill="black"/>
</svg>
