<svg width="350" height="234" viewBox="0 0 350 234" fill="none" xmlns="http://www.w3.org/2000/svg">
<rect width="350" height="234" rx="28" fill="#0A8996"/>
<path d="M89.7859 192.273H93.3224V203.136C93.3224 204.355 93.0311 205.423 92.4485 206.337C91.8713 207.252 91.0627 207.965 90.0227 208.477C88.9827 208.984 87.7712 209.237 86.3881 209.237C84.9996 209.237 83.7854 208.984 82.7454 208.477C81.7054 207.965 80.8968 207.252 80.3196 206.337C79.7424 205.423 79.4538 204.355 79.4538 203.136V192.273H82.9904V202.833C82.9904 203.471 83.1293 204.037 83.407 204.532C83.6901 205.028 84.0876 205.417 84.5994 205.7C85.1113 205.983 85.7075 206.125 86.3881 206.125C87.0742 206.125 87.6705 205.983 88.1768 205.7C88.6887 205.417 89.0835 205.028 89.3612 204.532C89.6443 204.037 89.7859 203.471 89.7859 202.833V192.273ZM102.84 196.455V199.068H95.2847V196.455H102.84ZM96.9999 193.449H100.479V205.145C100.479 205.466 100.528 205.717 100.626 205.896C100.724 206.071 100.86 206.193 101.035 206.264C101.214 206.335 101.421 206.37 101.655 206.37C101.819 206.37 101.982 206.356 102.146 206.329C102.309 206.297 102.434 206.272 102.521 206.256L103.068 208.845C102.894 208.899 102.649 208.962 102.333 209.033C102.018 209.109 101.634 209.155 101.182 209.172C100.343 209.204 99.6081 209.093 98.9765 208.837C98.3503 208.581 97.863 208.183 97.5145 207.644C97.166 207.105 96.9945 206.424 96.9999 205.602V193.449ZM105.106 209V196.455H108.586V209H105.106ZM106.854 194.837C106.337 194.837 105.893 194.666 105.523 194.323C105.158 193.974 104.976 193.558 104.976 193.073C104.976 192.594 105.158 192.183 105.523 191.84C105.893 191.491 106.337 191.317 106.854 191.317C107.371 191.317 107.812 191.491 108.177 191.84C108.548 192.183 108.733 192.594 108.733 193.073C108.733 193.558 108.548 193.974 108.177 194.323C107.812 194.666 107.371 194.837 106.854 194.837ZM114.852 192.273V209H111.373V192.273H114.852ZM117.639 209V196.455H121.119V209H117.639ZM119.387 194.837C118.87 194.837 118.426 194.666 118.056 194.323C117.691 193.974 117.509 193.558 117.509 193.073C117.509 192.594 117.691 192.183 118.056 191.84C118.426 191.491 118.87 191.317 119.387 191.317C119.905 191.317 120.346 191.491 120.71 191.84C121.081 192.183 121.266 192.594 121.266 193.073C121.266 193.558 121.081 193.974 120.71 194.323C120.346 194.666 119.905 194.837 119.387 194.837ZM130.579 196.455V199.068H123.024V196.455H130.579ZM124.739 193.449H128.219V205.145C128.219 205.466 128.268 205.717 128.366 205.896C128.464 206.071 128.6 206.193 128.774 206.264C128.954 206.335 129.161 206.37 129.395 206.37C129.558 206.37 129.721 206.356 129.885 206.329C130.048 206.297 130.173 206.272 130.26 206.256L130.808 208.845C130.633 208.899 130.388 208.962 130.073 209.033C129.757 209.109 129.373 209.155 128.921 209.172C128.082 209.204 127.347 209.093 126.716 208.837C126.09 208.581 125.602 208.183 125.254 207.644C124.905 207.105 124.734 206.424 124.739 205.602V193.449ZM134.994 213.705C134.553 213.705 134.139 213.669 133.752 213.598C133.371 213.533 133.055 213.449 132.805 213.345L133.589 210.748C133.997 210.873 134.365 210.941 134.691 210.952C135.024 210.963 135.309 210.887 135.549 210.723C135.794 210.56 135.993 210.282 136.145 209.89L136.349 209.359L131.849 196.455H135.508L138.105 205.668H138.236L140.858 196.455H144.542L139.665 210.356C139.431 211.031 139.113 211.619 138.71 212.12C138.312 212.626 137.809 213.016 137.199 213.288C136.589 213.566 135.854 213.705 134.994 213.705ZM151.711 209V192.273H158.31C159.579 192.273 160.66 192.515 161.553 193C162.446 193.479 163.126 194.146 163.595 195.001C164.068 195.85 164.305 196.83 164.305 197.941C164.305 199.052 164.066 200.032 163.586 200.881C163.107 201.731 162.413 202.392 161.504 202.866C160.6 203.34 159.505 203.577 158.22 203.577H154.014V200.743H157.649C158.329 200.743 158.89 200.625 159.331 200.391C159.778 200.152 160.11 199.822 160.328 199.403C160.551 198.978 160.662 198.491 160.662 197.941C160.662 197.386 160.551 196.901 160.328 196.487C160.11 196.068 159.778 195.744 159.331 195.515C158.885 195.281 158.318 195.164 157.632 195.164H155.247V209H151.711ZM169.777 209.237C168.977 209.237 168.264 209.098 167.638 208.82C167.011 208.537 166.516 208.121 166.151 207.571C165.792 207.015 165.612 206.324 165.612 205.496C165.612 204.799 165.74 204.214 165.996 203.74C166.252 203.266 166.6 202.885 167.041 202.597C167.482 202.308 167.983 202.09 168.544 201.943C169.11 201.796 169.704 201.693 170.325 201.633C171.054 201.557 171.642 201.486 172.089 201.42C172.535 201.35 172.859 201.246 173.061 201.11C173.262 200.974 173.363 200.772 173.363 200.506V200.457C173.363 199.939 173.2 199.539 172.873 199.256C172.552 198.973 172.094 198.831 171.501 198.831C170.875 198.831 170.376 198.97 170.006 199.248C169.636 199.52 169.391 199.863 169.271 200.277L166.053 200.016C166.216 199.253 166.538 198.594 167.017 198.039C167.496 197.478 168.114 197.048 168.871 196.749C169.633 196.444 170.515 196.291 171.517 196.291C172.214 196.291 172.881 196.373 173.518 196.536C174.161 196.7 174.73 196.953 175.225 197.296C175.726 197.639 176.121 198.08 176.41 198.619C176.698 199.153 176.842 199.792 176.842 200.538V209H173.543V207.26H173.445C173.243 207.652 172.974 207.998 172.636 208.298C172.299 208.592 171.893 208.823 171.419 208.992C170.945 209.155 170.398 209.237 169.777 209.237ZM170.774 206.836C171.286 206.836 171.738 206.735 172.13 206.533C172.522 206.326 172.829 206.049 173.053 205.7C173.276 205.352 173.388 204.957 173.388 204.516V203.185C173.279 203.255 173.129 203.321 172.938 203.381C172.753 203.435 172.544 203.487 172.309 203.536C172.075 203.579 171.841 203.62 171.607 203.658C171.373 203.691 171.16 203.721 170.97 203.748C170.562 203.808 170.205 203.903 169.9 204.034C169.595 204.165 169.358 204.342 169.189 204.565C169.021 204.783 168.936 205.055 168.936 205.382C168.936 205.855 169.108 206.218 169.451 206.468C169.799 206.713 170.24 206.836 170.774 206.836ZM181.241 213.705C180.8 213.705 180.386 213.669 179.999 213.598C179.618 213.533 179.302 213.449 179.052 213.345L179.836 210.748C180.244 210.873 180.612 210.941 180.938 210.952C181.271 210.963 181.556 210.887 181.796 210.723C182.041 210.56 182.24 210.282 182.392 209.89L182.597 209.359L178.096 196.455H181.755L184.353 205.668H184.483L187.105 196.455H190.789L185.913 210.356C185.678 211.031 185.36 211.619 184.957 212.12C184.559 212.626 184.056 213.016 183.446 213.288C182.836 213.566 182.101 213.705 181.241 213.705ZM192.569 209V196.455H195.885V198.668H196.032C196.294 197.933 196.729 197.353 197.339 196.928C197.949 196.504 198.679 196.291 199.528 196.291C200.388 196.291 201.121 196.506 201.725 196.936C202.329 197.361 202.732 197.938 202.934 198.668H203.065C203.32 197.949 203.783 197.375 204.453 196.945C205.128 196.509 205.926 196.291 206.846 196.291C208.017 196.291 208.967 196.664 209.697 197.41C210.432 198.151 210.799 199.202 210.799 200.563V209H207.328V201.249C207.328 200.552 207.143 200.029 206.773 199.681C206.402 199.332 205.94 199.158 205.384 199.158C204.753 199.158 204.26 199.359 203.906 199.762C203.552 200.16 203.375 200.685 203.375 201.339V209H200.002V201.175C200.002 200.56 199.825 200.07 199.471 199.705C199.122 199.34 198.662 199.158 198.09 199.158C197.704 199.158 197.355 199.256 197.045 199.452C196.74 199.643 196.498 199.912 196.318 200.261C196.138 200.604 196.049 201.007 196.049 201.469V209H192.569ZM219.265 209.245C217.975 209.245 216.864 208.984 215.933 208.461C215.007 207.933 214.294 207.187 213.793 206.223C213.292 205.254 213.041 204.108 213.041 202.784C213.041 201.494 213.292 200.361 213.793 199.387C214.294 198.412 214.999 197.652 215.908 197.108C216.823 196.563 217.896 196.291 219.126 196.291C219.954 196.291 220.724 196.425 221.438 196.691C222.156 196.953 222.783 197.348 223.316 197.876C223.855 198.404 224.274 199.068 224.574 199.869C224.873 200.664 225.023 201.595 225.023 202.662V203.618H214.43V201.461H221.748C221.748 200.96 221.639 200.517 221.421 200.13C221.203 199.743 220.901 199.441 220.515 199.223C220.133 199 219.69 198.888 219.183 198.888C218.655 198.888 218.187 199.011 217.778 199.256C217.376 199.496 217.06 199.82 216.831 200.228C216.602 200.631 216.485 201.08 216.48 201.576V203.626C216.48 204.246 216.594 204.783 216.823 205.235C217.057 205.687 217.386 206.035 217.811 206.28C218.236 206.525 218.74 206.648 219.322 206.648C219.709 206.648 220.063 206.593 220.384 206.484C220.705 206.375 220.98 206.212 221.209 205.994C221.438 205.777 221.612 205.51 221.732 205.194L224.95 205.406C224.786 206.179 224.451 206.855 223.945 207.432C223.444 208.004 222.796 208.45 222.001 208.771C221.212 209.087 220.3 209.245 219.265 209.245ZM230.773 201.747V209H227.294V196.455H230.61V198.668H230.757C231.035 197.938 231.5 197.361 232.153 196.936C232.807 196.506 233.599 196.291 234.53 196.291C235.401 196.291 236.161 196.482 236.809 196.863C237.457 197.244 237.961 197.789 238.32 198.496C238.679 199.199 238.859 200.037 238.859 201.012V209H235.38V201.633C235.385 200.865 235.189 200.266 234.792 199.836C234.394 199.4 233.847 199.183 233.15 199.183C232.682 199.183 232.268 199.283 231.908 199.485C231.555 199.686 231.277 199.98 231.075 200.367C230.879 200.748 230.779 201.208 230.773 201.747ZM248.274 196.455V199.068H240.719V196.455H248.274ZM242.434 193.449H245.914V205.145C245.914 205.466 245.963 205.717 246.061 205.896C246.159 206.071 246.295 206.193 246.469 206.264C246.649 206.335 246.856 206.37 247.09 206.37C247.253 206.37 247.417 206.356 247.58 206.329C247.743 206.297 247.869 206.272 247.956 206.256L248.503 208.845C248.329 208.899 248.084 208.962 247.768 209.033C247.452 209.109 247.068 209.155 246.616 209.172C245.778 209.204 245.043 209.093 244.411 208.837C243.785 208.581 243.298 208.183 242.949 207.644C242.601 207.105 242.429 206.424 242.434 205.602V193.449ZM255.929 209V192.273H259.466V206.084H266.637V209H255.929ZM268.914 209V196.455H272.393V209H268.914ZM270.662 194.837C270.144 194.837 269.701 194.666 269.33 194.323C268.966 193.974 268.783 193.558 268.783 193.073C268.783 192.594 268.966 192.183 269.33 191.84C269.701 191.491 270.144 191.317 270.662 191.317C271.179 191.317 271.62 191.491 271.985 191.84C272.355 192.183 272.54 192.594 272.54 193.073C272.54 193.558 272.355 193.974 271.985 194.323C271.62 194.666 271.179 194.837 270.662 194.837ZM285.619 200.032L282.433 200.228C282.379 199.956 282.262 199.711 282.082 199.493C281.902 199.27 281.666 199.093 281.372 198.962C281.083 198.826 280.737 198.758 280.334 198.758C279.795 198.758 279.341 198.872 278.97 199.101C278.6 199.324 278.415 199.624 278.415 199.999C278.415 200.299 278.535 200.552 278.774 200.759C279.014 200.966 279.425 201.132 280.008 201.257L282.278 201.714C283.498 201.965 284.407 202.368 285.006 202.923C285.605 203.479 285.905 204.208 285.905 205.112C285.905 205.934 285.662 206.656 285.178 207.277C284.698 207.897 284.04 208.382 283.201 208.73C282.368 209.074 281.407 209.245 280.318 209.245C278.657 209.245 277.334 208.899 276.348 208.208C275.368 207.511 274.794 206.563 274.625 205.365L278.047 205.186C278.151 205.692 278.401 206.079 278.799 206.346C279.196 206.607 279.705 206.738 280.326 206.738C280.936 206.738 281.426 206.621 281.796 206.386C282.172 206.147 282.363 205.839 282.368 205.463C282.363 205.148 282.229 204.889 281.968 204.688C281.706 204.481 281.303 204.323 280.759 204.214L278.586 203.781C277.361 203.536 276.449 203.111 275.85 202.507C275.257 201.902 274.96 201.132 274.96 200.195C274.96 199.389 275.178 198.695 275.613 198.113C276.054 197.53 276.672 197.081 277.467 196.765C278.268 196.449 279.204 196.291 280.277 196.291C281.862 196.291 283.109 196.626 284.018 197.296C284.933 197.966 285.466 198.878 285.619 200.032ZM294.768 196.455V199.068H287.213V196.455H294.768ZM288.929 193.449H292.408V205.145C292.408 205.466 292.457 205.717 292.555 205.896C292.653 206.071 292.789 206.193 292.963 206.264C293.143 206.335 293.35 206.37 293.584 206.37C293.748 206.37 293.911 206.356 294.074 206.329C294.238 206.297 294.363 206.272 294.45 206.256L294.997 208.845C294.823 208.899 294.578 208.962 294.262 209.033C293.946 209.109 293.562 209.155 293.11 209.172C292.272 209.204 291.537 209.093 290.905 208.837C290.279 208.581 289.792 208.183 289.443 207.644C289.095 207.105 288.923 206.424 288.929 205.602V193.449Z" fill="white"/>
<circle cx="175.5" cy="93.5" r="70.5" fill="white"/>
<path d="M152.714 59.0796V64.8574H139.343C138.949 64.8574 138.571 64.7052 138.292 64.4344C138.013 64.1635 137.857 63.7961 137.857 63.413V59.0796C137.857 57.1642 138.64 55.3272 140.033 53.9728C141.426 52.6183 143.315 51.8574 145.286 51.8574C147.256 51.8574 149.145 52.6183 150.538 53.9728C151.931 55.3272 152.714 57.1642 152.714 59.0796Z" fill="#9E9E9E"/>
<path d="M144.857 51.8574C144.055 51.8675 143.26 51.9917 142.5 52.2258C144.091 52.6818 145.482 53.5923 146.471 54.8249C147.46 56.0575 147.996 57.548 148 59.0796V64.8574H152.714V59.0796C152.714 58.1312 152.511 57.1921 152.116 56.3158C151.721 55.4396 151.143 54.6434 150.413 53.9728C149.683 53.3021 148.817 52.7701 147.864 52.4072C146.911 52.0442 145.889 51.8574 144.857 51.8574Z" fill="#707070"/>
<path d="M207.5 59.3817V136.626C207.501 136.899 207.428 137.166 207.288 137.4C207.148 137.635 206.947 137.827 206.706 137.957C206.464 138.086 206.192 138.149 205.917 138.137C205.643 138.125 205.377 138.04 205.148 137.89L199.23 133.978C198.979 133.816 198.687 133.729 198.388 133.729C198.089 133.729 197.796 133.816 197.546 133.978L190.141 138.884C189.893 139.053 189.599 139.143 189.298 139.143C188.998 139.143 188.704 139.053 188.456 138.884L181.036 133.978C180.786 133.816 180.493 133.729 180.194 133.729C179.895 133.729 179.602 133.816 179.352 133.978L171.932 138.884C171.684 139.053 171.39 139.143 171.089 139.143C170.789 139.143 170.495 139.053 170.247 138.884L162.812 133.978C162.561 133.816 162.269 133.729 161.97 133.729C161.671 133.729 161.378 133.816 161.128 133.978L155.24 137.875C155.012 138.028 154.745 138.117 154.47 138.131C154.195 138.146 153.921 138.085 153.677 137.957C153.434 137.829 153.231 137.637 153.089 137.402C152.947 137.168 152.872 136.9 152.873 136.626V59.3817C152.873 58.3936 152.677 57.4152 152.295 56.5023C151.914 55.5894 151.355 54.7599 150.651 54.0612C149.946 53.3625 149.11 52.8083 148.189 52.4302C147.269 52.052 146.282 51.8574 145.286 51.8574H199.913C200.909 51.8574 201.896 52.052 202.816 52.4302C203.737 52.8083 204.573 53.3625 205.278 54.0612C205.982 54.7599 206.541 55.5894 206.922 56.5023C207.304 57.4152 207.5 58.3936 207.5 59.3817Z" fill="#F5F5F5"/>
<path d="M199.955 51.8574H195.429C196.419 51.8574 197.401 52.0522 198.316 52.4307C199.231 52.8092 200.063 53.364 200.764 54.0633C201.464 54.7627 202.02 55.5929 202.399 56.5066C202.778 57.4204 202.973 58.3997 202.973 59.3888V136.51L205.161 137.966C205.389 138.116 205.653 138.201 205.925 138.213C206.198 138.225 206.468 138.163 206.708 138.034C206.948 137.904 207.148 137.713 207.288 137.479C207.427 137.245 207.501 136.978 207.5 136.706V59.3888C207.5 58.3997 207.305 57.4204 206.926 56.5066C206.547 55.5929 205.991 54.7627 205.29 54.0633C204.59 53.364 203.758 52.8092 202.843 52.4307C201.927 52.0522 200.946 51.8574 199.955 51.8574Z" fill="#CFD8DC"/>
<path d="M197.975 59.2861H191.106C190.816 59.286 190.533 59.3734 190.297 59.5358C190.061 59.6983 189.884 59.9277 189.791 60.1917L185.286 71.1191C185.216 71.3185 185.197 71.5307 185.23 71.7385C185.263 71.9464 185.346 72.1438 185.474 72.3146C185.601 72.4855 185.769 72.6249 185.964 72.7214C186.158 72.8179 186.374 72.8688 186.593 72.8699H190.888L187.535 82.1205C187.453 82.3396 187.456 82.5796 187.541 82.7973C187.627 83.0151 187.791 83.1962 188.004 83.3083C188.217 83.4203 188.464 83.4559 188.702 83.4086C188.94 83.3613 189.152 83.2342 189.3 83.0502L199.779 70.4882C199.939 70.2913 200.038 70.0552 200.064 69.8069C200.091 69.5587 200.044 69.3083 199.929 69.0844C199.814 68.8605 199.636 68.6722 199.415 68.5409C199.193 68.4096 198.938 68.3407 198.678 68.342H194.645L199.152 61.3207C199.282 61.1192 199.355 60.8879 199.361 60.6507C199.367 60.4134 199.307 60.1789 199.187 59.9714C199.067 59.7639 198.891 59.591 198.678 59.4705C198.465 59.35 198.222 59.2864 197.975 59.2861Z" fill="#FFDF00"/>
<path d="M198.633 68.342H194.464L199.115 61.3207C199.25 61.1192 199.325 60.8879 199.331 60.6507C199.338 60.4134 199.276 60.1789 199.152 59.9714C199.028 59.7639 198.847 59.591 198.627 59.4705C198.407 59.35 198.156 59.2864 197.901 59.2861H193.03C193.285 59.2864 193.536 59.35 193.756 59.4705C193.976 59.591 194.157 59.7639 194.281 59.9714C194.405 60.1789 194.467 60.4134 194.46 60.6507C194.454 60.8879 194.38 61.1192 194.245 61.3207L189.593 68.342H193.762C194.031 68.3407 194.294 68.4096 194.523 68.5409C194.751 68.6722 194.935 68.8605 195.053 69.0844C195.172 69.3083 195.22 69.5587 195.193 69.8069C195.166 70.0552 195.064 70.2913 194.899 70.4882L188.861 77.502L187.133 82.1205C187.049 82.3396 187.051 82.5796 187.139 82.7973C187.228 83.0151 187.398 83.1962 187.617 83.3083C187.837 83.4203 188.092 83.4559 188.337 83.4086C188.582 83.3613 188.801 83.2342 188.955 83.0502L199.77 70.4882C199.935 70.2913 200.037 70.0552 200.064 69.8069C200.091 69.5587 200.043 69.3083 199.924 69.0844C199.806 68.8605 199.622 68.6722 199.393 68.5409C199.165 68.4096 198.902 68.3407 198.633 68.342Z" fill="#FEC108"/>
<path d="M178.714 75.4584C178.714 79.9647 174.332 83.605 169.007 83.4224C167.696 83.4401 166.398 83.1711 165.209 82.6353C164.02 82.0995 162.97 81.3106 162.137 80.327C161.303 79.3434 160.708 78.1903 160.396 76.953C160.083 75.7157 160.06 74.4259 160.33 73.1789C161.416 68.9277 165.235 65.8984 165.804 60.0163C165.834 59.8658 165.903 59.7253 166.005 59.608C166.107 59.4908 166.237 59.4005 166.385 59.3458C166.532 59.291 166.691 59.2736 166.848 59.2951C167.004 59.3166 167.152 59.3763 167.278 59.4687C170.608 61.8372 178.714 68.3333 178.714 75.4584Z" fill="#FF9801"/>
<path d="M167.444 59.4676C167.32 59.3757 167.174 59.3162 167.02 59.2949C166.867 59.2736 166.71 59.2912 166.565 59.3459C166.42 59.4006 166.291 59.4907 166.191 59.6077C166.091 59.7248 166.023 59.865 165.993 60.0152C165.933 60.5862 165.841 61.1533 165.714 61.7136C169.385 64.8555 174.126 69.9628 174.126 75.4547C174.035 77.3187 173.304 79.0967 172.053 80.4974C170.803 81.898 169.107 82.8382 167.244 83.1639C167.869 83.3106 168.506 83.3974 169.148 83.4233C174.395 83.5923 178.714 79.9541 178.714 75.4547C178.714 68.3307 170.726 61.8358 167.444 59.4676Z" fill="#F57C00"/>
<path d="M199.375 50H145.054C142.653 50.0024 140.352 50.9619 138.654 52.668C136.957 54.374 136.002 56.6873 136 59.1V63.65C136 64.4545 136.318 65.226 136.884 65.7949C137.45 66.3637 138.217 66.6833 139.018 66.6833H151.089V136.946C151.089 137.496 151.237 138.036 151.519 138.508C151.8 138.98 152.204 139.366 152.687 139.625C153.169 139.884 153.713 140.006 154.26 139.978C154.806 139.95 155.335 139.773 155.79 139.467L161.652 135.54L169.035 140.477C169.534 140.817 170.123 140.999 170.726 141C171.32 141.001 171.9 140.819 172.386 140.477L179.765 135.532L187.135 140.471C187.63 140.81 188.215 140.991 188.815 140.991C189.414 140.991 190 140.81 190.495 140.471L197.866 135.54L203.751 139.483C204.206 139.785 204.734 139.956 205.279 139.98C205.823 140.004 206.364 139.88 206.844 139.619C207.324 139.359 207.724 138.973 208.003 138.502C208.282 138.032 208.429 137.494 208.429 136.946V59.1C208.426 56.6873 207.472 54.374 205.774 52.668C204.077 50.9619 201.775 50.0024 199.375 50ZM139.018 63.65V59.1C139.018 57.491 139.654 55.9479 140.786 54.8102C141.918 53.6725 143.453 53.0333 145.054 53.0333C146.654 53.0333 148.19 53.6725 149.321 54.8102C150.453 55.9479 151.089 57.491 151.089 59.1V63.65H139.018ZM199.515 133.004C199.02 132.677 198.44 132.504 197.847 132.506C197.254 132.508 196.675 132.685 196.182 133.016L188.82 137.967L181.426 133.012C180.931 132.685 180.352 132.509 179.759 132.507C179.168 132.508 178.591 132.684 178.099 133.013L170.705 137.958L163.295 133.004C162.798 132.682 162.219 132.511 161.628 132.513C161.036 132.515 160.458 132.689 159.963 133.015L154.107 136.946V59.1C154.109 56.8601 153.285 54.699 151.795 53.0333H199.375C200.976 53.0333 202.511 53.6725 203.643 54.8102C204.775 55.9479 205.411 57.491 205.411 59.1L205.418 136.96L199.515 133.004Z" fill="black"/>
<path d="M199.504 106.643H175.567C175.171 106.643 174.79 106.789 174.509 107.051C174.229 107.312 174.071 107.666 174.071 108.035C174.071 108.405 174.229 108.759 174.509 109.02C174.79 109.282 175.171 109.428 175.567 109.428H199.504C199.901 109.428 200.281 109.282 200.562 109.02C200.842 108.759 201 108.405 201 108.035C201 107.666 200.842 107.312 200.562 107.051C200.281 106.789 199.901 106.643 199.504 106.643Z" fill="black"/>
<path d="M199.508 97.3574H160.707C160.311 97.3574 159.931 97.5042 159.651 97.7654C159.372 98.0266 159.214 98.3809 159.214 98.7503C159.214 99.1197 159.372 99.474 159.651 99.7352C159.931 99.9964 160.311 100.143 160.707 100.143H199.508C199.904 100.143 200.283 99.9964 200.563 99.7352C200.843 99.474 201 99.1197 201 98.7503C201 98.3809 200.843 98.0266 200.563 97.7654C200.283 97.5042 199.904 97.3574 199.508 97.3574Z" fill="black"/>
<path d="M199.508 88.0713H160.707C160.311 88.0713 159.931 88.218 159.651 88.4792C159.372 88.7405 159.214 89.0947 159.214 89.4641C159.214 89.8336 159.372 90.1878 159.651 90.449C159.931 90.7103 160.311 90.857 160.707 90.857H199.508C199.904 90.857 200.283 90.7103 200.563 90.449C200.843 90.1878 201 89.8336 201 89.4641C201 89.0947 200.843 88.7405 200.563 88.4792C200.283 88.218 199.904 88.0713 199.508 88.0713Z" fill="black"/>
<path d="M199.504 124.286H175.567C175.171 124.286 174.79 124.482 174.509 124.83C174.229 125.178 174.071 125.651 174.071 126.143C174.071 126.636 174.229 127.108 174.509 127.456C174.79 127.805 175.171 128 175.567 128H199.504C199.901 128 200.281 127.805 200.562 127.456C200.842 127.108 201 126.636 201 126.143C201 125.651 200.842 125.178 200.562 124.83C200.281 124.482 199.901 124.286 199.504 124.286Z" fill="black"/>
<path d="M199.504 115H175.567C175.171 115 174.79 115.147 174.509 115.408C174.229 115.669 174.071 116.023 174.071 116.393C174.071 116.762 174.229 117.117 174.509 117.378C174.79 117.639 175.171 117.786 175.567 117.786H199.504C199.901 117.786 200.281 117.639 200.562 117.378C200.842 117.117 201 116.762 201 116.393C201 116.023 200.842 115.669 200.562 115.408C200.281 115.147 199.901 115 199.504 115Z" fill="black"/>
<path d="M187.03 73.8814H188.963L186.529 81.0503C186.329 81.602 186.331 82.2095 186.535 82.7598C186.739 83.3101 187.131 83.7657 187.639 84.0417C188 84.247 188.406 84.3556 188.819 84.3573C189.18 84.356 189.536 84.2699 189.859 84.1055C190.182 83.9411 190.464 83.7028 190.683 83.409L200.423 70.9439C200.738 70.5279 200.933 70.0296 200.986 69.5057C201.038 68.9819 200.946 68.4534 200.72 67.9804C200.494 67.5073 200.143 67.1088 199.707 66.8299C199.271 66.5511 198.767 66.4031 198.253 66.403H197.117L199.925 61.7334C200.185 61.3075 200.328 60.8182 200.341 60.3161C200.354 59.8141 200.236 59.3177 199.998 58.8784C199.76 58.4392 199.412 58.0731 198.99 57.8181C198.567 57.5632 198.086 57.4288 197.596 57.4288H191.219C190.656 57.4247 190.105 57.6002 189.643 57.9308C189.181 58.2615 188.831 58.731 188.641 59.2745L184.427 70.1781C184.289 70.6008 184.251 71.051 184.317 71.4916C184.382 71.9321 184.549 72.3505 184.803 72.7121C185.058 73.0737 185.392 73.3683 185.779 73.5716C186.166 73.7749 186.595 73.8811 187.03 73.8814ZM191.333 60.4202H197.283L193.264 67.1149C193.128 67.3412 193.053 67.6006 193.047 67.8663C193.042 68.132 193.105 68.3944 193.232 68.6266C193.358 68.8587 193.542 69.0522 193.766 69.1872C193.989 69.3221 194.244 69.3936 194.503 69.3943H197.892L190.264 79.1582L192.395 72.8763C192.471 72.651 192.494 72.4103 192.461 72.1742C192.428 71.9381 192.34 71.7135 192.205 71.5192C192.071 71.3248 191.892 71.1663 191.685 71.0568C191.479 70.9474 191.249 70.8902 191.016 70.89H187.287L191.333 60.4202Z" fill="black"/>
<path d="M169.004 84.3567H169.396C172.188 84.3848 174.884 83.305 176.918 81.3429C177.77 80.5226 178.451 79.5334 178.92 78.4353C179.388 77.3372 179.634 76.153 179.643 74.9545C179.643 67.2328 171.704 60.4389 168.291 57.8949C167.951 57.6418 167.552 57.4853 167.135 57.4414C166.717 57.3975 166.296 57.4678 165.913 57.645C165.55 57.8051 165.236 58.0622 165.003 58.3894C164.77 58.7166 164.627 59.1019 164.589 59.5051C164.235 62.2163 163.282 64.8089 161.804 67.0862C160.794 68.7173 160.011 70.4852 159.478 72.3387C159.152 73.6986 159.128 75.1163 159.408 76.4869C159.688 77.8576 160.264 79.1463 161.095 80.258C162.03 81.505 163.226 82.5207 164.595 83.2302C165.964 83.9396 167.471 84.3246 169.004 84.3567ZM162.311 73.063C162.783 71.4788 163.465 69.9684 164.337 68.5736C165.805 66.2367 166.829 63.636 167.354 60.9088C170.318 63.2567 176.724 69.0271 176.724 74.9545C176.714 75.7514 176.546 76.5379 176.23 77.2664C175.915 77.9948 175.459 78.6501 174.889 79.1925C174.113 79.9287 173.202 80.4997 172.209 80.8724C171.215 81.2451 170.16 81.4121 169.104 81.3638C168.005 81.3449 166.924 81.0735 165.942 80.5698C164.959 80.0661 164.099 79.3428 163.425 78.4532C162.856 77.6966 162.461 76.8187 162.268 75.8844C162.076 74.9501 162.09 73.9833 162.311 73.0555V73.063Z" fill="black"/>
<path d="M162.264 118.029C162.234 118.03 162.203 118.03 162.173 118.03H161.911L167.151 123.27C167.492 123.61 167.492 124.163 167.151 124.504C166.811 124.844 166.258 124.844 165.918 124.504L158.938 117.524C158.689 117.275 158.614 116.9 158.749 116.573C158.884 116.248 159.203 116.035 159.555 116.035H162.173C163.216 116.035 164.118 115.424 164.537 114.54H164.257M162.264 118.029L167.328 123.093C167.766 123.531 167.766 124.242 167.328 124.68C166.89 125.118 166.179 125.118 165.741 124.68L158.762 117.701C158.441 117.38 158.344 116.897 158.518 116.478L158.518 116.477C158.692 116.059 159.102 115.785 159.555 115.785H162.173C163.073 115.785 163.858 115.281 164.257 114.54M162.264 118.029C164.384 117.988 166.153 116.516 166.647 114.54H168.279C168.899 114.54 169.402 114.037 169.402 113.418C169.402 112.798 168.899 112.295 168.279 112.295H166.647C166.536 111.851 166.361 111.433 166.131 111.051H168.279C168.899 111.051 169.402 110.548 169.402 109.928C169.402 109.308 168.899 108.806 168.279 108.806H157.81C157.191 108.806 156.688 109.308 156.688 109.928C156.688 110.548 157.191 111.051 157.81 111.051H162.173C163.073 111.051 163.858 111.554 164.257 112.295M162.264 118.029L162.173 117.938L162.015 117.78H162.173C164.283 117.78 166.043 116.281 166.447 114.29H168.279C168.761 114.29 169.152 113.899 169.152 113.418C169.152 112.936 168.761 112.545 168.279 112.545L164.537 112.295H164.257M164.257 114.54C164.301 114.46 164.34 114.376 164.374 114.29H157.81C157.329 114.29 156.938 113.899 156.938 113.418C156.938 112.936 157.329 112.545 157.81 112.545H164.374C164.34 112.459 164.301 112.376 164.257 112.295M164.257 114.54H157.81C157.191 114.54 156.688 114.037 156.688 113.418C156.688 112.798 157.191 112.295 157.81 112.295H164.257" fill="black" stroke="black" stroke-width="0.5"/>
</svg>
