<svg width="350" height="234" viewBox="0 0 350 234" fill="none" xmlns="http://www.w3.org/2000/svg">
<rect width="350" height="234" rx="28" fill="#0A8996"/>
<path d="M138.476 186.273L142.519 198.982H142.674L146.725 186.273H150.646L144.879 203H140.322L134.547 186.273H138.476ZM156.896 203.245C155.605 203.245 154.495 202.984 153.563 202.461C152.638 201.933 151.925 201.187 151.424 200.223C150.923 199.254 150.672 198.108 150.672 196.784C150.672 195.494 150.923 194.361 151.424 193.387C151.925 192.412 152.63 191.652 153.539 191.108C154.454 190.563 155.526 190.291 156.757 190.291C157.585 190.291 158.355 190.425 159.068 190.691C159.787 190.953 160.413 191.348 160.947 191.876C161.486 192.404 161.905 193.068 162.205 193.869C162.504 194.664 162.654 195.595 162.654 196.662V197.618H152.061V195.461H159.379C159.379 194.96 159.27 194.517 159.052 194.13C158.834 193.743 158.532 193.441 158.146 193.223C157.764 193 157.321 192.888 156.814 192.888C156.286 192.888 155.818 193.011 155.409 193.256C155.006 193.496 154.691 193.82 154.462 194.228C154.233 194.631 154.116 195.08 154.111 195.576V197.626C154.111 198.246 154.225 198.783 154.454 199.235C154.688 199.687 155.017 200.035 155.442 200.28C155.867 200.525 156.37 200.648 156.953 200.648C157.34 200.648 157.694 200.593 158.015 200.484C158.336 200.375 158.611 200.212 158.84 199.994C159.068 199.777 159.243 199.51 159.362 199.194L162.581 199.406C162.417 200.179 162.082 200.855 161.576 201.432C161.075 202.004 160.427 202.45 159.632 202.771C158.842 203.087 157.93 203.245 156.896 203.245ZM168.404 195.747V203H164.925V190.455H168.241V192.668H168.388C168.665 191.938 169.131 191.361 169.784 190.936C170.438 190.506 171.23 190.291 172.161 190.291C173.032 190.291 173.792 190.482 174.44 190.863C175.088 191.244 175.592 191.789 175.951 192.496C176.31 193.199 176.49 194.037 176.49 195.012V203H173.011V195.633C173.016 194.865 172.82 194.266 172.422 193.836C172.025 193.4 171.478 193.183 170.781 193.183C170.313 193.183 169.899 193.283 169.539 193.485C169.185 193.686 168.908 193.98 168.706 194.367C168.51 194.748 168.409 195.208 168.404 195.747ZM183.855 203.204C182.902 203.204 182.039 202.959 181.266 202.469C180.498 201.974 179.888 201.247 179.436 200.288C178.99 199.325 178.767 198.143 178.767 196.744C178.767 195.306 178.998 194.111 179.461 193.158C179.924 192.2 180.539 191.484 181.307 191.01C182.08 190.531 182.927 190.291 183.847 190.291C184.549 190.291 185.135 190.411 185.603 190.651C186.077 190.885 186.458 191.179 186.746 191.533C187.04 191.881 187.264 192.224 187.416 192.562H187.522V186.273H190.994V203H187.563V200.991H187.416C187.253 201.339 187.021 201.685 186.722 202.028C186.428 202.366 186.044 202.646 185.57 202.869C185.102 203.093 184.53 203.204 183.855 203.204ZM184.958 200.435C185.519 200.435 185.992 200.283 186.379 199.978C186.771 199.668 187.07 199.235 187.277 198.679C187.49 198.124 187.596 197.473 187.596 196.727C187.596 195.981 187.492 195.333 187.286 194.783C187.079 194.233 186.779 193.809 186.387 193.509C185.995 193.21 185.519 193.06 184.958 193.06C184.386 193.06 183.904 193.215 183.512 193.526C183.12 193.836 182.823 194.266 182.622 194.816C182.42 195.366 182.32 196.003 182.32 196.727C182.32 197.457 182.42 198.102 182.622 198.663C182.829 199.218 183.125 199.654 183.512 199.97C183.904 200.28 184.386 200.435 184.958 200.435ZM199.523 203.245C198.254 203.245 197.157 202.975 196.231 202.436C195.311 201.892 194.6 201.135 194.099 200.166C193.598 199.191 193.348 198.061 193.348 196.776C193.348 195.48 193.598 194.348 194.099 193.379C194.6 192.404 195.311 191.647 196.231 191.108C197.157 190.563 198.254 190.291 199.523 190.291C200.791 190.291 201.886 190.563 202.806 191.108C203.732 191.647 204.445 192.404 204.946 193.379C205.447 194.348 205.697 195.48 205.697 196.776C205.697 198.061 205.447 199.191 204.946 200.166C204.445 201.135 203.732 201.892 202.806 202.436C201.886 202.975 200.791 203.245 199.523 203.245ZM199.539 200.55C200.116 200.55 200.598 200.386 200.985 200.06C201.371 199.728 201.663 199.276 201.859 198.704C202.06 198.132 202.161 197.481 202.161 196.752C202.161 196.022 202.06 195.371 201.859 194.8C201.663 194.228 201.371 193.776 200.985 193.444C200.598 193.112 200.116 192.946 199.539 192.946C198.956 192.946 198.466 193.112 198.069 193.444C197.677 193.776 197.38 194.228 197.179 194.8C196.983 195.371 196.884 196.022 196.884 196.752C196.884 197.481 196.983 198.132 197.179 198.704C197.38 199.276 197.677 199.728 198.069 200.06C198.466 200.386 198.956 200.55 199.539 200.55ZM207.96 203V190.455H211.333V192.643H211.464C211.692 191.865 212.076 191.277 212.615 190.879C213.154 190.476 213.775 190.275 214.478 190.275C214.652 190.275 214.84 190.286 215.041 190.308C215.243 190.329 215.42 190.359 215.572 190.397V193.485C215.409 193.436 215.183 193.392 214.894 193.354C214.605 193.316 214.341 193.297 214.102 193.297C213.59 193.297 213.133 193.408 212.73 193.632C212.332 193.85 212.016 194.154 211.782 194.547C211.554 194.939 211.439 195.391 211.439 195.902V203H207.96Z" fill="white"/>
<circle cx="179.5" cy="93.5" r="70.5" fill="white"/>
<path d="M157.457 66.0513C157.457 66.0513 179.765 70.5384 194.124 62.0769C194.124 62.0769 194.637 69 201.816 70.282" stroke="#0D192B" stroke-width="2" stroke-miterlimit="10" stroke-linecap="round" stroke-linejoin="round"/>
<path d="M173.999 104.898L157.974 109.257C147.589 112.077 140.281 121.564 140.281 132.334V137.59H220.666V132.334C220.666 121.564 213.358 112.077 202.974 109.257L186.82 104.898" fill="#F44335"/>
<path d="M189.004 100.667L180.414 114L171.824 100.667" fill="#FFA970"/>
<path d="M207.336 112.334C207.208 112.334 206.951 112.334 206.823 112.206C205.541 111.565 204.131 111.052 202.592 110.667L186.567 106.308C185.926 106.18 185.541 105.411 185.669 104.77C185.797 104.129 186.567 103.744 187.208 103.872L203.233 108.231C204.772 108.616 206.438 109.257 207.849 110.026C208.49 110.282 208.746 111.052 208.49 111.693C208.233 112.077 207.72 112.334 207.336 112.334Z" fill="#0D192B"/>
<path d="M214.257 117.462C213.872 117.462 213.616 117.333 213.359 117.077C212.975 116.692 212.718 116.436 212.334 116.051C211.821 115.538 211.821 114.769 212.334 114.256C212.847 113.744 213.616 113.744 214.129 114.256C214.513 114.641 214.898 115.026 215.283 115.41C215.795 115.923 215.667 116.692 215.154 117.205C214.898 117.333 214.513 117.462 214.257 117.462Z" fill="#0D192B"/>
<path d="M220.538 139H140.282C139.513 139 139 138.487 139 137.718V132.462C139 121.051 146.692 111.051 157.59 108.103L173.615 103.744C174.256 103.616 175.026 104 175.154 104.641C175.282 105.282 174.897 106.051 174.256 106.18L158.231 110.539C148.359 113.231 141.436 122.205 141.436 132.462V136.436H219.256V132.462C219.256 128.744 218.359 125.154 216.692 121.949C216.308 121.308 216.564 120.539 217.205 120.154C217.846 119.769 218.615 120.026 219 120.667C220.923 124.257 221.949 128.359 221.949 132.334V137.59C221.821 138.487 221.308 139 220.538 139Z" fill="#0D192B"/>
<path d="M180.406 115.282C180.021 115.282 179.509 115.026 179.38 114.641L170.791 101.308C170.406 100.667 170.534 99.8976 171.175 99.513C171.816 99.1284 172.585 99.2566 172.97 99.8976L180.406 111.564L187.842 99.8976C188.226 99.2566 188.996 99.1284 189.637 99.513C190.278 99.8976 190.406 100.667 190.021 101.308L181.432 114.641C181.303 115.026 180.791 115.282 180.406 115.282Z" fill="#0D192B"/>
<path d="M194.39 62.0774C183.621 68.4876 168.364 67.462 161.441 66.6928V83.7441C161.441 94.2569 169.903 102.718 180.416 102.718C190.929 102.718 199.39 94.2569 199.39 83.7441V69.3851C194.647 67.2056 194.39 62.0774 194.39 62.0774Z" fill="#FFA970"/>
<path d="M180.413 104C169.259 104 160.156 94.8978 160.156 83.744V66.6927C160.156 66.3081 160.284 65.9234 160.541 65.7952C160.797 65.5388 161.182 65.4106 161.567 65.5388C167.72 66.3081 183.105 67.3337 193.746 61.1799C194.131 60.9234 194.643 60.9234 195.028 61.1799C195.413 61.4363 195.669 61.8209 195.669 62.2055C195.669 62.3337 196.054 66.5645 200.028 68.4876C200.413 68.744 200.797 69.1286 200.797 69.6414V83.8722C200.669 94.8978 191.566 104 180.413 104ZM162.72 68.1029V83.744C162.72 93.4876 170.669 101.436 180.413 101.436C190.156 101.436 198.105 93.4876 198.105 83.744V70.1542C195.156 68.4875 193.874 65.7952 193.361 64.0004C183.361 69.2568 170.413 68.8722 162.72 68.1029Z" fill="#0D192B"/>
<path d="M199.379 77.0771V83.6156C199.379 85.5387 199.122 87.3336 198.609 89.1284C198.866 89.1284 199.122 89.2566 199.379 89.2566C202.712 89.2566 205.404 86.5643 205.404 83.231C205.404 79.8977 202.712 77.0771 199.379 77.0771Z" fill="#FFA970"/>
<path d="M161.428 83.7438V77.2053C158.095 77.2053 155.402 79.8976 155.402 83.231C155.402 86.5643 158.095 89.2566 161.428 89.2566C161.684 89.2566 161.941 89.2566 162.197 89.1284C161.684 87.4617 161.428 85.5387 161.428 83.7438Z" fill="#FFA970"/>
<path d="M199.389 90.5388C199.133 90.5388 198.877 90.5388 198.492 90.4105H198.364C197.979 90.4105 197.723 90.1541 197.466 89.7695C197.21 89.5131 197.21 89.1285 197.338 88.7439C197.851 87.0772 198.107 85.4105 198.107 83.6157V77.0772C198.107 76.308 198.62 75.7952 199.389 75.7952C203.492 75.7952 206.697 79.1285 206.697 83.1029C206.697 87.2054 203.492 90.5388 199.389 90.5388ZM200.671 78.6157V83.7439C200.671 85.1541 200.543 86.5644 200.287 87.9747C202.466 87.59 204.261 85.667 204.261 83.2311C204.133 81.0516 202.723 79.1285 200.671 78.6157Z" fill="#0D192B"/>
<path d="M161.441 90.539C157.338 90.539 154.133 87.2056 154.133 83.2313C154.133 79.1287 157.466 75.9236 161.441 75.9236C162.21 75.9236 162.723 76.4364 162.723 77.2056V83.7441C162.723 85.4108 162.979 87.2056 163.492 88.8723C163.62 89.2569 163.492 89.6415 163.364 89.8979C163.107 90.1544 162.851 90.4108 162.466 90.539H162.338C161.953 90.539 161.697 90.539 161.441 90.539ZM160.158 78.6159C158.107 79.1287 156.697 81.0518 156.697 83.2313C156.697 85.539 158.364 87.5903 160.671 87.9749C160.415 86.5646 160.287 85.1544 160.287 83.7441V78.6159H160.158Z" fill="#0D192B"/>
<path d="M174.127 80.1541C174.127 81.949 173.101 83.3592 171.819 83.3592C170.537 83.3592 169.512 81.949 169.512 80.1541C169.512 78.3592 170.537 76.949 171.819 76.949C173.101 76.949 174.127 78.3592 174.127 80.1541Z" fill="#0D192B"/>
<path d="M191.315 80.1541C191.315 81.949 190.289 83.3592 189.007 83.3592C187.725 83.3592 186.699 81.949 186.699 80.1541C186.699 78.3592 187.725 76.949 189.007 76.949C190.289 76.949 191.315 78.3592 191.315 80.1541Z" fill="#0D192B"/>
<path d="M180.28 92.9745C176.305 92.9745 174.767 91.5643 174.639 91.4361C174.126 90.9233 174.126 90.154 174.639 89.6412C175.151 89.1284 175.921 89.1284 176.433 89.6412C176.562 89.6412 177.587 90.5386 180.28 90.5386C182.972 90.5386 183.997 89.7694 183.997 89.6412C184.51 89.1284 185.28 89.1284 185.792 89.6412C186.305 90.154 186.305 90.9233 185.921 91.4361C185.664 91.5643 184.254 92.9745 180.28 92.9745Z" fill="#0D192B"/>
<path d="M169.514 120.41C169.386 120.41 169.129 120.41 169.001 120.282C168.616 120.154 168.36 119.769 168.36 119.385L165.411 107.205C165.283 106.564 165.668 105.795 166.309 105.667C166.95 105.539 167.719 105.923 167.847 106.564L170.539 117.205L180.027 112.718C180.668 112.462 181.437 112.718 181.693 113.359C181.95 114 181.693 114.769 181.052 115.026L170.155 120.154C169.898 120.41 169.642 120.41 169.514 120.41Z" fill="#0D192B"/>
<path d="M191.306 120.41C191.178 120.41 190.921 120.41 190.793 120.282L179.896 115.154C179.255 114.898 178.998 114.128 179.255 113.487C179.511 112.846 180.28 112.59 180.921 112.846L190.408 117.333L193.101 106.692C193.229 106.051 193.998 105.539 194.639 105.795C195.28 105.923 195.793 106.692 195.537 107.333L192.588 119.513C192.46 119.898 192.203 120.154 191.947 120.41C191.69 120.41 191.562 120.41 191.306 120.41Z" fill="#0D192B"/>
<path d="M155.922 70.1538V59.2564C155.922 48.1026 165.024 39 176.178 39H184.64C195.794 39 204.896 48.1026 204.896 59.2564V69.641" fill="#F44335"/>
<path d="M204.773 70.1538C204.773 70.1538 199.388 39.7692 180.414 39C161.568 39.641 156.055 70.1538 156.055 70.1538" fill="white"/>
<path d="M155.922 70.1538V59.2564C155.922 48.1026 165.024 39 176.178 39H184.64C195.794 39 204.896 48.1026 204.896 59.2564V69.641" stroke="#0D192B" stroke-width="2" stroke-miterlimit="10" stroke-linecap="round" stroke-linejoin="round"/>
<path d="M204.774 70.154C192.21 64.3847 180.416 65.154 180.416 65.154C180.416 65.154 168.621 64.3847 156.057 70.154L155.928 74.1283C155.8 77.077 157.595 79.3847 159.646 78.7437C164.262 77.2052 172.595 74.8976 180.544 75.154C188.492 74.8976 196.698 77.077 201.441 78.7437C203.364 79.3847 205.159 77.077 205.159 74.1283L204.774 70.154Z" fill="#F44335"/>
<path d="M204.774 70.154C192.21 64.3847 180.416 65.154 180.416 65.154C180.416 65.154 168.621 64.3847 156.057 70.154L155.928 74.1283C155.8 77.077 157.595 79.3847 159.646 78.7437C164.262 77.2052 172.595 74.8976 180.544 75.154C188.492 74.8976 196.698 77.077 201.441 78.7437C203.364 79.3847 205.159 77.077 205.159 74.1283L204.774 70.154Z" stroke="#0D192B" stroke-width="2" stroke-miterlimit="10" stroke-linecap="round" stroke-linejoin="round"/>
<path d="M180.414 115.154V137.718" stroke="#0D192B" stroke-width="2" stroke-miterlimit="10" stroke-linecap="round" stroke-linejoin="round"/>
<path d="M204.773 70.1538C204.773 70.1538 199.388 39.7692 180.414 39C161.568 39.641 156.055 70.1538 156.055 70.1538" stroke="#0D192B" stroke-width="2" stroke-miterlimit="10" stroke-linecap="round" stroke-linejoin="round"/>
</svg>
