<svg width="350" height="234" viewBox="0 0 350 234" fill="none" xmlns="http://www.w3.org/2000/svg">
<path d="M127.454 200V183.273H138.725V186.189H130.99V190.174H138.145V193.09H130.99V197.084H138.758V200H127.454ZM144.951 183.273V200H141.472V183.273H144.951ZM153.455 200.245C152.165 200.245 151.054 199.984 150.123 199.461C149.197 198.933 148.484 198.187 147.983 197.223C147.482 196.254 147.232 195.108 147.232 193.784C147.232 192.494 147.482 191.361 147.983 190.387C148.484 189.412 149.189 188.652 150.099 188.108C151.013 187.563 152.086 187.291 153.317 187.291C154.144 187.291 154.915 187.425 155.628 187.691C156.347 187.953 156.973 188.348 157.507 188.876C158.046 189.404 158.465 190.068 158.764 190.869C159.064 191.664 159.214 192.595 159.214 193.662V194.618H148.62V192.461H155.938C155.938 191.96 155.829 191.517 155.612 191.13C155.394 190.743 155.092 190.441 154.705 190.223C154.324 190 153.88 189.888 153.374 189.888C152.846 189.888 152.377 190.011 151.969 190.256C151.566 190.496 151.25 190.82 151.021 191.228C150.793 191.631 150.676 192.08 150.67 192.576V194.626C150.67 195.246 150.785 195.783 151.013 196.235C151.247 196.687 151.577 197.035 152.002 197.28C152.426 197.525 152.93 197.648 153.513 197.648C153.899 197.648 154.253 197.593 154.574 197.484C154.896 197.375 155.171 197.212 155.399 196.994C155.628 196.777 155.802 196.51 155.922 196.194L159.14 196.406C158.977 197.179 158.642 197.855 158.135 198.432C157.635 199.004 156.987 199.45 156.192 199.771C155.402 200.087 154.49 200.245 153.455 200.245ZM167.153 200.245C165.867 200.245 164.762 199.973 163.836 199.428C162.916 198.878 162.208 198.116 161.713 197.141C161.223 196.167 160.978 195.045 160.978 193.776C160.978 192.491 161.226 191.364 161.721 190.395C162.222 189.42 162.933 188.661 163.853 188.116C164.773 187.566 165.867 187.291 167.136 187.291C168.231 187.291 169.189 187.49 170.011 187.887C170.833 188.285 171.484 188.843 171.963 189.562C172.442 190.281 172.706 191.125 172.756 192.094H169.472C169.38 191.468 169.135 190.964 168.737 190.583C168.345 190.196 167.83 190.003 167.193 190.003C166.654 190.003 166.183 190.15 165.78 190.444C165.383 190.732 165.073 191.154 164.849 191.71C164.626 192.265 164.514 192.938 164.514 193.727C164.514 194.528 164.623 195.208 164.841 195.769C165.064 196.33 165.377 196.757 165.78 197.051C166.183 197.346 166.654 197.493 167.193 197.493C167.591 197.493 167.948 197.411 168.263 197.248C168.585 197.084 168.849 196.847 169.056 196.537C169.268 196.221 169.407 195.843 169.472 195.402H172.756C172.701 196.36 172.44 197.204 171.971 197.934C171.509 198.658 170.869 199.224 170.052 199.632C169.235 200.041 168.269 200.245 167.153 200.245ZM181.656 187.455V190.068H174.101V187.455H181.656ZM175.816 184.449H179.296V196.145C179.296 196.466 179.345 196.717 179.443 196.896C179.541 197.071 179.677 197.193 179.851 197.264C180.031 197.335 180.238 197.37 180.472 197.37C180.635 197.37 180.799 197.356 180.962 197.329C181.125 197.297 181.251 197.272 181.338 197.256L181.885 199.845C181.711 199.899 181.466 199.962 181.15 200.033C180.834 200.109 180.45 200.155 179.998 200.172C179.16 200.204 178.425 200.093 177.793 199.837C177.167 199.581 176.679 199.183 176.331 198.644C175.982 198.105 175.811 197.424 175.816 196.602V184.449ZM183.923 200V187.455H187.296V189.643H187.427C187.655 188.865 188.039 188.277 188.578 187.879C189.117 187.476 189.738 187.275 190.44 187.275C190.615 187.275 190.803 187.286 191.004 187.308C191.205 187.329 191.382 187.359 191.535 187.397V190.485C191.372 190.436 191.146 190.392 190.857 190.354C190.568 190.316 190.304 190.297 190.065 190.297C189.553 190.297 189.095 190.408 188.693 190.632C188.295 190.85 187.979 191.154 187.745 191.547C187.516 191.939 187.402 192.391 187.402 192.902V200H183.923ZM193.334 200V187.455H196.813V200H193.334ZM195.082 185.837C194.564 185.837 194.121 185.666 193.75 185.323C193.386 184.974 193.203 184.558 193.203 184.073C193.203 183.594 193.386 183.183 193.75 182.84C194.121 182.491 194.564 182.317 195.082 182.317C195.599 182.317 196.04 182.491 196.405 182.84C196.775 183.183 196.96 183.594 196.96 184.073C196.96 184.558 196.775 184.974 196.405 185.323C196.04 185.666 195.599 185.837 195.082 185.837ZM205.269 200.245C203.984 200.245 202.878 199.973 201.953 199.428C201.032 198.878 200.325 198.116 199.829 197.141C199.339 196.167 199.094 195.045 199.094 193.776C199.094 192.491 199.342 191.364 199.837 190.395C200.338 189.42 201.049 188.661 201.969 188.116C202.889 187.566 203.984 187.291 205.252 187.291C206.347 187.291 207.305 187.49 208.127 187.887C208.95 188.285 209.6 188.843 210.079 189.562C210.559 190.281 210.823 191.125 210.872 192.094H207.588C207.496 191.468 207.251 190.964 206.853 190.583C206.461 190.196 205.947 190.003 205.31 190.003C204.771 190.003 204.3 190.15 203.897 190.444C203.499 190.732 203.189 191.154 202.965 191.71C202.742 192.265 202.631 192.938 202.631 193.727C202.631 194.528 202.739 195.208 202.957 195.769C203.181 196.33 203.494 196.757 203.897 197.051C204.3 197.346 204.771 197.493 205.31 197.493C205.707 197.493 206.064 197.411 206.38 197.248C206.701 197.084 206.965 196.847 207.172 196.537C207.384 196.221 207.523 195.843 207.588 195.402H210.872C210.817 196.36 210.556 197.204 210.088 197.934C209.625 198.658 208.985 199.224 208.168 199.632C207.351 200.041 206.385 200.245 205.269 200.245ZM213.099 200V187.455H216.579V200H213.099ZM214.847 185.837C214.33 185.837 213.886 185.666 213.516 185.323C213.151 184.974 212.969 184.558 212.969 184.073C212.969 183.594 213.151 183.183 213.516 182.84C213.886 182.491 214.33 182.317 214.847 182.317C215.365 182.317 215.806 182.491 216.17 182.84C216.541 183.183 216.726 183.594 216.726 184.073C216.726 184.558 216.541 184.974 216.17 185.323C215.806 185.666 215.365 185.837 214.847 185.837ZM222.943 200.237C222.143 200.237 221.43 200.098 220.804 199.82C220.177 199.537 219.682 199.121 219.317 198.571C218.958 198.015 218.778 197.324 218.778 196.496C218.778 195.799 218.906 195.214 219.162 194.74C219.418 194.266 219.766 193.885 220.207 193.597C220.648 193.308 221.149 193.09 221.71 192.943C222.276 192.796 222.87 192.693 223.491 192.633C224.22 192.557 224.808 192.486 225.255 192.42C225.701 192.35 226.025 192.246 226.227 192.11C226.428 191.974 226.529 191.772 226.529 191.506V191.457C226.529 190.939 226.366 190.539 226.039 190.256C225.718 189.973 225.26 189.831 224.667 189.831C224.041 189.831 223.542 189.97 223.172 190.248C222.802 190.52 222.557 190.863 222.437 191.277L219.219 191.016C219.382 190.253 219.704 189.594 220.183 189.039C220.662 188.478 221.28 188.048 222.037 187.749C222.799 187.444 223.681 187.291 224.683 187.291C225.38 187.291 226.047 187.373 226.684 187.536C227.327 187.7 227.896 187.953 228.391 188.296C228.892 188.639 229.287 189.08 229.576 189.619C229.864 190.153 230.008 190.792 230.008 191.538V200H226.709V198.26H226.611C226.409 198.652 226.14 198.998 225.802 199.298C225.465 199.592 225.059 199.823 224.585 199.992C224.111 200.155 223.564 200.237 222.943 200.237ZM223.94 197.836C224.452 197.836 224.904 197.735 225.296 197.533C225.688 197.326 225.995 197.049 226.219 196.7C226.442 196.352 226.554 195.957 226.554 195.516V194.185C226.445 194.255 226.295 194.321 226.104 194.381C225.919 194.435 225.71 194.487 225.475 194.536C225.241 194.579 225.007 194.62 224.773 194.658C224.539 194.691 224.326 194.721 224.136 194.748C223.728 194.808 223.371 194.903 223.066 195.034C222.761 195.165 222.524 195.342 222.355 195.565C222.187 195.783 222.102 196.055 222.102 196.382C222.102 196.855 222.274 197.218 222.617 197.468C222.965 197.713 223.406 197.836 223.94 197.836ZM236.187 192.747V200H232.708V187.455H236.024V189.668H236.171C236.449 188.938 236.914 188.361 237.568 187.936C238.221 187.506 239.013 187.291 239.944 187.291C240.816 187.291 241.575 187.482 242.223 187.863C242.871 188.244 243.375 188.789 243.734 189.496C244.093 190.199 244.273 191.037 244.273 192.012V200H240.794V192.633C240.799 191.865 240.603 191.266 240.206 190.836C239.808 190.4 239.261 190.183 238.564 190.183C238.096 190.183 237.682 190.283 237.323 190.485C236.969 190.686 236.691 190.98 236.489 191.367C236.293 191.748 236.193 192.208 236.187 192.747Z" fill="white"/>
<rect width="350" height="234" rx="28" fill="#0A8996"/>
<circle cx="175.5" cy="93.5" r="70.5" fill="white"/>
<path d="M71.4759 187.273L75.5188 199.982H75.674L79.7251 187.273H83.6456L77.8793 204H73.3217L67.5472 187.273H71.4759ZM85.5936 204V191.455H89.073V204H85.5936ZM87.3414 189.837C86.8242 189.837 86.3804 189.666 86.0101 189.323C85.6453 188.974 85.4629 188.558 85.4629 188.073C85.4629 187.594 85.6453 187.183 86.0101 186.84C86.3804 186.491 86.8242 186.317 87.3414 186.317C87.8587 186.317 88.2998 186.491 88.6646 186.84C89.0349 187.183 89.22 187.594 89.22 188.073C89.22 188.558 89.0349 188.974 88.6646 189.323C88.2998 189.666 87.8587 189.837 87.3414 189.837ZM97.5775 204.245C96.287 204.245 95.1762 203.984 94.2451 203.461C93.3195 202.933 92.6061 202.187 92.1052 201.223C91.6043 200.254 91.3538 199.108 91.3538 197.784C91.3538 196.494 91.6043 195.361 92.1052 194.387C92.6061 193.412 93.3113 192.652 94.2206 192.108C95.1354 191.563 96.2081 191.291 97.4387 191.291C98.2663 191.291 99.0368 191.425 99.7501 191.691C100.469 191.953 101.095 192.348 101.629 192.876C102.168 193.404 102.587 194.068 102.886 194.869C103.186 195.664 103.336 196.595 103.336 197.662V198.618H92.7423V196.461H100.06C100.06 195.96 99.9516 195.517 99.7338 195.13C99.516 194.743 99.2137 194.441 98.8271 194.223C98.446 194 98.0022 193.888 97.4958 193.888C96.9677 193.888 96.4994 194.011 96.091 194.256C95.6881 194.496 95.3722 194.82 95.1436 195.228C94.9149 195.631 94.7978 196.08 94.7923 196.576V198.626C94.7923 199.246 94.9067 199.783 95.1354 200.235C95.3695 200.687 95.699 201.035 96.1237 201.28C96.5484 201.525 97.0521 201.648 97.6347 201.648C98.0213 201.648 98.3752 201.593 98.6965 201.484C99.0177 201.375 99.2927 201.212 99.5214 200.994C99.7501 200.777 99.9243 200.51 100.044 200.194L103.262 200.406C103.099 201.179 102.764 201.855 102.258 202.432C101.757 203.004 101.109 203.45 100.314 203.771C99.5241 204.087 98.6121 204.245 97.5775 204.245ZM107.991 204L104.577 191.455H108.097L110.041 199.884H110.156L112.181 191.455H115.636L117.694 199.835H117.801L119.712 191.455H123.224L119.818 204H116.134L113.978 196.11H113.823L111.667 204H107.991ZM130.468 204V187.273H137.068C138.337 187.273 139.417 187.515 140.31 188C141.203 188.479 141.884 189.146 142.352 190.001C142.826 190.85 143.063 191.83 143.063 192.941C143.063 194.052 142.823 195.032 142.344 195.881C141.865 196.731 141.171 197.392 140.261 197.866C139.358 198.34 138.263 198.577 136.978 198.577H132.772V195.743H136.406C137.087 195.743 137.648 195.625 138.089 195.391C138.535 195.152 138.868 194.822 139.085 194.403C139.309 193.978 139.42 193.491 139.42 192.941C139.42 192.386 139.309 191.901 139.085 191.487C138.868 191.068 138.535 190.744 138.089 190.515C137.642 190.281 137.076 190.164 136.39 190.164H134.005V204H130.468ZM148.535 204.237C147.735 204.237 147.022 204.098 146.395 203.82C145.769 203.537 145.274 203.121 144.909 202.571C144.549 202.015 144.37 201.324 144.37 200.496C144.37 199.799 144.498 199.214 144.754 198.74C145.01 198.266 145.358 197.885 145.799 197.597C146.24 197.308 146.741 197.09 147.302 196.943C147.868 196.796 148.462 196.693 149.082 196.633C149.812 196.557 150.4 196.486 150.847 196.42C151.293 196.35 151.617 196.246 151.819 196.11C152.02 195.974 152.121 195.772 152.121 195.506V195.457C152.121 194.939 151.957 194.539 151.631 194.256C151.31 193.973 150.852 193.831 150.259 193.831C149.632 193.831 149.134 193.97 148.764 194.248C148.394 194.52 148.149 194.863 148.029 195.277L144.811 195.016C144.974 194.253 145.295 193.594 145.775 193.039C146.254 192.478 146.872 192.048 147.629 191.749C148.391 191.444 149.273 191.291 150.275 191.291C150.972 191.291 151.639 191.373 152.276 191.536C152.919 191.7 153.488 191.953 153.983 192.296C154.484 192.639 154.879 193.08 155.167 193.619C155.456 194.153 155.6 194.792 155.6 195.538V204H152.301V202.26H152.203C152.001 202.652 151.732 202.998 151.394 203.298C151.056 203.592 150.651 203.823 150.177 203.992C149.703 204.155 149.156 204.237 148.535 204.237ZM149.532 201.836C150.044 201.836 150.495 201.735 150.888 201.533C151.28 201.326 151.587 201.049 151.81 200.7C152.034 200.352 152.145 199.957 152.145 199.516V198.185C152.036 198.255 151.887 198.321 151.696 198.381C151.511 198.435 151.301 198.487 151.067 198.536C150.833 198.579 150.599 198.62 150.365 198.658C150.131 198.691 149.918 198.721 149.728 198.748C149.319 198.808 148.963 198.903 148.658 199.034C148.353 199.165 148.116 199.342 147.947 199.565C147.778 199.783 147.694 200.055 147.694 200.382C147.694 200.855 147.866 201.218 148.209 201.468C148.557 201.713 148.998 201.836 149.532 201.836ZM158.3 204V191.455H161.673V193.643H161.804C162.032 192.865 162.416 192.277 162.955 191.879C163.494 191.476 164.115 191.275 164.817 191.275C164.992 191.275 165.179 191.286 165.381 191.308C165.582 191.329 165.759 191.359 165.912 191.397V194.485C165.748 194.436 165.523 194.392 165.234 194.354C164.945 194.316 164.681 194.297 164.442 194.297C163.93 194.297 163.472 194.408 163.07 194.632C162.672 194.85 162.356 195.154 162.122 195.547C161.893 195.939 161.779 196.391 161.779 196.902V204H158.3ZM170.863 200.39L170.872 196.216H171.378L175.396 191.455H179.39L173.992 197.76H173.167L170.863 200.39ZM167.711 204V187.273H171.19V204H167.711ZM175.552 204L171.86 198.536L174.18 196.077L179.627 204H175.552ZM186.298 204.245C185.008 204.245 183.897 203.984 182.966 203.461C182.04 202.933 181.327 202.187 180.826 201.223C180.325 200.254 180.074 199.108 180.074 197.784C180.074 196.494 180.325 195.361 180.826 194.387C181.327 193.412 182.032 192.652 182.941 192.108C183.856 191.563 184.929 191.291 186.159 191.291C186.987 191.291 187.757 191.425 188.471 191.691C189.19 191.953 189.816 192.348 190.349 192.876C190.888 193.404 191.308 194.068 191.607 194.869C191.907 195.664 192.056 196.595 192.056 197.662V198.618H181.463V196.461H188.781C188.781 195.96 188.672 195.517 188.454 195.13C188.237 194.743 187.934 194.441 187.548 194.223C187.167 194 186.723 193.888 186.217 193.888C185.688 193.888 185.22 194.011 184.812 194.256C184.409 194.496 184.093 194.82 183.864 195.228C183.636 195.631 183.518 196.08 183.513 196.576V198.626C183.513 199.246 183.627 199.783 183.856 200.235C184.09 200.687 184.42 201.035 184.844 201.28C185.269 201.525 185.773 201.648 186.355 201.648C186.742 201.648 187.096 201.593 187.417 201.484C187.738 201.375 188.013 201.212 188.242 200.994C188.471 200.777 188.645 200.51 188.765 200.194L191.983 200.406C191.82 201.179 191.485 201.855 190.978 202.432C190.477 203.004 189.829 203.45 189.034 203.771C188.245 204.087 187.333 204.245 186.298 204.245ZM198.95 204.204C197.997 204.204 197.134 203.959 196.361 203.469C195.593 202.974 194.983 202.247 194.531 201.288C194.085 200.325 193.861 199.143 193.861 197.744C193.861 196.306 194.093 195.111 194.556 194.158C195.018 193.2 195.634 192.484 196.402 192.01C197.175 191.531 198.021 191.291 198.942 191.291C199.644 191.291 200.229 191.411 200.698 191.651C201.171 191.885 201.553 192.179 201.841 192.533C202.135 192.881 202.358 193.224 202.511 193.562H202.617V187.273H206.088V204H202.658V201.991H202.511C202.348 202.339 202.116 202.685 201.817 203.028C201.523 203.366 201.139 203.646 200.665 203.869C200.197 204.093 199.625 204.204 198.95 204.204ZM200.052 201.435C200.613 201.435 201.087 201.283 201.474 200.978C201.866 200.668 202.165 200.235 202.372 199.679C202.584 199.124 202.691 198.473 202.691 197.727C202.691 196.981 202.587 196.333 202.38 195.783C202.173 195.233 201.874 194.809 201.482 194.509C201.09 194.21 200.613 194.06 200.052 194.06C199.481 194.06 198.999 194.215 198.607 194.526C198.215 194.836 197.918 195.266 197.717 195.816C197.515 196.366 197.414 197.003 197.414 197.727C197.414 198.457 197.515 199.102 197.717 199.663C197.923 200.218 198.22 200.654 198.607 200.97C198.999 201.28 199.481 201.435 200.052 201.435ZM217.36 187.273L221.403 199.982H221.558L225.609 187.273H229.529L223.763 204H219.206L213.431 187.273H217.36ZM235.78 204.245C234.489 204.245 233.378 203.984 232.447 203.461C231.522 202.933 230.808 202.187 230.307 201.223C229.806 200.254 229.556 199.108 229.556 197.784C229.556 196.494 229.806 195.361 230.307 194.387C230.808 193.412 231.513 192.652 232.423 192.108C233.338 191.563 234.41 191.291 235.641 191.291C236.468 191.291 237.239 191.425 237.952 191.691C238.671 191.953 239.297 192.348 239.831 192.876C240.37 193.404 240.789 194.068 241.089 194.869C241.388 195.664 241.538 196.595 241.538 197.662V198.618H230.944V196.461H238.263C238.263 195.96 238.154 195.517 237.936 195.13C237.718 194.743 237.416 194.441 237.029 194.223C236.648 194 236.204 193.888 235.698 193.888C235.17 193.888 234.702 194.011 234.293 194.256C233.89 194.496 233.574 194.82 233.346 195.228C233.117 195.631 233 196.08 232.994 196.576V198.626C232.994 199.246 233.109 199.783 233.338 200.235C233.572 200.687 233.901 201.035 234.326 201.28C234.751 201.525 235.254 201.648 235.837 201.648C236.223 201.648 236.577 201.593 236.899 201.484C237.22 201.375 237.495 201.212 237.724 200.994C237.952 200.777 238.126 200.51 238.246 200.194L241.464 200.406C241.301 201.179 240.966 201.855 240.46 202.432C239.959 203.004 239.311 203.45 238.516 203.771C237.726 204.087 236.814 204.245 235.78 204.245ZM247.288 196.747V204H243.808V187.273H247.19V193.668H247.337C247.62 192.927 248.077 192.348 248.709 191.928C249.341 191.504 250.133 191.291 251.086 191.291C251.957 191.291 252.717 191.482 253.365 191.863C254.018 192.239 254.524 192.78 254.884 193.488C255.249 194.191 255.428 195.032 255.423 196.012V204H251.943V196.633C251.949 195.86 251.753 195.258 251.355 194.828C250.963 194.398 250.413 194.183 249.705 194.183C249.232 194.183 248.812 194.283 248.448 194.485C248.088 194.686 247.805 194.98 247.598 195.367C247.397 195.748 247.293 196.208 247.288 196.747ZM258.161 204V191.455H261.64V204H258.161ZM259.909 189.837C259.392 189.837 258.948 189.666 258.578 189.323C258.213 188.974 258.03 188.558 258.03 188.073C258.03 187.594 258.213 187.183 258.578 186.84C258.948 186.491 259.392 186.317 259.909 186.317C260.426 186.317 260.867 186.491 261.232 186.84C261.602 187.183 261.787 187.594 261.787 188.073C261.787 188.558 261.602 188.974 261.232 189.323C260.867 189.666 260.426 189.837 259.909 189.837ZM270.096 204.245C268.811 204.245 267.705 203.973 266.78 203.428C265.86 202.878 265.152 202.116 264.656 201.141C264.166 200.167 263.921 199.045 263.921 197.776C263.921 196.491 264.169 195.364 264.664 194.395C265.165 193.42 265.876 192.661 266.796 192.116C267.716 191.566 268.811 191.291 270.08 191.291C271.174 191.291 272.132 191.49 272.955 191.887C273.777 192.285 274.427 192.843 274.907 193.562C275.386 194.281 275.65 195.125 275.699 196.094H272.415C272.323 195.468 272.078 194.964 271.68 194.583C271.288 194.196 270.774 194.003 270.137 194.003C269.598 194.003 269.127 194.15 268.724 194.444C268.326 194.732 268.016 195.154 267.793 195.71C267.569 196.265 267.458 196.938 267.458 197.727C267.458 198.528 267.567 199.208 267.784 199.769C268.008 200.33 268.321 200.757 268.724 201.051C269.127 201.346 269.598 201.493 270.137 201.493C270.534 201.493 270.891 201.411 271.207 201.248C271.528 201.084 271.792 200.847 271.999 200.537C272.211 200.221 272.35 199.843 272.415 199.402H275.699C275.644 200.36 275.383 201.204 274.915 201.934C274.452 202.658 273.812 203.224 272.995 203.632C272.179 204.041 271.212 204.245 270.096 204.245ZM281.406 187.273V204H277.927V187.273H281.406ZM289.911 204.245C288.62 204.245 287.509 203.984 286.578 203.461C285.652 202.933 284.939 202.187 284.438 201.223C283.937 200.254 283.687 199.108 283.687 197.784C283.687 196.494 283.937 195.361 284.438 194.387C284.939 193.412 285.644 192.652 286.554 192.108C287.468 191.563 288.541 191.291 289.772 191.291C290.599 191.291 291.37 191.425 292.083 191.691C292.802 191.953 293.428 192.348 293.962 192.876C294.501 193.404 294.92 194.068 295.219 194.869C295.519 195.664 295.669 196.595 295.669 197.662V198.618H285.075V196.461H292.393C292.393 195.96 292.285 195.517 292.067 195.13C291.849 194.743 291.547 194.441 291.16 194.223C290.779 194 290.335 193.888 289.829 193.888C289.301 193.888 288.832 194.011 288.424 194.256C288.021 194.496 287.705 194.82 287.477 195.228C287.248 195.631 287.131 196.08 287.125 196.576V198.626C287.125 199.246 287.24 199.783 287.468 200.235C287.703 200.687 288.032 201.035 288.457 201.28C288.881 201.525 289.385 201.648 289.968 201.648C290.354 201.648 290.708 201.593 291.029 201.484C291.351 201.375 291.626 201.212 291.854 200.994C292.083 200.777 292.257 200.51 292.377 200.194L295.595 200.406C295.432 201.179 295.097 201.855 294.591 202.432C294.09 203.004 293.442 203.45 292.647 203.771C291.857 204.087 290.945 204.245 289.911 204.245Z" fill="white"/>
<g clip-path="url(#clip0_6349_885)">
<path d="M185.727 85.5477H210.452C214.469 85.5477 217.725 82.2911 217.725 78.274V53.5488C217.725 49.5317 214.469 46.2751 210.452 46.2751H185.727C181.71 46.2751 178.453 49.5317 178.453 53.5488V78.2738C178.453 82.2909 181.71 85.5477 185.727 85.5477Z" fill="#6BBEF6"/>
<path d="M190.302 85.5464H185.725C181.708 85.5464 178.452 82.2907 178.452 78.2738V53.5488C178.452 49.5318 181.708 46.2744 185.725 46.2744H190.302C186.286 46.2744 183.028 49.5318 183.028 53.5488V78.2739C183.028 82.2909 186.286 85.5464 190.302 85.5464Z" fill="#5EA5EC"/>
<path d="M199.622 51.1177H192.392C191.863 51.1177 191.335 51.2212 190.859 51.4516C189.626 52.0485 188.897 53.2721 188.901 54.5691V78.1767C188.901 79.5728 190.033 80.7046 191.429 80.7046H193.254C194.651 80.7046 195.782 79.5728 195.782 78.1767V72.7695C197.204 72.7623 198.732 72.7559 199.622 72.7559C205.668 72.7559 210.586 67.9024 210.586 61.9368C210.586 55.9712 205.668 51.1177 199.622 51.1177ZM199.622 65.8749C198.735 65.8749 197.226 65.8812 195.814 65.8883C195.807 64.4236 195.801 62.8464 195.801 61.9369C195.801 61.1589 195.797 59.5298 195.793 57.9988H199.622C201.835 57.9988 203.705 59.8022 203.705 61.9369C203.705 64.0717 201.835 65.8749 199.622 65.8749Z" fill="#F6F9F9"/>
<path d="M190.739 91.3583H137.115C135.071 91.3583 133.414 89.7015 133.414 87.6577C133.414 85.6139 135.071 83.9572 137.115 83.9572H190.74C192.783 83.9572 194.44 85.6139 194.44 87.6577C194.44 89.7014 192.783 91.3583 190.739 91.3583Z" fill="#DD636E"/>
<path d="M179.166 76.4365H148.688C147.195 76.4365 145.946 77.5711 145.804 79.0572L144.009 97.7957H183.845L182.05 79.0572C181.908 77.5711 180.659 76.4365 179.166 76.4365Z" fill="#F6F9F9"/>
<path d="M157.392 97.7954H144.009L145.803 79.0566C145.946 77.5715 147.195 76.4364 148.687 76.4364H161.033C156.75 76.4364 153.166 79.6921 152.758 83.9571L152 91.8636C151.696 95.0444 154.195 97.7954 157.392 97.7954Z" fill="#E7ECF6"/>
<path d="M185.324 80.4984C184.646 76.145 180.899 72.9352 176.493 72.9352H151.362C146.956 72.9352 143.209 76.145 142.531 80.4984L139.094 102.6H188.762L185.324 80.4984ZM145.046 97.5023L147.569 81.2817C147.862 79.399 149.457 78.0328 151.362 78.0328H176.493C178.398 78.0328 179.994 79.399 180.286 81.2817L182.809 97.5023H145.046Z" fill="#DD636E"/>
<path d="M151.362 72.9352C146.956 72.9352 143.209 76.145 142.531 80.4984L139.094 102.6H142.484L145.921 80.4984C146.599 76.145 150.346 72.9352 154.752 72.9352H151.362Z" fill="#DA4A54"/>
<path d="M144.461 130.684C141.777 130.684 139.602 128.509 139.602 125.825V120.966L143.419 116.332L149.32 120.966V125.825C149.32 128.509 147.145 130.684 144.461 130.684Z" fill="#30579D"/>
<path d="M146.07 130.41C145.568 130.586 145.025 130.683 144.461 130.683C141.777 130.683 139.602 128.508 139.602 125.825V120.965L143.42 116.332L145.372 117.864L142.818 120.965V125.825C142.818 127.946 144.178 129.747 146.07 130.41Z" fill="#26457D"/>
<path d="M182.885 130.684C180.201 130.684 178.025 128.509 178.025 125.825V120.966L184.435 116.332L187.744 120.966V125.825C187.744 128.509 185.568 130.684 182.885 130.684Z" fill="#30579D"/>
<path d="M184.494 130.41C183.991 130.586 183.449 130.683 182.885 130.683C180.2 130.683 178.025 128.508 178.025 125.825V120.965L181.844 116.332L183.796 117.864L181.242 120.965V125.825C181.242 127.946 182.601 129.747 184.494 130.41Z" fill="#26457D"/>
<path d="M184.436 94.4944H143.42C137.847 94.4944 133.33 99.0116 133.33 104.584V106.242C133.33 111.814 137.847 116.331 143.42 116.331H184.436C190.008 116.331 194.526 111.814 194.526 106.242V104.584C194.526 99.0118 190.008 94.4944 184.436 94.4944Z" fill="#DD636E"/>
<path d="M152.065 116.331H143.419C137.846 116.331 133.329 111.815 133.329 106.241V104.584C133.329 99.0109 137.846 94.4944 143.419 94.4944H152.065C146.491 94.4944 141.975 99.0109 141.975 104.584V106.241C141.975 111.815 146.491 116.331 152.065 116.331Z" fill="#DA4A54"/>
<path d="M190.685 113.284H137.171C135.05 113.284 133.33 115.004 133.33 117.125C133.33 119.246 135.05 120.966 137.171 120.966H190.685C192.806 120.966 194.526 119.246 194.526 117.125C194.526 115.004 192.806 113.284 190.685 113.284Z" fill="#F6F9F9"/>
<path d="M142.93 119.84C143.625 120.535 144.585 120.965 145.645 120.965H137.169C136.109 120.965 135.149 120.535 134.454 119.84C133.759 119.145 133.329 118.185 133.329 117.125C133.329 115.004 135.049 113.285 137.169 113.285H145.645C143.524 113.285 141.805 115.004 141.805 117.125C141.805 118.185 142.235 119.145 142.93 119.84Z" fill="#E7ECF6"/>
<path d="M143.052 109.718C141.491 109.718 140.227 108.453 140.227 106.893V102.202C140.227 100.641 141.491 99.3762 143.052 99.3762C144.612 99.3762 145.877 100.641 145.877 102.202V106.893C145.877 108.453 144.612 109.718 143.052 109.718Z" fill="#F6F9F9"/>
<path d="M184.803 109.718C183.242 109.718 181.978 108.453 181.978 106.893V102.202C181.978 100.641 183.242 99.3762 184.803 99.3762C186.363 99.3762 187.628 100.641 187.628 102.202V106.893C187.628 108.453 186.363 109.718 184.803 109.718Z" fill="#F6F9F9"/>
<path d="M186.064 109.422C185.685 109.612 185.257 109.719 184.803 109.719C183.243 109.719 181.978 108.455 181.978 106.893V102.202C181.978 100.642 183.243 99.3774 184.803 99.3774C185.257 99.3774 185.685 99.4845 186.064 99.6748C185.136 100.137 184.499 101.095 184.499 102.202V106.893C184.499 108.001 185.136 108.959 186.064 109.422Z" fill="#E7ECF6"/>
<path d="M144.313 109.422C143.934 109.612 143.506 109.719 143.052 109.719C141.492 109.719 140.227 108.455 140.227 106.893V102.202C140.227 100.642 141.492 99.3777 143.052 99.3777C143.506 99.3777 143.934 99.4847 144.313 99.675C143.385 100.137 142.748 101.096 142.748 102.202V106.893C142.748 108.001 143.385 108.96 144.313 109.422Z" fill="#E7ECF6"/>
<path d="M212.961 86.3763C213.107 86.3763 213.255 86.3512 213.4 86.2978C216.749 85.0674 219 81.843 219 78.2741V53.5488C219 48.835 215.165 45 210.451 45H185.726C181.013 45 177.178 48.835 177.178 53.5488V71.6857C176.952 71.6709 176.723 71.6607 176.493 71.6607H151.362C146.295 71.6607 142.051 75.295 141.272 80.3025L140.901 82.6826H137.114C135.786 82.6826 134.536 83.2001 133.596 84.14C132.657 85.0798 132.139 86.3291 132.139 87.6579C132.139 90.4013 134.371 92.6332 137.114 92.6332H139.353L139.131 94.0619C134.985 95.7579 132.056 99.834 132.056 104.584V106.242C132.056 108.683 132.821 111.006 134.237 112.939C132.919 113.865 132.056 115.395 132.056 117.125C132.056 118.491 132.588 119.775 133.554 120.741C134.52 121.707 135.804 122.24 137.17 122.24H138.327V125.825C138.327 127.181 138.77 128.435 139.518 129.451H133.274C132.571 129.451 132 130.022 132 130.725C132 131.429 132.571 132 133.274 132H217.725C218.429 132 218.999 131.429 218.999 130.725C218.999 130.022 218.429 129.451 217.725 129.451H199.363V86.8212H207.902C208.606 86.8212 209.176 86.2506 209.176 85.5468C209.176 84.8429 208.606 84.2723 207.902 84.2723H194.381C193.472 83.2953 192.176 82.6826 190.74 82.6826H186.953L186.583 80.3021C185.977 76.4106 183.278 73.3494 179.727 72.178V53.5488C179.727 50.2404 182.418 47.5488 185.726 47.5488H210.451C213.759 47.5488 216.451 50.2404 216.451 53.5488V78.2741C216.451 80.7788 214.872 83.0418 212.521 83.9053C211.861 84.148 211.522 84.8803 211.764 85.541C211.954 86.0567 212.442 86.3763 212.961 86.3763ZM137.114 90.0844C135.776 90.0844 134.688 88.9958 134.688 87.6579C134.688 87.01 134.94 86.4006 135.399 85.9422C135.857 85.4837 136.466 85.2314 137.114 85.2314H140.505L139.75 90.0844H137.114ZM134.605 106.242V104.584C134.605 99.723 138.558 95.7684 143.418 95.7684H184.436C189.296 95.7684 193.251 99.723 193.251 104.584V106.242C193.251 108.392 192.485 110.422 191.085 112.027C190.952 112.017 190.818 112.011 190.684 112.011H137.17C137.036 112.011 136.903 112.017 136.771 112.028C135.371 110.422 134.605 108.392 134.605 106.242ZM180.091 93.2194C179.767 88.9318 176.177 85.5415 171.808 85.5415C167.439 85.5415 163.849 88.9318 163.525 93.2194H147.001L148.828 81.4771C149.023 80.2197 150.089 79.3072 151.362 79.3072H176.493C177.766 79.3072 178.831 80.2199 179.026 81.4776L180.853 93.2194H180.091ZM177.533 93.2194H166.083C166.398 90.3391 168.845 88.0903 171.808 88.0903C174.771 88.0903 177.218 90.3391 177.533 93.2194ZM148.046 122.24V125.825C148.046 127.802 146.438 129.41 144.461 129.41C142.484 129.41 140.876 127.802 140.876 125.825V122.24H148.046ZM150.595 125.825V122.24H152.849C153.553 122.24 154.123 121.669 154.123 120.965C154.123 120.261 153.553 119.691 152.849 119.691H137.17C136.485 119.691 135.841 119.424 135.356 118.939C134.871 118.455 134.605 117.81 134.605 117.125C134.605 115.71 135.756 114.559 137.17 114.559H190.684C191.37 114.559 192.015 114.826 192.5 115.311C192.985 115.796 193.251 116.44 193.251 117.125C193.251 118.54 192.1 119.691 190.684 119.691H157.947C157.243 119.691 156.672 120.261 156.672 120.965C156.672 121.669 157.243 122.24 157.947 122.24H176.751V125.825C176.751 127.181 177.194 128.435 177.942 129.451H149.404C150.152 128.435 150.595 127.181 150.595 125.825ZM186.47 125.825C186.47 127.802 184.862 129.41 182.885 129.41C180.908 129.41 179.3 127.802 179.3 125.825V122.24H186.47V125.825ZM196.814 86.8212V129.451H187.828C188.576 128.435 189.019 127.181 189.019 125.825V122.24H190.684C193.505 122.24 195.8 119.945 195.8 117.125C195.8 115.759 195.268 114.475 194.302 113.509C194.089 113.296 193.861 113.106 193.62 112.936C195.035 111.004 195.8 108.682 195.8 106.242V104.584C195.8 99.8341 192.87 95.7579 188.723 94.0619L188.501 92.6332H190.739C192.068 92.6332 193.317 92.1156 194.257 91.1758C195.197 90.2359 195.715 88.9865 195.715 87.6579C195.715 87.3726 195.689 87.0934 195.643 86.8212H196.814ZM190.74 85.2314C192.078 85.2314 193.166 86.3199 193.166 87.6579C193.166 88.3058 192.914 88.9151 192.455 89.3736C191.997 89.832 191.388 90.0844 190.74 90.0844H188.104L187.35 85.2314H190.74ZM184.064 80.6943L186.031 93.3336C185.509 93.26 184.977 93.2194 184.436 93.2194H183.433L181.545 81.0861C181.156 78.5784 179.031 76.7584 176.493 76.7584H151.362C148.823 76.7584 146.699 78.5784 146.31 81.0858L144.422 93.2194H143.418C142.877 93.2194 142.345 93.26 141.824 93.3336L143.79 80.6946C144.375 76.937 147.56 74.2096 151.362 74.2096H176.493C180.295 74.2096 183.479 76.937 184.064 80.6943Z" fill="black"/>
<path d="M199.621 49.8433H192.391C191.638 49.8433 190.935 49.9984 190.303 50.3044C188.646 51.1063 187.62 52.742 187.626 54.5691V78.1767C187.626 80.2734 189.332 81.9791 191.428 81.9791H193.254C195.35 81.9791 197.056 80.2734 197.056 78.1767V74.0379C198.054 74.0335 198.996 74.0303 199.621 74.0303C206.37 74.0303 211.859 68.6052 211.859 61.9368C211.859 55.2684 206.37 49.8433 199.621 49.8433ZM199.621 71.4815C198.73 71.4815 197.199 71.4879 195.775 71.495C195.074 71.4986 194.507 72.0682 194.507 72.7695V78.1767C194.507 78.868 193.945 79.4302 193.254 79.4302H191.429C190.737 79.4302 190.175 78.868 190.175 78.1767V54.5652C190.172 53.7233 190.647 52.9698 191.414 52.5989C191.693 52.4636 192.031 52.3923 192.391 52.3923H199.621C204.964 52.3923 209.311 56.674 209.311 61.9369C209.311 67.1999 204.964 71.4815 199.621 71.4815Z" fill="black"/>
<path d="M199.622 56.7245H195.792C195.453 56.7245 195.129 56.8592 194.89 57.099C194.65 57.3388 194.517 57.6638 194.518 58.0023C194.522 59.5318 194.532 64.4276 194.539 65.8947C194.541 66.2326 194.677 66.5562 194.917 66.7939C195.156 67.0302 195.478 67.1626 195.814 67.1626H195.82C197.23 67.1555 198.736 67.1492 199.622 67.1492C202.525 67.1492 204.979 64.7621 204.979 61.9367C204.979 59.1112 202.525 56.7245 199.622 56.7245ZM199.622 64.6005C198.998 64.6005 198.069 64.6036 197.082 64.608C197.078 63.5672 197.072 60.3669 197.07 59.2733H199.622C201.118 59.2733 202.43 60.518 202.43 61.937C202.43 63.356 201.118 64.6005 199.622 64.6005Z" fill="black"/>
<path d="M143.051 110.993C145.312 110.993 147.151 109.154 147.151 106.893V102.202C147.151 99.941 145.312 98.1019 143.051 98.1019C140.79 98.1019 138.951 99.941 138.951 102.202V106.893C138.951 109.154 140.79 110.993 143.051 110.993ZM141.5 102.202C141.5 101.346 142.196 100.651 143.051 100.651C143.906 100.651 144.602 101.346 144.602 102.202V106.893C144.602 107.748 143.906 108.444 143.051 108.444C142.196 108.444 141.5 107.748 141.5 106.893V102.202Z" fill="black"/>
<path d="M184.803 110.993C187.063 110.993 188.903 109.154 188.903 106.893V102.202C188.903 99.941 187.063 98.1019 184.803 98.1019C182.542 98.1019 180.703 99.941 180.703 102.202V106.893C180.703 109.154 182.542 110.993 184.803 110.993ZM183.252 102.202C183.252 101.346 183.948 100.651 184.803 100.651C185.658 100.651 186.354 101.346 186.354 102.202V106.893C186.354 107.748 185.658 108.444 184.803 108.444C183.948 108.444 183.252 107.748 183.252 106.893V102.202Z" fill="black"/>
<path d="M152.823 103.821H175.03C175.734 103.821 176.304 103.25 176.304 102.546C176.304 101.842 175.734 101.272 175.03 101.272H152.823C152.119 101.272 151.549 101.842 151.549 102.546C151.549 103.25 152.119 103.821 152.823 103.821Z" fill="black"/>
<path d="M152.823 108.387H175.03C175.734 108.387 176.304 107.816 176.304 107.112C176.304 106.409 175.734 105.838 175.03 105.838H152.823C152.119 105.838 151.549 106.409 151.549 107.112C151.549 107.816 152.119 108.387 152.823 108.387Z" fill="black"/>
</g>
<defs>
<clipPath id="clip0_6349_885">
<rect width="87" height="87" fill="white" transform="translate(132 45)"/>
</clipPath>
</defs>
</svg>
