<svg width="350" height="234" viewBox="0 0 350 234" fill="none" xmlns="http://www.w3.org/2000/svg">
<rect width="350" height="234" rx="28" fill="#0A8996"/>
<path d="M65.4759 185.273L69.5188 197.982H69.674L73.7251 185.273H77.6456L71.8793 202H67.3217L61.5472 185.273H65.4759ZM79.5936 202V189.455H83.073V202H79.5936ZM81.3414 187.837C80.8242 187.837 80.3804 187.666 80.0101 187.323C79.6453 186.974 79.4629 186.558 79.4629 186.073C79.4629 185.594 79.6453 185.183 80.0101 184.84C80.3804 184.491 80.8242 184.317 81.3414 184.317C81.8587 184.317 82.2998 184.491 82.6646 184.84C83.0349 185.183 83.22 185.594 83.22 186.073C83.22 186.558 83.0349 186.974 82.6646 187.323C82.2998 187.666 81.8587 187.837 81.3414 187.837ZM96.2984 193.032L93.113 193.228C93.0586 192.956 92.9415 192.711 92.7618 192.493C92.5821 192.27 92.3453 192.093 92.0512 191.962C91.7626 191.826 91.4169 191.758 91.0139 191.758C90.4749 191.758 90.0202 191.872 89.6499 192.101C89.2797 192.324 89.0945 192.624 89.0945 192.999C89.0945 193.299 89.2143 193.552 89.4539 193.759C89.6935 193.966 90.1046 194.132 90.6872 194.257L92.9578 194.714C94.1775 194.965 95.0869 195.368 95.6858 195.923C96.2848 196.479 96.5843 197.208 96.5843 198.112C96.5843 198.934 96.3419 199.656 95.8573 200.277C95.3782 200.897 94.7193 201.382 93.8808 201.73C93.0477 202.074 92.0866 202.245 90.9976 202.245C89.3369 202.245 88.0137 201.899 87.0281 201.208C86.048 200.511 85.4736 199.563 85.3048 198.365L88.727 198.186C88.8305 198.692 89.0809 199.079 89.4784 199.346C89.8759 199.607 90.385 199.738 91.0058 199.738C91.6156 199.738 92.1057 199.621 92.4759 199.386C92.8517 199.147 93.0422 198.839 93.0477 198.463C93.0422 198.148 92.9088 197.889 92.6475 197.688C92.3861 197.481 91.9832 197.323 91.4387 197.214L89.2661 196.781C88.0409 196.536 87.1289 196.111 86.5299 195.507C85.9364 194.902 85.6396 194.132 85.6396 193.195C85.6396 192.389 85.8575 191.695 86.2931 191.113C86.7341 190.53 87.3521 190.081 88.1471 189.765C88.9475 189.449 89.8841 189.291 90.9568 189.291C92.5413 189.291 93.7882 189.626 94.6975 190.296C95.6123 190.966 96.1459 191.878 96.2984 193.032ZM98.7752 202V189.455H102.255V202H98.7752ZM100.523 187.837C100.006 187.837 99.562 187.666 99.1918 187.323C98.8269 186.974 98.6445 186.558 98.6445 186.073C98.6445 185.594 98.8269 185.183 99.1918 184.84C99.562 184.491 100.006 184.317 100.523 184.317C101.04 184.317 101.481 184.491 101.846 184.84C102.217 185.183 102.402 185.594 102.402 186.073C102.402 186.558 102.217 186.974 101.846 187.323C101.481 187.666 101.04 187.837 100.523 187.837ZM111.715 189.455V192.068H104.16V189.455H111.715ZM105.875 186.449H109.354V198.145C109.354 198.466 109.403 198.717 109.501 198.896C109.599 199.071 109.735 199.193 109.91 199.264C110.089 199.335 110.296 199.37 110.53 199.37C110.694 199.37 110.857 199.356 111.021 199.329C111.184 199.297 111.309 199.272 111.396 199.256L111.943 201.845C111.769 201.899 111.524 201.962 111.208 202.033C110.893 202.109 110.509 202.155 110.057 202.172C109.218 202.204 108.483 202.093 107.851 201.837C107.225 201.581 106.738 201.183 106.389 200.644C106.041 200.105 105.869 199.424 105.875 198.602V186.449ZM119.515 202.245C118.246 202.245 117.149 201.975 116.223 201.436C115.303 200.892 114.592 200.135 114.092 199.166C113.591 198.191 113.34 197.061 113.34 195.776C113.34 194.48 113.591 193.348 114.092 192.379C114.592 191.404 115.303 190.647 116.223 190.108C117.149 189.563 118.246 189.291 119.515 189.291C120.784 189.291 121.878 189.563 122.798 190.108C123.724 190.647 124.437 191.404 124.938 192.379C125.439 193.348 125.69 194.48 125.69 195.776C125.69 197.061 125.439 198.191 124.938 199.166C124.437 200.135 123.724 200.892 122.798 201.436C121.878 201.975 120.784 202.245 119.515 202.245ZM119.531 199.55C120.108 199.55 120.59 199.386 120.977 199.06C121.363 198.728 121.655 198.276 121.851 197.704C122.052 197.132 122.153 196.481 122.153 195.752C122.153 195.022 122.052 194.371 121.851 193.8C121.655 193.228 121.363 192.776 120.977 192.444C120.59 192.112 120.108 191.946 119.531 191.946C118.949 191.946 118.458 192.112 118.061 192.444C117.669 192.776 117.372 193.228 117.171 193.8C116.975 194.371 116.877 195.022 116.877 195.752C116.877 196.481 116.975 197.132 117.171 197.704C117.372 198.276 117.669 198.728 118.061 199.06C118.458 199.386 118.949 199.55 119.531 199.55ZM127.952 202V189.455H131.325V191.643H131.456C131.685 190.865 132.068 190.277 132.608 189.879C133.147 189.476 133.767 189.275 134.47 189.275C134.644 189.275 134.832 189.286 135.033 189.308C135.235 189.329 135.412 189.359 135.564 189.397V192.485C135.401 192.436 135.175 192.392 134.886 192.354C134.598 192.316 134.334 192.297 134.094 192.297C133.582 192.297 133.125 192.408 132.722 192.632C132.324 192.85 132.009 193.154 131.774 193.547C131.546 193.939 131.431 194.391 131.431 194.902V202H127.952Z" fill="white"/>
<path d="M157.99 185.273V202H154.454V185.273H157.99ZM164.314 194.747V202H160.835V189.455H164.151V191.668H164.298C164.576 190.938 165.041 190.361 165.695 189.936C166.348 189.506 167.14 189.291 168.071 189.291C168.943 189.291 169.702 189.482 170.35 189.863C170.998 190.244 171.502 190.789 171.861 191.496C172.22 192.199 172.4 193.037 172.4 194.012V202H168.921V194.633C168.926 193.865 168.73 193.266 168.333 192.836C167.935 192.4 167.388 192.183 166.691 192.183C166.223 192.183 165.809 192.283 165.449 192.485C165.096 192.686 164.818 192.98 164.616 193.367C164.42 193.748 164.32 194.208 164.314 194.747ZM182.959 193.751V196.511H175.33V193.751H182.959ZM201.36 193.636C201.36 195.46 201.015 197.012 200.323 198.292C199.637 199.571 198.701 200.549 197.513 201.224C196.332 201.894 195.003 202.229 193.528 202.229C192.041 202.229 190.707 201.891 189.526 201.216C188.344 200.541 187.41 199.563 186.724 198.284C186.038 197.004 185.695 195.455 185.695 193.636C185.695 191.812 186.038 190.26 186.724 188.981C187.41 187.701 188.344 186.727 189.526 186.057C190.707 185.382 192.041 185.044 193.528 185.044C195.003 185.044 196.332 185.382 197.513 186.057C198.701 186.727 199.637 187.701 200.323 188.981C201.015 190.26 201.36 191.812 201.36 193.636ZM197.775 193.636C197.775 192.455 197.598 191.458 197.244 190.647C196.895 189.836 196.403 189.22 195.766 188.801C195.129 188.382 194.383 188.172 193.528 188.172C192.673 188.172 191.927 188.382 191.29 188.801C190.653 189.22 190.157 189.836 189.803 190.647C189.455 191.458 189.281 192.455 189.281 193.636C189.281 194.818 189.455 195.814 189.803 196.626C190.157 197.437 190.653 198.052 191.29 198.472C191.927 198.891 192.673 199.1 193.528 199.1C194.383 199.1 195.129 198.891 195.766 198.472C196.403 198.052 196.895 197.437 197.244 196.626C197.598 195.814 197.775 194.818 197.775 193.636ZM211.96 196.658V189.455H215.439V202H212.099V199.721H211.968C211.685 200.456 211.214 201.047 210.555 201.494C209.902 201.94 209.104 202.163 208.162 202.163C207.323 202.163 206.586 201.973 205.949 201.592C205.312 201.21 204.813 200.669 204.454 199.966C204.1 199.264 203.92 198.423 203.915 197.442V189.455H207.394V196.822C207.4 197.562 207.598 198.148 207.991 198.578C208.383 199.008 208.908 199.223 209.567 199.223C209.986 199.223 210.378 199.128 210.743 198.937C211.108 198.741 211.402 198.453 211.625 198.071C211.854 197.69 211.965 197.219 211.96 196.658ZM224.895 189.455V192.068H217.34V189.455H224.895ZM219.056 186.449H222.535V198.145C222.535 198.466 222.584 198.717 222.682 198.896C222.78 199.071 222.916 199.193 223.09 199.264C223.27 199.335 223.477 199.37 223.711 199.37C223.874 199.37 224.038 199.356 224.201 199.329C224.365 199.297 224.49 199.272 224.577 199.256L225.124 201.845C224.95 201.899 224.705 201.962 224.389 202.033C224.073 202.109 223.689 202.155 223.237 202.172C222.399 202.204 221.664 202.093 221.032 201.837C220.406 201.581 219.919 201.183 219.57 200.644C219.222 200.105 219.05 199.424 219.056 198.602V186.449ZM232.551 202V185.273H236.03V191.562H236.136C236.289 191.224 236.509 190.881 236.798 190.533C237.092 190.179 237.473 189.885 237.941 189.651C238.415 189.411 239.003 189.291 239.705 189.291C240.62 189.291 241.464 189.531 242.237 190.01C243.011 190.484 243.629 191.2 244.091 192.158C244.554 193.111 244.786 194.306 244.786 195.744C244.786 197.143 244.56 198.325 244.108 199.288C243.661 200.247 243.051 200.974 242.278 201.469C241.51 201.959 240.65 202.204 239.697 202.204C239.022 202.204 238.448 202.093 237.974 201.869C237.506 201.646 237.122 201.366 236.822 201.028C236.523 200.685 236.294 200.339 236.136 199.991H235.981V202H232.551ZM235.956 195.727C235.956 196.473 236.06 197.124 236.267 197.679C236.474 198.235 236.773 198.668 237.165 198.978C237.557 199.283 238.034 199.435 238.595 199.435C239.161 199.435 239.64 199.28 240.032 198.97C240.424 198.654 240.721 198.218 240.922 197.663C241.129 197.102 241.233 196.457 241.233 195.727C241.233 195.003 241.132 194.366 240.93 193.816C240.729 193.266 240.432 192.836 240.04 192.526C239.648 192.215 239.166 192.06 238.595 192.06C238.028 192.06 237.549 192.21 237.157 192.509C236.77 192.809 236.474 193.233 236.267 193.783C236.06 194.333 235.956 194.981 235.956 195.727ZM252.776 202.245C251.507 202.245 250.41 201.975 249.484 201.436C248.564 200.892 247.853 200.135 247.352 199.166C246.851 198.191 246.601 197.061 246.601 195.776C246.601 194.48 246.851 193.348 247.352 192.379C247.853 191.404 248.564 190.647 249.484 190.108C250.41 189.563 251.507 189.291 252.776 189.291C254.044 189.291 255.139 189.563 256.059 190.108C256.985 190.647 257.698 191.404 258.199 192.379C258.7 193.348 258.95 194.48 258.95 195.776C258.95 197.061 258.7 198.191 258.199 199.166C257.698 200.135 256.985 200.892 256.059 201.436C255.139 201.975 254.044 202.245 252.776 202.245ZM252.792 199.55C253.369 199.55 253.851 199.386 254.238 199.06C254.624 198.728 254.915 198.276 255.112 197.704C255.313 197.132 255.414 196.481 255.414 195.752C255.414 195.022 255.313 194.371 255.112 193.8C254.915 193.228 254.624 192.776 254.238 192.444C253.851 192.112 253.369 191.946 252.792 191.946C252.209 191.946 251.719 192.112 251.322 192.444C250.93 192.776 250.633 193.228 250.431 193.8C250.235 194.371 250.137 195.022 250.137 195.752C250.137 196.481 250.235 197.132 250.431 197.704C250.633 198.276 250.93 198.728 251.322 199.06C251.719 199.386 252.209 199.55 252.792 199.55ZM266.881 202.245C265.612 202.245 264.515 201.975 263.589 201.436C262.669 200.892 261.959 200.135 261.458 199.166C260.957 198.191 260.706 197.061 260.706 195.776C260.706 194.48 260.957 193.348 261.458 192.379C261.959 191.404 262.669 190.647 263.589 190.108C264.515 189.563 265.612 189.291 266.881 189.291C268.15 189.291 269.244 189.563 270.164 190.108C271.09 190.647 271.803 191.404 272.304 192.379C272.805 193.348 273.056 194.48 273.056 195.776C273.056 197.061 272.805 198.191 272.304 199.166C271.803 200.135 271.09 200.892 270.164 201.436C269.244 201.975 268.15 202.245 266.881 202.245ZM266.897 199.55C267.475 199.55 267.956 199.386 268.343 199.06C268.73 198.728 269.021 198.276 269.217 197.704C269.418 197.132 269.519 196.481 269.519 195.752C269.519 195.022 269.418 194.371 269.217 193.8C269.021 193.228 268.73 192.776 268.343 192.444C267.956 192.112 267.475 191.946 266.897 191.946C266.315 191.946 265.825 192.112 265.427 192.444C265.035 192.776 264.738 193.228 264.537 193.8C264.341 194.371 264.243 195.022 264.243 195.752C264.243 196.481 264.341 197.132 264.537 197.704C264.738 198.276 265.035 198.728 265.427 199.06C265.825 199.386 266.315 199.55 266.897 199.55ZM278.471 198.39L278.479 194.216H278.985L283.004 189.455H286.998L281.599 195.76H280.774L278.471 198.39ZM275.318 202V185.273H278.798V202H275.318ZM283.159 202L279.467 196.536L281.787 194.077L287.235 202H283.159Z" fill="white"/>
<circle cx="174.5" cy="93.5" r="70.5" fill="white"/>
<path fill-rule="evenodd" clip-rule="evenodd" d="M170.788 98.1177H179.129V129.278H170.788V98.1177Z" fill="#FFC343"/>
<path fill-rule="evenodd" clip-rule="evenodd" d="M190.564 127.66H179.129H170.788H159.353C156.987 127.66 155.048 129.599 155.048 131.965V133.94C155.048 135.222 156.096 136.266 157.379 136.266H192.538C193.816 136.266 194.864 135.222 194.864 133.94V131.965C194.864 129.599 192.93 127.66 190.564 127.66Z" fill="#547884"/>
<path fill-rule="evenodd" clip-rule="evenodd" d="M179.129 127.66V99.731H176.63H174.956V127.66H179.129Z" fill="#FEA610"/>
<path fill-rule="evenodd" clip-rule="evenodd" d="M194.864 131.965C194.864 129.599 192.93 127.66 190.564 127.66H187.114C189.48 127.66 191.419 129.599 191.419 131.965V133.94C191.419 135.222 190.371 136.266 189.088 136.266H192.539C193.816 136.266 194.864 135.222 194.864 133.94L194.864 131.965Z" fill="#3D5959"/>
<path fill-rule="evenodd" clip-rule="evenodd" d="M188.905 92.1993L175.343 89.5071L161.007 92.1993V95.9652C161.007 98.0364 162.702 99.7311 164.773 99.7311H172.168H180.508H185.139C187.21 99.7311 188.905 98.0364 188.905 95.9652L188.905 92.1993Z" fill="#547884"/>
<path fill-rule="evenodd" clip-rule="evenodd" d="M188.905 95.9651V92.1992H185.46V95.9651C185.46 98.0363 183.765 99.7311 181.694 99.7311H185.139C187.21 99.7311 188.905 98.0365 188.905 95.9651Z" fill="#3D5959"/>
<path fill-rule="evenodd" clip-rule="evenodd" d="M215.271 52.3464H134.647C132.28 52.3464 130.346 54.2803 130.346 56.6468V87.8989C130.346 90.2654 132.28 92.1991 134.647 92.1991H161.007H188.905H215.271C217.632 92.1991 219.571 90.2652 219.571 87.8989V56.6468C219.571 54.2803 217.632 52.3464 215.271 52.3464Z" fill="#60B7FF"/>
<path fill-rule="evenodd" clip-rule="evenodd" d="M219.571 87.899V56.6469C219.571 54.2805 217.632 52.3467 215.271 52.3467H209.882C212.248 52.3467 214.182 54.2805 214.182 56.6469V87.899C214.182 90.2655 212.248 92.1992 209.882 92.1992H215.271C217.632 92.1992 219.571 90.2653 219.571 87.899Z" fill="#22A6FE"/>
<path d="M150.801 66.1582V77.6851C150.801 78.4287 151.404 79.0315 152.148 79.0315C152.891 79.0315 153.494 78.4287 153.494 77.6851V66.1582C153.494 65.4146 152.891 64.8118 152.148 64.8118C151.404 64.8118 150.801 65.4146 150.801 66.1582Z" fill="black"/>
<path d="M142.524 79.0086H142.539C143.215 79.0021 143.818 78.5682 144.04 77.9289C144.042 77.9228 144.045 77.9169 144.047 77.9108L147.807 66.5825C148.042 65.8768 147.659 65.1147 146.954 64.8804C146.248 64.6462 145.486 65.0284 145.251 65.7341L142.499 74.0255L139.608 65.6966C139.364 64.9939 138.597 64.6223 137.895 64.8661C137.192 65.1099 136.82 65.877 137.064 66.5795L141.003 77.928C141.006 77.9365 141.009 77.9449 141.012 77.9534C141.246 78.5862 141.852 79.0086 142.524 79.0086Z" fill="black"/>
<path d="M203.77 64.8117C203.769 64.8117 203.768 64.8119 203.767 64.8119C203.767 64.8119 203.766 64.8117 203.765 64.8117C203.021 64.8117 202.418 65.4146 202.418 66.1581V77.685C202.418 78.4286 203.021 79.0314 203.765 79.0314C204.508 79.0314 205.111 78.4286 205.111 77.685V74.1735L208.983 78.5742C209.249 78.8769 209.621 79.0313 209.994 79.0313C210.31 79.0313 210.627 78.9207 210.883 78.6957C211.441 78.2045 211.496 77.3538 211.005 76.7954L207.975 73.3518C209.909 72.8626 211.34 71.1668 211.34 69.1555C211.34 66.7603 209.316 64.8115 206.828 64.8115L203.77 64.8117ZM208.647 69.1557C208.647 70.0479 207.814 70.8016 206.828 70.8016C206.433 70.8016 205.748 70.805 205.128 70.8084C205.125 70.2022 205.121 69.5381 205.121 69.1557C205.121 68.8302 205.12 68.1407 205.119 67.5046H206.828C207.814 67.5046 208.647 68.2606 208.647 69.1557Z" fill="black"/>
<path d="M192.457 79.0313C196.376 79.0313 199.564 75.8408 199.564 71.919C199.564 68 196.376 64.8118 192.457 64.8118C188.535 64.8118 185.345 68.0002 185.345 71.919C185.345 75.841 188.535 79.0313 192.457 79.0313ZM192.457 67.5047C194.891 67.5047 196.871 69.485 196.871 71.919C196.871 74.3559 194.891 76.3384 192.457 76.3384C190.02 76.3384 188.038 74.3559 188.038 71.919C188.038 69.485 190.02 67.5047 192.457 67.5047Z" fill="black"/>
<path d="M162.112 76.1554C160.94 76.1554 159.813 75.6818 159.095 74.8887C158.596 74.3372 157.745 74.2946 157.193 74.7936C156.642 75.2925 156.599 76.1439 157.098 76.6953C158.336 78.0636 160.163 78.8483 162.112 78.8483C164.497 78.8483 166.498 77.3306 166.871 75.2395C167.151 73.6704 166.433 71.6195 163.58 70.5695C162.148 70.0413 160.819 69.4675 160.426 69.2956C160.063 69.0117 160.075 68.613 160.099 68.4477C160.131 68.2265 160.29 67.6865 161.079 67.4479C162.753 66.9441 164.298 68.1631 164.342 68.1983C164.912 68.6697 165.757 68.5936 166.233 68.0258C166.71 67.4558 166.635 66.6064 166.065 66.1289C165.958 66.0391 163.402 63.938 160.302 64.8695C158.748 65.3392 157.649 66.5635 157.433 68.0644C157.231 69.4719 157.84 70.8269 159.023 71.6009C159.084 71.6402 159.147 71.6746 159.212 71.7039C159.279 71.7335 160.861 72.4369 162.649 73.0963C163.176 73.2904 164.384 73.8417 164.22 74.7672C164.098 75.4495 163.276 76.1554 162.112 76.1554Z" fill="black"/>
<path d="M170.882 66.1582V77.6851C170.882 78.4287 171.485 79.0315 172.229 79.0315C172.972 79.0315 173.575 78.4287 173.575 77.6851V66.1582C173.575 65.4146 172.972 64.8118 172.229 64.8118C171.485 64.8118 170.882 65.4146 170.882 66.1582Z" fill="black"/>
<path d="M184.04 64.4453H177.674C176.93 64.4453 176.327 65.0482 176.327 65.7918C176.327 66.5354 176.93 67.1382 177.674 67.1382H179.498V77.3134C179.498 78.057 180.101 78.6598 180.844 78.6598C181.588 78.6598 182.191 78.057 182.191 77.3134V67.1382H184.04C184.784 67.1382 185.387 66.5354 185.387 65.7918C185.387 65.0482 184.784 64.4453 184.04 64.4453Z" fill="black"/>
<path d="M139.674 60.6497C140.418 60.6497 141.013 60.0468 141.013 59.3032C141.013 58.5596 140.403 57.9568 139.659 57.9568C138.916 57.9568 138.313 58.5596 138.313 59.3032C138.313 60.0468 138.916 60.6497 139.659 60.6497H139.674Z" fill="black"/>
<path d="M211.6 59.3032C211.6 58.5596 210.997 57.9568 210.253 57.9568H210.238C209.494 57.9568 208.899 58.5596 208.899 59.3032C208.899 60.0468 209.51 60.6497 210.253 60.6497C210.997 60.6497 211.6 60.0468 211.6 59.3032Z" fill="black"/>
<path d="M139.659 83.896C138.916 83.896 138.313 84.4988 138.313 85.2424C138.313 85.986 138.916 86.5889 139.659 86.5889H139.674C140.418 86.5889 141.013 85.986 141.013 85.2424C141.013 84.4988 140.403 83.896 139.659 83.896Z" fill="black"/>
<path d="M210.253 83.896H210.238C209.494 83.896 208.899 84.4988 208.899 85.2424C208.899 85.986 209.51 86.5889 210.253 86.5889C210.997 86.5889 211.6 85.986 211.6 85.2424C211.6 84.4988 210.997 83.896 210.253 83.896Z" fill="black"/>
<path d="M215.271 51H177.898C177.154 51 176.551 51.6028 176.551 52.3464C176.551 53.09 177.154 53.6929 177.898 53.6929H215.271C216.899 53.6929 218.225 55.018 218.225 56.6468V87.8989C218.225 89.5278 216.9 90.8528 215.271 90.8528H188.905H161.007H134.647C133.018 90.8528 131.693 89.5278 131.693 87.8989V56.6468C131.693 55.018 133.018 53.6929 134.647 53.6929H171.338C172.082 53.6929 172.684 53.09 172.684 52.3464C172.684 51.6028 172.082 51 171.338 51H134.647C131.533 51 129 53.5331 129 56.6468V87.8989C129 91.0126 131.533 93.5457 134.647 93.5457H159.661V95.9652C159.661 98.7841 161.954 101.078 164.773 101.078H169.442V126.314H159.353C156.237 126.314 153.702 128.849 153.702 131.965V133.94C153.702 135.965 155.351 137.612 157.379 137.612H192.538C194.563 137.612 196.21 135.965 196.21 133.94V131.965C196.21 128.849 193.678 126.313 190.564 126.313H180.476V117.258C180.476 116.514 179.873 115.911 179.129 115.911C178.386 115.911 177.783 116.514 177.783 117.258V126.313H172.135V101.077H177.783V111.039C177.783 111.783 178.386 112.385 179.129 112.385C179.873 112.385 180.476 111.783 180.476 111.039V101.077H185.139C187.958 101.077 190.251 98.784 190.251 95.965V93.5456H215.271C218.384 93.5456 220.918 91.0124 220.918 87.8987V56.6468C220.917 53.5331 218.384 51 215.271 51ZM190.564 129.006C192.193 129.006 193.518 130.334 193.518 131.965V133.94C193.518 134.48 193.078 134.919 192.539 134.919H157.379C156.836 134.919 156.395 134.48 156.395 133.94V131.965C156.395 130.334 157.722 129.006 159.354 129.006H190.564ZM187.559 95.965C187.559 97.2991 186.473 98.3845 185.139 98.3845H164.773C163.439 98.3845 162.354 97.2991 162.354 95.965V93.5456H187.559V95.965Z" fill="black"/>
</svg>
