<svg width="234" height="343" viewBox="0 0 234 343" fill="none" xmlns="http://www.w3.org/2000/svg">
<path d="M93.9752 165.316C92.7903 164.503 91.1941 164.806 89.7943 165.143C84.8781 166.322 79.9629 167.501 75.0467 168.68C74.7052 169.026 74.9125 169.659 75.3249 169.92C75.7373 170.18 76.2588 170.174 76.7465 170.159C77.8692 170.125 78.993 170.091 80.1179 170.057C79.6596 170.292 78.9973 170.316 78.7431 170.763C78.394 171.378 79.7753 171.589 80.479 171.497C84.7384 170.941 89.0491 170.374 93.038 168.785C93.7679 168.494 99.4413 166.432 99.6889 165.689C99.9355 164.944 94.6254 165.761 93.9752 165.316Z" fill="#F2A19C"/>
<path d="M101.952 157.928C98.9973 156.055 95.4252 153.725 91.9273 153.549C95.5812 156.934 99.3028 161.179 102.25 165.189C103.531 166.933 104.961 168.877 107.097 169.259C108.687 167.49 108.481 164.647 107.243 162.618C106.006 160.591 103.963 159.203 101.952 157.928Z" fill="#1D5CD8"/>
<path d="M106.09 154.736C106.559 157.472 105.691 160.279 104.402 162.74C103.114 165.201 101.41 167.424 100.025 169.832C98.5988 172.311 98.326 172.977 97.1979 175.604C96.7888 176.556 96.7648 176.478 96.1254 177.295C95.425 178.359 94.3481 176.725 94.2597 175.683C94.1714 174.641 94.4332 173.601 94.7671 172.609C95.9017 169.239 97.1041 168.157 99.7389 165.756C96.2694 167.65 92.2348 168.285 88.2786 168.35C84.0192 168.419 79.966 168.646 75.5702 167.465C74.7585 167.247 73.0881 166.729 73.6161 166.226C75.1021 164.815 78.2542 165.298 80.362 165.432C83.4224 165.626 86.4904 165.343 89.5432 165.059C90.0036 165.017 91.9598 162.834 92.2751 162.498C95.7414 158.792 97.9169 156.802 99.2807 155.546C100.644 154.29 101.714 152.756 102.771 151.233C103.841 152.341 105.02 153.63 106.09 154.736Z" fill="#FFBEB6"/>
<path d="M178.326 89.9111C182.597 91.1858 205.797 97.3625 205.797 97.3625L213.766 125.178L177.472 111.156L178.326 89.9111Z" fill="#78A9EF"/>
<path d="M147.083 35.3717C147.084 34.9928 147.086 34.603 147.231 34.2523C147.699 34.2132 148.176 34.2588 148.627 34.387C148.672 36.9384 149.015 39.4845 149.646 41.9589C149.036 41.4877 148.585 41.0783 147.948 40.3585C147.736 40.1186 147.403 39.6929 147.201 39.415C147.012 39.1533 147.077 38.3835 147.077 38.0611C147.079 37.1643 147.08 36.2685 147.083 35.3717Z" fill="#D9E7FE"/>
<path d="M217.607 119.41C213.471 127.635 212.977 137.586 216.277 146.176C199.162 142.083 182.671 134.495 169.697 122.69C168.572 121.666 167.459 120.593 166.699 119.279C165.944 117.973 165.571 116.487 165.276 115.01C164.478 111.019 164.182 106.929 164.398 102.866C164.595 99.1748 165.209 95.5202 165.829 91.8754C167.098 84.4045 168.389 76.9368 169.704 69.4724C170.786 63.3282 171.919 57.0765 174.815 51.5404C175.022 51.1452 175.252 50.738 175.627 50.4926C175.998 50.2505 176.461 50.2006 176.903 50.1647C181.027 49.8293 185.606 50.3091 188.509 53.2352C190.709 55.4534 191.534 58.7247 191.465 61.8353C191.395 64.9459 190.534 67.9773 189.79 71C186.984 82.4089 185.792 94.2076 186.259 105.942C186.313 107.32 186.401 108.74 187.007 109.981C188.578 113.206 192.77 113.947 196.338 114.491C203.536 115.589 210.581 117.501 217.607 119.41Z" fill="#1D72D8"/>
<path d="M179.164 49.9878C171.647 50.5654 164.128 51.1419 156.611 51.7195C153.749 51.9389 150.769 52.1962 148.313 53.6749C154.297 56.2329 160.922 57.2894 167.409 56.7215C168.564 56.6205 169.727 56.4653 170.803 56.0418C174.029 54.7759 175.976 51.3439 179.164 49.9878Z" fill="url(#paint0_linear_5337_725)"/>
<path d="M230.615 132.997C230.739 133.974 229.661 134.608 229.002 135.343C230.135 135.722 231.178 135.927 232.123 136.658C231.668 137.792 231.24 139.293 230.785 140.427C230.636 140.8 230.48 141.183 230.195 141.466C229.822 141.838 229.282 141.984 228.763 142.073C227.725 142.25 226.586 142.234 225.709 141.654C224.498 140.854 224.142 139.22 224.275 137.779C224.408 136.338 221.532 128.799 221.629 127.356C221.885 123.568 221.306 126.522 222.293 122.856C222.482 122.156 224.184 120.919 224.761 120.477C225.338 120.035 226.386 119.702 226.8 120.299C228.323 122.495 226.464 124.087 225.851 124.896C225.516 125.339 224.225 126.272 224.645 126.636C225.677 126.757 227.833 126.155 228.866 126.276C228.938 127.634 228.753 129.387 227.902 130.451C228.934 130.952 230.472 131.862 230.615 132.997Z" fill="#F2A19C"/>
<path d="M132.333 335.906C134.157 327.533 135.989 319.101 136.227 310.537C136.44 302.841 135.362 295.175 134.288 287.552C133.61 282.745 132.905 277.847 130.77 273.484C125.908 277.35 117.364 277.857 115.176 283.657C114.963 284.223 116.088 290.241 117.074 293.424C120.438 304.274 123.802 315.124 127.165 325.973C128.284 329.581 129.518 333.373 132.333 335.906Z" fill="#F15A24"/>
<path d="M187.235 341.95C189.298 339.198 176.637 329.25 168.752 326.563C156.344 322.336 142.735 321.669 129.969 324.66C129.681 329.619 129.394 334.58 129.106 339.54C128.985 341.551 169.109 342.896 187.235 341.95Z" fill="#F7931E"/>
<path d="M153.959 301.328C153.494 295.932 150.253 290.845 145.545 288.126C142.153 286.168 137.943 285.261 135.542 282.174C133.559 279.624 133.144 275.932 130.596 273.941C132.066 269.622 133.538 265.303 135.009 260.984C137.35 254.11 140.307 246.527 146.925 243.479C148.336 242.828 149.903 242.394 151.022 241.32C152.103 240.283 152.604 238.807 153.291 237.479C156.64 231.001 164.24 228.192 171.01 225.419C172.116 224.965 173.246 224.481 174.102 223.65C175.892 221.912 176.062 219.017 175.22 216.672C174.379 214.327 172.716 212.384 171.163 210.433C155.546 190.82 148.328 164.794 151.627 139.987C161.466 138.912 171.354 138.276 181.251 138.081C181.388 151.531 187.556 164.065 192.559 176.559C198.97 192.571 203.635 209.273 206.446 226.28C206.81 228.485 207.144 230.728 206.875 232.946C205.931 240.697 198.355 245.547 192.737 250.999C188.577 255.035 185.258 259.836 181.967 264.602C175.06 274.608 168.151 284.614 161.244 294.619C159.333 297.389 157.183 300.336 153.959 301.328Z" fill="#151A4F"/>
<path d="M177.4 128.975C176.215 127.632 174.158 127.612 172.364 127.698C162.356 128.177 152.347 128.656 142.339 129.135C139.167 141.083 135.98 153.124 135.182 165.457C133.799 186.818 139.606 208.638 134.665 229.472C133.347 235.028 131.274 240.432 130.618 246.104C129.576 255.101 132.157 264.206 131.279 273.22C130.608 280.108 127.949 286.633 126.422 293.386C124.006 304.06 124.476 315.368 127.769 325.809C141.695 327.143 155.725 327.415 169.692 326.621C170.209 326.672 165.2 322.088 164.748 318.809C161.847 297.718 161.745 276.356 161.648 255.068C161.635 252.109 161.629 249.098 162.482 246.265C163.1 244.209 164.161 242.284 164.547 240.174C165.045 237.448 164.379 234.665 164.187 231.903C163.877 227.455 164.797 223.023 165.712 218.659C168.371 205.981 171.03 193.302 173.688 180.624C175.512 171.923 178.049 162.203 185.793 157.774C183.359 148.986 180.925 140.198 178.491 131.41C178.251 130.546 177.994 129.649 177.4 128.975Z" fill="url(#paint1_linear_5337_725)"/>
<path d="M171.541 100.383C171.607 119.758 180.08 138.964 194.369 152.124C200.721 157.975 210.572 163.083 218.5 159.626C224.557 156.984 227.087 149.813 227.185 143.232C227.282 136.651 227.282 137.61 224.541 131.619C218.542 118.504 218.353 118.129 213.932 111.236C206.269 108.597 216.262 111.849 191.989 102.233C190.45 101.624 171.532 97.5529 171.541 100.383Z" fill="#C8DCFD"/>
<path d="M168.63 56.5628C167.873 56.7887 163.777 57.0264 162.99 56.9494C158.549 56.5172 156.67 53.563 155.552 51.9658C155.845 44.5644 155.833 42.5992 156.127 35.1978C161.734 36.0859 167.475 36.1293 173.095 35.327C173.388 42.5688 173.063 43.0737 172.277 50.5631C171.937 53.8051 170.089 56.1275 168.63 56.5628Z" fill="#F2A19C"/>
<path d="M145.112 35.5094C148.442 40.4125 154.077 43.1953 159.583 45.4308C161.348 46.1474 163.24 46.8433 165.118 46.5165C166.532 46.2701 167.791 45.4569 168.841 44.4819C171.647 41.8783 172.533 40.4115 173.772 36.7981C174.807 33.7765 176.339 28.4043 176.122 25.2188C175.861 21.3926 173.955 17.8749 171.818 14.6828C170.563 12.8099 169.166 10.9555 167.246 9.76661C163.436 7.40839 158.45 8.18795 154.281 9.83935C152.4 10.5842 150.573 11.4951 148.954 12.7057C142.123 17.813 140.327 28.464 145.112 35.5094Z" fill="url(#paint2_linear_5337_725)"/>
<path d="M185.748 67.8341C183.877 62.0385 179.851 50.6676 179.522 50.1768C179.425 50.0313 178.145 49.7892 177.509 50.2962C170.001 57.2949 160.661 58.271 152.591 51.9227C148.914 52.1257 146.108 52.4829 143.833 52.8401C137.013 89.6769 131.521 126.757 127.372 163.985C135.384 167.613 144.433 168.938 153.156 167.76C168.904 165.632 184.501 155.64 199.59 160.604C191.934 144.186 188.574 125.179 188.574 106.058C188.574 98.9578 194.844 93.946 193.697 86.9376C192.541 79.8619 187.951 74.6579 185.748 67.8341Z" fill="url(#paint3_linear_5337_725)"/>
<path d="M173.024 39.378C172.931 38.9469 172.499 38.6907 172.114 38.4736C169.872 37.2098 167.875 35.5171 166.265 33.515C165.909 33.072 165.488 32.5704 164.918 32.5693C164.512 32.5683 164.159 32.831 163.835 33.0742C159.424 36.389 152.651 38.8015 147.158 39.4182C149.278 42.2758 151.545 45.3365 154.702 46.9955C160.707 50.1528 170.581 46.5004 172.906 40.1489C172.995 39.9013 173.078 39.6364 173.024 39.378Z" fill="#EBF2FE"/>
<path d="M172.715 40.6072C174.493 36.3533 176.369 30.7129 175.082 24.813C174.858 23.7783 174.09 22.4396 173.113 21.9955C172.109 21.5417 170.983 21.9922 170.315 22.6426C169.664 23.2745 169.301 24.1018 168.956 24.9661C168.778 25.4134 168.614 25.839 168.454 26.2494C167.308 29.2091 166.55 31.1645 163.974 33.3175L164.523 33.9679C167.268 31.6737 168.1 29.5272 169.252 26.5545C169.409 26.1474 169.574 25.7228 169.75 25.2788C170.071 24.4742 170.38 23.7663 170.911 23.2506C171.356 22.8174 172.125 22.4841 172.761 22.7685C173.449 23.0802 174.069 24.1659 174.249 24.9921C175.485 30.6607 173.656 36.1394 171.926 40.2793L172.715 40.6072Z" fill="#EBF2FE"/>
<path d="M177.615 27.4501C168.119 19.116 158.828 7.62137 138.333 14.1369C138.191 7.48023 144.735 1.93647 149.292 1.10697C155.068 0.0548899 165.564 2.31973 169.924 6.23489C174.398 10.2532 176.379 12.8622 179.039 18.2453C179.26 18.6926 179.024 26.2015 177.615 27.4501Z" fill="#A1C3FC"/>
<path d="M133.825 20.5926C136.366 16.2963 142.058 14.139 146.828 15.6623C145.343 19.0932 142.727 22.0279 139.481 23.9041C138.373 24.5447 137.128 25.0767 135.85 24.9659C134.574 24.8541 133.296 23.9128 133.197 22.6414C133.14 21.9183 133.455 21.218 133.825 20.5926Z" fill="#89B3F4"/>
<path d="M141.446 26.4041C141.441 25.997 141.461 25.5681 141.682 25.225C141.854 24.9558 142.13 24.7712 142.402 24.6007C149.746 19.9712 159.405 19.4207 167.418 22.7745C169.361 23.5877 171.249 24.6398 172.666 26.1924C174.083 27.7439 176.024 30.4452 175.754 32.5255C174.714 31.7297 172.384 30.7568 171.125 30.3899C164.379 28.4269 157.113 26.5453 150.444 28.7515C149.001 29.2281 143.516 31.6048 143.598 33.1151C141.514 30.7579 141.485 29.5441 141.446 26.4041Z" fill="#428DFC"/>
<path d="M139.044 25.3252C139.15 26.7019 140.433 29.6486 140.894 30.5661C146.486 26.8691 152.958 24.778 159.594 25.7856C166.229 26.7931 171.495 29.4326 175.764 32.5486C178.988 26.5619 178.923 23.2081 179.037 18.3852C171.881 17.2962 164.582 14.3322 157.344 14.4679C150.106 14.6047 141.813 16.242 138.473 22.6337C138.217 23.1266 139.001 24.7737 139.044 25.3252Z" fill="#A1C3FC"/>
<path d="M136.099 13.0227C140.986 9.84579 148.049 10.5222 152.236 14.5677C148.903 17.3851 144.646 19.1028 140.283 19.3905C138.793 19.4893 137.216 19.4035 135.941 18.6305C134.665 17.8574 133.822 16.2169 134.378 14.838C134.695 14.053 135.387 13.4852 136.099 13.0227Z" fill="#89B3F4"/>
<path d="M147.394 8.96399C152.771 6.7024 159.601 8.61872 162.998 13.3406C159.214 15.5229 154.718 16.4599 150.373 15.9713C148.889 15.8041 147.353 15.4415 146.235 14.4545C145.118 13.4676 144.581 11.7044 145.376 10.446C145.827 9.72943 146.611 9.29297 147.394 8.96399Z" fill="#89B3F4"/>
<path d="M159.864 6.78292C165.699 6.62766 171.357 10.8892 172.791 16.5198C168.468 17.1799 163.938 16.421 160.072 14.3885C158.75 13.6947 157.453 12.799 156.776 11.4755C156.097 10.1509 156.243 8.31489 157.443 7.43002C158.125 6.92841 159.016 6.80572 159.864 6.78292Z" fill="#89B3F4"/>
<path d="M171.239 8.61817C176.431 10.3901 183.47 22.7067 179.5 22.0346C175.441 21.2192 171.051 18.7568 168.445 15.6331C167.556 14.5658 166.765 13.3227 166.686 11.8917C166.608 10.4596 167.455 8.82988 168.856 8.41622C169.654 8.18061 170.484 8.36085 171.239 8.61817Z" fill="#89B3F4"/>
<path d="M138.662 98.7643C140.965 95.4181 142.247 91.4801 143.147 87.5248C144.52 81.4935 145.07 75.2777 144.778 69.101C144.513 63.4823 143.492 56.7529 147.039 52.373C142.212 52.7042 137.225 53.6607 133.698 56.9548C131.447 59.0568 130.234 62.01 129.184 64.8981C123.643 80.1374 120.818 96.2193 115.93 111.679C111.042 127.139 103.703 142.455 91.181 152.818C93.6435 155.592 97.4098 156.738 100.661 158.535C103.912 160.332 106.871 164.294 107.11 167.737C107.145 168.235 107.05 169.281 107.05 169.281C107.05 169.281 108.741 168.715 109.428 167.56C116.047 156.402 122.783 144.938 125.083 132.185C126.56 123.994 126.294 115.074 130.891 108.121C133.126 104.737 136.361 102.106 138.662 98.7643Z" fill="url(#paint4_linear_5337_725)"/>
<path d="M188.692 74.6078C186.152 69.3832 185.69 66.215 183.561 60.8113C181.433 55.4076 179.33 50.0615 176.717 49.9822C175.89 49.9822 175.696 49.9822 175.112 49.9822C177.397 47.8531 179.477 48.8303 181.715 51.2189C183.719 53.3589 188.044 67.8871 190.043 71.9206C192.335 76.5469 197.872 86.4553 200.819 92.3204C206.645 103.917 204.544 101.606 211.281 112.703C214.018 117.211 210.951 120.023 208.482 115.636C207.167 113.3 205.72 108.867 201.703 102.145C197.017 94.3052 192.683 82.8192 188.692 74.6078Z" fill="#1C2868"/>
<path d="M218.491 136.447C219.107 137.552 221.926 136.269 225.325 133.69C228.725 131.112 230.591 128.362 230.087 127.201C229.017 124.74 225.936 127.471 222.537 130.05C219.137 132.629 217.26 134.243 218.491 136.447Z" fill="#FFBEB6"/>
<path d="M221.252 142.681C221.573 143.783 224.139 143.334 227.414 141.899C230.689 140.463 232.72 138.519 232.502 137.395C232.04 135.012 229.004 136.654 225.728 138.09C222.453 139.525 220.613 140.483 221.252 142.681Z" fill="#FFBEB6"/>
<path d="M223.36 145.179C223.647 146.166 225.946 145.763 228.88 144.478C231.814 143.192 233.631 141.451 233.437 140.444C233.024 138.31 230.304 139.781 227.371 141.066C224.438 142.352 222.786 143.211 223.36 145.179Z" fill="#FFBEB6"/>
<path d="M213.36 101.907C213.613 105.557 213.604 109.263 213.858 112.912C213.938 114.062 214.007 115.272 213.51 116.313C213.012 117.354 211.739 118.124 210.677 117.662C210.214 117.461 209.868 117.067 209.541 116.684C206.718 113.383 204.068 109.933 201.607 106.357C201.039 105.533 200.474 104.687 200.171 103.734C199.369 101.217 191.329 95.2095 193.782 94.2041C196.67 94.7643 208.842 98.0726 211.487 99.357C211.82 99.5188 212.363 99.9585 212.602 100.241C212.995 100.704 213.318 101.3 213.36 101.907Z" fill="#78A9EF"/>
<path d="M213.297 101.707C217.308 118.645 219.576 136.183 217.62 153.475C213.338 143.568 209.038 133.626 203.45 124.385C199.272 117.479 193.058 110.365 192.204 102.348C198.871 103.966 212.571 104.704 213.297 101.707Z" fill="#C8DCFD"/>
<path d="M177.494 49.8858C180.955 54.4328 183.415 62.6464 184.625 68.7298C188.75 89.4695 192.618 106.777 196.789 125.366L193.633 123.845C191.124 114.206 189.584 105.659 187.688 95.8764C186.066 87.5086 184.061 79.206 182.824 70.7731C181.183 59.5879 177.037 50.3776 173.487 49.9694C174.653 49.4862 176.651 48.7783 177.494 49.8858Z" fill="#1C2868"/>
<path d="M197.118 122.47C197.294 122.47 197.458 122.362 197.52 122.187C197.599 121.966 197.482 121.722 197.26 121.644L192.05 119.813C191.828 119.733 191.584 119.849 191.504 120.071C191.426 120.292 191.543 120.536 191.764 120.614L196.974 122.445C197.022 122.463 197.07 122.47 197.118 122.47Z" fill="#BDD5FD"/>
<path d="M143.751 35.374C145.532 35.374 147.297 34.6281 148.516 33.3198C148.678 33.1482 148.667 32.8789 148.493 32.7193C148.322 32.5597 148.049 32.5684 147.89 32.7421C146.646 34.0765 144.753 34.7345 142.941 34.4641C142.71 34.4305 142.489 34.5879 142.455 34.8202C142.419 35.0526 142.58 35.2686 142.812 35.3034C143.123 35.3512 143.437 35.374 143.751 35.374Z" fill="#23286B"/>
<path d="M155.089 30.4326C156.87 30.4326 158.634 29.6867 159.854 28.3783C160.016 28.2068 160.005 27.9375 159.831 27.7779C159.66 27.6183 159.387 27.627 159.228 27.8007C157.984 29.1351 156.086 29.7963 154.278 29.5227C154.044 29.4891 153.826 29.6465 153.791 29.8788C153.755 30.1112 153.917 30.3283 154.149 30.3631C154.461 30.4098 154.775 30.4326 155.089 30.4326Z" fill="#23286B"/>
<path d="M133.22 141.284C133.278 141.38 133.244 141.506 133.146 141.563C133.049 141.62 132.922 141.587 132.865 141.489C132.807 141.392 132.841 141.266 132.939 141.21C133.037 141.153 133.162 141.185 133.22 141.284ZM135.77 162.076C135.882 162.104 135.95 162.219 135.92 162.331C135.897 162.434 135.794 162.498 135.691 162.475C135.682 162.474 135.674 162.471 135.665 162.467C135.556 162.443 135.489 162.335 135.513 162.226C135.544 162.116 135.658 162.047 135.77 162.076ZM133.798 151.629C133.913 151.622 134.015 151.702 134.036 151.814C134.05 151.93 133.967 152.037 133.849 152.051C133.733 152.065 133.626 151.983 133.612 151.865C133.606 151.75 133.685 151.649 133.798 151.629ZM158.292 139.39C158.506 139.352 158.711 139.492 158.753 139.705C158.802 139.908 158.675 140.111 158.472 140.16C158.464 140.161 158.459 140.163 158.451 140.164C158.237 140.202 158.032 140.062 157.99 139.849C157.946 139.64 158.081 139.434 158.292 139.39ZM148.95 141.215C149.167 141.178 149.371 141.322 149.407 141.537C149.444 141.747 149.305 141.948 149.095 141.989C148.884 142.033 148.678 141.899 148.634 141.69C148.6 141.472 148.739 141.266 148.95 141.215ZM139.595 143.052C139.805 143.01 140.009 143.144 140.052 143.353C140.053 143.357 140.053 143.362 140.054 143.366C140.102 143.569 139.976 143.772 139.773 143.821C139.765 143.822 139.76 143.824 139.752 143.825C139.536 143.86 139.329 143.722 139.276 143.511C139.241 143.298 139.382 143.094 139.595 143.052ZM146.807 122.657C146.921 122.839 146.864 123.079 146.68 123.192C146.497 123.306 146.256 123.25 146.142 123.066C146.031 122.887 146.083 122.653 146.26 122.536C146.444 122.422 146.687 122.476 146.807 122.657ZM138.871 127.907C138.985 128.09 138.929 128.33 138.745 128.443C138.562 128.557 138.32 128.5 138.207 128.317C138.096 128.138 138.148 127.903 138.325 127.787C138.507 127.674 138.751 127.727 138.871 127.907ZM153.895 158.029C154.108 158.077 154.243 158.283 154.198 158.497C154.159 158.705 153.956 158.84 153.748 158.8C153.748 158.8 153.745 158.8 153.743 158.799C153.536 158.771 153.392 158.581 153.42 158.375C153.422 158.366 153.424 158.356 153.425 158.345C153.476 158.134 153.679 157.996 153.895 158.029ZM144.547 156.163C144.759 156.213 144.897 156.416 144.865 156.629C144.817 156.841 144.608 156.976 144.395 156.931C144.184 156.889 144.046 156.683 144.09 156.472C144.09 156.47 144.091 156.467 144.091 156.467C144.131 156.257 144.333 156.122 144.541 156.162C144.545 156.163 144.546 156.163 144.547 156.163ZM135.214 154.298C135.419 154.334 135.558 154.527 135.521 154.732C135.52 154.737 135.519 154.744 135.516 154.749C135.482 154.961 135.28 155.104 135.067 155.069C135.06 155.068 135.054 155.067 135.047 155.066C134.834 155.022 134.696 154.813 134.741 154.601C134.786 154.389 134.996 154.252 135.208 154.296C135.211 154.298 135.213 154.298 135.214 154.298ZM141.428 115.052C141.549 115.201 141.527 115.42 141.379 115.543C141.23 115.665 141.009 115.643 140.886 115.494C140.762 115.346 140.785 115.126 140.935 115.004C141.084 114.885 141.303 114.906 141.428 115.052ZM151.41 149.06C151.605 149.088 151.745 149.261 151.728 149.457C151.711 149.643 151.545 149.78 151.358 149.761C151.353 149.76 151.349 149.76 151.343 149.759C151.15 149.744 151.007 149.574 151.025 149.383C151.025 149.381 151.026 149.379 151.026 149.377C151.051 149.189 151.218 149.05 151.41 149.06ZM142.964 148.203C143.155 148.226 143.29 148.397 143.269 148.585C143.252 148.771 143.086 148.908 142.9 148.889C142.894 148.888 142.89 148.888 142.884 148.887C142.691 148.872 142.548 148.703 142.564 148.511C142.564 148.509 142.565 148.507 142.565 148.505C142.594 148.315 142.771 148.18 142.964 148.203ZM134.491 147.331C134.684 147.346 134.827 147.516 134.812 147.707L134.811 147.713C134.8 147.895 134.64 148.032 134.458 148.021C134.447 148.021 134.435 148.019 134.424 148.016C134.231 148.001 134.088 147.832 134.104 147.641C134.104 147.639 134.105 147.636 134.105 147.634C134.133 147.449 134.302 147.315 134.491 147.331ZM145.304 131.528C145.492 131.48 145.684 131.587 145.737 131.774C145.793 131.957 145.689 132.149 145.506 132.205C145.32 132.257 145.123 132.156 145.059 131.975C145.005 131.785 145.114 131.587 145.304 131.528ZM137.153 133.959C137.33 133.901 137.522 133.994 137.581 134.169C137.583 134.175 137.584 134.182 137.587 134.188C137.643 134.372 137.539 134.564 137.356 134.619C137.169 134.672 136.973 134.571 136.909 134.389C136.858 134.205 136.966 134.013 137.153 133.959ZM142.499 163.808C142.663 163.892 142.727 164.091 142.644 164.254C142.641 164.26 142.638 164.267 142.634 164.272C142.547 164.444 142.337 164.512 142.164 164.426C142.161 164.424 142.157 164.422 142.153 164.421C141.987 164.322 141.929 164.112 142.019 163.942C142.109 163.775 142.318 163.712 142.486 163.801C142.49 163.802 142.494 163.806 142.499 163.808ZM135.012 159.78C135.184 159.874 135.25 160.085 135.161 160.259C135.063 160.428 134.846 160.488 134.675 160.39C134.513 160.298 134.451 160.095 134.532 159.928C134.616 159.757 134.825 159.687 134.995 159.77C135 159.773 135.007 159.777 135.012 159.78ZM150.366 113.77C150.584 113.718 150.805 113.843 150.87 114.058C150.932 114.272 150.81 114.495 150.596 114.558C150.378 114.614 150.154 114.487 150.092 114.271C150.03 114.057 150.152 113.833 150.366 113.77ZM140.928 116.477C141.143 116.414 141.368 116.537 141.431 116.749C141.494 116.962 141.371 117.187 141.157 117.25C140.942 117.313 140.717 117.19 140.654 116.977C140.591 116.763 140.714 116.54 140.928 116.477ZM146.02 154.682C146.215 154.797 146.287 155.044 146.181 155.245C146.066 155.438 145.813 155.501 145.618 155.385C145.431 155.273 145.365 155.035 145.468 154.843C145.579 154.651 145.821 154.58 146.02 154.682ZM137.429 149.951C137.621 150.062 137.693 150.303 137.591 150.501C137.483 150.697 137.236 150.769 137.039 150.661C136.841 150.554 136.769 150.308 136.877 150.112C136.987 149.92 137.233 149.849 137.429 149.951ZM147.773 133.456C147.993 133.491 148.149 133.689 148.134 133.909C148.102 134.129 147.899 134.282 147.678 134.255C147.459 134.235 147.296 134.042 147.317 133.823C147.317 133.823 147.318 133.817 147.318 133.814C147.343 133.59 147.546 133.431 147.773 133.456C147.773 133.456 147.772 133.456 147.773 133.456ZM138.007 132.357C138.233 132.383 138.394 132.586 138.368 132.81V132.811C138.343 133.027 138.145 133.182 137.928 133.155C137.706 133.13 137.546 132.932 137.571 132.713C137.592 132.496 137.788 132.337 138.007 132.357ZM150.17 127.191C150.391 127.213 150.552 127.409 150.53 127.631C150.508 127.852 150.311 128.011 150.088 127.989C149.874 127.967 149.713 127.78 149.727 127.565C149.747 127.34 149.944 127.173 150.17 127.191ZM140.412 126.498C140.637 126.518 140.805 126.714 140.786 126.938C140.765 127.155 140.577 127.318 140.359 127.311C140.133 127.289 139.964 127.096 139.97 126.872C139.993 126.649 140.188 126.486 140.412 126.498ZM140.203 144.968C140.401 145.073 140.48 145.317 140.378 145.517C140.278 145.712 140.037 145.792 139.84 145.692C139.642 145.603 139.552 145.37 139.642 145.173C139.644 145.167 139.646 145.162 139.65 145.158C139.745 144.955 139.986 144.868 140.191 144.963C140.195 144.963 140.199 144.965 140.203 144.968Z" fill="white"/>
<path d="M217.779 140.293C218.206 141.484 221.196 140.678 224.975 138.687C228.753 136.698 231.218 135.036 230.74 133.062C230.109 130.455 226.601 132.652 222.823 134.642C219.045 136.631 216.928 137.918 217.779 140.293Z" fill="#FFBEB6"/>
<path d="M13.2329 253.053C15.0905 261.125 15.6989 267.195 16.4727 272.833C14.5828 273.175 12.5778 272.848 10.8957 271.921C10.1082 265.567 10.919 259.021 13.2329 253.053Z" fill="url(#paint5_linear_5337_725)"/>
<path d="M35.941 280.363C36.0764 280.363 36.2119 280.314 36.3186 280.215L37.5909 279.034C40.3366 276.485 42.9023 273.926 44.145 270.633C44.839 268.793 45.15 266.714 45.4495 264.703C46.0256 260.849 46.5709 257.209 49.6453 255.621C52.4933 254.15 54.2394 250.704 54.3161 246.403C54.3461 244.681 54.1494 242.957 53.9588 241.288C53.7669 239.61 53.5679 237.874 53.6112 236.179C53.7898 229.196 57.9044 222.22 66.1927 214.85C67.5704 213.625 68.9883 212.427 70.4083 211.226C75.6055 206.836 80.9791 202.296 84.4002 196.306C88.9246 188.386 88.888 177.963 88.8558 168.768C88.8523 167.754 88.8479 166.752 88.8514 165.767C88.8514 165.46 88.6039 165.211 88.2973 165.211H88.296C87.9907 165.211 87.741 165.458 87.741 165.765C87.7388 166.752 87.7424 167.756 87.7455 168.773C87.779 177.83 87.8143 188.094 83.4376 195.758C80.1136 201.576 74.8163 206.052 69.6937 210.381C68.267 211.587 66.8412 212.791 65.4569 214.022C56.9277 221.607 52.6909 228.846 52.5035 236.152C52.458 237.925 52.6609 239.699 52.8577 241.416C53.0443 243.048 53.2375 244.736 53.2075 246.386C53.1374 250.272 51.6163 253.357 49.1371 254.636C45.5576 256.485 44.9448 260.58 44.3528 264.54C44.0608 266.494 43.759 268.514 43.107 270.243C41.9477 273.316 39.5809 275.675 36.8374 278.223L35.5651 279.404C35.3397 279.612 35.3265 279.963 35.5365 280.187C35.6432 280.303 35.7923 280.363 35.941 280.363Z" fill="#FF4945"/>
<path d="M2.94714 256.502C5.77049 263.663 5.82034 268.494 7.35156 275.004C5.46168 275.346 2.67495 274.79 0.992853 273.863C0.205845 267.509 0.633321 262.472 2.94714 256.502Z" fill="url(#paint6_linear_5337_725)"/>
<path d="M60.0593 296.884C61.448 296.3 63.7508 292.525 64.1849 287.316C64.93 278.388 61.2416 270.55 60.2768 271.258C59.6085 278.603 58.7023 285.695 57.6709 289.487C56.7216 292.974 53.4619 293.577 52.5404 293.571C41.8227 293.511 38.7664 293.781 28.0487 293.721C26.5078 293.712 22.1986 285.385 20.7309 284.915C17.2079 283.789 10.0913 285.198 8.2169 282.012C5.95866 282.61 3.70042 283.208 1.44219 283.805C4.63654 302.178 8.3338 321.457 15.3273 338.746C20.2682 340.219 27.2807 338.222 31.6551 335.495C32.9499 334.689 34.1966 333.696 35.6956 333.413C40.0568 332.591 43.1188 337.864 47.3988 339.033C49.0452 339.483 50.7908 339.292 52.487 339.097C56.5297 338.633 60.5719 338.168 64.6133 337.704C60.3933 324.582 58.8347 310.612 60.0593 296.884Z" fill="url(#paint7_linear_5337_725)"/>
<path d="M14.714 263.217C15.9541 266.311 17.1946 269.404 18.4346 272.499C18.668 273.08 18.9367 273.705 19.4806 274.017C20.1203 274.384 20.9205 274.202 21.6325 274.011C25.2411 273.041 28.8947 272.051 32.1345 270.19C35.8406 268.062 38.8907 264.811 40.7792 260.979C42.6656 261.093 43.2329 263.572 43.255 265.46C43.367 275.364 42.9695 285.275 42.0634 295.138C41.2596 292.091 40.4545 289.046 39.6508 285.999C38.9811 289.5 37.79 292.901 36.1291 296.054C34.6804 293.274 33.2413 290.491 31.8125 287.702C29.432 291.115 23.2568 296.73 23.2568 296.73C23.2568 296.73 21.749 290.218 18.3685 291.655C16.7084 292.36 12.2921 296.172 10.5509 296.646C5.77325 297.947 3.89704 298.19 3.25958 294.713C1.82276 286.866 0.380653 278.933 0.792685 270.968C5.98059 269.596 10.8147 266.904 14.714 263.217Z" fill="url(#paint8_linear_5337_725)"/>
<path d="M5.41458 299.595C7.96397 300.012 10.2054 299.117 12.0684 298.383C15.8543 296.888 18.7443 295.598 21.8398 292.958L20.1022 289.269C17.2254 291.722 13.4585 293.268 9.93987 294.655C8.25998 295.318 4.68712 296.048 3.74792 295.383C3.19604 294.993 2.90532 291.806 2.75974 291.795C2.44785 293.562 3.43603 297.36 3.43603 297.36C3.43603 297.36 3.82247 299.595 5.41458 299.595Z" fill="#FF4945"/>
<path d="M42.5917 261.645C43.8142 263.919 43.3779 266.768 41.5114 268.7C38.861 267.079 38.2372 263.527 40.2135 261.321C40.4945 261.007 40.8739 260.698 41.3393 260.698C41.9322 260.698 42.3465 261.188 42.5917 261.645Z" fill="#FF4945"/>
<path d="M5.58916 309.625C3.1898 309.625 1.24474 307.682 1.24474 305.284C1.24474 302.887 3.1898 300.944 5.58916 300.944C7.98852 300.944 9.93359 302.887 9.93359 305.284C9.93359 307.682 7.98852 309.625 5.58916 309.625Z" fill="url(#paint9_linear_5337_725)"/>
<path d="M5.46652 303.009C5.77312 303.009 6.02148 302.761 6.02148 302.455V298.607C6.02148 298.301 5.77268 298.053 5.46652 298.053C5.15992 298.053 4.91156 298.301 4.91156 298.607V302.455C4.91156 302.762 5.15992 303.009 5.46652 303.009Z" fill="#FF4945"/>
<defs>
<linearGradient id="paint0_linear_5337_725" x1="179.164" y1="53.4295" x2="148.313" y2="53.4295" gradientUnits="userSpaceOnUse">
<stop stop-color="#FFBEB6"/>
<stop offset="1" stop-color="#F2A19C"/>
</linearGradient>
<linearGradient id="paint1_linear_5337_725" x1="185.793" y1="227.367" x2="124.901" y2="227.367" gradientUnits="userSpaceOnUse">
<stop stop-color="#23286B"/>
<stop offset="1" stop-color="#151A4F"/>
</linearGradient>
<linearGradient id="paint2_linear_5337_725" x1="161.972" y1="25.363" x2="146.043" y2="41.7695" gradientUnits="userSpaceOnUse">
<stop stop-color="#FFBEB6"/>
<stop offset="1" stop-color="#F2A19C"/>
</linearGradient>
<linearGradient id="paint3_linear_5337_725" x1="166.868" y1="62.6683" x2="163.912" y2="150.462" gradientUnits="userSpaceOnUse">
<stop stop-color="#428DFC"/>
<stop offset="1" stop-color="#1D72D8"/>
</linearGradient>
<linearGradient id="paint4_linear_5337_725" x1="106.796" y1="75.2045" x2="123.582" y2="112.91" gradientUnits="userSpaceOnUse">
<stop stop-color="#428DFC"/>
<stop offset="1" stop-color="#1D72D8"/>
</linearGradient>
<linearGradient id="paint5_linear_5337_725" x1="16.4727" y1="263.009" x2="10.6032" y2="263.009" gradientUnits="userSpaceOnUse">
<stop stop-color="#1B236D"/>
<stop offset="1" stop-color="#0A134F"/>
</linearGradient>
<linearGradient id="paint6_linear_5337_725" x1="7.35157" y1="265.804" x2="0.630605" y2="265.804" gradientUnits="userSpaceOnUse">
<stop stop-color="#1B236D"/>
<stop offset="1" stop-color="#0A134F"/>
</linearGradient>
<linearGradient id="paint7_linear_5337_725" x1="64.4855" y1="307.202" x2="28.5614" y2="304.369" gradientUnits="userSpaceOnUse">
<stop stop-color="#1B236D"/>
<stop offset="1" stop-color="#0A134F"/>
</linearGradient>
<linearGradient id="paint8_linear_5337_725" x1="39.8296" y1="286.515" x2="0.848472" y2="269.463" gradientUnits="userSpaceOnUse">
<stop stop-color="#1B236D"/>
<stop offset="1" stop-color="#0A134F"/>
</linearGradient>
<linearGradient id="paint9_linear_5337_725" x1="9.9327" y1="305.285" x2="1.24562" y2="305.285" gradientUnits="userSpaceOnUse">
<stop stop-color="#FFB02A"/>
<stop offset="1" stop-color="#FF9300"/>
</linearGradient>
</defs>
</svg>
