<svg width="350" height="234" viewBox="0 0 350 234" fill="none" xmlns="http://www.w3.org/2000/svg">
<rect width="350" height="234" rx="28" fill="#0A8996"/>
<path d="M141.384 203H135.454V186.273H141.433C143.115 186.273 144.563 186.608 145.778 187.277C146.992 187.942 147.926 188.897 148.579 190.144C149.238 191.391 149.567 192.883 149.567 194.62C149.567 196.362 149.238 197.86 148.579 199.112C147.926 200.365 146.987 201.326 145.761 201.995C144.542 202.665 143.082 203 141.384 203ZM138.99 199.97H141.237C142.282 199.97 143.161 199.785 143.875 199.414C144.593 199.039 145.132 198.459 145.492 197.675C145.857 196.885 146.039 195.867 146.039 194.62C146.039 193.384 145.857 192.374 145.492 191.59C145.132 190.806 144.596 190.229 143.883 189.858C143.17 189.488 142.29 189.303 141.245 189.303H138.99V199.97ZM155.699 203.237C154.899 203.237 154.186 203.098 153.559 202.82C152.933 202.537 152.438 202.121 152.073 201.571C151.714 201.015 151.534 200.324 151.534 199.496C151.534 198.799 151.662 198.214 151.918 197.74C152.174 197.266 152.522 196.885 152.963 196.597C153.404 196.308 153.905 196.09 154.466 195.943C155.032 195.796 155.626 195.693 156.247 195.633C156.976 195.557 157.564 195.486 158.011 195.42C158.457 195.35 158.781 195.246 158.983 195.11C159.184 194.974 159.285 194.772 159.285 194.506V194.457C159.285 193.939 159.122 193.539 158.795 193.256C158.474 192.973 158.016 192.831 157.423 192.831C156.796 192.831 156.298 192.97 155.928 193.248C155.558 193.52 155.313 193.863 155.193 194.277L151.975 194.016C152.138 193.253 152.459 192.594 152.939 192.039C153.418 191.478 154.036 191.048 154.793 190.749C155.555 190.444 156.437 190.291 157.439 190.291C158.136 190.291 158.803 190.373 159.44 190.536C160.083 190.7 160.652 190.953 161.147 191.296C161.648 191.639 162.043 192.08 162.331 192.619C162.62 193.153 162.764 193.792 162.764 194.538V203H159.465V201.26H159.367C159.165 201.652 158.896 201.998 158.558 202.298C158.22 202.592 157.815 202.823 157.341 202.992C156.867 203.155 156.32 203.237 155.699 203.237ZM156.696 200.836C157.208 200.836 157.66 200.735 158.052 200.533C158.444 200.326 158.751 200.049 158.975 199.7C159.198 199.352 159.309 198.957 159.309 198.516V197.185C159.2 197.255 159.051 197.321 158.86 197.381C158.675 197.435 158.465 197.487 158.231 197.536C157.997 197.579 157.763 197.62 157.529 197.658C157.295 197.691 157.082 197.721 156.892 197.748C156.483 197.808 156.127 197.903 155.822 198.034C155.517 198.165 155.28 198.342 155.111 198.565C154.942 198.783 154.858 199.055 154.858 199.382C154.858 199.855 155.03 200.218 155.373 200.468C155.721 200.713 156.162 200.836 156.696 200.836ZM165.464 203V190.455H168.943V203H165.464ZM167.212 188.837C166.694 188.837 166.251 188.666 165.88 188.323C165.515 187.974 165.333 187.558 165.333 187.073C165.333 186.594 165.515 186.183 165.88 185.84C166.251 185.491 166.694 185.317 167.212 185.317C167.729 185.317 168.17 185.491 168.535 185.84C168.905 186.183 169.09 186.594 169.09 187.073C169.09 187.558 168.905 187.974 168.535 188.323C168.17 188.666 167.729 188.837 167.212 188.837ZM175.21 186.273V203H171.73V186.273H175.21ZM180.145 207.705C179.704 207.705 179.29 207.669 178.903 207.598C178.522 207.533 178.207 207.449 177.956 207.345L178.74 204.748C179.149 204.873 179.516 204.941 179.843 204.952C180.175 204.963 180.461 204.887 180.7 204.723C180.945 204.56 181.144 204.282 181.297 203.89L181.501 203.359L177 190.455H180.66L183.257 199.668H183.388L186.009 190.455H189.693L184.817 204.356C184.583 205.031 184.264 205.619 183.861 206.12C183.464 206.626 182.96 207.016 182.35 207.288C181.74 207.566 181.005 207.705 180.145 207.705ZM200.276 195.747V203H196.797V186.273H200.178V192.668H200.325C200.608 191.927 201.066 191.348 201.697 190.928C202.329 190.504 203.121 190.291 204.074 190.291C204.945 190.291 205.705 190.482 206.353 190.863C207.006 191.239 207.513 191.78 207.872 192.488C208.237 193.191 208.416 194.032 208.411 195.012V203H204.932V195.633C204.937 194.86 204.741 194.258 204.344 193.828C203.952 193.398 203.402 193.183 202.694 193.183C202.22 193.183 201.801 193.283 201.436 193.485C201.077 193.686 200.793 193.98 200.586 194.367C200.385 194.748 200.282 195.208 200.276 195.747ZM216.867 203.245C215.576 203.245 214.465 202.984 213.534 202.461C212.609 201.933 211.895 201.187 211.394 200.223C210.893 199.254 210.643 198.108 210.643 196.784C210.643 195.494 210.893 194.361 211.394 193.387C211.895 192.412 212.6 191.652 213.51 191.108C214.424 190.563 215.497 190.291 216.728 190.291C217.555 190.291 218.326 190.425 219.039 190.691C219.758 190.953 220.384 191.348 220.918 191.876C221.457 192.404 221.876 193.068 222.176 193.869C222.475 194.664 222.625 195.595 222.625 196.662V197.618H212.031V195.461H219.35C219.35 194.96 219.241 194.517 219.023 194.13C218.805 193.743 218.503 193.441 218.116 193.223C217.735 193 217.291 192.888 216.785 192.888C216.257 192.888 215.788 193.011 215.38 193.256C214.977 193.496 214.661 193.82 214.433 194.228C214.204 194.631 214.087 195.08 214.081 195.576V197.626C214.081 198.246 214.196 198.783 214.424 199.235C214.659 199.687 214.988 200.035 215.413 200.28C215.837 200.525 216.341 200.648 216.924 200.648C217.31 200.648 217.664 200.593 217.986 200.484C218.307 200.375 218.582 200.212 218.81 199.994C219.039 199.777 219.213 199.51 219.333 199.194L222.551 199.406C222.388 200.179 222.053 200.855 221.547 201.432C221.046 202.004 220.398 202.45 219.603 202.771C218.813 203.087 217.901 203.245 216.867 203.245ZM228.375 186.273V203H224.895V186.273H228.375ZM231.162 207.705V190.455H234.592V192.562H234.748C234.9 192.224 235.121 191.881 235.409 191.533C235.703 191.179 236.084 190.885 236.553 190.651C237.026 190.411 237.614 190.291 238.317 190.291C239.232 190.291 240.076 190.531 240.849 191.01C241.622 191.484 242.24 192.2 242.703 193.158C243.166 194.111 243.397 195.306 243.397 196.744C243.397 198.143 243.171 199.325 242.719 200.288C242.273 201.247 241.663 201.974 240.89 202.469C240.122 202.959 239.261 203.204 238.309 203.204C237.633 203.204 237.059 203.093 236.585 202.869C236.117 202.646 235.733 202.366 235.434 202.028C235.134 201.685 234.905 201.339 234.748 200.991H234.641V207.705H231.162ZM234.568 196.727C234.568 197.473 234.671 198.124 234.878 198.679C235.085 199.235 235.385 199.668 235.777 199.978C236.169 200.283 236.645 200.435 237.206 200.435C237.772 200.435 238.251 200.28 238.643 199.97C239.036 199.654 239.332 199.218 239.534 198.663C239.741 198.102 239.844 197.457 239.844 196.727C239.844 196.003 239.743 195.366 239.542 194.816C239.34 194.266 239.044 193.836 238.652 193.526C238.26 193.215 237.778 193.06 237.206 193.06C236.64 193.06 236.161 193.21 235.768 193.509C235.382 193.809 235.085 194.233 234.878 194.783C234.671 195.333 234.568 195.981 234.568 196.727Z" fill="white"/>
<circle cx="179.5" cy="93.5" r="70.5" fill="white"/>
<path d="M145.788 61.6761L144.036 59.9028C143.427 60.5041 142.835 61.1212 142.258 61.7534L144.099 63.4334C144.647 62.8327 145.21 62.2469 145.788 61.6761Z" fill="#122436"/>
<path d="M147.923 59.6867C148.535 59.1533 149.161 58.6358 149.8 58.1343L148.262 56.1726C147.589 56.7005 146.929 57.2459 146.285 57.8078L147.923 59.6867Z" fill="#122436"/>
<path d="M140.717 67.5927C141.193 66.9331 141.685 66.2866 142.194 65.6534L140.252 64.0916C139.716 64.7581 139.197 65.4391 138.695 66.1335L140.717 67.5927Z" fill="#122436"/>
<path d="M154.2 55.0759L152.896 52.9517C152.166 53.3993 151.45 53.8655 150.746 54.3495L152.159 56.403C152.827 55.9438 153.507 55.5011 154.2 55.0759Z" fill="#122436"/>
<path d="M137.831 72.1138C138.229 71.4034 138.644 70.7045 139.078 70.0175L136.969 68.6885C136.513 69.4118 136.075 70.1482 135.656 70.8969L137.831 72.1138Z" fill="#122436"/>
<path d="M174.365 48.4001L174.143 45.9175C173.287 45.9938 172.437 46.0925 171.594 46.2121L171.945 48.6798C172.745 48.5661 173.552 48.4729 174.365 48.4001Z" fill="#122436"/>
<path d="M161.602 51.3957C162.356 51.1011 163.121 50.8254 163.893 50.5691L163.11 48.2031C162.295 48.4728 161.49 48.7635 160.695 49.074L161.602 51.3957Z" fill="#122436"/>
<path d="M156.731 53.6268C157.446 53.2474 158.172 52.886 158.909 52.5435L157.857 50.2837C157.081 50.6446 156.316 51.0255 155.562 51.4253L156.731 53.6268Z" fill="#122436"/>
<path d="M166.691 49.7379C167.474 49.5325 168.264 49.347 169.063 49.1815L168.557 46.7407C167.716 46.9147 166.883 47.1101 166.059 47.327L166.691 49.7379Z" fill="#122436"/>
<path d="M132.545 87.2232C132.678 86.4186 132.831 85.6209 133.004 84.8308L130.569 84.2974C130.387 85.1299 130.226 85.9704 130.086 86.8179L132.545 87.2232Z" fill="#122436"/>
<path d="M131.978 92.5507C132.018 91.7351 132.078 90.925 132.159 90.1209L129.679 89.8706C129.594 90.7171 129.53 91.5706 129.488 92.429L131.978 92.5507Z" fill="#122436"/>
<path d="M134.452 79.6736L132.095 78.8625C131.818 79.6692 131.561 80.4857 131.324 81.3108L133.721 81.9968C133.945 81.2141 134.189 80.4394 134.452 79.6736Z" fill="#122436"/>
<path d="M136.485 74.7106L134.238 73.6323C133.868 74.4035 133.518 75.1857 133.188 75.9789L135.489 76.937C135.802 76.1848 136.134 75.4425 136.485 74.7106Z" fill="#122436"/>
<path d="M216.098 63.1387C207.089 52.4872 193.613 45.7207 178.568 45.7212C178.141 45.7207 177.715 45.7267 177.29 45.7377L177.354 48.2293C177.757 48.2188 178.162 48.2138 178.568 48.2138C192.856 48.2143 205.634 54.6329 214.195 64.7484C221.071 72.8774 225.213 83.3783 225.214 94.8594C225.214 95.2622 225.209 95.6645 225.198 96.0653C225.171 97.1586 225.102 98.2414 225.001 99.3142C224.982 99.5161 224.962 99.7175 224.94 99.9189C224.919 100.115 224.896 100.312 224.873 100.507C224.848 100.707 224.824 100.907 224.797 101.106C224.636 102.305 224.43 103.49 224.18 104.659C224.124 104.92 224.069 105.18 224.009 105.44C223.973 105.596 223.933 105.751 223.895 105.906C223.839 106.135 223.785 106.364 223.726 106.592C223.459 107.621 223.157 108.636 222.823 109.636C222.752 109.851 222.677 110.063 222.603 110.277C222.547 110.436 222.492 110.596 222.435 110.754C222.356 110.972 222.274 111.189 222.192 111.405C221.782 112.485 221.333 113.546 220.847 114.586C220.542 115.24 220.221 115.886 219.886 116.523C219.394 117.46 218.872 118.378 218.319 119.276C217.929 119.909 217.525 120.532 217.105 121.146C216.529 121.99 215.926 122.815 215.296 123.618C214.81 124.238 214.309 124.845 213.793 125.438C213.124 126.208 212.43 126.954 211.713 127.678C211.184 128.212 210.642 128.733 210.089 129.241C209.313 129.952 208.513 130.637 207.691 131.295C207.132 131.742 206.563 132.177 205.983 132.598C205.121 133.226 204.236 133.825 203.33 134.393C202.717 134.778 202.095 135.149 201.463 135.506C200.533 136.031 199.584 136.526 198.616 136.988C198.315 137.131 198.013 137.273 197.708 137.41C197.591 137.463 197.472 137.513 197.355 137.565C197.113 137.671 196.871 137.777 196.627 137.88C195.663 138.285 194.682 138.659 193.686 139C193.466 139.075 193.244 139.147 193.023 139.219C192.87 139.27 192.717 139.32 192.562 139.369C192.331 139.442 192.098 139.51 191.866 139.579C190.707 139.923 189.531 140.223 188.337 140.477C188.13 140.522 187.921 140.565 187.712 140.607C187.531 140.643 187.35 140.677 187.168 140.711C186.959 140.75 186.75 140.788 186.54 140.824C185.489 141.005 184.428 141.153 183.355 141.263C183.077 141.291 182.796 141.314 182.517 141.337C182.398 141.347 182.279 141.36 182.16 141.369C181.761 141.399 181.362 141.425 180.96 141.445C180.168 141.484 179.37 141.505 178.568 141.505C178.278 141.505 177.99 141.499 177.701 141.494C177.493 141.49 177.286 141.485 177.079 141.479C176.881 141.473 176.683 141.465 176.486 141.457C176.283 141.448 176.081 141.438 175.879 141.426C174.792 141.364 173.715 141.268 172.649 141.133C172.333 141.093 172.018 141.048 171.703 141.001C171.623 140.99 171.543 140.98 171.463 140.968C171.071 140.908 170.68 140.843 170.291 140.773C169.239 140.585 168.201 140.359 167.175 140.102C166.963 140.048 166.752 139.993 166.541 139.937C166.37 139.892 166.199 139.846 166.029 139.798C165.816 139.739 165.603 139.677 165.391 139.615C164.226 139.273 163.08 138.886 161.955 138.457C161.733 138.372 161.511 138.287 161.29 138.199C161.138 138.139 160.988 138.076 160.837 138.014C160.624 137.926 160.412 137.838 160.2 137.748C159.238 137.335 158.292 136.893 157.365 136.418C156.655 136.056 155.957 135.675 155.269 135.278C154.385 134.767 153.521 134.227 152.675 133.662C152.049 133.243 151.434 132.81 150.829 132.362C149.984 131.736 149.162 131.082 148.363 130.402C147.814 129.935 147.276 129.456 146.75 128.965C146.356 128.597 145.966 128.224 145.584 127.843C145.211 127.469 144.845 127.087 144.484 126.7C143.992 126.173 143.512 125.635 143.044 125.086C142.367 124.291 141.716 123.475 141.093 122.636C140.641 122.028 140.204 121.407 139.781 120.776C139.215 119.931 138.675 119.066 138.164 118.182C137.767 117.497 137.386 116.801 137.024 116.094C136.549 115.165 136.106 114.218 135.692 113.255C135.603 113.049 135.517 112.841 135.431 112.632C135.367 112.477 135.303 112.322 135.24 112.166C135.155 111.953 135.073 111.74 134.991 111.526C134.56 110.399 134.172 109.252 133.827 108.085C133.763 107.869 133.7 107.653 133.639 107.435C133.592 107.267 133.548 107.098 133.502 106.928C133.445 106.715 133.389 106.502 133.335 106.289C133.077 105.263 132.851 104.224 132.662 103.171C132.619 102.936 132.581 102.698 132.542 102.461C132.517 102.305 132.489 102.15 132.465 101.993C132.422 101.714 132.384 101.433 132.347 101.152C132.189 99.9763 132.073 98.7863 132.004 97.5838C131.993 97.3824 131.982 97.1805 131.973 96.9786C131.964 96.7802 131.956 96.5813 131.95 96.3824C131.943 96.177 131.938 95.9711 131.934 95.7652C131.928 95.4636 131.922 95.162 131.922 94.8589H129.43C129.43 95.0752 129.435 95.2906 129.438 95.5065H129.434C129.435 95.6112 129.44 95.7149 129.442 95.8195C129.446 96.0329 129.451 96.2458 129.458 96.4587C129.465 96.67 129.473 96.8809 129.482 97.0918C129.492 97.3047 129.503 97.517 129.515 97.7294C129.521 97.8431 129.525 97.9572 129.532 98.0704L129.536 98.0699C129.603 99.1003 129.697 100.123 129.827 101.135C129.838 101.227 129.853 101.318 129.865 101.411C129.908 101.733 129.952 102.055 130.001 102.375C130.025 102.53 130.053 102.684 130.078 102.839C130.12 103.099 130.162 103.358 130.208 103.616C130.211 103.634 130.214 103.653 130.217 103.671L130.219 103.671C130.403 104.686 130.62 105.689 130.865 106.682L130.861 106.683C130.879 106.755 130.899 106.825 130.917 106.897C130.974 107.123 131.034 107.348 131.094 107.573C131.141 107.751 131.188 107.929 131.238 108.107C131.302 108.334 131.368 108.56 131.435 108.786C131.471 108.91 131.505 109.034 131.542 109.158L131.545 109.157C131.845 110.143 132.174 111.115 132.533 112.074L132.531 112.075C132.574 112.19 132.62 112.304 132.664 112.418C132.75 112.642 132.836 112.866 132.925 113.088C132.992 113.255 133.06 113.421 133.129 113.588C133.218 113.804 133.309 114.021 133.401 114.237C133.431 114.307 133.46 114.379 133.49 114.45L133.493 114.448C134.069 115.772 134.699 117.066 135.385 118.326C135.448 118.442 135.514 118.556 135.578 118.672C135.714 118.917 135.85 119.162 135.99 119.404C136.005 119.429 136.018 119.455 136.033 119.48L136.035 119.479C136.55 120.368 137.094 121.238 137.662 122.09L137.659 122.092C137.675 122.115 137.692 122.137 137.708 122.161C138.155 122.829 138.618 123.486 139.097 124.13C139.111 124.149 139.123 124.169 139.137 124.188L139.138 124.187C139.752 125.011 140.392 125.813 141.055 126.596L141.052 126.598C141.081 126.633 141.113 126.665 141.143 126.7C141.636 127.279 142.143 127.847 142.662 128.402C142.695 128.438 142.726 128.476 142.76 128.512L142.762 128.51C143.465 129.258 144.192 129.984 144.94 130.686L144.938 130.689C144.974 130.723 145.013 130.754 145.049 130.788C145.604 131.306 146.171 131.811 146.749 132.303C146.785 132.333 146.818 132.366 146.854 132.396L146.857 132.393C147.64 133.056 148.443 133.697 149.268 134.31L149.267 134.311C149.291 134.329 149.317 134.345 149.342 134.364C149.98 134.836 150.629 135.294 151.291 135.736C151.317 135.753 151.341 135.772 151.367 135.789L151.368 135.787C152.222 136.356 153.095 136.899 153.985 137.415L153.984 137.417C154.004 137.428 154.024 137.439 154.044 137.45C154.319 137.609 154.597 137.764 154.875 137.917C154.958 137.962 155.039 138.01 155.121 138.055C155.485 138.253 155.852 138.446 156.221 138.635C156.228 138.638 156.234 138.642 156.241 138.645V138.644C157.154 139.111 158.085 139.547 159.031 139.958L159.029 139.96C159.091 139.987 159.153 140.012 159.215 140.038C159.436 140.133 159.659 140.225 159.882 140.317C160.043 140.383 160.205 140.451 160.367 140.515C160.596 140.607 160.825 140.694 161.055 140.782C161.175 140.828 161.294 140.877 161.415 140.922L161.416 140.919C162.376 141.277 163.351 141.605 164.34 141.903L164.339 141.906C164.455 141.941 164.573 141.973 164.69 142.007C164.912 142.072 165.134 142.137 165.357 142.199C165.536 142.249 165.715 142.297 165.895 142.344C166.119 142.404 166.344 142.463 166.569 142.519C166.652 142.54 166.732 142.563 166.815 142.583L166.816 142.58C167.809 142.824 168.813 143.04 169.828 143.222V143.223C169.835 143.224 169.842 143.225 169.848 143.226C170.259 143.3 170.672 143.369 171.087 143.432C171.148 143.442 171.21 143.449 171.271 143.458C171.625 143.51 171.979 143.561 172.335 143.606C172.345 143.608 172.355 143.609 172.365 143.61V143.609C173.377 143.737 174.4 143.83 175.431 143.895L175.43 143.899C175.53 143.906 175.631 143.909 175.731 143.914C175.945 143.927 176.159 143.937 176.373 143.947C176.583 143.956 176.792 143.964 177.002 143.971C177.216 143.977 177.431 143.982 177.645 143.986C177.761 143.988 177.876 143.993 177.993 143.995V143.991C178.183 143.993 178.374 143.998 178.565 143.998C179.405 143.998 180.241 143.976 181.07 143.934V143.935C181.076 143.934 181.082 143.934 181.088 143.934C181.51 143.912 181.929 143.886 182.348 143.854C182.464 143.845 182.58 143.833 182.697 143.823C183.001 143.798 183.305 143.773 183.607 143.742C183.614 143.741 183.622 143.741 183.629 143.74V143.739C184.656 143.634 185.673 143.494 186.68 143.327L186.681 143.33C186.774 143.315 186.866 143.296 186.959 143.28C187.181 143.242 187.404 143.201 187.626 143.16C187.816 143.125 188.005 143.089 188.194 143.051C188.417 143.007 188.639 142.961 188.861 142.913C188.974 142.889 189.088 142.868 189.201 142.843L189.2 142.839C190.207 142.618 191.203 142.366 192.186 142.083L192.186 142.085C192.317 142.047 192.447 142.006 192.577 141.967C192.821 141.895 193.064 141.822 193.306 141.747C193.47 141.695 193.632 141.641 193.795 141.588C194.027 141.512 194.259 141.437 194.491 141.358C194.538 141.342 194.586 141.327 194.633 141.311L194.632 141.309C195.604 140.973 196.562 140.608 197.505 140.213L197.506 140.215C197.535 140.203 197.563 140.19 197.592 140.178C197.843 140.073 198.093 139.962 198.342 139.853C198.471 139.796 198.602 139.741 198.731 139.683C199.045 139.541 199.356 139.395 199.666 139.248C199.725 139.22 199.785 139.193 199.843 139.165V139.165C200.77 138.719 201.679 138.243 202.571 137.742L202.573 137.745C202.644 137.705 202.713 137.663 202.784 137.623C202.985 137.508 203.186 137.392 203.385 137.275C203.542 137.183 203.7 137.09 203.856 136.997C204.054 136.877 204.252 136.755 204.449 136.633C204.557 136.566 204.668 136.5 204.776 136.432L204.774 136.43C205.643 135.881 206.493 135.306 207.323 134.705L207.325 134.708C207.366 134.678 207.404 134.646 207.444 134.617C208.057 134.171 208.659 133.711 209.25 133.238C209.288 133.208 209.327 133.181 209.364 133.151L209.361 133.148C210.161 132.504 210.942 131.837 211.699 131.145L211.7 131.146C211.723 131.125 211.744 131.103 211.767 131.081C212.35 130.547 212.92 129.998 213.477 129.436C213.5 129.412 213.525 129.39 213.549 129.366L213.546 129.364C214.267 128.633 214.967 127.881 215.641 127.107L215.642 127.108C215.651 127.097 215.66 127.085 215.669 127.075C216.214 126.448 216.743 125.807 217.256 125.153C217.262 125.145 217.27 125.137 217.276 125.128L217.275 125.128C217.908 124.32 218.514 123.49 219.096 122.643L219.098 122.645C219.118 122.616 219.136 122.585 219.155 122.557C219.598 121.909 220.025 121.251 220.437 120.582C220.456 120.551 220.477 120.521 220.497 120.491L220.495 120.49C221.031 119.615 221.539 118.721 222.02 117.812L222.024 117.813C222.072 117.722 222.117 117.629 222.165 117.538C222.27 117.337 222.373 117.136 222.474 116.934C222.559 116.767 222.643 116.598 222.725 116.43C222.825 116.225 222.924 116.019 223.021 115.813C223.069 115.712 223.119 115.613 223.166 115.511L223.162 115.509C223.594 114.579 223.998 113.634 224.372 112.673L224.374 112.674C224.424 112.546 224.47 112.415 224.518 112.287C224.604 112.061 224.69 111.835 224.773 111.607C224.835 111.437 224.893 111.266 224.953 111.096C225.03 110.874 225.108 110.652 225.182 110.429C225.202 110.37 225.223 110.312 225.243 110.253L225.24 110.252C225.56 109.281 225.852 108.296 226.112 107.299L226.114 107.299C226.121 107.273 226.127 107.245 226.134 107.219C226.197 106.976 226.255 106.732 226.315 106.488C226.354 106.327 226.395 106.167 226.432 106.006C226.5 105.716 226.562 105.423 226.624 105.13C226.648 105.02 226.674 104.91 226.697 104.799H226.696C226.901 103.799 227.073 102.786 227.217 101.764L227.221 101.765C227.236 101.659 227.247 101.552 227.261 101.446C227.29 101.234 227.317 101.021 227.343 100.807C227.368 100.602 227.391 100.396 227.413 100.19C227.436 99.9773 227.458 99.7649 227.478 99.5515C227.488 99.4393 227.502 99.3277 227.512 99.2155L227.508 99.215C227.597 98.198 227.659 97.173 227.686 96.1391H227.686C227.697 95.7144 227.702 95.2886 227.702 94.8609C227.708 82.7736 223.339 71.6954 216.098 63.1387Z" fill="#122436"/>
<path d="M184.594 44.8708H209.792C210.462 44.8708 211.006 45.4142 211.006 46.0848V60.4652C211.006 61.1357 210.462 61.6791 209.792 61.6791H195.671C195.301 61.6791 194.952 61.8476 194.721 62.1373L190.581 67.3369C190.334 67.6475 189.834 67.4725 189.834 67.0762V62.8935C189.834 62.223 189.29 61.6796 188.62 61.6796H184.593C183.923 61.6796 183.379 61.1362 183.379 60.4652V46.0853C183.379 45.4142 183.923 44.8708 184.594 44.8708Z" fill="white"/>
<path d="M211.535 44.3451C211.094 43.9019 210.47 43.6238 209.795 43.6248H184.597C183.921 43.6243 183.298 43.9019 182.857 44.3451C182.414 44.7863 182.136 45.4095 182.137 46.085V60.4655C182.136 61.141 182.414 61.7636 182.857 62.2053C183.298 62.6485 183.921 62.9267 184.597 62.9257H188.592V67.0764C188.591 67.3097 188.641 67.547 188.736 67.7574C188.877 68.0754 189.111 68.3257 189.375 68.4892C189.641 68.6537 189.943 68.7415 190.261 68.742C190.493 68.7425 190.735 68.6931 190.963 68.5859C191.191 68.4797 191.401 68.3142 191.56 68.1133L195.691 62.9252H209.796C210.471 62.9257 211.094 62.648 211.536 62.2048C211.979 61.7636 212.257 61.1405 212.257 60.465V46.0855C212.256 45.4095 211.978 44.7863 211.535 44.3451ZM193.749 61.3613L191.084 64.7089V62.8938C191.084 62.2183 190.806 61.5951 190.363 61.1539C189.922 60.7107 189.299 60.4325 188.623 60.4335H184.628V46.1174H209.763V60.4335H195.674C194.924 60.4335 194.216 60.7755 193.749 61.3613Z" fill="#122436"/>
<path d="M195.46 58.8006L190.504 53.8453L192.742 51.6074L195.46 54.3254L201.658 48.1267L203.896 50.3646L195.46 58.8006Z" fill="#4EA3DA"/>
<path d="M220.966 98.1644H211.494C205.988 98.1644 201.523 93.7001 201.523 88.1939V67.4961H230.936V88.1939C230.936 93.7006 226.473 98.1644 220.966 98.1644Z" fill="#FFCC34"/>
<path d="M211.494 98.1644H220.966C226.473 98.1644 230.936 93.7001 230.936 88.1938H201.523C201.523 93.7006 205.988 98.1644 211.494 98.1644Z" fill="#4EA3DA"/>
<path d="M223.022 94.4257H225.446V91.9331H223.022V94.4257ZM217.687 94.4257H220.112V91.9331H217.687V94.4257ZM212.354 94.4257H214.778V91.9331H212.354V94.4257ZM207.02 94.4257H209.444V91.9331H207.02V94.4257Z" fill="white"/>
<path d="M230.936 67.4961H201.523V72.4813H230.936V67.4961Z" fill="white"/>
<path d="M219.308 98.1646H213.16V133.601H219.308V98.1646Z" fill="#4EA3DA"/>
<path d="M200.281 66.2498V88.1939C200.282 94.389 205.303 99.4097 211.498 99.4107H211.913V134.847H220.554V133.601V99.4107H220.97C227.165 99.4097 232.185 94.389 232.186 88.1939V66.2498H200.281ZM207.842 68.7424V80.9657H210.335V68.7424H214.988V80.9657H217.48V68.7424H222.133V80.9657H224.626V68.7424H229.694V86.948H202.773V68.7424H207.842ZM218.062 132.355H214.406V99.4107H218.063L218.062 132.355ZM227.139 94.3631C225.556 95.9439 223.383 96.9176 220.971 96.9186H220.555H211.914H211.499C209.086 96.9181 206.912 95.9439 205.33 94.3631C204.027 93.059 203.147 91.3505 202.874 89.4407H229.596C229.322 91.35 228.441 93.059 227.139 94.3631Z" fill="#122436"/>
<path d="M183.009 88.2393C182.494 88.8839 181.897 89.3864 181.261 89.7239C180.623 90.0614 179.951 90.2384 179.244 90.2394H176.187H153.188H150.126C149.426 90.2389 148.756 90.0649 148.121 89.7324C147.169 89.2353 146.3 88.3674 145.672 87.2233C145.044 86.0812 144.66 84.6728 144.656 83.1349V83.0491C144.654 75.8654 146.962 69.3861 150.626 64.7518C152.457 62.4336 154.622 60.5766 156.999 59.3039C159.378 58.0306 161.966 57.3367 164.687 57.3357C165.087 57.3357 165.491 57.3511 165.896 57.3816C168.276 57.5615 170.557 58.2894 172.673 59.4833C175.845 61.2735 178.641 64.1236 180.736 67.714C182.831 71.3029 184.223 75.6256 184.607 80.3252C184.68 81.23 184.717 82.1264 184.718 83.0118V83.0227C184.72 85.0996 184.039 86.9516 183.009 88.2393Z" fill="white"/>
<path d="M189.77 102.629C185.926 98.7298 180.617 96.3608 174.766 96.3608H154.591C148.844 96.3608 143.629 98.6476 139.807 102.36C137.153 104.932 135.162 108.206 134.142 111.869C134.062 112.152 134.035 112.226 133.992 112.399C140.991 130.172 158.312 142.751 178.57 142.751C184.722 142.751 190.602 141.591 196.005 139.478V118.115C196.005 111.995 193.625 106.555 189.786 102.645L189.77 102.629Z" fill="#4EA3DA"/>
<path d="M189.786 102.645L189.77 102.629C185.926 98.7298 180.617 96.3608 174.766 96.3608H154.591C148.844 96.3608 143.629 98.6476 139.807 102.36C137.153 104.932 135.162 108.206 134.142 111.869C134.062 112.152 134.035 112.226 133.992 112.399C134.283 113.137 134.591 113.866 134.916 114.585C136.034 111.838 137.714 109.373 139.807 107.345C143.629 103.632 148.844 101.346 154.591 101.346H174.766C180.617 101.346 185.926 103.715 189.77 107.614L189.786 107.63C193.625 111.54 196.005 116.98 196.005 123.1V118.115C196.005 111.995 193.625 106.555 189.786 102.645Z" fill="white"/>
<path d="M146.492 130.415C154.984 138.083 166.236 142.751 178.578 142.751C180.029 142.751 181.466 142.686 182.885 142.56V115.402H146.492V130.415Z" fill="#FFCC34"/>
<path d="M182.885 115.402H146.492V120.387H182.885V115.402Z" fill="white"/>
<path d="M156.821 96.3608H154.594C153.273 96.3608 151.98 96.482 150.727 96.7128V115.402H156.821V96.3608H156.821Z" fill="#FFCC34"/>
<path d="M154.594 96.3608C153.273 96.3608 151.98 96.482 150.727 96.7128V101.698C151.981 101.467 153.273 101.346 154.594 101.346H156.821V96.3608H154.594Z" fill="white"/>
<path d="M178.637 96.7143C177.382 96.482 176.087 96.3608 174.765 96.3608H172.543V115.402H178.637V96.7143Z" fill="#FFCC34"/>
<path d="M174.765 96.3608H172.543V101.346H174.765C176.087 101.346 177.382 101.467 178.637 101.7V96.7143C177.382 96.482 176.087 96.3608 174.765 96.3608Z" fill="white"/>
<path d="M138.941 101.467H138.943L138.944 101.465L138.941 101.467Z" fill="#122436"/>
<path d="M190.679 101.772L190.678 101.77L190.661 101.754L189.774 102.629L190.661 101.754C187.75 98.7996 184.034 96.6789 179.888 95.7087V95.6773L178.868 95.4889C178.749 95.467 178.628 95.451 178.507 95.4306C178.346 95.4036 178.185 95.3757 178.023 95.3523C177.821 95.3229 177.619 95.299 177.416 95.275C177.262 95.2571 177.108 95.2366 176.952 95.2217C176.724 95.1997 176.493 95.1843 176.264 95.1693C176.131 95.1604 176 95.1484 175.868 95.1419C175.504 95.1245 175.138 95.1145 174.77 95.1145H171.301H158.069H156.823H154.596C154.231 95.1145 153.868 95.1245 153.508 95.1414C153.379 95.1474 153.253 95.1594 153.124 95.1678C152.894 95.1828 152.662 95.1973 152.434 95.2192C152.283 95.2336 152.133 95.2536 151.984 95.271C151.779 95.295 151.575 95.3179 151.372 95.3473C151.216 95.3697 151.062 95.3967 150.907 95.4221C150.772 95.4445 150.636 95.4625 150.503 95.4874L149.482 95.6753V95.7067C145.443 96.6485 141.816 98.674 138.943 101.466C136.134 104.189 134.027 107.653 132.946 111.535L132.947 111.531C132.909 111.664 132.886 111.743 132.862 111.825C132.838 111.905 132.813 111.994 132.787 112.101L132.691 112.487L132.837 112.857C135.574 119.806 139.851 125.977 145.243 130.957V130.968L145.654 131.34C145.745 131.422 145.842 131.499 145.933 131.581C146.271 131.881 146.613 132.176 146.959 132.467C147.137 132.617 147.314 132.769 147.494 132.916C147.921 133.265 148.355 133.606 148.793 133.941C148.893 134.017 148.991 134.097 149.092 134.173C149.588 134.546 150.092 134.911 150.603 135.265C150.646 135.295 150.691 135.323 150.735 135.353C150.897 135.465 151.062 135.57 151.225 135.68C151.629 135.951 152.036 136.218 152.448 136.478C152.652 136.606 152.858 136.731 153.064 136.857C153.452 137.092 153.843 137.323 154.238 137.549C154.447 137.668 154.655 137.788 154.866 137.904C155.294 138.14 155.726 138.368 156.162 138.591C156.338 138.682 156.512 138.775 156.689 138.864C157.303 139.17 157.923 139.465 158.551 139.746C158.611 139.773 158.674 139.797 158.734 139.824C159.301 140.074 159.873 140.314 160.451 140.543C160.657 140.625 160.866 140.702 161.073 140.781C161.515 140.949 161.959 141.113 162.407 141.269C162.641 141.351 162.878 141.431 163.114 141.509C163.555 141.654 163.997 141.793 164.443 141.927C164.672 141.996 164.901 142.066 165.131 142.131C165.654 142.28 166.181 142.418 166.711 142.549C166.861 142.586 167.008 142.628 167.159 142.664C167.838 142.825 168.522 142.972 169.212 143.106C169.39 143.14 169.571 143.168 169.75 143.2C170.266 143.294 170.784 143.382 171.305 143.46C171.553 143.496 171.802 143.528 172.051 143.561C172.517 143.623 172.985 143.679 173.454 143.728C173.713 143.755 173.972 143.781 174.232 143.803C174.723 143.846 175.217 143.88 175.713 143.908C175.941 143.921 176.169 143.938 176.399 143.948C177.121 143.979 177.845 143.999 178.575 143.999C179.341 143.999 180.103 143.98 180.861 143.946C181.129 143.933 181.394 143.909 181.661 143.892C182.105 143.865 182.551 143.842 182.992 143.803L184.128 143.702V143.676C188.43 143.191 192.569 142.163 196.463 140.641L197.255 140.331V118.116C197.256 111.669 194.743 105.908 190.679 101.772ZM174.77 97.6071C175.099 97.6071 175.427 97.6166 175.752 97.632C175.858 97.637 175.963 97.647 176.069 97.654C176.286 97.6679 176.503 97.6824 176.719 97.7033C176.848 97.7158 176.977 97.7328 177.106 97.7477C177.203 97.7592 177.299 97.7721 177.396 97.7846V114.156H173.794V97.6071H174.77ZM181.635 141.394C181.59 141.397 181.544 141.401 181.499 141.403C181.248 141.419 180.999 141.442 180.747 141.453C180.026 141.486 179.303 141.505 178.574 141.505C177.881 141.505 177.193 141.486 176.508 141.456C176.29 141.446 176.074 141.431 175.856 141.418C175.385 141.391 174.916 141.359 174.448 141.318C174.203 141.297 173.958 141.272 173.714 141.247C173.266 141.201 172.82 141.147 172.376 141.089C172.141 141.057 171.906 141.027 171.673 140.993C171.175 140.919 170.68 140.835 170.187 140.746C170.02 140.715 169.852 140.689 169.685 140.657C169.03 140.531 168.379 140.391 167.734 140.238C167.593 140.204 167.454 140.165 167.313 140.13C166.809 140.005 166.308 139.874 165.811 139.733C165.592 139.671 165.374 139.604 165.155 139.538C164.735 139.412 164.316 139.281 163.901 139.143C163.673 139.068 163.446 138.991 163.22 138.912C162.8 138.766 162.385 138.613 161.97 138.455C161.768 138.378 161.565 138.303 161.364 138.223C160.83 138.011 160.301 137.789 159.776 137.558C159.705 137.527 159.632 137.498 159.561 137.467C158.969 137.202 158.384 136.923 157.806 136.635C157.629 136.547 157.456 136.453 157.28 136.363C156.876 136.155 156.474 135.943 156.076 135.724C155.872 135.611 155.669 135.496 155.468 135.38C155.095 135.167 154.726 134.949 154.36 134.726C154.165 134.608 153.97 134.49 153.778 134.368C153.378 134.117 152.983 133.858 152.592 133.595C152.447 133.498 152.3 133.404 152.157 133.305C151.623 132.938 151.096 132.561 150.58 132.172C150.508 132.118 150.439 132.061 150.368 132.007C149.926 131.671 149.491 131.328 149.062 130.978C148.9 130.845 148.742 130.709 148.582 130.575C148.297 130.335 148.015 130.091 147.736 129.844V116.648H149.483H158.07H171.302H179.889H181.636V141.394H181.635ZM171.301 97.6071V114.156H158.069V97.6071H171.301ZM155.576 97.6071V114.156H151.974V97.7831C152.077 97.7696 152.179 97.7567 152.282 97.7447C152.411 97.7298 152.538 97.7128 152.668 97.7004C152.879 97.6799 153.092 97.6664 153.305 97.6525C153.412 97.6455 153.518 97.6355 153.625 97.6306C153.947 97.6151 154.27 97.6066 154.596 97.6061H155.576V97.6071ZM135.313 112.321C135.324 112.285 135.333 112.252 135.346 112.207L135.348 112.201L135.348 112.203C136.306 108.76 138.18 105.676 140.679 103.255L140.68 103.254C143.105 100.9 146.12 99.1605 149.482 98.2722V114.156H145.242V127.484C141.011 123.161 137.615 118.02 135.313 112.321ZM179.888 114.156V98.2732C183.341 99.189 186.428 101.012 188.886 103.504L188.902 103.52L188.901 103.519C192.514 107.202 194.761 112.321 194.762 118.115V138.607C191.384 139.858 187.823 140.726 184.127 141.165V114.156H179.888Z" fill="#122436"/>
<path d="M185.961 79.752C185.437 73.3564 183.092 67.6099 179.562 63.3286C177.796 61.1889 175.731 59.4151 173.444 58.123C171.158 56.8313 168.646 56.0237 166.014 55.8253C165.569 55.7914 165.125 55.7749 164.685 55.7749C161.69 55.7739 158.831 56.5466 156.257 57.9265C152.391 59.9984 149.156 63.4208 146.883 67.6787C144.611 71.9381 143.297 77.043 143.297 82.5243V82.6085V82.612C143.305 85.0927 144.119 87.348 145.475 89.0221C146.154 89.8586 146.973 90.5501 147.901 91.0366C148.827 91.5232 149.867 91.8004 150.95 91.7994H153.838H175.534H178.418C179.511 91.7999 180.559 91.5172 181.489 91.0222C182.888 90.2779 184.029 89.0714 184.825 87.5983C185.618 86.1286 186.07 84.3843 186.074 82.5178H186.074L186.075 82.5044V82.4869C186.073 81.5856 186.036 80.6728 185.961 79.752ZM181.969 87.4203C181.483 88.0285 180.92 88.5026 180.319 88.8207C179.718 89.1392 179.084 89.3057 178.417 89.3067H175.533H153.837H150.949C150.289 89.3062 149.657 89.1422 149.057 88.8286C148.16 88.36 147.34 87.541 146.748 86.4616C146.155 85.3843 145.792 84.0558 145.79 82.6051V82.5243C145.788 75.7478 147.965 69.6354 151.42 65.2633C153.148 63.0763 155.19 61.325 157.433 60.124C159.677 58.9231 162.118 58.2685 164.685 58.2675C165.062 58.2675 165.443 58.282 165.826 58.3109C168.072 58.4809 170.223 59.1674 172.219 60.294C175.211 61.9825 177.848 64.6716 179.825 68.0586C181.801 71.4446 183.115 75.522 183.477 79.9554C183.546 80.8089 183.581 81.6549 183.581 82.4899V82.5004C183.583 84.4586 182.941 86.2059 181.969 87.4203Z" fill="#122436"/>
<path d="M180.147 76.163C180.147 84.7037 173.224 91.6278 164.683 91.6278C156.142 91.6278 149.219 84.7042 149.219 76.163C149.219 67.6223 156.142 60.6987 164.683 60.6987C173.223 60.6987 180.147 67.6223 180.147 76.163Z" fill="#FFCC34"/>
<path d="M164.683 66.1825C172.288 66.1825 178.605 71.6728 179.9 78.9049C180.06 78.0145 180.147 77.0992 180.147 76.163C180.147 67.6223 173.224 60.6987 164.683 60.6987C156.142 60.6987 149.219 67.6223 149.219 76.163C149.219 77.0992 149.306 78.0145 149.466 78.9049C150.76 71.6728 157.078 66.1825 164.683 66.1825Z" fill="white"/>
<path d="M180.563 74.4272C180.064 73.9401 179.386 73.6415 178.647 73.6405C178.285 73.64 177.91 73.7148 177.557 73.8713L177.558 73.8708C175.788 74.649 173.835 75.0807 171.774 75.0812C168.747 75.0807 165.949 74.1495 163.632 72.5567C161.316 70.9634 159.489 68.7076 158.427 66.0674L156.114 66.9986C156.798 68.6961 157.756 70.2485 158.922 71.619C156.765 73.7551 153.808 75.0742 150.532 75.0752C150.486 75.0727 150.441 75.0668 150.395 75.0668C149.751 75.0673 149.161 75.327 148.735 75.7443C148.307 76.1595 148.026 76.7583 148.027 77.4173C148.027 77.4846 148.03 77.5529 148.036 77.6212C148.406 81.8946 150.385 85.7103 153.36 88.4522C156.334 91.1956 160.319 92.8746 164.684 92.8741C165.037 92.8741 165.391 92.8631 165.747 92.8412C170.043 92.5745 173.906 90.6472 176.714 87.7218C179.522 84.7975 181.291 80.8586 181.391 76.5579V76.5524L181.393 76.4267V76.4178V76.3958C181.393 75.6171 181.062 74.9117 180.563 74.4272ZM174.914 85.9949C172.514 88.4941 169.232 90.1267 165.593 90.3526C165.288 90.3715 164.984 90.3805 164.684 90.381C160.962 90.3805 157.586 88.9562 155.049 86.6191C152.551 84.3159 150.886 81.1358 150.536 77.5669C154.486 77.5659 158.07 75.9686 160.672 73.3932C161.165 73.8249 161.677 74.2367 162.219 74.6096C164.934 76.4786 168.232 77.5739 171.774 77.5734C174.185 77.5734 176.485 77.0659 178.562 76.1521L178.564 76.1511L178.647 76.1321C178.696 76.1306 178.768 76.157 178.821 76.2094C178.874 76.2642 178.898 76.3131 178.9 76.3943V76.3978L178.898 76.4995C178.813 80.1467 177.313 83.4953 174.914 85.9949Z" fill="#122436"/>
</svg>
