<svg width="67" height="67" viewBox="0 0 67 67" fill="none" xmlns="http://www.w3.org/2000/svg">
<path d="M66.5526 33.2763C66.5526 43.0151 62.3682 51.7769 55.7004 57.8629C49.7845 63.2603 41.9153 66.5526 33.2763 66.5526C24.6374 66.5526 16.7681 63.2603 10.8523 57.8629C4.18442 51.7769 0 43.0151 0 33.2763C0 14.8991 14.8991 0 33.2763 0C51.6535 0 66.5526 14.8991 66.5526 33.2763Z" fill="#FFAA20"/>
<path d="M66.5537 33.2763C66.5537 43.0151 62.3692 51.7769 55.7014 57.8629C49.7855 63.2603 41.9163 66.5526 33.2773 66.5526V0C51.6546 0 66.5537 14.8991 66.5537 33.2763Z" fill="#FF8900"/>
<path d="M55.4622 57.7444V57.8767C49.6096 63.2656 41.8245 66.5527 33.278 66.5527C24.7314 66.5527 16.9463 63.2656 11.0938 57.8767V57.7444C11.0938 48.1198 17.1433 39.8929 25.6074 36.7371C27.998 35.8439 30.5825 35.3562 33.278 35.3562C35.9734 35.3562 38.5579 35.8439 40.95 36.7371C49.4142 39.8945 55.4622 48.1198 55.4622 57.7444Z" fill="#7985EB"/>
<path d="M55.4616 57.7444V57.8767C49.609 63.2656 41.8239 66.5527 33.2773 66.5527V35.3562C35.9728 35.3562 38.5573 35.8439 40.9494 36.7371C49.4136 39.8945 55.4616 48.1198 55.4616 57.7444Z" fill="#4B5BE6"/>
<path d="M47.1404 25.3037C47.1404 32.7572 40.9217 38.8224 33.2753 38.8224C25.6304 38.8224 19.4102 32.7572 19.4102 25.3037C19.4102 17.8501 25.6304 11.7854 33.2753 11.7854C40.9217 11.7854 47.1404 17.8501 47.1404 25.3037Z" fill="#FFDBA9"/>
<path d="M47.1425 25.3037C47.1425 32.7572 40.9237 38.8224 33.2773 38.8224V11.7854C40.9237 11.7854 47.1425 17.8501 47.1425 25.3037Z" fill="#FFC473"/>
</svg>
