<svg width="350" height="234" viewBox="0 0 350 234" fill="none" xmlns="http://www.w3.org/2000/svg">
<rect width="350" height="234" rx="28" fill="#0A8996"/>
<path d="M90.5455 186.68C90.4311 186.282 90.2705 185.931 90.0636 185.626C89.8567 185.316 89.6035 185.054 89.304 184.842C89.0099 184.624 88.6723 184.458 88.2912 184.344C87.9155 184.229 87.4989 184.172 87.0415 184.172C86.1867 184.172 85.4353 184.385 84.7873 184.809C84.1448 185.234 83.6438 185.852 83.2844 186.663C82.9251 187.469 82.7454 188.455 82.7454 189.62C82.7454 190.785 82.9223 191.776 83.2763 192.593C83.6302 193.41 84.1312 194.033 84.7791 194.463C85.4271 194.888 86.1921 195.1 87.0742 195.1C87.8746 195.1 88.558 194.959 89.1243 194.676C89.696 194.387 90.1316 193.982 90.4311 193.459C90.736 192.936 90.8885 192.318 90.8885 191.605L91.6072 191.711H87.2947V189.048H94.2944V191.156C94.2944 192.626 93.984 193.889 93.3633 194.945C92.7425 195.996 91.8877 196.808 90.7987 197.379C89.7096 197.946 88.4627 198.229 87.0579 198.229C85.4897 198.229 84.1121 197.883 82.9251 197.191C81.738 196.494 80.8124 195.506 80.1481 194.227C79.4892 192.942 79.1598 191.417 79.1598 189.653C79.1598 188.297 79.3558 187.088 79.7479 186.026C80.1454 184.959 80.7008 184.055 81.4141 183.315C82.1274 182.574 82.9577 182.011 83.9052 181.624C84.8526 181.237 85.879 181.044 86.9844 181.044C87.9318 181.044 88.8139 181.183 89.6307 181.461C90.4474 181.733 91.1716 182.119 91.8033 182.62C92.4403 183.121 92.9603 183.718 93.3633 184.409C93.7662 185.095 94.0249 185.852 94.1392 186.68H90.5455ZM104.931 192.658V185.455H108.41V198H105.07V195.721H104.939C104.656 196.456 104.185 197.047 103.526 197.494C102.872 197.94 102.075 198.163 101.133 198.163C100.294 198.163 99.5564 197.973 98.9193 197.592C98.2822 197.21 97.784 196.669 97.4246 195.966C97.0707 195.264 96.891 194.423 96.8856 193.442V185.455H100.365V192.822C100.37 193.562 100.569 194.148 100.961 194.578C101.353 195.008 101.879 195.223 102.538 195.223C102.957 195.223 103.349 195.128 103.714 194.937C104.079 194.741 104.373 194.453 104.596 194.071C104.824 193.69 104.936 193.219 104.931 192.658ZM114.771 198.237C113.97 198.237 113.257 198.098 112.631 197.82C112.004 197.537 111.509 197.121 111.144 196.571C110.785 196.015 110.605 195.324 110.605 194.496C110.605 193.799 110.733 193.214 110.989 192.74C111.245 192.266 111.593 191.885 112.034 191.597C112.475 191.308 112.976 191.09 113.537 190.943C114.104 190.796 114.697 190.693 115.318 190.633C116.047 190.557 116.636 190.486 117.082 190.42C117.529 190.35 117.853 190.246 118.054 190.11C118.255 189.974 118.356 189.772 118.356 189.506V189.457C118.356 188.939 118.193 188.539 117.866 188.256C117.545 187.973 117.087 187.831 116.494 187.831C115.868 187.831 115.37 187.97 114.999 188.248C114.629 188.52 114.384 188.863 114.264 189.277L111.046 189.016C111.21 188.253 111.531 187.594 112.01 187.039C112.489 186.478 113.107 186.048 113.864 185.749C114.626 185.444 115.508 185.291 116.51 185.291C117.207 185.291 117.874 185.373 118.511 185.536C119.154 185.7 119.723 185.953 120.218 186.296C120.719 186.639 121.114 187.08 121.403 187.619C121.691 188.153 121.836 188.792 121.836 189.538V198H118.536V196.26H118.438C118.236 196.652 117.967 196.998 117.629 197.298C117.292 197.592 116.886 197.823 116.412 197.992C115.939 198.155 115.391 198.237 114.771 198.237ZM115.767 195.836C116.279 195.836 116.731 195.735 117.123 195.533C117.515 195.326 117.823 195.049 118.046 194.7C118.269 194.352 118.381 193.957 118.381 193.516V192.185C118.272 192.255 118.122 192.321 117.931 192.381C117.746 192.435 117.537 192.487 117.303 192.536C117.068 192.579 116.834 192.62 116.6 192.658C116.366 192.691 116.154 192.721 115.963 192.748C115.555 192.808 115.198 192.903 114.893 193.034C114.588 193.165 114.351 193.342 114.183 193.565C114.014 193.783 113.929 194.055 113.929 194.382C113.929 194.855 114.101 195.218 114.444 195.468C114.792 195.713 115.233 195.836 115.767 195.836ZM124.535 198V185.455H127.908V187.643H128.039C128.268 186.865 128.651 186.277 129.191 185.879C129.73 185.476 130.35 185.275 131.053 185.275C131.227 185.275 131.415 185.286 131.616 185.308C131.818 185.329 131.995 185.359 132.147 185.397V188.485C131.984 188.436 131.758 188.392 131.469 188.354C131.181 188.316 130.917 188.297 130.677 188.297C130.165 188.297 129.708 188.408 129.305 188.632C128.907 188.85 128.592 189.154 128.357 189.547C128.129 189.939 128.014 190.391 128.014 190.902V198H124.535ZM137.985 198.204C137.032 198.204 136.169 197.959 135.396 197.469C134.628 196.974 134.018 196.247 133.566 195.288C133.12 194.325 132.897 193.143 132.897 191.744C132.897 190.306 133.128 189.111 133.591 188.158C134.054 187.2 134.669 186.484 135.437 186.01C136.21 185.531 137.057 185.291 137.977 185.291C138.679 185.291 139.265 185.411 139.733 185.651C140.207 185.885 140.588 186.179 140.876 186.533C141.17 186.881 141.394 187.224 141.546 187.562H141.652V181.273H145.123V198H141.693V195.991H141.546C141.383 196.339 141.151 196.685 140.852 197.028C140.558 197.366 140.174 197.646 139.7 197.869C139.232 198.093 138.66 198.204 137.985 198.204ZM139.088 195.435C139.648 195.435 140.122 195.283 140.509 194.978C140.901 194.668 141.2 194.235 141.407 193.679C141.62 193.124 141.726 192.473 141.726 191.727C141.726 190.981 141.622 190.333 141.415 189.783C141.208 189.233 140.909 188.809 140.517 188.509C140.125 188.21 139.648 188.06 139.088 188.06C138.516 188.06 138.034 188.215 137.642 188.526C137.25 188.836 136.953 189.266 136.752 189.816C136.55 190.366 136.449 191.003 136.449 191.727C136.449 192.457 136.55 193.102 136.752 193.663C136.959 194.218 137.255 194.654 137.642 194.97C138.034 195.28 138.516 195.435 139.088 195.435ZM153.373 181.273H157.734L162.341 192.511H162.537L167.143 181.273H171.505V198H168.074V187.113H167.936L163.607 197.918H161.271L156.942 187.072H156.803V198H153.373V181.273ZM177.931 198.237C177.13 198.237 176.417 198.098 175.791 197.82C175.165 197.537 174.669 197.121 174.304 196.571C173.945 196.015 173.765 195.324 173.765 194.496C173.765 193.799 173.893 193.214 174.149 192.74C174.405 192.266 174.754 191.885 175.195 191.597C175.636 191.308 176.137 191.09 176.697 190.943C177.264 190.796 177.857 190.693 178.478 190.633C179.208 190.557 179.796 190.486 180.242 190.42C180.689 190.35 181.013 190.246 181.214 190.11C181.416 189.974 181.516 189.772 181.516 189.506V189.457C181.516 188.939 181.353 188.539 181.026 188.256C180.705 187.973 180.248 187.831 179.654 187.831C179.028 187.831 178.53 187.97 178.159 188.248C177.789 188.52 177.544 188.863 177.424 189.277L174.206 189.016C174.37 188.253 174.691 187.594 175.17 187.039C175.649 186.478 176.267 186.048 177.024 185.749C177.786 185.444 178.669 185.291 179.67 185.291C180.367 185.291 181.034 185.373 181.672 185.536C182.314 185.7 182.883 185.953 183.379 186.296C183.879 186.639 184.274 187.08 184.563 187.619C184.851 188.153 184.996 188.792 184.996 189.538V198H181.696V196.26H181.598C181.397 196.652 181.127 196.998 180.789 197.298C180.452 197.592 180.046 197.823 179.572 197.992C179.099 198.155 178.551 198.237 177.931 198.237ZM178.927 195.836C179.439 195.836 179.891 195.735 180.283 195.533C180.675 195.326 180.983 195.049 181.206 194.7C181.429 194.352 181.541 193.957 181.541 193.516V192.185C181.432 192.255 181.282 192.321 181.092 192.381C180.906 192.435 180.697 192.487 180.463 192.536C180.229 192.579 179.994 192.62 179.76 192.658C179.526 192.691 179.314 192.721 179.123 192.748C178.715 192.808 178.358 192.903 178.053 193.034C177.748 193.165 177.511 193.342 177.343 193.565C177.174 193.783 177.089 194.055 177.089 194.382C177.089 194.855 177.261 195.218 177.604 195.468C177.953 195.713 178.394 195.836 178.927 195.836ZM191.175 190.747V198H187.695V185.455H191.011V187.668H191.158C191.436 186.938 191.901 186.361 192.555 185.936C193.208 185.506 194.001 185.291 194.932 185.291C195.803 185.291 196.562 185.482 197.21 185.863C197.858 186.244 198.362 186.789 198.721 187.496C199.081 188.199 199.26 189.037 199.26 190.012V198H195.781V190.633C195.787 189.865 195.59 189.266 195.193 188.836C194.796 188.4 194.248 188.183 193.551 188.183C193.083 188.183 192.669 188.283 192.31 188.485C191.956 188.686 191.678 188.98 191.477 189.367C191.281 189.748 191.18 190.208 191.175 190.747ZM205.58 198.237C204.78 198.237 204.066 198.098 203.44 197.82C202.814 197.537 202.319 197.121 201.954 196.571C201.594 196.015 201.415 195.324 201.415 194.496C201.415 193.799 201.543 193.214 201.799 192.74C202.054 192.266 202.403 191.885 202.844 191.597C203.285 191.308 203.786 191.09 204.347 190.943C204.913 190.796 205.507 190.693 206.127 190.633C206.857 190.557 207.445 190.486 207.892 190.42C208.338 190.35 208.662 190.246 208.864 190.11C209.065 189.974 209.166 189.772 209.166 189.506V189.457C209.166 188.939 209.002 188.539 208.676 188.256C208.354 187.973 207.897 187.831 207.304 187.831C206.677 187.831 206.179 187.97 205.809 188.248C205.439 188.52 205.194 188.863 205.074 189.277L201.856 189.016C202.019 188.253 202.34 187.594 202.82 187.039C203.299 186.478 203.917 186.048 204.674 185.749C205.436 185.444 206.318 185.291 207.32 185.291C208.017 185.291 208.684 185.373 209.321 185.536C209.963 185.7 210.532 185.953 211.028 186.296C211.529 186.639 211.924 187.08 212.212 187.619C212.501 188.153 212.645 188.792 212.645 189.538V198H209.345V196.26H209.247C209.046 196.652 208.776 196.998 208.439 197.298C208.101 197.592 207.696 197.823 207.222 197.992C206.748 198.155 206.201 198.237 205.58 198.237ZM206.577 195.836C207.088 195.836 207.54 195.735 207.932 195.533C208.324 195.326 208.632 195.049 208.855 194.7C209.079 194.352 209.19 193.957 209.19 193.516V192.185C209.081 192.255 208.932 192.321 208.741 192.381C208.556 192.435 208.346 192.487 208.112 192.536C207.878 192.579 207.644 192.62 207.41 192.658C207.176 192.691 206.963 192.721 206.773 192.748C206.364 192.808 206.008 192.903 205.703 193.034C205.398 193.165 205.161 193.342 204.992 193.565C204.823 193.783 204.739 194.055 204.739 194.382C204.739 194.855 204.91 195.218 205.253 195.468C205.602 195.713 206.043 195.836 206.577 195.836ZM220.997 202.966C219.869 202.966 218.903 202.811 218.097 202.5C217.297 202.195 216.66 201.779 216.186 201.251C215.712 200.723 215.404 200.129 215.263 199.47L218.481 199.037C218.579 199.288 218.734 199.522 218.946 199.74C219.159 199.958 219.439 200.132 219.788 200.262C220.142 200.399 220.572 200.467 221.078 200.467C221.835 200.467 222.459 200.281 222.949 199.911C223.444 199.546 223.692 198.934 223.692 198.074V195.778H223.545C223.392 196.127 223.164 196.456 222.859 196.767C222.554 197.077 222.162 197.33 221.683 197.526C221.203 197.722 220.632 197.82 219.967 197.82C219.025 197.82 218.168 197.603 217.395 197.167C216.627 196.726 216.014 196.053 215.557 195.15C215.105 194.24 214.879 193.091 214.879 191.703C214.879 190.282 215.11 189.095 215.573 188.142C216.036 187.189 216.651 186.475 217.419 186.002C218.192 185.528 219.039 185.291 219.959 185.291C220.662 185.291 221.25 185.411 221.723 185.651C222.197 185.885 222.578 186.179 222.867 186.533C223.161 186.881 223.387 187.224 223.545 187.562H223.676V185.455H227.13V198.123C227.13 199.19 226.869 200.083 226.346 200.801C225.824 201.52 225.099 202.059 224.174 202.419C223.254 202.783 222.194 202.966 220.997 202.966ZM221.07 195.207C221.631 195.207 222.105 195.068 222.491 194.79C222.883 194.507 223.183 194.104 223.39 193.581C223.602 193.053 223.708 192.422 223.708 191.686C223.708 190.951 223.605 190.314 223.398 189.775C223.191 189.231 222.891 188.809 222.499 188.509C222.107 188.21 221.631 188.06 221.07 188.06C220.498 188.06 220.016 188.215 219.624 188.526C219.232 188.83 218.936 189.255 218.734 189.8C218.533 190.344 218.432 190.973 218.432 191.686C218.432 192.411 218.533 193.037 218.734 193.565C218.941 194.088 219.238 194.493 219.624 194.782C220.016 195.065 220.498 195.207 221.07 195.207ZM235.617 198.245C234.326 198.245 233.215 197.984 232.284 197.461C231.359 196.933 230.645 196.187 230.144 195.223C229.643 194.254 229.393 193.108 229.393 191.784C229.393 190.494 229.643 189.361 230.144 188.387C230.645 187.412 231.35 186.652 232.26 186.108C233.174 185.563 234.247 185.291 235.478 185.291C236.305 185.291 237.076 185.425 237.789 185.691C238.508 185.953 239.134 186.348 239.668 186.876C240.207 187.404 240.626 188.068 240.926 188.869C241.225 189.664 241.375 190.595 241.375 191.662V192.618H230.781V190.461H238.1C238.1 189.96 237.991 189.517 237.773 189.13C237.555 188.743 237.253 188.441 236.866 188.223C236.485 188 236.041 187.888 235.535 187.888C235.007 187.888 234.538 188.011 234.13 188.256C233.727 188.496 233.411 188.82 233.183 189.228C232.954 189.631 232.837 190.08 232.831 190.576V192.626C232.831 193.246 232.946 193.783 233.174 194.235C233.409 194.687 233.738 195.035 234.163 195.28C234.587 195.525 235.091 195.648 235.674 195.648C236.06 195.648 236.414 195.593 236.736 195.484C237.057 195.375 237.332 195.212 237.56 194.994C237.789 194.777 237.963 194.51 238.083 194.194L241.301 194.406C241.138 195.179 240.803 195.855 240.297 196.432C239.796 197.004 239.148 197.45 238.353 197.771C237.563 198.087 236.651 198.245 235.617 198.245ZM243.645 198V185.455H246.961V187.668H247.108C247.37 186.933 247.805 186.353 248.415 185.928C249.025 185.504 249.755 185.291 250.604 185.291C251.464 185.291 252.197 185.506 252.801 185.936C253.406 186.361 253.809 186.938 254.01 187.668H254.141C254.397 186.949 254.859 186.375 255.529 185.945C256.204 185.509 257.002 185.291 257.922 185.291C259.093 185.291 260.043 185.664 260.773 186.41C261.508 187.151 261.875 188.202 261.875 189.563V198H258.404V190.249C258.404 189.552 258.219 189.029 257.849 188.681C257.479 188.332 257.016 188.158 256.46 188.158C255.829 188.158 255.336 188.359 254.982 188.762C254.628 189.16 254.451 189.685 254.451 190.339V198H251.078V190.175C251.078 189.56 250.901 189.07 250.547 188.705C250.198 188.34 249.738 188.158 249.167 188.158C248.78 188.158 248.432 188.256 248.121 188.452C247.816 188.643 247.574 188.912 247.394 189.261C247.215 189.604 247.125 190.007 247.125 190.469V198H243.645ZM270.341 198.245C269.051 198.245 267.94 197.984 267.009 197.461C266.083 196.933 265.37 196.187 264.869 195.223C264.368 194.254 264.117 193.108 264.117 191.784C264.117 190.494 264.368 189.361 264.869 188.387C265.37 187.412 266.075 186.652 266.984 186.108C267.899 185.563 268.972 185.291 270.202 185.291C271.03 185.291 271.8 185.425 272.514 185.691C273.233 185.953 273.859 186.348 274.392 186.876C274.931 187.404 275.351 188.068 275.65 188.869C275.95 189.664 276.099 190.595 276.099 191.662V192.618H265.506V190.461H272.824C272.824 189.96 272.715 189.517 272.497 189.13C272.28 188.743 271.977 188.441 271.591 188.223C271.21 188 270.766 187.888 270.259 187.888C269.731 187.888 269.263 188.011 268.855 188.256C268.452 188.496 268.136 188.82 267.907 189.228C267.679 189.631 267.561 190.08 267.556 190.576V192.626C267.556 193.246 267.67 193.783 267.899 194.235C268.133 194.687 268.463 195.035 268.887 195.28C269.312 195.525 269.816 195.648 270.398 195.648C270.785 195.648 271.139 195.593 271.46 195.484C271.781 195.375 272.056 195.212 272.285 194.994C272.514 194.777 272.688 194.51 272.808 194.194L276.026 194.406C275.862 195.179 275.528 195.855 275.021 196.432C274.52 197.004 273.872 197.45 273.077 197.771C272.288 198.087 271.376 198.245 270.341 198.245ZM281.849 190.747V198H278.37V185.455H281.686V187.668H281.833C282.111 186.938 282.576 186.361 283.23 185.936C283.883 185.506 284.675 185.291 285.606 185.291C286.478 185.291 287.237 185.482 287.885 185.863C288.533 186.244 289.037 186.789 289.396 187.496C289.756 188.199 289.935 189.037 289.935 190.012V198H286.456V190.633C286.461 189.865 286.265 189.266 285.868 188.836C285.47 188.4 284.923 188.183 284.226 188.183C283.758 188.183 283.344 188.283 282.985 188.485C282.631 188.686 282.353 188.98 282.152 189.367C281.956 189.748 281.855 190.208 281.849 190.747ZM299.35 185.455V188.068H291.795V185.455H299.35ZM293.511 182.449H296.99V194.145C296.99 194.466 297.039 194.717 297.137 194.896C297.235 195.071 297.371 195.193 297.545 195.264C297.725 195.335 297.932 195.37 298.166 195.37C298.33 195.37 298.493 195.356 298.656 195.329C298.82 195.297 298.945 195.272 299.032 195.256L299.579 197.845C299.405 197.899 299.16 197.962 298.844 198.033C298.528 198.109 298.144 198.155 297.692 198.172C296.854 198.204 296.119 198.093 295.487 197.837C294.861 197.581 294.374 197.183 294.025 196.644C293.677 196.105 293.505 195.424 293.511 194.602V182.449Z" fill="white"/>
<circle cx="179.5" cy="93.5" r="70.5" fill="white"/>
<path d="M185.828 110.568L195.491 101.492L191.655 100.78C189.803 100.408 188.471 98.2597 188.471 96.3711V87.9548H179.499H170.528V96.3711C170.528 98.2597 169.196 100.408 167.344 100.78L163.508 101.492L173.17 110.568C176.728 113.909 182.271 113.909 185.828 110.568Z" fill="#FFE7CF"/>
<path d="M180.237 87.9551V99.9101C180.237 101.799 181.569 103.947 183.421 104.319L190.988 105.722L195.491 101.493L191.655 100.78C189.803 100.408 188.471 98.2599 188.471 96.3713V87.9551H180.237Z" fill="#F4D3A6"/>
<path d="M206.08 102.284L192.441 99.7504C191.94 99.6574 191.424 99.7779 191.016 100.083L179.5 108.69L167.985 100.083C167.577 99.7779 167.06 99.6574 166.56 99.7504L152.92 102.284C146.059 104.304 141.349 110.602 141.349 117.754V134.102C141.349 135.974 142.866 137.491 144.737 137.491H214.264C216.135 137.491 217.652 135.974 217.652 134.102V117.754C217.652 110.602 212.941 104.304 206.08 102.284Z" fill="#599AC1"/>
<path d="M206.08 102.284L192.44 99.7504C191.94 99.6574 191.423 99.7779 191.015 100.083L184.968 104.603L197.948 107.014C204.809 109.034 209.519 110.929 209.519 118.081V137.491H214.263C216.135 137.491 217.652 135.974 217.652 134.102V117.754C217.651 110.602 212.941 104.304 206.08 102.284Z" fill="#76A5BC"/>
<path d="M162.646 100.477L170.11 110.923C170.672 111.71 171.706 112.001 172.596 111.623L179.5 108.69L167.984 100.083C167.576 99.7779 167.06 99.6574 166.559 99.7504L162.646 100.477Z" fill="#76A5BC"/>
<path d="M196.354 100.477L188.89 110.923C188.327 111.71 187.294 112.001 186.404 111.623L179.5 108.69L191.015 100.083C191.423 99.7779 191.94 99.6574 192.44 99.7504L196.354 100.477Z" fill="#76A5BC"/>
<path d="M179.5 37.5093C165.028 37.5093 153.296 47.521 153.296 53.1784C153.296 58.8357 165.028 62.8785 179.5 62.8785C193.971 62.8785 205.703 58.8357 205.703 53.1784C205.703 47.5212 193.971 37.5093 179.5 37.5093Z" fill="#599AC1"/>
<path d="M179.5 37.5093C178.093 37.5093 176.713 37.6048 175.367 37.7809C187.875 39.415 197.439 48.0708 197.439 53.1786C197.439 58.2863 187.875 62.0772 175.367 62.766C176.713 62.84 178.093 62.8787 179.5 62.8787C193.972 62.8787 205.703 58.8359 205.703 53.1786C205.703 47.5212 193.972 37.5093 179.5 37.5093Z" fill="#76A5BC"/>
<path d="M198.236 68.9725H197.04V67.5682V64.2112C197.04 59.4714 195.094 54.8784 191.502 51.7858C188.686 49.3611 170.312 49.3611 167.496 51.7858C163.904 54.8784 161.959 59.4714 161.959 64.2112V67.5682V68.9725H160.763C159.009 68.9725 157.588 70.3938 157.588 72.1472V75.6653C157.588 77.4185 159.009 78.84 160.763 78.84H161.963C162.062 83.4475 163.998 87.8821 167.496 90.8938C170.312 93.3186 174.27 95.4349 179.499 95.4932C184.728 95.4349 188.686 93.3186 191.502 90.8938C195 87.8821 196.936 83.4475 197.035 78.84H198.236C199.989 78.84 201.41 77.4187 201.41 75.6653V72.1472C201.411 70.3938 199.989 68.9725 198.236 68.9725Z" fill="#FFE7CF"/>
<path d="M198.237 68.9724H197.041V67.5681V64.2111C197.041 59.4713 195.095 54.8783 191.503 51.7857C189.73 50.2592 181.792 49.6941 175.45 50.0897C179.182 50.3224 182.36 50.8875 183.403 51.7857C186.995 54.8783 188.941 59.4713 188.941 64.2111V67.5681L188.936 78.8397C188.837 83.4472 186.901 87.8818 183.403 90.8935C181.366 92.6476 178.731 94.2396 175.45 95.0085C176.705 95.3026 178.054 95.4768 179.5 95.4929C184.729 95.4346 188.687 93.3183 191.503 90.8935C195.001 87.8818 196.937 83.4472 197.036 78.8397H198.237C199.99 78.8397 201.411 77.4184 201.411 75.665V72.1469C201.411 70.3937 199.99 68.9724 198.237 68.9724Z" fill="#F4D3A6"/>
<path d="M159.3 58.3996V69.3299C159.3 69.3299 161.983 69.2692 163.707 70.9755C164.066 71.3308 164.676 71.0713 164.676 70.5661V62.4716H194.324V70.5661C194.324 71.0713 194.935 71.331 195.294 70.9755C197.018 69.2692 199.701 69.3299 199.701 69.3299V58.3996C199.701 51.6298 159.3 51.6298 159.3 58.3996Z" fill="#FF6D3A"/>
<path d="M179.5 67.3043C168.344 67.3043 159.3 63.8415 159.3 59.5698H199.701C199.701 63.8415 190.657 67.3043 179.5 67.3043Z" fill="#599AC1"/>
<path d="M159.3 54.2006V59.5701H199.701V54.2567C199.701 52.8155 198.724 51.559 197.328 51.2021C193.59 50.247 185.987 48.575 178.555 48.572C171.705 48.5692 165.001 50.2096 161.6 51.1653C160.239 51.5478 159.3 52.7872 159.3 54.2006Z" fill="#76A5BC"/>
<path d="M179.5 108.69L174.071 110.996L177.245 114.685H181.755L184.929 110.996L179.5 108.69Z" fill="#282C3A"/>
<path d="M181.755 114.685H179.5H177.245L174.071 137.491H184.929L181.755 114.685Z" fill="#282C3A"/>
<path d="M200.102 129.89H192.153C191.625 129.89 191.197 129.462 191.197 128.934V124.7C191.197 124.172 191.625 123.744 192.153 123.744H200.102C200.63 123.744 201.058 124.172 201.058 124.7V128.934C201.058 129.462 200.63 129.89 200.102 129.89Z" fill="#76A5BC"/>
<path d="M166.847 129.89H158.899C158.37 129.89 157.942 129.462 157.942 128.934V124.7C157.942 124.172 158.37 123.744 158.899 123.744H166.847C167.375 123.744 167.803 124.172 167.803 124.7V128.934C167.803 129.462 167.375 129.89 166.847 129.89Z" fill="#76A5BC"/>
<path d="M144.415 112.277C145.906 113.479 148.088 113.245 149.29 111.755L150.932 109.717C152.134 108.227 151.9 106.045 150.409 104.843L149.232 103.893C146.413 105.569 144.189 108.06 142.832 111.001L144.415 112.277Z" fill="#FFBF14"/>
<path d="M216.167 111.001C214.809 108.06 212.586 105.569 209.767 103.893L208.59 104.843C207.099 106.045 206.865 108.227 208.067 109.717L209.709 111.755C210.911 113.245 213.093 113.479 214.584 112.277L216.167 111.001Z" fill="#EAA200"/>
<path d="M216.616 108.632C216.604 108.612 216.593 108.592 216.581 108.573C216.494 108.431 216.405 108.291 216.315 108.152C216.265 108.075 216.215 107.998 216.163 107.922C216.101 107.83 216.039 107.738 215.974 107.647C215.892 107.528 215.807 107.411 215.722 107.295C215.696 107.26 215.673 107.225 215.647 107.191C215.629 107.166 215.609 107.143 215.591 107.119C215.488 106.982 215.383 106.848 215.276 106.714C215.239 106.668 215.202 106.621 215.164 106.575C215.058 106.445 214.949 106.317 214.839 106.19C214.793 106.137 214.748 106.084 214.701 106.032C214.61 105.928 214.515 105.827 214.421 105.726C214.351 105.65 214.282 105.574 214.21 105.5C214.157 105.445 214.101 105.391 214.047 105.336C211.964 103.227 209.396 101.687 206.506 100.836C206.457 100.822 206.406 100.81 206.355 100.8L192.716 98.2663C192.715 98.2663 192.716 98.2663 192.716 98.2663C192.692 98.2619 192.668 98.2607 192.643 98.2569C192.005 98.1531 191.353 98.2386 190.768 98.4948C190.293 97.9118 189.981 97.111 189.981 96.3711V93.9019C190.843 93.3515 191.68 92.7329 192.488 92.0372C195.867 89.1271 197.996 84.9264 198.455 80.3439C200.937 80.2292 202.92 78.1745 202.92 75.6651V72.147C202.92 70.7243 202.283 69.4078 201.21 68.5291V60.4416C206.141 58.0112 207.213 55.1777 207.213 53.1785C207.213 49.7481 204.018 45.4543 198.875 41.9724C195.58 39.742 188.681 36 179.5 36C170.318 36 163.42 39.742 160.125 41.9724C154.982 45.4541 151.787 49.7479 151.787 53.1785C151.787 55.1777 152.858 58.0112 157.79 60.4416V68.5291C156.717 69.4078 156.079 70.7243 156.079 72.147V75.6651C156.079 78.1745 158.062 80.2292 160.544 80.3439C161.003 84.9264 163.132 89.1273 166.512 92.0372C167.32 92.7329 168.157 93.3515 169.019 93.9019V96.3711C169.019 97.111 168.706 97.9117 168.231 98.4946C167.624 98.2285 166.944 98.1432 166.284 98.2663H166.284C166.284 98.2663 166.284 98.2663 166.284 98.2663L152.644 100.8C152.593 100.81 152.543 100.822 152.494 100.836C149.605 101.687 147.039 103.226 144.956 105.333C144.9 105.389 144.844 105.444 144.789 105.501C144.718 105.574 144.65 105.649 144.58 105.724C144.485 105.826 144.39 105.928 144.297 106.032C144.252 106.084 144.207 106.137 144.162 106.189C144.051 106.316 143.942 106.445 143.835 106.575C143.798 106.621 143.761 106.668 143.724 106.714C143.617 106.848 143.511 106.982 143.408 107.119C143.39 107.143 143.371 107.166 143.352 107.191C143.327 107.225 143.303 107.26 143.277 107.295C143.192 107.411 143.108 107.528 143.025 107.647C142.961 107.738 142.898 107.83 142.836 107.923C142.785 107.999 142.735 108.075 142.685 108.152C142.594 108.291 142.505 108.431 142.419 108.573C142.407 108.592 142.395 108.612 142.383 108.631C140.716 111.379 139.839 114.499 139.839 117.754V119.593C139.839 120.427 140.515 121.103 141.348 121.103C142.182 121.103 142.857 120.427 142.857 119.593V117.754C142.857 116.283 143.075 114.845 143.495 113.472C144.384 114.179 145.461 114.555 146.582 114.555C146.761 114.555 146.941 114.545 147.122 114.526C148.443 114.384 149.631 113.736 150.465 112.701L152.107 110.665C152.941 109.63 153.323 108.332 153.181 107.011C153.069 105.961 152.635 104.996 151.943 104.225C152.377 104.048 152.82 103.889 153.274 103.753L161.977 102.136L168.883 111.8C169.574 112.767 170.656 113.3 171.779 113.3C172.25 113.3 172.728 113.206 173.187 113.011L173.646 112.816L175.656 115.152L172.757 135.981H153.792V123.744C153.792 122.91 153.116 122.234 152.283 122.234C151.45 122.234 150.774 122.91 150.774 123.744V135.981H144.737C143.7 135.981 142.858 135.139 142.858 134.102V126.616C142.858 125.782 142.182 125.107 141.348 125.107C140.515 125.107 139.839 125.783 139.839 126.616V134.102C139.839 136.803 142.036 139 144.737 139H214.263C216.964 139 219.161 136.803 219.161 134.102V117.754C219.161 114.5 218.284 111.38 216.616 108.632ZM149.757 108.77L148.115 110.807C147.787 111.214 147.32 111.469 146.8 111.525C146.281 111.58 145.77 111.431 145.363 111.102L144.733 110.595C144.868 110.354 145.01 110.117 145.157 109.885C145.159 109.883 145.161 109.88 145.163 109.877C145.289 109.678 145.423 109.485 145.559 109.293C145.6 109.235 145.641 109.177 145.683 109.12C145.804 108.954 145.929 108.791 146.056 108.631C146.089 108.59 146.122 108.548 146.155 108.507C146.299 108.33 146.448 108.157 146.6 107.988C146.645 107.938 146.69 107.889 146.735 107.84C146.886 107.677 147.039 107.516 147.198 107.359C147.211 107.346 147.224 107.332 147.238 107.318C147.822 106.746 148.454 106.222 149.132 105.752L149.463 106.018C149.869 106.346 150.124 106.813 150.18 107.333C150.235 107.853 150.086 108.363 149.757 108.77ZM209.537 106.018L209.868 105.751C210.546 106.221 211.178 106.746 211.762 107.318C211.775 107.332 211.788 107.345 211.802 107.359C211.96 107.515 212.114 107.677 212.265 107.84C212.31 107.889 212.355 107.937 212.399 107.987C212.552 108.157 212.701 108.33 212.845 108.506C212.878 108.547 212.911 108.589 212.944 108.631C213.071 108.791 213.196 108.954 213.317 109.119C213.359 109.177 213.4 109.235 213.441 109.293C213.577 109.484 213.71 109.678 213.837 109.877C213.839 109.879 213.841 109.882 213.842 109.885C213.99 110.117 214.132 110.353 214.267 110.594L213.637 111.102C213.23 111.43 212.719 111.58 212.2 111.525C211.68 111.469 211.213 111.214 210.885 110.807L209.242 108.77C208.565 107.93 208.697 106.695 209.537 106.018ZM191.919 101.292C191.921 101.29 191.917 101.293 191.919 101.292C191.989 101.239 192.079 101.219 192.164 101.234L193.747 101.528L187.661 110.045C187.509 110.258 187.234 110.336 186.993 110.233L182.506 108.327C182.505 108.327 182.507 108.328 182.506 108.327L191.919 101.292ZM179.5 106.805L170.705 100.232C171.536 99.1412 172.037 97.7529 172.037 96.3711V95.4875C174.365 96.4628 176.853 96.9728 179.483 97.0022C179.489 97.0022 179.494 97.0022 179.5 97.0022C179.506 97.0022 179.511 97.0022 179.517 97.0022C182.147 96.9726 184.634 96.4626 186.962 95.4875V96.3711C186.962 97.7531 187.464 99.1412 188.295 100.232L179.5 106.805ZM182.437 111.578L181.063 113.176H177.937L176.562 111.578L179.5 110.33L182.437 111.578ZM157.79 57.0011C155.85 55.8054 154.805 54.4845 154.805 53.1783C154.805 50.4576 158.44 46.7581 161.817 44.472C164.826 42.4355 171.124 39.0186 179.5 39.0186C187.876 39.0186 194.174 42.4355 197.183 44.4722C200.56 46.7583 204.194 50.4578 204.194 53.1785C204.194 54.4845 203.149 55.8056 201.21 57.0013V54.2567C201.21 52.1253 199.767 50.2679 197.701 49.7398C193.794 48.7412 186.11 47.0659 178.555 47.0628C178.548 47.0628 178.542 47.0628 178.535 47.0628C171.993 47.0628 165.493 48.5034 161.191 49.7125C159.188 50.2754 157.79 52.1209 157.79 54.2004V57.0011ZM194.143 61.0791H197.484C197.481 61.0821 197.479 61.0851 197.477 61.0879C197.452 61.1151 197.425 61.1425 197.399 61.1696C197.345 61.2266 197.29 61.2835 197.231 61.3406C197.194 61.3762 197.155 61.4116 197.116 61.4472C197.064 61.4947 197.011 61.542 196.955 61.5895C196.903 61.6339 196.848 61.6782 196.793 61.7224C196.747 61.7595 196.7 61.7965 196.651 61.8335C196.581 61.887 196.508 61.9405 196.433 61.9936C196.397 62.0194 196.36 62.0453 196.323 62.0711C196.231 62.1342 196.137 62.1972 196.04 62.2598C196.019 62.2732 195.997 62.2865 195.976 62.3C195.349 62.6947 194.601 63.0755 193.747 63.4288C193.729 63.4362 193.713 63.4467 193.696 63.4547C190.462 64.7877 185.603 65.795 179.5 65.795C173.397 65.795 168.538 64.7877 165.304 63.4547C165.287 63.4467 165.271 63.4362 165.253 63.4288C164.399 63.0755 163.651 62.6947 163.024 62.3C163.003 62.2865 162.981 62.2732 162.961 62.2598C162.863 62.1972 162.769 62.1342 162.677 62.0711C162.64 62.0453 162.603 62.0196 162.567 61.9936C162.492 61.9405 162.419 61.887 162.349 61.8335C162.301 61.7965 162.254 61.7595 162.207 61.7224C162.152 61.6782 162.097 61.6339 162.045 61.5895C161.989 61.542 161.936 61.4947 161.884 61.4472C161.845 61.4116 161.806 61.3762 161.769 61.3406C161.71 61.2835 161.655 61.2266 161.601 61.1696C161.575 61.1425 161.548 61.1151 161.524 61.0879C161.521 61.0849 161.519 61.0819 161.516 61.0791H186.855C187.688 61.0791 188.364 60.4034 188.364 59.5699C188.364 58.7362 187.688 58.0607 186.855 58.0607H160.808V54.2006C160.808 53.4676 161.301 52.817 162.008 52.6186C166.127 51.4607 172.336 50.0814 178.535 50.0814C178.541 50.0814 178.548 50.0814 178.553 50.0814C185.779 50.0844 193.183 51.7009 196.954 52.6645C197.682 52.8506 198.191 53.5054 198.191 54.2567V58.0605H194.143C193.31 58.0605 192.634 58.7362 192.634 59.5697C192.634 60.4036 193.31 61.0791 194.143 61.0791ZM198.191 64.4552V67.962C197.503 68.0857 196.663 68.3173 195.833 68.7474V65.807C196.765 65.3695 197.543 64.9152 198.191 64.4552ZM163.167 65.8072V68.7476C162.337 68.3175 161.497 68.0861 160.809 67.9624V64.4552C161.456 64.9152 162.234 65.3695 163.167 65.8072ZM168.482 89.7497C165.391 87.0884 163.565 83.1 163.473 78.8072C163.455 77.9866 162.785 77.3304 161.964 77.3304H160.763C159.845 77.3304 159.098 76.5834 159.098 75.6651V72.147C159.098 71.6406 159.326 71.1715 159.71 70.8589C160.242 70.9059 161.236 71.0655 162.078 71.6006C162.087 71.606 162.095 71.6112 162.103 71.6167C162.222 71.6935 162.338 71.7782 162.449 71.871C162.461 71.8816 162.474 71.8925 162.487 71.9035C162.541 71.95 162.594 71.9979 162.645 72.0486C162.69 72.0928 162.737 72.1341 162.785 72.1735C162.799 72.1852 162.813 72.196 162.827 72.2073C162.864 72.2357 162.9 72.2626 162.938 72.2882C162.953 72.2982 162.967 72.3085 162.982 72.3182C163.034 72.3512 163.085 72.3823 163.139 72.4103C163.139 72.4105 163.139 72.4107 163.139 72.4109C163.194 72.4393 163.249 72.4646 163.305 72.488C163.32 72.4944 163.336 72.5002 163.352 72.5063C163.394 72.523 163.437 72.538 163.481 72.5517C163.497 72.557 163.513 72.5622 163.53 72.5668C163.587 72.5833 163.644 72.5978 163.702 72.6093C163.703 72.6095 163.704 72.6097 163.705 72.6099C163.764 72.6215 163.824 72.6298 163.885 72.6362C163.901 72.638 163.917 72.639 163.933 72.6402C163.979 72.6441 164.025 72.6463 164.071 72.6469C164.081 72.6471 164.092 72.6483 164.102 72.6483C164.109 72.6483 164.115 72.6473 164.122 72.6473C164.181 72.6467 164.241 72.6443 164.301 72.6386C164.302 72.6384 164.304 72.6384 164.305 72.6384C164.366 72.6324 164.427 72.6229 164.488 72.6113C164.505 72.6081 164.522 72.604 164.539 72.6004C164.584 72.5905 164.629 72.5793 164.674 72.5666C164.692 72.5616 164.709 72.5568 164.727 72.5511C164.787 72.5322 164.846 72.5117 164.904 72.4873C165.682 72.1625 166.185 71.4085 166.185 70.566V66.9565C170.071 68.1805 174.85 68.8133 179.5 68.8133C184.15 68.8133 188.928 68.1805 192.815 66.9565V70.566C192.815 71.4085 193.317 72.1627 194.096 72.4873C194.154 72.5119 194.214 72.5326 194.274 72.5515C194.29 72.5568 194.307 72.5614 194.324 72.5664C194.37 72.5795 194.416 72.5912 194.462 72.601C194.479 72.6044 194.495 72.6083 194.511 72.6113C194.633 72.6346 194.756 72.6465 194.879 72.6475C194.885 72.6475 194.892 72.6485 194.898 72.6485C194.907 72.6485 194.917 72.6473 194.927 72.6471C194.974 72.6465 195.021 72.6441 195.068 72.6402C195.084 72.639 195.099 72.638 195.114 72.6364C195.235 72.6237 195.354 72.6004 195.471 72.5666C195.487 72.562 195.503 72.557 195.518 72.5519C195.562 72.5382 195.606 72.5228 195.649 72.5061C195.664 72.5 195.68 72.4942 195.695 72.4878C195.751 72.4644 195.807 72.4391 195.861 72.4107C195.861 72.4105 195.862 72.4103 195.862 72.4101C195.915 72.3821 195.967 72.351 196.018 72.3182C196.033 72.3085 196.047 72.298 196.063 72.288C196.1 72.2624 196.137 72.2355 196.173 72.2073C196.187 72.196 196.202 72.185 196.216 72.1733C196.264 72.1337 196.311 72.0926 196.355 72.0484C196.406 71.9981 196.459 71.9508 196.512 71.9048C196.526 71.8927 196.54 71.8808 196.554 71.8689C196.604 71.8275 196.654 71.7875 196.705 71.7494C196.71 71.7458 196.714 71.7422 196.719 71.7386C196.775 71.6977 196.831 71.6595 196.888 71.6223C196.903 71.6123 196.919 71.6026 196.934 71.5927C196.985 71.5608 197.037 71.5298 197.089 71.5004C197.096 71.4962 197.103 71.4915 197.111 71.4873C197.17 71.4545 197.229 71.4235 197.289 71.394C197.304 71.3865 197.319 71.3795 197.334 71.3723C197.387 71.3465 197.441 71.3216 197.495 71.2982C197.502 71.295 197.509 71.2916 197.517 71.2884C197.579 71.2618 197.641 71.2371 197.703 71.2135C197.714 71.2093 197.724 71.2053 197.736 71.2013C197.794 71.1793 197.853 71.1586 197.911 71.1393C197.914 71.1383 197.918 71.1371 197.921 71.1361C197.986 71.1146 198.051 71.0946 198.115 71.0761C198.118 71.0755 198.12 71.0747 198.123 71.0741C198.582 70.9421 199.004 70.884 199.29 70.8585C199.674 71.1713 199.903 71.6402 199.903 72.1468V75.6649C199.903 76.5832 199.155 77.3302 198.237 77.3302H197.036C196.215 77.3302 195.545 77.9864 195.528 78.807C195.436 83.0998 193.61 87.0882 190.519 89.7495C187.314 92.5094 183.607 93.9339 179.501 93.9834C175.394 93.9341 171.687 92.5098 168.482 89.7497ZM176.493 108.327C176.492 108.328 176.494 108.327 176.493 108.327L172.006 110.233C171.765 110.335 171.49 110.258 171.338 110.045L165.252 101.529L166.835 101.234C166.921 101.219 167.011 101.239 167.081 101.292C167.083 101.293 167.079 101.29 167.081 101.292L176.493 108.327ZM175.805 135.981L178.558 116.195H180.441L183.195 135.981H175.805ZM216.142 134.102C216.142 135.139 215.299 135.981 214.263 135.981H208.226V123.744C208.226 122.91 207.551 122.234 206.717 122.234C205.884 122.234 205.208 122.91 205.208 123.744V135.981H186.243L183.344 115.152L185.354 112.816L185.813 113.011C186.272 113.206 186.75 113.3 187.221 113.3C188.343 113.3 189.426 112.767 190.117 111.8L197.023 102.136L205.726 103.753C206.18 103.889 206.623 104.048 207.057 104.225C205.461 106.008 205.342 108.742 206.892 110.664L208.535 112.701C209.369 113.736 210.556 114.384 211.878 114.525C212.058 114.545 212.238 114.555 212.418 114.555C213.538 114.555 214.616 114.178 215.504 113.472C215.924 114.845 216.142 116.283 216.142 117.754V134.102H216.142Z" fill="black"/>
<path d="M200.101 122.234H192.153C190.794 122.234 189.688 123.34 189.688 124.7V128.934C189.688 130.294 190.794 131.4 192.153 131.4H200.101C201.461 131.4 202.567 130.294 202.567 128.934V124.7C202.567 123.34 201.46 122.234 200.101 122.234ZM199.548 128.381H192.706V125.253H199.548V128.381Z" fill="black"/>
<path d="M166.847 131.4C168.207 131.4 169.313 130.294 169.313 128.934V124.7C169.313 123.34 168.207 122.234 166.847 122.234H158.899C157.539 122.234 156.434 123.34 156.434 124.7V128.934C156.434 130.294 157.54 131.4 158.899 131.4H166.847ZM159.452 125.253H166.294V128.381H159.452V125.253Z" fill="black"/>
</svg>
