<svg width="350" height="234" viewBox="0 0 350 234" fill="none" xmlns="http://www.w3.org/2000/svg">
<rect width="350" height="234" rx="28" fill="#0A8996"/>
<path d="M152.545 191.68C152.431 191.282 152.27 190.931 152.064 190.626C151.857 190.316 151.603 190.054 151.304 189.842C151.01 189.624 150.672 189.458 150.291 189.344C149.915 189.229 149.499 189.172 149.042 189.172C148.187 189.172 147.435 189.385 146.787 189.809C146.145 190.234 145.644 190.852 145.284 191.663C144.925 192.469 144.745 193.455 144.745 194.62C144.745 195.785 144.922 196.776 145.276 197.593C145.63 198.41 146.131 199.033 146.779 199.463C147.427 199.888 148.192 200.1 149.074 200.1C149.875 200.1 150.558 199.959 151.124 199.676C151.696 199.387 152.132 198.982 152.431 198.459C152.736 197.936 152.888 197.318 152.888 196.605L153.607 196.711H149.295V194.048H156.294V196.156C156.294 197.626 155.984 198.889 155.363 199.945C154.743 200.996 153.888 201.808 152.799 202.379C151.71 202.946 150.463 203.229 149.058 203.229C147.49 203.229 146.112 202.883 144.925 202.191C143.738 201.494 142.812 200.506 142.148 199.227C141.489 197.942 141.16 196.417 141.16 194.653C141.16 193.297 141.356 192.088 141.748 191.026C142.145 189.959 142.701 189.055 143.414 188.315C144.127 187.574 144.958 187.011 145.905 186.624C146.853 186.237 147.879 186.044 148.984 186.044C149.932 186.044 150.814 186.183 151.631 186.461C152.447 186.733 153.172 187.119 153.803 187.62C154.44 188.121 154.96 188.718 155.363 189.409C155.766 190.095 156.025 190.852 156.139 191.68H152.545ZM166.931 197.658V190.455H170.41V203H167.07V200.721H166.939C166.656 201.456 166.185 202.047 165.526 202.494C164.872 202.94 164.075 203.163 163.133 203.163C162.294 203.163 161.556 202.973 160.919 202.592C160.282 202.21 159.784 201.669 159.425 200.966C159.071 200.264 158.891 199.423 158.886 198.442V190.455H162.365V197.822C162.37 198.562 162.569 199.148 162.961 199.578C163.353 200.008 163.879 200.223 164.538 200.223C164.957 200.223 165.349 200.128 165.714 199.937C166.079 199.741 166.373 199.453 166.596 199.071C166.824 198.69 166.936 198.219 166.931 197.658ZM178.911 203.245C177.62 203.245 176.509 202.984 175.578 202.461C174.652 201.933 173.939 201.187 173.438 200.223C172.937 199.254 172.687 198.108 172.687 196.784C172.687 195.494 172.937 194.361 173.438 193.387C173.939 192.412 174.644 191.652 175.554 191.108C176.468 190.563 177.541 190.291 178.772 190.291C179.599 190.291 180.37 190.425 181.083 190.691C181.802 190.953 182.428 191.348 182.962 191.876C183.501 192.404 183.92 193.068 184.219 193.869C184.519 194.664 184.669 195.595 184.669 196.662V197.618H174.075V195.461H181.393C181.393 194.96 181.285 194.517 181.067 194.13C180.849 193.743 180.547 193.441 180.16 193.223C179.779 193 179.335 192.888 178.829 192.888C178.301 192.888 177.832 193.011 177.424 193.256C177.021 193.496 176.705 193.82 176.477 194.228C176.248 194.631 176.131 195.08 176.125 195.576V197.626C176.125 198.246 176.24 198.783 176.468 199.235C176.703 199.687 177.032 200.035 177.457 200.28C177.881 200.525 178.385 200.648 178.968 200.648C179.354 200.648 179.708 200.593 180.029 200.484C180.351 200.375 180.626 200.212 180.854 199.994C181.083 199.777 181.257 199.51 181.377 199.194L184.595 199.406C184.432 200.179 184.097 200.855 183.591 201.432C183.09 202.004 182.442 202.45 181.647 202.771C180.857 203.087 179.945 203.245 178.911 203.245ZM197.377 194.032L194.192 194.228C194.138 193.956 194.021 193.711 193.841 193.493C193.661 193.27 193.424 193.093 193.13 192.962C192.842 192.826 192.496 192.758 192.093 192.758C191.554 192.758 191.099 192.872 190.729 193.101C190.359 193.324 190.174 193.624 190.174 193.999C190.174 194.299 190.293 194.552 190.533 194.759C190.773 194.966 191.184 195.132 191.766 195.257L194.037 195.714C195.257 195.965 196.166 196.368 196.765 196.923C197.364 197.479 197.663 198.208 197.663 199.112C197.663 199.934 197.421 200.656 196.936 201.277C196.457 201.897 195.798 202.382 194.96 202.73C194.127 203.074 193.166 203.245 192.077 203.245C190.416 203.245 189.093 202.899 188.107 202.208C187.127 201.511 186.553 200.563 186.384 199.365L189.806 199.186C189.91 199.692 190.16 200.079 190.558 200.346C190.955 200.607 191.464 200.738 192.085 200.738C192.695 200.738 193.185 200.621 193.555 200.386C193.931 200.147 194.121 199.839 194.127 199.463C194.121 199.148 193.988 198.889 193.727 198.688C193.465 198.481 193.062 198.323 192.518 198.214L190.345 197.781C189.12 197.536 188.208 197.111 187.609 196.507C187.016 195.902 186.719 195.132 186.719 194.195C186.719 193.389 186.937 192.695 187.372 192.113C187.813 191.53 188.431 191.081 189.226 190.765C190.027 190.449 190.963 190.291 192.036 190.291C193.62 190.291 194.867 190.626 195.777 191.296C196.691 191.966 197.225 192.878 197.377 194.032ZM206.527 190.455V193.068H198.972V190.455H206.527ZM200.687 187.449H204.167V199.145C204.167 199.466 204.216 199.717 204.314 199.896C204.412 200.071 204.548 200.193 204.722 200.264C204.902 200.335 205.109 200.37 205.343 200.37C205.506 200.37 205.67 200.356 205.833 200.329C205.996 200.297 206.122 200.272 206.209 200.256L206.756 202.845C206.582 202.899 206.337 202.962 206.021 203.033C205.705 203.109 205.321 203.155 204.869 203.172C204.031 203.204 203.296 203.093 202.664 202.837C202.038 202.581 201.55 202.183 201.202 201.644C200.853 201.105 200.682 200.424 200.687 199.602V187.449Z" fill="white"/>
<circle cx="179.5" cy="93.5" r="70.5" fill="white"/>
<path d="M198.574 69.3751C198.574 78.628 198.595 83.5096 193.496 91.5636C192.102 88.6398 185.824 87.7563 185.824 87.7563C185.858 87.7396 185.896 87.719 185.929 87.7023C190.307 85.4214 193.496 80.9379 193.496 75.3762V73.7337C193.496 70.6437 191.226 68.0062 188.129 67.5002L167.973 64.2033C166.506 63.9626 165.175 65.0785 165.175 66.5382V75.3762C165.175 80.9668 168.517 85.5582 172.704 87.7107C172.708 87.7107 172.708 87.7107 172.708 87.7107C172.763 87.7396 172.809 87.7602 172.847 87.7769C172.847 87.7769 166.502 88.7766 165.175 91.5636C160.087 83.525 160.098 78.6597 160.098 69.3751C160.098 58.9806 168.552 50.5538 179.336 50.4341C190.126 50.5538 198.574 58.9862 198.574 69.3751Z" fill="#7D7B79"/>
<path d="M193.271 74.6059V76.2507C193.271 81.8204 189.984 86.3103 185.472 88.5945C185.437 88.6112 185.398 88.6319 185.363 88.6485C181.377 90.6298 176.449 90.8915 171.989 88.6692C171.95 88.6525 171.902 88.6319 171.846 88.6029C171.846 88.6029 171.846 88.6029 171.842 88.6029C167.525 86.4473 164.082 81.8494 164.082 76.2507V67.3997C164.082 65.9378 165.454 64.8203 166.965 65.0614L187.739 68.3631C190.93 68.8698 193.271 71.5115 193.271 74.6059Z" fill="#FFB69F"/>
<path d="M161.423 132.726L161.125 133.877L160.404 136.674H150.809L151.11 133.877L152.011 125.479L152.081 120.752H159.726L161.423 132.726Z" fill="#FFB69F"/>
<path d="M206.532 136.674H196.937L196.215 133.877L195.918 132.726L197.615 120.752H205.259L205.329 125.479L206.23 133.877L206.532 136.674Z" fill="#FFB69F"/>
<path d="M187.515 95.1761C186.058 94.6006 185.097 93.2144 185.097 91.6864V88.9102C181.264 90.8435 176.526 91.0989 172.238 88.9303V91.6864C172.238 93.2144 171.278 94.6006 169.82 95.1761C168.209 95.8194 169.039 95.4908 166.727 96.3999C166.727 103.752 172.68 107.444 178.667 107.485C184.655 107.444 190.608 103.752 190.608 96.3999C188.28 95.485 189.209 95.8523 187.515 95.1761Z" fill="#FFB69F"/>
<path d="M185.311 91.7023C181.164 93.2286 176.416 93.3371 172.043 91.7204C172.047 91.648 172.051 91.5757 172.051 91.5034V88.9319C176.47 90.9536 181.353 90.7149 185.302 88.9102V91.5034C185.302 91.5721 185.306 91.6372 185.311 91.7023Z" fill="#E98E7B"/>
<path d="M205.211 120.728L205.007 105.435C204.975 102.89 203.399 100.614 201.006 99.6453C195.82 97.5446 199.919 99.1971 194.879 97.1645C193.915 96.7763 192.616 96.2522 190.853 95.5439C190.853 103.138 184.78 106.948 178.678 106.992C172.572 106.948 166.498 103.138 166.498 95.5439C164.491 96.3562 163.294 96.8364 162.472 97.1685C160.4 98.0048 160.681 97.8887 156.346 99.6453C153.952 100.614 152.377 102.89 152.344 105.435L152.141 120.728H159.256L160.836 132.72L160.559 133.873L159.887 136.673H197.464L196.793 133.873L196.516 132.72L198.095 120.728H205.211Z" fill="#FC5D3D"/>
<path d="M197.247 136.673H160.098L160.762 134.02H196.583L197.247 136.673Z" fill="#B14E34"/>
<path d="M198.02 121.145L196.425 132.824L196.704 133.946L197.383 136.674H185.703L185.551 133.946L185.333 129.952C185.201 127.575 185.534 125.194 186.307 122.926L194.772 98.1975C199.862 100.177 195.722 98.5677 200.959 100.613C203.377 101.556 204.968 103.774 205.001 106.252L205.206 121.145H198.02Z" fill="#71C1E8"/>
<path d="M172.059 130.374L171.846 134.49L171.697 137.301H160.283L160.946 134.49L161.219 133.333L159.661 121.297H152.641L152.841 105.947C152.874 103.393 154.428 101.108 156.789 100.136C161.066 98.373 160.789 98.4895 162.834 97.6501L171.103 123.133C171.862 125.47 172.187 127.924 172.059 130.374Z" fill="#71C1E8"/>
<path d="M160.782 134.02H172.038L171.885 136.673H160.098L160.782 134.02Z" fill="#4BA4C7"/>
<path d="M197.246 136.673H185.458L185.305 134.02H196.561L197.246 136.673Z" fill="#4BA4C7"/>
<path d="M151.119 134.02H161.423L160.68 136.673H150.809L151.119 134.02Z" fill="#E98E7B"/>
<path d="M206.533 136.673H197.896L197.246 134.02H206.262L206.533 136.673Z" fill="#E98E7B"/>
<path d="M192.827 132.685C192.273 132.615 191.882 132.121 191.954 131.581L192.11 130.408C192.182 129.868 192.688 129.486 193.242 129.557C193.796 129.627 194.187 130.121 194.115 130.661L193.96 131.834C193.888 132.375 193.378 132.755 192.827 132.685ZM193.502 127.602C192.948 127.532 192.557 127.038 192.629 126.497L193.739 118.141C193.879 117.089 193.925 116.086 193.893 115.085L193.725 109.828C193.708 109.284 194.146 108.829 194.704 108.812C195.262 108.797 195.729 109.222 195.747 109.766L195.915 115.023C195.951 116.138 195.896 117.258 195.745 118.394L194.635 126.751C194.563 127.291 194.056 127.672 193.502 127.602Z" fill="#C4E4FD"/>
<path d="M163.674 92.4147C163.949 92.8841 164.522 93.0349 164.963 92.7373C165.401 92.4429 165.535 91.8178 165.262 91.346C161.902 85.52 160.259 80.6493 160.704 68.7226C160.719 68.1661 160.312 67.7023 159.8 67.6821C159.789 67.6821 159.777 67.6821 159.77 67.6821C159.262 67.6821 158.851 68.1136 158.836 68.658C158.402 81.0005 160.11 86.2475 163.674 92.4147Z" fill="black"/>
<path d="M160.664 61.8694C161.146 62.103 161.773 61.8855 162.006 61.4023C165.04 55.1441 171.312 51.2056 178.377 51.121C188.235 51.2418 196.564 58.835 196.564 69.5774C196.564 74.0717 196.569 77.6236 195.942 80.9702C195.287 84.4537 194.005 87.5586 191.654 91.3481C191.367 91.8052 191.484 92.4266 191.975 92.7375C192.41 93.0162 193.042 92.9171 193.358 92.4153C195.821 88.4526 197.227 85.0376 197.915 81.3407C198.574 77.8089 198.574 74.1804 198.574 69.5895C198.574 57.384 188.815 49.1074 178.37 49.1074C170.351 49.1984 163.47 53.77 160.197 60.5244C159.972 60.9935 160.129 61.6008 160.664 61.8694Z" fill="black"/>
<path d="M159.78 66.3148C160.523 66.4996 161.218 66.0329 161.384 65.3433C161.559 64.633 161.13 63.9169 160.413 63.7401C159.712 63.5649 158.984 64.0108 158.808 64.7063V64.7116C158.633 65.4229 159.069 66.1396 159.78 66.3148Z" fill="black"/>
<path d="M173.437 80.7298C174.251 82.4686 176.354 83.6031 178.678 83.6031C181.018 83.6031 183.1 82.459 183.918 80.7331C184.121 80.312 183.848 79.8302 183.31 79.672C182.781 79.5172 182.164 79.7412 181.969 80.1531C181.457 81.2306 180.136 81.9555 178.678 81.9555C177.215 81.9555 175.895 81.2306 175.387 80.1564C175.195 79.7445 174.579 79.5172 174.05 79.672C173.527 79.8233 173.236 80.2862 173.433 80.7265L173.437 80.7298Z" fill="black"/>
<path d="M173.368 72.9085V71.7431C173.368 70.9657 172.775 70.3357 172.042 70.3357C171.309 70.3357 170.715 70.9657 170.715 71.7431V72.9085C170.715 73.686 171.309 74.316 172.042 74.316C172.775 74.316 173.368 73.686 173.368 72.9085Z" fill="black"/>
<path d="M185.311 74.316C186.044 74.316 186.638 73.686 186.638 72.9085V71.7431C186.638 70.9657 186.044 70.3357 185.311 70.3357C184.578 70.3357 183.984 70.9657 183.984 71.7431V72.9085C183.984 73.686 184.578 74.316 185.311 74.316Z" fill="black"/>
<path d="M178.671 78.2959C179.403 78.2959 179.997 77.782 179.997 77.1478V72.8102C179.997 72.176 179.403 71.6621 178.671 71.6621C177.938 71.6621 177.344 72.176 177.344 72.8102V77.1478C177.344 77.782 177.938 78.2959 178.671 78.2959Z" fill="black"/>
<path d="M214.492 137.339C214.492 137.703 215.087 138 215.819 138C216.551 138 217.146 137.703 217.146 137.339C217.146 136.973 216.551 136.673 215.819 136.673C215.087 136.673 214.492 136.973 214.492 137.339Z" fill="black"/>
<path d="M143.856 138C150.521 138 205.803 138 212.165 138C212.72 138 213.17 137.554 213.17 137.009C213.17 136.459 212.72 136.009 212.165 136.009H207.113L206.101 125.792C206.013 119.353 206.081 124.423 205.837 105.907C205.8 102.972 204.004 100.352 201.264 99.237C192.081 95.4837 188.128 93.8974 188.128 93.8974C188.124 93.8974 188.124 93.8974 188.124 93.8974C187.04 93.4594 186.316 92.3922 186.316 91.2335V88.9623C191.047 86.2853 193.97 81.3478 193.97 75.9492V74.3003C193.97 70.6947 191.365 67.6494 187.776 67.0589L167.672 63.7484C165.594 63.4063 163.712 64.9963 163.712 67.0748V75.9492C163.712 81.3259 166.705 86.3908 171.365 88.9933V91.2335C171.365 92.3922 170.637 93.4594 169.557 93.8974C167.427 94.769 163.957 96.1523 156.417 99.237C153.677 100.352 151.881 102.972 151.845 105.907C151.6 124.468 151.668 119.323 151.58 125.792L150.568 136.009H143.856C143.302 136.009 142.852 136.459 142.852 137.009C142.852 137.554 143.302 138 143.856 138ZM161.564 136.009L162.207 133.298C162.235 133.182 162.243 133.059 162.227 132.943L160.671 121.029C160.67 121.023 160.671 121.017 160.67 121.01L160.333 118.427C160.176 117.232 160.108 115.888 160.148 114.739L160.35 108.372C160.367 107.822 159.932 107.363 159.377 107.346C158.83 107.327 158.359 107.76 158.342 108.309L158.14 114.674C158.097 115.925 158.17 117.387 158.341 118.683L158.531 120.142H153.664L153.853 105.931C153.881 103.797 155.187 101.893 157.18 101.077C158.954 100.354 161.805 99.1889 162.223 99.0224L170.163 123.264C170.786 125.155 171.099 127.122 171.099 129.101C171.099 129.709 171.11 129.338 170.762 136.01H161.564V136.009ZM198.18 136.009L197.471 133.019L198.893 122.133H204.042L204.093 125.861C204.093 125.889 204.095 125.917 204.098 125.945L205.094 136.009H198.18ZM165.721 75.9492V67.0748C165.721 66.2227 166.493 65.5729 167.342 65.7122L187.447 69.0231C190.062 69.4536 191.961 71.6727 191.961 74.3003V75.9492C191.961 83.762 185.434 88.9758 178.79 88.9758C171.676 88.9758 165.721 83.1515 165.721 75.9492ZM170.319 95.737C172.172 94.9884 173.374 93.2205 173.374 91.2335V89.9474C175.018 90.5869 176.91 90.9787 178.809 90.9787C180.665 90.9787 182.522 90.6235 184.304 89.9247C184.305 89.9243 184.306 89.9239 184.307 89.9235V91.2335C184.311 93.2205 185.509 94.9884 187.369 95.741C189.045 96.4282 188.302 96.1224 189.836 96.7404C189.514 102.917 184.555 106.437 178.838 106.468C173.144 106.437 168.167 102.922 167.845 96.7404C169.836 95.9393 168.623 96.427 170.319 95.737ZM165.888 97.5328C166.591 104.456 172.362 108.41 178.834 108.463H178.85C185.333 108.41 191.095 104.452 191.794 97.5292L193.591 98.2583L188.634 113.393C188.466 113.927 188.759 114.474 189.281 114.647C189.805 114.812 190.371 114.539 190.547 114.006L195.456 99.016C197.621 99.8956 197.353 99.7937 200.5 101.077C202.493 101.893 203.799 103.797 203.827 105.931L204.016 120.142H199.15L199.34 118.685C199.515 117.362 199.581 116.013 199.537 114.677L199.336 108.309C199.318 107.76 198.843 107.327 198.3 107.346C197.746 107.363 197.31 107.822 197.327 108.372L197.529 114.74C197.57 115.97 197.508 117.21 197.348 118.428C196.602 124.157 197.606 116.463 195.453 132.943C195.437 133.059 195.445 133.182 195.473 133.302L196.116 136.009C185.64 136.009 192.736 136.009 186.925 136.009C186.587 129.675 186.585 129.813 186.585 129.101C186.585 127.122 186.898 125.155 187.517 123.264L188.068 121.583C188.237 121.062 187.947 120.5 187.421 120.329C186.898 120.162 186.324 120.456 186.155 120.966L185.605 122.65C184.922 124.741 184.576 126.911 184.576 129.101C184.576 129.834 184.571 129.562 184.911 136.009C179.445 136.009 178.241 136.009 172.774 136.009C173.094 129.933 173.108 129.819 173.108 129.101C173.108 126.911 172.759 124.741 172.076 122.65L164.09 98.2631C164.09 98.2631 164.07 98.2706 165.888 97.5328ZM153.583 125.945C153.586 125.917 153.588 125.889 153.588 125.861L153.639 122.133H158.788L160.21 133.019L159.5 136.009H152.587L153.583 125.945Z" fill="black"/>
<path d="M188.419 118.066C188.805 118.186 189.152 117.964 189.255 117.641C189.369 117.293 189.178 116.915 188.83 116.804C188.485 116.692 188.102 116.889 187.994 117.229C187.883 117.568 188.063 117.953 188.419 118.066Z" fill="black"/>
</svg>
