<svg width="350" height="234" viewBox="0 0 350 234" fill="none" xmlns="http://www.w3.org/2000/svg">
<rect width="350" height="234" rx="28" fill="#0A8996"/>
<path d="M132.99 186.273V203H129.454V186.273H132.99ZM139.314 195.747V203H135.835V190.455H139.151V192.668H139.298C139.576 191.938 140.041 191.361 140.695 190.936C141.348 190.506 142.14 190.291 143.071 190.291C143.943 190.291 144.702 190.482 145.35 190.863C145.998 191.244 146.502 191.789 146.861 192.496C147.22 193.199 147.4 194.037 147.4 195.012V203H143.921V195.633C143.926 194.865 143.73 194.266 143.333 193.836C142.935 193.4 142.388 193.183 141.691 193.183C141.223 193.183 140.809 193.283 140.449 193.485C140.096 193.686 139.818 193.98 139.616 194.367C139.42 194.748 139.32 195.208 139.314 195.747ZM157.959 194.751V197.511H150.33V194.751H157.959ZM176.36 194.636C176.36 196.46 176.015 198.012 175.323 199.292C174.637 200.571 173.701 201.549 172.513 202.224C171.332 202.894 170.003 203.229 168.528 203.229C167.041 203.229 165.707 202.891 164.526 202.216C163.344 201.541 162.41 200.563 161.724 199.284C161.038 198.004 160.695 196.455 160.695 194.636C160.695 192.812 161.038 191.26 161.724 189.981C162.41 188.701 163.344 187.727 164.526 187.057C165.707 186.382 167.041 186.044 168.528 186.044C170.003 186.044 171.332 186.382 172.513 187.057C173.701 187.727 174.637 188.701 175.323 189.981C176.015 191.26 176.36 192.812 176.36 194.636ZM172.775 194.636C172.775 193.455 172.598 192.458 172.244 191.647C171.895 190.836 171.403 190.22 170.766 189.801C170.129 189.382 169.383 189.172 168.528 189.172C167.673 189.172 166.927 189.382 166.29 189.801C165.653 190.22 165.157 190.836 164.803 191.647C164.455 192.458 164.281 193.455 164.281 194.636C164.281 195.818 164.455 196.814 164.803 197.626C165.157 198.437 165.653 199.052 166.29 199.472C166.927 199.891 167.673 200.1 168.528 200.1C169.383 200.1 170.129 199.891 170.766 199.472C171.403 199.052 171.895 198.437 172.244 197.626C172.598 196.814 172.775 195.818 172.775 194.636ZM186.96 197.658V190.455H190.439V203H187.099V200.721H186.968C186.685 201.456 186.214 202.047 185.555 202.494C184.902 202.94 184.104 203.163 183.162 203.163C182.323 203.163 181.586 202.973 180.949 202.592C180.312 202.21 179.813 201.669 179.454 200.966C179.1 200.264 178.92 199.423 178.915 198.442V190.455H182.394V197.822C182.4 198.562 182.598 199.148 182.991 199.578C183.383 200.008 183.908 200.223 184.567 200.223C184.986 200.223 185.378 200.128 185.743 199.937C186.108 199.741 186.402 199.453 186.625 199.071C186.854 198.69 186.965 198.219 186.96 197.658ZM199.895 190.455V193.068H192.34V190.455H199.895ZM194.056 187.449H197.535V199.145C197.535 199.466 197.584 199.717 197.682 199.896C197.78 200.071 197.916 200.193 198.09 200.264C198.27 200.335 198.477 200.37 198.711 200.37C198.874 200.37 199.038 200.356 199.201 200.329C199.365 200.297 199.49 200.272 199.577 200.256L200.124 202.845C199.95 202.899 199.705 202.962 199.389 203.033C199.073 203.109 198.689 203.155 198.237 203.172C197.399 203.204 196.664 203.093 196.032 202.837C195.406 202.581 194.919 202.183 194.57 201.644C194.222 201.105 194.05 200.424 194.056 199.602V187.449ZM207.551 203V186.273H211.03V192.562H211.136C211.289 192.224 211.509 191.881 211.798 191.533C212.092 191.179 212.473 190.885 212.941 190.651C213.415 190.411 214.003 190.291 214.705 190.291C215.62 190.291 216.464 190.531 217.237 191.01C218.011 191.484 218.629 192.2 219.091 193.158C219.554 194.111 219.786 195.306 219.786 196.744C219.786 198.143 219.56 199.325 219.108 200.288C218.661 201.247 218.051 201.974 217.278 202.469C216.51 202.959 215.65 203.204 214.697 203.204C214.022 203.204 213.448 203.093 212.974 202.869C212.506 202.646 212.122 202.366 211.822 202.028C211.523 201.685 211.294 201.339 211.136 200.991H210.981V203H207.551ZM210.956 196.727C210.956 197.473 211.06 198.124 211.267 198.679C211.474 199.235 211.773 199.668 212.165 199.978C212.557 200.283 213.034 200.435 213.595 200.435C214.161 200.435 214.64 200.28 215.032 199.97C215.424 199.654 215.721 199.218 215.922 198.663C216.129 198.102 216.233 197.457 216.233 196.727C216.233 196.003 216.132 195.366 215.93 194.816C215.729 194.266 215.432 193.836 215.04 193.526C214.648 193.215 214.166 193.06 213.595 193.06C213.028 193.06 212.549 193.21 212.157 193.509C211.77 193.809 211.474 194.233 211.267 194.783C211.06 195.333 210.956 195.981 210.956 196.727ZM227.776 203.245C226.507 203.245 225.41 202.975 224.484 202.436C223.564 201.892 222.853 201.135 222.352 200.166C221.851 199.191 221.601 198.061 221.601 196.776C221.601 195.48 221.851 194.348 222.352 193.379C222.853 192.404 223.564 191.647 224.484 191.108C225.41 190.563 226.507 190.291 227.776 190.291C229.044 190.291 230.139 190.563 231.059 191.108C231.985 191.647 232.698 192.404 233.199 193.379C233.7 194.348 233.95 195.48 233.95 196.776C233.95 198.061 233.7 199.191 233.199 200.166C232.698 201.135 231.985 201.892 231.059 202.436C230.139 202.975 229.044 203.245 227.776 203.245ZM227.792 200.55C228.369 200.55 228.851 200.386 229.238 200.06C229.624 199.728 229.915 199.276 230.112 198.704C230.313 198.132 230.414 197.481 230.414 196.752C230.414 196.022 230.313 195.371 230.112 194.8C229.915 194.228 229.624 193.776 229.238 193.444C228.851 193.112 228.369 192.946 227.792 192.946C227.209 192.946 226.719 193.112 226.322 193.444C225.93 193.776 225.633 194.228 225.431 194.8C225.235 195.371 225.137 196.022 225.137 196.752C225.137 197.481 225.235 198.132 225.431 198.704C225.633 199.276 225.93 199.728 226.322 200.06C226.719 200.386 227.209 200.55 227.792 200.55ZM241.881 203.245C240.612 203.245 239.515 202.975 238.589 202.436C237.669 201.892 236.959 201.135 236.458 200.166C235.957 199.191 235.706 198.061 235.706 196.776C235.706 195.48 235.957 194.348 236.458 193.379C236.959 192.404 237.669 191.647 238.589 191.108C239.515 190.563 240.612 190.291 241.881 190.291C243.15 190.291 244.244 190.563 245.164 191.108C246.09 191.647 246.803 192.404 247.304 193.379C247.805 194.348 248.056 195.48 248.056 196.776C248.056 198.061 247.805 199.191 247.304 200.166C246.803 201.135 246.09 201.892 245.164 202.436C244.244 202.975 243.15 203.245 241.881 203.245ZM241.897 200.55C242.475 200.55 242.956 200.386 243.343 200.06C243.73 199.728 244.021 199.276 244.217 198.704C244.418 198.132 244.519 197.481 244.519 196.752C244.519 196.022 244.418 195.371 244.217 194.8C244.021 194.228 243.73 193.776 243.343 193.444C242.956 193.112 242.475 192.946 241.897 192.946C241.315 192.946 240.825 193.112 240.427 193.444C240.035 193.776 239.738 194.228 239.537 194.8C239.341 195.371 239.243 196.022 239.243 196.752C239.243 197.481 239.341 198.132 239.537 198.704C239.738 199.276 240.035 199.728 240.427 200.06C240.825 200.386 241.315 200.55 241.897 200.55ZM253.471 199.39L253.479 195.216H253.985L258.004 190.455H261.998L256.599 196.76H255.774L253.471 199.39ZM250.318 203V186.273H253.798V203H250.318ZM258.159 203L254.467 197.536L256.787 195.077L262.235 203H258.159Z" fill="white"/>
<circle cx="179.5" cy="93.5" r="70.5" fill="white"/>
<path d="M209.192 52.1279V113.475L154.507 119.443L147.809 120.174V58.8263C147.809 56.9765 148.558 55.3012 149.77 54.089C150.982 52.8769 152.657 52.1279 154.507 52.1279H209.192Z" fill="#DA4A54"/>
<path d="M154.507 52.1279V119.443L147.809 120.174V58.8263C147.809 56.9765 148.558 55.3012 149.77 54.089C150.982 52.8769 152.657 52.1279 154.507 52.1279Z" fill="#C32430"/>
<path d="M209.192 113.476H154.507C150.807 113.476 147.809 116.474 147.809 120.174C147.809 123.873 150.807 126.872 154.507 126.872H209.192V113.476Z" fill="#C32430"/>
<path d="M154.509 123.112C152.888 123.112 151.57 121.794 151.57 120.174C151.57 118.554 152.888 117.235 154.509 117.235H209.194V123.112H154.509Z" fill="#DFEAEF"/>
<path d="M171.93 66.6506L167.061 61.6529L162.191 66.6506V52.1279H171.93V66.6506Z" fill="#F4DD45"/>
<path d="M193.161 70.8494H167.194C164.591 70.8494 162.48 72.9599 162.48 75.5634V89.9473C162.48 92.5507 164.591 94.6613 167.194 94.6613H193.161C195.765 94.6613 197.875 92.5507 197.875 89.9473V75.5634C197.875 72.9599 195.765 70.8494 193.161 70.8494Z" fill="#DFEAEF"/>
<path d="M210.319 61.9033C210.319 61.2804 209.814 60.7754 209.191 60.7754C208.568 60.7754 208.063 61.2804 208.063 61.9033V112.348H155.634V53.2559H161.061V66.6506C161.061 67.1094 161.339 67.5225 161.764 67.6955C162.189 67.8681 162.676 67.7664 162.996 67.4377L167.058 63.2693L171.12 67.4377C171.336 67.66 171.629 67.7786 171.928 67.7786C172.07 67.7786 172.215 67.7514 172.352 67.6955C172.777 67.5227 173.055 67.1095 173.055 66.6506V53.2559H208.063V57.3916C208.063 58.0145 208.568 58.5195 209.191 58.5195C209.814 58.5195 210.319 58.0145 210.319 57.3916V52.1279C210.319 51.505 209.814 51 209.191 51H154.506C152.415 51 150.449 51.8138 148.971 53.2915C147.494 54.7692 146.68 56.7348 146.68 58.8263V120.174C146.68 120.175 146.68 120.177 146.68 120.179C146.683 124.492 150.192 128 154.506 128H209.192C209.815 128 210.32 127.495 210.32 126.872L210.319 61.9033ZM170.799 53.2559V63.8767L167.866 60.8659C167.653 60.648 167.362 60.5251 167.058 60.5251C166.754 60.5251 166.462 60.648 166.25 60.8659L163.316 63.8767V53.2559H170.799ZM150.566 54.8865C151.347 54.1059 152.319 53.5863 153.378 53.37V112.43C151.651 112.681 150.106 113.496 148.936 114.684V58.8263C148.936 57.3373 149.515 55.9382 150.566 54.8865ZM154.506 125.744C151.434 125.744 148.936 123.245 148.936 120.174C148.936 117.103 151.434 114.604 154.506 114.604H208.064V116.107H162.639C162.016 116.107 161.511 116.612 161.511 117.235C161.511 117.858 162.016 118.363 162.639 118.363H208.063V121.984H154.506C153.508 121.984 152.695 121.172 152.695 120.174C152.695 119.175 153.508 118.363 154.506 118.363H158.127C158.75 118.363 159.255 117.858 159.255 117.235C159.255 116.612 158.75 116.107 158.127 116.107H154.506C152.264 116.107 150.439 117.931 150.439 120.174C150.439 122.416 152.264 124.24 154.506 124.24H208.064V125.744H154.506Z" fill="black"/>
<path d="M167.193 69.7214C163.972 69.7214 161.352 72.3421 161.352 75.5634V89.9475C161.352 93.1687 163.972 95.7894 167.193 95.7894H193.16C196.382 95.7894 199.002 93.1687 199.002 89.9475V75.5634C199.002 72.3421 196.382 69.7214 193.16 69.7214H167.193ZM196.746 75.5634V89.9475C196.746 91.9248 195.138 93.5335 193.16 93.5335H167.193C165.216 93.5335 163.607 91.9248 163.607 89.9475V75.5634C163.607 73.586 165.216 71.9773 167.193 71.9773H193.16C195.138 71.9773 196.746 73.586 196.746 75.5634Z" fill="black"/>
<path d="M190.769 78.6394H169.581C168.958 78.6394 168.453 79.1444 168.453 79.7673C168.453 80.3903 168.958 80.8953 169.581 80.8953H190.769C191.392 80.8953 191.897 80.3903 191.897 79.7673C191.897 79.1444 191.392 78.6394 190.769 78.6394Z" fill="black"/>
<path d="M190.769 84.6155H169.581C168.958 84.6155 168.453 85.1205 168.453 85.7434C168.453 86.3663 168.958 86.8713 169.581 86.8713H190.769C191.392 86.8713 191.897 86.3663 191.897 85.7434C191.897 85.1205 191.392 84.6155 190.769 84.6155Z" fill="black"/>
</svg>
