<svg width="222" height="261" viewBox="0 0 222 261" fill="none" xmlns="http://www.w3.org/2000/svg">
<path d="M33.6838 241.461C33.5158 241.461 33.3758 241.405 33.2638 241.293C33.1518 241.181 33.0958 241.041 33.0958 240.873C33.0958 240.761 33.1238 240.649 33.1798 240.537L39.4518 231.465L33.5718 222.785C33.5158 222.692 33.4878 222.58 33.4878 222.449C33.4878 222.281 33.5438 222.141 33.6558 222.029C33.7678 221.917 33.9078 221.861 34.0758 221.861H36.9318C37.2678 221.861 37.5571 222.039 37.7998 222.393L41.9158 228.441L46.0598 222.393C46.3025 222.039 46.5918 221.861 46.9278 221.861H49.6438C49.8118 221.861 49.9518 221.917 50.0638 222.029C50.1758 222.141 50.2318 222.281 50.2318 222.449C50.2318 222.58 50.1945 222.692 50.1198 222.785L44.2678 231.465L50.5398 240.537C50.6145 240.687 50.6518 240.799 50.6518 240.873C50.6518 241.041 50.5865 241.181 50.4558 241.293C50.3438 241.405 50.2131 241.461 50.0638 241.461H47.0958C46.7411 241.461 46.4611 241.293 46.2558 240.957L41.7758 234.629L37.3798 240.957C37.1371 241.293 36.8478 241.461 36.5118 241.461H33.6838ZM53.6789 246.781C53.4922 246.781 53.3335 246.716 53.2029 246.585C53.0722 246.473 53.0069 246.315 53.0069 246.109V227.573C53.0069 227.368 53.0722 227.209 53.2029 227.097C53.3335 226.967 53.4922 226.901 53.6789 226.901H55.8909C56.0962 226.901 56.2549 226.967 56.3669 227.097C56.4975 227.209 56.5629 227.368 56.5629 227.573V228.693C57.6082 227.312 59.1015 226.621 61.0429 226.621C62.9282 226.621 64.3749 227.219 65.3829 228.413C66.3909 229.589 66.9322 231.185 67.0069 233.201C67.0255 233.425 67.0349 233.752 67.0349 234.181C67.0349 234.629 67.0255 234.965 67.0069 235.189C66.9322 237.149 66.3909 238.736 65.3829 239.949C64.3749 241.144 62.9282 241.741 61.0429 241.741C59.1575 241.741 57.7202 241.079 56.7309 239.753V246.109C56.7309 246.315 56.6655 246.473 56.5349 246.585C56.4229 246.716 56.2642 246.781 56.0589 246.781H53.6789ZM60.0069 238.745C62.0229 238.745 63.0962 237.504 63.2269 235.021C63.2455 234.835 63.2549 234.555 63.2549 234.181C63.2549 233.808 63.2455 233.528 63.2269 233.341C63.0962 230.859 62.0229 229.617 60.0069 229.617C58.9242 229.617 58.1215 229.963 57.5989 230.653C57.0762 231.344 56.7869 232.193 56.7309 233.201L56.7029 234.265L56.7309 235.357C56.7682 236.291 57.0575 237.093 57.5989 237.765C58.1589 238.419 58.9615 238.745 60.0069 238.745ZM70.8501 241.461C70.6634 241.461 70.5047 241.396 70.3741 241.265C70.2434 241.135 70.1781 240.976 70.1781 240.789V227.601C70.1781 227.415 70.2434 227.256 70.3741 227.125C70.5047 226.976 70.6634 226.901 70.8501 226.901H73.1181C73.3234 226.901 73.4914 226.967 73.6221 227.097C73.7527 227.228 73.8181 227.396 73.8181 227.601V228.749C74.2661 228.152 74.8261 227.695 75.4981 227.377C76.1887 227.06 76.9727 226.901 77.8501 226.901H78.9981C79.2034 226.901 79.3621 226.967 79.4741 227.097C79.6047 227.209 79.6701 227.368 79.6701 227.573V229.589C79.6701 229.776 79.6047 229.935 79.4741 230.065C79.3621 230.196 79.2034 230.261 78.9981 230.261H76.8141C75.9367 230.261 75.2461 230.513 74.7421 231.017C74.2381 231.521 73.9861 232.212 73.9861 233.089V240.789C73.9861 240.976 73.9207 241.135 73.7901 241.265C73.6594 241.396 73.4914 241.461 73.2861 241.461H70.8501ZM87.9345 241.741C85.8625 241.741 84.2105 241.144 82.9785 239.949C81.7651 238.736 81.1211 237.037 81.0465 234.853L81.0185 234.153L81.0465 233.453C81.1398 231.325 81.7931 229.655 83.0065 228.441C84.2385 227.228 85.8811 226.621 87.9345 226.621C90.1371 226.621 91.8358 227.293 93.0305 228.637C94.2438 229.981 94.8505 231.773 94.8505 234.013V234.601C94.8505 234.788 94.7851 234.947 94.6545 235.077C94.5238 235.208 94.3558 235.273 94.1505 235.273H84.8545V235.497C84.8918 236.524 85.1718 237.392 85.6945 238.101C86.2358 238.792 86.9731 239.137 87.9065 239.137C89.0078 239.137 89.8945 238.708 90.5665 237.849C90.7345 237.644 90.8651 237.513 90.9585 237.457C91.0705 237.401 91.2291 237.373 91.4345 237.373H93.8425C94.0105 237.373 94.1505 237.429 94.2625 237.541C94.3931 237.635 94.4585 237.756 94.4585 237.905C94.4585 238.353 94.1878 238.885 93.6465 239.501C93.1238 240.099 92.3678 240.621 91.3785 241.069C90.3891 241.517 89.2411 241.741 87.9345 241.741ZM91.0425 232.921V232.837C91.0425 231.736 90.7625 230.849 90.2025 230.177C89.6611 229.505 88.9051 229.169 87.9345 229.169C86.9638 229.169 86.2078 229.505 85.6665 230.177C85.1251 230.849 84.8545 231.736 84.8545 232.837V232.921H91.0425ZM103.339 241.741C101.939 241.741 100.763 241.536 99.8106 241.125C98.8586 240.696 98.1493 240.201 97.6826 239.641C97.2346 239.063 97.0106 238.568 97.0106 238.157C97.0106 237.971 97.0759 237.821 97.2066 237.709C97.3373 237.597 97.4866 237.541 97.6546 237.541H99.8666C100.035 237.541 100.175 237.607 100.287 237.737C100.361 237.793 100.557 237.961 100.875 238.241C101.192 238.54 101.565 238.773 101.995 238.941C102.424 239.109 102.9 239.193 103.423 239.193C104.169 239.193 104.785 239.044 105.271 238.745C105.756 238.447 105.999 238.036 105.999 237.513C105.999 237.121 105.887 236.804 105.663 236.561C105.457 236.319 105.075 236.104 104.515 235.917C103.955 235.712 103.124 235.497 102.023 235.273C100.436 234.937 99.2599 234.424 98.4946 233.733C97.7479 233.043 97.3746 232.128 97.3746 230.989C97.3746 230.243 97.5986 229.543 98.0466 228.889C98.4946 228.217 99.1573 227.676 100.035 227.265C100.931 226.836 101.995 226.621 103.227 226.621C104.477 226.621 105.56 226.827 106.475 227.237C107.389 227.629 108.08 228.105 108.547 228.665C109.032 229.207 109.275 229.692 109.275 230.121C109.275 230.289 109.209 230.439 109.079 230.569C108.967 230.681 108.827 230.737 108.659 230.737H106.587C106.437 230.737 106.279 230.672 106.111 230.541C105.98 230.448 105.775 230.271 105.495 230.009C105.215 229.748 104.888 229.543 104.515 229.393C104.141 229.244 103.703 229.169 103.199 229.169C102.508 229.169 101.967 229.319 101.575 229.617C101.201 229.916 101.015 230.308 101.015 230.793C101.015 231.148 101.108 231.437 101.295 231.661C101.481 231.885 101.845 232.1 102.387 232.305C102.928 232.511 103.74 232.716 104.823 232.921C106.615 233.276 107.893 233.827 108.659 234.573C109.443 235.32 109.835 236.235 109.835 237.317C109.835 238.624 109.265 239.688 108.127 240.509C106.988 241.331 105.392 241.741 103.339 241.741ZM118.241 241.741C116.841 241.741 115.665 241.536 114.713 241.125C113.761 240.696 113.052 240.201 112.585 239.641C112.137 239.063 111.913 238.568 111.913 238.157C111.913 237.971 111.978 237.821 112.109 237.709C112.24 237.597 112.389 237.541 112.557 237.541H114.769C114.937 237.541 115.077 237.607 115.189 237.737C115.264 237.793 115.46 237.961 115.777 238.241C116.094 238.54 116.468 238.773 116.897 238.941C117.326 239.109 117.802 239.193 118.325 239.193C119.072 239.193 119.688 239.044 120.173 238.745C120.658 238.447 120.901 238.036 120.901 237.513C120.901 237.121 120.789 236.804 120.565 236.561C120.36 236.319 119.977 236.104 119.417 235.917C118.857 235.712 118.026 235.497 116.925 235.273C115.338 234.937 114.162 234.424 113.397 233.733C112.65 233.043 112.277 232.128 112.277 230.989C112.277 230.243 112.501 229.543 112.949 228.889C113.397 228.217 114.06 227.676 114.937 227.265C115.833 226.836 116.897 226.621 118.129 226.621C119.38 226.621 120.462 226.827 121.377 227.237C122.292 227.629 122.982 228.105 123.449 228.665C123.934 229.207 124.177 229.692 124.177 230.121C124.177 230.289 124.112 230.439 123.981 230.569C123.869 230.681 123.729 230.737 123.561 230.737H121.489C121.34 230.737 121.181 230.672 121.013 230.541C120.882 230.448 120.677 230.271 120.397 230.009C120.117 229.748 119.79 229.543 119.417 229.393C119.044 229.244 118.605 229.169 118.101 229.169C117.41 229.169 116.869 229.319 116.477 229.617C116.104 229.916 115.917 230.308 115.917 230.793C115.917 231.148 116.01 231.437 116.197 231.661C116.384 231.885 116.748 232.1 117.289 232.305C117.83 232.511 118.642 232.716 119.725 232.921C121.517 233.276 122.796 233.827 123.561 234.573C124.345 235.32 124.737 236.235 124.737 237.317C124.737 238.624 124.168 239.688 123.029 240.509C121.89 241.331 120.294 241.741 118.241 241.741ZM135.579 241.741C133.022 241.741 131.025 241.079 129.587 239.753C128.169 238.428 127.413 236.58 127.319 234.209C127.301 233.668 127.291 232.8 127.291 231.605C127.291 230.411 127.301 229.543 127.319 229.001C127.413 226.687 128.178 224.876 129.615 223.569C131.071 222.244 133.059 221.581 135.579 221.581C137.297 221.581 138.771 221.871 140.003 222.449C141.235 223.028 142.169 223.756 142.803 224.633C143.438 225.492 143.774 226.341 143.811 227.181V227.237C143.811 227.387 143.755 227.517 143.643 227.629C143.531 227.723 143.391 227.769 143.223 227.769H140.339C140.153 227.769 140.013 227.741 139.919 227.685C139.826 227.611 139.742 227.489 139.667 227.321C139.406 226.631 138.949 226.043 138.295 225.557C137.642 225.053 136.737 224.801 135.579 224.801C134.273 224.801 133.246 225.156 132.499 225.865C131.771 226.575 131.379 227.667 131.323 229.141C131.305 229.683 131.295 230.504 131.295 231.605C131.295 232.688 131.305 233.509 131.323 234.069C131.435 237.037 132.873 238.521 135.635 238.521C136.961 238.521 138.025 238.167 138.827 237.457C139.63 236.729 140.031 235.656 140.031 234.237V233.369H136.615C136.41 233.369 136.242 233.304 136.111 233.173C135.999 233.043 135.943 232.875 135.943 232.669V231.185C135.943 230.98 135.999 230.812 136.111 230.681C136.242 230.551 136.41 230.485 136.615 230.485H143.307C143.513 230.485 143.671 230.551 143.783 230.681C143.914 230.812 143.979 230.98 143.979 231.185V234.125C143.979 235.675 143.634 237.028 142.943 238.185C142.271 239.324 141.301 240.201 140.031 240.817C138.762 241.433 137.278 241.741 135.579 241.741ZM151.461 241.741C150.509 241.741 149.631 241.555 148.829 241.181C148.045 240.789 147.419 240.267 146.953 239.613C146.505 238.96 146.281 238.241 146.281 237.457C146.281 236.188 146.794 235.161 147.821 234.377C148.847 233.593 150.257 233.061 152.049 232.781L155.885 232.221V231.633C155.885 230.812 155.679 230.196 155.269 229.785C154.858 229.375 154.195 229.169 153.281 229.169C152.665 229.169 152.161 229.291 151.769 229.533C151.395 229.757 151.097 229.981 150.873 230.205C150.649 230.448 150.499 230.607 150.425 230.681C150.35 230.905 150.21 231.017 150.005 231.017H147.849C147.681 231.017 147.531 230.961 147.401 230.849C147.289 230.737 147.233 230.588 147.233 230.401C147.251 229.935 147.475 229.403 147.905 228.805C148.353 228.208 149.034 227.695 149.949 227.265C150.863 226.836 151.983 226.621 153.309 226.621C155.511 226.621 157.117 227.116 158.125 228.105C159.133 229.095 159.637 230.392 159.637 231.997V240.789C159.637 240.976 159.571 241.135 159.441 241.265C159.329 241.396 159.17 241.461 158.965 241.461H156.697C156.51 241.461 156.351 241.396 156.221 241.265C156.09 241.135 156.025 240.976 156.025 240.789V239.697C155.614 240.295 155.026 240.789 154.261 241.181C153.514 241.555 152.581 241.741 151.461 241.741ZM152.413 239.081C153.439 239.081 154.279 238.745 154.933 238.073C155.586 237.401 155.913 236.421 155.913 235.133V234.545L153.113 234.993C152.03 235.161 151.209 235.432 150.649 235.805C150.107 236.179 149.837 236.636 149.837 237.177C149.837 237.775 150.089 238.241 150.593 238.577C151.097 238.913 151.703 239.081 152.413 239.081ZM169.672 241.461C167.973 241.461 166.695 241.023 165.836 240.145C164.996 239.249 164.576 237.943 164.576 236.225V229.869H162.364C162.177 229.869 162.019 229.804 161.888 229.673C161.757 229.524 161.692 229.356 161.692 229.169V227.573C161.692 227.387 161.757 227.228 161.888 227.097C162.019 226.967 162.177 226.901 162.364 226.901H164.576V222.253C164.576 222.048 164.641 221.889 164.772 221.777C164.903 221.647 165.061 221.581 165.248 221.581H167.516C167.721 221.581 167.88 221.647 167.992 221.777C168.123 221.889 168.188 222.048 168.188 222.253V226.901H171.688C171.893 226.901 172.052 226.967 172.164 227.097C172.295 227.209 172.36 227.368 172.36 227.573V229.169C172.36 229.375 172.295 229.543 172.164 229.673C172.033 229.804 171.875 229.869 171.688 229.869H168.188V235.945C168.188 236.748 168.328 237.355 168.608 237.765C168.888 238.176 169.355 238.381 170.008 238.381H171.94C172.127 238.381 172.285 238.447 172.416 238.577C172.547 238.708 172.612 238.867 172.612 239.053V240.789C172.612 240.976 172.547 241.135 172.416 241.265C172.304 241.396 172.145 241.461 171.94 241.461H169.672ZM181.368 241.741C179.296 241.741 177.644 241.144 176.412 239.949C175.199 238.736 174.555 237.037 174.48 234.853L174.452 234.153L174.48 233.453C174.573 231.325 175.227 229.655 176.44 228.441C177.672 227.228 179.315 226.621 181.368 226.621C183.571 226.621 185.269 227.293 186.464 228.637C187.677 229.981 188.284 231.773 188.284 234.013V234.601C188.284 234.788 188.219 234.947 188.088 235.077C187.957 235.208 187.789 235.273 187.584 235.273H178.288V235.497C178.325 236.524 178.605 237.392 179.128 238.101C179.669 238.792 180.407 239.137 181.34 239.137C182.441 239.137 183.328 238.708 184 237.849C184.168 237.644 184.299 237.513 184.392 237.457C184.504 237.401 184.663 237.373 184.868 237.373H187.276C187.444 237.373 187.584 237.429 187.696 237.541C187.827 237.635 187.892 237.756 187.892 237.905C187.892 238.353 187.621 238.885 187.08 239.501C186.557 240.099 185.801 240.621 184.812 241.069C183.823 241.517 182.675 241.741 181.368 241.741ZM184.476 232.921V232.837C184.476 231.736 184.196 230.849 183.636 230.177C183.095 229.505 182.339 229.169 181.368 229.169C180.397 229.169 179.641 229.505 179.1 230.177C178.559 230.849 178.288 231.736 178.288 232.837V232.921H184.476Z" fill="black"/>
<g clip-path="url(#clip0_1549_4132)">
<path d="M92.5824 66.657C92.5824 66.657 78.4176 74.2476 84.2473 91.1265C84.2473 91.1265 85.076 93.6534 87.5814 97.0292L119.245 129.938L125.913 122.348L128.409 112.22L92.5728 66.657H92.5824Z" fill="black"/>
<path d="M66.7473 94.5022C70.0813 98.7171 71.7483 102.942 71.7483 108.844C71.7483 113.908 70.0813 118.972 66.7473 122.348L33.4166 156.096C30.9209 159.471 29.2539 164.535 29.2539 169.599C29.2539 181.414 38.4177 190.692 50.0868 190.692C55.0878 190.692 59.2505 189.004 63.4229 186.478L64.2516 185.638C65.0802 184.799 65.9186 183.951 66.7473 183.111L125.083 124.045L127.579 121.518L128.407 120.679C130.903 117.303 132.57 113.089 132.57 108.025C132.57 102.961 130.903 98.7464 128.407 95.3706L67.5856 33.748C63.4229 28.6844 57.5835 25.3086 50.9154 25.3086C39.2464 25.3086 30.0826 34.5871 30.0826 46.4023C30.0826 51.466 31.7496 55.6808 34.2453 59.9054L66.7473 94.5022V94.5022Z" fill="#0A8996"/>
<path d="M35.0831 103.781C35.9118 105.469 36.7501 107.157 36.7501 108.844C36.7501 110.532 35.9214 113.059 35.0831 113.908L22.5853 126.562C21.7566 128.25 20.9183 129.938 20.9183 131.626C20.9183 135.841 24.2523 140.066 29.2533 140.066C30.9204 140.066 32.5874 139.226 34.2544 138.378L35.0831 137.539L57.5829 114.757L58.4116 113.918V113.079C59.2403 111.391 60.0786 109.703 60.0786 108.015C60.0786 106.327 59.25 104.639 58.4116 102.952L35.0734 79.3211C33.4064 77.6332 30.9107 75.9453 28.4054 75.9453C24.2427 75.9453 20.0703 79.3211 20.0703 84.3848C20.0703 86.0726 20.899 87.7605 21.7373 89.4484L35.0734 103.791L35.0831 103.781Z" fill="#0A8996"/>
<path d="M151.745 96.1901C148.411 91.9753 146.744 87.7507 146.744 81.8479C146.744 76.7843 148.411 71.7206 151.745 68.3448L185.075 34.5968C187.571 31.2211 189.238 26.1574 189.238 21.0937C189.238 9.27851 180.074 0 168.405 0C163.404 0 159.242 1.68789 155.069 4.21484L154.241 5.05391L151.745 7.58086L93.409 66.6472C92.5803 67.4863 91.742 68.3351 90.9133 69.1741L90.0846 70.0132C87.5889 73.389 85.9219 77.6038 85.9219 82.6675C85.9219 87.7312 87.5889 91.946 90.0846 95.3218L150.916 156.915C155.079 161.979 160.918 165.354 167.586 165.354C179.255 165.354 188.419 156.076 188.419 144.261C188.419 139.197 186.752 134.982 184.256 130.758L151.754 96.1608L151.745 96.1901Z" fill="#14335D"/>
<path d="M190.085 87.7508C190.085 87.7508 190.085 86.9117 190.085 87.7508C189.257 86.0629 188.418 84.375 188.418 82.6871C188.418 80.9992 189.247 78.4723 190.085 77.6234L202.583 64.9692C203.412 63.2813 204.25 61.5934 204.25 59.9055C204.25 55.6907 200.916 51.4661 195.915 51.4661C194.248 51.4661 192.581 52.3051 190.914 53.154L190.085 53.993L167.586 76.7746L166.757 77.6137V78.4528C165.928 80.1407 165.09 81.8285 165.09 83.5164C165.09 85.2043 165.919 86.8922 166.757 88.5801L190.095 112.211C191.762 113.898 194.258 115.586 196.763 115.586C200.926 115.586 205.098 112.211 205.098 107.147C205.098 105.459 204.269 103.771 203.431 102.083L190.095 87.741L190.085 87.7508Z" fill="#14335D"/>
</g>
<defs>
<clipPath id="clip0_1549_4132">
<rect width="185" height="190.692" fill="white" transform="translate(20.0781)"/>
</clipPath>
</defs>
</svg>
