<svg width="28" height="29" viewBox="0 0 28 29" fill="none" xmlns="http://www.w3.org/2000/svg">
<path d="M27.069 14.9655C27.069 18.4225 25.6957 21.7378 23.2513 24.1823C20.8069 26.6267 17.4915 28 14.0345 28C10.5776 28 7.2622 26.6267 4.81776 24.1823C2.37332 21.7378 1.00005 18.4225 1.00005 14.9655C0.995121 13.165 1.34723 11.3813 2.036 9.7177C2.72478 8.05409 3.73655 6.54355 5.01281 5.27345C5.09261 5.16434 5.19521 5.07391 5.31349 5.00846C5.43177 4.943 5.56288 4.90409 5.69771 4.89442C5.83254 4.88475 5.96787 4.90456 6.09427 4.95247C6.22068 5.00038 6.33513 5.07524 6.42969 5.17184C6.52424 5.26845 6.59662 5.38449 6.6418 5.5119C6.68698 5.6393 6.70387 5.77502 6.69131 5.90962C6.67874 6.04421 6.63702 6.17445 6.56903 6.29129C6.50105 6.40814 6.40844 6.50877 6.29764 6.58621C5.19873 7.68588 4.32917 8.99285 3.73941 10.4313C3.14966 11.8697 2.85146 13.4109 2.86212 14.9655C2.86212 17.9286 4.03921 20.7704 6.13444 22.8656C8.22968 24.9608 11.0714 26.1379 14.0345 26.1379C16.9976 26.1379 19.8394 24.9608 21.9346 22.8656C24.0299 20.7704 25.2069 17.9286 25.207 14.9655C25.2176 13.4109 24.9194 11.8697 24.3297 10.4313C23.7399 8.99285 22.8703 7.68588 21.7714 6.58621C21.6143 6.41149 21.5291 6.18383 21.5328 5.94889C21.5365 5.71394 21.6289 5.4891 21.7915 5.31945C21.9541 5.1498 22.1748 5.0479 22.4094 5.03419C22.6439 5.02048 22.875 5.09597 23.0563 5.24552C24.3359 6.51893 25.3496 8.03401 26.0385 9.70266C26.7273 11.3713 27.0777 13.1603 27.069 14.9655ZM14.0345 16.8276C14.2815 16.8276 14.5183 16.7295 14.6929 16.5549C14.8675 16.3803 14.9656 16.1435 14.9656 15.8966V1.93103C14.9656 1.68411 14.8675 1.4473 14.6929 1.27269C14.5183 1.09809 14.2815 1 14.0345 1C13.7876 1 13.5508 1.09809 13.3762 1.27269C13.2016 1.4473 13.1035 1.68411 13.1035 1.93103V15.8966C13.1035 16.1435 13.2016 16.3803 13.3762 16.5549C13.5508 16.7295 13.7876 16.8276 14.0345 16.8276Z" fill="white" stroke="white"/>
</svg>
