<svg width="350" height="234" viewBox="0 0 350 234" fill="none" xmlns="http://www.w3.org/2000/svg">
<rect width="350" height="234" rx="28" fill="#0A8996"/>
<path d="M97.4538 196V179.273H100.99V193.084H108.162V196H97.4538ZM116.107 196.245C114.838 196.245 113.741 195.975 112.815 195.436C111.895 194.892 111.184 194.135 110.683 193.166C110.182 192.191 109.932 191.061 109.932 189.776C109.932 188.48 110.182 187.348 110.683 186.379C111.184 185.404 111.895 184.647 112.815 184.108C113.741 183.563 114.838 183.291 116.107 183.291C117.375 183.291 118.47 183.563 119.39 184.108C120.316 184.647 121.029 185.404 121.53 186.379C122.031 187.348 122.281 188.48 122.281 189.776C122.281 191.061 122.031 192.191 121.53 193.166C121.029 194.135 120.316 194.892 119.39 195.436C118.47 195.975 117.375 196.245 116.107 196.245ZM116.123 193.55C116.7 193.55 117.182 193.386 117.569 193.06C117.955 192.728 118.247 192.276 118.443 191.704C118.644 191.132 118.745 190.481 118.745 189.752C118.745 189.022 118.644 188.371 118.443 187.8C118.247 187.228 117.955 186.776 117.569 186.444C117.182 186.112 116.7 185.946 116.123 185.946C115.54 185.946 115.05 186.112 114.653 186.444C114.261 186.776 113.964 187.228 113.763 187.8C113.566 188.371 113.468 189.022 113.468 189.752C113.468 190.481 113.566 191.132 113.763 191.704C113.964 192.276 114.261 192.728 114.653 193.06C115.05 193.386 115.54 193.55 116.123 193.55ZM130.212 196.245C128.927 196.245 127.822 195.973 126.896 195.428C125.976 194.878 125.268 194.116 124.772 193.141C124.282 192.167 124.037 191.045 124.037 189.776C124.037 188.491 124.285 187.364 124.781 186.395C125.282 185.42 125.992 184.661 126.912 184.116C127.833 183.566 128.927 183.291 130.196 183.291C131.29 183.291 132.249 183.49 133.071 183.887C133.893 184.285 134.544 184.843 135.023 185.562C135.502 186.281 135.766 187.125 135.815 188.094H132.532C132.439 187.468 132.194 186.964 131.797 186.583C131.405 186.196 130.89 186.003 130.253 186.003C129.714 186.003 129.243 186.15 128.84 186.444C128.442 186.732 128.132 187.154 127.909 187.71C127.686 188.265 127.574 188.938 127.574 189.727C127.574 190.528 127.683 191.208 127.901 191.769C128.124 192.33 128.437 192.757 128.84 193.051C129.243 193.346 129.714 193.493 130.253 193.493C130.65 193.493 131.007 193.411 131.323 193.248C131.644 193.084 131.908 192.847 132.115 192.537C132.328 192.221 132.466 191.843 132.532 191.402H135.815C135.761 192.36 135.499 193.204 135.031 193.934C134.568 194.658 133.928 195.224 133.112 195.632C132.295 196.041 131.328 196.245 130.212 196.245ZM141.62 196.237C140.82 196.237 140.106 196.098 139.48 195.82C138.854 195.537 138.359 195.121 137.994 194.571C137.634 194.015 137.455 193.324 137.455 192.496C137.455 191.799 137.583 191.214 137.839 190.74C138.095 190.266 138.443 189.885 138.884 189.597C139.325 189.308 139.826 189.09 140.387 188.943C140.953 188.796 141.547 188.693 142.167 188.633C142.897 188.557 143.485 188.486 143.932 188.42C144.378 188.35 144.702 188.246 144.904 188.11C145.105 187.974 145.206 187.772 145.206 187.506V187.457C145.206 186.939 145.042 186.539 144.716 186.256C144.394 185.973 143.937 185.831 143.344 185.831C142.717 185.831 142.219 185.97 141.849 186.248C141.479 186.52 141.234 186.863 141.114 187.277L137.896 187.016C138.059 186.253 138.38 185.594 138.86 185.039C139.339 184.478 139.957 184.048 140.714 183.749C141.476 183.444 142.358 183.291 143.36 183.291C144.057 183.291 144.724 183.373 145.361 183.536C146.003 183.7 146.573 183.953 147.068 184.296C147.569 184.639 147.964 185.08 148.252 185.619C148.541 186.153 148.685 186.792 148.685 187.538V196H145.385V194.26H145.287C145.086 194.652 144.816 194.998 144.479 195.298C144.141 195.592 143.736 195.823 143.262 195.992C142.788 196.155 142.241 196.237 141.62 196.237ZM142.617 193.836C143.128 193.836 143.58 193.735 143.972 193.533C144.365 193.326 144.672 193.049 144.895 192.7C145.119 192.352 145.23 191.957 145.23 191.516V190.185C145.121 190.255 144.972 190.321 144.781 190.381C144.596 190.435 144.386 190.487 144.152 190.536C143.918 190.579 143.684 190.62 143.45 190.658C143.216 190.691 143.003 190.721 142.813 190.748C142.404 190.808 142.048 190.903 141.743 191.034C141.438 191.165 141.201 191.342 141.032 191.565C140.863 191.783 140.779 192.055 140.779 192.382C140.779 192.855 140.95 193.218 141.294 193.468C141.642 193.713 142.083 193.836 142.617 193.836ZM154.864 179.273V196H151.385V179.273H154.864ZM172.114 184.083C172.049 183.425 171.768 182.913 171.273 182.548C170.777 182.183 170.105 182.001 169.255 182.001C168.678 182.001 168.191 182.082 167.793 182.246C167.396 182.404 167.091 182.624 166.879 182.907C166.672 183.19 166.568 183.512 166.568 183.871C166.557 184.171 166.62 184.432 166.756 184.655C166.898 184.878 167.091 185.072 167.336 185.235C167.581 185.393 167.864 185.532 168.185 185.652C168.507 185.766 168.85 185.864 169.214 185.946L170.717 186.305C171.447 186.468 172.117 186.686 172.727 186.958C173.336 187.231 173.865 187.566 174.311 187.963C174.758 188.361 175.103 188.829 175.348 189.368C175.599 189.907 175.727 190.525 175.732 191.222C175.727 192.246 175.465 193.133 174.948 193.885C174.436 194.631 173.696 195.21 172.727 195.624C171.763 196.033 170.6 196.237 169.239 196.237C167.889 196.237 166.712 196.03 165.711 195.616C164.714 195.202 163.935 194.59 163.375 193.778C162.819 192.962 162.528 191.952 162.501 190.748H165.923C165.961 191.309 166.122 191.777 166.405 192.153C166.693 192.523 167.077 192.804 167.556 192.994C168.041 193.179 168.588 193.272 169.198 193.272C169.797 193.272 170.317 193.185 170.758 193.011C171.205 192.836 171.55 192.594 171.795 192.284C172.04 191.973 172.163 191.617 172.163 191.214C172.163 190.838 172.051 190.522 171.828 190.266C171.61 190.01 171.289 189.793 170.864 189.613C170.445 189.433 169.931 189.27 169.321 189.123L167.499 188.665C166.089 188.322 164.975 187.786 164.159 187.056C163.342 186.327 162.936 185.344 162.942 184.108C162.936 183.095 163.206 182.21 163.75 181.453C164.3 180.697 165.054 180.106 166.013 179.681C166.971 179.256 168.06 179.044 169.28 179.044C170.521 179.044 171.605 179.256 172.531 179.681C173.462 180.106 174.186 180.697 174.703 181.453C175.22 182.21 175.487 183.087 175.504 184.083H172.114ZM183.763 196.245C182.473 196.245 181.362 195.984 180.431 195.461C179.505 194.933 178.792 194.187 178.291 193.223C177.79 192.254 177.539 191.108 177.539 189.784C177.539 188.494 177.79 187.361 178.291 186.387C178.792 185.412 179.497 184.652 180.406 184.108C181.321 183.563 182.394 183.291 183.624 183.291C184.452 183.291 185.222 183.425 185.936 183.691C186.654 183.953 187.281 184.348 187.814 184.876C188.353 185.404 188.773 186.068 189.072 186.869C189.371 187.664 189.521 188.595 189.521 189.662V190.618H178.928V188.461H186.246C186.246 187.96 186.137 187.517 185.919 187.13C185.701 186.743 185.399 186.441 185.013 186.223C184.632 186 184.188 185.888 183.681 185.888C183.153 185.888 182.685 186.011 182.277 186.256C181.874 186.496 181.558 186.82 181.329 187.228C181.1 187.631 180.983 188.08 180.978 188.576V190.626C180.978 191.246 181.092 191.783 181.321 192.235C181.555 192.687 181.884 193.035 182.309 193.28C182.734 193.525 183.238 193.648 183.82 193.648C184.207 193.648 184.561 193.593 184.882 193.484C185.203 193.375 185.478 193.212 185.707 192.994C185.936 192.777 186.11 192.51 186.23 192.194L189.448 192.406C189.284 193.179 188.949 193.855 188.443 194.432C187.942 195.004 187.294 195.45 186.499 195.771C185.71 196.087 184.798 196.245 183.763 196.245ZM191.792 196V183.455H195.165V185.643H195.296C195.524 184.865 195.908 184.277 196.447 183.879C196.986 183.476 197.607 183.275 198.31 183.275C198.484 183.275 198.672 183.286 198.873 183.308C199.075 183.329 199.252 183.359 199.404 183.397V186.485C199.241 186.436 199.015 186.392 198.726 186.354C198.438 186.316 198.173 186.297 197.934 186.297C197.422 186.297 196.965 186.408 196.562 186.632C196.164 186.85 195.848 187.154 195.614 187.547C195.386 187.939 195.271 188.391 195.271 188.902V196H191.792ZM213.281 183.455L208.895 196H204.974L200.588 183.455H204.264L206.869 192.431H207L209.597 183.455H213.281ZM215.061 196V183.455H218.541V196H215.061ZM216.809 181.837C216.292 181.837 215.848 181.666 215.478 181.323C215.113 180.974 214.931 180.558 214.931 180.073C214.931 179.594 215.113 179.183 215.478 178.84C215.848 178.491 216.292 178.317 216.809 178.317C217.326 178.317 217.768 178.491 218.132 178.84C218.503 179.183 218.688 179.594 218.688 180.073C218.688 180.558 218.503 180.974 218.132 181.323C217.768 181.666 217.326 181.837 216.809 181.837ZM226.996 196.245C225.711 196.245 224.606 195.973 223.68 195.428C222.76 194.878 222.052 194.116 221.557 193.141C221.067 192.167 220.822 191.045 220.822 189.776C220.822 188.491 221.069 187.364 221.565 186.395C222.066 185.42 222.776 184.661 223.697 184.116C224.617 183.566 225.711 183.291 226.98 183.291C228.074 183.291 229.033 183.49 229.855 183.887C230.677 184.285 231.328 184.843 231.807 185.562C232.286 186.281 232.55 187.125 232.599 188.094H229.316C229.223 187.468 228.978 186.964 228.581 186.583C228.189 186.196 227.674 186.003 227.037 186.003C226.498 186.003 226.027 186.15 225.624 186.444C225.227 186.732 224.916 187.154 224.693 187.71C224.47 188.265 224.358 188.938 224.358 189.727C224.358 190.528 224.467 191.208 224.685 191.769C224.908 192.33 225.221 192.757 225.624 193.051C226.027 193.346 226.498 193.493 227.037 193.493C227.435 193.493 227.791 193.411 228.107 193.248C228.428 193.084 228.692 192.847 228.899 192.537C229.112 192.221 229.251 191.843 229.316 191.402H232.599C232.545 192.36 232.283 193.204 231.815 193.934C231.352 194.658 230.713 195.224 229.896 195.632C229.079 196.041 228.113 196.245 226.996 196.245ZM240.544 196.245C239.254 196.245 238.143 195.984 237.212 195.461C236.286 194.933 235.573 194.187 235.072 193.223C234.571 192.254 234.321 191.108 234.321 189.784C234.321 188.494 234.571 187.361 235.072 186.387C235.573 185.412 236.278 184.652 237.187 184.108C238.102 183.563 239.175 183.291 240.405 183.291C241.233 183.291 242.004 183.425 242.717 183.691C243.436 183.953 244.062 184.348 244.595 184.876C245.134 185.404 245.554 186.068 245.853 186.869C246.153 187.664 246.302 188.595 246.302 189.662V190.618H235.709V188.461H243.027C243.027 187.96 242.918 187.517 242.701 187.13C242.483 186.743 242.181 186.441 241.794 186.223C241.413 186 240.969 185.888 240.463 185.888C239.934 185.888 239.466 186.011 239.058 186.256C238.655 186.496 238.339 186.82 238.11 187.228C237.882 187.631 237.765 188.08 237.759 188.576V190.626C237.759 191.246 237.873 191.783 238.102 192.235C238.336 192.687 238.666 193.035 239.09 193.28C239.515 193.525 240.019 193.648 240.601 193.648C240.988 193.648 241.342 193.593 241.663 193.484C241.985 193.375 242.259 193.212 242.488 192.994C242.717 192.777 242.891 192.51 243.011 192.194L246.229 192.406C246.066 193.179 245.731 193.855 245.224 194.432C244.723 195.004 244.075 195.45 243.28 195.771C242.491 196.087 241.579 196.245 240.544 196.245Z" fill="white"/>
<circle cx="175.5" cy="93.5" r="70.5" fill="white"/>
<path d="M192.805 66.6719C192.805 77.9081 184.109 87.1086 173.078 87.9134C172.557 87.9608 172.037 87.9766 171.5 87.9766C159.727 87.9766 150.195 78.4447 150.195 66.6719C150.195 54.8991 159.727 45.3672 171.5 45.3672C172.037 45.3672 172.557 45.383 173.078 45.4303C184.109 46.2352 192.805 55.4356 192.805 66.6719Z" fill="white"/>
<path d="M192.805 66.6719C192.805 77.9081 184.109 87.1086 173.078 87.9134C172.81 87.8976 172.557 87.8661 172.289 87.8345C171.752 87.7714 171.232 87.6925 170.711 87.5978C160.832 85.7672 153.352 77.0875 153.352 66.6719C153.352 64.715 153.62 62.8055 154.125 61.0064C154.393 59.9648 154.756 58.9548 155.198 57.9922C158.007 51.7112 163.767 47.04 170.711 45.7459C171.232 45.6512 171.752 45.5723 172.289 45.5092C172.557 45.4776 172.81 45.4461 173.078 45.4303C181.079 46.0142 187.834 51.0011 190.958 57.9922C192.142 60.6434 192.805 63.5787 192.805 66.6719Z" fill="#FFB612"/>
<path d="M188.07 66.6718C188.07 77.0875 180.59 85.7672 170.711 87.5978C160.832 85.7672 153.352 77.0875 153.352 66.6718C153.352 64.715 153.62 62.8054 154.125 61.0064C154.393 59.9648 154.756 58.9548 155.198 57.9922C158.007 51.7112 163.767 47.04 170.711 45.7459C177.655 47.04 183.415 51.7112 186.224 57.9922C187.408 60.6434 188.07 63.5787 188.07 66.6718Z" fill="#FDCC32"/>
<path d="M207.008 91.1328H135.992V141.633H207.008V91.1328Z" fill="white"/>
<path d="M207.008 91.1328H139.148V141.633H207.008V91.1328Z" fill="#2BAEFE"/>
<path d="M202.273 91.1328H139.148V138.477H202.273V91.1328Z" fill="#33CCFF"/>
<path d="M192.805 108.492H150.195V141.633H192.805V108.492Z" fill="#FA6E34"/>
<path d="M189.648 108.492H150.195V138.477H189.648V108.492Z" fill="#FA8840"/>
<path d="M190.958 57.9922L183.336 69.0391H159.664L154.125 61.0064C154.393 59.9648 154.756 58.9548 155.198 57.9922H190.958Z" fill="#FA6E34"/>
<path d="M186.224 57.9922L178.602 69.0391H159.664L154.125 61.0064C154.393 59.9648 154.756 58.9548 155.198 57.9922H186.224Z" fill="#FA8840"/>
<path d="M192.805 91.1328H186.492V108.492H192.805V91.1328Z" fill="#FA6E34"/>
<path d="M189.648 91.1328H186.492V108.492H189.648V91.1328Z" fill="#FA8840"/>
<path d="M156.508 91.1328H150.195V108.492H156.508V91.1328Z" fill="#FA6E34"/>
<path d="M180.18 119.539H162.82V125.852H180.18V119.539Z" fill="#E0E4FF"/>
<path d="M175.445 119.539H162.82V125.852H175.445V119.539Z" fill="white"/>
<path d="M153.352 91.1328H150.195V108.492H153.352V91.1328Z" fill="#FA8840"/>
<path d="M171.5 88.7656C159.317 88.7656 149.406 78.855 149.406 66.6719C149.406 54.4888 159.317 44.5781 171.5 44.5781C183.683 44.5781 193.594 54.4888 193.594 66.6719C193.594 78.855 183.683 88.7656 171.5 88.7656ZM171.5 46.1562C160.188 46.1562 150.984 55.3599 150.984 66.6719C150.984 77.9839 160.188 87.1875 171.5 87.1875C182.812 87.1875 192.016 77.9839 192.016 66.6719C192.016 55.3599 182.812 46.1562 171.5 46.1562Z" fill="#1C225C"/>
<path d="M135.992 128.219C135.557 128.219 135.203 127.865 135.203 127.43V91.1328C135.203 90.6973 135.557 90.3438 135.992 90.3438H207.008C207.443 90.3438 207.797 90.6973 207.797 91.1328C207.797 91.5684 207.443 91.9219 207.008 91.9219H136.781V127.43C136.781 127.865 136.428 128.219 135.992 128.219Z" fill="#1C225C"/>
<path d="M207.008 142.422H135.992C135.557 142.422 135.203 142.068 135.203 141.633C135.203 141.197 135.557 140.844 135.992 140.844H206.219V105.336C206.219 104.9 206.572 104.547 207.008 104.547C207.443 104.547 207.797 104.9 207.797 105.336V141.633C207.797 142.068 207.443 142.422 207.008 142.422Z" fill="#1C225C"/>
<path d="M192.805 142.422C192.369 142.422 192.016 142.068 192.016 141.633V109.281H150.984V141.633C150.984 142.068 150.631 142.422 150.195 142.422C149.76 142.422 149.406 142.068 149.406 141.633V108.492C149.406 108.057 149.76 107.703 150.195 107.703H192.805C193.24 107.703 193.594 108.057 193.594 108.492V141.633C193.594 142.068 193.24 142.422 192.805 142.422Z" fill="#1C225C"/>
<path d="M183.336 69.8281H159.664C159.404 69.8281 159.162 69.7003 159.014 69.4872L151.387 58.4404C151.139 58.0806 151.229 57.5898 151.587 57.342C151.946 57.0942 152.436 57.1842 152.686 57.5424L160.078 68.25H182.923L190.313 57.544C190.561 57.1842 191.052 57.0958 191.411 57.3436C191.77 57.5913 191.86 58.0821 191.612 58.4419L183.985 69.4888C183.838 69.7003 183.597 69.8281 183.336 69.8281Z" fill="#1C225C"/>
<path d="M190.963 58.7812H152.037C151.602 58.7812 151.248 58.4277 151.248 57.9922C151.248 57.5566 151.602 57.2031 152.037 57.2031H190.962C191.397 57.2031 191.751 57.5566 191.751 57.9922C191.751 58.4277 191.399 58.7812 190.963 58.7812Z" fill="#1C225C"/>
<path d="M192.805 109.281H186.492C186.057 109.281 185.703 108.928 185.703 108.492V91.1328C185.703 90.6973 186.057 90.3438 186.492 90.3438H192.805C193.24 90.3438 193.594 90.6973 193.594 91.1328V108.492C193.594 108.928 193.24 109.281 192.805 109.281ZM187.281 107.703H192.016V91.9219H187.281V107.703Z" fill="#1C225C"/>
<path d="M156.508 109.281H150.195C149.76 109.281 149.406 108.928 149.406 108.492V91.1328C149.406 90.6973 149.76 90.3438 150.195 90.3438H156.508C156.943 90.3438 157.297 90.6973 157.297 91.1328V108.492C157.297 108.928 156.943 109.281 156.508 109.281ZM150.984 107.703H155.719V91.9219H150.984V107.703Z" fill="#1C225C"/>
<path d="M180.18 126.641H162.82C162.385 126.641 162.031 126.287 162.031 125.852V119.539C162.031 119.104 162.385 118.75 162.82 118.75H180.18C180.615 118.75 180.969 119.104 180.969 119.539V125.852C180.969 126.287 180.615 126.641 180.18 126.641ZM163.609 125.062H179.391V120.328H163.609V125.062Z" fill="#1C225C"/>
<path d="M207.008 101.391C206.572 101.391 206.219 101.037 206.219 100.602V97.4453C206.219 97.0098 206.572 96.6562 207.008 96.6562C207.443 96.6562 207.797 97.0098 207.797 97.4453V100.602C207.797 101.037 207.443 101.391 207.008 101.391Z" fill="#1C225C"/>
<path d="M135.992 136.109C135.557 136.109 135.203 135.756 135.203 135.32V132.164C135.203 131.729 135.557 131.375 135.992 131.375C136.428 131.375 136.781 131.729 136.781 132.164V135.32C136.781 135.756 136.428 136.109 135.992 136.109Z" fill="#1C225C"/>
<path d="M220.422 68.25V63.5156H216.964C216.705 62.4393 216.298 61.423 215.732 60.5061L218.167 58.0711L214.82 54.7239L212.384 57.1589C211.469 56.5924 210.451 56.1852 209.375 55.9264V52.4688H204.641V55.9106C203.561 56.1663 202.562 56.6082 201.649 57.1763L199.196 54.7239L195.849 58.0711L198.311 60.533C197.752 61.4467 197.315 62.4425 197.059 63.514H193.594V68.2484H197.051C197.31 69.3247 197.717 70.341 198.284 71.2579L195.849 73.693L199.196 77.0402L201.631 74.6051C202.546 75.1717 203.564 75.5788 204.641 75.8376V79.2969H209.375V75.855C210.454 75.5993 211.453 75.1575 212.367 74.5893L214.82 77.0417L218.167 73.6945L215.705 71.2327C216.264 70.3189 216.701 69.3231 216.956 68.2516H220.422V68.25ZM207.008 71.4062C203.957 71.4062 201.484 68.9333 201.484 65.8828C201.484 62.8323 203.957 60.3594 207.008 60.3594C210.058 60.3594 212.531 62.8323 212.531 65.8828C212.531 68.9333 210.058 71.4062 207.008 71.4062Z" fill="#FDCC32"/>
<path d="M210.164 80.875H205.43C204.994 80.875 204.641 80.5215 204.641 80.0859V77.2327C203.9 77.0133 203.201 76.7293 202.551 76.3805L200.544 78.3879C200.395 78.5362 200.195 78.6183 199.985 78.6183C199.775 78.6183 199.575 78.5346 199.426 78.3879L196.079 75.0391C195.772 74.7314 195.772 74.2311 196.079 73.9234L198.087 71.916C197.738 71.2674 197.454 70.5683 197.234 69.8265H194.383C193.947 69.8265 193.594 69.473 193.594 69.0375V64.3031C193.594 63.8675 193.947 63.514 194.383 63.514H197.246C197.459 62.8134 197.749 62.1237 198.113 61.4514L196.079 59.4157C195.772 59.1079 195.772 58.6077 196.079 58.2999L199.426 54.9527C199.734 54.645 200.234 54.645 200.542 54.9527L202.564 56.9743C203.241 56.605 203.937 56.3099 204.641 56.0953V53.2578C204.641 52.8223 204.994 52.4688 205.43 52.4688H210.164C210.6 52.4688 210.953 52.8223 210.953 53.2578V56.1111C211.693 56.3304 212.392 56.6145 213.041 56.9633L215.05 54.9559C215.358 54.6481 215.858 54.6481 216.166 54.9559L219.513 58.3031C219.821 58.6108 219.821 59.1111 219.513 59.4188L217.506 61.4262C217.854 62.0764 218.138 62.7739 218.358 63.5156H221.211C221.646 63.5156 222 63.8691 222 64.3047V69.0391C222 69.4746 221.646 69.8281 221.211 69.8281H218.348C218.135 70.5288 217.845 71.2185 217.48 71.8907L219.514 73.9265C219.822 74.2343 219.822 74.7345 219.514 75.0423L216.167 78.391C215.871 78.6877 215.347 78.6877 215.052 78.391L213.03 76.3695C212.355 76.7403 211.66 77.0354 210.955 77.25V80.0859C210.953 80.5215 210.6 80.875 210.164 80.875ZM206.219 79.2969H209.375V76.644C209.375 76.2779 209.626 75.9607 209.983 75.8771C210.925 75.653 211.853 75.26 212.741 74.7093C213.052 74.5152 213.454 74.5625 213.715 74.8213L215.609 76.7151L217.84 74.482L215.935 72.5772C215.678 72.3184 215.631 71.9191 215.82 71.6067C216.365 70.7198 216.754 69.7934 216.977 68.8544C217.062 68.5009 217.379 68.25 217.745 68.25H220.422V65.0938H217.753C217.389 65.0938 217.072 64.8444 216.986 64.4893C216.742 63.4667 216.36 62.5325 215.85 61.7102C215.659 61.3994 215.705 60.9969 215.964 60.7381L217.84 58.8617L215.609 56.6287L213.731 58.5051C213.47 58.7655 213.069 58.8112 212.759 58.6187C211.936 58.109 211.002 57.7286 209.981 57.4825C209.624 57.3988 209.375 57.0816 209.375 56.7155V54.0469H206.219V56.6997C206.219 57.0658 205.968 57.383 205.611 57.4683C204.674 57.6892 203.744 58.0821 202.853 58.6361C202.542 58.8302 202.141 58.7844 201.879 58.524L199.985 56.6303L197.754 58.8602L199.658 60.765C199.916 61.0238 199.963 61.423 199.774 61.7355C199.229 62.6224 198.841 63.5488 198.617 64.4878C198.532 64.8428 198.214 65.0938 197.848 65.0938H195.172V68.25H197.84C198.205 68.25 198.522 68.4993 198.607 68.8544C198.854 69.877 199.234 70.8129 199.744 71.6335C199.935 71.9444 199.889 72.3468 199.63 72.6056L197.754 74.482L199.985 76.7151L201.862 74.8387C202.122 74.5783 202.526 74.5341 202.834 74.725C203.657 75.2348 204.593 75.6167 205.614 75.8613C205.969 75.9465 206.219 76.2637 206.219 76.6283V79.2969ZM207.797 72.9844C204.316 72.9844 201.484 70.1532 201.484 66.6719C201.484 63.1905 204.316 60.3594 207.797 60.3594C211.278 60.3594 214.109 63.1905 214.109 66.6719C214.109 70.1532 211.278 72.9844 207.797 72.9844ZM207.797 61.9375C205.187 61.9375 203.062 64.0617 203.062 66.6719C203.062 69.2821 205.187 71.4062 207.797 71.4062C210.407 71.4062 212.531 69.2821 212.531 66.6719C212.531 64.0617 210.407 61.9375 207.797 61.9375Z" fill="#1C225C"/>
</svg>
