<svg width="350" height="234" viewBox="0 0 350 234" fill="none" xmlns="http://www.w3.org/2000/svg">
<rect width="350" height="234" rx="28" fill="#0A8996"/>
<path d="M113.454 187.273H117.815L122.422 198.511H122.618L127.224 187.273H131.586V204H128.156V193.113H128.017L123.688 203.918H121.352L117.023 193.072H116.884V204H113.454V187.273ZM138.012 204.237C137.211 204.237 136.498 204.098 135.872 203.82C135.246 203.537 134.75 203.121 134.385 202.571C134.026 202.015 133.846 201.324 133.846 200.496C133.846 199.799 133.974 199.214 134.23 198.74C134.486 198.266 134.835 197.885 135.276 197.597C135.717 197.308 136.218 197.09 136.778 196.943C137.345 196.796 137.938 196.693 138.559 196.633C139.289 196.557 139.877 196.486 140.323 196.42C140.77 196.35 141.094 196.246 141.295 196.11C141.497 195.974 141.597 195.772 141.597 195.506V195.457C141.597 194.939 141.434 194.539 141.107 194.256C140.786 193.973 140.329 193.831 139.735 193.831C139.109 193.831 138.611 193.97 138.241 194.248C137.87 194.52 137.625 194.863 137.505 195.277L134.287 195.016C134.451 194.253 134.772 193.594 135.251 193.039C135.73 192.478 136.348 192.048 137.105 191.749C137.868 191.444 138.75 191.291 139.752 191.291C140.448 191.291 141.116 191.373 141.753 191.536C142.395 191.7 142.964 191.953 143.46 192.296C143.961 192.639 144.355 193.08 144.644 193.619C144.932 194.153 145.077 194.792 145.077 195.538V204H141.777V202.26H141.679C141.478 202.652 141.208 202.998 140.87 203.298C140.533 203.592 140.127 203.823 139.653 203.992C139.18 204.155 138.633 204.237 138.012 204.237ZM139.008 201.836C139.52 201.836 139.972 201.735 140.364 201.533C140.756 201.326 141.064 201.049 141.287 200.7C141.51 200.352 141.622 199.957 141.622 199.516V198.185C141.513 198.255 141.363 198.321 141.173 198.381C140.988 198.435 140.778 198.487 140.544 198.536C140.31 198.579 140.075 198.62 139.841 198.658C139.607 198.691 139.395 198.721 139.204 198.748C138.796 198.808 138.439 198.903 138.134 199.034C137.829 199.165 137.593 199.342 137.424 199.565C137.255 199.783 137.171 200.055 137.171 200.382C137.171 200.855 137.342 201.218 137.685 201.468C138.034 201.713 138.475 201.836 139.008 201.836ZM151.256 196.747V204H147.776V191.455H151.092V193.668H151.239C151.517 192.938 151.983 192.361 152.636 191.936C153.289 191.506 154.082 191.291 155.013 191.291C155.884 191.291 156.643 191.482 157.291 191.863C157.939 192.244 158.443 192.789 158.802 193.496C159.162 194.199 159.342 195.037 159.342 196.012V204H155.862V196.633C155.868 195.865 155.672 195.266 155.274 194.836C154.877 194.4 154.329 194.183 153.632 194.183C153.164 194.183 152.75 194.283 152.391 194.485C152.037 194.686 151.759 194.98 151.558 195.367C151.362 195.748 151.261 196.208 151.256 196.747ZM165.661 204.237C164.861 204.237 164.147 204.098 163.521 203.82C162.895 203.537 162.4 203.121 162.035 202.571C161.675 202.015 161.496 201.324 161.496 200.496C161.496 199.799 161.624 199.214 161.88 198.74C162.136 198.266 162.484 197.885 162.925 197.597C163.366 197.308 163.867 197.09 164.428 196.943C164.994 196.796 165.588 196.693 166.208 196.633C166.938 196.557 167.526 196.486 167.973 196.42C168.419 196.35 168.743 196.246 168.945 196.11C169.146 195.974 169.247 195.772 169.247 195.506V195.457C169.247 194.939 169.083 194.539 168.757 194.256C168.435 193.973 167.978 193.831 167.385 193.831C166.758 193.831 166.26 193.97 165.89 194.248C165.52 194.52 165.275 194.863 165.155 195.277L161.937 195.016C162.1 194.253 162.421 193.594 162.901 193.039C163.38 192.478 163.998 192.048 164.755 191.749C165.517 191.444 166.399 191.291 167.401 191.291C168.098 191.291 168.765 191.373 169.402 191.536C170.045 191.7 170.614 191.953 171.109 192.296C171.61 192.639 172.005 193.08 172.293 193.619C172.582 194.153 172.726 194.792 172.726 195.538V204H169.426V202.26H169.328C169.127 202.652 168.857 202.998 168.52 203.298C168.182 203.592 167.777 203.823 167.303 203.992C166.829 204.155 166.282 204.237 165.661 204.237ZM166.658 201.836C167.17 201.836 167.621 201.735 168.013 201.533C168.406 201.326 168.713 201.049 168.936 200.7C169.16 200.352 169.271 199.957 169.271 199.516V198.185C169.162 198.255 169.013 198.321 168.822 198.381C168.637 198.435 168.427 198.487 168.193 198.536C167.959 198.579 167.725 198.62 167.491 198.658C167.257 198.691 167.044 198.721 166.854 198.748C166.445 198.808 166.089 198.903 165.784 199.034C165.479 199.165 165.242 199.342 165.073 199.565C164.904 199.783 164.82 200.055 164.82 200.382C164.82 200.855 164.991 201.218 165.335 201.468C165.683 201.713 166.124 201.836 166.658 201.836ZM181.078 208.966C179.95 208.966 178.984 208.811 178.178 208.5C177.378 208.195 176.741 207.779 176.267 207.251C175.793 206.723 175.485 206.129 175.344 205.47L178.562 205.037C178.66 205.288 178.815 205.522 179.028 205.74C179.24 205.958 179.52 206.132 179.869 206.262C180.223 206.399 180.653 206.467 181.159 206.467C181.916 206.467 182.54 206.281 183.03 205.911C183.525 205.546 183.773 204.934 183.773 204.074V201.778H183.626C183.473 202.127 183.245 202.456 182.94 202.767C182.635 203.077 182.243 203.33 181.764 203.526C181.285 203.722 180.713 203.82 180.048 203.82C179.106 203.82 178.249 203.603 177.476 203.167C176.708 202.726 176.095 202.053 175.638 201.15C175.186 200.24 174.96 199.091 174.96 197.703C174.96 196.282 175.191 195.095 175.654 194.142C176.117 193.189 176.732 192.475 177.5 192.002C178.273 191.528 179.12 191.291 180.04 191.291C180.743 191.291 181.331 191.411 181.805 191.651C182.278 191.885 182.659 192.179 182.948 192.533C183.242 192.881 183.468 193.224 183.626 193.562H183.757V191.455H187.211V204.123C187.211 205.19 186.95 206.083 186.427 206.801C185.905 207.52 185.18 208.059 184.255 208.419C183.335 208.783 182.276 208.966 181.078 208.966ZM181.151 201.207C181.712 201.207 182.186 201.068 182.572 200.79C182.964 200.507 183.264 200.104 183.471 199.581C183.683 199.053 183.789 198.422 183.789 197.686C183.789 196.951 183.686 196.314 183.479 195.775C183.272 195.231 182.972 194.809 182.58 194.509C182.188 194.21 181.712 194.06 181.151 194.06C180.579 194.06 180.097 194.215 179.705 194.526C179.313 194.83 179.017 195.255 178.815 195.8C178.614 196.344 178.513 196.973 178.513 197.686C178.513 198.411 178.614 199.037 178.815 199.565C179.022 200.088 179.319 200.493 179.705 200.782C180.097 201.065 180.579 201.207 181.151 201.207ZM195.698 204.245C194.407 204.245 193.296 203.984 192.365 203.461C191.44 202.933 190.726 202.187 190.225 201.223C189.724 200.254 189.474 199.108 189.474 197.784C189.474 196.494 189.724 195.361 190.225 194.387C190.726 193.412 191.431 192.652 192.341 192.108C193.256 191.563 194.328 191.291 195.559 191.291C196.386 191.291 197.157 191.425 197.87 191.691C198.589 191.953 199.215 192.348 199.749 192.876C200.288 193.404 200.707 194.068 201.007 194.869C201.306 195.664 201.456 196.595 201.456 197.662V198.618H190.862V196.461H198.181C198.181 195.96 198.072 195.517 197.854 195.13C197.636 194.743 197.334 194.441 196.947 194.223C196.566 194 196.122 193.888 195.616 193.888C195.088 193.888 194.619 194.011 194.211 194.256C193.808 194.496 193.492 194.82 193.264 195.228C193.035 195.631 192.918 196.08 192.912 196.576V198.626C192.912 199.246 193.027 199.783 193.256 200.235C193.49 200.687 193.819 201.035 194.244 201.28C194.669 201.525 195.172 201.648 195.755 201.648C196.141 201.648 196.495 201.593 196.817 201.484C197.138 201.375 197.413 201.212 197.642 200.994C197.87 200.777 198.044 200.51 198.164 200.194L201.382 200.406C201.219 201.179 200.884 201.855 200.378 202.432C199.877 203.004 199.229 203.45 198.434 203.771C197.644 204.087 196.732 204.245 195.698 204.245ZM209.115 204V187.273H220.19V190.189H212.652V194.174H219.455V197.09H212.652V204H209.115ZM225.983 187.273V204H222.504V187.273H225.983ZM232.348 204.237C231.547 204.237 230.834 204.098 230.208 203.82C229.582 203.537 229.086 203.121 228.721 202.571C228.362 202.015 228.182 201.324 228.182 200.496C228.182 199.799 228.31 199.214 228.566 198.74C228.822 198.266 229.171 197.885 229.612 197.597C230.053 197.308 230.554 197.09 231.114 196.943C231.681 196.796 232.274 196.693 232.895 196.633C233.625 196.557 234.213 196.486 234.659 196.42C235.106 196.35 235.43 196.246 235.631 196.11C235.833 195.974 235.933 195.772 235.933 195.506V195.457C235.933 194.939 235.77 194.539 235.443 194.256C235.122 193.973 234.665 193.831 234.071 193.831C233.445 193.831 232.947 193.97 232.576 194.248C232.206 194.52 231.961 194.863 231.841 195.277L228.623 195.016C228.787 194.253 229.108 193.594 229.587 193.039C230.066 192.478 230.684 192.048 231.441 191.749C232.203 191.444 233.086 191.291 234.087 191.291C234.784 191.291 235.451 191.373 236.089 191.536C236.731 191.7 237.3 191.953 237.796 192.296C238.296 192.639 238.691 193.08 238.98 193.619C239.268 194.153 239.413 194.792 239.413 195.538V204H236.113V202.26H236.015C235.814 202.652 235.544 202.998 235.206 203.298C234.869 203.592 234.463 203.823 233.989 203.992C233.516 204.155 232.968 204.237 232.348 204.237ZM233.344 201.836C233.856 201.836 234.308 201.735 234.7 201.533C235.092 201.326 235.4 201.049 235.623 200.7C235.846 200.352 235.958 199.957 235.958 199.516V198.185C235.849 198.255 235.699 198.321 235.509 198.381C235.323 198.435 235.114 198.487 234.88 198.536C234.646 198.579 234.411 198.62 234.177 198.658C233.943 198.691 233.731 198.721 233.54 198.748C233.132 198.808 232.775 198.903 232.47 199.034C232.165 199.165 231.928 199.342 231.76 199.565C231.591 199.783 231.506 200.055 231.506 200.382C231.506 200.855 231.678 201.218 232.021 201.468C232.37 201.713 232.811 201.836 233.344 201.836ZM248.785 191.455V194.068H241.23V191.455H248.785ZM242.945 188.449H246.425V200.145C246.425 200.466 246.474 200.717 246.572 200.896C246.67 201.071 246.806 201.193 246.98 201.264C247.16 201.335 247.367 201.37 247.601 201.37C247.764 201.37 247.927 201.356 248.091 201.329C248.254 201.297 248.379 201.272 248.467 201.256L249.014 203.845C248.84 203.899 248.594 203.962 248.279 204.033C247.963 204.109 247.579 204.155 247.127 204.172C246.289 204.204 245.553 204.093 244.922 203.837C244.296 203.581 243.808 203.183 243.46 202.644C243.111 202.105 242.94 201.424 242.945 200.602V188.449Z" fill="white"/>
<circle cx="179.5" cy="93.5" r="70.5" fill="white"/>
<path d="M143.483 49.5005V74.146L154.672 67.4778V49.5005H143.483Z" fill="#FF7E7E"/>
<path d="M154.671 49.5024V67.4826L143.48 74.1466V61.8245C147.35 60.9863 151.078 55.1466 151.078 50.6341C151.078 50.2569 151.05 49.8796 151.008 49.5024H154.671V49.5024Z" fill="#EF3D3D"/>
<path d="M214.569 72.4892V125.964H144.439V72.4892L179.511 51.0081L214.569 72.4892Z" fill="#FBC41A"/>
<path d="M214.563 72.4839V125.963H144.444V117.259C199.84 110.216 206.32 68.3067 206.32 68.3067L206.488 67.5383L214.563 72.4839Z" fill="#F59F02"/>
<path d="M219.679 80.1493C218.873 80.1493 218.057 79.9342 217.319 79.4819L179.512 56.3156L141.688 79.4819C139.556 80.7899 136.771 80.1175 135.465 77.9866C134.159 75.855 134.829 73.0694 136.96 71.7641L177.149 47.1499C178.6 46.2608 180.426 46.2623 181.877 47.1499L222.048 71.7642C224.179 73.0702 224.848 75.8565 223.542 77.9874C222.689 79.381 221.202 80.1493 219.679 80.1493Z" fill="#FF7E7E"/>
<path d="M188.578 100.858V125.963H170.416V100.858C170.416 95.8428 174.495 91.7773 179.497 91.7773H179.511C184.512 91.7773 188.578 95.8428 188.578 100.858Z" fill="#DEE1E6"/>
<path d="M188.578 100.858V125.963H170.416V122.666H173.154C178.533 122.666 182.892 118.308 182.892 112.929V97.5612C182.892 95.4097 182.151 93.4399 180.908 91.8892C185.253 92.5597 188.578 96.3178 188.578 100.858Z" fill="#C7CBD1"/>
<path d="M208.206 86.7438V107.764H195.633V86.7438C195.633 83.2735 198.449 80.457 201.92 80.457C203.655 80.457 205.239 81.1611 206.371 82.2928C207.502 83.437 208.206 85.0086 208.206 86.7438Z" fill="#4DABF4"/>
<path d="M208.206 86.7479V107.76H195.633V104.588C199.768 104.407 203.051 100.998 203.051 96.8347V83.5905C203.051 82.4449 202.744 81.3972 202.213 80.4751C203.834 80.545 205.314 81.2295 206.376 82.2913C207.508 83.4369 208.206 85.0016 208.206 86.7479Z" fill="#1D7BD5"/>
<path d="M163.368 86.7438V107.764H150.795V86.7438C150.795 83.2735 153.611 80.457 157.082 80.457C158.817 80.457 160.401 81.1611 161.533 82.2928C162.664 83.437 163.368 85.0086 163.368 86.7438Z" fill="#4DABF4"/>
<path d="M163.368 86.7479V107.76H150.795V104.588C154.93 104.407 158.213 100.998 158.213 96.8347V83.5905C158.213 82.4449 157.906 81.3972 157.375 80.4751C158.996 80.545 160.477 81.2295 161.538 82.2913C162.67 83.4369 163.368 85.0016 163.368 86.7479Z" fill="#1D7BD5"/>
<path d="M187.18 74.1465C187.18 78.3879 183.753 81.8303 179.496 81.8303C175.255 81.8303 171.812 78.3879 171.812 74.1465C171.812 69.8896 175.255 66.4626 179.496 66.4626C183.753 66.4626 187.18 69.8896 187.18 74.1465Z" fill="white"/>
<path d="M187.181 74.1465C187.181 78.3935 183.758 81.8303 179.497 81.8303C175.571 81.8303 172.344 78.8965 171.883 75.0965C172.945 75.6692 174.174 75.9906 175.459 75.9906C179.72 75.9906 183.143 72.5398 183.143 68.3067C183.143 67.9854 183.129 67.6501 183.073 67.3428C185.518 68.6141 187.181 71.1847 187.181 74.1465Z" fill="#DEE1E6"/>
<path d="M134.798 127.36V133.101C134.798 133.873 135.423 134.498 136.195 134.498H222.813C223.584 134.498 224.21 133.873 224.21 133.101V127.36C224.21 126.589 223.584 125.963 222.813 125.963H136.195C135.423 125.963 134.798 126.589 134.798 127.36Z" fill="#DEE1E6"/>
<path d="M195.636 109.161H208.21C208.978 109.161 209.607 108.533 209.607 107.764V86.7385C209.607 82.5455 206.224 79.0546 201.923 79.0546C197.676 79.0546 194.239 82.5054 194.239 86.7385V107.764C194.239 108.533 194.868 109.161 195.636 109.161ZM197.033 86.7385C197.033 84.0421 199.227 81.8487 201.923 81.8487C204.68 81.8487 206.813 84.1002 206.813 86.7385V106.367H197.033V86.7385ZM150.791 109.161H163.364C164.146 109.161 164.761 108.533 164.761 107.764V86.7385C164.761 82.5617 161.424 79.0546 157.077 79.0546C152.844 79.0546 149.394 82.5054 149.394 86.7385V107.764C149.394 108.533 150.022 109.161 150.791 109.161ZM152.188 86.7385C152.188 84.0421 154.381 81.8487 157.077 81.8487C159.778 81.8487 161.967 84.0156 161.967 86.7385V106.367H152.188V86.7385ZM195.633 115.438H208.206C208.978 115.438 209.603 114.812 209.603 114.04C209.603 113.269 208.978 112.643 208.206 112.643H195.633C194.861 112.643 194.236 113.269 194.236 114.04C194.236 114.812 194.861 115.438 195.633 115.438ZM163.369 112.643H150.795C150.024 112.643 149.398 113.269 149.398 114.04C149.398 114.812 150.024 115.438 150.795 115.438H163.369C164.14 115.438 164.766 114.812 164.766 114.04C164.766 113.269 164.14 112.643 163.369 112.643ZM179.5 83.2318C184.502 83.2318 188.581 79.1524 188.581 74.151C188.581 69.1355 184.502 65.0701 179.5 65.0701C174.485 65.0701 170.419 69.1355 170.419 74.151C170.419 79.1524 174.485 83.2318 179.5 83.2318ZM179.5 67.8642C182.965 67.8642 185.787 70.6862 185.787 74.151C185.787 77.6157 182.965 80.4377 179.5 80.4377C176.035 80.4377 173.213 77.6157 173.213 74.151C173.213 70.6862 176.035 67.8642 179.5 67.8642Z" fill="black"/>
<path d="M222.809 124.571H215.964V80.284L216.592 80.6752C219.261 82.3098 222.949 81.6252 224.737 78.7193C226.414 75.9532 225.589 72.3068 222.781 70.5745L182.602 45.9583C180.744 44.8127 178.285 44.8127 176.413 45.9583L156.072 58.4201V50.8972H156.829C157.6 50.8972 158.226 50.2716 158.226 49.5001C158.226 48.7287 157.6 48.1031 156.829 48.1031H141.329C140.558 48.1031 139.932 48.7287 139.932 49.5001C139.932 50.2716 140.558 50.8972 141.329 50.8972H142.087V66.984L136.233 70.5745C133.383 72.3068 132.601 75.9532 134.278 78.7193C136.066 81.6252 139.754 82.3096 142.422 80.6752L143.037 80.298V124.571H136.192C134.655 124.571 133.397 125.814 133.397 127.365V133.107C133.397 134.643 134.655 135.901 136.192 135.901H222.809C224.36 135.901 225.603 134.643 225.603 133.107V127.365C225.603 125.814 224.36 124.571 222.809 124.571ZM144.881 50.9039H153.278V60.1385L144.881 65.2798V50.9039ZM140.956 78.2863C139.517 79.1663 137.533 78.6774 136.653 77.2523C135.828 75.8832 136.122 73.9273 137.686 72.9493C151.348 64.5909 177.654 48.485 177.88 48.3471C178.369 48.0398 178.942 47.8861 179.514 47.8861C180.087 47.8861 180.66 48.0398 181.149 48.3471L221.314 72.9493C222.851 73.9133 223.228 75.8552 222.348 77.2523C221.482 78.6773 219.484 79.1663 218.045 78.2863C209.565 73.0892 189.392 60.7252 179.514 54.676C124.582 88.3048 207.725 37.4115 140.956 78.2863ZM145.831 78.5936L179.514 57.959L213.17 78.5796V124.571H189.978V100.863C189.978 95.0789 185.284 90.3848 179.5 90.3848C173.717 90.3848 169.022 95.0789 169.022 100.863V124.571H145.831V78.5936ZM187.184 124.571H171.817V100.863C171.817 96.6157 175.267 93.1789 179.514 93.1789C183.733 93.1789 187.184 96.6157 187.184 100.863V124.571ZM222.809 133.107H136.192V127.365C163.758 127.365 197.343 127.365 222.809 127.365V133.107Z" fill="black"/>
</svg>
