<svg width="350" height="234" viewBox="0 0 350 234" fill="none" xmlns="http://www.w3.org/2000/svg">
<rect width="350" height="234" rx="28" fill="#0A8996"/>
<path d="M58.4538 189.273H62.8153L67.4219 200.511H67.6179L72.2244 189.273H76.5859V206H73.1555V195.113H73.0167L68.6879 205.918H66.3519L62.0231 195.072H61.8842V206H58.4538V189.273ZM83.0118 206.237C82.2114 206.237 81.4981 206.098 80.8719 205.82C80.2457 205.537 79.7502 205.121 79.3854 204.571C79.026 204.015 78.8463 203.324 78.8463 202.496C78.8463 201.799 78.9743 201.214 79.2302 200.74C79.4861 200.266 79.8346 199.885 80.2757 199.597C80.7167 199.308 81.2177 199.09 81.7785 198.943C82.3448 198.796 82.9383 198.693 83.559 198.633C84.2887 198.557 84.8767 198.486 85.3232 198.42C85.7697 198.35 86.0937 198.246 86.2952 198.11C86.4967 197.974 86.5974 197.772 86.5974 197.506V197.457C86.5974 196.939 86.434 196.539 86.1073 196.256C85.7861 195.973 85.3287 195.831 84.7352 195.831C84.109 195.831 83.6108 195.97 83.2405 196.248C82.8702 196.52 82.6252 196.863 82.5054 197.277L79.2874 197.016C79.4507 196.253 79.772 195.594 80.2512 195.039C80.7303 194.478 81.3483 194.048 82.1052 193.749C82.8675 193.444 83.7496 193.291 84.7515 193.291C85.4485 193.291 86.1155 193.373 86.7526 193.536C87.3951 193.7 87.9641 193.953 88.4596 194.296C88.9606 194.639 89.3553 195.08 89.6439 195.619C89.9325 196.153 90.0768 196.792 90.0768 197.538V206H86.7771V204.26H86.6791C86.4776 204.652 86.2081 204.998 85.8705 205.298C85.5329 205.592 85.1272 205.823 84.6535 205.992C84.1798 206.155 83.6325 206.237 83.0118 206.237ZM84.0083 203.836C84.5201 203.836 84.972 203.735 85.3641 203.533C85.7561 203.326 86.0638 203.049 86.287 202.7C86.5103 202.352 86.6219 201.957 86.6219 201.516V200.185C86.513 200.255 86.3633 200.321 86.1727 200.381C85.9875 200.435 85.7779 200.487 85.5438 200.536C85.3096 200.579 85.0755 200.62 84.8414 200.658C84.6072 200.691 84.3949 200.721 84.2043 200.748C83.7959 200.808 83.4392 200.903 83.1343 201.034C82.8294 201.165 82.5925 201.342 82.4237 201.565C82.2549 201.783 82.1705 202.055 82.1705 202.382C82.1705 202.855 82.3421 203.218 82.6851 203.468C83.0336 203.713 83.4746 203.836 84.0083 203.836ZM96.2556 198.747V206H92.7762V193.455H96.0922V195.668H96.2393C96.517 194.938 96.9825 194.361 97.6359 193.936C98.2893 193.506 99.0816 193.291 100.013 193.291C100.884 193.291 101.643 193.482 102.291 193.863C102.939 194.244 103.443 194.789 103.802 195.496C104.162 196.199 104.342 197.037 104.342 198.012V206H100.862V198.633C100.868 197.865 100.672 197.266 100.274 196.836C99.8766 196.4 99.3293 196.183 98.6324 196.183C98.1641 196.183 97.7503 196.283 97.3909 196.485C97.037 196.686 96.7593 196.98 96.5578 197.367C96.3618 197.748 96.261 198.208 96.2556 198.747ZM110.661 206.237C109.861 206.237 109.147 206.098 108.521 205.82C107.895 205.537 107.4 205.121 107.035 204.571C106.675 204.015 106.496 203.324 106.496 202.496C106.496 201.799 106.624 201.214 106.88 200.74C107.136 200.266 107.484 199.885 107.925 199.597C108.366 199.308 108.867 199.09 109.428 198.943C109.994 198.796 110.588 198.693 111.208 198.633C111.938 198.557 112.526 198.486 112.973 198.42C113.419 198.35 113.743 198.246 113.945 198.11C114.146 197.974 114.247 197.772 114.247 197.506V197.457C114.247 196.939 114.083 196.539 113.757 196.256C113.435 195.973 112.978 195.831 112.385 195.831C111.758 195.831 111.26 195.97 110.89 196.248C110.52 196.52 110.275 196.863 110.155 197.277L106.937 197.016C107.1 196.253 107.421 195.594 107.901 195.039C108.38 194.478 108.998 194.048 109.755 193.749C110.517 193.444 111.399 193.291 112.401 193.291C113.098 193.291 113.765 193.373 114.402 193.536C115.045 193.7 115.614 193.953 116.109 194.296C116.61 194.639 117.005 195.08 117.293 195.619C117.582 196.153 117.726 196.792 117.726 197.538V206H114.426V204.26H114.328C114.127 204.652 113.857 204.998 113.52 205.298C113.182 205.592 112.777 205.823 112.303 205.992C111.829 206.155 111.282 206.237 110.661 206.237ZM111.658 203.836C112.17 203.836 112.621 203.735 113.013 203.533C113.406 203.326 113.713 203.049 113.936 202.7C114.16 202.352 114.271 201.957 114.271 201.516V200.185C114.162 200.255 114.013 200.321 113.822 200.381C113.637 200.435 113.427 200.487 113.193 200.536C112.959 200.579 112.725 200.62 112.491 200.658C112.257 200.691 112.044 200.721 111.854 200.748C111.445 200.808 111.089 200.903 110.784 201.034C110.479 201.165 110.242 201.342 110.073 201.565C109.904 201.783 109.82 202.055 109.82 202.382C109.82 202.855 109.991 203.218 110.335 203.468C110.683 203.713 111.124 203.836 111.658 203.836ZM126.078 210.966C124.95 210.966 123.984 210.811 123.178 210.5C122.378 210.195 121.741 209.779 121.267 209.251C120.793 208.723 120.485 208.129 120.344 207.47L123.562 207.037C123.66 207.288 123.815 207.522 124.028 207.74C124.24 207.958 124.52 208.132 124.869 208.262C125.223 208.399 125.653 208.467 126.159 208.467C126.916 208.467 127.54 208.281 128.03 207.911C128.525 207.546 128.773 206.934 128.773 206.074V203.778H128.626C128.473 204.127 128.245 204.456 127.94 204.767C127.635 205.077 127.243 205.33 126.764 205.526C126.285 205.722 125.713 205.82 125.048 205.82C124.106 205.82 123.249 205.603 122.476 205.167C121.708 204.726 121.095 204.053 120.638 203.15C120.186 202.24 119.96 201.091 119.96 199.703C119.96 198.282 120.191 197.095 120.654 196.142C121.117 195.189 121.732 194.475 122.5 194.002C123.273 193.528 124.12 193.291 125.04 193.291C125.743 193.291 126.331 193.411 126.805 193.651C127.278 193.885 127.659 194.179 127.948 194.533C128.242 194.881 128.468 195.224 128.626 195.562H128.757V193.455H132.211V206.123C132.211 207.19 131.95 208.083 131.427 208.801C130.905 209.52 130.18 210.059 129.255 210.419C128.335 210.783 127.276 210.966 126.078 210.966ZM126.151 203.207C126.712 203.207 127.186 203.068 127.572 202.79C127.964 202.507 128.264 202.104 128.471 201.581C128.683 201.053 128.789 200.422 128.789 199.686C128.789 198.951 128.686 198.314 128.479 197.775C128.272 197.231 127.972 196.809 127.58 196.509C127.188 196.21 126.712 196.06 126.151 196.06C125.579 196.06 125.097 196.215 124.705 196.526C124.313 196.83 124.017 197.255 123.815 197.8C123.614 198.344 123.513 198.973 123.513 199.686C123.513 200.411 123.614 201.037 123.815 201.565C124.022 202.088 124.319 202.493 124.705 202.782C125.097 203.065 125.579 203.207 126.151 203.207ZM140.698 206.245C139.407 206.245 138.296 205.984 137.365 205.461C136.44 204.933 135.726 204.187 135.225 203.223C134.724 202.254 134.474 201.108 134.474 199.784C134.474 198.494 134.724 197.361 135.225 196.387C135.726 195.412 136.431 194.652 137.341 194.108C138.256 193.563 139.328 193.291 140.559 193.291C141.386 193.291 142.157 193.425 142.87 193.691C143.589 193.953 144.215 194.348 144.749 194.876C145.288 195.404 145.707 196.068 146.007 196.869C146.306 197.664 146.456 198.595 146.456 199.662V200.618H135.862V198.461H143.181C143.181 197.96 143.072 197.517 142.854 197.13C142.636 196.743 142.334 196.441 141.947 196.223C141.566 196 141.122 195.888 140.616 195.888C140.088 195.888 139.619 196.011 139.211 196.256C138.808 196.496 138.492 196.82 138.264 197.228C138.035 197.631 137.918 198.08 137.912 198.576V200.626C137.912 201.246 138.027 201.783 138.256 202.235C138.49 202.687 138.819 203.035 139.244 203.28C139.669 203.525 140.172 203.648 140.755 203.648C141.141 203.648 141.495 203.593 141.817 203.484C142.138 203.375 142.413 203.212 142.642 202.994C142.87 202.777 143.044 202.51 143.164 202.194L146.382 202.406C146.219 203.179 145.884 203.855 145.378 204.432C144.877 205.004 144.229 205.45 143.434 205.771C142.644 206.087 141.732 206.245 140.698 206.245ZM168.106 189.273V206H165.051L157.774 195.472H157.652V206H154.115V189.273H157.219L164.439 199.793H164.586V189.273H168.106ZM176.631 206.245C175.362 206.245 174.265 205.975 173.339 205.436C172.419 204.892 171.709 204.135 171.208 203.166C170.707 202.191 170.456 201.061 170.456 199.776C170.456 198.48 170.707 197.348 171.208 196.379C171.709 195.404 172.419 194.647 173.339 194.108C174.265 193.563 175.362 193.291 176.631 193.291C177.9 193.291 178.994 193.563 179.914 194.108C180.84 194.647 181.553 195.404 182.054 196.379C182.555 197.348 182.806 198.48 182.806 199.776C182.806 201.061 182.555 202.191 182.054 203.166C181.553 204.135 180.84 204.892 179.914 205.436C178.994 205.975 177.9 206.245 176.631 206.245ZM176.647 203.55C177.225 203.55 177.706 203.386 178.093 203.06C178.48 202.728 178.771 202.276 178.967 201.704C179.168 201.132 179.269 200.481 179.269 199.752C179.269 199.022 179.168 198.371 178.967 197.8C178.771 197.228 178.48 196.776 178.093 196.444C177.706 196.112 177.225 195.946 176.647 195.946C176.065 195.946 175.575 196.112 175.177 196.444C174.785 196.776 174.488 197.228 174.287 197.8C174.091 198.371 173.993 199.022 173.993 199.752C173.993 200.481 174.091 201.132 174.287 201.704C174.488 202.276 174.785 202.728 175.177 203.06C175.575 203.386 176.065 203.55 176.647 203.55ZM191.741 193.455V196.068H184.186V193.455H191.741ZM185.901 190.449H189.381V202.145C189.381 202.466 189.43 202.717 189.528 202.896C189.626 203.071 189.762 203.193 189.936 203.264C190.116 203.335 190.323 203.37 190.557 203.37C190.72 203.37 190.884 203.356 191.047 203.329C191.21 203.297 191.335 203.272 191.423 203.256L191.97 205.845C191.796 205.899 191.551 205.962 191.235 206.033C190.919 206.109 190.535 206.155 190.083 206.172C189.245 206.204 188.509 206.093 187.878 205.837C187.252 205.581 186.764 205.183 186.416 204.644C186.067 204.105 185.896 203.424 185.901 202.602V190.449ZM194.008 206V193.455H197.487V206H194.008ZM195.756 191.837C195.238 191.837 194.794 191.666 194.424 191.323C194.059 190.974 193.877 190.558 193.877 190.073C193.877 189.594 194.059 189.183 194.424 188.84C194.794 188.491 195.238 188.317 195.756 188.317C196.273 188.317 196.714 188.491 197.079 188.84C197.449 189.183 197.634 189.594 197.634 190.073C197.634 190.558 197.449 190.974 197.079 191.323C196.714 191.666 196.273 191.837 195.756 191.837ZM205.943 206.245C204.658 206.245 203.552 205.973 202.627 205.428C201.706 204.878 200.998 204.116 200.503 203.141C200.013 202.167 199.768 201.045 199.768 199.776C199.768 198.491 200.016 197.364 200.511 196.395C201.012 195.42 201.723 194.661 202.643 194.116C203.563 193.566 204.658 193.291 205.926 193.291C207.021 193.291 207.979 193.49 208.801 193.887C209.623 194.285 210.274 194.843 210.753 195.562C211.232 196.281 211.497 197.125 211.546 198.094H208.262C208.17 197.468 207.925 196.964 207.527 196.583C207.135 196.196 206.62 196.003 205.983 196.003C205.444 196.003 204.973 196.15 204.57 196.444C204.173 196.732 203.863 197.154 203.639 197.71C203.416 198.265 203.304 198.938 203.304 199.727C203.304 200.528 203.413 201.208 203.631 201.769C203.854 202.33 204.167 202.757 204.57 203.051C204.973 203.346 205.444 203.493 205.983 203.493C206.381 203.493 206.738 203.411 207.053 203.248C207.375 203.084 207.639 202.847 207.846 202.537C208.058 202.221 208.197 201.843 208.262 201.402H211.546C211.491 202.36 211.23 203.204 210.761 203.934C210.299 204.658 209.659 205.224 208.842 205.632C208.025 206.041 207.059 206.245 205.943 206.245ZM219.491 206.245C218.2 206.245 217.089 205.984 216.158 205.461C215.233 204.933 214.519 204.187 214.018 203.223C213.517 202.254 213.267 201.108 213.267 199.784C213.267 198.494 213.517 197.361 214.018 196.387C214.519 195.412 215.224 194.652 216.134 194.108C217.048 193.563 218.121 193.291 219.352 193.291C220.179 193.291 220.95 193.425 221.663 193.691C222.382 193.953 223.008 194.348 223.542 194.876C224.081 195.404 224.5 196.068 224.8 196.869C225.099 197.664 225.249 198.595 225.249 199.662V200.618H214.655V198.461H221.974C221.974 197.96 221.865 197.517 221.647 197.13C221.429 196.743 221.127 196.441 220.74 196.223C220.359 196 219.915 195.888 219.409 195.888C218.881 195.888 218.412 196.011 218.004 196.256C217.601 196.496 217.285 196.82 217.057 197.228C216.828 197.631 216.711 198.08 216.705 198.576V200.626C216.705 201.246 216.82 201.783 217.048 202.235C217.283 202.687 217.612 203.035 218.037 203.28C218.461 203.525 218.965 203.648 219.548 203.648C219.934 203.648 220.288 203.593 220.61 203.484C220.931 203.375 221.206 203.212 221.434 202.994C221.663 202.777 221.837 202.51 221.957 202.194L225.175 202.406C225.012 203.179 224.677 203.855 224.171 204.432C223.67 205.004 223.022 205.45 222.227 205.771C221.437 206.087 220.525 206.245 219.491 206.245ZM232.908 206V189.273H239.605C240.836 189.273 241.862 189.455 242.685 189.82C243.507 190.185 244.125 190.691 244.539 191.339C244.952 191.982 245.159 192.722 245.159 193.561C245.159 194.214 245.029 194.789 244.767 195.284C244.506 195.774 244.147 196.177 243.689 196.493C243.237 196.803 242.72 197.024 242.137 197.154V197.318C242.774 197.345 243.371 197.525 243.926 197.857C244.487 198.189 244.942 198.655 245.29 199.254C245.639 199.847 245.813 200.555 245.813 201.377C245.813 202.265 245.592 203.057 245.151 203.754C244.716 204.445 244.07 204.993 243.215 205.396C242.361 205.799 241.307 206 240.055 206H232.908ZM236.445 203.109H239.328C240.313 203.109 241.032 202.921 241.484 202.545C241.936 202.164 242.162 201.658 242.162 201.026C242.162 200.563 242.05 200.155 241.827 199.801C241.604 199.447 241.285 199.169 240.871 198.968C240.463 198.766 239.976 198.665 239.409 198.665H236.445V203.109ZM236.445 196.272H239.066C239.551 196.272 239.981 196.188 240.357 196.019C240.738 195.845 241.037 195.6 241.255 195.284C241.478 194.968 241.59 194.59 241.59 194.149C241.59 193.544 241.375 193.057 240.945 192.687C240.52 192.317 239.916 192.131 239.132 192.131H236.445V196.272ZM253.717 206.245C252.448 206.245 251.351 205.975 250.425 205.436C249.505 204.892 248.795 204.135 248.294 203.166C247.793 202.191 247.542 201.061 247.542 199.776C247.542 198.48 247.793 197.348 248.294 196.379C248.795 195.404 249.505 194.647 250.425 194.108C251.351 193.563 252.448 193.291 253.717 193.291C254.986 193.291 256.08 193.563 257 194.108C257.926 194.647 258.639 195.404 259.14 196.379C259.641 197.348 259.892 198.48 259.892 199.776C259.892 201.061 259.641 202.191 259.14 203.166C258.639 204.135 257.926 204.892 257 205.436C256.08 205.975 254.986 206.245 253.717 206.245ZM253.733 203.55C254.31 203.55 254.792 203.386 255.179 203.06C255.566 202.728 255.857 202.276 256.053 201.704C256.254 201.132 256.355 200.481 256.355 199.752C256.355 199.022 256.254 198.371 256.053 197.8C255.857 197.228 255.566 196.776 255.179 196.444C254.792 196.112 254.31 195.946 253.733 195.946C253.151 195.946 252.661 196.112 252.263 196.444C251.871 196.776 251.574 197.228 251.373 197.8C251.177 198.371 251.079 199.022 251.079 199.752C251.079 200.481 251.177 201.132 251.373 201.704C251.574 202.276 251.871 202.728 252.263 203.06C252.661 203.386 253.151 203.55 253.733 203.55ZM265.732 206.237C264.931 206.237 264.218 206.098 263.592 205.82C262.965 205.537 262.47 205.121 262.105 204.571C261.746 204.015 261.566 203.324 261.566 202.496C261.566 201.799 261.694 201.214 261.95 200.74C262.206 200.266 262.554 199.885 262.995 199.597C263.436 199.308 263.937 199.09 264.498 198.943C265.065 198.796 265.658 198.693 266.279 198.633C267.008 198.557 267.596 198.486 268.043 198.42C268.489 198.35 268.813 198.246 269.015 198.11C269.216 197.974 269.317 197.772 269.317 197.506V197.457C269.317 196.939 269.154 196.539 268.827 196.256C268.506 195.973 268.048 195.831 267.455 195.831C266.829 195.831 266.33 195.97 265.96 196.248C265.59 196.52 265.345 196.863 265.225 197.277L262.007 197.016C262.17 196.253 262.492 195.594 262.971 195.039C263.45 194.478 264.068 194.048 264.825 193.749C265.587 193.444 266.469 193.291 267.471 193.291C268.168 193.291 268.835 193.373 269.472 193.536C270.115 193.7 270.684 193.953 271.179 194.296C271.68 194.639 272.075 195.08 272.364 195.619C272.652 196.153 272.797 196.792 272.797 197.538V206H269.497V204.26H269.399C269.197 204.652 268.928 204.998 268.59 205.298C268.253 205.592 267.847 205.823 267.373 205.992C266.9 206.155 266.352 206.237 265.732 206.237ZM266.728 203.836C267.24 203.836 267.692 203.735 268.084 203.533C268.476 203.326 268.783 203.049 269.007 202.7C269.23 202.352 269.342 201.957 269.342 201.516V200.185C269.233 200.255 269.083 200.321 268.892 200.381C268.707 200.435 268.498 200.487 268.263 200.536C268.029 200.579 267.795 200.62 267.561 200.658C267.327 200.691 267.115 200.721 266.924 200.748C266.516 200.808 266.159 200.903 265.854 201.034C265.549 201.165 265.312 201.342 265.143 201.565C264.975 201.783 264.89 202.055 264.89 202.382C264.89 202.855 265.062 203.218 265.405 203.468C265.753 203.713 266.194 203.836 266.728 203.836ZM275.496 206V193.455H278.869V195.643H279C279.229 194.865 279.612 194.277 280.151 193.879C280.691 193.476 281.311 193.275 282.014 193.275C282.188 193.275 282.376 193.286 282.577 193.308C282.779 193.329 282.956 193.359 283.108 193.397V196.485C282.945 196.436 282.719 196.392 282.43 196.354C282.142 196.316 281.878 196.297 281.638 196.297C281.126 196.297 280.669 196.408 280.266 196.632C279.868 196.85 279.552 197.154 279.318 197.547C279.09 197.939 278.975 198.391 278.975 198.902V206H275.496ZM288.946 206.204C287.993 206.204 287.13 205.959 286.357 205.469C285.589 204.974 284.979 204.247 284.527 203.288C284.081 202.325 283.858 201.143 283.858 199.744C283.858 198.306 284.089 197.111 284.552 196.158C285.015 195.2 285.63 194.484 286.398 194.01C287.171 193.531 288.018 193.291 288.938 193.291C289.64 193.291 290.226 193.411 290.694 193.651C291.168 193.885 291.549 194.179 291.837 194.533C292.131 194.881 292.355 195.224 292.507 195.562H292.613V189.273H296.084V206H292.654V203.991H292.507C292.344 204.339 292.112 204.685 291.813 205.028C291.519 205.366 291.135 205.646 290.661 205.869C290.193 206.093 289.621 206.204 288.946 206.204ZM290.049 203.435C290.609 203.435 291.083 203.283 291.47 202.978C291.862 202.668 292.161 202.235 292.368 201.679C292.581 201.124 292.687 200.473 292.687 199.727C292.687 198.981 292.583 198.333 292.376 197.783C292.169 197.233 291.87 196.809 291.478 196.509C291.086 196.21 290.609 196.06 290.049 196.06C289.477 196.06 288.995 196.215 288.603 196.526C288.211 196.836 287.914 197.266 287.713 197.816C287.511 198.366 287.41 199.003 287.41 199.727C287.41 200.457 287.511 201.102 287.713 201.663C287.92 202.218 288.216 202.654 288.603 202.97C288.995 203.28 289.477 203.435 290.049 203.435Z" fill="white"/>
<circle cx="179.5" cy="93.5" r="70.5" fill="white"/>
<path d="M183.039 46.7126C183.046 48.6999 181.483 50.2995 179.533 50.3019C177.58 50.3019 176.012 48.7072 176.017 46.7224C176.022 44.7671 177.54 43.2141 179.476 43.1871C181.447 43.1601 183.032 44.7278 183.039 46.7126Z" fill="#A26C3F"/>
<path d="M178.901 40H180.921C180.955 40.0466 180.982 40.1251 181.021 40.1349C184.702 40.8783 186.896 43.9941 186.181 47.5858C186.061 48.1918 186.258 48.3783 186.687 48.6334C192.117 51.8596 197.54 55.0956 202.955 58.3439C203.446 58.6383 203.934 58.7585 204.503 58.7585C210.375 58.7438 216.247 58.7389 222.118 58.7561C225.046 58.7634 226.994 60.736 226.996 63.6628C227.001 85.4685 227.001 107.272 226.996 129.077C226.996 132.061 225.048 133.989 222.05 133.994C218.96 134.001 215.871 133.996 212.782 133.994C211.477 133.994 211.202 133.783 210.841 132.537C211.109 131.558 211.756 131.214 212.757 131.226C215.879 131.261 218.997 131.236 222.118 131.224C223.492 131.217 224.226 130.498 224.226 129.129C224.231 107.316 224.231 85.5053 224.226 63.6923C224.226 62.2546 223.515 61.5431 222.089 61.521C220.712 61.499 219.336 61.5039 217.959 61.5039C191.403 61.5039 164.849 61.5039 138.293 61.5039C136.364 61.5039 135.758 62.1074 135.758 64.021C135.758 85.5887 135.758 107.156 135.758 128.724C135.758 130.652 136.347 131.241 138.275 131.241C148.434 131.241 158.59 131.241 168.748 131.241C180.923 131.241 193.101 131.241 205.276 131.241C206.582 131.241 206.893 131.457 207.232 132.564C206.989 133.729 206.636 133.994 205.303 133.994C186.631 133.994 167.958 133.994 149.283 133.994C145.433 133.994 141.581 134.013 137.731 133.987C135.628 133.972 134.148 132.966 133.309 131.023C133.233 130.846 133.267 130.576 133 130.508C133.005 107.74 133.005 84.9753 133.005 62.2129C133.069 62.1565 133.164 62.1148 133.191 62.0461C134.077 59.6614 135.854 58.7217 138.325 58.7365C144.076 58.7733 149.827 58.7463 155.581 58.7512C156.045 58.7512 156.465 58.6997 156.887 58.447C162.383 55.1496 167.887 51.8621 173.4 48.5942C173.842 48.3317 173.923 48.1084 173.82 47.5883C173.211 44.5093 174.87 41.5456 177.741 40.4073C178.126 40.2552 178.577 40.3067 178.904 40H178.901ZM197.927 58.7168L197.974 58.5696C193.658 55.9936 189.339 53.4224 185.036 50.8268C184.601 50.5643 184.444 50.8488 184.204 51.0525C181.662 53.1943 178.347 53.2188 175.847 51.0721C175.461 50.7409 175.238 50.6747 174.777 50.9519C170.654 53.4445 166.51 55.9028 162.378 58.3783C162.26 58.4494 161.988 58.4543 162.098 58.7193H197.927V58.7168ZM183.512 46.3003C183.504 44.3155 181.919 42.7478 179.949 42.7748C178.013 42.8018 176.494 44.3523 176.489 46.3101C176.484 48.2949 178.052 49.892 180.006 49.8896C181.956 49.8896 183.519 48.2875 183.512 46.3003V46.3003Z" fill="#020202"/>
<path d="M210.842 132.535C209.64 132.544 208.435 132.552 207.233 132.561C206.894 131.455 206.582 131.239 205.277 131.239C193.102 131.239 180.924 131.239 168.749 131.239C158.59 131.239 148.435 131.239 138.276 131.239C136.348 131.239 135.759 130.65 135.759 128.722C135.759 107.154 135.759 85.5866 135.759 64.019C135.759 62.1053 136.365 61.5018 138.293 61.5018C164.85 61.5018 191.404 61.5018 217.96 61.5018C219.337 61.5018 220.713 61.4994 222.09 61.519C223.518 61.5411 224.227 62.255 224.227 63.6902C224.232 85.5032 224.232 107.314 224.227 129.127C224.227 130.496 223.493 131.215 222.119 131.222C218.998 131.237 215.877 131.259 212.758 131.224C211.76 131.215 211.109 131.556 210.842 132.535ZM219.283 78.9282C220.269 78.6706 220.613 78.0204 220.603 77.0219C220.568 73.6608 220.595 70.2972 220.588 66.9336C220.586 65.6431 220.102 65.1794 218.807 65.1794C203.766 65.1794 188.727 65.1794 173.686 65.1794C168.673 65.1794 163.66 65.1794 158.644 65.1794C157.432 65.1794 157.03 65.5082 156.824 66.6343C155.639 66.6343 154.454 66.6343 153.266 66.6367C153.05 65.5303 152.653 65.1843 151.531 65.1819C148.226 65.1745 144.923 65.1794 141.618 65.1794C139.775 65.1794 139.43 65.5253 139.43 67.3727C139.43 86.7078 139.43 106.045 139.43 125.38C139.43 127.225 139.771 127.566 141.623 127.566C167.262 127.566 192.903 127.566 218.542 127.566C220.208 127.566 220.588 127.189 220.588 125.518C220.588 117.471 220.588 109.426 220.588 101.379C220.588 95.6896 220.591 89.9978 220.588 84.3084C220.588 83.1112 220.215 82.6843 219.096 82.5371C219.489 81.3521 219.155 80.1279 219.283 78.9282Z" fill="#A26C3F"/>
<path d="M153.265 66.6389C154.45 66.6389 155.635 66.6389 156.822 66.6389C157.134 67.7405 157.426 67.9392 158.773 67.9392C177.048 67.9392 195.323 67.9392 213.596 67.9392C213.962 67.9392 214.327 67.9638 214.693 67.976C214.693 86.9112 214.695 105.849 214.698 124.784C214.575 124.794 214.455 124.811 214.332 124.811C190.534 124.811 166.735 124.811 142.935 124.828C142.24 124.828 142.169 124.583 142.171 123.992C142.186 105.608 142.189 87.2252 142.164 68.8421C142.164 68.0374 142.417 67.9073 143.143 67.9196C145.957 67.9613 148.772 67.927 151.586 67.9417C152.511 67.9466 153.117 67.6031 153.267 66.6365L153.265 66.6389ZM171.231 88.393C171.231 84.5682 171.233 80.7434 171.231 76.921C171.231 75.5472 170.782 75.0982 169.43 75.0908C167.808 75.0835 166.186 75.0736 164.564 75.0982C164.066 75.1055 163.84 75.0565 163.816 74.4358C163.73 72.2842 161.958 70.6527 159.848 70.6772C157.767 70.7017 156.042 72.3234 155.971 74.4309C155.949 75.0491 155.733 75.1055 155.228 75.0982C153.638 75.0736 152.045 75.0859 150.455 75.0884C148.976 75.0908 148.553 75.5128 148.553 77.002C148.551 84.5903 148.551 92.1762 148.553 99.7645C148.553 101.239 148.98 101.654 150.48 101.656C156.751 101.656 163.023 101.656 169.297 101.656C170.826 101.656 171.231 101.241 171.231 99.681C171.231 95.9176 171.231 92.1541 171.231 88.3906V88.393ZM195.561 96.5505C200.547 96.5505 205.531 96.5505 210.517 96.5505C211.95 96.5505 212.382 96.1285 212.382 94.7031C212.386 88.8003 212.386 82.8975 212.382 76.9946C212.382 75.5177 211.947 75.0933 210.463 75.0908C207.067 75.0884 203.673 75.0859 200.277 75.0957C199.821 75.0957 199.524 75.1252 199.492 74.4628C199.392 72.3087 197.721 70.7164 195.652 70.6796C193.596 70.6428 191.82 72.1934 191.663 74.3205C191.606 75.0761 191.319 75.1031 190.735 75.1006C187.4 75.081 184.068 75.0884 180.734 75.0908C179.195 75.0908 178.761 75.5202 178.761 77.0462C178.759 82.8877 178.761 88.7292 178.761 94.5707C178.761 96.1555 179.166 96.5505 180.788 96.5505C185.712 96.5505 190.637 96.5505 195.559 96.5505H195.561ZM195.52 121.126C200.503 121.126 205.487 121.126 210.47 121.126C211.908 121.126 212.352 120.694 212.352 119.286C212.357 115.128 212.357 110.971 212.352 106.813C212.352 105.405 211.915 104.99 210.468 104.99C207.042 104.99 203.619 104.978 200.194 105C199.662 105.002 199.49 104.904 199.47 104.315C199.402 102.245 197.723 100.628 195.692 100.579C193.589 100.527 191.812 102.026 191.64 104.139C191.582 104.858 191.402 105.015 190.718 105.007C187.356 104.973 183.992 104.99 180.628 104.993C179.163 104.993 178.739 105.427 178.739 106.921C178.739 110.986 178.739 115.054 178.739 119.119C178.739 120.704 179.163 121.128 180.748 121.128C185.671 121.128 190.593 121.128 195.515 121.128L195.52 121.126ZM159.806 121.126C163.048 121.126 166.291 121.133 169.533 121.124C170.728 121.119 171.221 120.638 171.226 119.468C171.238 116.47 171.238 113.471 171.226 110.476C171.221 109.352 170.723 108.869 169.592 108.859C168.002 108.847 166.409 108.837 164.819 108.866C164.26 108.876 164 108.842 163.958 108.128C163.828 105.959 162.046 104.396 159.921 104.446C157.853 104.492 156.197 106.104 156.116 108.256C156.094 108.852 155.853 108.866 155.407 108.862C153.723 108.844 152.043 108.852 150.359 108.857C149 108.862 148.553 109.303 148.551 110.67C148.544 113.545 148.544 116.42 148.551 119.296C148.553 120.697 149.003 121.126 150.443 121.128C153.564 121.131 156.683 121.128 159.804 121.128L159.806 121.126Z" fill="#F4DB91"/>
<path d="M153.264 66.6391C153.114 67.6033 152.508 67.9492 151.583 67.9443C148.769 67.9296 145.955 67.9639 143.14 67.9222C142.414 67.9124 142.161 68.04 142.161 68.8447C142.186 87.2278 142.183 105.611 142.169 123.994C142.169 124.585 142.24 124.831 142.932 124.831C166.73 124.811 190.529 124.814 214.329 124.814C214.452 124.814 214.572 124.796 214.695 124.787C215.335 124.796 215.978 124.811 216.619 124.814C217.816 124.819 217.816 124.814 217.816 123.609C217.816 110.55 217.816 97.4903 217.816 84.431C217.816 83.1749 218.032 82.8633 219.09 82.5394C220.208 82.6866 220.579 83.1135 220.581 84.3108C220.586 90.0002 220.581 95.692 220.581 101.381C220.581 109.428 220.581 117.473 220.581 125.52C220.581 127.191 220.201 127.569 218.535 127.569C192.896 127.569 167.255 127.569 141.616 127.569C139.761 127.569 139.423 127.23 139.423 125.383C139.423 106.048 139.423 86.7102 139.423 67.3751C139.423 65.5277 139.769 65.1818 141.612 65.1818C144.917 65.1818 148.219 65.1769 151.525 65.1842C152.646 65.1867 153.041 65.5351 153.259 66.6391H153.264Z" fill="#020202"/>
<path d="M214.694 67.9757C214.328 67.9634 213.963 67.9389 213.597 67.9389C195.322 67.9389 177.047 67.9389 158.774 67.9389C157.427 67.9389 157.135 67.7401 156.823 66.6386C157.032 65.5149 157.432 65.1862 158.644 65.1837C163.657 65.1813 168.67 65.1837 173.685 65.1837C188.726 65.1837 203.765 65.1837 218.806 65.1837C220.102 65.1837 220.585 65.6474 220.588 66.9379C220.595 70.3015 220.57 73.6626 220.602 77.0262C220.612 78.0247 220.269 78.6748 219.282 78.9324C218.031 78.5424 217.822 78.2725 217.82 76.9943C217.815 74.9555 217.842 72.9143 217.807 70.8755C217.793 69.9163 218.252 68.6037 217.611 68.091C216.954 67.5635 215.687 67.929 214.689 67.9806L214.694 67.9757Z" fill="#020202"/>
<path d="M214.694 67.9762C215.693 67.9246 216.959 67.5591 217.617 68.0866C218.255 68.5993 217.796 69.9119 217.813 70.8712C217.847 72.9099 217.82 74.9511 217.825 76.9899C217.825 78.2681 218.034 78.538 219.288 78.9281C219.16 80.1278 219.491 81.3495 219.101 82.537C218.041 82.8608 217.828 83.1724 217.828 84.4285C217.828 97.4879 217.828 110.547 217.828 123.607C217.828 124.811 217.828 124.816 216.63 124.811C215.987 124.811 215.347 124.794 214.707 124.784C214.707 105.849 214.704 86.9113 214.702 67.9762H214.694Z" fill="#E9B35A"/>
<path d="M195.563 96.5476C190.638 96.5476 185.714 96.5476 180.791 96.5476C179.172 96.5476 178.767 96.1526 178.765 94.5678C178.765 88.7263 178.765 82.8848 178.765 77.0433C178.765 75.5173 179.201 75.0904 180.737 75.0879C184.072 75.0879 187.404 75.0757 190.739 75.0977C191.323 75.1002 191.61 75.0732 191.666 74.3176C191.823 72.188 193.6 70.6375 195.656 70.6768C197.724 70.7136 199.393 72.3058 199.496 74.4599C199.528 75.1247 199.825 75.0953 200.281 75.0928C203.677 75.0855 207.071 75.0855 210.466 75.0879C211.951 75.0879 212.383 75.5148 212.385 76.9918C212.39 82.8946 212.39 88.7974 212.385 94.7002C212.385 96.1281 211.953 96.5476 210.52 96.5476C205.535 96.5501 200.551 96.5476 195.565 96.5476H195.563ZM195.509 93.7974C199.94 93.7974 204.374 93.7876 208.805 93.8097C209.389 93.8121 209.652 93.7532 209.647 93.0467C209.61 88.2479 209.61 83.449 209.647 78.6502C209.652 77.9093 209.387 77.8185 208.751 77.8259C206.092 77.8578 203.427 77.9388 200.774 77.8038C199.059 77.7155 197.675 77.9633 196.875 79.6463C196.836 79.7273 196.767 79.7935 196.704 79.8598C196.009 80.6154 195.165 80.6375 194.488 79.8794C194.061 79.401 193.656 78.898 193.308 78.3632C193.04 77.9535 192.734 77.8259 192.255 77.8284C188.955 77.8504 185.652 77.8627 182.352 77.821C181.648 77.8136 181.496 78.0173 181.501 78.6919C181.53 83.4294 181.532 88.1669 181.501 92.9044C181.496 93.6134 181.66 93.8219 182.396 93.8146C186.766 93.7778 191.139 93.7949 195.511 93.7949L195.509 93.7974ZM195.59 76.7562C196.053 76.165 196.441 75.5958 196.682 74.9456C196.868 74.4378 196.718 73.9815 196.262 73.6699C195.781 73.3387 195.283 73.3509 194.836 73.7263C194.429 74.0673 194.267 74.504 194.505 75.0217C194.782 75.6203 195.101 76.192 195.587 76.7587L195.59 76.7562Z" fill="#020202"/>
<path d="M195.523 121.124C190.601 121.124 185.679 121.124 180.757 121.124C179.172 121.124 178.747 120.699 178.747 119.114C178.747 115.049 178.747 110.981 178.747 106.916C178.747 105.422 179.172 104.988 180.636 104.988C184 104.985 187.362 104.968 190.726 105.002C191.411 105.01 191.59 104.853 191.649 104.134C191.818 102.022 193.597 100.523 195.7 100.574C197.731 100.623 199.407 102.24 199.478 104.311C199.498 104.902 199.67 105 200.202 104.995C203.625 104.973 207.05 104.983 210.476 104.985C211.924 104.985 212.358 105.402 212.36 106.808C212.365 110.967 212.365 115.123 212.36 119.281C212.36 120.687 211.914 121.119 210.478 121.121C205.495 121.124 200.511 121.121 195.528 121.121L195.523 121.124ZM195.508 118.373C199.942 118.373 204.374 118.361 208.807 118.388C209.44 118.393 209.629 118.238 209.622 117.588C209.585 114.563 209.583 111.536 209.622 108.511C209.632 107.843 209.426 107.718 208.805 107.726C206.022 107.76 203.237 107.824 200.46 107.708C198.941 107.645 197.719 107.843 197.008 109.34C196.919 109.526 196.747 109.681 196.598 109.831C195.935 110.491 195.138 110.5 194.512 109.813C194.083 109.34 193.678 108.835 193.329 108.3C193.047 107.865 192.718 107.726 192.208 107.731C188.908 107.753 185.605 107.758 182.302 107.731C181.687 107.726 181.471 107.846 181.478 108.516C181.517 111.541 181.515 114.568 181.478 117.593C181.471 118.253 181.674 118.395 182.3 118.39C186.702 118.363 191.104 118.376 195.506 118.376L195.508 118.373ZM195.562 106.769C195.962 106.087 196.271 105.572 196.566 105.047C196.88 104.487 196.782 103.977 196.286 103.587C195.83 103.224 195.317 103.224 194.856 103.579C194.362 103.96 194.225 104.463 194.542 105.029C194.836 105.557 195.153 106.075 195.562 106.771V106.769Z" fill="#020202"/>
<path d="M159.806 121.123C156.685 121.123 153.566 121.126 150.445 121.123C149.005 121.123 148.556 120.692 148.553 119.291C148.546 116.415 148.546 113.54 148.553 110.665C148.556 109.298 149.002 108.856 150.362 108.852C152.045 108.847 153.726 108.839 155.409 108.856C155.856 108.861 156.096 108.847 156.118 108.25C156.199 106.099 157.855 104.489 159.924 104.44C162.046 104.391 163.83 105.957 163.96 108.123C164.002 108.837 164.262 108.871 164.821 108.861C166.411 108.832 168.001 108.842 169.594 108.854C170.725 108.864 171.223 109.345 171.228 110.471C171.24 113.469 171.24 116.467 171.228 119.462C171.223 120.633 170.73 121.116 169.535 121.118C166.294 121.128 163.05 121.121 159.808 121.121L159.806 121.123ZM159.899 118.373C162.53 118.373 165.16 118.363 167.79 118.383C168.266 118.385 168.499 118.317 168.49 117.752C168.455 115.888 168.463 114.021 168.487 112.156C168.492 111.707 168.345 111.587 167.911 111.594C166.627 111.619 165.337 111.67 164.058 111.582C163.069 111.513 162.373 111.766 161.904 112.671C161.713 113.044 161.394 113.358 161.102 113.67C160.434 114.379 159.605 114.384 158.952 113.65C158.506 113.15 158.093 112.615 157.713 112.061C157.48 111.72 157.227 111.589 156.813 111.594C155.191 111.619 153.569 111.626 151.949 111.594C151.419 111.585 151.282 111.751 151.292 112.264C151.321 114.067 151.326 115.873 151.292 117.679C151.282 118.243 151.441 118.4 152.008 118.393C154.639 118.361 157.269 118.378 159.899 118.378V118.373ZM160.039 110.49C160.505 109.953 160.819 109.374 161.104 108.775C161.357 108.246 161.17 107.821 160.773 107.48C160.326 107.097 159.823 107.097 159.345 107.429C158.893 107.743 158.729 108.206 158.933 108.709C159.195 109.35 159.524 109.963 160.039 110.49V110.49Z" fill="#020202"/>
<path d="M162.738 90.4664C162.736 91.9188 161.504 93.1627 160.051 93.1725C158.592 93.1848 157.362 91.9728 157.34 90.4983C157.318 88.992 158.574 87.7236 160.064 87.7456C161.516 87.7677 162.741 89.0116 162.738 90.464V90.4664Z" fill="#F4DB91"/>
<path d="M156.062 98.8884C156.433 97.3649 157.942 96.1186 159.5 95.991C161.412 95.834 163.274 96.8374 163.895 98.3315C164.054 98.7167 164.025 98.8933 163.559 98.8909C161.066 98.8835 158.57 98.8884 156.062 98.8884Z" fill="#A26C3F"/>
<path d="M159.908 76.7495C159.413 76.2024 159.094 75.6185 158.814 75.0101C158.554 74.4434 158.775 73.9895 159.231 73.6583C159.668 73.3394 160.161 73.3443 160.588 73.6804C161.03 74.0288 161.233 74.4728 160.961 75.0445C160.684 75.621 160.37 76.1706 159.911 76.7495H159.908Z" fill="#E9B35A"/>
<path d="M195.512 93.7976C191.139 93.7976 186.769 93.778 182.397 93.8173C181.661 93.8246 181.496 93.6136 181.501 92.9071C181.533 88.1696 181.531 83.4321 181.501 78.6946C181.496 78.02 181.651 77.8163 182.353 77.8237C185.653 77.8629 188.955 77.8507 192.256 77.831C192.737 77.8286 193.043 77.9586 193.308 78.3659C193.657 78.9007 194.062 79.4037 194.489 79.8821C195.166 80.6402 196.01 80.6181 196.704 79.8624C196.766 79.7962 196.837 79.7275 196.876 79.649C197.676 77.9684 199.06 77.7206 200.775 77.8065C203.427 77.9414 206.092 77.8605 208.752 77.8286C209.387 77.8212 209.652 77.912 209.647 78.6529C209.611 83.4517 209.611 88.2505 209.647 93.0494C209.652 93.7559 209.39 93.8148 208.806 93.8124C204.374 93.7903 199.941 93.8001 195.509 93.8001L195.512 93.7976ZM195.497 85.8143C198.616 85.8143 201.734 85.8143 204.853 85.8143C205.128 85.8143 205.407 85.8266 205.675 85.78C206.448 85.6475 206.872 85.1765 206.848 84.3889C206.826 83.6456 206.409 83.2064 205.67 83.0984C205.43 83.0641 205.182 83.0616 204.939 83.0616C198.702 83.0616 192.464 83.0616 186.227 83.0616C185.923 83.0616 185.609 83.0567 185.317 83.1254C184.634 83.2825 184.266 83.756 184.264 84.438C184.264 85.0759 184.598 85.5518 185.236 85.7211C185.555 85.8045 185.901 85.8094 186.234 85.8094C189.321 85.8143 192.41 85.8119 195.499 85.8143H195.497ZM201.386 88.4419C200.1 88.4419 198.817 88.4345 197.531 88.4444C196.474 88.4542 195.828 88.9964 195.848 89.8354C195.865 90.645 196.496 91.1848 197.489 91.1897C200.09 91.1995 202.691 91.202 205.292 91.1897C206.281 91.1848 206.872 90.6303 206.86 89.7864C206.848 88.9694 206.296 88.4615 205.334 88.4493C204.019 88.4296 202.704 88.4444 201.386 88.4444V88.4419ZM188.649 91.1921C189.628 91.1921 190.604 91.2118 191.583 91.1872C192.511 91.1652 193.087 90.6205 193.09 89.8133C193.095 88.9915 192.54 88.4566 191.598 88.4468C189.672 88.4296 187.748 88.4321 185.822 88.4468C184.89 88.4542 184.284 88.9767 184.252 89.7545C184.22 90.569 184.845 91.1652 185.805 91.1872C186.752 91.2093 187.699 91.1921 188.646 91.1921H188.649Z" fill="#F7EED6"/>
<path d="M195.591 76.7565C195.105 76.1897 194.786 75.6181 194.509 75.0195C194.268 74.5018 194.43 74.0651 194.84 73.7241C195.287 73.3512 195.785 73.3389 196.266 73.6677C196.72 73.9817 196.872 74.438 196.685 74.9434C196.445 75.5936 196.057 76.1628 195.593 76.754L195.591 76.7565Z" fill="#E9B35A"/>
<path d="M195.508 118.373C191.106 118.373 186.704 118.361 182.302 118.388C181.676 118.393 181.472 118.25 181.48 117.59C181.517 114.565 181.519 111.538 181.48 108.513C181.47 107.843 181.688 107.72 182.304 107.728C185.604 107.757 188.907 107.752 192.21 107.728C192.723 107.725 193.049 107.865 193.331 108.297C193.68 108.832 194.084 109.337 194.514 109.811C195.14 110.498 195.939 110.488 196.6 109.828C196.752 109.678 196.921 109.524 197.009 109.337C197.718 107.841 198.943 107.644 200.462 107.706C203.239 107.821 206.024 107.757 208.807 107.723C209.427 107.715 209.634 107.841 209.624 108.508C209.584 111.533 209.587 114.56 209.624 117.585C209.631 118.238 209.442 118.39 208.809 118.385C204.378 118.358 199.944 118.371 195.51 118.371L195.508 118.373ZM200.14 113C198.457 113 196.776 112.99 195.093 113.003C194.082 113.01 193.461 113.523 193.437 114.325C193.41 115.159 194.062 115.743 195.105 115.748C198.469 115.76 201.836 115.763 205.2 115.748C206.277 115.743 206.861 115.198 206.831 114.315C206.804 113.469 206.252 113.012 205.187 113.005C203.504 112.993 201.823 113.003 200.14 113.003V113ZM187.472 113.007C186.831 113.007 186.188 112.98 185.548 113.015C184.763 113.056 184.294 113.515 184.248 114.286C184.201 115.058 184.623 115.613 185.396 115.691C186.763 115.831 188.142 115.824 189.508 115.696C190.276 115.625 190.703 115.095 190.669 114.305C190.635 113.518 190.176 113.069 189.395 113.02C188.757 112.98 188.115 113.012 187.472 113.01V113.007Z" fill="#F7EED6"/>
<path d="M195.562 106.769C195.152 106.072 194.835 105.557 194.541 105.027C194.225 104.46 194.362 103.958 194.855 103.577C195.316 103.221 195.829 103.224 196.286 103.585C196.779 103.977 196.877 104.487 196.565 105.044C196.271 105.569 195.962 106.085 195.562 106.767V106.769Z" fill="#E9B35A"/>
<path d="M159.902 118.373C157.272 118.373 154.641 118.356 152.011 118.388C151.444 118.395 151.285 118.238 151.294 117.674C151.329 115.871 151.326 114.065 151.294 112.259C151.287 111.744 151.422 111.577 151.952 111.59C153.571 111.624 155.193 111.617 156.815 111.59C157.23 111.585 157.483 111.715 157.716 112.056C158.094 112.61 158.508 113.145 158.955 113.646C159.608 114.377 160.437 114.374 161.104 113.665C161.396 113.354 161.715 113.04 161.907 112.667C162.375 111.761 163.072 111.511 164.061 111.577C165.339 111.666 166.63 111.614 167.913 111.59C168.345 111.582 168.495 111.703 168.49 112.152C168.468 114.016 168.46 115.883 168.492 117.748C168.502 118.312 168.269 118.383 167.793 118.378C165.163 118.361 162.532 118.368 159.902 118.368V118.373Z" fill="#F7EED6"/>
<path d="M160.042 110.491C159.529 109.961 159.198 109.348 158.935 108.71C158.729 108.207 158.894 107.743 159.348 107.429C159.824 107.098 160.327 107.098 160.776 107.481C161.176 107.822 161.36 108.246 161.107 108.776C160.822 109.375 160.508 109.954 160.042 110.491V110.491Z" fill="#E9B35A"/>
<path d="M195.495 85.8143C192.406 85.8143 189.319 85.8168 186.23 85.8119C185.896 85.8119 185.55 85.807 185.231 85.7236C184.593 85.5543 184.257 85.0783 184.26 84.4404C184.26 83.7584 184.63 83.2824 185.312 83.1279C185.607 83.0616 185.918 83.0641 186.223 83.0641C192.46 83.0616 198.697 83.0616 204.935 83.0641C205.178 83.0641 205.425 83.0641 205.666 83.1009C206.404 83.2088 206.822 83.648 206.844 84.3914C206.866 85.1789 206.441 85.65 205.671 85.7824C205.403 85.8291 205.124 85.8168 204.849 85.8168C201.73 85.8168 198.611 85.8168 195.493 85.8168L195.495 85.8143Z" fill="#020202"/>
<path d="M201.383 88.4416C202.698 88.4416 204.013 88.4269 205.331 88.4465C206.29 88.4612 206.845 88.9666 206.857 89.7836C206.87 90.6275 206.278 91.182 205.289 91.1869C202.688 91.1992 200.088 91.1992 197.487 91.1869C196.495 91.182 195.862 90.6447 195.845 89.8326C195.828 88.9936 196.471 88.4514 197.528 88.4416C198.814 88.4318 200.097 88.4391 201.383 88.4416Z" fill="#020202"/>
<path d="M188.645 91.1922C187.698 91.1922 186.751 91.2094 185.804 91.1873C184.842 91.1653 184.216 90.5691 184.25 89.7546C184.282 88.9768 184.888 88.4543 185.821 88.4469C187.747 88.4346 189.671 88.4297 191.597 88.4469C192.539 88.4567 193.094 88.9916 193.089 89.8134C193.084 90.6181 192.51 91.1628 191.582 91.1873C190.605 91.2119 189.626 91.1922 188.647 91.1922H188.645Z" fill="#020202"/>
<path d="M200.144 113C201.827 113 203.508 112.99 205.191 113.003C206.256 113.01 206.808 113.466 206.835 114.313C206.864 115.196 206.278 115.741 205.203 115.746C201.839 115.76 198.473 115.76 195.109 115.746C194.066 115.741 193.416 115.157 193.44 114.323C193.465 113.523 194.088 113.008 195.096 113C196.78 112.988 198.46 112.998 200.144 112.998V113Z" fill="#020202"/>
<path d="M187.474 113.01C188.115 113.01 188.758 112.978 189.398 113.02C190.178 113.069 190.637 113.518 190.672 114.305C190.706 115.095 190.279 115.623 189.511 115.696C188.144 115.824 186.765 115.831 185.399 115.691C184.628 115.613 184.206 115.059 184.25 114.286C184.297 113.515 184.765 113.057 185.551 113.015C186.191 112.981 186.832 113.007 187.474 113.01V113.01Z" fill="#020202"/>
<path d="M176.493 69.2368H146.264V103.312H176.493V69.2368Z" fill="#F4DB91"/>
<path d="M214.05 70.3044H146.264V123.246H214.05V70.3044Z" fill="#F4DB91"/>
<path d="M183.759 72.4236H149.652C149.044 72.4236 148.551 72.9168 148.551 73.5251V73.7582C148.551 74.3666 149.044 74.8598 149.652 74.8598H183.759C184.367 74.8598 184.861 74.3666 184.861 73.7582V73.5251C184.861 72.9168 184.367 72.4236 183.759 72.4236Z" fill="black"/>
<path d="M172.349 107.143H147.366C146.848 107.143 146.429 107.38 146.429 107.672V107.958C146.429 108.25 146.848 108.486 147.366 108.486H172.349C172.867 108.486 173.286 108.25 173.286 107.958V107.672C173.286 107.38 172.867 107.143 172.349 107.143Z" fill="black"/>
<path d="M174.222 109.754H151.253C150.777 109.754 150.392 109.991 150.392 110.283V110.569C150.392 110.861 150.777 111.097 151.253 111.097H174.222C174.698 111.097 175.083 110.861 175.083 110.569V110.283C175.083 109.991 174.698 109.754 174.222 109.754Z" fill="black"/>
<path d="M171.523 112.922H148.554C148.078 112.922 147.692 113.159 147.692 113.451V113.737C147.692 114.028 148.078 114.265 148.554 114.265H171.523C171.998 114.265 172.384 114.028 172.384 113.737V113.451C172.384 113.159 171.998 112.922 171.523 112.922Z" fill="black"/>
<path d="M173.561 116.474H150.592C150.116 116.474 149.73 116.71 149.73 117.002V117.288C149.73 117.58 150.116 117.817 150.592 117.817H173.561C174.036 117.817 174.422 117.58 174.422 117.288V117.002C174.422 116.71 174.036 116.474 173.561 116.474Z" fill="black"/>
<path d="M171.323 119.45H148.354C147.879 119.45 147.493 119.687 147.493 119.979V120.265C147.493 120.556 147.879 120.793 148.354 120.793H171.323C171.799 120.793 172.185 120.556 172.185 120.265V119.979C172.185 119.687 171.799 119.45 171.323 119.45Z" fill="black"/>
<path d="M205.879 106.492H182.91C182.434 106.492 182.049 106.728 182.049 107.02V107.306C182.049 107.598 182.434 107.835 182.91 107.835H205.879C206.355 107.835 206.74 107.598 206.74 107.306V107.02C206.74 106.728 206.355 106.492 205.879 106.492Z" fill="black"/>
<path d="M208.778 109.659H185.809C185.333 109.659 184.947 109.895 184.947 110.187V110.473C184.947 110.765 185.333 111.002 185.809 111.002H208.778C209.253 111.002 209.639 110.765 209.639 110.473V110.187C209.639 109.895 209.253 109.659 208.778 109.659Z" fill="black"/>
<path d="M206.078 112.826H183.109C182.634 112.826 182.248 113.063 182.248 113.355V113.641C182.248 113.933 182.634 114.169 183.109 114.169H206.078C206.554 114.169 206.94 113.933 206.94 113.641V113.355C206.94 113.063 206.554 112.826 206.078 112.826Z" fill="black"/>
<path d="M208.114 116.376H185.144C184.669 116.376 184.283 116.613 184.283 116.905V117.191C184.283 117.483 184.669 117.719 185.144 117.719H208.114C208.589 117.719 208.975 117.483 208.975 117.191V116.905C208.975 116.613 208.589 116.376 208.114 116.376Z" fill="black"/>
<path d="M205.879 119.352H182.91C182.434 119.352 182.049 119.588 182.049 119.88V120.166C182.049 120.458 182.434 120.695 182.91 120.695H205.879C206.355 120.695 206.74 120.458 206.74 120.166V119.88C206.74 119.588 206.355 119.352 205.879 119.352Z" fill="black"/>
<path d="M207.864 77.5125H154.177C153.571 77.5125 153.08 78.0034 153.08 78.6091C153.08 79.2148 153.571 79.7058 154.177 79.7058H207.864C208.47 79.7058 208.961 79.2148 208.961 78.6091C208.961 78.0034 208.47 77.5125 207.864 77.5125Z" fill="black"/>
<path d="M196.29 83.0669H149.41C148.935 83.0669 148.551 83.4513 148.551 83.9256V83.928C148.551 84.4023 148.935 84.7867 149.41 84.7867H196.29C196.764 84.7867 197.149 84.4023 197.149 83.928V83.9256C197.149 83.4513 196.764 83.0669 196.29 83.0669Z" fill="black"/>
<path d="M209.277 87.7773H153.727C153.004 87.7773 152.417 88.3633 152.417 89.0862C152.417 89.8091 153.004 90.3951 153.727 90.3951H209.277C210 90.3951 210.587 89.8091 210.587 89.0862C210.587 88.3633 210 87.7773 209.277 87.7773Z" fill="black"/>
<path d="M208.931 94.0164H148.599C148.022 94.0164 147.554 94.4843 147.554 95.0615V95.064C147.554 95.6412 148.022 96.1091 148.599 96.1091H208.931C209.508 96.1091 209.976 95.6412 209.976 95.064V95.0615C209.976 94.4843 209.508 94.0164 208.931 94.0164Z" fill="black"/>
<path d="M173.755 103.95H148.133C146.622 103.95 145.397 105.175 145.397 106.686V120.511C145.397 122.021 146.622 123.246 148.133 123.246H173.755C175.266 123.246 176.491 122.021 176.491 120.511V106.686C176.491 105.175 175.266 103.95 173.755 103.95Z" stroke="black" stroke-width="0.5" stroke-miterlimit="10"/>
<path d="M208.36 103.969H182.739C181.228 103.969 180.003 105.194 180.003 106.705V120.53C180.003 122.04 181.228 123.265 182.739 123.265H208.36C209.871 123.265 211.096 122.04 211.096 120.53V106.705C211.096 105.194 209.871 103.969 208.36 103.969Z" stroke="black" stroke-width="0.5" stroke-miterlimit="10"/>
</svg>
