<svg width="350" height="234" viewBox="0 0 350 234" fill="none" xmlns="http://www.w3.org/2000/svg">
<rect width="350" height="234" rx="28" fill="#0A8996"/>
<path d="M62.4538 188.273H66.8153L71.4219 199.511H71.6179L76.2244 188.273H80.5859V205H77.1555V194.113H77.0167L72.6879 204.918H70.3519L66.0231 194.072H65.8842V205H62.4538V188.273ZM87.0118 205.237C86.2114 205.237 85.4981 205.098 84.8719 204.82C84.2457 204.537 83.7502 204.121 83.3854 203.571C83.026 203.015 82.8463 202.324 82.8463 201.496C82.8463 200.799 82.9743 200.214 83.2302 199.74C83.4861 199.266 83.8346 198.885 84.2757 198.597C84.7167 198.308 85.2177 198.09 85.7785 197.943C86.3448 197.796 86.9383 197.693 87.559 197.633C88.2887 197.557 88.8767 197.486 89.3232 197.42C89.7697 197.35 90.0937 197.246 90.2952 197.11C90.4967 196.974 90.5974 196.772 90.5974 196.506V196.457C90.5974 195.939 90.434 195.539 90.1073 195.256C89.7861 194.973 89.3287 194.831 88.7352 194.831C88.109 194.831 87.6108 194.97 87.2405 195.248C86.8702 195.52 86.6252 195.863 86.5054 196.277L83.2874 196.016C83.4507 195.253 83.772 194.594 84.2512 194.039C84.7303 193.478 85.3483 193.048 86.1052 192.749C86.8675 192.444 87.7496 192.291 88.7515 192.291C89.4485 192.291 90.1155 192.373 90.7526 192.536C91.3951 192.7 91.9641 192.953 92.4596 193.296C92.9606 193.639 93.3553 194.08 93.6439 194.619C93.9325 195.153 94.0768 195.792 94.0768 196.538V205H90.7771V203.26H90.6791C90.4776 203.652 90.2081 203.998 89.8705 204.298C89.5329 204.592 89.1272 204.823 88.6535 204.992C88.1798 205.155 87.6325 205.237 87.0118 205.237ZM88.0083 202.836C88.5201 202.836 88.972 202.735 89.3641 202.533C89.7561 202.326 90.0638 202.049 90.287 201.7C90.5103 201.352 90.6219 200.957 90.6219 200.516V199.185C90.513 199.255 90.3633 199.321 90.1727 199.381C89.9875 199.435 89.7779 199.487 89.5438 199.536C89.3096 199.579 89.0755 199.62 88.8414 199.658C88.6072 199.691 88.3949 199.721 88.2043 199.748C87.7959 199.808 87.4392 199.903 87.1343 200.034C86.8294 200.165 86.5925 200.342 86.4237 200.565C86.2549 200.783 86.1705 201.055 86.1705 201.382C86.1705 201.855 86.3421 202.218 86.6851 202.468C87.0336 202.713 87.4746 202.836 88.0083 202.836ZM100.256 197.747V205H96.7762V192.455H100.092V194.668H100.239C100.517 193.938 100.983 193.361 101.636 192.936C102.289 192.506 103.082 192.291 104.013 192.291C104.884 192.291 105.643 192.482 106.291 192.863C106.939 193.244 107.443 193.789 107.802 194.496C108.162 195.199 108.342 196.037 108.342 197.012V205H104.862V197.633C104.868 196.865 104.672 196.266 104.274 195.836C103.877 195.4 103.329 195.183 102.632 195.183C102.164 195.183 101.75 195.283 101.391 195.485C101.037 195.686 100.759 195.98 100.558 196.367C100.362 196.748 100.261 197.208 100.256 197.747ZM114.661 205.237C113.861 205.237 113.147 205.098 112.521 204.82C111.895 204.537 111.4 204.121 111.035 203.571C110.675 203.015 110.496 202.324 110.496 201.496C110.496 200.799 110.624 200.214 110.88 199.74C111.136 199.266 111.484 198.885 111.925 198.597C112.366 198.308 112.867 198.09 113.428 197.943C113.994 197.796 114.588 197.693 115.208 197.633C115.938 197.557 116.526 197.486 116.973 197.42C117.419 197.35 117.743 197.246 117.945 197.11C118.146 196.974 118.247 196.772 118.247 196.506V196.457C118.247 195.939 118.083 195.539 117.757 195.256C117.435 194.973 116.978 194.831 116.385 194.831C115.758 194.831 115.26 194.97 114.89 195.248C114.52 195.52 114.275 195.863 114.155 196.277L110.937 196.016C111.1 195.253 111.421 194.594 111.901 194.039C112.38 193.478 112.998 193.048 113.755 192.749C114.517 192.444 115.399 192.291 116.401 192.291C117.098 192.291 117.765 192.373 118.402 192.536C119.045 192.7 119.614 192.953 120.109 193.296C120.61 193.639 121.005 194.08 121.293 194.619C121.582 195.153 121.726 195.792 121.726 196.538V205H118.426V203.26H118.328C118.127 203.652 117.857 203.998 117.52 204.298C117.182 204.592 116.777 204.823 116.303 204.992C115.829 205.155 115.282 205.237 114.661 205.237ZM115.658 202.836C116.17 202.836 116.621 202.735 117.013 202.533C117.406 202.326 117.713 202.049 117.936 201.7C118.16 201.352 118.271 200.957 118.271 200.516V199.185C118.162 199.255 118.013 199.321 117.822 199.381C117.637 199.435 117.427 199.487 117.193 199.536C116.959 199.579 116.725 199.62 116.491 199.658C116.257 199.691 116.044 199.721 115.854 199.748C115.445 199.808 115.089 199.903 114.784 200.034C114.479 200.165 114.242 200.342 114.073 200.565C113.904 200.783 113.82 201.055 113.82 201.382C113.82 201.855 113.991 202.218 114.335 202.468C114.683 202.713 115.124 202.836 115.658 202.836ZM130.078 209.966C128.95 209.966 127.984 209.811 127.178 209.5C126.378 209.195 125.741 208.779 125.267 208.251C124.793 207.723 124.485 207.129 124.344 206.47L127.562 206.037C127.66 206.288 127.815 206.522 128.028 206.74C128.24 206.958 128.52 207.132 128.869 207.262C129.223 207.399 129.653 207.467 130.159 207.467C130.916 207.467 131.54 207.281 132.03 206.911C132.525 206.546 132.773 205.934 132.773 205.074V202.778H132.626C132.473 203.127 132.245 203.456 131.94 203.767C131.635 204.077 131.243 204.33 130.764 204.526C130.285 204.722 129.713 204.82 129.048 204.82C128.106 204.82 127.249 204.603 126.476 204.167C125.708 203.726 125.095 203.053 124.638 202.15C124.186 201.24 123.96 200.091 123.96 198.703C123.96 197.282 124.191 196.095 124.654 195.142C125.117 194.189 125.732 193.475 126.5 193.002C127.273 192.528 128.12 192.291 129.04 192.291C129.743 192.291 130.331 192.411 130.805 192.651C131.278 192.885 131.659 193.179 131.948 193.533C132.242 193.881 132.468 194.224 132.626 194.562H132.757V192.455H136.211V205.123C136.211 206.19 135.95 207.083 135.427 207.801C134.905 208.52 134.18 209.059 133.255 209.419C132.335 209.783 131.276 209.966 130.078 209.966ZM130.151 202.207C130.712 202.207 131.186 202.068 131.572 201.79C131.964 201.507 132.264 201.104 132.471 200.581C132.683 200.053 132.789 199.422 132.789 198.686C132.789 197.951 132.686 197.314 132.479 196.775C132.272 196.231 131.972 195.809 131.58 195.509C131.188 195.21 130.712 195.06 130.151 195.06C129.579 195.06 129.097 195.215 128.705 195.526C128.313 195.83 128.017 196.255 127.815 196.8C127.614 197.344 127.513 197.973 127.513 198.686C127.513 199.411 127.614 200.037 127.815 200.565C128.022 201.088 128.319 201.493 128.705 201.782C129.097 202.065 129.579 202.207 130.151 202.207ZM144.698 205.245C143.407 205.245 142.296 204.984 141.365 204.461C140.44 203.933 139.726 203.187 139.225 202.223C138.724 201.254 138.474 200.108 138.474 198.784C138.474 197.494 138.724 196.361 139.225 195.387C139.726 194.412 140.431 193.652 141.341 193.108C142.256 192.563 143.328 192.291 144.559 192.291C145.386 192.291 146.157 192.425 146.87 192.691C147.589 192.953 148.215 193.348 148.749 193.876C149.288 194.404 149.707 195.068 150.007 195.869C150.306 196.664 150.456 197.595 150.456 198.662V199.618H139.862V197.461H147.181C147.181 196.96 147.072 196.517 146.854 196.13C146.636 195.743 146.334 195.441 145.947 195.223C145.566 195 145.122 194.888 144.616 194.888C144.088 194.888 143.619 195.011 143.211 195.256C142.808 195.496 142.492 195.82 142.264 196.228C142.035 196.631 141.918 197.08 141.912 197.576V199.626C141.912 200.246 142.027 200.783 142.256 201.235C142.49 201.687 142.819 202.035 143.244 202.28C143.669 202.525 144.172 202.648 144.755 202.648C145.141 202.648 145.495 202.593 145.817 202.484C146.138 202.375 146.413 202.212 146.642 201.994C146.87 201.777 147.044 201.51 147.164 201.194L150.382 201.406C150.219 202.179 149.884 202.855 149.378 203.432C148.877 204.004 148.229 204.45 147.434 204.771C146.644 205.087 145.732 205.245 144.698 205.245ZM172.874 194.129H169.296C169.231 193.666 169.098 193.255 168.896 192.896C168.695 192.531 168.436 192.22 168.12 191.964C167.804 191.709 167.44 191.513 167.026 191.376C166.617 191.24 166.174 191.172 165.695 191.172C164.829 191.172 164.075 191.387 163.432 191.817C162.79 192.242 162.291 192.863 161.937 193.68C161.583 194.491 161.407 195.477 161.407 196.636C161.407 197.829 161.583 198.831 161.937 199.642C162.297 200.453 162.798 201.066 163.44 201.48C164.083 201.894 164.826 202.1 165.67 202.1C166.144 202.1 166.582 202.038 166.985 201.913C167.393 201.787 167.755 201.605 168.071 201.365C168.387 201.12 168.648 200.824 168.855 200.475C169.068 200.127 169.215 199.729 169.296 199.283L172.874 199.299C172.781 200.067 172.55 200.807 172.18 201.521C171.815 202.228 171.322 202.863 170.701 203.424C170.086 203.979 169.351 204.42 168.496 204.747C167.647 205.068 166.686 205.229 165.613 205.229C164.121 205.229 162.787 204.891 161.611 204.216C160.44 203.541 159.514 202.563 158.834 201.284C158.159 200.004 157.821 198.455 157.821 196.636C157.821 194.812 158.164 193.26 158.85 191.981C159.536 190.701 160.467 189.727 161.643 189.057C162.82 188.382 164.143 188.044 165.613 188.044C166.582 188.044 167.48 188.18 168.308 188.452C169.141 188.725 169.879 189.122 170.522 189.645C171.164 190.162 171.687 190.797 172.09 191.548C172.498 192.299 172.759 193.16 172.874 194.129ZM181.013 205.245C179.744 205.245 178.647 204.975 177.721 204.436C176.801 203.892 176.091 203.135 175.59 202.166C175.089 201.191 174.838 200.061 174.838 198.776C174.838 197.48 175.089 196.348 175.59 195.379C176.091 194.404 176.801 193.647 177.721 193.108C178.647 192.563 179.744 192.291 181.013 192.291C182.282 192.291 183.376 192.563 184.296 193.108C185.222 193.647 185.935 194.404 186.436 195.379C186.937 196.348 187.188 197.48 187.188 198.776C187.188 200.061 186.937 201.191 186.436 202.166C185.935 203.135 185.222 203.892 184.296 204.436C183.376 204.975 182.282 205.245 181.013 205.245ZM181.029 202.55C181.606 202.55 182.088 202.386 182.475 202.06C182.861 201.728 183.153 201.276 183.349 200.704C183.55 200.132 183.651 199.481 183.651 198.752C183.651 198.022 183.55 197.371 183.349 196.8C183.153 196.228 182.861 195.776 182.475 195.444C182.088 195.112 181.606 194.946 181.029 194.946C180.447 194.946 179.957 195.112 179.559 195.444C179.167 195.776 178.87 196.228 178.669 196.8C178.473 197.371 178.375 198.022 178.375 198.752C178.375 199.481 178.473 200.132 178.669 200.704C178.87 201.276 179.167 201.728 179.559 202.06C179.957 202.386 180.447 202.55 181.029 202.55ZM189.45 205V192.455H192.766V194.668H192.913C193.174 193.933 193.61 193.353 194.22 192.928C194.83 192.504 195.559 192.291 196.409 192.291C197.269 192.291 198.002 192.506 198.606 192.936C199.21 193.361 199.613 193.938 199.815 194.668H199.945C200.201 193.949 200.664 193.375 201.334 192.945C202.009 192.509 202.807 192.291 203.727 192.291C204.898 192.291 205.848 192.664 206.578 193.41C207.313 194.151 207.68 195.202 207.68 196.563V205H204.209V197.249C204.209 196.552 204.024 196.029 203.653 195.681C203.283 195.332 202.82 195.158 202.265 195.158C201.633 195.158 201.141 195.359 200.787 195.762C200.433 196.16 200.256 196.685 200.256 197.339V205H196.883V197.175C196.883 196.56 196.706 196.07 196.352 195.705C196.003 195.34 195.543 195.158 194.971 195.158C194.585 195.158 194.236 195.256 193.926 195.452C193.621 195.643 193.379 195.912 193.199 196.261C193.019 196.604 192.929 197.007 192.929 197.469V205H189.45ZM210.429 205V192.455H213.745V194.668H213.892C214.153 193.933 214.589 193.353 215.198 192.928C215.808 192.504 216.538 192.291 217.387 192.291C218.248 192.291 218.98 192.506 219.584 192.936C220.189 193.361 220.592 193.938 220.793 194.668H220.924C221.18 193.949 221.643 193.375 222.312 192.945C222.988 192.509 223.785 192.291 224.706 192.291C225.876 192.291 226.826 192.664 227.556 193.41C228.291 194.151 228.659 195.202 228.659 196.563V205H225.187V197.249C225.187 196.552 225.002 196.029 224.632 195.681C224.262 195.332 223.799 195.158 223.244 195.158C222.612 195.158 222.119 195.359 221.765 195.762C221.411 196.16 221.234 196.685 221.234 197.339V205H217.861V197.175C217.861 196.56 217.684 196.07 217.33 195.705C216.982 195.34 216.522 195.158 215.95 195.158C215.563 195.158 215.215 195.256 214.904 195.452C214.599 195.643 214.357 195.912 214.177 196.261C213.998 196.604 213.908 197.007 213.908 197.469V205H210.429ZM239.452 199.658V192.455H242.932V205H239.591V202.721H239.46C239.177 203.456 238.706 204.047 238.047 204.494C237.394 204.94 236.596 205.163 235.654 205.163C234.816 205.163 234.078 204.973 233.441 204.592C232.804 204.21 232.305 203.669 231.946 202.966C231.592 202.264 231.412 201.423 231.407 200.442V192.455H234.886V199.822C234.892 200.562 235.091 201.148 235.483 201.578C235.875 202.008 236.4 202.223 237.059 202.223C237.478 202.223 237.87 202.128 238.235 201.937C238.6 201.741 238.894 201.453 239.117 201.071C239.346 200.69 239.458 200.219 239.452 199.658ZM249.194 197.747V205H245.715V192.455H249.031V194.668H249.178C249.455 193.938 249.921 193.361 250.574 192.936C251.228 192.506 252.02 192.291 252.951 192.291C253.822 192.291 254.582 192.482 255.23 192.863C255.878 193.244 256.382 193.789 256.741 194.496C257.1 195.199 257.28 196.037 257.28 197.012V205H253.801V197.633C253.806 196.865 253.61 196.266 253.213 195.836C252.815 195.4 252.268 195.183 251.571 195.183C251.103 195.183 250.689 195.283 250.329 195.485C249.975 195.686 249.698 195.98 249.496 196.367C249.3 196.748 249.2 197.208 249.194 197.747ZM260.022 205V192.455H263.502V205H260.022ZM261.77 190.837C261.253 190.837 260.809 190.666 260.439 190.323C260.074 189.974 259.892 189.558 259.892 189.073C259.892 188.594 260.074 188.183 260.439 187.84C260.809 187.491 261.253 187.317 261.77 187.317C262.287 187.317 262.728 187.491 263.093 187.84C263.464 188.183 263.649 188.594 263.649 189.073C263.649 189.558 263.464 189.974 263.093 190.323C262.728 190.666 262.287 190.837 261.77 190.837ZM272.962 192.455V195.068H265.407V192.455H272.962ZM267.122 189.449H270.601V201.145C270.601 201.466 270.65 201.717 270.748 201.896C270.846 202.071 270.983 202.193 271.157 202.264C271.336 202.335 271.543 202.37 271.778 202.37C271.941 202.37 272.104 202.356 272.268 202.329C272.431 202.297 272.556 202.272 272.643 202.256L273.191 204.845C273.016 204.899 272.771 204.962 272.455 205.033C272.14 205.109 271.756 205.155 271.304 205.172C270.465 205.204 269.73 205.093 269.099 204.837C268.472 204.581 267.985 204.183 267.637 203.644C267.288 203.105 267.117 202.424 267.122 201.602V189.449ZM277.376 209.705C276.935 209.705 276.522 209.669 276.135 209.598C275.754 209.533 275.438 209.449 275.188 209.345L275.972 206.748C276.38 206.873 276.748 206.941 277.074 206.952C277.406 206.963 277.692 206.887 277.932 206.723C278.177 206.56 278.376 206.282 278.528 205.89L278.732 205.359L274.232 192.455H277.891L280.488 201.668H280.619L283.241 192.455H286.924L282.048 206.356C281.814 207.031 281.496 207.619 281.093 208.12C280.695 208.626 280.192 209.016 279.582 209.288C278.972 209.566 278.237 209.705 277.376 209.705Z" fill="white"/>
<circle cx="179.5" cy="93.5" r="70.5" fill="white"/>
<path d="M186.651 99.6815C187.997 98.2839 189.738 97.2517 191.73 96.7744L198.929 95.0492L198.932 95.054L198.929 95.0492V90.6541H207.721V95.0633L214.901 96.7786C219.596 97.9002 222.909 102.097 222.909 106.925V112.19H206.992L186.651 99.6815Z" fill="#7D9BFF"/>
<path d="M173.077 99.6668C171.731 98.2693 169.99 97.2371 167.998 96.7598L160.799 95.0346L160.796 95.0394L160.799 95.0346V90.6394H152.007V95.0487L144.827 96.764C140.132 97.8855 136.819 102.083 136.819 106.91V112.175H152.736L173.077 99.6668Z" fill="#7D9BFF"/>
<path d="M173.731 99.509L163.704 101.912C157.169 103.478 152.561 109.321 152.561 116.041V126.18H207.131V116.05C207.131 109.326 202.517 103.48 195.978 101.918L185.976 99.5291" fill="#78D2FA"/>
<path d="M185.977 93.3872V99.5284L179.858 113.445L173.732 99.509V93.3872" fill="#FFB487"/>
<path d="M193.531 72.2964V80.7757C193.531 88.3137 187.42 94.4244 179.882 94.4244C172.344 94.4244 166.233 88.3137 166.233 80.7757V72.2964" fill="#FFCDAC"/>
<path d="M179.882 58.0442C172.344 58.0442 166.233 64.155 166.233 71.6929V74.9786H172.907C177.343 74.9786 181.551 73.0146 184.4 69.6144L193.531 74.9786V71.6929C193.531 64.155 187.42 58.0442 179.882 58.0442Z" fill="#BEBEBE"/>
<path d="M166.209 77.423V75.064C166.209 69.6522 161.821 65.2649 156.409 65.2649C150.998 65.2649 146.61 69.6522 146.61 75.064V77.423H153.365C157.595 77.423 161.746 76.2746 165.374 74.1003" fill="#F5B955"/>
<path d="M166.209 75.4976V81.5852C166.209 86.997 161.821 91.3843 156.409 91.3843C150.998 91.3843 146.61 86.997 146.61 81.5852V75.4976" fill="#FFCDAC"/>
<path d="M193.521 77.4374V75.0784C193.521 69.6666 197.908 65.2793 203.32 65.2793C208.731 65.2793 213.119 69.6666 213.119 75.0784V77.4374H206.364C202.134 77.4374 197.983 76.2891 194.355 74.1147" fill="#F5B955"/>
<path d="M193.521 75.5117V81.5994C193.521 87.0112 197.908 91.3985 203.32 91.3985C208.731 91.3985 213.119 87.0112 213.119 81.5994V75.5117" fill="#FFCDAC"/>
<path d="M207.132 128.999C208.688 128.999 209.951 127.737 209.951 126.18V116.05C209.951 115.7 209.937 115.354 209.917 115.009H222.909C224.466 115.009 225.728 113.747 225.728 112.19V106.925C225.728 100.767 221.545 95.467 215.556 94.0365L210.54 92.8382V91.9388C213.8 89.6551 215.938 85.8735 215.938 81.5998V75.0788C215.938 68.1208 210.277 62.4603 203.319 62.4603C200.197 62.4603 197.338 63.6027 195.132 65.4884C192.677 59.4746 186.768 55.2246 179.882 55.2246C172.987 55.2246 167.072 59.4856 164.622 65.5109C162.413 63.6118 159.544 62.4598 156.409 62.4598C149.451 62.4598 143.79 68.1203 143.79 75.0783V75.5116V81.5992C143.79 85.8729 145.928 89.6546 149.188 91.9383V92.8377L144.172 94.0359C138.183 95.4668 134 100.766 134 106.924V112.189C134 113.747 135.263 115.009 136.819 115.009H149.775C149.755 115.351 149.741 115.695 149.741 116.041V126.179C149.741 127.736 151.004 128.998 152.561 128.998H169.508C171.065 128.998 172.327 127.736 172.327 126.179C172.327 124.622 171.065 123.36 169.508 123.36H166.595V117.533C166.595 115.976 165.333 114.714 163.776 114.714C162.219 114.714 160.956 115.976 160.956 117.533V123.36H155.38V116.042C155.38 110.604 159.074 105.921 164.361 104.654L172.098 102.8L177.276 114.58C177.726 115.604 178.739 116.265 179.857 116.265H179.857C180.975 116.265 181.988 115.604 182.438 114.58L187.61 102.818L195.323 104.66C200.615 105.925 204.312 110.608 204.312 116.05V123.36H198.736V117.533C198.736 115.976 197.473 114.714 195.917 114.714C194.36 114.714 193.097 115.976 193.097 117.533V123.36H189.902C188.345 123.36 187.083 124.622 187.083 126.18C187.083 127.737 188.345 128.999 189.902 128.999H207.132V128.999ZM170.912 94.7935C170.188 94.474 169.433 94.2186 168.655 94.0322L163.618 92.8253V91.9467C164.527 91.3115 165.349 90.5607 166.062 89.7143C167.321 91.6541 168.975 93.3127 170.912 94.5761V94.7935ZM149.429 81.5992V80.2564H153.364C156.816 80.2564 160.222 79.5721 163.389 78.26V81.599C163.389 85.4474 160.258 88.5787 156.409 88.5787C152.56 88.5787 149.429 85.448 149.429 81.5992ZM169.053 80.7754V77.7976H172.907C177.378 77.7976 181.629 76.135 184.887 73.1695L190.701 76.5855V81.1879C190.483 86.9685 185.715 91.6047 179.882 91.6047C173.911 91.605 169.053 86.7469 169.053 80.7754ZM188.796 94.8025V94.6116C190.749 93.3491 192.418 91.6862 193.687 89.738C194.395 90.5748 195.209 91.3174 196.11 91.9467V92.8253L191.073 94.0322C190.288 94.2206 189.526 94.4791 188.796 94.8025ZM196.34 81.5992V81.1876C196.343 81.0503 196.35 80.9136 196.35 80.7754V78.2645C199.514 79.5738 202.916 80.2567 206.364 80.2567H210.299V81.5995C210.299 85.448 207.168 88.5792 203.319 88.5792C199.471 88.5792 196.34 85.448 196.34 81.5992ZM203.319 68.0986C207.013 68.0986 210.046 70.9831 210.284 74.6179H206.364C203.069 74.6179 199.826 73.8245 196.911 72.3138C197.983 69.8361 200.452 68.0986 203.319 68.0986ZM169.053 71.6927C169.053 65.7215 173.911 60.8634 179.882 60.8634C185.268 60.8634 189.748 64.8156 190.575 69.9718L185.828 67.1831C184.641 66.4856 183.124 66.7475 182.239 67.8034C179.92 70.5714 176.518 72.1591 172.907 72.1591H169.053V71.6927ZM156.409 68.0986C159.276 68.0986 161.745 69.8364 162.817 72.3136C159.902 73.8242 156.66 74.6176 153.364 74.6176H149.444C149.682 70.9831 152.715 68.0986 156.409 68.0986ZM163.047 99.1703C157.501 100.499 153.141 104.367 151.066 109.37H139.639V106.924C139.639 103.387 142.041 100.342 145.482 99.5205L152.662 97.8052C153.931 97.5021 154.827 96.3678 154.827 95.063V94.1151C155.346 94.1803 155.873 94.2178 156.409 94.2178C156.941 94.2178 157.464 94.1808 157.979 94.1165V94.9209C157.977 94.9629 157.976 95.0049 157.976 95.0469C157.976 95.972 158.43 96.8781 159.265 97.4183C159.58 97.6222 159.92 97.7547 160.267 97.8209L164.473 98.8286L163.047 99.1703ZM179.858 106.44L176.551 98.9168V96.9049C177.627 97.1268 178.741 97.2438 179.881 97.2438C181.003 97.2438 182.098 97.1302 183.157 96.9156V98.936L179.858 106.44ZM196.633 99.1757L195.217 98.8376L199.446 97.8243C199.797 97.7589 200.143 97.6247 200.462 97.4183C201.296 96.879 201.749 95.9728 201.749 95.0478C201.749 95.0258 201.749 95.0035 201.748 94.9815V94.1165C202.263 94.1808 202.787 94.2178 203.319 94.2178C203.855 94.2178 204.382 94.1803 204.901 94.1151V95.063C204.901 96.3678 205.796 97.5021 207.065 97.8052L214.245 99.5205C217.686 100.343 220.089 103.387 220.089 106.924V109.37H208.622C206.546 104.367 202.184 100.502 196.633 99.1757Z" fill="black"/>
<path d="M179.846 123.361C179.101 123.361 178.377 123.66 177.852 124.184C177.325 124.712 177.026 125.436 177.026 126.18C177.026 126.922 177.325 127.647 177.852 128.174C178.377 128.698 179.101 129 179.846 129C180.587 129 181.312 128.698 181.839 128.174C182.363 127.647 182.665 126.922 182.665 126.18C182.665 125.436 182.363 124.712 181.839 124.184C181.312 123.66 180.587 123.361 179.846 123.361Z" fill="black"/>
<path d="M179.845 49.8575C181.402 49.8575 182.664 48.5952 182.664 47.0381V42.8194C182.664 41.2622 181.402 40 179.845 40C178.288 40 177.025 41.2622 177.025 42.8194V47.0381C177.025 48.5952 178.288 49.8575 179.845 49.8575Z" fill="black"/>
<path d="M165.474 53.1854C166.024 53.7354 166.746 54.0103 167.467 54.0103C168.189 54.0103 168.91 53.7346 169.461 53.1837C170.561 52.0821 170.561 50.2969 169.459 49.1965L166.502 46.2417C165.4 45.141 163.615 45.1419 162.514 46.2434C161.414 47.345 161.415 49.1302 162.516 50.2306L165.474 53.1854Z" fill="black"/>
<path d="M192.18 54.0658C192.902 54.0658 193.624 53.79 194.174 53.2388L197.109 50.3013C198.209 49.1998 198.209 47.4145 197.107 46.3141C196.005 45.2137 194.22 45.2143 193.12 46.3161L190.185 49.2536C189.085 50.3552 189.086 52.1404 190.187 53.2408C190.737 53.7909 191.459 54.0658 192.18 54.0658Z" fill="black"/>
</svg>
