<svg width="350" height="234" viewBox="0 0 350 234" fill="none" xmlns="http://www.w3.org/2000/svg">
<rect width="350" height="234" rx="28" fill="#0A8996"/>
<path d="M79.4538 188.273H83.8153L88.4219 199.511H88.6179L93.2244 188.273H97.5859V205H94.1555V194.113H94.0167L89.6879 204.918H87.3519L83.0231 194.072H82.8842V205H79.4538V188.273ZM104.012 205.237C103.211 205.237 102.498 205.098 101.872 204.82C101.246 204.537 100.75 204.121 100.385 203.571C100.026 203.015 99.8463 202.324 99.8463 201.496C99.8463 200.799 99.9743 200.214 100.23 199.74C100.486 199.266 100.835 198.885 101.276 198.597C101.717 198.308 102.218 198.09 102.778 197.943C103.345 197.796 103.938 197.693 104.559 197.633C105.289 197.557 105.877 197.486 106.323 197.42C106.77 197.35 107.094 197.246 107.295 197.11C107.497 196.974 107.597 196.772 107.597 196.506V196.457C107.597 195.939 107.434 195.539 107.107 195.256C106.786 194.973 106.329 194.831 105.735 194.831C105.109 194.831 104.611 194.97 104.241 195.248C103.87 195.52 103.625 195.863 103.505 196.277L100.287 196.016C100.451 195.253 100.772 194.594 101.251 194.039C101.73 193.478 102.348 193.048 103.105 192.749C103.868 192.444 104.75 192.291 105.752 192.291C106.448 192.291 107.116 192.373 107.753 192.536C108.395 192.7 108.964 192.953 109.46 193.296C109.961 193.639 110.355 194.08 110.644 194.619C110.932 195.153 111.077 195.792 111.077 196.538V205H107.777V203.26H107.679C107.478 203.652 107.208 203.998 106.87 204.298C106.533 204.592 106.127 204.823 105.653 204.992C105.18 205.155 104.633 205.237 104.012 205.237ZM105.008 202.836C105.52 202.836 105.972 202.735 106.364 202.533C106.756 202.326 107.064 202.049 107.287 201.7C107.51 201.352 107.622 200.957 107.622 200.516V199.185C107.513 199.255 107.363 199.321 107.173 199.381C106.988 199.435 106.778 199.487 106.544 199.536C106.31 199.579 106.075 199.62 105.841 199.658C105.607 199.691 105.395 199.721 105.204 199.748C104.796 199.808 104.439 199.903 104.134 200.034C103.829 200.165 103.593 200.342 103.424 200.565C103.255 200.783 103.171 201.055 103.171 201.382C103.171 201.855 103.342 202.218 103.685 202.468C104.034 202.713 104.475 202.836 105.008 202.836ZM117.256 197.747V205H113.776V192.455H117.092V194.668H117.239C117.517 193.938 117.983 193.361 118.636 192.936C119.289 192.506 120.082 192.291 121.013 192.291C121.884 192.291 122.643 192.482 123.291 192.863C123.939 193.244 124.443 193.789 124.802 194.496C125.162 195.199 125.342 196.037 125.342 197.012V205H121.862V197.633C121.868 196.865 121.672 196.266 121.274 195.836C120.877 195.4 120.329 195.183 119.632 195.183C119.164 195.183 118.75 195.283 118.391 195.485C118.037 195.686 117.759 195.98 117.558 196.367C117.362 196.748 117.261 197.208 117.256 197.747ZM131.661 205.237C130.861 205.237 130.147 205.098 129.521 204.82C128.895 204.537 128.4 204.121 128.035 203.571C127.675 203.015 127.496 202.324 127.496 201.496C127.496 200.799 127.624 200.214 127.88 199.74C128.136 199.266 128.484 198.885 128.925 198.597C129.366 198.308 129.867 198.09 130.428 197.943C130.994 197.796 131.588 197.693 132.208 197.633C132.938 197.557 133.526 197.486 133.973 197.42C134.419 197.35 134.743 197.246 134.945 197.11C135.146 196.974 135.247 196.772 135.247 196.506V196.457C135.247 195.939 135.083 195.539 134.757 195.256C134.435 194.973 133.978 194.831 133.385 194.831C132.758 194.831 132.26 194.97 131.89 195.248C131.52 195.52 131.275 195.863 131.155 196.277L127.937 196.016C128.1 195.253 128.421 194.594 128.901 194.039C129.38 193.478 129.998 193.048 130.755 192.749C131.517 192.444 132.399 192.291 133.401 192.291C134.098 192.291 134.765 192.373 135.402 192.536C136.045 192.7 136.614 192.953 137.109 193.296C137.61 193.639 138.005 194.08 138.293 194.619C138.582 195.153 138.726 195.792 138.726 196.538V205H135.426V203.26H135.328C135.127 203.652 134.857 203.998 134.52 204.298C134.182 204.592 133.777 204.823 133.303 204.992C132.829 205.155 132.282 205.237 131.661 205.237ZM132.658 202.836C133.17 202.836 133.621 202.735 134.013 202.533C134.406 202.326 134.713 202.049 134.936 201.7C135.16 201.352 135.271 200.957 135.271 200.516V199.185C135.162 199.255 135.013 199.321 134.822 199.381C134.637 199.435 134.427 199.487 134.193 199.536C133.959 199.579 133.725 199.62 133.491 199.658C133.257 199.691 133.044 199.721 132.854 199.748C132.445 199.808 132.089 199.903 131.784 200.034C131.479 200.165 131.242 200.342 131.073 200.565C130.904 200.783 130.82 201.055 130.82 201.382C130.82 201.855 130.991 202.218 131.335 202.468C131.683 202.713 132.124 202.836 132.658 202.836ZM147.078 209.966C145.95 209.966 144.984 209.811 144.178 209.5C143.378 209.195 142.741 208.779 142.267 208.251C141.793 207.723 141.485 207.129 141.344 206.47L144.562 206.037C144.66 206.288 144.815 206.522 145.028 206.74C145.24 206.958 145.52 207.132 145.869 207.262C146.223 207.399 146.653 207.467 147.159 207.467C147.916 207.467 148.54 207.281 149.03 206.911C149.525 206.546 149.773 205.934 149.773 205.074V202.778H149.626C149.473 203.127 149.245 203.456 148.94 203.767C148.635 204.077 148.243 204.33 147.764 204.526C147.285 204.722 146.713 204.82 146.048 204.82C145.106 204.82 144.249 204.603 143.476 204.167C142.708 203.726 142.095 203.053 141.638 202.15C141.186 201.24 140.96 200.091 140.96 198.703C140.96 197.282 141.191 196.095 141.654 195.142C142.117 194.189 142.732 193.475 143.5 193.002C144.273 192.528 145.12 192.291 146.04 192.291C146.743 192.291 147.331 192.411 147.805 192.651C148.278 192.885 148.659 193.179 148.948 193.533C149.242 193.881 149.468 194.224 149.626 194.562H149.757V192.455H153.211V205.123C153.211 206.19 152.95 207.083 152.427 207.801C151.905 208.52 151.18 209.059 150.255 209.419C149.335 209.783 148.276 209.966 147.078 209.966ZM147.151 202.207C147.712 202.207 148.186 202.068 148.572 201.79C148.964 201.507 149.264 201.104 149.471 200.581C149.683 200.053 149.789 199.422 149.789 198.686C149.789 197.951 149.686 197.314 149.479 196.775C149.272 196.231 148.972 195.809 148.58 195.509C148.188 195.21 147.712 195.06 147.151 195.06C146.579 195.06 146.097 195.215 145.705 195.526C145.313 195.83 145.017 196.255 144.815 196.8C144.614 197.344 144.513 197.973 144.513 198.686C144.513 199.411 144.614 200.037 144.815 200.565C145.022 201.088 145.319 201.493 145.705 201.782C146.097 202.065 146.579 202.207 147.151 202.207ZM161.698 205.245C160.407 205.245 159.296 204.984 158.365 204.461C157.44 203.933 156.726 203.187 156.225 202.223C155.724 201.254 155.474 200.108 155.474 198.784C155.474 197.494 155.724 196.361 156.225 195.387C156.726 194.412 157.431 193.652 158.341 193.108C159.256 192.563 160.328 192.291 161.559 192.291C162.386 192.291 163.157 192.425 163.87 192.691C164.589 192.953 165.215 193.348 165.749 193.876C166.288 194.404 166.707 195.068 167.007 195.869C167.306 196.664 167.456 197.595 167.456 198.662V199.618H156.862V197.461H164.181C164.181 196.96 164.072 196.517 163.854 196.13C163.636 195.743 163.334 195.441 162.947 195.223C162.566 195 162.122 194.888 161.616 194.888C161.088 194.888 160.619 195.011 160.211 195.256C159.808 195.496 159.492 195.82 159.264 196.228C159.035 196.631 158.918 197.08 158.912 197.576V199.626C158.912 200.246 159.027 200.783 159.256 201.235C159.49 201.687 159.819 202.035 160.244 202.28C160.669 202.525 161.172 202.648 161.755 202.648C162.141 202.648 162.495 202.593 162.817 202.484C163.138 202.375 163.413 202.212 163.642 201.994C163.87 201.777 164.044 201.51 164.164 201.194L167.382 201.406C167.219 202.179 166.884 202.855 166.378 203.432C165.877 204.004 165.229 204.45 164.434 204.771C163.644 205.087 162.732 205.245 161.698 205.245ZM178.137 188.273L182.18 200.982H182.335L186.386 188.273H190.307L184.54 205H179.983L174.208 188.273H178.137ZM196.557 205.245C195.267 205.245 194.156 204.984 193.225 204.461C192.299 203.933 191.586 203.187 191.085 202.223C190.584 201.254 190.333 200.108 190.333 198.784C190.333 197.494 190.584 196.361 191.085 195.387C191.586 194.412 192.291 193.652 193.2 193.108C194.115 192.563 195.188 192.291 196.418 192.291C197.246 192.291 198.016 192.425 198.73 192.691C199.448 192.953 200.075 193.348 200.608 193.876C201.147 194.404 201.566 195.068 201.866 195.869C202.165 196.664 202.315 197.595 202.315 198.662V199.618H191.722V197.461H199.04C199.04 196.96 198.931 196.517 198.713 196.13C198.495 195.743 198.193 195.441 197.807 195.223C197.425 195 196.982 194.888 196.475 194.888C195.947 194.888 195.479 195.011 195.07 195.256C194.668 195.496 194.352 195.82 194.123 196.228C193.894 196.631 193.777 197.08 193.772 197.576V199.626C193.772 200.246 193.886 200.783 194.115 201.235C194.349 201.687 194.678 202.035 195.103 202.28C195.528 202.525 196.032 202.648 196.614 202.648C197.001 202.648 197.355 202.593 197.676 202.484C197.997 202.375 198.272 202.212 198.501 201.994C198.73 201.777 198.904 201.51 199.024 201.194L202.242 201.406C202.078 202.179 201.743 202.855 201.237 203.432C200.736 204.004 200.088 204.45 199.293 204.771C198.504 205.087 197.592 205.245 196.557 205.245ZM208.065 197.747V205H204.586V188.273H207.967V194.668H208.114C208.397 193.927 208.855 193.348 209.486 192.928C210.118 192.504 210.91 192.291 211.863 192.291C212.734 192.291 213.494 192.482 214.142 192.863C214.795 193.239 215.302 193.78 215.661 194.488C216.026 195.191 216.206 196.032 216.2 197.012V205H212.721V197.633C212.726 196.86 212.53 196.258 212.133 195.828C211.741 195.398 211.191 195.183 210.483 195.183C210.009 195.183 209.59 195.283 209.225 195.485C208.866 195.686 208.582 195.98 208.376 196.367C208.174 196.748 208.071 197.208 208.065 197.747ZM218.938 205V192.455H222.418V205H218.938ZM220.686 190.837C220.169 190.837 219.725 190.666 219.355 190.323C218.99 189.974 218.808 189.558 218.808 189.073C218.808 188.594 218.99 188.183 219.355 187.84C219.725 187.491 220.169 187.317 220.686 187.317C221.203 187.317 221.645 187.491 222.009 187.84C222.38 188.183 222.565 188.594 222.565 189.073C222.565 189.558 222.38 189.974 222.009 190.323C221.645 190.666 221.203 190.837 220.686 190.837ZM230.873 205.245C229.588 205.245 228.483 204.973 227.557 204.428C226.637 203.878 225.929 203.116 225.434 202.141C224.944 201.167 224.699 200.045 224.699 198.776C224.699 197.491 224.946 196.364 225.442 195.395C225.943 194.42 226.653 193.661 227.574 193.116C228.494 192.566 229.588 192.291 230.857 192.291C231.951 192.291 232.91 192.49 233.732 192.887C234.554 193.285 235.205 193.843 235.684 194.562C236.163 195.281 236.427 196.125 236.476 197.094H233.193C233.1 196.468 232.855 195.964 232.458 195.583C232.066 195.196 231.551 195.003 230.914 195.003C230.375 195.003 229.904 195.15 229.501 195.444C229.104 195.732 228.793 196.154 228.57 196.71C228.347 197.265 228.235 197.938 228.235 198.727C228.235 199.528 228.344 200.208 228.562 200.769C228.785 201.33 229.098 201.757 229.501 202.051C229.904 202.346 230.375 202.493 230.914 202.493C231.312 202.493 231.668 202.411 231.984 202.248C232.305 202.084 232.569 201.847 232.776 201.537C232.989 201.221 233.127 200.843 233.193 200.402H236.476C236.422 201.36 236.16 202.204 235.692 202.934C235.229 203.658 234.589 204.224 233.773 204.632C232.956 205.041 231.989 205.245 230.873 205.245ZM242.183 188.273V205H238.704V188.273H242.183ZM250.688 205.245C249.397 205.245 248.287 204.984 247.355 204.461C246.43 203.933 245.717 203.187 245.216 202.223C244.715 201.254 244.464 200.108 244.464 198.784C244.464 197.494 244.715 196.361 245.216 195.387C245.717 194.412 246.422 193.652 247.331 193.108C248.246 192.563 249.318 192.291 250.549 192.291C251.377 192.291 252.147 192.425 252.86 192.691C253.579 192.953 254.205 193.348 254.739 193.876C255.278 194.404 255.697 195.068 255.997 195.869C256.296 196.664 256.446 197.595 256.446 198.662V199.618H245.853V197.461H253.171C253.171 196.96 253.062 196.517 252.844 196.13C252.626 195.743 252.324 195.441 251.938 195.223C251.556 195 251.113 194.888 250.606 194.888C250.078 194.888 249.61 195.011 249.201 195.256C248.798 195.496 248.483 195.82 248.254 196.228C248.025 196.631 247.908 197.08 247.903 197.576V199.626C247.903 200.246 248.017 200.783 248.246 201.235C248.48 201.687 248.809 202.035 249.234 202.28C249.659 202.525 250.162 202.648 250.745 202.648C251.132 202.648 251.486 202.593 251.807 202.484C252.128 202.375 252.403 202.212 252.632 201.994C252.86 201.777 253.035 201.51 253.154 201.194L256.373 201.406C256.209 202.179 255.874 202.855 255.368 203.432C254.867 204.004 254.219 204.45 253.424 204.771C252.634 205.087 251.722 205.245 250.688 205.245ZM269.155 196.032L265.969 196.228C265.915 195.956 265.798 195.711 265.618 195.493C265.439 195.27 265.202 195.093 264.908 194.962C264.619 194.826 264.273 194.758 263.87 194.758C263.331 194.758 262.877 194.872 262.506 195.101C262.136 195.324 261.951 195.624 261.951 195.999C261.951 196.299 262.071 196.552 262.31 196.759C262.55 196.966 262.961 197.132 263.544 197.257L265.814 197.714C267.034 197.965 267.943 198.368 268.542 198.923C269.141 199.479 269.441 200.208 269.441 201.112C269.441 201.934 269.198 202.656 268.714 203.277C268.235 203.897 267.576 204.382 266.737 204.73C265.904 205.074 264.943 205.245 263.854 205.245C262.193 205.245 260.87 204.899 259.885 204.208C258.904 203.511 258.33 202.563 258.161 201.365L261.583 201.186C261.687 201.692 261.937 202.079 262.335 202.346C262.732 202.607 263.241 202.738 263.862 202.738C264.472 202.738 264.962 202.621 265.332 202.386C265.708 202.147 265.899 201.839 265.904 201.463C265.899 201.148 265.765 200.889 265.504 200.688C265.243 200.481 264.84 200.323 264.295 200.214L262.123 199.781C260.897 199.536 259.985 199.111 259.386 198.507C258.793 197.902 258.496 197.132 258.496 196.195C258.496 195.389 258.714 194.695 259.15 194.113C259.591 193.53 260.209 193.081 261.004 192.765C261.804 192.449 262.741 192.291 263.813 192.291C265.398 192.291 266.645 192.626 267.554 193.296C268.469 193.966 269.002 194.878 269.155 196.032Z" fill="white"/>
<circle cx="179.5" cy="93.5" r="70.5" fill="white"/>
<path d="M164.26 116.192H155.732V122.437L164.26 116.192Z" fill="#D4C8B9"/>
<path d="M188.411 116.192H196.937V122.437L188.411 116.192Z" fill="#D4C8B9"/>
<path d="M134.88 94.0828H132.423C130.629 94.0828 129.175 95.5385 129.175 97.3341V102.755C129.175 104.55 130.629 106.006 132.423 106.006H134.88V94.0828V94.0828Z" fill="#FF8C01"/>
<path d="M217.827 94.0828H220.284C222.078 94.0828 223.532 95.5385 223.532 97.3341V102.755C223.532 104.55 222.078 106.006 220.284 106.006H217.827V94.0828V94.0828Z" fill="#FF8C01"/>
<path d="M129.175 97.5992V102.755C129.175 104.55 130.629 106.006 132.423 106.006H134.88V100.85H132.423C130.629 100.85 129.175 99.3947 129.175 97.5972V97.5992Z" fill="#F26D0A"/>
<path d="M220.287 100.85H217.83V106.006H220.287C222.081 106.006 223.535 104.55 223.535 102.755V97.5991C223.535 99.3947 222.081 100.852 220.287 100.852V100.85Z" fill="#F26D0A"/>
<path d="M131.831 82.3382C135.049 82.3382 137.659 79.7267 137.659 76.5052C137.659 73.2837 135.049 70.6721 131.831 70.6721C128.612 70.6721 126.003 73.2837 126.003 76.5052C126.003 79.7267 128.612 82.3382 131.831 82.3382Z" fill="#C2C6D3"/>
<path d="M221.044 82.3382C224.262 82.3382 226.872 79.7267 226.872 76.5052C226.872 73.2837 224.262 70.6721 221.044 70.6721C217.825 70.6721 215.216 73.2837 215.216 76.5052C215.216 79.7267 217.825 82.3382 221.044 82.3382Z" fill="#C2C6D3"/>
<path d="M134.363 71.2512C130.51 69.3833 126 72.2003 126 76.5052C126 79.7263 128.61 82.3382 131.828 82.3382C132.736 82.3382 133.596 82.1291 134.363 81.7591C129.976 79.6338 129.982 73.3725 134.363 71.2512Z" fill="#A9ADBF"/>
<path d="M223.579 71.2512C222.812 70.8792 221.952 70.6721 221.044 70.6721C217.825 70.6721 215.216 73.284 215.216 76.5052C215.216 79.7263 217.825 82.3382 221.044 82.3382C221.952 82.3382 222.812 82.1291 223.579 81.7591C219.191 79.6338 219.198 73.3725 223.579 71.2512Z" fill="#A9ADBF"/>
<path d="M208.285 83.7837H144.383C138.999 83.7837 134.636 88.1509 134.636 93.5396V110.343H218.032V93.5396C218.032 88.1509 213.667 83.7837 208.285 83.7837V83.7837Z" fill="#87A1FF"/>
<path d="M149.468 83.7834H144.383C138.999 83.7834 134.636 88.1507 134.636 93.5394V110.343H139.72V93.5394C139.72 88.1507 144.084 83.7834 149.468 83.7834V83.7834Z" fill="#4C73C1"/>
<path d="M192.622 83.1082C192.431 82.8489 192.128 82.696 191.805 82.696H160.867C160.546 82.696 160.241 82.8489 160.05 83.1082C159.859 83.3676 159.801 83.7034 159.895 84.011L162.249 91.6919C162.38 92.1182 162.776 92.4097 163.222 92.4097H189.45C189.896 92.4097 190.292 92.1182 190.423 91.6919L192.777 84.011C192.871 83.7014 192.815 83.3676 192.622 83.1082V83.1082Z" fill="#4C73C1"/>
<path d="M191.801 82.6941H176.198C174.954 85.7705 174.062 89.0238 173.572 92.4098H189.447C189.893 92.4098 190.288 92.1182 190.419 91.692L192.774 84.0111C192.868 83.7014 192.812 83.3677 192.619 83.1083C192.428 82.8489 192.125 82.6961 191.801 82.6961V82.6941Z" fill="#5B88CE"/>
<path d="M167.466 91.6922L165.111 84.0113C165.017 83.7016 165.073 83.3679 165.266 83.1085C165.457 82.8491 165.76 82.6963 166.084 82.6963H160.864C160.543 82.6963 160.238 82.8491 160.047 83.1085C159.856 83.3679 159.798 83.7036 159.892 84.0113L162.247 91.6922C162.377 92.1184 162.773 92.41 163.219 92.41H168.438C167.992 92.41 167.596 92.1184 167.466 91.6922Z" fill="#3562AA"/>
<path d="M153.25 96.507C153.25 99.8488 150.542 102.559 147.203 102.559C143.864 102.559 141.156 99.8488 141.156 96.507C141.156 93.1653 143.864 90.4548 147.203 90.4548C150.542 90.4548 153.25 93.1653 153.25 96.507Z" fill="#C8E5FC"/>
<path d="M199.348 96.507C199.348 99.8488 202.056 102.559 205.395 102.559C208.733 102.559 211.441 99.8488 211.441 96.507C211.441 93.1653 208.733 90.4548 205.395 90.4548C202.056 90.4548 199.348 93.1653 199.348 96.507Z" fill="#C8E5FC"/>
<path d="M149.746 91.0164C145.745 89.1585 141.156 92.0921 141.156 96.5096C141.156 100.927 145.745 103.859 149.746 102.001C145.076 99.8313 145.084 93.1819 149.746 91.0164V91.0164Z" fill="#8FC8F2"/>
<path d="M204.43 96.5077C204.43 94.0727 205.867 91.9776 207.936 91.0145C203.934 89.1566 199.348 92.0902 199.348 96.5077C199.348 99.8495 202.056 102.56 205.395 102.56C206.303 102.56 207.162 102.359 207.936 101.999C205.867 101.038 204.43 98.9406 204.43 96.5077V96.5077Z" fill="#8FC8F2"/>
<path d="M181.653 50.2193C181.044 50.2293 180.429 50.165 179.811 50.0162C178.957 49.9478 178.093 49.9116 177.221 49.9116H175.443C157.757 49.9116 143.419 64.262 143.419 81.9642V83.8221C144.036 83.7678 208.281 83.7336 209.247 83.8381V81.9622C209.247 65.764 197.244 52.3767 181.653 50.2152V50.2193Z" fill="#9FB8FF"/>
<path d="M148.504 81.9657C148.504 64.8184 161.958 50.8159 178.877 49.9554C177.863 49.9031 177.332 49.9131 175.446 49.9131C157.76 49.9131 143.422 64.2635 143.422 81.9657V83.8236C144.023 83.7713 143.844 83.7834 148.506 83.7834V81.9657H148.504Z" fill="#87A1FF"/>
<path d="M177.029 57.2249H175.635C162.326 57.2249 150.512 67.8031 150.512 82.7788C150.512 83.3418 150.968 83.7962 151.528 83.7962H201.135C201.697 83.7962 202.151 83.3398 202.151 82.7788V82.3707C202.151 68.5049 190.881 57.2249 177.027 57.2249H177.029Z" fill="#C8E5FC"/>
<path d="M155.936 82.7784V82.3703C155.936 69.1841 166.129 58.3364 179.044 57.3049C162.587 55.9939 150.512 67.666 150.512 82.7764C150.512 83.3394 150.968 83.7938 151.528 83.7938H156.95C156.39 83.7938 155.934 83.3374 155.934 82.7764L155.936 82.7784Z" fill="#8FC8F2"/>
<path d="M139.692 116.192V124.028C139.692 125.823 141.147 127.279 142.941 127.279H152.688C154.482 127.279 155.937 125.823 155.937 124.028V116.192H139.692V116.192Z" fill="#777984"/>
<path d="M196.734 116.192V124.028C196.734 125.823 198.189 127.279 199.983 127.279H209.73C211.524 127.279 212.979 125.823 212.979 124.028V116.192H196.732H196.734Z" fill="#777984"/>
<path d="M144.775 124.028V116.192H139.692V124.028C139.692 125.823 141.147 127.279 142.941 127.279H148.025C146.231 127.279 144.777 125.823 144.777 124.028H144.775Z" fill="#61626D"/>
<path d="M201.817 124.028V116.192H196.732V124.028C196.732 125.823 198.187 127.279 199.981 127.279H205.063C203.269 127.279 201.815 125.823 201.815 124.028H201.817Z" fill="#61626D"/>
<path d="M221.597 113.267C221.597 114.994 220.197 116.395 218.471 116.395H134.195C132.47 116.395 131.069 114.996 131.069 113.267C131.069 111.54 132.47 110.138 134.195 110.138H218.471C220.197 110.138 221.597 111.54 221.597 113.267Z" fill="#C2C6D3"/>
<path d="M218.471 113.266H134.195C133.038 113.266 132.032 112.637 131.491 111.702C131.224 112.162 131.069 112.695 131.069 113.266C131.069 114.993 132.47 116.395 134.195 116.395H218.471C220.876 116.395 222.381 113.783 221.175 111.702C220.635 112.637 219.629 113.266 218.471 113.266Z" fill="#A9ADBF"/>
<path d="M147.475 89.0012C143.342 89.0012 139.979 92.3671 139.979 96.5031C139.979 100.639 143.342 104.003 147.475 104.003C151.607 104.003 154.97 100.637 154.97 96.5031C154.97 92.3671 151.609 89.0012 147.475 89.0012V89.0012ZM147.475 100.983C145.006 100.983 142.999 98.9743 142.999 96.5031C142.999 94.032 145.008 92.0233 147.475 92.0233C149.942 92.0233 151.951 94.032 151.951 96.5031C151.951 98.9723 149.944 100.983 147.475 100.983V100.983Z" fill="black"/>
<path d="M205.067 89.0012C200.934 89.0012 197.571 92.3671 197.571 96.5031C197.571 100.639 200.932 104.003 205.067 104.003C209.201 104.003 212.562 100.637 212.562 96.5031C212.562 92.3691 209.199 89.0012 205.067 89.0012ZM205.067 100.983C202.598 100.983 200.591 98.9743 200.591 96.5031C200.591 94.032 202.598 92.0233 205.067 92.0233C207.536 92.0233 209.542 94.032 209.542 96.5031C209.542 98.9743 207.536 100.983 205.067 100.983V100.983Z" fill="black"/>
<path d="M189.853 102.592H162.943C162.11 102.592 161.435 103.267 161.435 104.102C161.435 104.936 162.11 105.612 162.943 105.612H189.855C190.688 105.612 191.363 104.936 191.363 104.102C191.363 103.267 190.688 102.592 189.855 102.592H189.853Z" fill="black"/>
<path d="M189.853 96.9595H162.943C162.11 96.9595 161.435 97.6351 161.435 98.4695C161.435 99.3039 162.11 99.9795 162.943 99.9795H189.855C190.688 99.9795 191.363 99.3039 191.363 98.4695C191.363 97.6351 190.688 96.9595 189.855 96.9595H189.853Z" fill="black"/>
<path d="M206.956 66.3752C206.924 66.2445 206.902 66.1138 206.882 65.9832H206.217C206.217 66.0234 206.211 66.0656 206.209 66.1058C206.49 66.1561 206.739 66.2466 206.956 66.3752Z" fill="black"/>
<path d="M228.857 76.8326C228.857 72.8153 225.592 69.5479 221.578 69.5479C216.679 69.5479 213.139 74.3394 214.646 79.0484L211.391 81.0973C211.249 76.9774 210.334 72.9017 208.719 69.1296C208.482 68.9587 208.265 68.7617 208.062 68.5405C208.038 69.6062 207.407 70.6538 206.172 70.8548C207.637 74.452 208.394 78.3145 208.394 82.5269H204.39C204.372 77.9526 203.203 73.5713 200.987 69.6645C200.848 69.6001 200.714 69.5237 200.587 69.4353C199.386 68.5948 198.428 67.6075 197.524 66.558C197.397 66.6384 197.281 66.7269 197.174 66.8194C198.293 67.5352 198.512 69.1839 197.833 70.2697C200.133 73.9412 201.351 78.1336 201.371 82.5289H153.281C153.337 70.9413 162.038 61.1753 173.242 59.5145C173.76 59.0681 174.264 58.6036 174.736 58.111C174.371 57.5923 174.144 56.9931 174.071 56.3697C160.748 57.6546 150.32 68.8441 150.264 82.5289H146.26C146.26 65.066 160.202 52.0246 176.448 52.0246H177.601C177.864 51.1218 178.604 50.3799 179.821 50.3799C180.763 50.3799 181.418 50.8262 181.79 51.4435L181.818 51.3973L182.471 50.3457C181.249 50.3316 180 50.02 178.75 49.3283C178.583 49.2358 178.427 49.1272 178.276 49.0046C177.854 49.0025 177.318 49.0046 176.448 49.0046C158.561 49.0025 143.936 63.2303 143.269 80.9727L140.211 79.0484C140.434 78.3487 140.557 77.6047 140.557 76.8326C140.557 72.8153 137.292 69.5479 133.278 69.5479C129.264 69.5479 126 72.8153 126 76.8326C126 83.5122 134.279 86.6529 138.71 81.6724L141.424 83.3815C137.676 84.9458 134.958 88.5007 134.592 92.7192H133.666C131.06 92.7192 128.941 94.8405 128.941 97.4483V102.813C128.941 105.421 131.06 107.542 133.666 107.542H134.546V108.939C132.525 109.426 131.016 111.248 131.016 113.419C131.016 115.959 133.081 118.026 135.619 118.026H139.546V124.271C139.546 126.879 141.666 129 144.271 129H153.92C156.526 129 158.645 126.879 158.645 124.271V123.463L166.068 118.026H188.582L196.005 123.463V124.271C196.005 126.879 198.124 129 200.73 129H210.379C212.984 129 215.104 126.879 215.104 124.271V118.026H219.031C221.568 118.026 223.634 115.959 223.634 113.419C223.634 111.25 222.127 109.426 220.104 108.939V107.542H221.026C223.632 107.542 225.751 105.421 225.751 102.813V97.4483C225.751 94.8405 223.632 92.7192 221.026 92.7192H220.058C219.696 88.545 217.032 85.0222 213.346 83.4338L216.14 81.6744C220.582 86.6629 228.853 83.5041 228.853 76.8326H228.857ZM221.578 72.57C223.927 72.57 225.837 74.4821 225.837 76.8326C225.837 79.1831 223.927 81.0953 221.578 81.0953C219.23 81.0953 217.32 79.1831 217.32 76.8326C217.32 74.4821 219.23 72.57 221.578 72.57ZM133.278 81.0953C130.93 81.0953 129.019 79.1831 129.019 76.8326C129.019 74.4821 130.93 72.57 133.278 72.57C135.627 72.57 137.537 74.4821 137.537 76.8326C137.537 79.1831 135.627 81.0953 133.278 81.0953V81.0953ZM220.108 95.7392H221.03C221.97 95.7392 222.736 96.5053 222.736 97.4483V102.813C222.736 103.754 221.97 104.52 221.03 104.52H220.108V95.7392ZM191.907 85.5591L189.958 91.4665H164.694L162.745 85.5591H191.905H191.907ZM133.666 104.522C132.726 104.522 131.96 103.756 131.96 102.813V97.4483C131.96 96.5073 132.726 95.7413 133.666 95.7413H134.546V104.522H133.666ZM155.628 124.271C155.628 125.212 154.862 125.978 153.922 125.978H144.273C143.333 125.978 142.568 125.212 142.568 124.271V118.026H155.628V124.271ZM158.647 119.719V118.026H160.959L158.647 119.719ZM196.005 119.719L193.693 118.026H196.005V119.719ZM212.084 124.271C212.084 125.212 211.319 125.978 210.379 125.978H200.732C199.792 125.978 199.026 125.212 199.026 124.271V118.026H212.086V124.271H212.084ZM217.086 93.6923V108.813H145.808C144.974 108.813 144.299 109.488 144.299 110.323C144.299 111.157 144.974 111.833 145.808 111.833H219.033C219.907 111.833 220.618 112.545 220.618 113.419C220.618 114.294 219.907 115.004 219.033 115.004H135.621C134.747 115.004 134.036 114.292 134.036 113.419C134.036 112.547 134.747 111.833 135.621 111.833H140.575C141.408 111.833 142.083 111.157 142.083 110.323C142.083 109.488 141.408 108.813 140.575 108.813H137.565C137.565 106 137.608 106.032 137.608 106.032C137.608 93.3505 137.565 93.6923 137.565 93.6923C137.565 89.2004 141.216 85.547 145.703 85.547C146.692 85.547 158.579 85.5591 159.567 85.5591L162.169 93.4511C162.374 94.0704 162.95 94.4886 163.603 94.4886H191.051C191.702 94.4886 192.28 94.0704 192.485 93.4511L195.087 85.5591C195.157 85.5591 203.221 85.5671 203.291 85.547H208.864C213.567 85.547 217.088 89.303 217.088 93.6923H217.086Z" fill="black"/>
<path d="M171.568 56.7318C171.568 56.7318 191.498 51.7534 201.531 70.672L199.028 72.4052C199.028 72.4052 194.286 59.2291 169.979 59.0281L171.568 56.7318V56.7318Z" fill="black"/>
<path d="M176.449 49.0025C176.449 49.0025 199.892 48.2807 209.544 71.2469H206.334C206.334 71.2469 201.117 57.2182 176.407 51.1861" fill="black"/>
</svg>
