<svg width="350" height="234" viewBox="0 0 350 234" fill="none" xmlns="http://www.w3.org/2000/svg">
<rect width="350" height="234" rx="28" fill="#0A8996"/>
<path d="M66.4538 186.273H70.8153L75.4219 197.511H75.6179L80.2244 186.273H84.5859V203H81.1555V192.113H81.0167L76.6879 202.918H74.3519L70.0231 192.072H69.8842V203H66.4538V186.273ZM91.0118 203.237C90.2114 203.237 89.4981 203.098 88.8719 202.82C88.2457 202.537 87.7502 202.121 87.3854 201.571C87.026 201.015 86.8463 200.324 86.8463 199.496C86.8463 198.799 86.9743 198.214 87.2302 197.74C87.4861 197.266 87.8346 196.885 88.2757 196.597C88.7167 196.308 89.2177 196.09 89.7785 195.943C90.3448 195.796 90.9383 195.693 91.559 195.633C92.2887 195.557 92.8767 195.486 93.3232 195.42C93.7697 195.35 94.0937 195.246 94.2952 195.11C94.4967 194.974 94.5974 194.772 94.5974 194.506V194.457C94.5974 193.939 94.434 193.539 94.1073 193.256C93.7861 192.973 93.3287 192.831 92.7352 192.831C92.109 192.831 91.6108 192.97 91.2405 193.248C90.8702 193.52 90.6252 193.863 90.5054 194.277L87.2874 194.016C87.4507 193.253 87.772 192.594 88.2512 192.039C88.7303 191.478 89.3483 191.048 90.1052 190.749C90.8675 190.444 91.7496 190.291 92.7515 190.291C93.4485 190.291 94.1155 190.373 94.7526 190.536C95.3951 190.7 95.9641 190.953 96.4596 191.296C96.9606 191.639 97.3553 192.08 97.6439 192.619C97.9325 193.153 98.0768 193.792 98.0768 194.538V203H94.7771V201.26H94.6791C94.4776 201.652 94.2081 201.998 93.8705 202.298C93.5329 202.592 93.1272 202.823 92.6535 202.992C92.1798 203.155 91.6325 203.237 91.0118 203.237ZM92.0083 200.836C92.5201 200.836 92.972 200.735 93.3641 200.533C93.7561 200.326 94.0638 200.049 94.287 199.7C94.5103 199.352 94.6219 198.957 94.6219 198.516V197.185C94.513 197.255 94.3633 197.321 94.1727 197.381C93.9875 197.435 93.7779 197.487 93.5438 197.536C93.3096 197.579 93.0755 197.62 92.8414 197.658C92.6072 197.691 92.3949 197.721 92.2043 197.748C91.7959 197.808 91.4392 197.903 91.1343 198.034C90.8294 198.165 90.5925 198.342 90.4237 198.565C90.2549 198.783 90.1705 199.055 90.1705 199.382C90.1705 199.855 90.3421 200.218 90.6851 200.468C91.0336 200.713 91.4746 200.836 92.0083 200.836ZM104.256 195.747V203H100.776V190.455H104.092V192.668H104.239C104.517 191.938 104.983 191.361 105.636 190.936C106.289 190.506 107.082 190.291 108.013 190.291C108.884 190.291 109.643 190.482 110.291 190.863C110.939 191.244 111.443 191.789 111.802 192.496C112.162 193.199 112.342 194.037 112.342 195.012V203H108.862V195.633C108.868 194.865 108.672 194.266 108.274 193.836C107.877 193.4 107.329 193.183 106.632 193.183C106.164 193.183 105.75 193.283 105.391 193.485C105.037 193.686 104.759 193.98 104.558 194.367C104.362 194.748 104.261 195.208 104.256 195.747ZM118.661 203.237C117.861 203.237 117.147 203.098 116.521 202.82C115.895 202.537 115.4 202.121 115.035 201.571C114.675 201.015 114.496 200.324 114.496 199.496C114.496 198.799 114.624 198.214 114.88 197.74C115.136 197.266 115.484 196.885 115.925 196.597C116.366 196.308 116.867 196.09 117.428 195.943C117.994 195.796 118.588 195.693 119.208 195.633C119.938 195.557 120.526 195.486 120.973 195.42C121.419 195.35 121.743 195.246 121.945 195.11C122.146 194.974 122.247 194.772 122.247 194.506V194.457C122.247 193.939 122.083 193.539 121.757 193.256C121.435 192.973 120.978 192.831 120.385 192.831C119.758 192.831 119.26 192.97 118.89 193.248C118.52 193.52 118.275 193.863 118.155 194.277L114.937 194.016C115.1 193.253 115.421 192.594 115.901 192.039C116.38 191.478 116.998 191.048 117.755 190.749C118.517 190.444 119.399 190.291 120.401 190.291C121.098 190.291 121.765 190.373 122.402 190.536C123.045 190.7 123.614 190.953 124.109 191.296C124.61 191.639 125.005 192.08 125.293 192.619C125.582 193.153 125.726 193.792 125.726 194.538V203H122.426V201.26H122.328C122.127 201.652 121.857 201.998 121.52 202.298C121.182 202.592 120.777 202.823 120.303 202.992C119.829 203.155 119.282 203.237 118.661 203.237ZM119.658 200.836C120.17 200.836 120.621 200.735 121.013 200.533C121.406 200.326 121.713 200.049 121.936 199.7C122.16 199.352 122.271 198.957 122.271 198.516V197.185C122.162 197.255 122.013 197.321 121.822 197.381C121.637 197.435 121.427 197.487 121.193 197.536C120.959 197.579 120.725 197.62 120.491 197.658C120.257 197.691 120.044 197.721 119.854 197.748C119.445 197.808 119.089 197.903 118.784 198.034C118.479 198.165 118.242 198.342 118.073 198.565C117.904 198.783 117.82 199.055 117.82 199.382C117.82 199.855 117.991 200.218 118.335 200.468C118.683 200.713 119.124 200.836 119.658 200.836ZM134.078 207.966C132.95 207.966 131.984 207.811 131.178 207.5C130.378 207.195 129.741 206.779 129.267 206.251C128.793 205.723 128.485 205.129 128.344 204.47L131.562 204.037C131.66 204.288 131.815 204.522 132.028 204.74C132.24 204.958 132.52 205.132 132.869 205.262C133.223 205.399 133.653 205.467 134.159 205.467C134.916 205.467 135.54 205.281 136.03 204.911C136.525 204.546 136.773 203.934 136.773 203.074V200.778H136.626C136.473 201.127 136.245 201.456 135.94 201.767C135.635 202.077 135.243 202.33 134.764 202.526C134.285 202.722 133.713 202.82 133.048 202.82C132.106 202.82 131.249 202.603 130.476 202.167C129.708 201.726 129.095 201.053 128.638 200.15C128.186 199.24 127.96 198.091 127.96 196.703C127.96 195.282 128.191 194.095 128.654 193.142C129.117 192.189 129.732 191.475 130.5 191.002C131.273 190.528 132.12 190.291 133.04 190.291C133.743 190.291 134.331 190.411 134.805 190.651C135.278 190.885 135.659 191.179 135.948 191.533C136.242 191.881 136.468 192.224 136.626 192.562H136.757V190.455H140.211V203.123C140.211 204.19 139.95 205.083 139.427 205.801C138.905 206.52 138.18 207.059 137.255 207.419C136.335 207.783 135.276 207.966 134.078 207.966ZM134.151 200.207C134.712 200.207 135.186 200.068 135.572 199.79C135.964 199.507 136.264 199.104 136.471 198.581C136.683 198.053 136.789 197.422 136.789 196.686C136.789 195.951 136.686 195.314 136.479 194.775C136.272 194.231 135.972 193.809 135.58 193.509C135.188 193.21 134.712 193.06 134.151 193.06C133.579 193.06 133.097 193.215 132.705 193.526C132.313 193.83 132.017 194.255 131.815 194.8C131.614 195.344 131.513 195.973 131.513 196.686C131.513 197.411 131.614 198.037 131.815 198.565C132.022 199.088 132.319 199.493 132.705 199.782C133.097 200.065 133.579 200.207 134.151 200.207ZM148.698 203.245C147.407 203.245 146.296 202.984 145.365 202.461C144.44 201.933 143.726 201.187 143.225 200.223C142.724 199.254 142.474 198.108 142.474 196.784C142.474 195.494 142.724 194.361 143.225 193.387C143.726 192.412 144.431 191.652 145.341 191.108C146.256 190.563 147.328 190.291 148.559 190.291C149.386 190.291 150.157 190.425 150.87 190.691C151.589 190.953 152.215 191.348 152.749 191.876C153.288 192.404 153.707 193.068 154.007 193.869C154.306 194.664 154.456 195.595 154.456 196.662V197.618H143.862V195.461H151.181C151.181 194.96 151.072 194.517 150.854 194.13C150.636 193.743 150.334 193.441 149.947 193.223C149.566 193 149.122 192.888 148.616 192.888C148.088 192.888 147.619 193.011 147.211 193.256C146.808 193.496 146.492 193.82 146.264 194.228C146.035 194.631 145.918 195.08 145.912 195.576V197.626C145.912 198.246 146.027 198.783 146.256 199.235C146.49 199.687 146.819 200.035 147.244 200.28C147.669 200.525 148.172 200.648 148.755 200.648C149.141 200.648 149.495 200.593 149.817 200.484C150.138 200.375 150.413 200.212 150.642 199.994C150.87 199.777 151.044 199.51 151.164 199.194L154.382 199.406C154.219 200.179 153.884 200.855 153.378 201.432C152.877 202.004 152.229 202.45 151.434 202.771C150.644 203.087 149.732 203.245 148.698 203.245ZM156.726 203V190.455H160.042V192.668H160.189C160.451 191.933 160.886 191.353 161.496 190.928C162.106 190.504 162.836 190.291 163.685 190.291C164.546 190.291 165.278 190.506 165.882 190.936C166.487 191.361 166.89 191.938 167.091 192.668H167.222C167.478 191.949 167.941 191.375 168.61 190.945C169.285 190.509 170.083 190.291 171.003 190.291C172.174 190.291 173.124 190.664 173.854 191.41C174.589 192.151 174.956 193.202 174.956 194.563V203H171.485V195.249C171.485 194.552 171.3 194.029 170.93 193.681C170.56 193.332 170.097 193.158 169.541 193.158C168.91 193.158 168.417 193.359 168.063 193.762C167.709 194.16 167.532 194.685 167.532 195.339V203H164.159V195.175C164.159 194.56 163.982 194.07 163.628 193.705C163.28 193.34 162.819 193.158 162.248 193.158C161.861 193.158 161.513 193.256 161.202 193.452C160.897 193.643 160.655 193.912 160.475 194.261C160.296 194.604 160.206 195.007 160.206 195.469V203H156.726ZM183.422 203.245C182.132 203.245 181.021 202.984 180.09 202.461C179.164 201.933 178.451 201.187 177.95 200.223C177.449 199.254 177.199 198.108 177.199 196.784C177.199 195.494 177.449 194.361 177.95 193.387C178.451 192.412 179.156 191.652 180.065 191.108C180.98 190.563 182.053 190.291 183.283 190.291C184.111 190.291 184.882 190.425 185.595 190.691C186.314 190.953 186.94 191.348 187.473 191.876C188.012 192.404 188.432 193.068 188.731 193.869C189.031 194.664 189.18 195.595 189.18 196.662V197.618H178.587V195.461H185.905C185.905 194.96 185.796 194.517 185.578 194.13C185.361 193.743 185.058 193.441 184.672 193.223C184.291 193 183.847 192.888 183.341 192.888C182.812 192.888 182.344 193.011 181.936 193.256C181.533 193.496 181.217 193.82 180.988 194.228C180.76 194.631 180.643 195.08 180.637 195.576V197.626C180.637 198.246 180.751 198.783 180.98 199.235C181.214 199.687 181.544 200.035 181.968 200.28C182.393 200.525 182.897 200.648 183.479 200.648C183.866 200.648 184.22 200.593 184.541 200.484C184.862 200.375 185.137 200.212 185.366 199.994C185.595 199.777 185.769 199.51 185.889 199.194L189.107 199.406C188.944 200.179 188.609 200.855 188.102 201.432C187.601 202.004 186.953 202.45 186.158 202.771C185.369 203.087 184.457 203.245 183.422 203.245ZM194.93 195.747V203H191.451V190.455H194.767V192.668H194.914C195.192 191.938 195.657 191.361 196.311 190.936C196.964 190.506 197.756 190.291 198.688 190.291C199.559 190.291 200.318 190.482 200.966 190.863C201.614 191.244 202.118 191.789 202.477 192.496C202.837 193.199 203.016 194.037 203.016 195.012V203H199.537V195.633C199.542 194.865 199.346 194.266 198.949 193.836C198.551 193.4 198.004 193.183 197.307 193.183C196.839 193.183 196.425 193.283 196.066 193.485C195.712 193.686 195.434 193.98 195.233 194.367C195.037 194.748 194.936 195.208 194.93 195.747ZM212.432 190.455V193.068H204.877V190.455H212.432ZM206.592 187.449H210.071V199.145C210.071 199.466 210.12 199.717 210.218 199.896C210.316 200.071 210.452 200.193 210.627 200.264C210.806 200.335 211.013 200.37 211.247 200.37C211.411 200.37 211.574 200.356 211.737 200.329C211.901 200.297 212.026 200.272 212.113 200.256L212.66 202.845C212.486 202.899 212.241 202.962 211.925 203.033C211.609 203.109 211.225 203.155 210.774 203.172C209.935 203.204 209.2 203.093 208.568 202.837C207.942 202.581 207.455 202.183 207.106 201.644C206.758 201.105 206.586 200.424 206.592 199.602V187.449ZM219.45 189.189V186.273H233.188V189.189H228.066V203H224.571V189.189H219.45ZM239.283 203.245C237.992 203.245 236.881 202.984 235.95 202.461C235.025 201.933 234.311 201.187 233.81 200.223C233.309 199.254 233.059 198.108 233.059 196.784C233.059 195.494 233.309 194.361 233.81 193.387C234.311 192.412 235.016 191.652 235.926 191.108C236.84 190.563 237.913 190.291 239.144 190.291C239.971 190.291 240.742 190.425 241.455 190.691C242.174 190.953 242.8 191.348 243.334 191.876C243.873 192.404 244.292 193.068 244.592 193.869C244.891 194.664 245.041 195.595 245.041 196.662V197.618H234.447V195.461H241.766C241.766 194.96 241.657 194.517 241.439 194.13C241.221 193.743 240.919 193.441 240.532 193.223C240.151 193 239.707 192.888 239.201 192.888C238.673 192.888 238.204 193.011 237.796 193.256C237.393 193.496 237.077 193.82 236.849 194.228C236.62 194.631 236.503 195.08 236.497 195.576V197.626C236.497 198.246 236.612 198.783 236.84 199.235C237.075 199.687 237.404 200.035 237.829 200.28C238.253 200.525 238.757 200.648 239.34 200.648C239.726 200.648 240.08 200.593 240.402 200.484C240.723 200.375 240.998 200.212 241.226 199.994C241.455 199.777 241.629 199.51 241.749 199.194L244.967 199.406C244.804 200.179 244.469 200.855 243.963 201.432C243.462 202.004 242.814 202.45 242.019 202.771C241.229 203.087 240.317 203.245 239.283 203.245ZM250.889 203.237C250.088 203.237 249.375 203.098 248.749 202.82C248.123 202.537 247.627 202.121 247.262 201.571C246.903 201.015 246.723 200.324 246.723 199.496C246.723 198.799 246.851 198.214 247.107 197.74C247.363 197.266 247.712 196.885 248.153 196.597C248.594 196.308 249.095 196.09 249.655 195.943C250.222 195.796 250.815 195.693 251.436 195.633C252.166 195.557 252.754 195.486 253.2 195.42C253.647 195.35 253.971 195.246 254.172 195.11C254.374 194.974 254.474 194.772 254.474 194.506V194.457C254.474 193.939 254.311 193.539 253.984 193.256C253.663 192.973 253.206 192.831 252.612 192.831C251.986 192.831 251.488 192.97 251.117 193.248C250.747 193.52 250.502 193.863 250.382 194.277L247.164 194.016C247.328 193.253 247.649 192.594 248.128 192.039C248.607 191.478 249.225 191.048 249.982 190.749C250.744 190.444 251.627 190.291 252.628 190.291C253.325 190.291 253.992 190.373 254.63 190.536C255.272 190.7 255.841 190.953 256.337 191.296C256.838 191.639 257.232 192.08 257.521 192.619C257.809 193.153 257.954 193.792 257.954 194.538V203H254.654V201.26H254.556C254.355 201.652 254.085 201.998 253.747 202.298C253.41 202.592 253.004 202.823 252.53 202.992C252.057 203.155 251.509 203.237 250.889 203.237ZM251.885 200.836C252.397 200.836 252.849 200.735 253.241 200.533C253.633 200.326 253.941 200.049 254.164 199.7C254.387 199.352 254.499 198.957 254.499 198.516V197.185C254.39 197.255 254.24 197.321 254.05 197.381C253.864 197.435 253.655 197.487 253.421 197.536C253.187 197.579 252.952 197.62 252.718 197.658C252.484 197.691 252.272 197.721 252.081 197.748C251.673 197.808 251.316 197.903 251.011 198.034C250.706 198.165 250.469 198.342 250.301 198.565C250.132 198.783 250.047 199.055 250.047 199.382C250.047 199.855 250.219 200.218 250.562 200.468C250.911 200.713 251.352 200.836 251.885 200.836ZM260.653 203V190.455H263.969V192.668H264.116C264.378 191.933 264.813 191.353 265.423 190.928C266.033 190.504 266.763 190.291 267.612 190.291C268.472 190.291 269.205 190.506 269.809 190.936C270.413 191.361 270.816 191.938 271.018 192.668H271.149C271.404 191.949 271.867 191.375 272.537 190.945C273.212 190.509 274.01 190.291 274.93 190.291C276.101 190.291 277.051 190.664 277.781 191.41C278.516 192.151 278.883 193.202 278.883 194.563V203H275.412V195.249C275.412 194.552 275.227 194.029 274.857 193.681C274.486 193.332 274.024 193.158 273.468 193.158C272.836 193.158 272.344 193.359 271.99 193.762C271.636 194.16 271.459 194.685 271.459 195.339V203H268.086V195.175C268.086 194.56 267.909 194.07 267.555 193.705C267.206 193.34 266.746 193.158 266.174 193.158C265.788 193.158 265.439 193.256 265.129 193.452C264.824 193.643 264.582 193.912 264.402 194.261C264.222 194.604 264.133 195.007 264.133 195.469V203H260.653Z" fill="white"/>
<circle cx="175.5" cy="93.5" r="70.5" fill="white"/>
<path d="M181.651 98.6815C182.997 97.2839 184.738 96.2517 186.73 95.7744L193.929 94.0492L193.932 94.054L193.929 94.0492V89.6541H202.721V94.0633L209.901 95.7786C214.596 96.9002 217.909 101.097 217.909 105.925V111.19H201.992L181.651 98.6815Z" fill="#7D9BFF"/>
<path d="M168.077 98.667C166.731 97.2694 164.99 96.2372 162.998 95.7599L155.799 94.0347L155.796 94.0395L155.799 94.0347V89.6395H147.007V94.0488L139.827 95.7641C135.132 96.8857 131.819 101.083 131.819 105.91V111.176H147.736L168.077 98.667Z" fill="#7D9BFF"/>
<path d="M168.731 98.5091L158.704 100.912C152.169 102.478 147.561 108.321 147.561 115.041V125.18H202.131V115.05C202.131 108.326 197.517 102.48 190.978 100.918L180.976 98.5291" fill="#78D2FA"/>
<path d="M180.977 92.3873V98.5285L174.858 112.445L168.732 98.509V92.3873" fill="#FFB487"/>
<path d="M188.531 71.2965V79.7759C188.531 87.3138 182.42 93.4246 174.882 93.4246C167.344 93.4246 161.233 87.3138 161.233 79.7759V71.2965" fill="#FFCDAC"/>
<path d="M174.882 57.0441C167.344 57.0441 161.233 63.1548 161.233 70.6928V73.9785H167.907C172.343 73.9785 176.551 72.0145 179.4 68.6143L188.531 73.9785V70.6928C188.531 63.1548 182.42 57.0441 174.882 57.0441Z" fill="#BEBEBE"/>
<path d="M161.209 76.423V74.0641C161.209 68.6522 156.821 64.265 151.409 64.265C145.998 64.265 141.61 68.6522 141.61 74.0641V76.423H148.365C152.595 76.423 156.746 75.2747 160.374 73.1004" fill="#F5B955"/>
<path d="M161.209 74.4974V80.5851C161.209 85.9969 156.821 90.3842 151.409 90.3842C145.998 90.3842 141.61 85.9969 141.61 80.5851V74.4974" fill="#FFCDAC"/>
<path d="M188.521 76.4375V74.0785C188.521 68.6666 192.908 64.2794 198.32 64.2794C203.731 64.2794 208.119 68.6666 208.119 74.0785V76.4375H201.364C197.134 76.4375 192.983 75.2891 189.355 73.1148" fill="#F5B955"/>
<path d="M188.521 74.5117V80.5994C188.521 86.0112 192.908 90.3985 198.32 90.3985C203.731 90.3985 208.119 86.0112 208.119 80.5994V74.5117" fill="#FFCDAC"/>
<path d="M202.132 127.999C203.688 127.999 204.951 126.737 204.951 125.18V115.05C204.951 114.701 204.937 114.354 204.917 114.009H217.909C219.466 114.009 220.728 112.747 220.728 111.19V105.925C220.728 99.767 216.545 94.4671 210.556 93.0365L205.54 91.8383V90.9389C208.8 88.6552 210.938 84.8735 210.938 80.5999V74.0789C210.938 67.1209 205.277 61.4604 198.319 61.4604C195.197 61.4604 192.338 62.6028 190.132 64.4884C187.677 58.4746 181.768 54.2247 174.882 54.2247C167.987 54.2247 162.072 58.4856 159.622 64.511C157.413 62.6118 154.544 61.4598 151.409 61.4598C144.451 61.4598 138.79 67.1203 138.79 74.0783V74.5117V80.5993C138.79 84.873 140.928 88.6546 144.188 90.9383V91.8377L139.172 93.036C133.183 94.4668 129 99.7664 129 105.924V111.19C129 112.747 130.263 114.009 131.819 114.009H144.775C144.755 114.351 144.741 114.695 144.741 115.041V125.179C144.741 126.736 146.004 127.998 147.561 127.998H164.508C166.065 127.998 167.327 126.736 167.327 125.179C167.327 123.622 166.065 122.36 164.508 122.36H161.595V116.533C161.595 114.976 160.333 113.714 158.776 113.714C157.219 113.714 155.956 114.976 155.956 116.533V122.36H150.38V115.042C150.38 109.604 154.074 104.921 159.361 103.654L167.098 101.8L172.276 113.58C172.726 114.604 173.739 115.265 174.857 115.265H174.857C175.975 115.265 176.988 114.604 177.438 113.58L182.61 101.818L190.323 103.66C195.615 104.925 199.312 109.608 199.312 115.05V122.36H193.736V116.533C193.736 114.976 192.473 113.714 190.917 113.714C189.36 113.714 188.097 114.976 188.097 116.533V122.36H184.902C183.345 122.36 182.083 123.623 182.083 125.18C182.083 126.737 183.345 127.999 184.902 127.999H202.132ZM165.912 93.7935C165.188 93.4741 164.433 93.2187 163.655 93.0323L158.618 91.8253V90.9468C159.527 90.3116 160.349 89.5608 161.062 88.7144C162.321 90.6541 163.975 92.3128 165.912 93.5762V93.7935ZM144.429 80.5993V79.2564H148.364C151.816 79.2564 155.222 78.5722 158.389 77.26V80.599C158.389 84.4475 155.258 87.5787 151.409 87.5787C147.56 87.5787 144.429 84.4481 144.429 80.5993ZM164.053 79.7755V76.7976H167.907C172.378 76.7976 176.629 75.135 179.887 72.1696L185.701 75.5856V80.188C185.483 85.9686 180.715 90.6048 174.882 90.6048C168.911 90.6051 164.053 85.747 164.053 79.7755ZM183.796 93.8026V93.6117C185.749 92.3492 187.418 90.6863 188.687 88.7381C189.395 89.5749 190.209 90.3175 191.11 90.9468V91.8253L186.073 93.0323C185.288 93.2206 184.526 93.4792 183.796 93.8026ZM191.34 80.5993V80.1877C191.343 80.0504 191.35 79.9136 191.35 79.7755V77.2645C194.514 78.5739 197.916 79.2567 201.364 79.2567H205.299V80.5996C205.299 84.4481 202.168 87.5793 198.319 87.5793C194.471 87.5793 191.34 84.4481 191.34 80.5993ZM198.319 67.0986C202.013 67.0986 205.046 69.9831 205.284 73.6179H201.364C198.069 73.6179 194.826 72.8245 191.911 71.3139C192.983 68.8362 195.452 67.0986 198.319 67.0986ZM164.053 70.6928C164.053 64.7216 168.911 59.8635 174.882 59.8635C180.268 59.8635 184.748 63.8157 185.575 68.9718L180.828 66.1832C179.641 65.4856 178.124 65.7476 177.239 66.8034C174.92 69.5715 171.518 71.1591 167.907 71.1591H164.053V70.6928ZM151.409 67.0986C154.276 67.0986 156.745 68.8365 157.817 71.3136C154.902 72.8243 151.66 73.6176 148.364 73.6176H144.444C144.682 69.9831 147.715 67.0986 151.409 67.0986ZM158.047 98.1704C152.501 99.4994 148.141 103.367 146.066 108.37H134.639V105.924C134.639 102.387 137.041 99.3424 140.482 98.5205L147.662 96.8052C148.931 96.5021 149.827 95.3679 149.827 94.0631V93.1152C150.346 93.1803 150.873 93.2178 151.409 93.2178C151.941 93.2178 152.464 93.1809 152.979 93.1166V93.921C152.977 93.963 152.976 94.005 152.976 94.047C152.976 94.972 153.43 95.8782 154.265 96.4184C154.58 96.6222 154.92 96.7547 155.267 96.821L159.473 97.8287L158.047 98.1704ZM174.858 105.44L171.551 97.9169V95.905C172.627 96.1269 173.741 96.2439 174.882 96.2439C176.003 96.2439 177.098 96.1303 178.157 95.9157V97.9361L174.858 105.44ZM191.633 98.1757L190.217 97.8377L194.446 96.8244C194.797 96.759 195.143 96.6248 195.462 96.4184C196.296 95.879 196.749 94.9729 196.749 94.0478C196.749 94.0259 196.749 94.0036 196.748 93.9816V93.1166C197.263 93.1809 197.787 93.2178 198.319 93.2178C198.855 93.2178 199.382 93.1803 199.901 93.1152V94.0631C199.901 95.3679 200.796 96.5021 202.065 96.8052L209.245 98.5205C212.686 99.3427 215.089 102.387 215.089 105.924V108.37H203.622C201.546 103.367 197.184 99.5017 191.633 98.1757Z" fill="black"/>
<path d="M174.846 122.361C174.101 122.361 173.377 122.66 172.852 123.184C172.325 123.712 172.026 124.436 172.026 125.181C172.026 125.922 172.325 126.647 172.852 127.174C173.377 127.698 174.101 128 174.846 128C175.587 128 176.312 127.698 176.839 127.174C177.363 126.647 177.665 125.922 177.665 125.181C177.665 124.436 177.363 123.712 176.839 123.184C176.312 122.66 175.587 122.361 174.846 122.361Z" fill="black"/>
<path d="M174.845 48.8575C176.402 48.8575 177.664 47.5952 177.664 46.0381V41.8194C177.664 40.2622 176.402 39 174.845 39C173.288 39 172.025 40.2622 172.025 41.8194V46.0381C172.025 47.5952 173.288 48.8575 174.845 48.8575Z" fill="black"/>
<path d="M160.474 52.1855C161.024 52.7355 161.746 53.0104 162.467 53.0104C163.189 53.0104 163.91 52.7347 164.461 52.1838C165.561 51.0822 165.561 49.297 164.459 48.1966L161.502 45.2419C160.4 44.1412 158.615 44.142 157.514 45.2436C156.414 46.3451 156.415 48.1303 157.516 49.2307L160.474 52.1855Z" fill="black"/>
<path d="M187.18 53.0657C187.902 53.0657 188.624 52.79 189.174 52.2388L192.109 49.3012C193.209 48.1997 193.209 46.4145 192.107 45.314C191.005 44.2136 189.22 44.2142 188.12 45.316L185.185 48.2536C184.085 49.3551 184.086 51.1403 185.187 52.2407C185.737 52.7908 186.459 53.0657 187.18 53.0657Z" fill="black"/>
</svg>
