<svg width="37" height="37" viewBox="0 0 37 37" fill="none" xmlns="http://www.w3.org/2000/svg">
<path d="M27.4926 12.2189C27.4926 9.78842 26.5271 7.45746 24.8085 5.73883C23.0898 4.0202 20.7589 3.05469 18.3284 3.05469C15.8979 3.05469 13.5669 4.0202 11.8483 5.73883C10.1297 7.45746 9.16415 9.78842 9.16415 12.2189C9.16415 22.9105 4.58203 25.9653 4.58203 25.9653H32.0747C32.0747 25.9653 27.4926 22.9105 27.4926 12.2189Z" stroke="#040404" stroke-width="3" stroke-linecap="round" stroke-linejoin="round"/>
<path d="M20.9722 32.0747C20.7037 32.5376 20.3183 32.9219 19.8545 33.189C19.3908 33.4561 18.865 33.5967 18.3299 33.5967C17.7947 33.5967 17.2689 33.4561 16.8052 33.189C16.3415 32.9219 15.956 32.5376 15.6875 32.0747" stroke="#040404" stroke-width="3" stroke-linecap="round" stroke-linejoin="round"/>
</svg>
