<svg width="49" height="49" viewBox="0 0 49 49" fill="none" xmlns="http://www.w3.org/2000/svg">
<path d="M28.1367 15.1453H44.7891V46.5118H28.1367V15.1453Z" fill="#04BCBC"/>
<path d="M36.7939 22.0601H40.2393V25.5054H36.7939V22.0601Z" fill="#EFEFFB"/>
<path d="M36.7939 28.9265H40.2393V32.3718H36.7939V28.9265Z" fill="#EFEFFB"/>
<path d="M36.7939 35.793H40.2393V39.2383H36.7939V35.793Z" fill="#EFEFFB"/>
<path d="M27.1797 13.9968H46.5117V16.2937H27.1797V13.9968Z" fill="#EFEFFB"/>
<path d="M4.21094 3.63672H31.5181V46.5117H4.21094V3.63672Z" fill="#0BD5DD"/>
<path d="M6.50781 38.7119C6.33017 38.7118 6.15983 38.6412 6.03422 38.5156C5.90861 38.39 5.83799 38.2196 5.83789 38.042V35.2666C5.83789 35.0889 5.90847 34.9185 6.03411 34.7929C6.15974 34.6673 6.33014 34.5967 6.50781 34.5967C6.68549 34.5967 6.85588 34.6673 6.98152 34.7929C7.10715 34.9185 7.17773 35.0889 7.17773 35.2666V38.042C7.17763 38.2196 7.10702 38.39 6.98141 38.5156C6.85579 38.6412 6.68546 38.7118 6.50781 38.7119Z" fill="#04BCBC"/>
<path d="M2.48828 2.48828H33.2408V4.78516H2.48828V2.48828Z" fill="#EFEFFB"/>
<path d="M8.76074 10.5515H12.2061V13.9968H8.76074V10.5515Z" fill="#EFEFFB"/>
<path d="M16.1426 10.5515H19.5879V13.9968H16.1426V10.5515Z" fill="#EFEFFB"/>
<path d="M23.5234 10.5515H26.9687V13.9968H23.5234V10.5515Z" fill="#EFEFFB"/>
<path d="M8.76074 17.418H12.2061V20.8633H8.76074V17.418Z" fill="#EFEFFB"/>
<path d="M16.1426 17.418H19.5879V20.8633H16.1426V17.418Z" fill="#EFEFFB"/>
<path d="M23.5234 17.418H26.9687V20.8633H23.5234V17.418Z" fill="#EFEFFB"/>
<path d="M8.76074 24.2844H12.2061V27.7297H8.76074V24.2844Z" fill="#EFEFFB"/>
<path d="M16.1426 24.2844H19.5879V27.7297H16.1426V24.2844Z" fill="#EFEFFB"/>
<path d="M23.5234 24.2844H26.9687V27.7297H23.5234V24.2844Z" fill="#EFEFFB"/>
<path d="M13.2705 33.6875H22.458V46.5117H13.2705V33.6875Z" fill="#EFEFFB"/>
</svg>
