<svg width="37" height="37" viewBox="0 0 37 37" fill="none" xmlns="http://www.w3.org/2000/svg">
<g clip-path="url(#clip0_1772_348)">
<path d="M18.3384 24.0486C21.4938 24.0486 24.0518 21.4907 24.0518 18.3352C24.0518 15.1797 21.4938 12.6218 18.3384 12.6218C15.1829 12.6218 12.625 15.1797 12.625 18.3352C12.625 21.4907 15.1829 24.0486 18.3384 24.0486Z" stroke="black" stroke-width="3" stroke-linecap="round" stroke-linejoin="round"/>
<path d="M29.9948 23.0947C30.0473 22.9689 30.1416 22.8641 30.2569 22.7802C30.3722 22.7069 30.5085 22.6649 30.6448 22.6649H30.7601C31.9133 22.6649 33.014 22.2037 33.8212 21.3965C34.6389 20.5788 35.0897 18.3353 35.0897 18.3353C35.0897 18.3353 34.6284 16.0814 33.8212 15.2742C33.0035 14.4565 31.9028 14.0057 30.7601 14.0057H30.5295C30.3932 14.0057 30.2569 13.9638 30.1416 13.8904C30.0787 13.8485 30.0158 13.7856 29.9634 13.7227C29.9424 13.6284 29.911 13.534 29.869 13.4501C29.8166 13.3243 29.7957 13.1776 29.8166 13.0413C29.8376 12.905 29.911 12.7792 30.0053 12.6744L30.0787 12.601C30.4771 12.2026 30.8021 11.7204 31.0222 11.1962C31.2424 10.6721 31.3577 10.106 31.3577 9.53988C31.3577 8.97378 31.2424 8.40768 31.0222 7.88352C30.8021 7.35935 30.4876 6.87712 30.0787 6.47876" stroke="black" stroke-width="3" stroke-linecap="round" stroke-linejoin="round"/>
<path d="M29.9832 23.1052C29.9307 23.231 29.9098 23.3778 29.9307 23.5141C29.9517 23.6504 30.0251 23.7762 30.1194 23.881L30.1928 23.9544C30.5912 24.3527 30.9162 24.835 31.1363 25.3591C31.3565 25.8833 31.4718 26.4494 31.4718 27.0155C31.4718 27.5816 31.3565 28.1477 31.1363 28.6718C30.9162 29.196 30.6017 29.6782 30.1928 30.0766C29.7945 30.475 29.3122 30.7999 28.7881 31.0201C28.2639 31.2402 27.6978 31.3556 27.1317 31.3556C26.5656 31.3556 25.9995 31.2402 25.4754 31.0201C24.9512 30.7999 24.469 30.4854 24.0706 30.0766L23.9972 30.0032C23.8924 29.9089 23.7666 29.846 23.6303 29.8145C23.494 29.7936 23.3473 29.8145 23.2215 29.8669H23.211C23.0852 29.9298 22.9803 30.0137 22.8965 30.129C22.8231 30.2443 22.7812 30.3806 22.7812 30.5169V30.7475C22.7812 31.9007 22.3199 33.0014 21.5127 33.8086C20.695 34.6263 19.5942 35.0771 18.4516 35.0771C17.3089 35.0771 16.1977 34.6159 15.3904 33.8086C14.5728 32.9909 14.122 31.8902 14.122 30.7475V30.6427C14.122 30.5064 14.0696 30.3701 13.9962 30.2653C13.9123 30.15 13.797 30.0661 13.6712 30.0137C13.6397 30.0032 13.6083 29.9927 13.5768 29.9718C13.451 29.9193 13.3043 29.8984 13.168 29.9194C13.0317 29.9403 12.9059 30.0137 12.8011 30.108L12.7277 30.1814C12.3293 30.5798 11.8471 30.9048 11.3229 31.1249C10.7988 31.3451 10.2327 31.4604 9.66658 31.4604C9.10049 31.4604 8.53439 31.3451 8.01023 31.1249C7.48606 30.9048 7.00383 30.5903 6.60547 30.1814" stroke="black" stroke-width="3" stroke-linecap="round" stroke-linejoin="round"/>
<path d="M6.46991 6.573C6.07154 6.97136 5.74656 7.45359 5.52641 7.97776C5.30626 8.50192 5.19095 9.06802 5.19095 9.63411C5.19095 10.2002 5.30626 10.7663 5.52641 11.2905C5.74656 11.8146 6.06106 12.2969 6.46991 12.6952L6.54329 12.7686C6.63764 12.8734 6.70054 12.9992 6.73199 13.1355C6.75295 13.2718 6.73199 13.4186 6.67957 13.5444C6.66909 13.5758 6.65861 13.6073 6.63764 13.6387C6.58522 13.775 6.50136 13.8903 6.38604 13.9637C6.27072 14.0476 6.14492 14.0895 6.00864 14.0895H5.90381C4.75065 14.0895 3.64991 14.5508 2.84269 15.358C2.025 16.1757 1.57422 17.2764 1.57422 18.4191C1.57422 19.5618 2.03548 20.673 2.84269 21.4802C3.66039 22.2979 4.76113 22.7487 5.90381 22.7487H6.13444C6.27072 22.7487 6.40701 22.7906 6.52232 22.864C6.63764 22.9374 6.73199 23.0527 6.7844 23.1785C6.83682 23.3253 6.85779 23.4615 6.83682 23.6083C6.81585 23.7446 6.74247 23.8704 6.64812 23.9752L6.57474 24.0486C6.17637 24.447 5.85139 24.9292 5.63124 25.4534C5.4111 25.9775 5.29578 26.5436 5.29578 27.1097C5.29578 27.6758 5.4111 28.2419 5.63124 28.7661C5.85139 29.2902 6.16589 29.7725 6.57474 30.1708" stroke="black" stroke-width="3" stroke-linecap="round" stroke-linejoin="round"/>
<path d="M30.09 6.46821C29.6917 6.06985 29.2094 5.74487 28.6853 5.52472C28.1611 5.30457 27.595 5.18925 27.0289 5.18925C26.4628 5.18925 25.8967 5.30457 25.3726 5.52472C24.8484 5.74487 24.3662 6.05936 23.9678 6.46821L23.8944 6.54159C23.7896 6.63594 23.6638 6.69884 23.5275 6.73029C23.3912 6.75126 23.2445 6.73029 23.1187 6.67788H23.1082C22.9824 6.61498 22.8775 6.53111 22.7937 6.4158C22.7203 6.30048 22.6784 6.1642 22.6784 6.02791V5.9126C22.6784 4.75944 22.2171 3.6587 21.4099 2.85148C20.5922 2.03379 19.4914 1.58301 18.3488 1.58301C17.2061 1.58301 16.0949 2.04427 15.2877 2.85148C14.47 3.66918 14.0192 4.76992 14.0192 5.9126V6.14323C14.0192 6.27951 13.9772 6.4158 13.9039 6.53111C13.8619 6.59401 13.799 6.65691 13.7361 6.70933C13.6418 6.73029 13.5474 6.76174 13.4636 6.80368C13.3378 6.85609 13.191 6.87706 13.0547 6.85609C12.9184 6.83513 12.7926 6.76174 12.6878 6.66739L12.6144 6.59401C12.2161 6.19565 11.7338 5.87067 11.2097 5.65052C10.6855 5.43037 10.1194 5.31505 9.5533 5.31505C8.98721 5.31505 8.42111 5.43037 7.89695 5.65052C7.37278 5.87067 6.89055 6.18516 6.49219 6.59401" stroke="black" stroke-width="3" stroke-linecap="round" stroke-linejoin="round"/>
</g>
<defs>
<clipPath id="clip0_1772_348">
<rect width="36.66" height="36.66" fill="white"/>
</clipPath>
</defs>
</svg>
