<svg width="1134" height="1024" viewBox="0 0 1134 1024" fill="none" xmlns="http://www.w3.org/2000/svg">
<path d="M927.23 927.832C930.82 927.832 933.73 924.922 933.73 921.332C933.73 917.742 930.82 914.832 927.23 914.832C923.641 914.832 920.73 917.742 920.73 921.332C920.73 924.922 923.641 927.832 927.23 927.832Z" fill="#40FCFC"/>
<path d="M879.491 893.385C879.691 891.002 877.921 888.908 875.538 888.708C873.155 888.509 871.061 890.279 870.862 892.662C870.662 895.045 872.432 897.138 874.815 897.338C877.198 897.538 879.292 895.768 879.491 893.385Z" fill="#FD5122"/>
<path d="M58.79 950.332L64.65 934.352C66.76 934.252 68.84 934.482 70.86 935.152L64.53 952.432C64.18 953.402 64.67 954.472 65.64 954.832C66.61 955.182 67.68 954.692 68.04 953.722L74.25 936.762C76.13 937.942 77.75 939.492 79.08 941.342L73.84 955.652C73.49 956.622 73.98 957.692 74.95 958.052C75.92 958.412 76.99 957.912 77.35 956.942L81.47 945.702C83.83 951.552 83.97 958.972 81.31 966.252C81.25 966.422 81.18 966.592 81.12 966.762C82.49 967.552 83.83 968.412 85.11 969.352C88.71 972.002 93.36 976.492 95.03 982.862L93.22 983.332C91.69 977.492 87.37 973.332 84.01 970.862C82.85 970.012 81.64 969.232 80.39 968.502C77.59 974.702 73.12 979.522 68.11 982.192L72.02 971.512C72.37 970.542 71.88 969.472 70.91 969.112C69.94 968.762 68.87 969.252 68.51 970.222L63.47 983.982C61.27 984.522 59.04 984.652 56.86 984.282L62.72 968.292C63.07 967.322 62.58 966.252 61.61 965.892C60.64 965.542 59.57 966.032 59.21 967.002L53.27 983.212C51.35 982.362 49.65 981.092 48.11 979.532L53.47 964.892C53.82 963.922 53.33 962.852 52.36 962.492C51.39 962.142 50.32 962.632 49.96 963.602L45.35 976.182C43.86 974.062 42.56 971.692 41.4 969.222L44.29 961.322C44.64 960.352 44.15 959.282 43.18 958.922C42.21 958.572 41.14 959.062 40.78 960.032L39.24 964.242C36.39 957.172 34.38 950.412 32 948.152C36.03 947.302 41.76 943.452 48.11 940.022L46.12 945.462C45.77 946.432 46.26 947.502 47.23 947.862C48.2 948.222 49.27 947.722 49.63 946.752L52.99 937.582C55.45 936.462 57.96 935.522 60.46 934.942L55.3 949.032C54.95 950.002 55.44 951.072 56.41 951.432C57.38 951.792 58.45 951.292 58.8 950.322L58.79 950.332Z" fill="#E0F4FE"/>
<path d="M960.88 646.012L955.02 630.022C952.91 629.922 950.83 630.152 948.81 630.822L955.14 648.102C955.49 649.072 955 650.142 954.03 650.502C953.06 650.852 951.99 650.362 951.63 649.392L945.42 632.432C943.54 633.612 941.92 635.162 940.59 637.012L945.83 651.322C946.18 652.292 945.69 653.362 944.72 653.722C943.75 654.072 942.68 653.582 942.32 652.612L938.2 641.372C935.84 647.222 935.7 654.642 938.36 661.922C938.42 662.092 938.49 662.262 938.55 662.432C937.18 663.222 935.84 664.082 934.56 665.022C930.96 667.672 926.31 672.162 924.65 678.532L926.46 679.002C927.99 673.162 932.31 669.002 935.67 666.532C936.83 665.682 938.04 664.902 939.28 664.172C942.08 670.372 946.55 675.192 951.56 677.862L947.65 667.182C947.3 666.212 947.79 665.142 948.76 664.782C949.73 664.432 950.8 664.922 951.16 665.892L956.2 679.652C958.4 680.192 960.63 680.322 962.81 679.952L956.95 663.962C956.6 662.992 957.09 661.922 958.06 661.562C959.03 661.212 960.1 661.702 960.46 662.672L966.4 678.882C968.32 678.032 970.02 676.762 971.56 675.202L966.2 660.562C965.84 659.592 966.34 658.522 967.31 658.162C968.28 657.812 969.35 658.302 969.71 659.272L974.32 671.852C975.81 669.732 977.11 667.352 978.27 664.892L975.38 656.992C975.03 656.022 975.52 654.952 976.49 654.592C977.46 654.242 978.53 654.732 978.89 655.702L980.43 659.902C983.28 652.832 985.29 646.072 987.67 643.812C983.64 642.962 977.91 639.112 971.56 635.682L973.55 641.122C973.9 642.092 973.41 643.162 972.44 643.522C971.47 643.872 970.4 643.382 970.04 642.412L966.68 633.242C964.22 632.122 961.71 631.182 959.21 630.602L964.37 644.692C964.72 645.662 964.23 646.732 963.26 647.092C962.29 647.452 961.22 646.952 960.86 645.982L960.88 646.012Z" fill="#E0F4FE"/>
<path d="M888.86 779.692L1063.91 1022.63" stroke="#BDE8FD" stroke-width="17.26" stroke-miterlimit="10"/>
<path d="M841.14 746.862L1039.84 1022.62" stroke="#BDE8FD" stroke-width="17.26" stroke-miterlimit="10"/>
<path d="M840.72 779.692L1015.77 1022.63" stroke="#BDE8FD" stroke-width="17.26" stroke-miterlimit="10"/>
<path d="M589.1 986.882H490.15V1027H589.1V986.882Z" fill="#BDE8FD"/>
<path d="M997.09 903.762H877.39V1026.52H909.31V961.002C909.31 945.632 921.88 933.062 937.24 933.062C952.6 933.062 965.17 945.632 965.17 961.002V1026.52H997.09V903.762Z" fill="#E6F6FE"/>
<path d="M937.25 933.062C921.89 933.062 909.32 945.632 909.32 961.002V1026.52H965.18V961.002C965.18 945.632 952.61 933.062 937.25 933.062Z" fill="white"/>
<path d="M238.99 881.832H133.96V1027.01H238.99V881.832Z" fill="white"/>
<path d="M354.24 803.772H346.95V873.812H354.24V803.772Z" fill="#BDE8FD"/>
<path d="M438.05 857.432H407.39V888.872H415.56V872.092C415.56 868.162 418.78 864.932 422.71 864.932C426.64 864.932 429.86 868.152 429.86 872.092V888.872H438.03V857.432H438.05Z" fill="#D5F0FE"/>
<path d="M422.72 864.932C418.79 864.932 415.57 868.152 415.57 872.092V888.872H429.88V872.092C429.88 868.152 426.66 864.932 422.72 864.932Z" fill="white"/>
<path d="M434.33 852.212H410.03L403.22 857.892H441.15L434.34 852.212H434.33Z" fill="#A1DFFC"/>
<path d="M449.01 897.512H397.2V950.652H411.02V922.292C411.02 915.642 416.46 910.202 423.11 910.202C429.76 910.202 435.2 915.642 435.2 922.292V950.652H449.02V897.512H449.01Z" fill="#D5F0FE"/>
<path d="M423.1 910.192C416.45 910.192 411.01 915.632 411.01 922.282V950.642H435.19V922.282C435.19 915.632 429.75 910.192 423.1 910.192Z" fill="white"/>
<path d="M379.05 859.942H292.99V1027H379.05V859.942Z" fill="#BDE8FD"/>
<path d="M311.17 736.662H286.77C288.19 736.212 289.61 735.842 291.1 735.622H306.77C308.26 735.922 309.68 736.292 311.17 736.662ZM316.69 738.832H281.24C280.49 739.132 279.82 739.502 279.15 739.872H318.71C318.11 739.502 317.37 739.122 316.7 738.832H316.69ZM321.84 742.042H275.64C275.12 742.412 274.67 742.712 274.15 743.082H322.96C322.59 742.712 322.21 742.332 321.84 742.042ZM324.6 745.182H271.53C271.16 745.552 270.71 745.852 270.34 746.222H325.12C324.97 745.922 324.82 745.552 324.6 745.182ZM326.09 748.392H268.25C267.95 748.762 267.65 749.062 267.28 749.432H326.39C326.32 749.062 326.17 748.762 326.09 748.392ZM326.91 751.602H265.56C265.26 751.972 265.04 752.272 264.81 752.652H327.05C326.98 752.282 326.9 751.902 326.9 751.602H326.91ZM327.28 754.742H263.39C263.17 755.112 262.94 755.412 262.79 755.782H327.42C327.34 755.482 327.34 755.112 327.27 754.742H327.28ZM327.43 757.952H261.6C261.45 758.322 261.23 758.622 261.08 758.992H327.43V757.952ZM326.83 761.532C326.9 761.382 326.9 761.312 326.98 761.162H260.18C260.03 761.532 259.88 761.832 259.81 762.202H326.38C326.53 761.982 326.68 761.752 326.83 761.532ZM322.5 764.672C322.72 764.522 322.95 764.452 323.17 764.372H259.13C259.05 764.742 258.98 765.042 258.83 765.412H321.22C321.6 765.112 322.04 764.892 322.49 764.672H322.5ZM318.39 767.512H258.39C258.32 767.882 258.24 768.182 258.24 768.552H317.35C317.65 768.182 318.02 767.802 318.39 767.512ZM315.48 770.652H257.86C257.86 771.022 257.79 771.322 257.79 771.692H314.74C314.96 771.392 315.19 771.022 315.49 770.652H315.48ZM313.47 773.862H257.72V774.902H312.95C313.1 774.602 313.32 774.232 313.47 773.862ZM312.13 777.072H257.87C257.87 777.442 257.94 777.742 258.02 778.112H311.83C311.9 777.742 312.05 777.362 312.13 777.072ZM311.31 780.202H258.39C258.46 780.572 258.54 780.952 258.61 781.242H311.15C311.22 780.942 311.3 780.572 311.3 780.202H311.31ZM311.01 783.412H259.29C259.44 783.782 259.51 784.162 259.66 784.452H311.01C311.01 784.152 311.01 783.782 311.01 783.412ZM261.23 787.672H311.38C311.3 787.302 311.23 787.002 311.23 786.632H260.7C260.85 786.932 261.07 787.302 261.22 787.672H261.23ZM263.32 790.812H312.2C312.13 790.442 311.98 790.142 311.9 789.772H262.57C262.79 790.142 263.02 790.522 263.32 790.812ZM266.16 794.022H312.73C312.73 793.652 312.73 793.352 312.65 792.982H265.03C265.48 793.352 265.85 793.732 266.15 794.022H266.16ZM270.12 797.012C270.27 797.082 270.34 797.162 270.49 797.232H311.76C311.98 796.932 312.21 796.562 312.36 796.192H268.85C269.3 796.412 269.67 796.792 270.12 797.012ZM279.52 800.372H306.16C307.2 800.142 308.17 799.772 309.15 799.332H275.41C276.76 799.782 278.1 800.152 279.52 800.372Z" fill="#C8EBF8"/>
<path d="M430.25 843.932C431.58 843.112 432.77 842.102 433.79 840.942L433.69 840.962L428.9 836.172L435.46 834.492L436.79 835.822C437.24 834.562 437.53 833.232 437.64 831.852L436.07 832.252L431.28 827.462L437.01 825.992C435.66 821.602 432.45 818.042 428.29 816.222L429.73 817.662L423.17 819.342L419.02 815.192C418.25 815.342 417.51 815.552 416.78 815.812L420.89 819.922L414.33 821.602L411.6 818.872C411.1 819.322 410.62 819.802 410.18 820.302L412.05 822.182L408.18 823.172C407.78 823.922 407.45 824.702 407.17 825.512L413.7 823.842L418.49 828.632L411.92 830.312L407.15 825.542C406.9 826.272 406.71 827.032 406.57 827.812L409.65 830.892L406.37 831.732C406.42 832.412 406.5 833.092 406.63 833.752L411.31 832.552L416.1 837.342L409.54 839.022L407.87 837.352C409.41 840.562 412.01 843.162 415.23 844.712L411.21 840.692L417.78 839.012L422.57 843.802L416.66 845.312C418.09 845.832 419.62 846.152 421.22 846.232L424.23 845.462L424.78 846.012C425.56 845.872 426.32 845.682 427.05 845.432L426.5 844.882L430.23 843.932H430.25ZM433.81 832.832L427.25 834.512L422.46 829.722L429.03 828.042L433.82 832.832H433.81ZM431.41 819.322L436.2 824.112L429.64 825.792L424.85 821.002L431.41 819.322ZM416.01 823.262L422.58 821.582L427.37 826.372L420.81 828.052L416.02 823.262H416.01ZM413.62 831.972L420.19 830.292L424.98 835.082L418.42 836.762L413.63 831.972H413.62ZM420.07 838.422L426.64 836.742L431.43 841.532L424.87 843.212L420.08 838.422H420.07Z" fill="#C8ECFD"/>
<path d="M187.55 792.822H82.5195V1027H187.55V792.822Z" fill="#D5F0FE"/>
<path d="M344.03 915.392H239V1027.01H344.03V915.392Z" fill="#D5F0FE"/>
<path d="M299.39 881.392H194.36L238.99 915.872H344.02L299.39 881.392Z" fill="#B1D8E8"/>
<path d="M546.41 964.562H441.38L486.01 987.122H591.04L546.41 964.562Z" fill="#B1D8E8"/>
<path d="M283.29 931.982H269.76V1006.24H283.29V931.982Z" fill="white"/>
<path d="M308.36 931.982H294.83V1006.24H308.36V931.982Z" fill="white"/>
<path d="M333.44 931.982H319.91V1006.24H333.44V931.982Z" fill="white"/>
<path d="M738.63 937.282H673.72V1027.01H738.63V937.282Z" fill="white"/>
<path d="M803.55 958.022H738.64V1027.01H803.55V958.022Z" fill="#D5F0FE"/>
<path d="M775.96 937.012H711.05L738.64 959.072H803.55L775.96 937.012Z" fill="#B1D8E8"/>
<path d="M772.62 968.272H766.04V990.722H772.62V968.272Z" fill="white"/>
<path d="M784.81 968.272H778.23V990.722H784.81V968.272Z" fill="white"/>
<path d="M797 968.272H790.42V990.722H797V968.272Z" fill="white"/>
<path d="M139.42 813.792H82.5195V824.002H139.41V813.792H139.42Z" fill="white"/>
<path d="M139.42 832.762H82.5195V842.972H139.41V832.762H139.42Z" fill="white"/>
<path d="M139.42 851.732H82.5195V861.942H139.41V851.732H139.42Z" fill="white"/>
<path d="M139.42 870.692H82.5195V880.902H139.41V870.692H139.42Z" fill="white"/>
<path d="M139.42 889.662H82.5195V899.872H139.41V889.662H139.42Z" fill="white"/>
<path d="M139.42 908.632H82.5195V918.842H139.41V908.632H139.42Z" fill="white"/>
<path d="M139.42 927.602H82.5195V937.812H139.41V927.602H139.42Z" fill="white"/>
<path d="M139.42 946.572H82.5195V956.782H139.41V946.572H139.42Z" fill="white"/>
<path d="M139.42 965.542H82.5195V975.752H139.41V965.542H139.42Z" fill="white"/>
<path d="M139.42 984.512H82.5195V994.722H139.41V984.512H139.42Z" fill="white"/>
<path d="M102.94 800.652L142.33 1010.77H174.42V802.112L102.94 800.652Z" fill="#D5F0FE"/>
<path d="M456.16 959.692H390.52V1027.01H408.02V991.082C408.02 982.652 414.91 975.762 423.34 975.762C431.77 975.762 438.66 982.662 438.66 991.082V1027.01H456.16V959.692Z" fill="#D5F0FE"/>
<path d="M423.34 975.752C414.91 975.752 408.02 982.652 408.02 991.072V1027H438.66V991.072C438.66 982.642 431.77 975.752 423.34 975.752Z" fill="white"/>
<path d="M995.39 904.872H879.1L853.79 883.592H1020.7L995.39 904.872Z" fill="#E6F6FE"/>
<path d="M344.03 918.552L239 1027.01H344.03V918.552Z" fill="#D5F0FE"/>
<path d="M454.9 964.022L393.64 1027H454.9V964.022Z" fill="#D5F0FE"/>
<path d="M447.12 905.662L404.78 949.192H447.12V905.662Z" fill="#D5F0FE"/>
<path d="M437.39 860.912L410.19 888.872H437.39V860.912Z" fill="#D5F0FE"/>
<path d="M424.12 764.662H419.74V813.302H424.12V764.662Z" fill="#BDE8FD"/>
<path d="M596.75 994.992L586.68 985.762L600.48 982.522L601.64 983.582V978.082L591.7 968.962L601.64 966.622V962.612L588.21 965.762L578.14 956.522L591.94 953.282L601.64 962.172V956.672L596.71 952.152L601.64 950.992V946.972L593.23 948.942L583.16 939.712L596.96 936.472L601.64 940.772V931.362L598.24 932.162L588.17 922.932L601.64 919.772V913.892L593.19 906.142L601.64 904.162V900.142L589.7 902.942L579.63 893.702L593.43 890.462L601.64 897.992V892.492L598.21 889.342L601.64 888.532V884.522L594.72 886.142L584.65 876.912L598.45 873.672L601.64 876.602V868.912L599.74 869.362L589.67 860.122L601.65 857.312V849.752H595.7L599.99 853.682L586.19 856.922L582.13 853.192L579.13 855.942L581.42 858.042L551.33 865.102V869.112L569.38 864.872L567.46 866.632L576.4 874.822L562.6 878.062L558.8 874.572L555.8 877.322L557.83 879.182L551.34 880.702V884.712L561.32 882.372L571.39 891.602L557.59 894.842L551.34 889.112V894.612L552.81 895.962L551.34 896.312V900.332L556.3 899.172L566.37 908.402L552.57 911.642L551.34 910.512V916.012L561.36 925.192L551.34 927.542V931.562L564.84 928.392L574.91 937.622L561.11 940.862L551.33 931.902V937.402L556.33 941.982L551.33 943.152V947.172L559.81 945.182L569.88 954.422L556.08 957.662L551.32 953.302V962.792L554.79 961.982L564.86 971.212L551.32 974.392V980.192L559.85 988.012L551.32 990.012V994.032L563.33 991.212L573.4 1000.44L559.6 1003.68L551.32 996.082V1001.58L554.83 1004.8L551.32 1005.62V1009.64L558.31 1008L568.38 1017.24L554.58 1020.48L551.31 1017.49V1025.27L553.29 1024.81L555.72 1027.04H561.72L558.07 1023.69L571.87 1020.45L575.93 1024.18L578.93 1021.43L576.64 1019.33L601.64 1013.46V1009.45L588.68 1012.49L590.6 1010.73L581.66 1002.54L595.46 999.302L599.26 1002.78L601.64 1000.6V999.452L600.24 998.172L601.64 997.842V993.822L596.76 994.972L596.75 994.992ZM596.99 979.322L583.19 982.562L573.12 973.322L586.92 970.082L596.99 979.322ZM598.48 916.512L584.68 919.752L574.61 910.512L588.41 907.272L598.48 916.502V916.512ZM571.08 864.502L584.88 861.262L594.95 870.502L581.15 873.742L571.08 864.502ZM566.06 881.292L579.86 878.052L589.93 887.292L576.13 890.532L566.06 881.292ZM561.04 898.082L574.84 894.842L584.91 904.082L571.11 907.322L561.04 898.082ZM556.02 914.872L569.82 911.632L579.89 920.872L566.09 924.112L556.02 914.872ZM569.58 927.302L583.38 924.062L593.45 933.302L579.65 936.542L569.58 927.302ZM564.56 944.092L578.36 940.852L588.43 950.092L574.63 953.332L564.56 944.092ZM559.54 960.882L573.34 957.642L583.41 966.882L569.61 970.122L559.54 960.892V960.882ZM554.52 977.672L568.32 974.432L578.39 983.672L564.59 986.912L554.52 977.682V977.672ZM586.94 1012.89L573.14 1016.13L563.07 1006.89L576.87 1003.65L586.94 1012.89ZM578.16 999.342L568.09 990.102L581.89 986.862L591.96 996.102L578.16 999.342Z" fill="#C8ECFD"/>
<path d="M898.81 836.602H813.41V1027.01H898.81V836.602Z" fill="#D5F0FE"/>
<path d="M898.81 853.642H852.55V861.942H898.81V853.642Z" fill="white"/>
<path d="M898.81 869.062H852.55V877.372H898.81V869.062Z" fill="white"/>
<path d="M898.81 884.492H852.55V892.802H898.81V884.492Z" fill="white"/>
<path d="M898.81 899.912H852.55V908.222H898.81V899.912Z" fill="white"/>
<path d="M898.81 915.332H852.55V923.642H898.81V915.332Z" fill="white"/>
<path d="M898.81 930.762H852.55V939.072H898.81V930.762Z" fill="white"/>
<path d="M898.81 946.182H852.55V954.492H898.81V946.182Z" fill="white"/>
<path d="M898.81 961.602H852.55V969.912H898.81V961.602Z" fill="white"/>
<path d="M898.81 977.032H852.55V985.332H898.81V977.032Z" fill="white"/>
<path d="M898.81 992.452H852.55V1000.76H898.81V992.452Z" fill="white"/>
<path d="M882.2 842.962L850.17 1013.8H824.08V844.152L882.2 842.962Z" fill="#D5F0FE"/>
<path d="M709.67 975.362C701.26 975.362 694.38 982.242 694.38 990.652V1026.51H724.96V990.652C724.96 982.242 718.08 975.362 709.67 975.362Z" fill="#89D4F4"/>
<path d="M705.07 859.942H619.01V1027H705.07V859.942Z" fill="#BDE8FD"/>
<path d="M633.22 892.042C639.46 892.042 644.52 886.982 644.52 880.732C644.52 874.482 639.46 869.422 633.22 869.422C626.98 869.422 621.92 874.482 621.92 880.732C621.92 886.982 626.98 892.042 633.22 892.042Z" fill="white"/>
<path d="M663 892.042C669.24 892.042 674.3 886.982 674.3 880.732C674.3 874.482 669.24 869.422 663 869.422C656.76 869.422 651.7 874.482 651.7 880.732C651.7 886.982 656.76 892.042 663 892.042Z" fill="white"/>
<path d="M692.8 892.042C699.04 892.042 704.1 886.982 704.1 880.732C704.1 874.482 699.04 869.422 692.8 869.422C686.56 869.422 681.5 874.482 681.5 880.732C681.5 886.982 686.56 892.042 692.8 892.042Z" fill="white"/>
<path d="M646.38 902.792H640.54V936.842H646.38V902.792Z" fill="white"/>
<path d="M659.02 902.792H653.18V936.842H659.02V902.792Z" fill="white"/>
<path d="M671.67 902.792H665.83V936.842H671.67V902.792Z" fill="white"/>
<path d="M684.31 902.792H678.47V936.842H684.31V902.792Z" fill="white"/>
<path d="M696.95 902.792H691.12V936.842H696.95V902.792Z" fill="white"/>
<path d="M631.79 969.922H625.95V1003.97H631.79V969.922Z" fill="white"/>
<path d="M644.44 969.922H638.6V1003.97H644.44V969.922Z" fill="white"/>
<path d="M657.08 969.922H651.25V1003.97H657.08V969.922Z" fill="white"/>
<path d="M669.72 969.922H663.88V1003.97H669.72V969.922Z" fill="white"/>
<path d="M682.36 969.922H676.52V1003.97H682.36V969.922Z" fill="white"/>
<path d="M705.07 897.882L619 967.662H705.07V897.882Z" fill="#BDE8FD"/>
<path d="M619 956.252L705.07 1026.03H619V956.252Z" fill="#BDE8FD"/>
<path d="M442.71 888.692H401.64L390.13 898.292H454.23L442.72 888.692H442.71Z" fill="#A1DFFC"/>
<path d="M448.19 948.512H396.16L381.57 960.672H462.78L448.19 948.512Z" fill="#A1DFFC"/>
<g opacity="0.5">
<path d="M519.371 502.138C460.471 479.077 431.418 412.635 454.479 353.735" stroke="white" stroke-width="5" stroke-linecap="round"/>
<path d="M922.298 536.844C844.219 736.265 619.261 834.633 419.84 756.554" stroke="white" stroke-width="5" stroke-linecap="round"/>
<path d="M708.888 500.268C766.816 418.664 747.623 305.55 666.019 247.622C584.415 189.694 471.302 208.887 413.373 290.491" stroke="white" stroke-width="5" stroke-linecap="round"/>
<path d="M240.109 490.261C187.783 313.037 289.032 126.951 466.256 74.625" stroke="white" stroke-width="5" stroke-linecap="round"/>
<path d="M458.163 147.374C321.125 204.268 256.155 361.482 313.049 498.52C369.944 635.559 527.157 700.528 664.196 643.634" stroke="white" stroke-width="5" stroke-linecap="round"/>
<path d="M636.557 361.085C631.715 350.353 624.647 340.774 615.821 332.982C606.995 325.19 596.612 319.364 585.363 315.891C574.113 312.418 562.254 311.376 550.571 312.836" stroke="white" stroke-width="5" stroke-linecap="round"/>
<path d="M591.126 365.49C583.327 357.555 572.725 353.001 561.601 352.808C550.477 352.616 539.723 356.8 531.654 364.459" stroke="white" stroke-width="5" stroke-linecap="round"/>
<circle cx="561.128" cy="395.491" r="10.9324" stroke="white" stroke-width="5" stroke-linecap="round"/>
<path d="M865.448 571.19C768.412 739.261 553.5 796.847 385.428 699.811C217.356 602.775 159.771 387.862 256.807 219.791" stroke="white" stroke-width="5" stroke-linecap="round"/>
<path d="M870.359 395.49C870.359 566.274 731.911 704.721 561.128 704.721C390.344 704.721 251.896 566.274 251.896 395.49" stroke="white" stroke-width="5" stroke-linecap="round"/>
<path d="M920.901 603.206C1035.62 404.508 967.541 150.434 768.843 35.7159C570.145 -79.0024 316.071 -10.9235 201.352 187.774" stroke="white" stroke-width="5" stroke-linecap="round"/>
<path d="M920.856 395.49C920.856 196.818 759.8 35.7617 561.127 35.7617" stroke="white" stroke-width="5" stroke-linecap="round"/>
<path d="M935.434 395.49C935.434 602.213 767.852 769.795 561.129 769.795C354.406 769.795 186.824 602.213 186.824 395.49" stroke="white" stroke-width="5" stroke-linecap="round"/>
<path d="M766.937 274.085C699.887 160.418 553.387 122.628 439.72 189.679C326.053 256.729 288.263 403.229 355.314 516.896" stroke="white" stroke-width="5" stroke-linecap="round"/>
<path d="M733.87 688.329C572.14 783.731 363.692 729.962 268.29 568.232C172.888 406.501 226.657 198.054 388.387 102.652" stroke="white" stroke-width="5" stroke-linecap="round"/>
<path d="M659.116 561.604C567.374 615.721 449.132 585.22 395.014 493.478C340.897 401.737 371.398 283.494 463.14 229.377" stroke="white" stroke-width="5" stroke-linecap="round"/>
<path d="M895.991 621.753C771.03 806.693 519.805 855.316 334.864 730.355C149.924 605.393 101.301 354.168 226.263 169.228" stroke="white" stroke-width="5" stroke-linecap="round"/>
<path d="M796.09 256.926C872.665 386.74 829.507 554.051 699.693 630.627" stroke="white" stroke-width="7.07495" stroke-linecap="round"/>
<path d="M642.618 347.421C669.166 392.426 654.204 450.432 609.198 476.98C564.193 503.528 506.188 488.565 479.64 443.56" stroke="white" stroke-width="5" stroke-linecap="round"/>
<path d="M670.085 331.218C705.581 391.394 685.575 468.951 625.4 504.448C565.224 539.945 487.667 519.938 452.17 459.763" stroke="white" stroke-width="5" stroke-linecap="round"/>
<path d="M638.273 526.273C566.044 568.88 472.951 544.866 430.344 472.637C387.737 400.408 411.751 307.315 483.98 264.708" stroke="white" stroke-width="5" stroke-linecap="round"/>
<circle cx="561.127" cy="395.491" r="437.817" stroke="white" stroke-width="5" stroke-linecap="round"/>
<path d="M935.434 395.49C935.434 188.767 767.852 21.1853 561.129 21.1853C354.406 21.1853 186.824 188.767 186.824 395.49" stroke="white" stroke-width="5" stroke-linecap="round"/>
<path d="M561.127 690.145C398.394 690.145 266.473 558.224 266.473 395.49C266.473 232.757 398.394 100.836 561.127 100.836" stroke="white" stroke-width="5" stroke-linecap="round"/>
<path d="M561.128 842.678C314.153 842.678 113.94 642.465 113.94 395.49C113.94 148.515 314.153 -51.6978 561.128 -51.6978" stroke="white" stroke-width="5" stroke-linecap="round"/>
<path d="M638.738 105.847C798.703 148.71 893.634 313.134 850.771 473.1C807.909 633.065 643.484 727.996 483.519 685.133" stroke="white" stroke-width="5" stroke-linecap="round"/>
<path d="M638.738 105.847C798.703 148.71 893.634 313.134 850.771 473.1C807.909 633.065 643.484 727.996 483.519 685.133" stroke="white" stroke-width="5" stroke-linecap="round"/>
<path d="M960.421 395.49C960.421 174.967 781.651 -3.80298 561.127 -3.80298C340.604 -3.80298 161.834 174.967 161.834 395.49" stroke="white" stroke-width="5" stroke-linecap="round"/>
<path d="M960.421 395.49C960.421 174.967 781.651 -3.80298 561.127 -3.80298C340.604 -3.80298 161.834 174.967 161.834 395.49" stroke="white" stroke-width="5" stroke-linecap="round"/>
<path d="M306.043 276.437C371.619 135.689 538.877 74.75 679.625 140.326C820.372 205.902 881.311 373.16 815.735 513.908" stroke="white" stroke-width="5" stroke-linecap="round"/>
<path d="M631.797 517.704C699.151 478.818 722.227 392.694 683.341 325.341C644.455 257.988 558.331 234.911 490.978 273.797" stroke="white" stroke-width="5" stroke-linecap="round"/>
<path d="M775.089 395.75C775.089 513.775 679.411 609.453 561.386 609.453C443.362 609.453 347.684 513.775 347.684 395.75" stroke="white" stroke-width="5" stroke-linecap="round"/>
<path d="M688.698 672.95C535.344 743.452 353.872 676.289 283.37 522.935" stroke="white" stroke-width="5" stroke-linecap="round"/>
<path d="M275.487 115.123C430.434 -42.7338 684.011 -45.0924 841.867 109.854" stroke="white" stroke-width="5" stroke-linecap="round"/>
<path d="M632.014 549.67C546.9 588.801 446.18 551.524 407.05 466.41C367.92 381.296 405.197 280.577 490.311 241.446" stroke="white" stroke-width="5" stroke-linecap="round"/>
<path d="M516.551 298.837C569.922 274.301 633.077 297.675 657.614 351.045" stroke="white" stroke-width="5" stroke-linecap="round"/>
<path d="M574 423.271C589.238 416.266 595.912 398.234 588.906 382.996" stroke="white" stroke-width="5" stroke-linecap="round"/>
<path d="M560.868 455.391C527.66 455.373 500.754 428.438 500.772 395.23" stroke="white" stroke-width="5" stroke-linecap="round"/>
<path d="M555.92 413.282C546.009 410.627 540.128 400.44 542.784 390.529C545.439 380.619 555.626 374.737 565.537 377.393" stroke="white" stroke-width="5" stroke-linecap="round"/>
<path d="M352.705 300.364C405.301 185.285 541.229 134.633 656.308 187.23C771.387 239.826 822.039 375.754 769.442 490.833" stroke="white" stroke-width="5" stroke-linecap="round"/>
<path d="M471.742 86.018C642.659 36.7594 821.147 135.383 870.406 306.301C919.664 477.218 821.04 655.706 650.123 704.965" stroke="white" stroke-width="5" stroke-linecap="round"/>
<path d="M547.89 349.702C522.389 357.052 507.674 383.683 515.024 409.184C522.373 434.685 549.004 449.4 574.505 442.051" stroke="white" stroke-width="5" stroke-linecap="round"/>
<path d="M561.173 755.05C759.803 755.017 920.798 593.968 920.765 395.338" stroke="white" stroke-width="5" stroke-linecap="round"/>
<path d="M561.07 646.963C422.17 646.986 309.55 534.404 309.526 395.504C309.503 256.603 422.085 143.983 560.985 143.96" stroke="white" stroke-width="5" stroke-linecap="round"/>
<path d="M661.636 326.033C699.336 380.886 684.822 456.334 629.217 494.551" stroke="white" stroke-width="5" stroke-linecap="round"/>
<path d="M754.733 10.9875C964.196 116.563 1047.24 374.279 940.219 586.612C833.197 798.944 576.635 885.488 367.172 779.912" stroke="white" stroke-width="5" stroke-linecap="round"/>
<path d="M727.045 281.107C789.187 371.524 765.262 495.888 673.607 558.882C581.951 621.876 457.273 599.645 395.131 509.228" stroke="white" stroke-width="5" stroke-linecap="round"/>
<path d="M839.641 330.254C803.953 178.516 650.329 84.835 496.513 121.012" stroke="white" stroke-width="5" stroke-linecap="round"/>
<path d="M649.108 395.49C649.108 377.305 643.472 359.566 632.977 344.715C622.482 329.863 607.642 318.629 590.5 312.558C573.358 306.487 554.756 305.877 537.252 310.812C519.749 315.747 504.206 325.984 492.76 340.116" stroke="white" stroke-width="5" stroke-linecap="round"/>
</g>
<path opacity="0.5" d="M792.162 212.469C787.235 207.529 780.426 204.476 772.897 204.476C765.368 204.476 758.559 207.529 753.632 212.469C748.706 217.409 745.662 224.236 745.662 231.786C745.662 239.336 748.706 246.164 753.632 251.104C758.559 256.044 765.368 259.096 772.897 259.096C780.426 259.096 787.235 256.044 792.162 251.104C797.088 246.164 800.132 239.336 800.132 231.786C800.132 224.236 797.088 217.409 792.162 212.469ZM781.956 192.635C786.735 193.741 791.191 195.717 795.147 198.371L804.279 190.216L815.971 203.385L807.279 211.141C809.088 214.164 810.515 217.438 811.485 220.903L824.794 220.756L825 238.378L812.426 238.525C811.647 243.156 810.088 247.506 807.868 251.443L815.985 258.683L804.294 271.852L796.118 264.552C791.926 267.546 787.132 269.743 781.971 270.938V283H764.397V271.056C758.853 269.846 753.735 267.502 749.309 264.257L741.147 271.542L729.456 258.374L737.721 251.001C735.632 247.167 734.162 242.964 733.412 238.51L722 238.378L722.206 220.756L734.353 220.889C735.324 217.438 736.735 214.179 738.529 211.171L729.456 203.075L741.147 189.907L750.647 198.386C754.765 195.628 759.412 193.608 764.397 192.517V181H781.971V192.635H781.956Z" fill="white"/>
<path opacity="0.5" fill-rule="evenodd" clip-rule="evenodd" d="M763.912 218.834C771.188 213.817 781.149 215.636 786.166 222.912C791.183 230.188 789.364 240.149 782.088 245.166C774.812 250.183 764.851 248.364 759.834 241.088C754.817 233.812 756.636 223.851 763.912 218.834Z" fill="white"/>
<path opacity="0.5" d="M857.098 261.049C854.567 258.533 851.059 256.974 847.182 256.974C843.304 256.974 839.811 258.533 837.266 261.049C834.735 263.564 833.166 267.05 833.166 270.904C833.166 274.758 834.735 278.23 837.266 280.76C839.796 283.276 843.304 284.835 847.182 284.835C851.059 284.835 854.552 283.276 857.098 280.76C859.629 278.245 861.198 274.758 861.198 270.904C861.198 267.05 859.629 263.579 857.098 261.049ZM851.844 250.928C854.301 251.487 856.595 252.502 858.637 253.855L863.344 249.693L869.353 256.4L864.883 260.357C865.815 261.902 866.541 263.564 867.044 265.329L873.896 265.256L874 274.244L867.532 274.317C867.133 276.671 866.333 278.892 865.194 280.907L869.367 284.599L863.359 291.307L859.155 287.586C856.994 289.115 854.538 290.233 851.873 290.851V297H842.83V290.91C839.974 290.292 837.34 289.101 835.06 287.438L830.857 291.16L824.848 284.452L829.096 280.687C828.03 278.73 827.261 276.582 826.876 274.317L821 274.244L821.104 265.256L827.349 265.329C827.853 263.564 828.578 261.902 829.495 260.372L824.833 256.238L830.842 249.531L835.726 253.855C837.843 252.443 840.24 251.414 842.801 250.869V245H851.844V250.928Z" fill="white"/>
<path opacity="0.5" fill-rule="evenodd" clip-rule="evenodd" d="M842.453 264.416C846.082 261.906 851.074 262.824 853.584 266.453C856.094 270.082 855.176 275.074 851.547 277.584C847.918 280.094 842.926 279.176 840.416 275.547C837.906 271.918 838.824 266.926 842.453 264.416Z" fill="white"/>
<path fill-rule="evenodd" clip-rule="evenodd" d="M301 489C302.654 489 304 490.571 304 492.5C304 494.429 302.654 496 301 496C299.346 496 298 494.429 298 492.5C298 490.571 299.346 489 301 489Z" fill="white"/>
<path fill-rule="evenodd" clip-rule="evenodd" d="M404 510C405.108 510 406 510.892 406 512C406 513.108 405.108 514 404 514C402.892 514 402 513.108 402 512C402 510.892 402.892 510 404 510Z" fill="white"/>
<path fill-rule="evenodd" clip-rule="evenodd" d="M421.507 479C422.329 479 423 479.674 423 480.5C423 481.326 422.329 482 421.507 482C420.685 482 420 481.326 420 480.5C420 479.674 420.671 479 421.507 479Z" fill="white"/>
<path fill-rule="evenodd" clip-rule="evenodd" d="M488 720C488.547 720 489 720.453 489 721C489 721.547 488.547 722 488 722C487.453 722 487 721.547 487 721C487 720.453 487.453 720 488 720Z" fill="white"/>
<rect x="687" y="743" width="245" height="139" rx="19" fill="#EEF5FF" stroke="#14335D" stroke-width="4"/>
<path d="M738.684 805C738.516 805 738.376 804.944 738.264 804.832C738.152 804.72 738.096 804.58 738.096 804.412C738.096 804.356 738.105 804.3 738.124 804.244C738.142 804.188 738.161 804.132 738.18 804.076L744.452 795.004L738.572 786.324C738.516 786.212 738.488 786.1 738.488 785.988C738.488 785.82 738.544 785.68 738.656 785.568C738.768 785.456 738.898 785.4 739.048 785.4H741.932C742.156 785.4 742.333 785.456 742.464 785.568C742.594 785.68 742.706 785.801 742.8 785.932L746.916 791.98L751.06 785.932C751.134 785.801 751.237 785.68 751.368 785.568C751.517 785.456 751.704 785.4 751.928 785.4H754.644C754.812 785.4 754.952 785.456 755.064 785.568C755.176 785.68 755.232 785.82 755.232 785.988C755.232 786.1 755.194 786.212 755.12 786.324L749.268 795.004L755.54 804.076C755.577 804.132 755.605 804.188 755.624 804.244C755.642 804.3 755.652 804.356 755.652 804.412C755.652 804.58 755.586 804.72 755.456 804.832C755.344 804.944 755.213 805 755.064 805H752.096C751.872 805 751.694 804.944 751.564 804.832C751.433 804.72 751.33 804.608 751.256 804.496L746.776 798.168L742.38 804.496C742.305 804.608 742.202 804.72 742.072 804.832C741.941 804.944 741.754 805 741.512 805H738.684ZM758.679 810.32C758.492 810.32 758.334 810.255 758.203 810.124C758.072 809.993 758.007 809.835 758.007 809.648V791.112C758.007 790.925 758.072 790.767 758.203 790.636C758.334 790.505 758.492 790.44 758.679 790.44H760.891C761.096 790.44 761.255 790.505 761.367 790.636C761.498 790.767 761.563 790.925 761.563 791.112V792.232C762.011 791.635 762.599 791.14 763.327 790.748C764.055 790.356 764.96 790.16 766.043 790.16C767.032 790.16 767.891 790.319 768.619 790.636C769.347 790.953 769.954 791.411 770.439 792.008C770.924 792.587 771.298 793.277 771.559 794.08C771.82 794.883 771.97 795.769 772.007 796.74C772.026 797.057 772.035 797.384 772.035 797.72C772.035 798.056 772.026 798.392 772.007 798.728C771.988 799.661 771.848 800.529 771.587 801.332C771.326 802.116 770.943 802.807 770.439 803.404C769.954 803.983 769.347 804.44 768.619 804.776C767.891 805.112 767.032 805.28 766.043 805.28C765.035 805.28 764.176 805.103 763.467 804.748C762.758 804.375 762.179 803.889 761.731 803.292V809.648C761.731 809.835 761.666 809.993 761.535 810.124C761.423 810.255 761.264 810.32 761.059 810.32H758.679ZM765.007 802.284C765.81 802.284 766.435 802.116 766.883 801.78C767.331 801.425 767.648 800.968 767.835 800.408C768.04 799.848 768.162 799.232 768.199 798.56C768.236 798 768.236 797.44 768.199 796.88C768.162 796.208 768.04 795.592 767.835 795.032C767.648 794.472 767.331 794.024 766.883 793.688C766.435 793.333 765.81 793.156 765.007 793.156C764.242 793.156 763.616 793.333 763.131 793.688C762.664 794.043 762.319 794.5 762.095 795.06C761.89 795.601 761.768 796.161 761.731 796.74C761.712 797.076 761.703 797.431 761.703 797.804C761.703 798.177 761.712 798.541 761.731 798.896C761.75 799.456 761.88 799.997 762.123 800.52C762.366 801.024 762.72 801.444 763.187 801.78C763.654 802.116 764.26 802.284 765.007 802.284ZM775.85 805C775.663 805 775.505 804.935 775.374 804.804C775.243 804.673 775.178 804.515 775.178 804.328V791.14C775.178 790.935 775.243 790.767 775.374 790.636C775.505 790.505 775.663 790.44 775.85 790.44H778.118C778.305 790.44 778.463 790.505 778.594 790.636C778.743 790.767 778.818 790.935 778.818 791.14V792.288C779.247 791.691 779.798 791.233 780.47 790.916C781.161 790.599 781.954 790.44 782.85 790.44H783.998C784.203 790.44 784.362 790.505 784.474 790.636C784.605 790.767 784.67 790.925 784.67 791.112V793.128C784.67 793.315 784.605 793.473 784.474 793.604C784.362 793.735 784.203 793.8 783.998 793.8H781.814C780.918 793.8 780.218 794.052 779.714 794.556C779.229 795.06 778.986 795.751 778.986 796.628V804.328C778.986 804.515 778.921 804.673 778.79 804.804C778.659 804.935 778.491 805 778.286 805H775.85ZM792.934 805.28C790.862 805.28 789.22 804.683 788.006 803.488C786.793 802.293 786.14 800.595 786.046 798.392C786.028 798.205 786.018 797.972 786.018 797.692C786.018 797.393 786.028 797.16 786.046 796.992C786.121 795.592 786.438 794.379 786.998 793.352C787.577 792.325 788.37 791.541 789.378 791C790.386 790.44 791.572 790.16 792.934 790.16C794.446 790.16 795.716 790.477 796.742 791.112C797.769 791.728 798.544 792.596 799.066 793.716C799.589 794.817 799.85 796.096 799.85 797.552V798.14C799.85 798.327 799.785 798.485 799.654 798.616C799.524 798.747 799.356 798.812 799.15 798.812H789.854C789.854 798.812 789.854 798.84 789.854 798.896C789.854 798.952 789.854 798.999 789.854 799.036C789.873 799.689 789.994 800.296 790.218 800.856C790.461 801.397 790.806 801.836 791.254 802.172C791.721 802.508 792.272 802.676 792.906 802.676C793.429 802.676 793.868 802.601 794.222 802.452C794.577 802.284 794.866 802.097 795.09 801.892C795.314 801.687 795.473 801.519 795.566 801.388C795.734 801.164 795.865 801.033 795.958 800.996C796.07 800.94 796.229 800.912 796.434 800.912H798.842C799.029 800.912 799.178 800.968 799.29 801.08C799.421 801.192 799.477 801.332 799.458 801.5C799.44 801.799 799.281 802.163 798.982 802.592C798.702 803.021 798.292 803.441 797.75 803.852C797.209 804.263 796.528 804.608 795.706 804.888C794.904 805.149 793.98 805.28 792.934 805.28ZM789.854 796.46H796.042V796.376C796.042 795.648 795.921 795.013 795.678 794.472C795.436 793.931 795.081 793.501 794.614 793.184C794.148 792.867 793.588 792.708 792.934 792.708C792.281 792.708 791.721 792.867 791.254 793.184C790.788 793.501 790.433 793.931 790.19 794.472C789.966 795.013 789.854 795.648 789.854 796.376V796.46ZM808.339 805.28C807.219 805.28 806.257 805.149 805.455 804.888C804.671 804.627 804.027 804.3 803.523 803.908C803.019 803.516 802.645 803.124 802.403 802.732C802.16 802.34 802.029 802.013 802.011 801.752C801.992 801.547 802.048 801.388 802.179 801.276C802.328 801.145 802.487 801.08 802.655 801.08H804.867C804.941 801.08 805.007 801.089 805.063 801.108C805.119 801.127 805.193 801.183 805.287 801.276C805.529 801.481 805.781 801.696 806.043 801.92C806.323 802.144 806.649 802.34 807.023 802.508C807.396 802.657 807.863 802.732 808.423 802.732C809.151 802.732 809.757 802.592 810.243 802.312C810.747 802.013 810.999 801.593 810.999 801.052C810.999 800.66 810.887 800.343 810.663 800.1C810.457 799.857 810.065 799.643 809.487 799.456C808.908 799.251 808.087 799.036 807.023 798.812C805.977 798.569 805.109 798.261 804.419 797.888C803.728 797.515 803.215 797.048 802.879 796.488C802.543 795.928 802.375 795.275 802.375 794.528C802.375 793.8 802.589 793.109 803.019 792.456C803.467 791.784 804.12 791.233 804.979 790.804C805.856 790.375 806.939 790.16 808.227 790.16C809.235 790.16 810.112 790.291 810.859 790.552C811.605 790.795 812.221 791.103 812.707 791.476C813.211 791.849 813.593 792.232 813.855 792.624C814.116 792.997 814.256 793.324 814.275 793.604C814.293 793.809 814.237 793.977 814.107 794.108C813.976 794.22 813.827 794.276 813.659 794.276H811.587C811.493 794.276 811.409 794.257 811.335 794.22C811.26 794.183 811.185 794.136 811.111 794.08C810.905 793.893 810.681 793.697 810.439 793.492C810.196 793.287 809.897 793.109 809.543 792.96C809.207 792.792 808.759 792.708 808.199 792.708C807.489 792.708 806.948 792.867 806.575 793.184C806.201 793.483 806.015 793.865 806.015 794.332C806.015 794.649 806.099 794.929 806.267 795.172C806.453 795.396 806.817 795.611 807.359 795.816C807.9 796.021 808.721 796.236 809.823 796.46C811.073 796.684 812.063 797.02 812.791 797.468C813.537 797.897 814.06 798.401 814.359 798.98C814.676 799.54 814.835 800.165 814.835 800.856C814.835 801.696 814.583 802.452 814.079 803.124C813.593 803.796 812.865 804.328 811.895 804.72C810.943 805.093 809.757 805.28 808.339 805.28ZM823.241 805.28C822.121 805.28 821.16 805.149 820.357 804.888C819.573 804.627 818.929 804.3 818.425 803.908C817.921 803.516 817.548 803.124 817.305 802.732C817.062 802.34 816.932 802.013 816.913 801.752C816.894 801.547 816.95 801.388 817.081 801.276C817.23 801.145 817.389 801.08 817.557 801.08H819.769C819.844 801.08 819.909 801.089 819.965 801.108C820.021 801.127 820.096 801.183 820.189 801.276C820.432 801.481 820.684 801.696 820.945 801.92C821.225 802.144 821.552 802.34 821.925 802.508C822.298 802.657 822.765 802.732 823.325 802.732C824.053 802.732 824.66 802.592 825.145 802.312C825.649 802.013 825.901 801.593 825.901 801.052C825.901 800.66 825.789 800.343 825.565 800.1C825.36 799.857 824.968 799.643 824.389 799.456C823.81 799.251 822.989 799.036 821.925 798.812C820.88 798.569 820.012 798.261 819.321 797.888C818.63 797.515 818.117 797.048 817.781 796.488C817.445 795.928 817.277 795.275 817.277 794.528C817.277 793.8 817.492 793.109 817.921 792.456C818.369 791.784 819.022 791.233 819.881 790.804C820.758 790.375 821.841 790.16 823.129 790.16C824.137 790.16 825.014 790.291 825.761 790.552C826.508 790.795 827.124 791.103 827.609 791.476C828.113 791.849 828.496 792.232 828.757 792.624C829.018 792.997 829.158 793.324 829.177 793.604C829.196 793.809 829.14 793.977 829.009 794.108C828.878 794.22 828.729 794.276 828.561 794.276H826.489C826.396 794.276 826.312 794.257 826.237 794.22C826.162 794.183 826.088 794.136 826.013 794.08C825.808 793.893 825.584 793.697 825.341 793.492C825.098 793.287 824.8 793.109 824.445 792.96C824.109 792.792 823.661 792.708 823.101 792.708C822.392 792.708 821.85 792.867 821.477 793.184C821.104 793.483 820.917 793.865 820.917 794.332C820.917 794.649 821.001 794.929 821.169 795.172C821.356 795.396 821.72 795.611 822.261 795.816C822.802 796.021 823.624 796.236 824.725 796.46C825.976 796.684 826.965 797.02 827.693 797.468C828.44 797.897 828.962 798.401 829.261 798.98C829.578 799.54 829.737 800.165 829.737 800.856C829.737 801.696 829.485 802.452 828.981 803.124C828.496 803.796 827.768 804.328 826.797 804.72C825.845 805.093 824.66 805.28 823.241 805.28ZM840.579 805.28C838.862 805.28 837.397 804.981 836.183 804.384C834.989 803.787 834.055 802.928 833.383 801.808C832.73 800.669 832.375 799.316 832.319 797.748C832.301 796.945 832.291 796.087 832.291 795.172C832.291 794.239 832.301 793.361 832.319 792.54C832.375 790.991 832.73 789.665 833.383 788.564C834.055 787.463 834.998 786.613 836.211 786.016C837.443 785.419 838.899 785.12 840.579 785.12C841.942 785.12 843.137 785.307 844.163 785.68C845.19 786.035 846.039 786.501 846.711 787.08C847.402 787.64 847.915 788.247 848.251 788.9C848.606 789.553 848.793 790.16 848.811 790.72C848.83 790.888 848.783 791.028 848.671 791.14C848.559 791.252 848.41 791.308 848.223 791.308H845.339C845.153 791.308 845.013 791.271 844.919 791.196C844.826 791.121 844.742 791.009 844.667 790.86C844.518 790.468 844.285 790.085 843.967 789.712C843.65 789.32 843.221 788.993 842.679 788.732C842.138 788.471 841.438 788.34 840.579 788.34C839.31 788.34 838.293 788.676 837.527 789.348C836.781 790.02 836.379 791.131 836.323 792.68C836.267 794.304 836.267 795.947 836.323 797.608C836.379 799.195 836.79 800.333 837.555 801.024C838.339 801.715 839.366 802.06 840.635 802.06C841.475 802.06 842.222 801.911 842.875 801.612C843.547 801.313 844.07 800.847 844.443 800.212C844.835 799.577 845.031 798.765 845.031 797.776V796.908H841.615C841.429 796.908 841.27 796.843 841.139 796.712C841.009 796.581 840.943 796.413 840.943 796.208V794.724C840.943 794.519 841.009 794.351 841.139 794.22C841.27 794.089 841.429 794.024 841.615 794.024H848.307C848.513 794.024 848.671 794.089 848.783 794.22C848.914 794.351 848.979 794.519 848.979 794.724V797.664C848.979 799.232 848.634 800.585 847.943 801.724C847.271 802.863 846.301 803.74 845.031 804.356C843.781 804.972 842.297 805.28 840.579 805.28ZM856.461 805.28C855.49 805.28 854.613 805.093 853.829 804.72C853.045 804.328 852.419 803.815 851.953 803.18C851.505 802.527 851.281 801.799 851.281 800.996C851.281 799.689 851.803 798.653 852.849 797.888C853.913 797.104 855.313 796.581 857.049 796.32L860.885 795.76V795.172C860.885 794.388 860.689 793.781 860.297 793.352C859.905 792.923 859.233 792.708 858.281 792.708C857.609 792.708 857.058 792.848 856.629 793.128C856.218 793.389 855.91 793.744 855.705 794.192C855.555 794.435 855.341 794.556 855.061 794.556H852.849C852.643 794.556 852.485 794.5 852.373 794.388C852.279 794.276 852.233 794.127 852.233 793.94C852.251 793.641 852.373 793.277 852.597 792.848C852.821 792.419 853.175 792.008 853.661 791.616C854.146 791.205 854.771 790.86 855.537 790.58C856.302 790.3 857.226 790.16 858.309 790.16C859.485 790.16 860.474 790.309 861.277 790.608C862.098 790.888 862.751 791.271 863.237 791.756C863.722 792.241 864.077 792.811 864.301 793.464C864.525 794.117 864.637 794.808 864.637 795.536V804.328C864.637 804.515 864.571 804.673 864.441 804.804C864.31 804.935 864.151 805 863.965 805H861.697C861.491 805 861.323 804.935 861.193 804.804C861.081 804.673 861.025 804.515 861.025 804.328V803.236C860.782 803.591 860.455 803.927 860.045 804.244C859.634 804.543 859.13 804.795 858.533 805C857.954 805.187 857.263 805.28 856.461 805.28ZM857.413 802.62C858.066 802.62 858.654 802.48 859.177 802.2C859.718 801.92 860.138 801.491 860.437 800.912C860.754 800.315 860.913 799.568 860.913 798.672V798.084L858.113 798.532C857.011 798.7 856.19 798.971 855.649 799.344C855.107 799.717 854.837 800.175 854.837 800.716C854.837 801.127 854.958 801.481 855.201 801.78C855.462 802.06 855.789 802.275 856.181 802.424C856.573 802.555 856.983 802.62 857.413 802.62ZM874.672 805C873.552 805 872.609 804.804 871.844 804.412C871.079 804.02 870.509 803.441 870.136 802.676C869.763 801.892 869.576 800.921 869.576 799.764V793.408H867.364C867.177 793.408 867.019 793.343 866.888 793.212C866.757 793.081 866.692 792.923 866.692 792.736V791.112C866.692 790.925 866.757 790.767 866.888 790.636C867.019 790.505 867.177 790.44 867.364 790.44H869.576V785.792C869.576 785.605 869.632 785.447 869.744 785.316C869.875 785.185 870.043 785.12 870.248 785.12H872.516C872.703 785.12 872.861 785.185 872.992 785.316C873.123 785.447 873.188 785.605 873.188 785.792V790.44H876.688C876.875 790.44 877.033 790.505 877.164 790.636C877.295 790.767 877.36 790.925 877.36 791.112V792.736C877.36 792.923 877.295 793.081 877.164 793.212C877.033 793.343 876.875 793.408 876.688 793.408H873.188V799.484C873.188 800.249 873.319 800.847 873.58 801.276C873.86 801.705 874.336 801.92 875.008 801.92H876.94C877.127 801.92 877.285 801.985 877.416 802.116C877.547 802.247 877.612 802.405 877.612 802.592V804.328C877.612 804.515 877.547 804.673 877.416 804.804C877.285 804.935 877.127 805 876.94 805H874.672ZM886.368 805.28C884.296 805.28 882.653 804.683 881.44 803.488C880.227 802.293 879.573 800.595 879.48 798.392C879.461 798.205 879.452 797.972 879.452 797.692C879.452 797.393 879.461 797.16 879.48 796.992C879.555 795.592 879.872 794.379 880.432 793.352C881.011 792.325 881.804 791.541 882.812 791C883.82 790.44 885.005 790.16 886.368 790.16C887.88 790.16 889.149 790.477 890.176 791.112C891.203 791.728 891.977 792.596 892.5 793.716C893.023 794.817 893.284 796.096 893.284 797.552V798.14C893.284 798.327 893.219 798.485 893.088 798.616C892.957 798.747 892.789 798.812 892.584 798.812H883.288C883.288 798.812 883.288 798.84 883.288 798.896C883.288 798.952 883.288 798.999 883.288 799.036C883.307 799.689 883.428 800.296 883.652 800.856C883.895 801.397 884.24 801.836 884.688 802.172C885.155 802.508 885.705 802.676 886.34 802.676C886.863 802.676 887.301 802.601 887.656 802.452C888.011 802.284 888.3 802.097 888.524 801.892C888.748 801.687 888.907 801.519 889 801.388C889.168 801.164 889.299 801.033 889.392 800.996C889.504 800.94 889.663 800.912 889.868 800.912H892.276C892.463 800.912 892.612 800.968 892.724 801.08C892.855 801.192 892.911 801.332 892.892 801.5C892.873 801.799 892.715 802.163 892.416 802.592C892.136 803.021 891.725 803.441 891.184 803.852C890.643 804.263 889.961 804.608 889.14 804.888C888.337 805.149 887.413 805.28 886.368 805.28ZM883.288 796.46H889.476V796.376C889.476 795.648 889.355 795.013 889.112 794.472C888.869 793.931 888.515 793.501 888.048 793.184C887.581 792.867 887.021 792.708 886.368 792.708C885.715 792.708 885.155 792.867 884.688 793.184C884.221 793.501 883.867 793.931 883.624 794.472C883.4 795.013 883.288 795.648 883.288 796.376V796.46ZM774.265 838.28C772.529 838.28 771.073 838.028 769.897 837.524C768.74 837.001 767.853 836.329 767.237 835.508C766.64 834.668 766.323 833.791 766.285 832.876C766.285 832.708 766.341 832.568 766.453 832.456C766.565 832.344 766.705 832.288 766.873 832.288H769.365C769.608 832.288 769.785 832.344 769.897 832.456C770.028 832.549 770.14 832.671 770.233 832.82C770.345 833.175 770.56 833.529 770.877 833.884C771.195 834.22 771.624 834.5 772.165 834.724C772.725 834.948 773.425 835.06 774.265 835.06C775.609 835.06 776.608 834.836 777.261 834.388C777.933 833.94 778.269 833.333 778.269 832.568C778.269 832.027 778.092 831.597 777.737 831.28C777.383 830.944 776.832 830.645 776.085 830.384C775.357 830.104 774.387 829.815 773.173 829.516C771.773 829.18 770.597 828.779 769.645 828.312C768.712 827.827 768.003 827.22 767.517 826.492C767.051 825.764 766.817 824.84 766.817 823.72C766.817 822.637 767.107 821.676 767.685 820.836C768.283 819.996 769.123 819.333 770.205 818.848C771.307 818.363 772.613 818.12 774.125 818.12C775.339 818.12 776.412 818.288 777.345 818.624C778.279 818.941 779.053 819.371 779.669 819.912C780.285 820.435 780.752 821.004 781.069 821.62C781.405 822.217 781.583 822.805 781.601 823.384C781.601 823.533 781.545 823.673 781.433 823.804C781.34 823.916 781.2 823.972 781.013 823.972H778.409C778.26 823.972 778.111 823.935 777.961 823.86C777.812 823.785 777.691 823.645 777.597 823.44C777.485 822.861 777.121 822.367 776.505 821.956C775.889 821.545 775.096 821.34 774.125 821.34C773.117 821.34 772.305 821.527 771.689 821.9C771.073 822.273 770.765 822.852 770.765 823.636C770.765 824.159 770.915 824.597 771.213 824.952C771.531 825.288 772.025 825.587 772.697 825.848C773.388 826.109 774.293 826.389 775.413 826.688C777 827.043 778.297 827.453 779.305 827.92C780.313 828.387 781.051 828.984 781.517 829.712C781.984 830.421 782.217 831.327 782.217 832.428C782.217 833.66 781.881 834.715 781.209 835.592C780.556 836.451 779.632 837.113 778.437 837.58C777.243 838.047 775.852 838.28 774.265 838.28ZM791.53 838.28C790.037 838.28 788.777 838.019 787.75 837.496C786.742 836.973 785.968 836.236 785.426 835.284C784.904 834.332 784.605 833.221 784.53 831.952C784.512 831.616 784.502 831.205 784.502 830.72C784.502 830.235 784.512 829.824 784.53 829.488C784.605 828.2 784.913 827.089 785.454 826.156C786.014 825.204 786.798 824.467 787.806 823.944C788.833 823.421 790.074 823.16 791.53 823.16C792.986 823.16 794.218 823.421 795.226 823.944C796.253 824.467 797.037 825.204 797.578 826.156C798.138 827.089 798.456 828.2 798.53 829.488C798.549 829.824 798.558 830.235 798.558 830.72C798.558 831.205 798.549 831.616 798.53 831.952C798.456 833.221 798.148 834.332 797.606 835.284C797.084 836.236 796.309 836.973 795.282 837.496C794.274 838.019 793.024 838.28 791.53 838.28ZM791.53 835.508C792.52 835.508 793.285 835.2 793.826 834.584C794.368 833.949 794.666 833.025 794.722 831.812C794.741 831.532 794.75 831.168 794.75 830.72C794.75 830.272 794.741 829.908 794.722 829.628C794.666 828.433 794.368 827.519 793.826 826.884C793.285 826.249 792.52 825.932 791.53 825.932C790.541 825.932 789.776 826.249 789.234 826.884C788.693 827.519 788.394 828.433 788.338 829.628C788.32 829.908 788.31 830.272 788.31 830.72C788.31 831.168 788.32 831.532 788.338 831.812C788.394 833.025 788.693 833.949 789.234 834.584C789.776 835.2 790.541 835.508 791.53 835.508ZM807.961 838.28C806.617 838.28 805.431 838.028 804.405 837.524C803.397 837.02 802.603 836.292 802.025 835.34C801.465 834.369 801.157 833.203 801.101 831.84C801.082 831.56 801.073 831.196 801.073 830.748C801.073 830.281 801.082 829.899 801.101 829.6C801.157 828.237 801.465 827.08 802.025 826.128C802.603 825.157 803.397 824.42 804.405 823.916C805.431 823.412 806.617 823.16 807.961 823.16C809.155 823.16 810.173 823.328 811.013 823.664C811.853 824 812.543 824.42 813.085 824.924C813.626 825.428 814.027 825.96 814.289 826.52C814.569 827.061 814.718 827.556 814.737 828.004C814.755 828.209 814.69 828.377 814.541 828.508C814.41 828.62 814.251 828.676 814.065 828.676H811.601C811.414 828.676 811.265 828.629 811.153 828.536C811.059 828.443 810.966 828.303 810.873 828.116C810.593 827.369 810.219 826.847 809.753 826.548C809.305 826.231 808.726 826.072 808.017 826.072C807.083 826.072 806.337 826.371 805.777 826.968C805.235 827.547 804.946 828.471 804.909 829.74C804.871 830.449 804.871 831.103 804.909 831.7C804.946 832.988 805.235 833.921 805.777 834.5C806.337 835.079 807.083 835.368 808.017 835.368C808.745 835.368 809.333 835.219 809.781 834.92C810.229 834.603 810.593 834.071 810.873 833.324C810.966 833.137 811.059 832.997 811.153 832.904C811.265 832.811 811.414 832.764 811.601 832.764H814.065C814.251 832.764 814.41 832.829 814.541 832.96C814.69 833.072 814.755 833.231 814.737 833.436C814.718 833.772 814.625 834.155 814.457 834.584C814.307 834.995 814.055 835.424 813.701 835.872C813.365 836.301 812.935 836.703 812.413 837.076C811.89 837.431 811.255 837.72 810.509 837.944C809.781 838.168 808.931 838.28 807.961 838.28ZM818.329 838C818.142 838 817.983 837.935 817.853 837.804C817.722 837.673 817.657 837.515 817.657 837.328V824.112C817.657 823.925 817.722 823.767 817.853 823.636C817.983 823.505 818.142 823.44 818.329 823.44H820.653C820.858 823.44 821.017 823.505 821.129 823.636C821.259 823.767 821.325 823.925 821.325 824.112V837.328C821.325 837.515 821.259 837.673 821.129 837.804C821.017 837.935 820.858 838 820.653 838H818.329ZM818.217 821.032C818.011 821.032 817.843 820.976 817.713 820.864C817.601 820.733 817.545 820.565 817.545 820.36V818.344C817.545 818.157 817.601 817.999 817.713 817.868C817.843 817.737 818.011 817.672 818.217 817.672H820.765C820.97 817.672 821.138 817.737 821.269 817.868C821.399 817.999 821.465 818.157 821.465 818.344V820.36C821.465 820.565 821.399 820.733 821.269 820.864C821.138 820.976 820.97 821.032 820.765 821.032H818.217ZM831.393 838.28C829.321 838.28 827.679 837.683 826.465 836.488C825.252 835.293 824.599 833.595 824.505 831.392C824.487 831.205 824.477 830.972 824.477 830.692C824.477 830.393 824.487 830.16 824.505 829.992C824.58 828.592 824.897 827.379 825.457 826.352C826.036 825.325 826.829 824.541 827.837 824C828.845 823.44 830.031 823.16 831.393 823.16C832.905 823.16 834.175 823.477 835.201 824.112C836.228 824.728 837.003 825.596 837.525 826.716C838.048 827.817 838.309 829.096 838.309 830.552V831.14C838.309 831.327 838.244 831.485 838.113 831.616C837.983 831.747 837.815 831.812 837.609 831.812H828.313C828.313 831.812 828.313 831.84 828.313 831.896C828.313 831.952 828.313 831.999 828.313 832.036C828.332 832.689 828.453 833.296 828.677 833.856C828.92 834.397 829.265 834.836 829.713 835.172C830.18 835.508 830.731 835.676 831.365 835.676C831.888 835.676 832.327 835.601 832.681 835.452C833.036 835.284 833.325 835.097 833.549 834.892C833.773 834.687 833.932 834.519 834.025 834.388C834.193 834.164 834.324 834.033 834.417 833.996C834.529 833.94 834.688 833.912 834.893 833.912H837.301C837.488 833.912 837.637 833.968 837.749 834.08C837.88 834.192 837.936 834.332 837.917 834.5C837.899 834.799 837.74 835.163 837.441 835.592C837.161 836.021 836.751 836.441 836.209 836.852C835.668 837.263 834.987 837.608 834.165 837.888C833.363 838.149 832.439 838.28 831.393 838.28ZM828.313 829.46H834.501V829.376C834.501 828.648 834.38 828.013 834.137 827.472C833.895 826.931 833.54 826.501 833.073 826.184C832.607 825.867 832.047 825.708 831.393 825.708C830.74 825.708 830.18 825.867 829.713 826.184C829.247 826.501 828.892 826.931 828.649 827.472C828.425 828.013 828.313 828.648 828.313 829.376V829.46ZM847.807 838C846.687 838 845.744 837.804 844.979 837.412C844.214 837.02 843.644 836.441 843.271 835.676C842.898 834.892 842.711 833.921 842.711 832.764V826.408H840.499C840.312 826.408 840.154 826.343 840.023 826.212C839.892 826.081 839.827 825.923 839.827 825.736V824.112C839.827 823.925 839.892 823.767 840.023 823.636C840.154 823.505 840.312 823.44 840.499 823.44H842.711V818.792C842.711 818.605 842.767 818.447 842.879 818.316C843.01 818.185 843.178 818.12 843.383 818.12H845.651C845.838 818.12 845.996 818.185 846.127 818.316C846.258 818.447 846.323 818.605 846.323 818.792V823.44H849.823C850.01 823.44 850.168 823.505 850.299 823.636C850.43 823.767 850.495 823.925 850.495 824.112V825.736C850.495 825.923 850.43 826.081 850.299 826.212C850.168 826.343 850.01 826.408 849.823 826.408H846.323V832.484C846.323 833.249 846.454 833.847 846.715 834.276C846.995 834.705 847.471 834.92 848.143 834.92H850.075C850.262 834.92 850.42 834.985 850.551 835.116C850.682 835.247 850.747 835.405 850.747 835.592V837.328C850.747 837.515 850.682 837.673 850.551 837.804C850.42 837.935 850.262 838 850.075 838H847.807ZM855.863 843.32C855.713 843.32 855.583 843.264 855.471 843.152C855.359 843.04 855.303 842.909 855.303 842.76C855.303 842.685 855.303 842.611 855.303 842.536C855.321 842.48 855.359 842.405 855.415 842.312L857.599 837.132L852.223 824.448C852.148 824.261 852.111 824.131 852.111 824.056C852.129 823.888 852.195 823.748 852.307 823.636C852.419 823.505 852.559 823.44 852.727 823.44H854.995C855.219 823.44 855.387 823.496 855.499 823.608C855.611 823.72 855.695 823.841 855.751 823.972L859.475 833.128L863.311 823.972C863.367 823.823 863.451 823.701 863.563 823.608C863.675 823.496 863.843 823.44 864.067 823.44H866.307C866.456 823.44 866.587 823.496 866.699 823.608C866.829 823.72 866.895 823.851 866.895 824C866.895 824.112 866.857 824.261 866.783 824.448L858.859 842.788C858.784 842.937 858.691 843.059 858.579 843.152C858.467 843.264 858.299 843.32 858.075 843.32H855.863Z" fill="#060606"/>
<path d="M302.703 302.479H217.873V222.323" stroke="#0A8996" stroke-width="3" stroke-linecap="round" stroke-linejoin="round"/>
<path d="M313.499 220.781H215.605L268.693 173.257L314.794 214.523" stroke="#0A8996" stroke-width="3" stroke-linecap="round" stroke-linejoin="round"/>
<path d="M287.279 243.903H250.263V277.816H287.279V243.903Z" stroke="#0A8996" stroke-width="3" stroke-linecap="round" stroke-linejoin="round"/>
<path d="M268.771 243.903V276.274" stroke="#0A8996" stroke-width="3" stroke-linecap="round" stroke-linejoin="round"/>
<path d="M271.855 260.859H284.194" stroke="#0A8996" stroke-width="3" stroke-linecap="round" stroke-linejoin="round"/>
<path d="M315.041 336.392L315.396 211.054C315.396 207.062 318.635 203.825 322.629 203.825H462.043C466.038 203.825 469.277 207.062 469.277 211.054V345.641" stroke="#14335D" stroke-width="3" stroke-linecap="round" stroke-linejoin="round"/>
<path d="M446.142 225.406H336.635V259.318H446.142V225.406Z" stroke="#0A8996" stroke-width="3" stroke-linecap="round" stroke-linejoin="round"/>
<path d="M281.109 407.3H177.771V404.633V136H392.159V199.2" stroke="#14335D" stroke-width="3" stroke-linecap="round" stroke-linejoin="round"/>
<path d="M361.312 282.44H338.177V305.562H361.312V282.44Z" stroke="#14335D" stroke-width="3" stroke-linecap="round" stroke-linejoin="round"/>
<path d="M402.956 282.44H379.82V305.562H402.956V282.44Z" stroke="#14335D" stroke-width="3" stroke-linecap="round" stroke-linejoin="round"/>
<path d="M446.141 282.44H423.006V305.562H446.141V282.44Z" stroke="#14335D" stroke-width="3" stroke-linecap="round" stroke-linejoin="round"/>
<path d="M256.432 330.226H285.736" stroke="#14335D" stroke-width="3" stroke-linecap="round" stroke-linejoin="round"/>
<path d="M219.415 330.226H234.839" stroke="#14335D" stroke-width="3" stroke-linecap="round" stroke-linejoin="round"/>
<path d="M256.432 359.514H285.736" stroke="#14335D" stroke-width="3" stroke-linecap="round" stroke-linejoin="round"/>
<path d="M219.415 359.514H234.839" stroke="#14335D" stroke-width="3" stroke-linecap="round" stroke-linejoin="round"/>
<path d="M234.839 515.203V536.783" stroke="#14335D" stroke-width="3" stroke-linecap="round" stroke-linejoin="round"/>
<path d="M234.839 562.988V586.11" stroke="#14335D" stroke-width="3" stroke-linecap="round" stroke-linejoin="round"/>
<path d="M199.364 550.656H220.957" stroke="#14335D" stroke-width="3" stroke-linecap="round" stroke-linejoin="round"/>
<path d="M248.72 550.656H270.313" stroke="#14335D" stroke-width="3" stroke-linecap="round" stroke-linejoin="round"/>
<path d="M599.807 544.244L704.934 640.833H486.305L599.807 544.244Z" fill="#0A8996"/>
<path d="M380.591 668.533V711.17L362.993 798.063H442.317L412.981 702.461V676.487L390.231 666.637L380.591 668.533Z" fill="#0A8996"/>
<path d="M301.838 615.507L292.723 692.904L383.814 665.589" stroke="black" stroke-width="4" stroke-linecap="round" stroke-linejoin="round"/>
<path d="M388.38 665.589L474.922 695.817" stroke="black" stroke-width="4" stroke-linecap="round" stroke-linejoin="round"/>
<path d="M402.184 674.745V702.492H369.795V674.745" stroke="black" stroke-width="4" stroke-linecap="round" stroke-linejoin="round"/>
<path d="M402.03 702.492H370.164L351.949 798.063H420.245L402.03 702.492Z" stroke="black" stroke-width="4" stroke-linecap="round" stroke-linejoin="round"/>
<path d="M426.646 336.808C403.572 328.515 381.023 328.808 361.312 335.328C356.669 336.869 352.937 340.384 351.086 344.931L345.857 357.818L333.688 357.017C328.491 356.677 323.385 358.712 319.915 362.597C304.892 379.476 295.762 401.719 295.762 426.09V462.5L302.594 455.671L342.989 427.832C350.839 446.838 369.548 460.218 391.388 460.218C413.228 460.218 431.936 446.838 439.787 427.832L480.181 455.671L487.014 462.5V423.886C487.014 385.133 463.138 349.941 426.646 336.823V336.808Z" fill="#14335D"/>
<path d="M291.135 446.607L337.683 414.683C345.534 433.689 364.243 447.07 386.098 447.07C407.953 447.07 426.662 433.689 434.512 414.683L482.387 437.358" stroke="black" stroke-width="4" stroke-linecap="round" stroke-linejoin="round"/>
<path d="M277.253 750.278V798.063" stroke="black" stroke-width="4" stroke-linecap="round" stroke-linejoin="round"/>
<path d="M440.743 571.467V606.057C440.743 633.218 418.733 658.622 391.68 661.35C358.89 664.664 331.235 639.014 331.235 606.92V571.467" stroke="black" stroke-width="4" stroke-linecap="round" stroke-linejoin="round"/>
<path d="M300.389 440.441V500.975C300.389 550.765 341.816 591.444 391.557 588.716C437.026 586.219 473.133 548.591 473.133 502.532V434.275" stroke="black" stroke-width="4" stroke-linecap="round" stroke-linejoin="round"/>
<path d="M474.521 499.11C486.042 499.11 495.389 488.026 495.389 474.338C495.389 460.65 486.042 449.567 474.521 449.567" stroke="black" stroke-width="4" stroke-linecap="round" stroke-linejoin="round"/>
<path d="M297.674 505.276C286.152 505.276 276.806 494.192 276.806 480.504C276.806 466.816 286.152 455.733 297.674 455.733" stroke="black" stroke-width="4" stroke-linecap="round" stroke-linejoin="round"/>
<path d="M418.379 474.354C422.212 474.354 425.32 471.248 425.32 467.417C425.32 463.586 422.212 460.48 418.379 460.48C414.546 460.48 411.438 463.586 411.438 467.417C411.438 471.248 414.546 474.354 418.379 474.354Z" fill="black"/>
<path d="M353.6 474.354C357.433 474.354 360.54 471.248 360.54 467.417C360.54 463.586 357.433 460.48 353.6 460.48C349.767 460.48 346.659 463.586 346.659 467.417C346.659 471.248 349.767 474.354 353.6 474.354Z" fill="black"/>
<path d="M363.471 529.014C366.124 537.955 375.193 544.568 386.097 544.568C397.002 544.568 406.071 537.94 408.723 529.014" stroke="black" stroke-width="4" stroke-linecap="round" stroke-linejoin="round"/>
<path d="M487.014 799.605H177V726.03C177 672.449 216.438 627.021 269.526 619.468L299.988 612.963L304.538 608.416L327.318 603.868" stroke="black" stroke-width="4" stroke-linecap="round" stroke-linejoin="round"/>
<path d="M445.309 604.13L468.089 608.678L472.639 613.24L487.338 616.37" stroke="black" stroke-width="4" stroke-linecap="round" stroke-linejoin="round"/>
<path d="M482.387 437.358V412.294C482.387 369.857 454.378 331.998 413.367 320.946C393.316 315.536 373.898 316.476 356.639 322.195C352.012 323.736 348.295 327.235 346.459 331.752L341.215 344.669L329.015 343.868C323.833 343.529 318.758 345.548 315.304 349.433C300.266 366.312 291.135 388.571 291.135 412.941V446.623" stroke="black" stroke-width="4" stroke-linecap="round" stroke-linejoin="round"/>
<path d="M682.893 631.584V799.605H487.014V631.584" stroke="black" stroke-width="4" stroke-linecap="round" stroke-linejoin="round"/>
<path d="M588.424 534.995L693.551 631.584H474.922L588.424 534.995Z" stroke="black" stroke-width="4" stroke-linecap="round" stroke-linejoin="round"/>
<path d="M636.623 688.619H554.878V761.068H636.623V688.619Z" fill="#14335D"/>
<path d="M625.826 679.37H544.081V751.819H625.826V679.37Z" stroke="black" stroke-width="4" stroke-linecap="round" stroke-linejoin="round"/>
<path d="M584.183 683.994V747.195" stroke="black" stroke-width="4" stroke-linecap="round" stroke-linejoin="round"/>
<path d="M588.81 716.365H621.199" stroke="black" stroke-width="4" stroke-linecap="round" stroke-linejoin="round"/>
<path d="M692.919 718.677H759.24" stroke="#14335D" stroke-width="3" stroke-linecap="round" stroke-linejoin="round"/>
<path d="M774.663 515.203V581.486" stroke="#14335D" stroke-width="3" stroke-linecap="round" stroke-linejoin="round"/>
<path d="M566.445 485.915H654.36" stroke="#14335D" stroke-width="3" stroke-linecap="round" stroke-linejoin="round"/>
<path d="M581.869 505.954H545.947C545.947 493.668 556.358 483.156 569.422 486.331C578.676 488.582 584.953 497.198 584.953 506.709V529.076" stroke="#14335D" stroke-width="3" stroke-linecap="round" stroke-linejoin="round"/>
<path d="M811.541 664.479L812.621 683.239L817.217 691.563" stroke="#14335D" stroke-width="3" stroke-linecap="round" stroke-linejoin="round"/>
<path d="M712.507 598.226C708.389 595.868 707.725 591.29 707.54 589.702C706.862 583.582 711.288 578.064 717.411 577.386L767.924 583.305C770.669 583.629 773.26 584.692 775.45 586.388L800.868 606.211C803.938 608.601 805.958 612.084 806.513 615.923L809.691 637.734" stroke="#14335D" stroke-width="3" stroke-linecap="round" stroke-linejoin="round"/>
<path d="M756.155 660.101L756.386 617.14C755.955 608.924 749.199 602.481 740.978 602.419C732.11 602.358 724.984 609.695 725.323 618.543L724.737 669.905C725.246 680.31 729.226 690.237 736.058 698.114L757.081 713.883L761.738 722.331" stroke="#14335D" stroke-width="3" stroke-linecap="round" stroke-linejoin="round"/>
<path d="M829.148 713.069L818.182 693.166L760.667 724.819L771.633 744.722L829.148 713.069Z" stroke="#0A8996" stroke-width="3" stroke-linecap="round" stroke-linejoin="round"/>
<path d="M759.07 618.358L835.71 651.5C840.661 653.643 842.944 659.392 840.8 664.341C838.656 669.289 832.903 671.57 827.952 669.427L758.854 639.538" stroke="#14335D" stroke-width="3" stroke-linecap="round" stroke-linejoin="round"/>
<path d="M723.797 624.37L688.323 609.032L664.802 587.436L696.081 591.105L730.337 605.934" stroke="#14335D" stroke-width="3" stroke-linecap="round" stroke-linejoin="round"/>
<path d="M734.562 219.24H773.337C777.471 219.24 780.833 222.6 780.833 226.731V336.392" stroke="#14335D" stroke-width="3" stroke-linecap="round" stroke-linejoin="round"/>
<path d="M475.446 219.24H507.836" stroke="#14335D" stroke-width="3" stroke-linecap="round" stroke-linejoin="round"/>
<path d="M632.767 442.753H597.293V433.505H495.497" stroke="#14335D" stroke-width="3" stroke-linecap="round" stroke-linejoin="round"/>
<path d="M625.055 416.548H495.497" stroke="#14335D" stroke-width="3" stroke-linecap="round" stroke-linejoin="round"/>
<path d="M509.378 413.465V149.873H733.02V317.894" stroke="#14335D" stroke-width="3" stroke-linecap="round" stroke-linejoin="round"/>
<path d="M668.241 304.021V236.196H677.634L618.114 195.794L558.595 236.196H567.988V304.021" stroke="#0A8996" stroke-width="3" stroke-linecap="round" stroke-linejoin="round"/>
<path d="M626.598 304.021V257.777H648.191V304.021" stroke="#0A8996" stroke-width="3" stroke-linecap="round" stroke-linejoin="round"/>
<path d="M608.089 257.777H586.496V279.357H608.089V257.777Z" stroke="#0A8996" stroke-width="3" stroke-linecap="round" stroke-linejoin="round"/>
<path d="M564.903 236.196H666.699" stroke="#0A8996" stroke-width="3" stroke-linecap="round" stroke-linejoin="round"/>
<path d="M558.733 307.104H677.495" stroke="#0A8996" stroke-width="3" stroke-linecap="round" stroke-linejoin="round"/>
<path d="M729.457 335.297L741.549 326.989C742.366 326.418 743.492 326.603 744.094 327.39L753.009 339.028C753.487 339.644 754.273 339.906 755.029 339.675L769.095 335.498C770.052 335.22 771.054 335.729 771.393 336.669L776.283 350.496C776.545 351.221 777.224 351.714 777.995 351.745L792.663 352.115C793.65 352.146 794.452 352.932 794.483 353.934L794.853 368.593C794.868 369.364 795.362 370.042 796.102 370.304L809.937 375.191C810.878 375.514 811.387 376.532 811.109 377.488L806.929 391.546C806.713 392.286 806.976 393.087 807.577 393.565L819.222 402.475C820.009 403.076 820.194 404.201 819.623 405.018L811.31 417.103C810.878 417.735 810.878 418.583 811.31 419.215L819.623 431.3C820.194 432.117 820.009 433.243 819.222 433.844L807.577 442.754C806.96 443.231 806.698 444.018 806.929 444.773L811.109 458.831C811.387 459.787 810.878 460.789 809.937 461.128L796.102 466.014C795.377 466.276 794.884 466.955 794.853 467.725L794.483 482.385C794.452 483.371 793.665 484.173 792.663 484.204L777.995 484.574C777.224 484.589 776.545 485.082 776.283 485.822L771.393 499.649C771.07 500.59 770.052 501.098 769.095 500.821L755.029 496.643C754.289 496.428 753.487 496.69 753.009 497.291L744.094 508.929C743.492 509.715 742.366 509.9 741.549 509.33L729.457 501.021C728.824 500.59 727.976 500.59 727.344 501.021L715.252 509.33C714.434 509.9 713.308 509.715 712.707 508.929L703.777 497.291C703.298 496.674 702.512 496.412 701.756 496.643L687.69 500.821C686.733 501.098 685.731 500.59 685.392 499.649L680.502 485.822C680.24 485.098 679.561 484.605 678.79 484.574L664.122 484.204C663.135 484.173 662.333 483.371 662.303 482.385L661.932 467.725C661.917 466.955 661.423 466.276 660.683 466.014L646.848 461.128C645.907 460.804 645.398 459.787 645.676 458.831L649.856 444.773C650.072 444.033 649.809 443.231 649.208 442.754L637.563 433.844C636.776 433.243 636.591 432.117 637.162 431.3L645.475 419.215C645.907 418.583 645.907 417.735 645.475 417.103L637.162 405.018C636.591 404.201 636.776 403.076 637.563 402.475L649.208 393.565C649.825 393.087 650.087 392.301 649.856 391.546L645.676 377.488C645.398 376.532 645.907 375.53 646.848 375.191L660.683 370.304C661.408 370.042 661.902 369.364 661.932 368.593L662.303 353.934C662.333 352.947 663.12 352.146 664.122 352.115L678.79 351.745C679.561 351.729 680.24 351.236 680.502 350.496L685.392 336.669C685.715 335.729 686.733 335.22 687.69 335.498L701.756 339.675C702.496 339.891 703.298 339.629 703.777 339.028L712.707 327.39C713.308 326.603 714.434 326.418 715.252 326.989L727.344 335.297C727.976 335.729 728.824 335.729 729.457 335.297Z" stroke="#0A8996" stroke-width="3" stroke-linecap="round" stroke-linejoin="round"/>
<path d="M675.706 437.867C674.997 437.867 674.411 437.62 673.948 437.142C673.485 436.665 673.254 436.063 673.254 435.354V402.629C673.254 401.889 673.485 401.288 673.948 400.81C674.411 400.347 674.997 400.101 675.706 400.101C676.477 400.101 677.125 400.409 677.634 401.026L698.718 429.065V402.629C698.718 401.889 698.965 401.288 699.443 400.81C699.921 400.347 700.523 400.101 701.232 400.101C701.942 400.101 702.574 400.332 703.021 400.81C703.469 401.272 703.7 401.889 703.7 402.629V435.354C703.7 436.063 703.469 436.665 703.021 437.142C702.574 437.62 701.973 437.867 701.232 437.867C700.908 437.867 700.569 437.79 700.199 437.651C699.829 437.512 699.536 437.281 699.304 437.004L678.22 408.964V435.354C678.22 436.063 677.989 436.665 677.511 437.142C677.048 437.62 676.431 437.867 675.691 437.867H675.706Z" fill="#0A8996"/>
<path d="M714.928 437.867C714.219 437.867 713.617 437.62 713.139 437.142C712.661 436.665 712.414 436.063 712.414 435.354V402.629C712.414 401.889 712.661 401.288 713.139 400.81C713.617 400.347 714.219 400.101 714.928 400.101H736.783C737.524 400.101 738.125 400.317 738.572 400.748C739.02 401.18 739.251 401.75 739.251 402.459C739.251 403.168 739.02 403.677 738.572 404.109C738.125 404.525 737.524 404.741 736.783 404.741H717.442V416.487H731.323C732.064 416.487 732.665 416.703 733.112 417.134C733.56 417.566 733.791 418.121 733.791 418.799C733.791 419.477 733.56 420.032 733.112 420.464C732.665 420.895 732.064 421.111 731.323 421.111H717.442V433.196H736.783C737.524 433.196 738.125 433.412 738.572 433.828C739.02 434.244 739.251 434.799 739.251 435.478C739.251 436.156 739.02 436.757 738.572 437.189C738.125 437.62 737.524 437.836 736.783 437.836H714.928V437.867Z" fill="#0A8996"/>
<path d="M753.317 437.867C752.731 437.867 752.222 437.697 751.775 437.343C751.328 436.988 751.004 436.51 750.803 435.894L741.087 403.6C740.763 402.536 740.794 401.689 741.164 401.057C741.534 400.425 742.135 400.116 742.984 400.116C743.523 400.116 744.032 400.27 744.48 400.579C744.927 400.887 745.251 401.365 745.451 402.012L753.919 431.501H752.855L760.69 402.305C760.813 401.827 761.106 401.426 761.554 401.103C762.001 400.779 762.525 400.625 763.096 400.625C763.605 400.625 764.099 400.764 764.577 401.041C765.039 401.319 765.348 401.719 765.471 402.274L773.353 431.516H772.381L780.895 401.796C781.219 400.702 782.036 400.147 783.363 400.147C784.257 400.147 784.843 400.502 785.105 401.18C785.368 401.873 785.368 402.69 785.105 403.615L775.389 435.848C775.157 436.464 774.833 436.957 774.401 437.327C773.97 437.697 773.461 437.882 772.875 437.882C772.258 437.882 771.733 437.697 771.301 437.297C770.869 436.896 770.546 436.449 770.36 435.894L762.572 405.835H763.728L755.847 435.848C755.616 436.464 755.292 436.957 754.86 437.327C754.428 437.697 753.919 437.882 753.333 437.882L753.317 437.867Z" fill="#0A8996"/>
</svg>
