<svg width="342" height="333" viewBox="0 0 342 333" fill="none" xmlns="http://www.w3.org/2000/svg">
<g clip-path="url(#clip0_1466_1121)">
<path d="M37.1741 152.82H17.4602C13.6567 152.82 10.5654 149.741 10.5654 145.934V15.8762C10.5654 12.0772 13.6489 8.9895 17.4602 8.9895H98.3663C102.17 8.9895 105.261 12.0694 105.261 15.8762V88.7219" stroke="#14335D" stroke-width="3" stroke-linecap="round" stroke-linejoin="round"/>
<path d="M11.3477 22.2783H104.478" stroke="#14335D" stroke-width="3" stroke-linecap="round" stroke-linejoin="round"/>
<path d="M11.3477 140.313H50.4781" stroke="#14335D" stroke-width="3" stroke-linecap="round" stroke-linejoin="round"/>
<path d="M82.0806 67.8665C82.0806 82.531 55.5032 118.246 55.5032 118.246C55.5032 118.246 28.9258 82.5232 28.9258 67.8665C28.9258 53.2098 40.8214 41.3203 55.5032 41.3203C70.1849 41.3203 82.0806 53.202 82.0806 67.8665V67.8665Z" stroke="#0A8996" stroke-width="3" stroke-linecap="round" stroke-linejoin="round"/>
<path d="M55.1739 77.7783C60.7928 77.7783 65.3478 73.2286 65.3478 67.6163C65.3478 62.004 60.7928 57.4543 55.1739 57.4543C49.555 57.4543 45 62.004 45 67.6163C45 73.2286 49.555 77.7783 55.1739 77.7783Z" stroke="#0A8996" stroke-width="3" stroke-linecap="round" stroke-linejoin="round"/>
<path d="M322.286 58.3923C322.286 54.2024 319.07 50.8021 314.977 50.4112C315.055 49.8015 315.11 49.1761 315.11 48.543C315.11 40.6323 308.692 34.2146 300.765 34.2146C293.314 34.2146 287.194 39.8897 286.49 47.1516C284.619 46.6044 282.522 46.5731 280.346 47.3548C277.185 48.4961 274.743 51.2633 274.078 54.5542C272.865 60.581 277.153 65.8965 282.835 66.4046C282.835 66.4515 315.102 66.4515 315.102 66.4515C319.132 65.9121 322.271 62.5352 322.271 58.3923H322.286Z" stroke="#14335D" stroke-width="3" stroke-linecap="round" stroke-linejoin="round"/>
<path d="M239.087 110.609V123.116" stroke="#0A8996" stroke-width="3" stroke-linecap="round" stroke-linejoin="round"/>
<path d="M262.565 110.609V123.116" stroke="#0A8996" stroke-width="3" stroke-linecap="round" stroke-linejoin="round"/>
<path d="M286.044 110.609V123.116" stroke="#0A8996" stroke-width="3" stroke-linecap="round" stroke-linejoin="round"/>
<path d="M239.087 140.313V153.602" stroke="#0A8996" stroke-width="3" stroke-linecap="round" stroke-linejoin="round"/>
<path d="M262.565 140.313V153.602" stroke="#0A8996" stroke-width="3" stroke-linecap="round" stroke-linejoin="round"/>
<path d="M286.044 140.313V153.602" stroke="#0A8996" stroke-width="3" stroke-linecap="round" stroke-linejoin="round"/>
<path d="M239.087 170.799V183.306" stroke="#0A8996" stroke-width="3" stroke-linecap="round" stroke-linejoin="round"/>
<path d="M262.565 170.799V183.306" stroke="#0A8996" stroke-width="3" stroke-linecap="round" stroke-linejoin="round"/>
<path d="M124.826 134.06V147.349" stroke="#14335D" stroke-width="3" stroke-linecap="round" stroke-linejoin="round"/>
<path d="M148.305 134.06V147.349" stroke="#14335D" stroke-width="3" stroke-linecap="round" stroke-linejoin="round"/>
<path d="M161.608 67.6162H174.13" stroke="#14335D" stroke-width="3" stroke-linecap="round" stroke-linejoin="round"/>
<path d="M161.608 44.1655H174.13" stroke="#14335D" stroke-width="3" stroke-linecap="round" stroke-linejoin="round"/>
<path d="M191.348 67.6162H204.652" stroke="#14335D" stroke-width="3" stroke-linecap="round" stroke-linejoin="round"/>
<path d="M191.348 44.1655H204.652" stroke="#14335D" stroke-width="3" stroke-linecap="round" stroke-linejoin="round"/>
<path d="M221.869 67.6162H234.391" stroke="#14335D" stroke-width="3" stroke-linecap="round" stroke-linejoin="round"/>
<path d="M221.869 44.1655H234.391" stroke="#14335D" stroke-width="3" stroke-linecap="round" stroke-linejoin="round"/>
<path d="M286.044 170.799V183.306" stroke="#0A8996" stroke-width="3" stroke-linecap="round" stroke-linejoin="round"/>
<path d="M239.087 200.504V213.792" stroke="#0A8996" stroke-width="3" stroke-linecap="round" stroke-linejoin="round"/>
<path d="M262.565 200.504V213.792" stroke="#0A8996" stroke-width="3" stroke-linecap="round" stroke-linejoin="round"/>
<path d="M286.044 200.504V213.792" stroke="#0A8996" stroke-width="3" stroke-linecap="round" stroke-linejoin="round"/>
<path d="M253.956 89.5037V18.3699H139.695V82.4685" stroke="#14335D" stroke-width="3" stroke-linecap="round" stroke-linejoin="round"/>
<path d="M229.696 16.0247V1.17261H163.174V16.0247" stroke="#14335D" stroke-width="3" stroke-linecap="round" stroke-linejoin="round"/>
<path d="M106.442 113.189C106.442 97.1642 119.442 84.1803 135.485 84.1803C151.528 84.1803 164.528 97.1642 164.528 113.189" stroke="#0A8996" stroke-width="3" stroke-linecap="round" stroke-linejoin="round"/>
<path d="M316.565 218.483V91.067H213.261V134.842" stroke="#0A8996" stroke-width="3" stroke-linecap="round" stroke-linejoin="round"/>
<path d="M171.783 123.116V114.518H99V135.623" stroke="#14335D" stroke-width="3" stroke-linecap="round" stroke-linejoin="round"/>
<path d="M340.827 331.828H207.783" stroke="#14335D" stroke-width="3" stroke-linecap="round" stroke-linejoin="round"/>
<path d="M216.392 300.56V330.264" stroke="#14335D" stroke-width="3" stroke-linecap="round" stroke-linejoin="round"/>
<path d="M333 330.264V234.116H336.131V223.954H226.565" stroke="#14335D" stroke-width="3" stroke-linecap="round" stroke-linejoin="round"/>
<path d="M226.565 234.116H333.783" stroke="#14335D" stroke-width="3" stroke-linecap="round" stroke-linejoin="round"/>
<path d="M226.565 247.405H332.218" stroke="#14335D" stroke-width="3" stroke-linecap="round" stroke-linejoin="round"/>
<path d="M226.565 259.912H332.218" stroke="#14335D" stroke-width="3" stroke-linecap="round" stroke-linejoin="round"/>
<path d="M252.392 321.666V327.638C252.392 329.952 250.514 331.828 248.197 331.828H244.073C241.756 331.828 239.878 329.952 239.878 327.638V321.666" stroke="#0A8996" stroke-width="3" stroke-linecap="round" stroke-linejoin="round"/>
<path d="M296.218 321.666V327.638C296.218 329.952 298.096 331.828 300.413 331.828H304.537C306.853 331.828 308.732 329.952 308.732 327.638V321.666" stroke="#0A8996" stroke-width="3" stroke-linecap="round" stroke-linejoin="round"/>
<path d="M240.121 321.666H308.474C313.005 321.666 316.472 317.374 315.783 312.621L313.756 298.621C313.201 294.791 310.094 291.961 306.447 291.961H242.155C238.501 291.961 235.401 294.791 234.846 298.621L232.819 312.621C232.13 317.374 235.597 321.666 240.128 321.666H240.121Z" stroke="#0A8996" stroke-width="3" stroke-linecap="round" stroke-linejoin="round"/>
<path d="M307.761 292.462L297.681 277.524C295.991 274.96 293.04 273.201 290.215 273.201H258.551C255.726 273.201 252.775 274.96 251.085 277.524L242.218 291.961" stroke="#0A8996" stroke-width="3" stroke-linecap="round" stroke-linejoin="round"/>
<path d="M288.392 307.595H261.001V314.63H288.392V307.595Z" stroke="#14335D" stroke-width="3" stroke-linecap="round" stroke-linejoin="round"/>
<path d="M246.523 315.412C249.332 315.412 251.609 313.137 251.609 310.331C251.609 307.525 249.332 305.25 246.523 305.25C243.713 305.25 241.436 307.525 241.436 310.331C241.436 313.137 243.713 315.412 246.523 315.412Z" stroke="#14335D" stroke-width="3" stroke-linecap="round" stroke-linejoin="round"/>
<path d="M302.088 315.412C304.897 315.412 307.175 313.137 307.175 310.331C307.175 307.525 304.897 305.25 302.088 305.25C299.278 305.25 297.001 307.525 297.001 310.331C297.001 313.137 299.278 315.412 302.088 315.412Z" stroke="#14335D" stroke-width="3" stroke-linecap="round" stroke-linejoin="round"/>
<path d="M31.3042 252.486H6.26074V324.401H31.3042V252.486Z" fill="#0A8996"/>
<path d="M181.957 132.364C181.957 132.364 160.568 135.686 160.568 154.806C160.568 154.806 153.798 155.76 155.356 165.296C155.356 165.296 151.451 170.19 155.356 177.334C155.356 177.334 151.435 179.398 151.826 189.427L158.611 203.451L175.046 202.247L173.998 191.139L166.023 181.446L164.778 160.77C164.778 160.77 178.858 163.639 189.282 161.028C199.706 158.417 199.182 146.239 199.182 146.239L208.957 158.112C208.957 158.112 208.832 180.563 205.834 185.644C202.837 190.725 197.484 194.062 197.484 194.062L197.225 203.443L213.918 204.349L217.855 207.367C217.855 207.367 229.665 201.793 222.316 191.897C222.316 191.897 226.925 185.386 222.316 179.586C222.316 179.586 228.663 171.386 221.095 165.288C221.095 165.288 225.689 157.776 220.258 153.469C214.834 149.162 215.147 143.409 208.307 138.086C201.475 132.762 195.003 129.878 181.957 132.356V132.364Z" fill="#0A8996"/>
<path d="M127.785 181.094C127.785 181.094 111.937 181.571 107.351 193.14C102.084 206.421 104.252 214.511 113.174 221.187C122.095 227.863 113.174 221.187 113.174 221.187L111.937 214.707L111.342 197.768H144.783L144.22 213.667L142.717 220.531L143.218 222.782C143.218 222.782 151.709 223.04 155.356 217.959C159.003 212.878 159.911 204.951 157.047 195.939C152.742 182.392 135.83 181.086 127.785 181.086V181.094Z" fill="#14335D"/>
<path d="M57.1311 156.706L69.6528 146.246C69.6528 146.246 73.6989 148.904 78.6528 148.779C83.6067 148.654 101.067 149.1 101.067 149.1C101.067 149.1 100.824 127.33 77.6041 127.33C54.3841 127.33 57.1233 156.706 57.1233 156.706H57.1311Z" fill="#14335D"/>
<path d="M163.745 282.378L224.358 271.583C232.028 270.52 238.86 276.531 238.743 284.293C238.696 287.295 236.763 289.945 233.93 290.937L137.136 324.73C133.443 325.84 129.553 326.09 125.749 325.472L30.8738 311.113H28.166" stroke="black" stroke-width="4" stroke-linecap="round" stroke-linejoin="round"/>
<path d="M26.6089 247.014H1.56543V318.93H26.6089V247.014Z" stroke="black" stroke-width="4" stroke-linecap="round" stroke-linejoin="round"/>
<path d="M104.088 284.535H157.563C161.688 284.535 165.029 281.229 165.108 277.109C165.295 266.564 156.796 257.958 146.286 257.958H115.834C105.41 257.958 98.0849 255.394 89.3901 251.024C80.7032 246.662 71.351 244.247 56.6223 244.669C41.1032 245.115 32.2284 255.746 27.7988 255.746" stroke="black" stroke-width="4" stroke-linecap="round" stroke-linejoin="round"/>
<path d="M84.9136 164.155C85.9941 164.155 86.8701 163.28 86.8701 162.201C86.8701 161.122 85.9941 160.247 84.9136 160.247C83.833 160.247 82.957 161.122 82.957 162.201C82.957 163.28 83.833 164.155 84.9136 164.155Z" fill="black"/>
<path d="M66.1303 164.155C67.2109 164.155 68.0869 163.28 68.0869 162.201C68.0869 161.122 67.2109 160.247 66.1303 160.247C65.0498 160.247 64.1738 161.122 64.1738 162.201C64.1738 163.28 65.0498 164.155 66.1303 164.155Z" fill="black"/>
<path d="M70.2471 173.614C70.8497 175.755 72.9079 177.334 75.381 177.334C77.854 177.334 79.9123 175.748 80.5149 173.614" stroke="black" stroke-width="4" stroke-linecap="round" stroke-linejoin="round"/>
<path d="M54.5166 151.499L63.407 145.926L64.4714 146.919C67.727 149.952 72.0079 151.648 76.4609 151.648H94.6957" stroke="black" stroke-width="4" stroke-linecap="round" stroke-linejoin="round"/>
<path d="M51.6287 168.673C48.2947 168.673 45.5869 165.992 45.5869 162.685C45.5869 159.379 48.2947 156.698 51.6287 156.698" stroke="black" stroke-width="4" stroke-linecap="round" stroke-linejoin="round"/>
<path d="M191.348 170.409C192.429 170.409 193.305 169.534 193.305 168.454C193.305 167.375 192.429 166.5 191.348 166.5C190.268 166.5 189.392 167.375 189.392 168.454C189.392 169.534 190.268 170.409 191.348 170.409Z" fill="black"/>
<path d="M174.914 170.409C175.994 170.409 176.87 169.534 176.87 168.454C176.87 167.375 175.994 166.5 174.914 166.5C173.833 166.5 172.957 167.375 172.957 168.454C172.957 169.534 173.833 170.409 174.914 170.409Z" fill="black"/>
<path d="M178.537 179.593C179.163 181.712 181.323 183.283 183.906 183.283C186.488 183.283 188.648 181.712 189.275 179.593" stroke="black" stroke-width="4" stroke-linecap="round" stroke-linejoin="round"/>
<path d="M203.478 157.901V174.215C203.478 184.151 196.176 192.796 186.3 193.961C174.428 195.36 164.348 186.136 164.348 174.559V157.894" stroke="black" stroke-width="4" stroke-linecap="round" stroke-linejoin="round"/>
<path d="M165.131 157.901H184.665C190.08 157.901 195.175 155.353 198.423 151.03L198.619 150.772L203.815 157.909" stroke="black" stroke-width="4" stroke-linecap="round" stroke-linejoin="round"/>
<path d="M121.696 209.493C122.776 209.493 123.652 208.618 123.652 207.539C123.652 206.46 122.776 205.585 121.696 205.585C120.615 205.585 119.739 206.46 119.739 207.539C119.739 208.618 120.615 209.493 121.696 209.493Z" fill="black"/>
<path d="M134.217 209.493C135.298 209.493 136.174 208.618 136.174 207.539C136.174 206.46 135.298 205.585 134.217 205.585C133.137 205.585 132.261 206.46 132.261 207.539C132.261 208.618 133.137 209.493 134.217 209.493Z" fill="black"/>
<path d="M131.893 216.919C131.408 218.678 129.764 219.983 127.784 219.983C125.804 219.983 124.161 218.678 123.676 216.919" stroke="black" stroke-width="4" stroke-linecap="round" stroke-linejoin="round"/>
<path d="M111.131 213.034V196.986H144V213.409C144 222.969 135.822 230.622 126.079 229.762C117.54 229.012 111.131 221.594 111.131 213.034V213.034Z" stroke="black" stroke-width="4" stroke-linecap="round" stroke-linejoin="round"/>
<path d="M194.087 203.24H207.65C215.718 203.24 222.261 209.774 222.261 217.834V271.247" stroke="black" stroke-width="4" stroke-linecap="round" stroke-linejoin="round"/>
<path d="M62.609 193.078H49.7899C37.4168 193.078 27.3916 203.099 27.3916 215.449V254.049" stroke="black" stroke-width="4" stroke-linecap="round" stroke-linejoin="round"/>
<path d="M88.4346 193.078H100.956" stroke="black" stroke-width="4" stroke-linecap="round" stroke-linejoin="round"/>
<path d="M148.022 184.76C148.022 181.368 150.777 178.616 154.174 178.616C150.777 178.616 148.022 175.865 148.022 172.472C148.022 169.08 150.777 166.328 154.174 166.328V165.953C151.787 165.109 150.073 162.857 150.073 160.184C150.073 157.511 151.857 155.181 154.315 154.368C155.7 139.25 168.417 127.4 183.913 127.4C199.409 127.4 212.126 139.243 213.511 154.368C215.969 155.173 217.753 157.456 217.753 160.184C217.753 162.912 216.039 165.109 213.652 165.953V166.328C217.049 166.328 219.803 169.08 219.803 172.472C219.803 175.865 217.049 178.616 213.652 178.616C217.049 178.616 219.803 181.368 219.803 184.76C219.803 188.153 217.049 190.904 213.652 190.904C217.049 190.904 219.803 193.656 219.803 197.049C219.803 200.441 217.049 204.013 213.652 204.013" stroke="black" stroke-width="4" stroke-linecap="round" stroke-linejoin="round"/>
<path d="M193.304 193.078V202.122C193.304 206.444 190.432 210.345 186.229 211.346C180.039 212.823 174.521 208.172 174.521 202.239V193.07" stroke="black" stroke-width="4" stroke-linecap="round" stroke-linejoin="round"/>
<path d="M172.956 203.24H160.889C158.932 203.24 157.062 203.623 155.355 204.326" stroke="black" stroke-width="4" stroke-linecap="round" stroke-linejoin="round"/>
<path d="M86.8695 186.824V195.852C86.8695 201.371 83.019 206.288 77.5799 207.242C70.4034 208.5 64.1738 203.021 64.1738 196.087V186.824" stroke="black" stroke-width="4" stroke-linecap="round" stroke-linejoin="round"/>
<path d="M54 166.844V149.389C54 137.656 63.2113 127.72 74.9504 127.416C87.0965 127.103 97.0435 136.843 97.0435 148.904V167.329C97.0435 179.39 87.0965 189.13 74.9504 188.817C63.2035 188.512 54 178.577 54 166.844Z" stroke="black" stroke-width="4" stroke-linecap="round" stroke-linejoin="round"/>
<path d="M99.1406 168.673C102.475 168.673 105.182 165.992 105.182 162.685C105.182 159.379 102.475 156.698 99.1406 156.698" stroke="black" stroke-width="4" stroke-linecap="round" stroke-linejoin="round"/>
<path d="M121.305 229.817V236.031C121.305 238.744 122.987 241.261 125.586 242.058C129.882 243.379 133.826 240.198 133.826 236.11V229.817" stroke="black" stroke-width="4" stroke-linecap="round" stroke-linejoin="round"/>
<path d="M114.23 223.204C106.607 221.336 100.957 214.465 100.957 206.273V203.904C100.957 188.301 113.745 175.716 129.342 176.74C143.21 177.655 154.174 189.177 154.174 203.263V206.273C154.174 214.261 148.79 220.992 141.457 223.055" stroke="black" stroke-width="4" stroke-linecap="round" stroke-linejoin="round"/>
<path d="M92.2539 250.29C95.4469 241.972 103.516 236.071 112.962 236.071H119.731" stroke="black" stroke-width="4" stroke-linecap="round" stroke-linejoin="round"/>
<path d="M136.174 236.071H142.959C155.207 236.071 165.13 245.982 165.13 258.216V275.937" stroke="black" stroke-width="4" stroke-linecap="round" stroke-linejoin="round"/>
<path d="M205.826 233.725V274.373" stroke="black" stroke-width="4" stroke-linecap="round" stroke-linejoin="round"/>
<path d="M47.7393 223.563V245.451" stroke="black" stroke-width="4" stroke-linecap="round" stroke-linejoin="round"/>
</g>
<defs>
<clipPath id="clip0_1466_1121">
<rect width="342" height="333" fill="white"/>
</clipPath>
</defs>
</svg>
