<svg width="350" height="234" viewBox="0 0 350 234" fill="none" xmlns="http://www.w3.org/2000/svg">
<rect width="350" height="234" rx="28" fill="#0A8996"/>
<path d="M132.476 186.273L136.519 198.982H136.674L140.725 186.273H144.646L138.879 203H134.322L128.547 186.273H132.476ZM146.594 203V190.455H150.073V203H146.594ZM148.341 188.837C147.824 188.837 147.38 188.666 147.01 188.323C146.645 187.974 146.463 187.558 146.463 187.073C146.463 186.594 146.645 186.183 147.01 185.84C147.38 185.491 147.824 185.317 148.341 185.317C148.859 185.317 149.3 185.491 149.665 185.84C150.035 186.183 150.22 186.594 150.22 187.073C150.22 187.558 150.035 187.974 149.665 188.323C149.3 188.666 148.859 188.837 148.341 188.837ZM157.483 203.204C156.53 203.204 155.667 202.959 154.894 202.469C154.126 201.974 153.516 201.247 153.064 200.288C152.618 199.325 152.395 198.143 152.395 196.744C152.395 195.306 152.626 194.111 153.089 193.158C153.552 192.2 154.167 191.484 154.935 191.01C155.708 190.531 156.555 190.291 157.475 190.291C158.177 190.291 158.763 190.411 159.231 190.651C159.705 190.885 160.086 191.179 160.374 191.533C160.668 191.881 160.892 192.224 161.044 192.562H161.15V186.273H164.622V203H161.191V200.991H161.044C160.881 201.339 160.649 201.685 160.35 202.028C160.056 202.366 159.672 202.646 159.198 202.869C158.73 203.093 158.158 203.204 157.483 203.204ZM158.586 200.435C159.147 200.435 159.62 200.283 160.007 199.978C160.399 199.668 160.698 199.235 160.905 198.679C161.118 198.124 161.224 197.473 161.224 196.727C161.224 195.981 161.12 195.333 160.913 194.783C160.707 194.233 160.407 193.809 160.015 193.509C159.623 193.21 159.147 193.06 158.586 193.06C158.014 193.06 157.532 193.215 157.14 193.526C156.748 193.836 156.451 194.266 156.25 194.816C156.048 195.366 155.948 196.003 155.948 196.727C155.948 197.457 156.048 198.102 156.25 198.663C156.457 199.218 156.753 199.654 157.14 199.97C157.532 200.28 158.014 200.435 158.586 200.435ZM173.2 203.245C171.909 203.245 170.798 202.984 169.867 202.461C168.942 201.933 168.228 201.187 167.727 200.223C167.226 199.254 166.976 198.108 166.976 196.784C166.976 195.494 167.226 194.361 167.727 193.387C168.228 192.412 168.933 191.652 169.843 191.108C170.757 190.563 171.83 190.291 173.061 190.291C173.888 190.291 174.659 190.425 175.372 190.691C176.091 190.953 176.717 191.348 177.251 191.876C177.79 192.404 178.209 193.068 178.509 193.869C178.808 194.664 178.958 195.595 178.958 196.662V197.618H168.364V195.461H175.683C175.683 194.96 175.574 194.517 175.356 194.13C175.138 193.743 174.836 193.441 174.449 193.223C174.068 193 173.624 192.888 173.118 192.888C172.59 192.888 172.121 193.011 171.713 193.256C171.31 193.496 170.994 193.82 170.766 194.228C170.537 194.631 170.42 195.08 170.414 195.576V197.626C170.414 198.246 170.529 198.783 170.757 199.235C170.992 199.687 171.321 200.035 171.746 200.28C172.17 200.525 172.674 200.648 173.257 200.648C173.643 200.648 173.997 200.593 174.319 200.484C174.64 200.375 174.915 200.212 175.143 199.994C175.372 199.777 175.546 199.51 175.666 199.194L178.884 199.406C178.721 200.179 178.386 200.855 177.88 201.432C177.379 202.004 176.731 202.45 175.936 202.771C175.146 203.087 174.234 203.245 173.2 203.245ZM186.897 203.245C185.628 203.245 184.531 202.975 183.605 202.436C182.685 201.892 181.974 201.135 181.473 200.166C180.972 199.191 180.722 198.061 180.722 196.776C180.722 195.48 180.972 194.348 181.473 193.379C181.974 192.404 182.685 191.647 183.605 191.108C184.531 190.563 185.628 190.291 186.897 190.291C188.165 190.291 189.26 190.563 190.18 191.108C191.106 191.647 191.819 192.404 192.32 193.379C192.821 194.348 193.071 195.48 193.071 196.776C193.071 198.061 192.821 199.191 192.32 200.166C191.819 201.135 191.106 201.892 190.18 202.436C189.26 202.975 188.165 203.245 186.897 203.245ZM186.913 200.55C187.49 200.55 187.972 200.386 188.359 200.06C188.745 199.728 189.037 199.276 189.233 198.704C189.434 198.132 189.535 197.481 189.535 196.752C189.535 196.022 189.434 195.371 189.233 194.8C189.037 194.228 188.745 193.776 188.359 193.444C187.972 193.112 187.49 192.946 186.913 192.946C186.33 192.946 185.84 193.112 185.443 193.444C185.051 193.776 184.754 194.228 184.553 194.8C184.357 195.371 184.259 196.022 184.259 196.752C184.259 197.481 184.357 198.132 184.553 198.704C184.754 199.276 185.051 199.728 185.443 200.06C185.84 200.386 186.33 200.55 186.913 200.55ZM215.481 192.129H211.904C211.839 191.666 211.705 191.255 211.504 190.896C211.302 190.531 211.044 190.22 210.728 189.964C210.412 189.709 210.047 189.513 209.633 189.376C209.225 189.24 208.781 189.172 208.302 189.172C207.436 189.172 206.682 189.387 206.04 189.817C205.397 190.242 204.899 190.863 204.545 191.68C204.191 192.491 204.014 193.477 204.014 194.636C204.014 195.829 204.191 196.831 204.545 197.642C204.904 198.453 205.405 199.066 206.048 199.48C206.69 199.894 207.433 200.1 208.277 200.1C208.751 200.1 209.189 200.038 209.592 199.913C210.001 199.787 210.363 199.605 210.679 199.365C210.995 199.12 211.256 198.824 211.463 198.475C211.675 198.127 211.822 197.729 211.904 197.283L215.481 197.299C215.389 198.067 215.157 198.807 214.787 199.521C214.422 200.228 213.929 200.863 213.309 201.424C212.693 201.979 211.958 202.42 211.103 202.747C210.254 203.068 209.293 203.229 208.22 203.229C206.728 203.229 205.394 202.891 204.218 202.216C203.047 201.541 202.122 200.563 201.441 199.284C200.766 198.004 200.428 196.455 200.428 194.636C200.428 192.812 200.771 191.26 201.457 189.981C202.144 188.701 203.075 187.727 204.251 187.057C205.427 186.382 206.75 186.044 208.22 186.044C209.189 186.044 210.088 186.18 210.916 186.452C211.749 186.725 212.486 187.122 213.129 187.645C213.772 188.162 214.294 188.797 214.697 189.548C215.106 190.299 215.367 191.16 215.481 192.129ZM221.431 186.273V203H217.952V186.273H221.431ZM227.796 203.237C226.996 203.237 226.282 203.098 225.656 202.82C225.03 202.537 224.534 202.121 224.17 201.571C223.81 201.015 223.631 200.324 223.631 199.496C223.631 198.799 223.758 198.214 224.014 197.74C224.27 197.266 224.619 196.885 225.06 196.597C225.501 196.308 226.002 196.09 226.563 195.943C227.129 195.796 227.722 195.693 228.343 195.633C229.073 195.557 229.661 195.486 230.107 195.42C230.554 195.35 230.878 195.246 231.079 195.11C231.281 194.974 231.382 194.772 231.382 194.506V194.457C231.382 193.939 231.218 193.539 230.892 193.256C230.57 192.973 230.113 192.831 229.519 192.831C228.893 192.831 228.395 192.97 228.025 193.248C227.654 193.52 227.409 193.863 227.29 194.277L224.072 194.016C224.235 193.253 224.556 192.594 225.035 192.039C225.515 191.478 226.133 191.048 226.889 190.749C227.652 190.444 228.534 190.291 229.536 190.291C230.233 190.291 230.9 190.373 231.537 190.536C232.179 190.7 232.748 190.953 233.244 191.296C233.745 191.639 234.14 192.08 234.428 192.619C234.717 193.153 234.861 193.792 234.861 194.538V203H231.561V201.26H231.463C231.262 201.652 230.992 201.998 230.655 202.298C230.317 202.592 229.911 202.823 229.438 202.992C228.964 203.155 228.417 203.237 227.796 203.237ZM228.792 200.836C229.304 200.836 229.756 200.735 230.148 200.533C230.54 200.326 230.848 200.049 231.071 199.7C231.294 199.352 231.406 198.957 231.406 198.516V197.185C231.297 197.255 231.147 197.321 230.957 197.381C230.772 197.435 230.562 197.487 230.328 197.536C230.094 197.579 229.86 197.62 229.626 197.658C229.391 197.691 229.179 197.721 228.988 197.748C228.58 197.808 228.223 197.903 227.919 198.034C227.614 198.165 227.377 198.342 227.208 198.565C227.039 198.783 226.955 199.055 226.955 199.382C226.955 199.855 227.126 200.218 227.469 200.468C227.818 200.713 228.259 200.836 228.792 200.836ZM247.999 194.032L244.813 194.228C244.759 193.956 244.642 193.711 244.462 193.493C244.282 193.27 244.045 193.093 243.751 192.962C243.463 192.826 243.117 192.758 242.714 192.758C242.175 192.758 241.72 192.872 241.35 193.101C240.98 193.324 240.795 193.624 240.795 193.999C240.795 194.299 240.915 194.552 241.154 194.759C241.394 194.966 241.805 195.132 242.387 195.257L244.658 195.714C245.878 195.965 246.787 196.368 247.386 196.923C247.985 197.479 248.284 198.208 248.284 199.112C248.284 199.934 248.042 200.656 247.558 201.277C247.078 201.897 246.42 202.382 245.581 202.73C244.748 203.074 243.787 203.245 242.698 203.245C241.037 203.245 239.714 202.899 238.728 202.208C237.748 201.511 237.174 200.563 237.005 199.365L240.427 199.186C240.531 199.692 240.781 200.079 241.179 200.346C241.576 200.607 242.085 200.738 242.706 200.738C243.316 200.738 243.806 200.621 244.176 200.386C244.552 200.147 244.742 199.839 244.748 199.463C244.742 199.148 244.609 198.889 244.348 198.688C244.086 198.481 243.683 198.323 243.139 198.214L240.966 197.781C239.741 197.536 238.829 197.111 238.23 196.507C237.637 195.902 237.34 195.132 237.34 194.195C237.34 193.389 237.558 192.695 237.993 192.113C238.434 191.53 239.052 191.081 239.847 190.765C240.648 190.449 241.584 190.291 242.657 190.291C244.241 190.291 245.488 190.626 246.398 191.296C247.313 191.966 247.846 192.878 247.999 194.032ZM260.914 194.032L257.728 194.228C257.674 193.956 257.557 193.711 257.377 193.493C257.197 193.27 256.96 193.093 256.666 192.962C256.378 192.826 256.032 192.758 255.629 192.758C255.09 192.758 254.635 192.872 254.265 193.101C253.895 193.324 253.71 193.624 253.71 193.999C253.71 194.299 253.83 194.552 254.069 194.759C254.309 194.966 254.72 195.132 255.302 195.257L257.573 195.714C258.793 195.965 259.702 196.368 260.301 196.923C260.9 197.479 261.199 198.208 261.199 199.112C261.199 199.934 260.957 200.656 260.473 201.277C259.993 201.897 259.335 202.382 258.496 202.73C257.663 203.074 256.702 203.245 255.613 203.245C253.952 203.245 252.629 202.899 251.643 202.208C250.663 201.511 250.089 200.563 249.92 199.365L253.342 199.186C253.446 199.692 253.696 200.079 254.094 200.346C254.491 200.607 255 200.738 255.621 200.738C256.231 200.738 256.721 200.621 257.091 200.386C257.467 200.147 257.657 199.839 257.663 199.463C257.657 199.148 257.524 198.889 257.263 198.688C257.001 198.481 256.598 198.323 256.054 198.214L253.881 197.781C252.656 197.536 251.744 197.111 251.145 196.507C250.552 195.902 250.255 195.132 250.255 194.195C250.255 193.389 250.473 192.695 250.908 192.113C251.349 191.53 251.967 191.081 252.762 190.765C253.563 190.449 254.499 190.291 255.572 190.291C257.157 190.291 258.403 190.626 259.313 191.296C260.228 191.966 260.761 192.878 260.914 194.032Z" fill="white"/>
<circle cx="179.5" cy="93.5" r="70.5" fill="white"/>
<path d="M212.09 57.9102H146.91C143.415 57.9102 140.582 60.7434 140.582 64.2383V116.762C140.582 120.257 143.415 123.09 146.91 123.09H212.09C215.585 123.09 218.418 120.257 218.418 116.762V64.2383C218.418 60.7434 215.585 57.9102 212.09 57.9102Z" fill="#E2E7EF"/>
<path d="M212.09 57.9102H146.91C143.415 57.9102 140.582 60.7434 140.582 64.2383V104.105H218.418V64.2383C218.418 60.7434 215.585 57.9102 212.09 57.9102Z" fill="#FF7D95"/>
<path d="M154.809 116.762C156.556 116.762 157.973 115.345 157.973 113.598C157.973 111.85 156.556 110.434 154.809 110.434C153.061 110.434 151.645 111.85 151.645 113.598C151.645 115.345 153.061 116.762 154.809 116.762Z" fill="#D0ACE4"/>
<path d="M177.391 73.6732L185.7 78.4704C187.653 79.5981 187.653 82.4176 185.7 83.5453L177.391 88.3425C175.438 89.4701 172.996 88.0605 172.996 85.805V76.2108C172.996 73.9553 175.438 72.5456 177.391 73.6732Z" fill="white"/>
<path d="M212.09 56.3281H186.64C185.767 56.3281 185.058 57.0364 185.058 57.9102C185.058 58.7839 185.767 59.4922 186.64 59.4922H212.09C214.707 59.4922 216.836 61.6213 216.836 64.2383V102.523H142.164V64.2383C142.164 61.6213 144.293 59.4922 146.91 59.4922H172.402C173.276 59.4922 173.984 58.7839 173.984 57.9102C173.984 57.0364 173.276 56.3281 172.402 56.3281H146.91C142.548 56.3281 139 59.8766 139 64.2383V116.762C139 121.123 142.548 124.672 146.91 124.672H212.09C216.452 124.672 220 121.123 220 116.762V64.2383C220 59.8766 216.452 56.3281 212.09 56.3281ZM212.09 121.508H146.91C144.293 121.508 142.164 119.379 142.164 116.762V105.688H216.836V116.762C216.836 119.379 214.707 121.508 212.09 121.508Z" fill="black"/>
<path d="M154.809 108.852C152.192 108.852 150.062 110.981 150.062 113.598C150.062 116.215 152.192 118.344 154.809 118.344C157.426 118.344 159.555 116.215 159.555 113.598C159.555 110.981 157.426 108.852 154.809 108.852ZM154.809 115.18C153.936 115.18 153.227 114.47 153.227 113.598C153.227 112.725 153.936 112.016 154.809 112.016C155.681 112.016 156.391 112.725 156.391 113.598C156.391 114.47 155.681 115.18 154.809 115.18Z" fill="black"/>
<path d="M207.355 112.016H167.949C167.075 112.016 166.367 112.724 166.367 113.598C166.367 114.471 167.075 115.18 167.949 115.18H207.355C208.229 115.18 208.937 114.471 208.937 113.598C208.937 112.724 208.229 112.016 207.355 112.016Z" fill="black"/>
<path d="M171.414 76.2106V85.805C171.414 87.4363 172.257 88.8969 173.67 89.7125C174.376 90.1203 175.151 90.3243 175.926 90.3243C176.701 90.3243 177.476 90.1203 178.182 89.7125L186.491 84.9153C187.904 84.0998 188.747 82.6389 188.747 81.0078C188.747 79.3768 187.904 77.9159 186.491 77.1004L178.182 72.3032C176.77 71.4876 175.083 71.4876 173.67 72.3032C172.257 73.1187 171.414 74.5796 171.414 76.2106ZM174.578 76.2106C174.578 75.5082 175.05 75.1603 175.252 75.0433C175.375 74.9722 175.622 74.8578 175.933 74.8578C176.134 74.8578 176.362 74.9056 176.6 75.0433L184.909 79.8405C185.517 80.1917 185.583 80.7739 185.583 81.0078C185.583 81.2418 185.517 81.824 184.909 82.1752L176.6 86.9724C175.992 87.3233 175.455 87.0893 175.252 86.9724C175.05 86.8553 174.578 86.5074 174.578 85.805V76.2106H174.578Z" fill="black"/>
<path d="M179.52 59.4922C179.936 59.4922 180.344 59.3229 180.638 59.0287C180.932 58.7344 181.102 58.3262 181.102 57.9102C181.102 57.4941 180.932 57.0859 180.638 56.7917C180.344 56.4974 179.936 56.3281 179.52 56.3281C179.103 56.3281 178.695 56.4974 178.399 56.7917C178.105 57.0859 177.938 57.4941 177.938 57.9102C177.938 58.3262 178.105 58.7344 178.399 59.0287C178.695 59.3229 179.103 59.4922 179.52 59.4922Z" fill="black"/>
</svg>
